<?xml version="1.0" encoding="UTF-8" standalone="yes"?>
<COLLADA xmlns="http://www.collada.org/2005/11/COLLADASchema" version="1.4.1">
    <asset>
        <contributor>
            <authoring_tool>3D City Database Importer/Exporter, version 5.5.1; Chair of Geoinformatics, Technical University of Munich</authoring_tool>
        </contributor>
        <created>2026-01-16T16:51:34.260</created>
        <modified>2026-01-16T16:51:34.260</modified>
        <unit meter="1.0" name="meters"/>
        <up_axis>Z_UP</up_axis>
    </asset>
    <library_materials>
        <material id="default_ai_0.2_sh_0.2_tr_0.0_dc_r_0.8_g_0.8_b_0.8_sc_r_1.0_g_1.0_b_1.0_ec_r_0.0_g_0.0_b_0_mat">
            <instance_effect url="#default_ai_0.2_sh_0.2_tr_0.0_dc_r_0.8_g_0.8_b_0.8_sc_r_1.0_g_1.0_b_1.0_ec_r_0.0_g_0.0_b_0_eff"/>
        </material>
        <material id="default_ai_0.2_sh_0.2_tr_0.0_dc_r_1.0_g_0.2_b_0.2_sc_r_1.0_g_1.0_b_1.0_ec_r_0.0_g_0.0_b_0_mat">
            <instance_effect url="#default_ai_0.2_sh_0.2_tr_0.0_dc_r_1.0_g_0.2_b_0.2_sc_r_1.0_g_1.0_b_1.0_ec_r_0.0_g_0.0_b_0_eff"/>
        </material>
    </library_materials>
    <library_effects>
        <effect id="default_ai_0.2_sh_0.2_tr_0.0_dc_r_0.8_g_0.8_b_0.8_sc_r_1.0_g_1.0_b_1.0_ec_r_0.0_g_0.0_b_0_eff">
            <profile_COMMON>
                <technique sid="COMMON">
                    <lambert>
                        <emission>
                            <color>0.0 0.0 0.0 1.0</color>
                        </emission>
                        <diffuse>
                            <color>0.8 0.8 0.8 1.0</color>
                        </diffuse>
                        <reflective>
                            <color>1.0 1.0 1.0 1.0</color>
                        </reflective>
                        <reflectivity>
                            <float>0.2</float>
                        </reflectivity>
                        <transparent opaque="A_ONE">
                            <color>1.0 1.0 1.0 1.0</color>
                        </transparent>
                        <transparency>
                            <float>1.0</float>
                        </transparency>
                    </lambert>
                </technique>
                <extra>
                    <technique profile="GOOGLEEARTH">
                        <double_sided>1</double_sided>
                    </technique>
                </extra>
            </profile_COMMON>
        </effect>
        <effect id="default_ai_0.2_sh_0.2_tr_0.0_dc_r_1.0_g_0.2_b_0.2_sc_r_1.0_g_1.0_b_1.0_ec_r_0.0_g_0.0_b_0_eff">
            <profile_COMMON>
                <technique sid="COMMON">
                    <lambert>
                        <emission>
                            <color>0.0 0.0 0.0 1.0</color>
                        </emission>
                        <diffuse>
                            <color>1.0 0.2 0.2 1.0</color>
                        </diffuse>
                        <reflective>
                            <color>1.0 1.0 1.0 1.0</color>
                        </reflective>
                        <reflectivity>
                            <float>0.2</float>
                        </reflectivity>
                        <transparent opaque="A_ONE">
                            <color>1.0 1.0 1.0 1.0</color>
                        </transparent>
                        <transparency>
                            <float>1.0</float>
                        </transparency>
                    </lambert>
                </technique>
                <extra>
                    <technique profile="GOOGLEEARTH">
                        <double_sided>1</double_sided>
                    </technique>
                </extra>
            </profile_COMMON>
        </effect>
    </library_effects>
    <library_geometries>
        <geometry id="geometry0">
            <mesh>
                <source id="geometry0-position">
                    <float_array id="geometry0-position-array" count="135">-6.5149465 -5.527771 9.0000291 -7.8871179 -0.1838684 9.0000291 -9.8343092 -3.677948 9.0000291 -4.5677572 -2.0337219 9.0000291 -1.9472204 -3.4941101 9.0000291 -7.4885374 -7.2747803 5.5000296 -4.8679929 -8.7352295 5.5000296 -7.4988514 0.5153873 8.7127988 1.983E-4 -1.419E-4 7.562878 -5.9399553 3.3102152 7.5626263 -1.1680976 -2.0965881 8.4254563 -5.9413515 3.3101838 7.5628809 -7.6948658 0.1636555 8.857397 -1.3150979 -2.3603718 8.5338984 -7.8871284 -0.1838634 9.0000281 -1.4601536 -2.620667 8.6409138 -7.8881994 -0.1832669 9.0000279 -4.5677677 -2.033716 9.0000295 -1.6973143 -3.0462396 8.8158588 -1.9472333 -3.4941045 9.0000304 -9.8343366 -3.6779534 6.6666989 -7.8871625 -0.1838891 9.0000319 -5.9399731 3.3101753 7.5626263 -9.8343366 -3.6779458 9.00003 -6.5149701 -5.5277688 9.0000281 -6.5149701 -5.5277764 3.12E-5 -6.5149701 -5.5277688 6.6666955 -9.8343366 -3.6779458 2.91E-5 -4.567796 -2.0337044 9.000029 -7.4885609 -7.2748086 2.88E-5 -7.4885609 -7.2748086 5.5000285 -4.8680127 -8.7351891 5.5000295 -4.8680127 -8.7351891 2.87E-5 -6.23E-5 -3.59E-5 2.95E-5 -6.23E-5 -3.59E-5 7.5626277 -3.894418 -6.9881493 6.666697 -1.9472516 -3.4940926 9.0000309 -5.9399731 3.3101676 3.22E-5 -3.8944257 -6.988157 3.03E-5 0.0 0.0 0.0 -6.514904 -5.5277405 7.0E-7 -9.8342533 -3.6779175 1.0E-7 -4.8679466 -8.7351685 6.0E-7 -7.4884682 -7.2747803 8.0E-7 -5.9399033 3.3102112 7.0E-7</float_array>
                    <technique_common>
                        <accessor count="45" source="#geometry0-position-array" stride="3">
                            <param name="X" type="float"/>
                            <param name="Y" type="float"/>
                            <param name="Z" type="float"/>
                        </accessor>
                    </technique_common>
                </source>
                <source id="geometry0-normal">
                    <float_array id="geometry0-normal-array" count="342">-0.4867941 -0.8735168 0.0 -0.4867941 -0.8735168 0.0 -0.4867941 -0.8735168 0.0 -0.4867941 -0.8735167 0.0 -0.4867941 -0.8735167 0.0 -0.4867941 -0.8735167 0.0 0.8735161 -0.4867955 0.0 0.8735161 -0.4867955 0.0 0.8735161 -0.4867955 0.0 0.873516 -0.4867955 0.0 0.873516 -0.4867955 0.0 0.873516 -0.4867955 0.0 0.873516 -0.4867955 6.0E-7 0.873516 -0.4867955 6.0E-7 0.873516 -0.4867955 6.0E-7 0.8735157 -0.486796 5.2E-6 0.8735157 -0.486796 5.2E-6 0.8735157 -0.486796 5.2E-6 0.0 0.0 1.0 0.0 0.0 1.0 0.0 0.0 1.0 0.0 0.0 1.0 0.0 0.0 1.0 0.0 0.0 1.0 -0.8735158 0.4867957 -3.6E-6 -0.8735158 0.4867957 -3.6E-6 -0.8735158 0.4867957 -3.6E-6 0.4867955 0.873516 0.0 0.4867955 0.873516 0.0 0.4867955 0.873516 0.0 -0.8735164 0.4867947 -1.6E-6 -0.8735164 0.4867947 -1.6E-6 -0.8735164 0.4867947 -1.6E-6 0.4867947 0.8735164 -9.0E-7 0.4867947 0.8735164 -9.0E-7 0.4867947 0.8735164 -9.0E-7 1.0 0.0 0.0 1.0 0.0 0.0 1.0 0.0 0.0 -0.4867949 -0.8735164 7.0E-7 -0.4867949 -0.8735164 7.0E-7 -0.4867949 -0.8735164 7.0E-7 -0.4867905 -0.8735187 2.9E-6 -0.4867905 -0.8735187 2.9E-6 -0.4867905 -0.8735187 2.9E-6 -0.4867964 -0.8735155 -1.0E-6 -0.4867964 -0.8735155 -1.0E-6 -0.4867964 -0.8735155 -1.0E-6 0.8735161 -0.4867955 -4.0E-7 0.8735161 -0.4867955 -4.0E-7 0.8735161 -0.4867955 -4.0E-7 0.8735158 -0.4867958 0.0 0.8735158 -0.4867958 0.0 0.8735158 -0.4867958 0.0 -0.2452898 -0.4401337 0.8637797 -0.2452898 -0.4401337 0.8637797 -0.2452898 -0.4401337 0.8637797 -0.245284 -0.4401404 0.8637778 -0.245284 -0.4401404 0.8637778 -0.245284 -0.4401404 0.8637778 0.1646168 0.2954625 0.941065 0.1646168 0.2954625 0.941065 0.1646168 0.2954625 0.941065 1.0E-7 -2.0E-7 -1.0 1.0E-7 -2.0E-7 -1.0 1.0E-7 -2.0E-7 -1.0 0.1646168 0.2954623 0.941065 0.1646168 0.2954623 0.941065 0.1646168 0.2954623 0.941065 -1.0E-7 0.0 -1.0 -1.0E-7 0.0 -1.0 -1.0E-7 0.0 -1.0 0.1649731 0.2952637 0.9410649 0.1649731 0.2952637 0.9410649 0.1649731 0.2952637 0.9410649 0.8735168 -0.4867939 0.0 0.8735168 -0.4867939 0.0 0.8735168 -0.4867939 0.0 -1.0E-7 0.0 -1.0 -1.0E-7 0.0 -1.0 -1.0E-7 0.0 -1.0 0.1645233 0.2952257 0.9411556 0.1645233 0.2952257 0.9411556 0.1645233 0.2952257 0.9411556 -1.0E-7 1.0E-7 -1.0 -1.0E-7 1.0E-7 -1.0 -1.0E-7 1.0E-7 -1.0 0.1645237 0.2952268 0.9411552 0.1645237 0.2952268 0.9411552 0.1645237 0.2952268 0.9411552 0.1645307 0.2952455 0.941148 0.1645307 0.2952455 0.941148 0.1645307 0.2952455 0.941148 -0.873516 0.4867953 -6.0E-7 -0.873516 0.4867953 -6.0E-7 -0.873516 0.4867953 -6.0E-7 0.1645311 0.2952467 0.9411476 0.1645311 0.2952467 0.9411476 0.1645311 0.2952467 0.9411476 -0.8735169 0.4867938 0.0 -0.8735169 0.4867938 0.0 -0.8735169 0.4867938 0.0 0.1644673 0.2952799 0.9411484 0.1644673 0.2952799 0.9411484 0.1644673 0.2952799 0.9411484 0.1645186 0.2952119 0.9411607 0.1645186 0.2952119 0.9411607 0.1645186 0.2952119 0.9411607 0.1645186 0.2952115 0.9411609 0.1645186 0.2952115 0.9411609 0.1645186 0.2952115 0.9411609 0.1645208 0.2952182 0.9411584 0.1645208 0.2952182 0.9411584 0.1645208 0.2952182 0.9411584</float_array>
                    <technique_common>
                        <accessor count="114" source="#geometry0-normal-array" stride="3">
                            <param name="X" type="float"/>
                            <param name="Y" type="float"/>
                            <param name="Z" type="float"/>
                        </accessor>
                    </technique_common>
                </source>
                <source id="geometry0-texCoords">
                    <float_array id="geometry0-texCoords-array" count="0"></float_array>
                    <technique_common>
                        <accessor count="0" source="#geometry0-texCoords-array" stride="2">
                            <param name="S" type="float"/>
                            <param name="T" type="float"/>
                        </accessor>
                    </technique_common>
                </source>
                <vertices id="geometry0-vertex">
                    <input semantic="POSITION" source="#geometry0-position"/>
                </vertices>
                <triangles count="23" material="default_ai_0.2_sh_0.2_tr_0.0_dc_r_0.8_g_0.8_b_0.8_sc_r_1.0_g_1.0_b_1.0_ec_r_0.0_g_0.0_b_0_tri">
                    <input offset="0" semantic="VERTEX" source="#geometry0-vertex"/>
                    <input offset="1" semantic="NORMAL" source="#geometry0-normal"/>
                    <p>31 0 29 1 32 2 30 3 29 4 31 5 31 6 32 7 33 8 34 9 31 10 33 11 35 12 31 13 34 14 36 15 35 16 34 17 20 24 21 25 22 26 33 27 22 28 34 29 23 30 21 31 20 32 37 33 22 34 33 35 24 36 25 37 26 38 23 39 25 40 24 41 20 42 25 43 23 44 27 45 25 46 20 47 38 48 34 49 35 50 33 51 34 52 38 53 39 63 40 64 41 65 42 69 40 70 39 71 26 75 28 76 24 77 43 78 40 79 42 80 44 84 39 85 41 86 29 93 26 94 25 95 30 99 26 100 29 101</p>
                </triangles>
                <triangles count="15" material="default_ai_0.2_sh_0.2_tr_0.0_dc_r_1.0_g_0.2_b_0.2_sc_r_1.0_g_1.0_b_1.0_ec_r_0.0_g_0.0_b_0_tri">
                    <input offset="0" semantic="VERTEX" source="#geometry0-vertex"/>
                    <input offset="1" semantic="NORMAL" source="#geometry0-normal"/>
                    <p>0 18 1 19 2 20 3 21 1 22 0 23 4 54 5 55 6 56 3 57 5 58 4 59 7 60 8 61 9 62 10 66 8 67 7 68 7 72 9 73 11 74 12 81 10 82 7 83 13 87 10 88 12 89 14 90 13 91 12 92 15 96 13 97 14 98 14 102 12 103 16 104 17 105 15 106 14 107 18 108 15 109 17 110 19 111 18 112 17 113</p>
                </triangles>
            </mesh>
        </geometry>
    </library_geometries>
    <library_visual_scenes>
        <visual_scene id="Building_pb-96357316-7f36-11f0-b47c-9c7bef4dcf4c">
            <node>
                <instance_geometry url="#geometry0">
                    <bind_material>
                        <technique_common>
                            <instance_material symbol="default_ai_0.2_sh_0.2_tr_0.0_dc_r_0.8_g_0.8_b_0.8_sc_r_1.0_g_1.0_b_1.0_ec_r_0.0_g_0.0_b_0_tri" target="#default_ai_0.2_sh_0.2_tr_0.0_dc_r_0.8_g_0.8_b_0.8_sc_r_1.0_g_1.0_b_1.0_ec_r_0.0_g_0.0_b_0_mat"/>
                            <instance_material symbol="default_ai_0.2_sh_0.2_tr_0.0_dc_r_1.0_g_0.2_b_0.2_sc_r_1.0_g_1.0_b_1.0_ec_r_0.0_g_0.0_b_0_tri" target="#default_ai_0.2_sh_0.2_tr_0.0_dc_r_1.0_g_0.2_b_0.2_sc_r_1.0_g_1.0_b_1.0_ec_r_0.0_g_0.0_b_0_mat"/>
                        </technique_common>
                    </bind_material>
                </instance_geometry>
            </node>
        </visual_scene>
    </library_visual_scenes>
    <scene>
        <instance_visual_scene url="#Building_pb-96357316-7f36-11f0-b47c-9c7bef4dcf4c"/>
    </scene>
</COLLADA>
