<?xml version="1.0" encoding="UTF-8" standalone="yes"?>
<COLLADA xmlns="http://www.collada.org/2005/11/COLLADASchema" version="1.4.1">
    <asset>
        <contributor>
            <authoring_tool>3D City Database Importer/Exporter, version 5.5.1; Chair of Geoinformatics, Technical University of Munich</authoring_tool>
        </contributor>
        <created>2026-01-16T16:51:34.515</created>
        <modified>2026-01-16T16:51:34.515</modified>
        <unit meter="1.0" name="meters"/>
        <up_axis>Z_UP</up_axis>
    </asset>
    <library_materials>
        <material id="default_dc_r_1.0_g_1.0_b_1_mat">
            <instance_effect url="#default_dc_r_1.0_g_1.0_b_1_eff"/>
        </material>
        <material id="default_dc_r_0.6_g_0.6_b_0_mat">
            <instance_effect url="#default_dc_r_0.6_g_0.6_b_0_eff"/>
        </material>
        <material id="default_dc_r_0.9_g_0.7_b_0_mat">
            <instance_effect url="#default_dc_r_0.9_g_0.7_b_0_eff"/>
        </material>
    </library_materials>
    <library_effects>
        <effect id="default_dc_r_1.0_g_1.0_b_1_eff">
            <profile_COMMON>
                <technique sid="COMMON">
                    <lambert>
                        <emission>
                            <color>0.0 0.0 0.0 1.0</color>
                        </emission>
                        <diffuse>
                            <color>1.0 1.0 1.0 1.0</color>
                        </diffuse>
                    </lambert>
                </technique>
                <extra>
                    <technique profile="GOOGLEEARTH">
                        <double_sided>1</double_sided>
                    </technique>
                </extra>
            </profile_COMMON>
        </effect>
        <effect id="default_dc_r_0.6_g_0.6_b_0_eff">
            <profile_COMMON>
                <technique sid="COMMON">
                    <lambert>
                        <emission>
                            <color>0.0 0.0 0.0 1.0</color>
                        </emission>
                        <diffuse>
                            <color>0.6 0.6 0.6 1.0</color>
                        </diffuse>
                    </lambert>
                </technique>
                <extra>
                    <technique profile="GOOGLEEARTH">
                        <double_sided>1</double_sided>
                    </technique>
                </extra>
            </profile_COMMON>
        </effect>
        <effect id="default_dc_r_0.9_g_0.7_b_0_eff">
            <profile_COMMON>
                <technique sid="COMMON">
                    <lambert>
                        <emission>
                            <color>0.0 0.0 0.0 1.0</color>
                        </emission>
                        <diffuse>
                            <color>0.9 0.7 0.4 1.0</color>
                        </diffuse>
                    </lambert>
                </technique>
                <extra>
                    <technique profile="GOOGLEEARTH">
                        <double_sided>1</double_sided>
                    </technique>
                </extra>
            </profile_COMMON>
        </effect>
    </library_effects>
    <library_geometries>
        <geometry id="geometry0">
            <mesh>
                <source id="geometry0-position">
                    <float_array id="geometry0-position-array" count="315">7.2176 -4.7943 3.361224 7.1581 -4.7699 3.330124 9.1309 -11.3868 5.419524 11.4554 -5.6905 5.419524 7.516 -4.074 3.363224 -2.9345 -6.3627 5.383424 4.418 -3.6463 3.328224 -2.1303 -3.272 4.154324 -0.6437 -1.5706 3.324524 -3.3059 1.3582 2.662224 -2.9698 -6.4486 5.419524 -2.9722 -6.3472 5.383424 -3.0941 -6.297 5.383224 -0.5401 -1.6131 3.324624 -0.3089 -0.7537 2.981824 -3.3258 -6.2017 5.382924 -7.1951 -1.2052 4.154324 5.5768 -4.1214 3.329024 -5.3313 2.1904 2.660224 -5.7327 2.3553 2.659824 0.0 0.0 2.665524 4.9423 -20.5275 5.214524 3.2051 -14.5793 3.352524 2.6568 -15.9142 3.350924 1.3649 -19.0595 3.347224 5.3349 -20.6886 5.419524 3.9535 -12.7572 4.136324 3.8993 -12.8891 4.079524 -1.5876 -10.4814 4.141724 -3.318 -7.2969 5.054624 -1.9375 -10.3377 4.142024 -3.0374 -6.6134 5.348624 -4.1869 -9.4138 4.144224 15.2739 -7.8137 3.374724 9.7879 -21.1788 3.388624 9.3182 -22.3231 3.389824 15.4693 -7.3376 3.374224 -3.3103 -6.1636 2.864424 -7.2926 -1.4426 4.048224 -8.3911 -4.1171 2.854224 -3.3258 -6.2017 2.847524 -3.3059 1.3582 2.6622 0.0 0.0 0.0 -5.7327 2.3553 0.0 -5.3313 2.1904 2.6602 -5.7327 2.3553 2.6598 0.0 0.0 2.6655 -0.3089 -0.7537 2.9818 -0.6437 -1.5706 0.0 -0.6437 -1.5706 3.3246 7.1581 -4.7699 3.3301 7.2176 -4.7943 0.0 5.5768 -4.1214 3.329 4.418 -3.6463 3.3282 -0.5401 -1.6131 3.3246 7.2176 -4.7943 3.3612 7.516 -4.074 0.0 7.516 -4.074 3.3632 11.4554 -5.6905 5.4195 15.4693 -7.3376 0.0 15.4693 -7.3376 3.3742 9.7879 -21.1788 3.3886 9.3182 -22.3231 0.0 9.3182 -22.3231 3.3898 15.2739 -7.8137 3.3747 4.9423 -20.5275 5.2145 1.3649 -19.0595 0.0 1.3649 -19.0595 3.3472 5.3349 -20.6886 5.4195 3.2051 -14.5793 3.3525 3.9535 -12.7572 0.0 2.6568 -15.9142 3.351 3.8993 -12.8891 4.0796 3.9535 -12.7572 4.1363 -1.5876 -10.4814 4.1417 -1.9375 -10.3377 4.142 -4.1869 -9.4138 0.0 -4.1869 -9.4138 4.1442 -3.318 -7.2969 5.0546 -2.9345 -6.3627 0.0 -3.0374 -6.6134 5.3486 -2.9345 -6.3627 5.3834 -2.9698 -6.4486 5.4195 -3.3103 -6.1636 2.8644 -3.3258 -6.2017 2.8475 -3.3258 -6.2017 5.3829 -2.1303 -3.272 4.1543 -7.2926 -1.4426 4.0483 -8.3911 -4.1171 0.0 -8.3911 -4.1171 2.8542 -7.1951 -1.2052 4.1543 -2.9722 -6.3472 5.3834 -3.0941 -6.297 5.3832 3.9535 -12.7572 3.6E-5 -2.9345 -6.3627 3.6E-5 7.2176 -4.7943 3.6E-5 15.4693 -7.3376 3.6E-5 -0.6437 -1.5706 3.6E-5 -4.1869 -9.4138 3.6E-5 -8.3911 -4.1171 3.6E-5 0.0 0.0 3.6E-5 -5.7327 2.3553 3.6E-5 7.516 -4.074 3.6E-5 9.3182 -22.3231 3.6E-5 1.3649 -19.0595 3.6E-5</float_array>
                    <technique_common>
                        <accessor count="105" source="#geometry0-position-array" stride="3">
                            <param name="X" type="float"/>
                            <param name="Y" type="float"/>
                            <param name="Z" type="float"/>
                        </accessor>
                    </technique_common>
                </source>
                <source id="geometry0-normal">
                    <float_array id="geometry0-normal-array" count="918">-0.9250107 0.3799411 3.8E-6 -0.9250107 0.3799411 3.8E-6 -0.9250107 0.3799411 3.8E-6 -0.9250169 0.379926 -5.8E-6 -0.9250169 0.379926 -5.8E-6 -0.9250169 0.379926 -5.8E-6 -0.9250118 0.3799384 8.0E-7 -0.9250118 0.3799384 8.0E-7 -0.9250118 0.3799384 8.0E-7 -0.9249538 0.3800796 0.0 -0.9249538 0.3800796 0.0 -0.9249538 0.3800796 0.0 -0.9250116 0.3799391 0.0 -0.9250116 0.3799391 0.0 -0.9250116 0.3799391 0.0 -0.1395385 -0.3427223 0.9290158 -0.1395385 -0.3427223 0.9290158 -0.1395385 -0.3427223 0.9290158 -0.1396721 -0.3422772 0.9291599 -0.1396721 -0.3422772 0.9291599 -0.1396721 -0.3422772 0.9291599 -0.1397865 -0.3423111 0.9291301 -0.1397865 -0.3423111 0.9291301 -0.1397865 -0.3423111 0.9291301 -0.1397437 -0.3422917 0.9291437 -0.1397437 -0.3422917 0.9291437 -0.1397437 -0.3422917 0.9291437 -0.1398912 -0.3423349 0.9291056 -0.1398912 -0.3423349 0.9291056 -0.1398912 -0.3423349 0.9291056 -0.1396718 -0.3422689 0.929163 -0.1396718 -0.3422689 0.929163 -0.1396718 -0.3422689 0.929163 -0.3798979 -0.9250284 -2.2E-5 -0.3798979 -0.9250284 -2.2E-5 -0.3798979 -0.9250284 -2.2E-5 -0.1397025 -0.3422759 0.9291558 -0.1397025 -0.3422759 0.9291558 -0.1397025 -0.3422759 0.9291558 -0.3799325 -0.9250142 0.0 -0.3799325 -0.9250142 0.0 -0.3799325 -0.9250142 0.0 -0.1396864 -0.3422914 0.9291525 -0.1396864 -0.3422914 0.9291525 -0.1396864 -0.3422914 0.9291525 -0.3799209 -0.925019 -5.1E-6 -0.3799209 -0.925019 -5.1E-6 -0.3799209 -0.925019 -5.1E-6 -0.3799177 -0.9250203 0.0 -0.3799177 -0.9250203 0.0 -0.3799177 -0.9250203 0.0 -0.9251016 0.3797196 -8.4E-6 -0.9251016 0.3797196 -8.4E-6 -0.9251016 0.3797196 -8.4E-6 -0.9251183 0.3796789 2.648E-4 -0.9251183 0.3796789 2.648E-4 -0.9251183 0.3796789 2.648E-4 -0.9250976 0.3797294 0.0 -0.9250976 0.3797294 0.0 -0.9250976 0.3797294 0.0 -0.9250856 0.3797586 0.0 -0.9250856 0.3797586 0.0 -0.9250856 0.3797586 0.0 -0.9250653 0.3798071 -8.159E-4 -0.9250653 0.3798071 -8.159E-4 -0.9250653 0.3798071 -8.159E-4 0.3948005 -0.1611138 0.9045302 0.3948005 -0.1611138 0.9045302 0.3948005 -0.1611138 0.9045302 0.3947978 -0.1611142 0.9045313 0.3947978 -0.1611142 0.9045313 0.3947978 -0.1611142 0.9045313 0.3947967 -0.1611054 0.9045333 0.3947967 -0.1611054 0.9045333 0.3947967 -0.1611054 0.9045333 0.3947993 -0.1611046 0.9045324 0.3947993 -0.1611046 0.9045324 0.3947993 -0.1611046 0.9045324 0.3948068 -0.1610862 0.9045324 0.3948068 -0.1610862 0.9045324 0.3948068 -0.1610862 0.9045324 -0.9262834 0.3768279 0.0 -0.9262834 0.3768279 0.0 -0.9262834 0.3768279 0.0 -0.9258778 0.3778231 1.76E-5 -0.9258778 0.3778231 1.76E-5 -0.9258778 0.3778231 1.76E-5 -0.1442052 -0.3534082 0.9242876 -0.1442052 -0.3534082 0.9242876 -0.1442052 -0.3534082 0.9242876 -0.1435878 -0.351872 0.9249696 -0.1435878 -0.351872 0.9249696 -0.1435878 -0.351872 0.9249696 -0.144247 -0.3534389 0.9242694 -0.144247 -0.3534389 0.9242694 -0.144247 -0.3534389 0.9242694 -0.1443498 -0.3537367 0.9241394 -0.1443498 -0.3537367 0.9241394 -0.1443498 -0.3537367 0.9241394 -0.9250152 0.3799302 1.4E-6 -0.9250152 0.3799302 1.4E-6 -0.9250152 0.3799302 1.4E-6 -0.9250144 0.379932 0.0 -0.9250144 0.379932 0.0 -0.9250144 0.379932 0.0 -0.9250216 0.3799143 -1.62E-5 -0.9250216 0.3799143 -1.62E-5 -0.9250216 0.3799143 -1.62E-5 -0.9250151 0.3799304 0.0 -0.9250151 0.3799304 0.0 -0.9250151 0.3799304 0.0 0.3800291 0.9249746 1.42E-5 0.3800291 0.9249746 1.42E-5 0.3800291 0.9249746 1.42E-5 0.3799964 0.924988 0.0 0.3799964 0.924988 0.0 0.3799964 0.924988 0.0 0.3800193 0.9249786 0.0 0.3800193 0.9249786 0.0 0.3800193 0.9249786 0.0 0.3800515 0.9249653 -9.7E-6 0.3800515 0.9249653 -9.7E-6 0.3800515 0.9249653 -9.7E-6 -0.3805708 -0.9247518 -1.15E-5 -0.3805708 -0.9247518 -1.15E-5 -0.3805708 -0.9247518 -1.15E-5 -0.3805763 -0.9247495 0.0 -0.3805763 -0.9247495 0.0 -0.3805763 -0.9247495 0.0 -0.3804998 -0.924781 0.0 -0.3804998 -0.924781 0.0 -0.3804998 -0.924781 0.0 -0.3802582 -0.9248804 -4.36E-5 -0.3802582 -0.9248804 -4.36E-5 -0.3802582 -0.9248804 -4.36E-5 -0.3803875 -0.9248272 0.0 -0.3803875 -0.9248272 0.0 -0.3803875 -0.9248272 0.0 -0.3807877 -0.9246625 4.28E-5 -0.3807877 -0.9246625 4.28E-5 -0.3807877 -0.9246625 4.28E-5 -0.4032866 0.1640319 0.9002519 -0.4032866 0.1640319 0.9002519 -0.4032866 0.1640319 0.9002519 -0.4026263 0.1643005 0.9004984 -0.4026263 0.1643005 0.9004984 -0.4026263 0.1643005 0.9004984 -0.4026273 0.1642966 0.9004987 -0.4026273 0.1642966 0.9004987 -0.4026273 0.1642966 0.9004987 0.9253024 -0.3792301 6.0E-7 0.9253024 -0.3792301 6.0E-7 0.9253024 -0.3792301 6.0E-7 0.9253032 -0.3792282 0.0 0.9253032 -0.3792282 0.0 0.9253032 -0.3792282 0.0 0.9253028 -0.3792292 0.0 0.9253028 -0.3792292 0.0 0.9253028 -0.3792292 0.0 0.3794368 0.9252176 3.0E-7 0.3794368 0.9252176 3.0E-7 0.3794368 0.9252176 3.0E-7 0.3793479 0.9252542 -5.1E-5 0.3793479 0.9252542 -5.1E-5 0.3793479 0.9252542 -5.1E-5 0.3794104 0.9252285 1.05E-5 0.3794104 0.9252285 1.05E-5 0.3794104 0.9252285 1.05E-5 0.3794138 0.9252272 4.4E-6 0.3794138 0.9252272 4.4E-6 0.3794138 0.9252272 4.4E-6 0.3794243 0.9252228 0.0 0.3794243 0.9252228 0.0 0.3794243 0.9252228 0.0 0.3795369 0.9251766 0.0 0.3795369 0.9251766 0.0 0.3795369 0.9251766 0.0 0.1367568 0.3351281 0.9321946 0.1367568 0.3351281 0.9321946 0.1367568 0.3351281 0.9321946 0.1367821 0.3351306 0.9321899 0.1367821 0.3351306 0.9321899 0.1367821 0.3351306 0.9321899 0.1365459 0.3355951 0.9320574 0.1365459 0.3355951 0.9320574 0.1365459 0.3355951 0.9320574 0.1376795 0.3348712 0.9321511 0.1376795 0.3348712 0.9321511 0.1376795 0.3348712 0.9321511 0.1365156 0.3352092 0.9322007 0.1365156 0.3352092 0.9322007 0.1365156 0.3352092 0.9322007 0.1366303 0.3352526 0.9321684 0.1366303 0.3352526 0.9321684 0.1366303 0.3352526 0.9321684 0.1366936 0.3350589 0.9322287 0.1366936 0.3350589 0.9322287 0.1366936 0.3350589 0.9322287 0.0 0.0 -1.0 0.0 0.0 -1.0 0.0 0.0 -1.0 0.1367569 0.3351418 0.9321896 0.1367569 0.3351418 0.9321896 0.1367569 0.3351418 0.9321896 0.0 0.0 -1.0 0.0 0.0 -1.0 0.0 0.0 -1.0 0.1366488 0.3351653 0.932197 0.1366488 0.3351653 0.932197 0.1366488 0.3351653 0.932197 0.0 0.0 -1.0 0.0 0.0 -1.0 0.0 0.0 -1.0 0.1367552 0.3351256 0.9321957 0.1367552 0.3351256 0.9321957 0.1367552 0.3351256 0.9321957 0.0 0.0 -1.0 0.0 0.0 -1.0 0.0 0.0 -1.0 0.136762 0.3351253 0.9321948 0.136762 0.3351253 0.9321948 0.136762 0.3351253 0.9321948 0.0 0.0 -1.0 0.0 0.0 -1.0 0.0 0.0 -1.0 0.1367589 0.3351339 0.9321922 0.1367589 0.3351339 0.9321922 0.1367589 0.3351339 0.9321922 0.0 0.0 -1.0 0.0 0.0 -1.0 0.0 0.0 -1.0 0.136769 0.3351074 0.9322003 0.136769 0.3351074 0.9322003 0.136769 0.3351074 0.9322003 0.0 0.0 -1.0 0.0 0.0 -1.0 0.0 0.0 -1.0 0.1367428 0.3351212 0.9321991 0.1367428 0.3351212 0.9321991 0.1367428 0.3351212 0.9321991 0.0 0.0 -1.0 0.0 0.0 -1.0 0.0 0.0 -1.0 0.1367936 0.3351381 0.9321856 0.1367936 0.3351381 0.9321856 0.1367936 0.3351381 0.9321856 -0.9238606 0.3827293 0.0 -0.9238606 0.3827293 0.0 -0.9238606 0.3827293 0.0 0.0 0.0 -1.0 0.0 0.0 -1.0 0.0 0.0 -1.0 0.1367636 0.3351517 0.9321852 0.1367636 0.3351517 0.9321852 0.1367636 0.3351517 0.9321852 -0.9238605 0.3827292 0.0 -0.9238605 0.3827292 0.0 -0.9238605 0.3827292 0.0 0.0 0.0 -1.0 0.0 0.0 -1.0 0.0 0.0 -1.0 0.3796268 0.9251397 -2.6E-6 0.3796268 0.9251397 -2.6E-6 0.3796268 0.9251397 -2.6E-6 0.3796238 0.925141 0.0 0.3796238 0.925141 0.0 0.3796238 0.925141 0.0 0.3796298 0.9251385 0.0 0.3796298 0.9251385 0.0 0.3796298 0.9251385 0.0 0.9250992 -0.3797256 2.0E-7 0.9250992 -0.3797256 2.0E-7 0.9250992 -0.3797256 2.0E-7 0.9250993 -0.3797252 0.0 0.9250993 -0.3797252 0.0 0.9250993 -0.3797252 0.0 0.9251159 -0.3796847 0.0 0.9251159 -0.3796847 0.0 0.9251159 -0.3796847 0.0 0.9250985 -0.3797271 -7.0E-6 0.9250985 -0.3797271 -7.0E-6 0.9250985 -0.3797271 -7.0E-6 -0.3796268 -0.9251397 -5.5E-6 -0.3796268 -0.9251397 -5.5E-6 -0.3796268 -0.9251397 -5.5E-6 -0.3796211 -0.925142 0.0 -0.3796211 -0.925142 0.0 -0.3796211 -0.925142 0.0 -0.3796337 -0.9251369 0.0 -0.3796337 -0.9251369 0.0 -0.3796337 -0.9251369 0.0 -0.3796226 -0.9251415 -4.0E-6 -0.3796226 -0.9251415 -4.0E-6 -0.3796226 -0.9251415 -4.0E-6 -0.40263 0.1642979 0.9004973 -0.40263 0.1642979 0.9004973 -0.40263 0.1642979 0.9004973 -0.4026118 0.1643094 0.9005033 -0.4026118 0.1643094 0.9005033 -0.4026118 0.1643094 0.9005033 -0.402782 0.1642358 0.9004406 -0.402782 0.1642358 0.9004406 -0.402782 0.1642358 0.9004406 -0.4026265 0.1643091 0.9004969 -0.4026265 0.1643091 0.9004969 -0.4026265 0.1643091 0.9004969</float_array>
                    <technique_common>
                        <accessor count="306" source="#geometry0-normal-array" stride="3">
                            <param name="X" type="float"/>
                            <param name="Y" type="float"/>
                            <param name="Z" type="float"/>
                        </accessor>
                    </technique_common>
                </source>
                <source id="geometry0-texCoords">
                    <float_array id="geometry0-texCoords-array" count="0"></float_array>
                    <technique_common>
                        <accessor count="0" source="#geometry0-texCoords-array" stride="2">
                            <param name="S" type="float"/>
                            <param name="T" type="float"/>
                        </accessor>
                    </technique_common>
                </source>
                <vertices id="geometry0-vertex">
                    <input semantic="POSITION" source="#geometry0-position"/>
                </vertices>
                <triangles count="40" material="default_dc_r_0.6_g_0.6_b_0_tri">
                    <input offset="0" semantic="VERTEX" source="#geometry0-vertex"/>
                    <input offset="1" semantic="NORMAL" source="#geometry0-normal"/>
                    <p>2 15 26 16 27 17 10 18 28 19 26 20 28 21 29 22 30 23 31 24 29 25 28 26 31 27 28 28 10 29 30 30 29 31 32 32 22 36 2 37 27 38 10 42 26 43 2 44 33 66 2 67 34 68 34 69 2 70 25 71 3 72 2 73 33 74 34 75 25 76 35 77 36 78 3 79 33 80 37 87 38 88 39 89 37 90 39 91 40 92 7 93 38 94 37 95 16 96 38 97 7 98 0 141 1 142 2 143 3 144 0 145 2 146 4 147 0 148 3 149 5 177 6 178 7 179 8 180 9 181 7 182 5 183 10 184 6 185 5 186 7 187 11 188 11 189 7 190 12 191 13 192 8 193 7 194 14 195 9 196 8 197 6 201 13 202 7 203 12 207 7 208 15 209 7 213 9 214 16 215 10 219 2 220 17 221 6 225 10 226 17 227 9 231 18 232 16 233 18 237 19 238 16 239 2 243 1 244 17 245 20 252 9 253 14 254 21 294 22 295 23 296 24 297 21 298 23 299 22 300 21 301 25 302 22 303 25 304 2 305</p>
                </triangles>
                <triangles count="52" material="default_dc_r_1.0_g_1.0_b_1_tri">
                    <input offset="0" semantic="VERTEX" source="#geometry0-vertex"/>
                    <input offset="1" semantic="NORMAL" source="#geometry0-normal"/>
                    <p>69 0 70 1 71 2 72 3 70 4 69 5 71 6 70 7 66 8 73 9 70 10 72 11 71 12 66 13 67 14 74 33 75 34 76 35 75 39 77 40 76 41 70 45 74 46 76 47 73 48 74 49 70 50 78 51 79 52 77 53 80 54 81 55 78 56 79 57 76 58 77 59 81 60 79 61 78 62 82 63 81 64 80 65 83 81 84 82 85 83 83 84 85 85 86 86 87 99 43 100 88 101 87 102 88 103 89 104 90 105 43 106 87 107 45 108 43 109 90 110 41 111 42 112 43 113 44 114 43 115 45 116 46 117 42 118 41 119 44 120 41 121 43 122 84 123 88 124 79 125 84 126 89 127 88 128 81 129 84 130 79 131 81 132 91 133 84 134 92 135 85 136 84 137 91 138 92 139 84 140 46 150 47 151 48 152 47 153 49 154 48 155 46 156 48 157 42 158 50 159 51 160 52 161 52 162 51 163 53 164 53 165 51 166 48 167 54 168 53 169 48 170 55 171 51 172 50 173 54 174 48 175 49 176 56 246 51 247 55 248 56 255 55 256 57 257 58 261 59 262 56 263 58 264 56 265 57 266 60 267 59 268 58 269 59 270 61 271 62 272 61 273 63 274 62 275 60 276 64 277 59 278 59 279 64 280 61 281 62 282 65 283 66 284 63 285 65 286 62 287 65 288 67 289 66 290 63 291 68 292 65 293</p>
                </triangles>
                <triangles count="10" material="default_dc_r_0.9_g_0.7_b_0_tri">
                    <input offset="0" semantic="VERTEX" source="#geometry0-vertex"/>
                    <input offset="1" semantic="NORMAL" source="#geometry0-normal"/>
                    <p>93 198 94 199 95 200 96 204 93 205 95 206 95 210 94 211 97 212 93 216 98 217 94 218 97 222 94 223 99 224 100 228 97 229 101 230 96 234 95 235 102 236 97 240 99 241 101 242 96 249 103 250 93 251 103 258 104 259 93 260</p>
                </triangles>
            </mesh>
        </geometry>
    </library_geometries>
    <library_visual_scenes>
        <visual_scene id="Building_FME_6481351d-dcfc-45da-9440-c8033e9e76ff">
            <node>
                <instance_geometry url="#geometry0">
                    <bind_material>
                        <technique_common>
                            <instance_material symbol="default_dc_r_0.6_g_0.6_b_0_tri" target="#default_dc_r_0.6_g_0.6_b_0_mat"/>
                            <instance_material symbol="default_dc_r_1.0_g_1.0_b_1_tri" target="#default_dc_r_1.0_g_1.0_b_1_mat"/>
                            <instance_material symbol="default_dc_r_0.9_g_0.7_b_0_tri" target="#default_dc_r_0.9_g_0.7_b_0_mat"/>
                        </technique_common>
                    </bind_material>
                </instance_geometry>
            </node>
        </visual_scene>
    </library_visual_scenes>
    <scene>
        <instance_visual_scene url="#Building_FME_6481351d-dcfc-45da-9440-c8033e9e76ff"/>
    </scene>
</COLLADA>
