<?xml version="1.0" encoding="UTF-8" standalone="yes"?>
<COLLADA xmlns="http://www.collada.org/2005/11/COLLADASchema" version="1.4.1">
    <asset>
        <contributor>
            <authoring_tool>3D City Database Importer/Exporter, version 5.5.1; Chair of Geoinformatics, Technical University of Munich</authoring_tool>
        </contributor>
        <created>2026-01-16T16:51:34.246</created>
        <modified>2026-01-16T16:51:34.246</modified>
        <unit meter="1.0" name="meters"/>
        <up_axis>Z_UP</up_axis>
    </asset>
    <library_materials>
        <material id="default_ai_0.2_sh_0.2_tr_0.0_dc_r_1.0_g_0.2_b_0.2_sc_r_1.0_g_1.0_b_1.0_ec_r_0.0_g_0.0_b_0_mat">
            <instance_effect url="#default_ai_0.2_sh_0.2_tr_0.0_dc_r_1.0_g_0.2_b_0.2_sc_r_1.0_g_1.0_b_1.0_ec_r_0.0_g_0.0_b_0_eff"/>
        </material>
        <material id="default_ai_0.2_sh_0.2_tr_0.0_dc_r_0.8_g_0.8_b_0.8_sc_r_1.0_g_1.0_b_1.0_ec_r_0.0_g_0.0_b_0_mat">
            <instance_effect url="#default_ai_0.2_sh_0.2_tr_0.0_dc_r_0.8_g_0.8_b_0.8_sc_r_1.0_g_1.0_b_1.0_ec_r_0.0_g_0.0_b_0_eff"/>
        </material>
    </library_materials>
    <library_effects>
        <effect id="default_ai_0.2_sh_0.2_tr_0.0_dc_r_1.0_g_0.2_b_0.2_sc_r_1.0_g_1.0_b_1.0_ec_r_0.0_g_0.0_b_0_eff">
            <profile_COMMON>
                <technique sid="COMMON">
                    <lambert>
                        <emission>
                            <color>0.0 0.0 0.0 1.0</color>
                        </emission>
                        <diffuse>
                            <color>1.0 0.2 0.2 1.0</color>
                        </diffuse>
                        <reflective>
                            <color>1.0 1.0 1.0 1.0</color>
                        </reflective>
                        <reflectivity>
                            <float>0.2</float>
                        </reflectivity>
                        <transparent opaque="A_ONE">
                            <color>1.0 1.0 1.0 1.0</color>
                        </transparent>
                        <transparency>
                            <float>1.0</float>
                        </transparency>
                    </lambert>
                </technique>
                <extra>
                    <technique profile="GOOGLEEARTH">
                        <double_sided>1</double_sided>
                    </technique>
                </extra>
            </profile_COMMON>
        </effect>
        <effect id="default_ai_0.2_sh_0.2_tr_0.0_dc_r_0.8_g_0.8_b_0.8_sc_r_1.0_g_1.0_b_1.0_ec_r_0.0_g_0.0_b_0_eff">
            <profile_COMMON>
                <technique sid="COMMON">
                    <lambert>
                        <emission>
                            <color>0.0 0.0 0.0 1.0</color>
                        </emission>
                        <diffuse>
                            <color>0.8 0.8 0.8 1.0</color>
                        </diffuse>
                        <reflective>
                            <color>1.0 1.0 1.0 1.0</color>
                        </reflective>
                        <reflectivity>
                            <float>0.2</float>
                        </reflectivity>
                        <transparent opaque="A_ONE">
                            <color>1.0 1.0 1.0 1.0</color>
                        </transparent>
                        <transparency>
                            <float>1.0</float>
                        </transparency>
                    </lambert>
                </technique>
                <extra>
                    <technique profile="GOOGLEEARTH">
                        <double_sided>1</double_sided>
                    </technique>
                </extra>
            </profile_COMMON>
        </effect>
    </library_effects>
    <library_geometries>
        <geometry id="geometry0">
            <mesh>
                <source id="geometry0-position">
                    <float_array id="geometry0-position-array" count="84">-6.5329595 -7.3257599 5.5000129 -7.4534765 -3.5171051 5.5000129 -8.871964 -5.9770126 5.5000139 -5.1144872 -4.8658218 5.500012 -8.871964 -5.9770126 6.1437421 -7.453507 -3.5170975 7.4584737 -5.1144872 -4.8658218 7.4584737 -6.5329595 -7.3257599 6.1437431 -9.8263555 -7.0315781 5.5000139 -5.4948736 -9.5292435 5.500012 -1.7187353 -2.9806366 9.0000124 -6.050202 -0.4829712 9.0000134 -4.3314825 2.4976807 7.2893749 -5.0E-7 0.0 7.2893749 -4.3314832 2.4976725 2.38E-5 -6.0502103 -0.4829698 9.0000205 -4.3314794 2.497673 7.2893815 -9.8263467 -7.0315691 1.78E-5 -9.8263505 -7.03157 5.5000172 -5.494882 -9.5292374 1.78E-5 -5.494882 -9.5292297 5.5000177 -1.7187398 -2.9806391 9.0000167 -5.1E-6 -2.9E-6 2.37E-5 -8.9E-6 1.8E-6 7.2893815 0.0 0.0 0.0 -9.8263397 -7.0315323 3.1E-6 -4.3314667 2.4977112 1.5E-6 -5.494873 -9.529213 1.6E-6</float_array>
                    <technique_common>
                        <accessor count="28" source="#geometry0-position-array" stride="3">
                            <param name="X" type="float"/>
                            <param name="Y" type="float"/>
                            <param name="Z" type="float"/>
                        </accessor>
                    </technique_common>
                </source>
                <source id="geometry0-normal">
                    <float_array id="geometry0-normal-array" count="288">0.8662907 -0.4995403 0.0 0.8662907 -0.4995403 0.0 0.8662907 -0.4995403 0.0 0.2223893 0.3856679 0.8954347 0.2223893 0.3856679 0.8954347 0.2223893 0.3856679 0.8954347 0.2223888 0.3856677 0.8954349 0.2223888 0.3856677 0.8954349 0.2223888 0.3856677 0.8954349 -0.8662957 0.4995315 0.0 -0.8662957 0.4995315 0.0 -0.8662957 0.4995315 0.0 -0.866295 0.4995327 4.0E-7 -0.866295 0.4995327 4.0E-7 -0.866295 0.4995327 4.0E-7 -0.8662958 0.4995315 0.0 -0.8662958 0.4995315 0.0 -0.8662958 0.4995315 0.0 -0.8662948 0.4995331 6.0E-7 -0.8662948 0.4995331 6.0E-7 -0.8662948 0.4995331 6.0E-7 -0.8662941 0.4995342 -5.0E-7 -0.8662941 0.4995342 -5.0E-7 -0.8662941 0.4995342 -5.0E-7 -0.4995278 -0.8662978 -4.4E-6 -0.4995278 -0.8662978 -4.4E-6 -0.4995278 -0.8662978 -4.4E-6 -0.4995251 -0.8662994 0.0 -0.4995251 -0.8662994 0.0 -0.4995251 -0.8662994 0.0 0.4995338 0.8662944 0.0 0.4995338 0.8662944 0.0 0.4995338 0.8662944 0.0 0.4995338 0.8662943 0.0 0.4995338 0.8662943 0.0 0.4995338 0.8662943 0.0 -0.4995345 -0.8662941 -5.0E-7 -0.4995345 -0.8662941 -5.0E-7 -0.4995345 -0.8662941 -5.0E-7 -0.4995328 -0.866295 1.2E-6 -0.4995328 -0.866295 1.2E-6 -0.4995328 -0.866295 1.2E-6 0.8662937 -0.499535 7.0E-7 0.8662937 -0.499535 7.0E-7 0.8662937 -0.499535 7.0E-7 0.8662941 -0.4995343 -0.0 0.8662941 -0.4995343 -0.0 0.8662941 -0.4995343 -0.0 0.8662952 -0.4995324 8.0E-7 0.8662952 -0.4995324 8.0E-7 0.8662952 -0.4995324 8.0E-7 0.4995342 0.8662941 -3.0E-7 0.4995342 0.8662941 -3.0E-7 0.4995342 0.8662941 -3.0E-7 -0.2098833 -0.3639802 0.907451 -0.2098833 -0.3639802 0.907451 -0.2098833 -0.3639802 0.907451 0.4995342 0.8662941 -3.0E-7 0.4995342 0.8662941 -3.0E-7 0.4995342 0.8662941 -3.0E-7 -0.2098834 -0.3639831 0.9074498 -0.2098834 -0.3639831 0.9074498 -0.2098834 -0.3639831 0.9074498 -0.2098701 -0.3639782 0.9074549 -0.2098701 -0.3639782 0.9074549 -0.2098701 -0.3639782 0.9074549 -0.2098831 -0.3639762 0.9074527 -0.2098831 -0.3639762 0.9074527 -0.2098831 -0.3639762 0.9074527 -0.2098792 -0.3639821 0.9074512 -0.2098792 -0.3639821 0.9074512 -0.2098792 -0.3639821 0.9074512 -0.2098803 -0.363976 0.9074534 -0.2098803 -0.363976 0.9074534 -0.2098803 -0.363976 0.9074534 -0.2098936 -0.3639697 0.9074529 -0.2098936 -0.3639697 0.9074529 -0.2098936 -0.3639697 0.9074529 5.0E-7 1.0E-7 1.0 5.0E-7 1.0E-7 1.0 5.0E-7 1.0E-7 1.0 -0.2099043 -0.3639625 0.9074533 -0.2099043 -0.3639625 0.9074533 -0.2099043 -0.3639625 0.9074533 5.0E-7 1.0E-7 1.0 5.0E-7 1.0E-7 1.0 5.0E-7 1.0E-7 1.0 -3.0E-7 0.0 -1.0 -3.0E-7 0.0 -1.0 -3.0E-7 0.0 -1.0 -3.0E-7 0.0 -1.0 -3.0E-7 0.0 -1.0 -3.0E-7 0.0 -1.0 0.8662924 -0.4995373 1.54E-5 0.8662924 -0.4995373 1.54E-5 0.8662924 -0.4995373 1.54E-5</float_array>
                    <technique_common>
                        <accessor count="96" source="#geometry0-normal-array" stride="3">
                            <param name="X" type="float"/>
                            <param name="Y" type="float"/>
                            <param name="Z" type="float"/>
                        </accessor>
                    </technique_common>
                </source>
                <source id="geometry0-texCoords">
                    <float_array id="geometry0-texCoords-array" count="0"></float_array>
                    <technique_common>
                        <accessor count="0" source="#geometry0-texCoords-array" stride="2">
                            <param name="S" type="float"/>
                            <param name="T" type="float"/>
                        </accessor>
                    </technique_common>
                </source>
                <vertices id="geometry0-vertex">
                    <input semantic="POSITION" source="#geometry0-position"/>
                </vertices>
                <triangles count="12" material="default_ai_0.2_sh_0.2_tr_0.0_dc_r_0.8_g_0.8_b_0.8_sc_r_1.0_g_1.0_b_1.0_ec_r_0.0_g_0.0_b_0_tri">
                    <input offset="0" semantic="VERTEX" source="#geometry0-vertex"/>
                    <input offset="1" semantic="NORMAL" source="#geometry0-normal"/>
                    <p>14 12 15 13 16 14 17 18 15 19 14 20 18 21 15 22 17 23 19 36 18 37 17 38 20 39 18 40 19 41 19 42 21 43 20 44 22 45 21 46 19 47 23 48 21 49 22 50 23 51 14 52 16 53 22 57 14 58 23 59 24 87 25 88 26 89 27 90 25 91 24 92</p>
                </triangles>
                <triangles count="20" material="default_ai_0.2_sh_0.2_tr_0.0_dc_r_1.0_g_0.2_b_0.2_sc_r_1.0_g_1.0_b_1.0_ec_r_0.0_g_0.0_b_0_tri">
                    <input offset="0" semantic="VERTEX" source="#geometry0-vertex"/>
                    <input offset="1" semantic="NORMAL" source="#geometry0-normal"/>
                    <p>2 0 1 1 4 2 12 3 10 4 13 5 11 6 10 7 12 8 6 9 0 10 7 11 3 15 0 16 6 17 3 24 5 25 1 26 6 27 5 28 3 29 7 30 2 31 4 32 0 33 2 34 7 35 7 54 4 55 8 56 9 60 7 61 8 62 6 63 7 64 9 65 10 66 6 67 9 68 5 69 6 70 10 71 11 72 5 73 10 74 8 75 5 76 11 77 0 78 1 79 2 80 4 81 5 82 8 83 3 84 1 85 0 86 4 93 1 94 5 95</p>
                </triangles>
            </mesh>
        </geometry>
    </library_geometries>
    <library_visual_scenes>
        <visual_scene id="Building_pb-9635c0f5-7f36-11f0-9988-9c7bef4dcf4c">
            <node>
                <instance_geometry url="#geometry0">
                    <bind_material>
                        <technique_common>
                            <instance_material symbol="default_ai_0.2_sh_0.2_tr_0.0_dc_r_0.8_g_0.8_b_0.8_sc_r_1.0_g_1.0_b_1.0_ec_r_0.0_g_0.0_b_0_tri" target="#default_ai_0.2_sh_0.2_tr_0.0_dc_r_0.8_g_0.8_b_0.8_sc_r_1.0_g_1.0_b_1.0_ec_r_0.0_g_0.0_b_0_mat"/>
                            <instance_material symbol="default_ai_0.2_sh_0.2_tr_0.0_dc_r_1.0_g_0.2_b_0.2_sc_r_1.0_g_1.0_b_1.0_ec_r_0.0_g_0.0_b_0_tri" target="#default_ai_0.2_sh_0.2_tr_0.0_dc_r_1.0_g_0.2_b_0.2_sc_r_1.0_g_1.0_b_1.0_ec_r_0.0_g_0.0_b_0_mat"/>
                        </technique_common>
                    </bind_material>
                </instance_geometry>
            </node>
        </visual_scene>
    </library_visual_scenes>
    <scene>
        <instance_visual_scene url="#Building_pb-9635c0f5-7f36-11f0-9988-9c7bef4dcf4c"/>
    </scene>
</COLLADA>
