<?xml version="1.0" encoding="UTF-8" standalone="yes"?>
<COLLADA xmlns="http://www.collada.org/2005/11/COLLADASchema" version="1.4.1">
    <asset>
        <contributor>
            <authoring_tool>3D City Database Importer/Exporter, version 5.5.1; Chair of Geoinformatics, Technical University of Munich</authoring_tool>
        </contributor>
        <created>2026-01-16T16:51:34.444</created>
        <modified>2026-01-16T16:51:34.444</modified>
        <unit meter="1.0" name="meters"/>
        <up_axis>Z_UP</up_axis>
    </asset>
    <library_materials>
        <material id="default_ai_0.2_sh_0.2_tr_0.0_dc_r_0.8_g_0.8_b_0.8_sc_r_1.0_g_1.0_b_1.0_ec_r_0.0_g_0.0_b_0_mat">
            <instance_effect url="#default_ai_0.2_sh_0.2_tr_0.0_dc_r_0.8_g_0.8_b_0.8_sc_r_1.0_g_1.0_b_1.0_ec_r_0.0_g_0.0_b_0_eff"/>
        </material>
        <material id="default_ai_0.2_sh_0.2_tr_0.0_dc_r_1.0_g_0.2_b_0.2_sc_r_1.0_g_1.0_b_1.0_ec_r_0.0_g_0.0_b_0_mat">
            <instance_effect url="#default_ai_0.2_sh_0.2_tr_0.0_dc_r_1.0_g_0.2_b_0.2_sc_r_1.0_g_1.0_b_1.0_ec_r_0.0_g_0.0_b_0_eff"/>
        </material>
    </library_materials>
    <library_effects>
        <effect id="default_ai_0.2_sh_0.2_tr_0.0_dc_r_0.8_g_0.8_b_0.8_sc_r_1.0_g_1.0_b_1.0_ec_r_0.0_g_0.0_b_0_eff">
            <profile_COMMON>
                <technique sid="COMMON">
                    <lambert>
                        <emission>
                            <color>0.0 0.0 0.0 1.0</color>
                        </emission>
                        <diffuse>
                            <color>0.8 0.8 0.8 1.0</color>
                        </diffuse>
                        <reflective>
                            <color>1.0 1.0 1.0 1.0</color>
                        </reflective>
                        <reflectivity>
                            <float>0.2</float>
                        </reflectivity>
                        <transparent opaque="A_ONE">
                            <color>1.0 1.0 1.0 1.0</color>
                        </transparent>
                        <transparency>
                            <float>1.0</float>
                        </transparency>
                    </lambert>
                </technique>
                <extra>
                    <technique profile="GOOGLEEARTH">
                        <double_sided>1</double_sided>
                    </technique>
                </extra>
            </profile_COMMON>
        </effect>
        <effect id="default_ai_0.2_sh_0.2_tr_0.0_dc_r_1.0_g_0.2_b_0.2_sc_r_1.0_g_1.0_b_1.0_ec_r_0.0_g_0.0_b_0_eff">
            <profile_COMMON>
                <technique sid="COMMON">
                    <lambert>
                        <emission>
                            <color>0.0 0.0 0.0 1.0</color>
                        </emission>
                        <diffuse>
                            <color>1.0 0.2 0.2 1.0</color>
                        </diffuse>
                        <reflective>
                            <color>1.0 1.0 1.0 1.0</color>
                        </reflective>
                        <reflectivity>
                            <float>0.2</float>
                        </reflectivity>
                        <transparent opaque="A_ONE">
                            <color>1.0 1.0 1.0 1.0</color>
                        </transparent>
                        <transparency>
                            <float>1.0</float>
                        </transparency>
                    </lambert>
                </technique>
                <extra>
                    <technique profile="GOOGLEEARTH">
                        <double_sided>1</double_sided>
                    </technique>
                </extra>
            </profile_COMMON>
        </effect>
    </library_effects>
    <library_geometries>
        <geometry id="geometry0">
            <mesh>
                <source id="geometry0-position">
                    <float_array id="geometry0-position-array" count="60">-5.0285345 -9.7834349 17.197963 -43.4832922 16.0260158 20.697961 -45.9407049 11.2449245 17.197963 -2.5710912 -5.0023651 20.697961 -40.9121709 21.0282507 17.197963 -1.58E-5 -1.087E-4 17.197963 -40.9121831 21.0282936 17.1979706 -45.9407171 11.2449512 17.1979706 -43.4832814 16.0260524 20.6979706 -40.9121831 21.0282936 5.99E-5 -45.9407171 11.2449512 6.18E-5 -5.0285161 -9.7834511 6.24E-5 -2.5710958 -5.0023461 20.6979725 -5.0285161 -9.7834511 17.1979744 1.02E-5 -8.78E-5 6.24E-5 1.02E-5 -8.78E-5 17.1979744 -5.0285339 -9.7833605 6.0E-7 -40.9121704 21.0283546 4.6E-6 0.0 0.0 0.0 -45.9407043 11.2449934 5.1E-6</float_array>
                    <technique_common>
                        <accessor count="20" source="#geometry0-position-array" stride="3">
                            <param name="X" type="float"/>
                            <param name="Y" type="float"/>
                            <param name="Z" type="float"/>
                        </accessor>
                    </technique_common>
                </source>
                <source id="geometry0-normal">
                    <float_array id="geometry0-normal-array" count="144">0.8893951 -0.4571393 0.0 0.8893951 -0.4571393 0.0 0.8893951 -0.4571393 0.0 0.4571387 0.8893954 0.0 0.4571387 0.8893954 0.0 0.4571387 0.8893954 0.0 0.4571387 0.8893955 0.0 0.4571387 0.8893955 0.0 0.4571387 0.8893955 0.0 0.241528 0.4699098 0.8490283 0.241528 0.4699098 0.8490283 0.241528 0.4699098 0.8490283 -0.2494266 -0.4852772 0.8380288 -0.2494266 -0.4852772 0.8380288 -0.2494266 -0.4852772 0.8380288 0.2415281 0.46991 0.8490282 0.2415281 0.46991 0.8490282 0.2415281 0.46991 0.8490282 -0.2494268 -0.4852775 0.8380287 -0.2494268 -0.4852775 0.8380287 -0.2494268 -0.4852775 0.8380287 -0.889395 0.4571396 1.0E-7 -0.889395 0.4571396 1.0E-7 -0.889395 0.4571396 1.0E-7 -0.889395 0.4571396 0.0 -0.889395 0.4571396 0.0 -0.889395 0.4571396 0.0 -0.889395 0.4571396 0.0 -0.889395 0.4571396 0.0 -0.889395 0.4571396 0.0 -0.457139 -0.8893953 0.0 -0.457139 -0.8893953 0.0 -0.457139 -0.8893953 0.0 -0.457139 -0.8893953 0.0 -0.457139 -0.8893953 0.0 -0.457139 -0.8893953 0.0 -1.0E-7 0.0 -1.0 -1.0E-7 0.0 -1.0 -1.0E-7 0.0 -1.0 -1.0E-7 0.0 -1.0 -1.0E-7 0.0 -1.0 -1.0E-7 0.0 -1.0 0.8893963 -0.4571371 0.0 0.8893963 -0.4571371 0.0 0.8893963 -0.4571371 0.0 0.8893957 -0.4571383 3.0E-7 0.8893957 -0.4571383 3.0E-7 0.8893957 -0.4571383 3.0E-7</float_array>
                    <technique_common>
                        <accessor count="48" source="#geometry0-normal-array" stride="3">
                            <param name="X" type="float"/>
                            <param name="Y" type="float"/>
                            <param name="Z" type="float"/>
                        </accessor>
                    </technique_common>
                </source>
                <source id="geometry0-texCoords">
                    <float_array id="geometry0-texCoords-array" count="0"></float_array>
                    <technique_common>
                        <accessor count="0" source="#geometry0-texCoords-array" stride="2">
                            <param name="S" type="float"/>
                            <param name="T" type="float"/>
                        </accessor>
                    </technique_common>
                </source>
                <vertices id="geometry0-vertex">
                    <input semantic="POSITION" source="#geometry0-position"/>
                </vertices>
                <triangles count="12" material="default_ai_0.2_sh_0.2_tr_0.0_dc_r_0.8_g_0.8_b_0.8_sc_r_1.0_g_1.0_b_1.0_ec_r_0.0_g_0.0_b_0_tri">
                    <input offset="0" semantic="VERTEX" source="#geometry0-vertex"/>
                    <input offset="1" semantic="NORMAL" source="#geometry0-normal"/>
                    <p>15 0 12 1 14 2 6 3 14 4 9 5 15 6 14 7 6 8 6 21 7 22 8 23 9 24 7 25 6 26 10 27 7 28 9 29 10 30 13 31 7 32 11 33 13 34 10 35 16 36 17 37 18 38 19 39 17 40 16 41 11 42 12 43 13 44 14 45 12 46 11 47</p>
                </triangles>
                <triangles count="4" material="default_ai_0.2_sh_0.2_tr_0.0_dc_r_1.0_g_0.2_b_0.2_sc_r_1.0_g_1.0_b_1.0_ec_r_0.0_g_0.0_b_0_tri">
                    <input offset="0" semantic="VERTEX" source="#geometry0-vertex"/>
                    <input offset="1" semantic="NORMAL" source="#geometry0-normal"/>
                    <p>3 9 4 10 1 11 0 12 1 13 2 14 5 15 4 16 3 17 3 18 1 19 0 20</p>
                </triangles>
            </mesh>
        </geometry>
    </library_geometries>
    <library_visual_scenes>
        <visual_scene id="Building_pb-9635731b-7f36-11f0-b2f2-9c7bef4dcf4c">
            <node>
                <instance_geometry url="#geometry0">
                    <bind_material>
                        <technique_common>
                            <instance_material symbol="default_ai_0.2_sh_0.2_tr_0.0_dc_r_0.8_g_0.8_b_0.8_sc_r_1.0_g_1.0_b_1.0_ec_r_0.0_g_0.0_b_0_tri" target="#default_ai_0.2_sh_0.2_tr_0.0_dc_r_0.8_g_0.8_b_0.8_sc_r_1.0_g_1.0_b_1.0_ec_r_0.0_g_0.0_b_0_mat"/>
                            <instance_material symbol="default_ai_0.2_sh_0.2_tr_0.0_dc_r_1.0_g_0.2_b_0.2_sc_r_1.0_g_1.0_b_1.0_ec_r_0.0_g_0.0_b_0_tri" target="#default_ai_0.2_sh_0.2_tr_0.0_dc_r_1.0_g_0.2_b_0.2_sc_r_1.0_g_1.0_b_1.0_ec_r_0.0_g_0.0_b_0_mat"/>
                        </technique_common>
                    </bind_material>
                </instance_geometry>
            </node>
        </visual_scene>
    </library_visual_scenes>
    <scene>
        <instance_visual_scene url="#Building_pb-9635731b-7f36-11f0-b2f2-9c7bef4dcf4c"/>
    </scene>
</COLLADA>
