<?xml version="1.0" encoding="UTF-8" standalone="yes"?>
<COLLADA xmlns="http://www.collada.org/2005/11/COLLADASchema" version="1.4.1">
    <asset>
        <contributor>
            <authoring_tool>3D City Database Importer/Exporter, version 5.5.1; Chair of Geoinformatics, Technical University of Munich</authoring_tool>
        </contributor>
        <created>2026-01-16T16:51:34.938</created>
        <modified>2026-01-16T16:51:34.938</modified>
        <unit meter="1.0" name="meters"/>
        <up_axis>Z_UP</up_axis>
    </asset>
    <library_materials>
        <material id="default_dc_r_1.0_g_1.0_b_1_mat">
            <instance_effect url="#default_dc_r_1.0_g_1.0_b_1_eff"/>
        </material>
        <material id="default_dc_r_0.9_g_0.7_b_0_mat">
            <instance_effect url="#default_dc_r_0.9_g_0.7_b_0_eff"/>
        </material>
        <material id="default_dc_r_0.6_g_0.6_b_0_mat">
            <instance_effect url="#default_dc_r_0.6_g_0.6_b_0_eff"/>
        </material>
    </library_materials>
    <library_effects>
        <effect id="default_dc_r_1.0_g_1.0_b_1_eff">
            <profile_COMMON>
                <technique sid="COMMON">
                    <lambert>
                        <emission>
                            <color>0.0 0.0 0.0 1.0</color>
                        </emission>
                        <diffuse>
                            <color>1.0 1.0 1.0 1.0</color>
                        </diffuse>
                    </lambert>
                </technique>
                <extra>
                    <technique profile="GOOGLEEARTH">
                        <double_sided>1</double_sided>
                    </technique>
                </extra>
            </profile_COMMON>
        </effect>
        <effect id="default_dc_r_0.9_g_0.7_b_0_eff">
            <profile_COMMON>
                <technique sid="COMMON">
                    <lambert>
                        <emission>
                            <color>0.0 0.0 0.0 1.0</color>
                        </emission>
                        <diffuse>
                            <color>0.9 0.7 0.4 1.0</color>
                        </diffuse>
                    </lambert>
                </technique>
                <extra>
                    <technique profile="GOOGLEEARTH">
                        <double_sided>1</double_sided>
                    </technique>
                </extra>
            </profile_COMMON>
        </effect>
        <effect id="default_dc_r_0.6_g_0.6_b_0_eff">
            <profile_COMMON>
                <technique sid="COMMON">
                    <lambert>
                        <emission>
                            <color>0.0 0.0 0.0 1.0</color>
                        </emission>
                        <diffuse>
                            <color>0.6 0.6 0.6 1.0</color>
                        </diffuse>
                    </lambert>
                </technique>
                <extra>
                    <technique profile="GOOGLEEARTH">
                        <double_sided>1</double_sided>
                    </technique>
                </extra>
            </profile_COMMON>
        </effect>
    </library_effects>
    <library_geometries>
        <geometry id="geometry0">
            <mesh>
                <source id="geometry0-position">
                    <float_array id="geometry0-position-array" count="120">2.1847 -1.2031 1.667488 -0.1721 -5.4825 1.667488 4.4678 -2.4605 2.589388 2.111 -6.7399 2.589388 7.0969 -3.9085 1.667488 4.7402 -8.1878 1.667488 0.0 0.0 2.542988 -2.3568 -4.2793 2.542988 -2.5433 1.4007 1.743988 -4.9001 -2.8786 1.743988 2.1847 -1.2031 1.667464 2.1847 -1.2031 6.4E-5 0.0 0.0 6.4E-5 0.0 0.0 2.542964 4.4678 -2.4605 6.4E-5 4.4678 -2.4605 2.589364 7.0969 -3.9085 6.4E-5 7.0969 -3.9085 1.667464 4.7402 -8.1878 1.667464 4.7402 -8.1878 6.4E-5 2.111 -6.7399 2.589364 2.111 -6.7399 6.4E-5 -0.1721 -5.4825 1.667464 -0.1721 -5.4825 6.4E-5 -2.3568 -4.2793 2.542964 -2.3568 -4.2793 6.4E-5 -2.5433 1.4007 6.4E-5 -2.5433 1.4007 1.743964 -4.9001 -2.8786 1.743964 -4.9001 -2.8786 6.4E-5 0.0 0.0 0.0 -2.3568 -4.2793 0.0 -2.5433 1.4007 0.0 2.1847 -1.2031 0.0 -0.1721 -5.4825 0.0 4.4678 -2.4605 0.0 -4.9001 -2.8786 0.0 2.111 -6.7399 0.0 7.0969 -3.9085 0.0 4.7402 -8.1878 0.0</float_array>
                    <technique_common>
                        <accessor count="40" source="#geometry0-position-array" stride="3">
                            <param name="X" type="float"/>
                            <param name="Y" type="float"/>
                            <param name="Z" type="float"/>
                        </accessor>
                    </technique_common>
                </source>
                <source id="geometry0-normal">
                    <float_array id="geometry0-normal-array" count="324">0.482385 0.8759593 0.0 0.482385 0.8759593 0.0 0.482385 0.8759593 0.0 0.4824179 0.8759412 0.0 0.4824179 0.8759412 0.0 0.4824179 0.8759412 0.0 0.4824179 0.8759412 0.0 0.4824179 0.8759412 0.0 0.4824179 0.8759412 0.0 -0.4824158 -0.8759423 0.0 -0.4824158 -0.8759423 0.0 -0.4824158 -0.8759423 0.0 -0.4824158 -0.8759423 0.0 -0.4824158 -0.8759423 0.0 -0.4824158 -0.8759423 0.0 0.0 0.0 -1.0 0.0 0.0 -1.0 0.0 0.0 -1.0 0.0 0.0 -1.0 0.0 0.0 -1.0 0.0 0.0 -1.0 0.290123 -0.1597836 0.943556 0.290123 -0.1597836 0.943556 0.290123 -0.1597836 0.943556 0.0 0.0 -1.0 0.0 0.0 -1.0 0.0 0.0 -1.0 0.2901295 -0.1597835 0.943554 0.2901295 -0.1597835 0.943554 0.2901295 -0.1597835 0.943554 0.0 0.0 -1.0 0.0 0.0 -1.0 0.0 0.0 -1.0 0.0 0.0 -1.0 0.0 0.0 -1.0 0.0 0.0 -1.0 0.0 0.0 -1.0 0.0 0.0 -1.0 0.0 0.0 -1.0 0.0 0.0 -1.0 0.0 0.0 -1.0 0.0 0.0 -1.0 -0.4823894 -0.8759569 0.0 -0.4823894 -0.8759569 0.0 -0.4823894 -0.8759569 0.0 0.0 0.0 -1.0 0.0 0.0 -1.0 0.0 0.0 -1.0 -0.4823894 -0.8759568 0.0 -0.4823894 -0.8759568 0.0 -0.4823894 -0.8759568 0.0 0.482429 0.8759351 0.0 0.482429 0.8759351 0.0 0.482429 0.8759351 0.0 0.482429 0.8759351 0.0 0.482429 0.8759351 0.0 0.482429 0.8759351 0.0 -0.4824172 -0.8759416 0.0 -0.4824172 -0.8759416 0.0 -0.4824172 -0.8759416 0.0 -0.4824172 -0.8759416 0.0 -0.4824172 -0.8759416 0.0 -0.4824172 -0.8759416 0.0 -0.2324063 0.1279965 0.9641598 -0.2324063 0.1279965 0.9641598 -0.2324063 0.1279965 0.9641598 -0.2324064 0.1279965 0.9641598 -0.2324064 0.1279965 0.9641598 -0.2324064 0.1279965 0.9641598 -0.2920886 0.1608624 0.9427659 -0.2920886 0.1608624 0.9427659 -0.2920886 0.1608624 0.9427659 -0.2920886 0.1608624 0.9427659 -0.2920886 0.1608624 0.9427659 -0.2920886 0.1608624 0.9427659 0.4824171 0.8759416 0.0 0.4824171 0.8759416 0.0 0.4824171 0.8759416 0.0 0.8759491 -0.4824034 0.0 0.8759491 -0.4824034 0.0 0.8759491 -0.4824034 0.0 0.4824171 0.8759416 0.0 0.4824171 0.8759416 0.0 0.4824171 0.8759416 0.0 0.8759491 -0.4824034 0.0 0.8759491 -0.4824034 0.0 0.8759491 -0.4824034 0.0 -0.4824179 -0.8759412 0.0 -0.4824179 -0.8759412 0.0 -0.4824179 -0.8759412 0.0 -0.4824179 -0.8759412 0.0 -0.4824179 -0.8759412 0.0 -0.4824179 -0.8759412 0.0 -0.8759404 0.4824193 0.0 -0.8759404 0.4824193 0.0 -0.8759404 0.4824193 0.0 -0.8759404 0.4824193 0.0 -0.8759404 0.4824193 0.0 -0.8759404 0.4824193 0.0 0.2571872 -0.1416411 0.9559249 0.2571872 -0.1416411 0.9559249 0.2571872 -0.1416411 0.9559249 0.2571853 -0.1416373 0.9559261 0.2571853 -0.1416373 0.9559261 0.2571853 -0.1416373 0.9559261 0.482385 0.8759593 0.0 0.482385 0.8759593 0.0 0.482385 0.8759593 0.0</float_array>
                    <technique_common>
                        <accessor count="108" source="#geometry0-normal-array" stride="3">
                            <param name="X" type="float"/>
                            <param name="Y" type="float"/>
                            <param name="Z" type="float"/>
                        </accessor>
                    </technique_common>
                </source>
                <source id="geometry0-texCoords">
                    <float_array id="geometry0-texCoords-array" count="0"></float_array>
                    <technique_common>
                        <accessor count="0" source="#geometry0-texCoords-array" stride="2">
                            <param name="S" type="float"/>
                            <param name="T" type="float"/>
                        </accessor>
                    </technique_common>
                </source>
                <vertices id="geometry0-vertex">
                    <input semantic="POSITION" source="#geometry0-position"/>
                </vertices>
                <triangles count="8" material="default_dc_r_0.6_g_0.6_b_0_tri">
                    <input offset="0" semantic="VERTEX" source="#geometry0-vertex"/>
                    <input offset="1" semantic="NORMAL" source="#geometry0-normal"/>
                    <p>6 21 7 22 1 23 6 27 1 28 0 29 8 63 9 64 7 65 8 66 7 67 6 68 0 69 1 70 2 71 1 72 3 73 2 74 4 99 2 100 3 101 4 102 3 103 5 104</p>
                </triangles>
                <triangles count="20" material="default_dc_r_1.0_g_1.0_b_1_tri">
                    <input offset="0" semantic="VERTEX" source="#geometry0-vertex"/>
                    <input offset="1" semantic="NORMAL" source="#geometry0-normal"/>
                    <p>10 0 12 1 13 2 14 3 11 4 10 5 15 6 14 7 10 8 24 9 25 10 22 11 25 12 23 13 22 14 20 42 21 43 18 44 21 48 19 49 18 50 16 51 14 52 17 53 14 54 15 55 17 56 28 57 29 58 25 59 28 60 25 61 24 62 12 75 26 76 27 77 18 78 19 79 16 80 12 81 27 82 13 83 18 84 16 85 17 86 22 87 23 88 21 89 22 90 21 91 20 92 26 93 29 94 28 95 26 96 28 97 27 98 10 105 11 106 12 107</p>
                </triangles>
                <triangles count="8" material="default_dc_r_0.9_g_0.7_b_0_tri">
                    <input offset="0" semantic="VERTEX" source="#geometry0-vertex"/>
                    <input offset="1" semantic="NORMAL" source="#geometry0-normal"/>
                    <p>30 15 31 16 32 17 33 18 34 19 30 20 35 24 34 25 33 26 31 30 36 31 32 32 35 33 37 34 34 35 34 36 31 37 30 38 38 39 37 40 35 41 38 45 39 46 37 47</p>
                </triangles>
            </mesh>
        </geometry>
    </library_geometries>
    <library_visual_scenes>
        <visual_scene id="Building_FME_ba647d1b-2d02-46e5-9230-3d13a48252f6">
            <node>
                <instance_geometry url="#geometry0">
                    <bind_material>
                        <technique_common>
                            <instance_material symbol="default_dc_r_0.6_g_0.6_b_0_tri" target="#default_dc_r_0.6_g_0.6_b_0_mat"/>
                            <instance_material symbol="default_dc_r_1.0_g_1.0_b_1_tri" target="#default_dc_r_1.0_g_1.0_b_1_mat"/>
                            <instance_material symbol="default_dc_r_0.9_g_0.7_b_0_tri" target="#default_dc_r_0.9_g_0.7_b_0_mat"/>
                        </technique_common>
                    </bind_material>
                </instance_geometry>
            </node>
        </visual_scene>
    </library_visual_scenes>
    <scene>
        <instance_visual_scene url="#Building_FME_ba647d1b-2d02-46e5-9230-3d13a48252f6"/>
    </scene>
</COLLADA>
