<?xml version="1.0" encoding="UTF-8" standalone="yes"?>
<COLLADA xmlns="http://www.collada.org/2005/11/COLLADASchema" version="1.4.1">
    <asset>
        <contributor>
            <authoring_tool>3D City Database Importer/Exporter, version 5.5.1; Chair of Geoinformatics, Technical University of Munich</authoring_tool>
        </contributor>
        <created>2026-01-16T16:51:34.267</created>
        <modified>2026-01-16T16:51:34.267</modified>
        <unit meter="1.0" name="meters"/>
        <up_axis>Z_UP</up_axis>
    </asset>
    <library_materials>
        <material id="default_dc_r_1.0_g_1.0_b_1_mat">
            <instance_effect url="#default_dc_r_1.0_g_1.0_b_1_eff"/>
        </material>
        <material id="default_dc_r_0.6_g_0.6_b_0_mat">
            <instance_effect url="#default_dc_r_0.6_g_0.6_b_0_eff"/>
        </material>
        <material id="default_dc_r_0.9_g_0.7_b_0_mat">
            <instance_effect url="#default_dc_r_0.9_g_0.7_b_0_eff"/>
        </material>
    </library_materials>
    <library_effects>
        <effect id="default_dc_r_1.0_g_1.0_b_1_eff">
            <profile_COMMON>
                <technique sid="COMMON">
                    <lambert>
                        <emission>
                            <color>0.0 0.0 0.0 1.0</color>
                        </emission>
                        <diffuse>
                            <color>1.0 1.0 1.0 1.0</color>
                        </diffuse>
                    </lambert>
                </technique>
                <extra>
                    <technique profile="GOOGLEEARTH">
                        <double_sided>1</double_sided>
                    </technique>
                </extra>
            </profile_COMMON>
        </effect>
        <effect id="default_dc_r_0.6_g_0.6_b_0_eff">
            <profile_COMMON>
                <technique sid="COMMON">
                    <lambert>
                        <emission>
                            <color>0.0 0.0 0.0 1.0</color>
                        </emission>
                        <diffuse>
                            <color>0.6 0.6 0.6 1.0</color>
                        </diffuse>
                    </lambert>
                </technique>
                <extra>
                    <technique profile="GOOGLEEARTH">
                        <double_sided>1</double_sided>
                    </technique>
                </extra>
            </profile_COMMON>
        </effect>
        <effect id="default_dc_r_0.9_g_0.7_b_0_eff">
            <profile_COMMON>
                <technique sid="COMMON">
                    <lambert>
                        <emission>
                            <color>0.0 0.0 0.0 1.0</color>
                        </emission>
                        <diffuse>
                            <color>0.9 0.7 0.4 1.0</color>
                        </diffuse>
                    </lambert>
                </technique>
                <extra>
                    <technique profile="GOOGLEEARTH">
                        <double_sided>1</double_sided>
                    </technique>
                </extra>
            </profile_COMMON>
        </effect>
    </library_effects>
    <library_geometries>
        <geometry id="geometry0">
            <mesh>
                <source id="geometry0-position">
                    <float_array id="geometry0-position-array" count="156">-61.2184 13.1449 12.295524 -58.2279 26.0487 11.208124 -58.6658 26.0671 11.221624 -8.9651 -10.129 12.295524 -0.7106 -1.5947 11.362824 -0.1064 -0.2387 11.238724 0.0 0.0 11.216824 -61.2071 13.1399 12.295524 -8.728 -10.2346 12.295524 -8.7089 -10.2431 12.295524 -5.9788 -11.4591 12.295524 -5.9716 -11.4623 12.295524 -5.2505 -11.7835 12.295524 -62.7717 13.8368 12.295524 -62.7762 13.8387 12.295524 -58.6054 26.2037 11.209124 -58.6003 26.2153 11.208124 -63.8607 14.3218 12.295524 -58.2279 26.0487 11.2082 0.0 0.0 0.0 -58.6003 26.2153 0.0 -58.6003 26.2153 11.2081 0.0 0.0 11.2168 -0.7106 -1.5947 11.3628 -5.2505 -11.7835 0.0 -5.2505 -11.7835 12.2955 -0.1064 -0.2387 11.2387 -5.9716 -11.4623 12.2955 -5.9788 -11.4591 0.0 -5.9788 -11.4591 12.2955 -8.7089 -10.2431 12.2955 -8.728 -10.2346 12.2955 -8.728 -10.2346 0.0 -8.9651 -10.129 12.2955 -61.2071 13.1399 12.2955 -61.2071 13.1399 0.0 -61.2184 13.1449 12.2955 -62.7717 13.8368 0.0 -62.7717 13.8368 12.2955 -58.6658 26.0671 11.2217 -63.8607 14.3218 0.0 -63.8607 14.3218 12.2955 -58.6054 26.2037 11.2092 -62.7762 13.8387 12.2955 0.0 0.0 3.6E-5 -8.728 -10.2346 3.6E-5 -58.6003 26.2153 3.6E-5 -61.2071 13.1399 3.6E-5 -62.7717 13.8368 3.6E-5 -63.8607 14.3218 3.6E-5 -5.2505 -11.7835 3.6E-5 -5.9788 -11.4591 3.6E-5</float_array>
                    <technique_common>
                        <accessor count="52" source="#geometry0-position-array" stride="3">
                            <param name="X" type="float"/>
                            <param name="Y" type="float"/>
                            <param name="Z" type="float"/>
                        </accessor>
                    </technique_common>
                </source>
                <source id="geometry0-normal">
                    <float_array id="geometry0-normal-array" count="432">0.9134259 -0.407005 2.6E-6 0.9134259 -0.407005 2.6E-6 0.9134259 -0.407005 2.6E-6 0.913427 -0.4070025 0.0 0.913427 -0.4070025 0.0 0.913427 -0.4070025 0.0 0.9134279 -0.4070006 3.4E-6 0.9134279 -0.4070006 3.4E-6 0.9134279 -0.4070006 3.4E-6 -0.9145406 0.404494 4.0E-6 -0.9145406 0.404494 4.0E-6 -0.9145406 0.404494 4.0E-6 0.0339208 0.0761154 0.9965218 0.0339208 0.0761154 0.9965218 0.0339208 0.0761154 0.9965218 0.9133692 -0.4071323 0.0 0.9133692 -0.4071323 0.0 0.9133692 -0.4071323 0.0 -0.9145393 0.4044971 0.0 -0.9145393 0.4044971 0.0 -0.9145393 0.4044971 0.0 0.0339446 0.0760767 0.996524 0.0339446 0.0760767 0.996524 0.0339446 0.0760767 0.996524 -0.914586 0.4043914 2.4E-6 -0.914586 0.4043914 2.4E-6 -0.914586 0.4043914 2.4E-6 0.0334521 0.076516 0.996507 0.0334521 0.076516 0.996507 0.0334521 0.076516 0.996507 -0.9154304 0.4024763 0.0 -0.9154304 0.4024763 0.0 -0.9154304 0.4024763 0.0 0.0339041 0.0761195 0.9965222 0.0339041 0.0761195 0.9965222 0.0339041 0.0761195 0.9965222 0.0339016 0.0761181 0.9965223 0.0339016 0.0761181 0.9965223 0.0339016 0.0761181 0.9965223 0.0338837 0.0761347 0.9965217 0.0338837 0.0761347 0.9965217 0.0338837 0.0761347 0.9965217 0.0339029 0.076117 0.9965224 0.0339029 0.076117 0.9965224 0.0339029 0.076117 0.9965224 0.0338492 0.0761456 0.9965219 0.0338492 0.0761456 0.9965219 0.0338492 0.0761456 0.9965219 0.0339044 0.0761162 0.9965224 0.0339044 0.0761162 0.9965224 0.0339044 0.0761162 0.9965224 0.0323805 0.0766314 0.9965335 0.0323805 0.0766314 0.9965335 0.0323805 0.0766314 0.9965335 0.0339059 0.0761183 0.9965221 0.0339059 0.0761183 0.9965221 0.0339059 0.0761183 0.9965221 0.033705 0.0761657 0.9965253 0.033705 0.0761657 0.9965253 0.033705 0.0761657 0.9965253 -0.4068832 -0.9134802 5.0E-7 -0.4068832 -0.9134802 5.0E-7 -0.4068832 -0.9134802 5.0E-7 0.0339032 0.0761183 0.9965222 0.0339032 0.0761183 0.9965222 0.0339032 0.0761183 0.9965222 -0.4062059 -0.9137816 0.0 -0.4062059 -0.9137816 0.0 -0.4062059 -0.9137816 0.0 0.033924 0.076196 0.9965156 0.033924 0.076196 0.9965156 0.033924 0.076196 0.9965156 -0.40689 -0.9134772 0.0 -0.40689 -0.9134772 0.0 -0.40689 -0.9134772 0.0 -0.4069122 -0.9134673 0.0 -0.4069122 -0.9134673 0.0 -0.4069122 -0.9134673 0.0 0.0321087 0.0717723 0.9969041 0.0321087 0.0717723 0.9969041 0.0321087 0.0717723 0.9969041 -0.4068402 -0.9134994 -7.6E-6 -0.4068402 -0.9134994 -7.6E-6 -0.4068402 -0.9134994 -7.6E-6 0.0339071 0.0761173 0.9965222 0.0339071 0.0761173 0.9965222 0.0339071 0.0761173 0.9965222 -0.3892704 -0.9211236 0.0 -0.3892704 -0.9211236 0.0 -0.3892704 -0.9211236 0.0 -0.4065998 -0.9136063 0.0 -0.4065998 -0.9136063 0.0 -0.4065998 -0.9136063 0.0 0.0 0.0 -1.0 0.0 0.0 -1.0 0.0 0.0 -1.0 -0.4068689 -0.9134865 5.0E-7 -0.4068689 -0.9134865 5.0E-7 -0.4068689 -0.9134865 5.0E-7 0.0 0.0 -1.0 0.0 0.0 -1.0 0.0 0.0 -1.0 -0.4068708 -0.9134857 0.0 -0.4068708 -0.9134857 0.0 -0.4068708 -0.9134857 0.0 0.0 0.0 -1.0 0.0 0.0 -1.0 0.0 0.0 -1.0 0.0 0.0 -1.0 0.0 0.0 -1.0 0.0 0.0 -1.0 0.0 0.0 -1.0 0.0 0.0 -1.0 0.0 0.0 -1.0 0.0 0.0 -1.0 0.0 0.0 -1.0 0.0 0.0 -1.0 -0.4068718 -0.9134853 0.0 -0.4068718 -0.9134853 0.0 -0.4068718 -0.9134853 0.0 -0.4068718 -0.9134853 -4.0E-7 -0.4068718 -0.9134853 -4.0E-7 -0.4068718 -0.9134853 -4.0E-7 -0.4068536 -0.9134934 0.0 -0.4068536 -0.9134934 0.0 -0.4068536 -0.9134934 0.0 -0.4068798 -0.9134817 -2.4E-6 -0.4068798 -0.9134817 -2.4E-6 -0.4068798 -0.9134817 -2.4E-6 -0.4068958 -0.9134746 0.0 -0.4068958 -0.9134746 0.0 -0.4068958 -0.9134746 0.0 -0.4046699 -0.9144629 0.0 -0.4046699 -0.9144629 0.0 -0.4046699 -0.9144629 0.0 0.408358 0.9128219 3.0E-7 0.408358 0.9128219 3.0E-7 0.408358 0.9128219 3.0E-7 0.4083661 0.9128183 0.0 0.4083661 0.9128183 0.0 0.4083661 0.9128183 0.0 0.4083579 0.9128219 0.0 0.4083579 0.9128219 0.0 0.4083579 0.9128219 0.0</float_array>
                    <technique_common>
                        <accessor count="144" source="#geometry0-normal-array" stride="3">
                            <param name="X" type="float"/>
                            <param name="Y" type="float"/>
                            <param name="Z" type="float"/>
                        </accessor>
                    </technique_common>
                </source>
                <source id="geometry0-texCoords">
                    <float_array id="geometry0-texCoords-array" count="0"></float_array>
                    <technique_common>
                        <accessor count="0" source="#geometry0-texCoords-array" stride="2">
                            <param name="S" type="float"/>
                            <param name="T" type="float"/>
                        </accessor>
                    </technique_common>
                </source>
                <vertices id="geometry0-vertex">
                    <input semantic="POSITION" source="#geometry0-position"/>
                </vertices>
                <triangles count="16" material="default_dc_r_0.6_g_0.6_b_0_tri">
                    <input offset="0" semantic="VERTEX" source="#geometry0-vertex"/>
                    <input offset="1" semantic="NORMAL" source="#geometry0-normal"/>
                    <p>0 12 1 13 2 14 3 21 4 22 5 23 3 27 5 28 6 29 7 33 3 34 1 35 3 36 8 37 4 38 8 39 9 40 4 41 9 42 10 43 4 44 10 45 11 46 4 47 11 48 12 49 4 50 13 51 2 52 14 53 13 54 0 55 2 56 0 57 7 58 1 59 3 63 6 64 1 65 1 69 15 70 2 71 1 78 16 79 15 80 2 84 17 85 14 86</p>
                </triangles>
                <triangles count="26" material="default_dc_r_1.0_g_1.0_b_1_tri">
                    <input offset="0" semantic="VERTEX" source="#geometry0-vertex"/>
                    <input offset="1" semantic="NORMAL" source="#geometry0-normal"/>
                    <p>19 0 23 1 24 2 23 3 25 4 24 5 19 6 26 7 23 8 39 9 20 10 40 11 22 15 26 16 19 17 39 18 40 19 41 20 42 24 20 25 39 26 21 30 20 31 42 32 24 60 27 61 28 62 27 66 29 67 28 68 25 72 27 73 24 74 43 75 41 76 40 77 37 81 43 82 40 83 38 87 43 88 37 89 30 90 31 91 32 92 30 96 32 97 28 98 29 102 30 103 28 104 33 117 34 118 35 119 32 120 33 121 35 122 31 123 33 124 32 125 36 126 37 127 35 128 36 129 38 130 37 131 34 132 36 133 35 134 18 135 19 136 20 137 18 138 20 139 21 140 22 141 19 142 18 143</p>
                </triangles>
                <triangles count="6" material="default_dc_r_0.9_g_0.7_b_0_tri">
                    <input offset="0" semantic="VERTEX" source="#geometry0-vertex"/>
                    <input offset="1" semantic="NORMAL" source="#geometry0-normal"/>
                    <p>44 93 45 94 46 95 46 99 47 100 48 101 48 105 49 106 46 107 50 108 51 109 44 110 51 111 45 112 44 113 45 114 47 115 46 116</p>
                </triangles>
            </mesh>
        </geometry>
    </library_geometries>
    <library_visual_scenes>
        <visual_scene id="Building_FME_e4a3561b-2ca8-41f9-8ba2-7b29b1749257">
            <node>
                <instance_geometry url="#geometry0">
                    <bind_material>
                        <technique_common>
                            <instance_material symbol="default_dc_r_0.6_g_0.6_b_0_tri" target="#default_dc_r_0.6_g_0.6_b_0_mat"/>
                            <instance_material symbol="default_dc_r_1.0_g_1.0_b_1_tri" target="#default_dc_r_1.0_g_1.0_b_1_mat"/>
                            <instance_material symbol="default_dc_r_0.9_g_0.7_b_0_tri" target="#default_dc_r_0.9_g_0.7_b_0_mat"/>
                        </technique_common>
                    </bind_material>
                </instance_geometry>
            </node>
        </visual_scene>
    </library_visual_scenes>
    <scene>
        <instance_visual_scene url="#Building_FME_e4a3561b-2ca8-41f9-8ba2-7b29b1749257"/>
    </scene>
</COLLADA>
