<?xml version="1.0" encoding="UTF-8" standalone="yes"?>
<COLLADA xmlns="http://www.collada.org/2005/11/COLLADASchema" version="1.4.1">
    <asset>
        <contributor>
            <authoring_tool>3D City Database Importer/Exporter, version 5.5.1; Chair of Geoinformatics, Technical University of Munich</authoring_tool>
        </contributor>
        <created>2026-01-16T16:51:34.062</created>
        <modified>2026-01-16T16:51:34.062</modified>
        <unit meter="1.0" name="meters"/>
        <up_axis>Z_UP</up_axis>
    </asset>
    <library_materials>
        <material id="default_ai_0.2_sh_0.2_tr_0.0_dc_r_0.8_g_0.8_b_0.8_sc_r_1.0_g_1.0_b_1.0_ec_r_0.0_g_0.0_b_0_mat">
            <instance_effect url="#default_ai_0.2_sh_0.2_tr_0.0_dc_r_0.8_g_0.8_b_0.8_sc_r_1.0_g_1.0_b_1.0_ec_r_0.0_g_0.0_b_0_eff"/>
        </material>
        <material id="default_ai_0.2_sh_0.2_tr_0.0_dc_r_1.0_g_0.2_b_0.2_sc_r_1.0_g_1.0_b_1.0_ec_r_0.0_g_0.0_b_0_mat">
            <instance_effect url="#default_ai_0.2_sh_0.2_tr_0.0_dc_r_1.0_g_0.2_b_0.2_sc_r_1.0_g_1.0_b_1.0_ec_r_0.0_g_0.0_b_0_eff"/>
        </material>
    </library_materials>
    <library_effects>
        <effect id="default_ai_0.2_sh_0.2_tr_0.0_dc_r_0.8_g_0.8_b_0.8_sc_r_1.0_g_1.0_b_1.0_ec_r_0.0_g_0.0_b_0_eff">
            <profile_COMMON>
                <technique sid="COMMON">
                    <lambert>
                        <emission>
                            <color>0.0 0.0 0.0 1.0</color>
                        </emission>
                        <diffuse>
                            <color>0.8 0.8 0.8 1.0</color>
                        </diffuse>
                        <reflective>
                            <color>1.0 1.0 1.0 1.0</color>
                        </reflective>
                        <reflectivity>
                            <float>0.2</float>
                        </reflectivity>
                        <transparent opaque="A_ONE">
                            <color>1.0 1.0 1.0 1.0</color>
                        </transparent>
                        <transparency>
                            <float>1.0</float>
                        </transparency>
                    </lambert>
                </technique>
                <extra>
                    <technique profile="GOOGLEEARTH">
                        <double_sided>1</double_sided>
                    </technique>
                </extra>
            </profile_COMMON>
        </effect>
        <effect id="default_ai_0.2_sh_0.2_tr_0.0_dc_r_1.0_g_0.2_b_0.2_sc_r_1.0_g_1.0_b_1.0_ec_r_0.0_g_0.0_b_0_eff">
            <profile_COMMON>
                <technique sid="COMMON">
                    <lambert>
                        <emission>
                            <color>0.0 0.0 0.0 1.0</color>
                        </emission>
                        <diffuse>
                            <color>1.0 0.2 0.2 1.0</color>
                        </diffuse>
                        <reflective>
                            <color>1.0 1.0 1.0 1.0</color>
                        </reflective>
                        <reflectivity>
                            <float>0.2</float>
                        </reflectivity>
                        <transparent opaque="A_ONE">
                            <color>1.0 1.0 1.0 1.0</color>
                        </transparent>
                        <transparency>
                            <float>1.0</float>
                        </transparency>
                    </lambert>
                </technique>
                <extra>
                    <technique profile="GOOGLEEARTH">
                        <double_sided>1</double_sided>
                    </technique>
                </extra>
            </profile_COMMON>
        </effect>
    </library_effects>
    <library_geometries>
        <geometry id="geometry0">
            <mesh>
                <source id="geometry0-position">
                    <float_array id="geometry0-position-array" count="108">-1.7751623 -5.205658 16.5452326 -23.6619421 8.0690918 14.1000488 -25.4371496 2.8634338 16.5452345 4.52E-5 0.0 14.1000478 -27.2123418 -2.3421021 14.1000488 -24.3729253 -3.3104248 14.1000498 -6.3898473 -9.4429932 14.1000478 -3.5504003 -10.4113464 14.1000469 -7.0353399 -11.335907 14.1000469 -25.0184789 -5.2034302 14.1000498 -27.2123793 -2.342131 14.1000552 -23.6619599 8.0691268 5.74E-5 -27.212379 -2.342131 5.76E-5 -25.4371722 2.8634993 16.545239 -23.6619561 8.069142 14.1000552 -25.0184858 -5.2033885 5.71E-5 -7.0353959 -11.3359474 14.1000524 -25.0184863 -5.2033885 14.1000562 -7.0353959 -11.3359474 5.46E-5 2.6E-6 -2.8E-5 5.35E-5 2.6E-6 -2.8E-5 14.1000533 -3.5504163 -10.4112857 14.1000524 -1.7752087 -5.2056564 16.5452371 -3.5504296 -10.4112819 5.46E-5 -6.3898518 -9.4429878 14.1000543 -6.3898671 -9.4429839 5.49E-5 -24.3729468 -3.3104442 5.74E-5 -24.372943 -3.3104289 14.1000572 -24.3729401 -3.3103333 5.7E-6 0.0 0.0 0.0 -3.5504456 -10.4112244 1.4E-6 -6.3898468 -9.4429321 1.7E-6 -25.0184479 -5.2033386 5.8E-6 -7.0353851 -11.3358459 1.8E-6 -27.2123718 -2.3421021 6.0E-6 -23.661972 8.0691833 5.6E-6</float_array>
                    <technique_common>
                        <accessor count="36" source="#geometry0-position-array" stride="3">
                            <param name="X" type="float"/>
                            <param name="Y" type="float"/>
                            <param name="Z" type="float"/>
                        </accessor>
                    </technique_common>
                </source>
                <source id="geometry0-normal">
                    <float_array id="geometry0-normal-array" count="288">0.9464789 -0.3227657 -1.0E-6 0.9464789 -0.3227657 -1.0E-6 0.9464789 -0.3227657 -1.0E-6 0.9464785 -0.3227668 0.0 0.9464785 -0.3227668 0.0 0.9464785 -0.3227668 0.0 -0.1311218 -0.3845049 0.9137632 -0.1311218 -0.3845049 0.9137632 -0.1311218 -0.3845049 0.9137632 -0.1311203 -0.3844837 0.9137722 -0.1311203 -0.3844837 0.9137722 -0.1311203 -0.3844837 0.9137722 -0.1311209 -0.3844977 0.9137663 -0.1311209 -0.3844977 0.9137663 -0.1311209 -0.3844977 0.9137663 -0.1311256 -0.3844932 0.9137676 -0.1311256 -0.3844932 0.9137676 -0.1311256 -0.3844932 0.9137676 0.9464771 -0.3227711 0.0 0.9464771 -0.3227711 0.0 0.9464771 -0.3227711 0.0 0.9464796 -0.3227637 -1.1E-6 0.9464796 -0.3227637 -1.1E-6 0.9464796 -0.3227637 -1.1E-6 -0.3227659 -0.9464788 1.0E-7 -0.3227659 -0.9464788 1.0E-7 -0.3227659 -0.9464788 1.0E-7 1.0E-7 -0.0 1.0 1.0E-7 -0.0 1.0 1.0E-7 -0.0 1.0 -0.322766 -0.9464788 1.0E-7 -0.322766 -0.9464788 1.0E-7 -0.322766 -0.9464788 1.0E-7 -1.0E-7 -5.0E-7 1.0 -1.0E-7 -5.0E-7 1.0 -1.0E-7 -5.0E-7 1.0 -0.9464771 0.3227708 0.0 -0.9464771 0.3227708 0.0 -0.9464771 0.3227708 0.0 -0.9464789 0.3227656 0.0 -0.9464789 0.3227656 0.0 -0.9464789 0.3227656 0.0 -0.9464774 0.3227702 -1.0E-7 -0.9464774 0.3227702 -1.0E-7 -0.9464774 0.3227702 -1.0E-7 -0.946479 0.3227654 -2.0E-7 -0.946479 0.3227654 -2.0E-7 -0.946479 0.3227654 -2.0E-7 -0.9464788 0.3227658 -1.0E-7 -0.9464788 0.3227658 -1.0E-7 -0.9464788 0.3227658 -1.0E-7 -0.3227661 -0.9464788 1.1E-6 -0.3227661 -0.9464788 1.1E-6 -0.3227661 -0.9464788 1.1E-6 -0.322771 -0.9464771 0.0 -0.322771 -0.9464771 0.0 -0.322771 -0.9464771 0.0 -0.3227664 -0.9464787 0.0 -0.3227664 -0.9464787 0.0 -0.3227664 -0.9464787 0.0 -0.3227663 -0.9464787 0.0 -0.3227663 -0.9464787 0.0 -0.3227663 -0.9464787 0.0 0.3227668 0.9464785 0.0 0.3227668 0.9464785 0.0 0.3227668 0.9464785 0.0 0.3227662 0.9464787 -1.1E-6 0.3227662 0.9464787 -1.1E-6 0.3227662 0.9464787 -1.1E-6 -2.0E-7 -1.0E-7 -1.0 -2.0E-7 -1.0E-7 -1.0 -2.0E-7 -1.0E-7 -1.0 0.0843758 0.2474217 -0.9652271 0.0843758 0.2474217 -0.9652271 0.0843758 0.2474217 -0.9652271 -2.0E-7 0.0 -1.0 -2.0E-7 0.0 -1.0 -2.0E-7 0.0 -1.0 0.1311196 0.3844978 0.9137664 0.1311196 0.3844978 0.9137664 0.1311196 0.3844978 0.9137664 -2.0E-7 0.0 -1.0 -2.0E-7 0.0 -1.0 -2.0E-7 0.0 -1.0 0.1311195 0.3844976 0.9137665 0.1311195 0.3844976 0.9137665 0.1311195 0.3844976 0.9137665 -2.0E-7 0.0 -1.0 -2.0E-7 0.0 -1.0 -2.0E-7 0.0 -1.0 -2.0E-7 -3.0E-7 -1.0 -2.0E-7 -3.0E-7 -1.0 -2.0E-7 -3.0E-7 -1.0 0.9464789 -0.3227657 9.0E-7 0.9464789 -0.3227657 9.0E-7 0.9464789 -0.3227657 9.0E-7</float_array>
                    <technique_common>
                        <accessor count="96" source="#geometry0-normal-array" stride="3">
                            <param name="X" type="float"/>
                            <param name="Y" type="float"/>
                            <param name="Z" type="float"/>
                        </accessor>
                    </technique_common>
                </source>
                <source id="geometry0-texCoords">
                    <float_array id="geometry0-texCoords-array" count="0"></float_array>
                    <technique_common>
                        <accessor count="0" source="#geometry0-texCoords-array" stride="2">
                            <param name="S" type="float"/>
                            <param name="T" type="float"/>
                        </accessor>
                    </technique_common>
                </source>
                <vertices id="geometry0-vertex">
                    <input semantic="POSITION" source="#geometry0-position"/>
                </vertices>
                <triangles count="24" material="default_ai_0.2_sh_0.2_tr_0.0_dc_r_0.8_g_0.8_b_0.8_sc_r_1.0_g_1.0_b_1.0_ec_r_0.0_g_0.0_b_0_tri">
                    <input offset="0" semantic="VERTEX" source="#geometry0-vertex"/>
                    <input offset="1" semantic="NORMAL" source="#geometry0-normal"/>
                    <p>23 0 20 1 21 2 19 3 20 4 23 5 18 18 24 19 16 20 25 21 24 22 18 23 21 24 25 25 23 26 24 30 25 31 21 32 17 36 26 37 15 38 10 39 11 40 12 41 27 42 26 43 17 44 13 45 11 46 10 47 14 48 11 49 13 50 10 51 26 52 27 53 12 54 26 55 10 56 15 57 16 58 17 59 18 60 16 61 15 62 19 63 14 64 20 65 11 66 14 67 19 68 28 69 29 70 30 71 31 72 28 73 30 74 32 75 28 76 31 77 33 81 32 82 31 83 29 87 34 88 35 89 28 90 34 91 29 92 21 93 20 94 22 95</p>
                </triangles>
                <triangles count="8" material="default_ai_0.2_sh_0.2_tr_0.0_dc_r_1.0_g_0.2_b_0.2_sc_r_1.0_g_1.0_b_1.0_ec_r_0.0_g_0.0_b_0_tri">
                    <input offset="0" semantic="VERTEX" source="#geometry0-vertex"/>
                    <input offset="1" semantic="NORMAL" source="#geometry0-normal"/>
                    <p>4 6 0 7 2 8 5 9 0 10 4 11 6 12 0 13 5 14 7 15 0 16 6 17 8 27 5 28 9 29 6 33 5 34 8 35 0 78 1 79 2 80 3 84 1 85 0 86</p>
                </triangles>
            </mesh>
        </geometry>
    </library_geometries>
    <library_visual_scenes>
        <visual_scene id="Building_pb-9635c105-7f36-11f0-b2f2-9c7bef4dcf4c">
            <node>
                <instance_geometry url="#geometry0">
                    <bind_material>
                        <technique_common>
                            <instance_material symbol="default_ai_0.2_sh_0.2_tr_0.0_dc_r_0.8_g_0.8_b_0.8_sc_r_1.0_g_1.0_b_1.0_ec_r_0.0_g_0.0_b_0_tri" target="#default_ai_0.2_sh_0.2_tr_0.0_dc_r_0.8_g_0.8_b_0.8_sc_r_1.0_g_1.0_b_1.0_ec_r_0.0_g_0.0_b_0_mat"/>
                            <instance_material symbol="default_ai_0.2_sh_0.2_tr_0.0_dc_r_1.0_g_0.2_b_0.2_sc_r_1.0_g_1.0_b_1.0_ec_r_0.0_g_0.0_b_0_tri" target="#default_ai_0.2_sh_0.2_tr_0.0_dc_r_1.0_g_0.2_b_0.2_sc_r_1.0_g_1.0_b_1.0_ec_r_0.0_g_0.0_b_0_mat"/>
                        </technique_common>
                    </bind_material>
                </instance_geometry>
            </node>
        </visual_scene>
    </library_visual_scenes>
    <scene>
        <instance_visual_scene url="#Building_pb-9635c105-7f36-11f0-b2f2-9c7bef4dcf4c"/>
    </scene>
</COLLADA>
