<?xml version="1.0" encoding="UTF-8" standalone="yes"?>
<COLLADA xmlns="http://www.collada.org/2005/11/COLLADASchema" version="1.4.1">
    <asset>
        <contributor>
            <authoring_tool>3D City Database Importer/Exporter, version 5.5.1; Chair of Geoinformatics, Technical University of Munich</authoring_tool>
        </contributor>
        <created>2026-01-16T16:51:34.157</created>
        <modified>2026-01-16T16:51:34.157</modified>
        <unit meter="1.0" name="meters"/>
        <up_axis>Z_UP</up_axis>
    </asset>
    <library_materials>
        <material id="default_ai_0.2_sh_0.2_tr_0.0_dc_r_0.8_g_0.8_b_0.8_sc_r_1.0_g_1.0_b_1.0_ec_r_0.0_g_0.0_b_0_mat">
            <instance_effect url="#default_ai_0.2_sh_0.2_tr_0.0_dc_r_0.8_g_0.8_b_0.8_sc_r_1.0_g_1.0_b_1.0_ec_r_0.0_g_0.0_b_0_eff"/>
        </material>
        <material id="default_ai_0.2_sh_0.2_tr_0.0_dc_r_1.0_g_0.2_b_0.2_sc_r_1.0_g_1.0_b_1.0_ec_r_0.0_g_0.0_b_0_mat">
            <instance_effect url="#default_ai_0.2_sh_0.2_tr_0.0_dc_r_1.0_g_0.2_b_0.2_sc_r_1.0_g_1.0_b_1.0_ec_r_0.0_g_0.0_b_0_eff"/>
        </material>
    </library_materials>
    <library_effects>
        <effect id="default_ai_0.2_sh_0.2_tr_0.0_dc_r_0.8_g_0.8_b_0.8_sc_r_1.0_g_1.0_b_1.0_ec_r_0.0_g_0.0_b_0_eff">
            <profile_COMMON>
                <technique sid="COMMON">
                    <lambert>
                        <emission>
                            <color>0.0 0.0 0.0 1.0</color>
                        </emission>
                        <diffuse>
                            <color>0.8 0.8 0.8 1.0</color>
                        </diffuse>
                        <reflective>
                            <color>1.0 1.0 1.0 1.0</color>
                        </reflective>
                        <reflectivity>
                            <float>0.2</float>
                        </reflectivity>
                        <transparent opaque="A_ONE">
                            <color>1.0 1.0 1.0 1.0</color>
                        </transparent>
                        <transparency>
                            <float>1.0</float>
                        </transparency>
                    </lambert>
                </technique>
                <extra>
                    <technique profile="GOOGLEEARTH">
                        <double_sided>1</double_sided>
                    </technique>
                </extra>
            </profile_COMMON>
        </effect>
        <effect id="default_ai_0.2_sh_0.2_tr_0.0_dc_r_1.0_g_0.2_b_0.2_sc_r_1.0_g_1.0_b_1.0_ec_r_0.0_g_0.0_b_0_eff">
            <profile_COMMON>
                <technique sid="COMMON">
                    <lambert>
                        <emission>
                            <color>0.0 0.0 0.0 1.0</color>
                        </emission>
                        <diffuse>
                            <color>1.0 0.2 0.2 1.0</color>
                        </diffuse>
                        <reflective>
                            <color>1.0 1.0 1.0 1.0</color>
                        </reflective>
                        <reflectivity>
                            <float>0.2</float>
                        </reflectivity>
                        <transparent opaque="A_ONE">
                            <color>1.0 1.0 1.0 1.0</color>
                        </transparent>
                        <transparency>
                            <float>1.0</float>
                        </transparency>
                    </lambert>
                </technique>
                <extra>
                    <technique profile="GOOGLEEARTH">
                        <double_sided>1</double_sided>
                    </technique>
                </extra>
            </profile_COMMON>
        </effect>
    </library_effects>
    <library_geometries>
        <geometry id="geometry0">
            <mesh>
                <source id="geometry0-position">
                    <float_array id="geometry0-position-array" count="108">-8.8257604 -10.3492432 14.1000451 -42.6028448 6.4143066 14.1000499 -43.3956838 4.578125 14.1000499 -8.0328985 -8.5130615 14.1000451 -2.1913 -5.0748596 16.4451255 -44.0613866 19.0258789 14.1000499 -46.2527242 13.9510498 16.4451274 3.0E-5 -3.05E-5 14.1000441 -48.4220739 8.9270935 14.1000508 -4.3606573 -10.0988464 14.1000451 -48.4221127 8.9271008 5.95E-5 -42.602855 6.4143216 14.1000573 -48.4221127 8.9271008 14.1000582 -42.602855 6.4143216 5.94E-5 -43.3957093 4.5781895 14.1000573 -43.3957093 4.5781895 5.9E-5 -8.8258164 -10.3492349 14.1000515 -8.8258155 -10.3492349 5.38E-5 -2.22E-5 -7.37E-5 5.27E-5 -44.0614369 19.025848 14.1000573 -2.22E-5 -7.37E-5 14.1000506 -44.0614369 19.025848 5.89E-5 -2.1913312 -5.0748533 16.4451291 -4.3606942 -10.0988057 14.1000515 -4.3606942 -10.0988057 5.39E-5 -8.0329612 -8.5131028 5.38E-5 -8.0329612 -8.5131028 14.1000515 -46.2527669 13.9510504 16.4451329 0.0 0.0 0.0 -43.3956451 4.5782471 9.8E-6 -42.6028442 6.4143677 9.8E-6 -8.0329285 -8.5130005 1.9E-6 -8.8257904 -10.3491821 2.0E-6 -48.4220963 8.9271545 1.04E-5 -44.0613937 19.0259094 9.9E-6 -4.360672 -10.0987549 1.5E-6</float_array>
                    <technique_common>
                        <accessor count="36" source="#geometry0-position-array" stride="3">
                            <param name="X" type="float"/>
                            <param name="Y" type="float"/>
                            <param name="Z" type="float"/>
                        </accessor>
                    </technique_common>
                </source>
                <source id="geometry0-normal">
                    <float_array id="geometry0-normal-array" count="288">-0.3964258 -0.9180669 0.0 -0.3964258 -0.9180669 0.0 -0.3964258 -0.9180669 0.0 -0.3964258 -0.9180669 0.0 -0.3964258 -0.9180669 0.0 -0.3964258 -0.9180669 0.0 -2.0E-7 1.0E-7 -1.0 -2.0E-7 1.0E-7 -1.0 -2.0E-7 1.0E-7 -1.0 -2.0E-7 -0.0 -1.0 -2.0E-7 -0.0 -1.0 -2.0E-7 -0.0 -1.0 -0.3964253 -0.918067 0.0 -0.3964253 -0.918067 0.0 -0.3964253 -0.918067 0.0 -2.0E-7 0.0 -1.0 -2.0E-7 0.0 -1.0 -2.0E-7 0.0 -1.0 -0.3964253 -0.918067 0.0 -0.3964253 -0.918067 0.0 -0.3964253 -0.918067 0.0 -2.0E-7 0.0 -1.0 -2.0E-7 0.0 -1.0 -2.0E-7 0.0 -1.0 -3.0E-7 -4.0E-7 -1.0 -3.0E-7 -4.0E-7 -1.0 -3.0E-7 -4.0E-7 -1.0 -1.0E-7 -1.0E-7 -1.0 -1.0E-7 -1.0E-7 -1.0 -1.0E-7 -1.0E-7 -1.0 0.3964255 0.9180669 0.0 0.3964255 0.9180669 0.0 0.3964255 0.9180669 0.0 0.3964255 0.9180669 0.0 0.3964255 0.9180669 0.0 0.3964255 0.9180669 0.0 0.1548226 0.358548 0.9205831 0.1548226 0.358548 0.9205831 0.1548226 0.358548 0.9205831 0.1548229 0.3585486 0.9205828 0.1548229 0.3585486 0.9205828 0.1548229 0.3585486 0.9205828 0.918066 -0.3964276 1.0E-7 0.918066 -0.3964276 1.0E-7 0.918066 -0.3964276 1.0E-7 0.9180661 -0.3964272 0.0 0.9180661 -0.3964272 0.0 0.9180661 -0.3964272 0.0 0.9180672 -0.3964249 0.0 0.9180672 -0.3964249 0.0 0.9180672 -0.3964249 0.0 0.9180671 -0.3964251 -1.0E-7 0.9180671 -0.3964251 -1.0E-7 0.9180671 -0.3964251 -1.0E-7 0.9180671 -0.396425 0.0 0.9180671 -0.396425 0.0 0.9180671 -0.396425 0.0 -0.9180661 0.3964272 0.0 -0.9180661 0.3964272 0.0 -0.9180661 0.3964272 0.0 -0.9180661 0.3964272 0.0 -0.9180661 0.3964272 0.0 -0.9180661 0.3964272 0.0 -0.9180672 0.3964247 0.0 -0.9180672 0.3964247 0.0 -0.9180672 0.3964247 0.0 -0.9180679 0.3964232 -1.4E-6 -0.9180679 0.3964232 -1.4E-6 -0.9180679 0.3964232 -1.4E-6 -0.9180663 0.3964269 0.0 -0.9180663 0.3964269 0.0 -0.9180663 0.3964269 0.0 -0.1561482 -0.3616182 0.9191572 -0.1561482 -0.3616182 0.9191572 -0.1561482 -0.3616182 0.9191572 -0.1561463 -0.3616111 0.9191604 -0.1561463 -0.3616111 0.9191604 -0.1561463 -0.3616111 0.9191604 -0.1561492 -0.3616227 0.9191553 -0.1561492 -0.3616227 0.9191553 -0.1561492 -0.3616227 0.9191553 -0.1561556 -0.3616135 0.9191578 -0.1561556 -0.3616135 0.9191578 -0.1561556 -0.3616135 0.9191578 -0.3964252 -0.918067 0.0 -0.3964252 -0.918067 0.0 -0.3964252 -0.918067 0.0 -0.3964252 -0.918067 -0.0 -0.3964252 -0.918067 -0.0 -0.3964252 -0.918067 -0.0 1.0E-7 -1.0E-7 1.0 1.0E-7 -1.0E-7 1.0 1.0E-7 -1.0E-7 1.0 1.0E-7 -1.0E-7 1.0 1.0E-7 -1.0E-7 1.0 1.0E-7 -1.0E-7 1.0</float_array>
                    <technique_common>
                        <accessor count="96" source="#geometry0-normal-array" stride="3">
                            <param name="X" type="float"/>
                            <param name="Y" type="float"/>
                            <param name="Z" type="float"/>
                        </accessor>
                    </technique_common>
                </source>
                <source id="geometry0-texCoords">
                    <float_array id="geometry0-texCoords-array" count="0"></float_array>
                    <technique_common>
                        <accessor count="0" source="#geometry0-texCoords-array" stride="2">
                            <param name="S" type="float"/>
                            <param name="T" type="float"/>
                        </accessor>
                    </technique_common>
                </source>
                <vertices id="geometry0-vertex">
                    <input semantic="POSITION" source="#geometry0-position"/>
                </vertices>
                <triangles count="24" material="default_ai_0.2_sh_0.2_tr_0.0_dc_r_0.8_g_0.8_b_0.8_sc_r_1.0_g_1.0_b_1.0_ec_r_0.0_g_0.0_b_0_tri">
                    <input offset="0" semantic="VERTEX" source="#geometry0-vertex"/>
                    <input offset="1" semantic="NORMAL" source="#geometry0-normal"/>
                    <p>23 0 25 1 24 2 26 3 25 4 23 5 28 6 29 7 30 8 31 9 29 10 28 11 10 12 11 13 12 14 32 15 29 16 31 17 13 18 11 19 10 20 28 21 33 22 34 23 30 24 33 25 28 26 28 27 35 28 31 29 18 30 19 31 20 32 21 33 19 34 18 35 17 42 26 43 16 44 25 45 26 46 17 47 22 48 18 49 20 50 23 51 18 52 22 53 24 54 18 55 23 56 14 57 13 58 15 59 11 60 13 61 14 62 12 63 21 64 10 65 27 66 21 67 12 68 19 69 21 70 27 71 15 84 16 85 14 86 17 87 16 88 15 89</p>
                </triangles>
                <triangles count="8" material="default_ai_0.2_sh_0.2_tr_0.0_dc_r_1.0_g_0.2_b_0.2_sc_r_1.0_g_1.0_b_1.0_ec_r_0.0_g_0.0_b_0_tri">
                    <input offset="0" semantic="VERTEX" source="#geometry0-vertex"/>
                    <input offset="1" semantic="NORMAL" source="#geometry0-normal"/>
                    <p>4 36 5 37 6 38 7 39 5 40 4 41 8 72 4 73 6 74 1 75 4 76 8 77 3 78 4 79 1 80 9 81 4 82 3 83 0 90 1 91 2 92 3 93 1 94 0 95</p>
                </triangles>
            </mesh>
        </geometry>
    </library_geometries>
    <library_visual_scenes>
        <visual_scene id="Building_pb-96359a12-7f36-11f0-aa94-9c7bef4dcf4c">
            <node>
                <instance_geometry url="#geometry0">
                    <bind_material>
                        <technique_common>
                            <instance_material symbol="default_ai_0.2_sh_0.2_tr_0.0_dc_r_0.8_g_0.8_b_0.8_sc_r_1.0_g_1.0_b_1.0_ec_r_0.0_g_0.0_b_0_tri" target="#default_ai_0.2_sh_0.2_tr_0.0_dc_r_0.8_g_0.8_b_0.8_sc_r_1.0_g_1.0_b_1.0_ec_r_0.0_g_0.0_b_0_mat"/>
                            <instance_material symbol="default_ai_0.2_sh_0.2_tr_0.0_dc_r_1.0_g_0.2_b_0.2_sc_r_1.0_g_1.0_b_1.0_ec_r_0.0_g_0.0_b_0_tri" target="#default_ai_0.2_sh_0.2_tr_0.0_dc_r_1.0_g_0.2_b_0.2_sc_r_1.0_g_1.0_b_1.0_ec_r_0.0_g_0.0_b_0_mat"/>
                        </technique_common>
                    </bind_material>
                </instance_geometry>
            </node>
        </visual_scene>
    </library_visual_scenes>
    <scene>
        <instance_visual_scene url="#Building_pb-96359a12-7f36-11f0-aa94-9c7bef4dcf4c"/>
    </scene>
</COLLADA>
