<?xml version="1.0" encoding="UTF-8" standalone="yes"?>
<COLLADA xmlns="http://www.collada.org/2005/11/COLLADASchema" version="1.4.1">
    <asset>
        <contributor>
            <authoring_tool>3D City Database Importer/Exporter, version 5.5.1; Chair of Geoinformatics, Technical University of Munich</authoring_tool>
        </contributor>
        <created>2026-01-16T16:51:34.532</created>
        <modified>2026-01-16T16:51:34.532</modified>
        <unit meter="1.0" name="meters"/>
        <up_axis>Z_UP</up_axis>
    </asset>
    <library_materials>
        <material id="default_dc_r_0.6_g_0.6_b_0_mat">
            <instance_effect url="#default_dc_r_0.6_g_0.6_b_0_eff"/>
        </material>
        <material id="default_dc_r_1.0_g_1.0_b_1_mat">
            <instance_effect url="#default_dc_r_1.0_g_1.0_b_1_eff"/>
        </material>
        <material id="default_dc_r_0.9_g_0.7_b_0_mat">
            <instance_effect url="#default_dc_r_0.9_g_0.7_b_0_eff"/>
        </material>
    </library_materials>
    <library_effects>
        <effect id="default_dc_r_0.6_g_0.6_b_0_eff">
            <profile_COMMON>
                <technique sid="COMMON">
                    <lambert>
                        <emission>
                            <color>0.0 0.0 0.0 1.0</color>
                        </emission>
                        <diffuse>
                            <color>0.6 0.6 0.6 1.0</color>
                        </diffuse>
                    </lambert>
                </technique>
                <extra>
                    <technique profile="GOOGLEEARTH">
                        <double_sided>1</double_sided>
                    </technique>
                </extra>
            </profile_COMMON>
        </effect>
        <effect id="default_dc_r_1.0_g_1.0_b_1_eff">
            <profile_COMMON>
                <technique sid="COMMON">
                    <lambert>
                        <emission>
                            <color>0.0 0.0 0.0 1.0</color>
                        </emission>
                        <diffuse>
                            <color>1.0 1.0 1.0 1.0</color>
                        </diffuse>
                    </lambert>
                </technique>
                <extra>
                    <technique profile="GOOGLEEARTH">
                        <double_sided>1</double_sided>
                    </technique>
                </extra>
            </profile_COMMON>
        </effect>
        <effect id="default_dc_r_0.9_g_0.7_b_0_eff">
            <profile_COMMON>
                <technique sid="COMMON">
                    <lambert>
                        <emission>
                            <color>0.0 0.0 0.0 1.0</color>
                        </emission>
                        <diffuse>
                            <color>0.9 0.7 0.4 1.0</color>
                        </diffuse>
                    </lambert>
                </technique>
                <extra>
                    <technique profile="GOOGLEEARTH">
                        <double_sided>1</double_sided>
                    </technique>
                </extra>
            </profile_COMMON>
        </effect>
    </library_effects>
    <library_geometries>
        <geometry id="geometry0">
            <mesh>
                <source id="geometry0-position">
                    <float_array id="geometry0-position-array" count="552">5.2553 18.2732 3.007224 4.1479 15.1325 2.994824 5.3372 18.2438 3.051024 4.2514 15.0897 3.051224 11.5939 12.6666 24.850424 13.8796 19.3061 24.850424 11.3524 20.176 24.719524 9.0668 13.5365 24.719524 14.2481 19.1792 24.869524 11.9625 12.5397 24.869524 7.8926 0.8261 24.869524 7.5576 0.9414 24.834524 5.2694 -5.7053 24.834524 5.0238 1.8137 24.569524 2.7357 -4.8331 24.569524 5.6045 -5.8207 24.869524 -0.9301 0.2593 3.002924 -0.8606 0.2399 3.039224 0.1539 3.4608 2.994224 0.2509 3.4688 3.039124 0.1855 3.4932 3.003924 0.1672 3.5 2.994124 9.4556 14.6661 22.510224 6.1156 17.9639 22.099724 5.0181 14.7732 22.099824 4.6285 0.6654 22.509524 1.0775 3.1607 22.105024 0.0 0.0 22.106024 -0.2616 -16.4636 22.601824 2.7357 -4.8331 22.509524 -4.5606 -13.1822 22.103924 11.3524 20.176 22.510224 17.2264 30.7051 22.716524 10.5931 31.173 22.093324 4.5791 13.4796 22.100424 5.0238 1.8137 22.509524 9.0668 13.5365 22.510224 11.2711 19.9397 22.510224 7.1266 20.9464 22.098324 13.8796 19.3061 22.769524 10.9511 19.0104 22.510224 -0.6149 0.1714 22.044224 -0.183 -0.529 22.105924 3.1335 -3.6776 22.509524 5.2694 -5.7053 22.769524 2.7817 -4.6994 22.509524 -1.0849 -3.1359 22.105524 7.5576 0.9414 22.769524 6.3115 18.5418 22.099424 5.8123 18.073 22.068424 11.5939 12.6666 22.769524 4.2514 15.0897 22.019524 5.0089 14.7461 22.099824 0.2509 3.4688 22.019524 1.1268 3.306 22.105024 -5.0055 -14.4682 22.103724 1.3724 -17.0257 22.769524 17.7426 30.5276 22.769524 10.9695 32.2833 22.092824 -5.118 -14.7933 22.103724 11.1436 32.7971 22.092524 5.3372 18.2438 22.019524 -0.8606 0.2399 22.019524 7.8926 0.8261 22.731924 12.1577 -4.2088 22.129924 11.9625 12.5397 22.728124 5.6045 -5.8207 22.731924 7.6207 -17.4592 22.127424 14.2481 19.1792 22.728124 22.8034 26.8824 22.135624 11.2314 -6.9139 22.129424 5.6198 -5.7763 22.731924 18.9998 15.7738 22.133624 19.3459 16.7847 22.133824 14.2353 19.142 22.728124 7.7931 0.5371 22.731924 11.5656 -5.938 22.129524 12.0758 12.8688 22.728124 7.0952 -18.994 22.127124 23.3868 28.5864 22.136024 11.2711 19.9397 22.5102 10.9511 19.0104 22.5102 11.3524 20.176 24.7195 9.4556 14.6661 22.5102 9.0668 13.5365 24.7195 9.0668 13.5365 22.5102 11.3524 20.176 22.5102 13.8796 19.3061 22.7695 13.8796 19.3061 24.8504 14.2481 19.1792 22.7281 14.2481 19.1792 24.8695 14.2353 19.142 22.7281 12.0758 12.8688 22.7281 11.9625 12.5397 24.8695 11.9625 12.5397 22.7281 7.5576 0.9414 22.7695 5.0238 1.8137 22.5095 5.0238 1.8137 24.5695 7.5576 0.9414 24.8345 7.8926 0.8261 22.7319 7.8926 0.8261 24.8695 11.5939 12.6666 22.7695 11.5939 12.6666 24.8504 5.6045 -5.8207 24.8695 5.6045 -5.8207 22.7319 5.6198 -5.7763 22.7319 7.7931 0.5371 22.7319 4.6285 0.6654 22.5095 3.1335 -3.6776 22.5096 2.7817 -4.6994 22.5096 2.7357 -4.8331 24.5695 2.7357 -4.8331 22.5096 0.2509 3.4688 3.0391 -0.8606 0.2399 3.0392 0.2509 3.4688 22.0195 -0.8606 0.2399 22.0195 5.3372 18.2438 3.051 4.2514 15.0897 3.0512 5.3372 18.2438 22.0195 4.2514 15.0897 22.0195 5.2694 -5.7053 22.7695 5.2694 -5.7053 24.8345 -0.9301 0.2593 3.0029 0.0 0.0 0.0 -0.9301 0.2593 0.0 0.0 0.0 22.106 -0.6149 0.1714 22.0442 0.1539 3.4608 2.9942 0.1672 3.5 0.0 0.1672 3.5 2.9941 1.0775 3.1607 0.0 0.1855 3.4932 3.0039 1.0775 3.1607 22.105 4.5791 13.4796 22.1004 5.0181 14.7732 0.0 5.0089 14.7461 22.0998 5.0181 14.7732 22.0998 1.1268 3.306 22.105 4.1479 15.1325 2.9949 4.1479 15.1325 0.0 5.2553 18.2732 0.0 5.2553 18.2732 3.0072 6.1156 17.9639 0.0 6.1156 17.9639 22.0997 5.8123 18.073 22.0685 10.5931 31.173 22.0933 11.1436 32.7971 0.0 7.1266 20.9464 22.0983 6.3115 18.5418 22.0995 10.9695 32.2833 22.0928 11.1436 32.7971 22.0925 17.2264 30.7051 22.7165 23.3868 28.5864 0.0 17.7426 30.5276 22.7695 23.3868 28.5864 22.136 12.1577 -4.2088 22.1299 7.0952 -18.994 0.0 18.9998 15.7738 22.1336 11.5656 -5.938 22.1296 11.2314 -6.9139 22.1294 7.6207 -17.4592 22.1274 22.8034 26.8824 22.1357 7.0952 -18.994 22.1272 19.3459 16.7847 22.1338 -5.0055 -14.4682 22.1037 -5.118 -14.7933 0.0 -5.118 -14.7933 22.1037 -1.0849 -3.1359 22.1055 -4.5606 -13.1822 22.1039 -0.183 -0.529 22.1059 -0.2616 -16.4636 22.6019 1.3724 -17.0257 22.7695 5.0181 14.7732 3.6E-5 6.1156 17.9639 3.6E-5 23.3868 28.5864 3.6E-5 0.0 0.0 3.6E-5 1.0775 3.1607 3.6E-5 7.0952 -18.994 3.6E-5 0.1672 3.5 3.6E-5 4.1479 15.1325 3.6E-5 5.2553 18.2732 3.6E-5 -0.9301 0.2593 3.6E-5 11.1436 32.7971 3.6E-5 -5.118 -14.7933 3.6E-5</float_array>
                    <technique_common>
                        <accessor count="184" source="#geometry0-position-array" stride="3">
                            <param name="X" type="float"/>
                            <param name="Y" type="float"/>
                            <param name="Z" type="float"/>
                        </accessor>
                    </technique_common>
                </source>
                <source id="geometry0-normal">
                    <float_array id="geometry0-normal-array" count="1620">-0.4258725 0.1466634 0.8928171 -0.4258725 0.1466634 0.8928171 -0.4258725 0.1466634 0.8928171 0.0998169 -0.0342857 0.994415 0.0998169 -0.0342857 0.994415 0.0998169 -0.0342857 0.994415 0.0998132 -0.0344076 0.9944111 0.0998132 -0.0344076 0.9944111 0.0998132 -0.0344076 0.9944111 0.0997947 -0.034354 0.9944148 0.0997947 -0.034354 0.9944148 0.0997947 -0.034354 0.9944148 0.0997987 -0.0343409 0.9944149 0.0997987 -0.0343409 0.9944149 0.0997987 -0.0343409 0.9944149 0.0998014 -0.0343604 0.994414 0.0998014 -0.0343604 0.994414 0.0998014 -0.0343604 0.994414 0.0998529 -0.0343714 0.9944084 0.0998529 -0.0343714 0.9944084 0.0998529 -0.0343714 0.9944084 -0.9469628 0.3213435 -1.2E-6 -0.9469628 0.3213435 -1.2E-6 -0.9469628 0.3213435 -1.2E-6 0.0997961 -0.034357 0.9944146 0.0997961 -0.034357 0.9944146 0.0997961 -0.034357 0.9944146 -0.9469573 0.3213597 -1.0E-7 -0.9469573 0.3213597 -1.0E-7 -0.9469573 0.3213597 -1.0E-7 0.0997946 -0.0343535 0.9944148 0.0997946 -0.0343535 0.9944148 0.0997946 -0.0343535 0.9944148 -0.9469244 0.3214564 0.0 -0.9469244 0.3214564 0.0 -0.9469244 0.3214564 0.0 0.0997878 -0.0343511 0.9944156 0.0997878 -0.0343511 0.9944156 0.0997878 -0.0343511 0.9944156 -0.3255259 -0.9455332 0.0 -0.3255259 -0.9455332 0.0 -0.3255259 -0.9455332 0.0 -0.9469752 0.3213067 0.0 -0.9469752 0.3213067 0.0 -0.9469752 0.3213067 0.0 0.0997524 -0.0343393 0.9944196 0.0997524 -0.0343393 0.9944196 0.0997524 -0.0343393 0.9944196 -0.3255259 -0.9455331 0.0 -0.3255259 -0.9455331 0.0 -0.3255259 -0.9455331 0.0 -0.9469633 0.3213417 -2.0E-7 -0.9469633 0.3213417 -2.0E-7 -0.9469633 0.3213417 -2.0E-7 0.0998054 -0.0343664 0.9944133 0.0998054 -0.0343664 0.9944133 0.0998054 -0.0343664 0.9944133 0.0997822 -0.0343963 0.9944147 0.0997822 -0.0343963 0.9944147 0.0997822 -0.0343963 0.9944147 0.0998757 -0.0343822 0.9944057 0.0998757 -0.0343822 0.9944057 0.0998757 -0.0343822 0.9944057 -0.0462533 0.0159231 0.9988028 -0.0462533 0.0159231 0.9988028 -0.0462533 0.0159231 0.9988028 -0.0462551 0.015923 0.9988027 -0.0462551 0.015923 0.9988027 -0.0462551 0.015923 0.9988027 -0.046283 0.0159333 0.9988013 -0.046283 0.0159333 0.9988013 -0.046283 0.0159333 0.9988013 -0.0462722 0.0159289 0.9988019 -0.0462722 0.0159289 0.9988019 -0.0462722 0.0159289 0.9988019 -0.3252468 -0.9456292 1.9E-6 -0.3252468 -0.9456292 1.9E-6 -0.3252468 -0.9456292 1.9E-6 -0.3252387 -0.9456319 0.0 -0.3252387 -0.9456319 0.0 -0.3252387 -0.9456319 0.0 -0.3252404 -0.9456313 0.0 -0.3252404 -0.9456313 0.0 -0.3252404 -0.9456313 0.0 -0.3252916 -0.9456137 -1.44E-5 -0.3252916 -0.9456137 -1.44E-5 -0.3252916 -0.9456137 -1.44E-5 0.0 0.0 -1.0 0.0 0.0 -1.0 0.0 0.0 -1.0 0.0 0.0 -1.0 0.0 0.0 -1.0 0.0 0.0 -1.0 0.9454395 -0.3257976 0.0 0.9454395 -0.3257976 0.0 0.9454395 -0.3257976 0.0 0.0 0.0 -1.0 0.0 0.0 -1.0 0.0 0.0 -1.0 0.9455452 -0.3254907 7.1E-6 0.9455452 -0.3254907 7.1E-6 0.9455452 -0.3254907 7.1E-6 0.0 0.0 -1.0 0.0 0.0 -1.0 0.0 0.0 -1.0 0.9455438 -0.3254949 -6.5E-6 0.9455438 -0.3254949 -6.5E-6 0.9455438 -0.3254949 -6.5E-6 0.9455292 -0.3255375 0.0 0.9455292 -0.3255375 0.0 0.9455292 -0.3255375 0.0 0.0 0.0 -1.0 0.0 0.0 -1.0 0.0 0.0 -1.0 0.0 0.0 -1.0 0.0 0.0 -1.0 0.0 0.0 -1.0 0.0 0.0 -1.0 0.0 0.0 -1.0 0.0 0.0 -1.0 0.0 0.0 -1.0 0.0 0.0 -1.0 0.0 0.0 -1.0 0.0 0.0 -1.0 0.0 0.0 -1.0 0.0 0.0 -1.0 0.0 0.0 -1.0 0.0 0.0 -1.0 0.0 0.0 -1.0 -0.0929568 0.0320014 0.9951558 -0.0929568 0.0320014 0.9951558 -0.0929568 0.0320014 0.9951558 -0.0930506 0.0320318 0.995146 -0.0930506 0.0320318 0.995146 -0.0930506 0.0320318 0.995146 -0.0930544 0.032035 0.9951456 -0.0930544 0.032035 0.9951456 -0.0930544 0.032035 0.9951456 -0.3820733 -0.924132 -1.468E-4 -0.3820733 -0.924132 -1.468E-4 -0.3820733 -0.924132 -1.468E-4 -0.0929244 0.0319884 0.9951592 -0.0929244 0.0319884 0.9951592 -0.0929244 0.0319884 0.9951592 -0.3816416 -0.9243104 0.0 -0.3816416 -0.9243104 0.0 -0.3816416 -0.9243104 0.0 -0.3815741 -0.9243382 0.0 -0.3815741 -0.9243382 0.0 -0.3815741 -0.9243382 0.0 -0.3815741 -0.9243383 0.0 -0.3815741 -0.9243383 0.0 -0.3815741 -0.9243383 0.0 -0.4255245 0.1465056 0.8930089 -0.4255245 0.1465056 0.8930089 -0.4255245 0.1465056 0.8930089 -0.9455463 0.3254874 8.4E-6 -0.9455463 0.3254874 8.4E-6 -0.9455463 0.3254874 8.4E-6 -0.4254587 0.1464853 0.8930436 -0.4254587 0.1464853 0.8930436 -0.4254587 0.1464853 0.8930436 -0.9455282 0.3255402 1.48E-5 -0.9455282 0.3255402 1.48E-5 -0.9455282 0.3255402 1.48E-5 -0.4242403 0.1462213 0.8936663 -0.4242403 0.1462213 0.8936663 -0.4242403 0.1462213 0.8936663 -0.9455981 0.325337 0.0 -0.9455981 0.325337 0.0 -0.9455981 0.325337 0.0 -0.4254648 0.1476608 0.8928471 -0.4254648 0.1476608 0.8928471 -0.4254648 0.1476608 0.8928471 -0.9455438 0.3254948 -1.37E-5 -0.9455438 0.3254948 -1.37E-5 -0.9455438 0.3254948 -1.37E-5 -0.9455417 0.3255008 0.0 -0.9455417 0.3255008 0.0 -0.9455417 0.3255008 0.0 -0.9430923 0.3325312 0.0 -0.9430923 0.3325312 0.0 -0.9430923 0.3325312 0.0 -0.9455134 0.3255832 -2.98E-5 -0.9455134 0.3255832 -2.98E-5 -0.9455134 0.3255832 -2.98E-5 -0.9430923 0.3325312 0.0 -0.9430923 0.3325312 0.0 -0.9430923 0.3325312 0.0 -0.9455428 0.3254977 2.5E-5 -0.9455428 0.3254977 2.5E-5 -0.9455428 0.3254977 2.5E-5 -0.9455579 0.3254539 0.0 -0.9455579 0.3254539 0.0 -0.9455579 0.3254539 0.0 -0.9455433 0.3254964 2.15E-5 -0.9455433 0.3254964 2.15E-5 -0.9455433 0.3254964 2.15E-5 -0.945599 0.3253344 0.0 -0.945599 0.3253344 0.0 -0.945599 0.3253344 0.0 0.3379241 0.9411734 -1.291E-4 0.3379241 0.9411734 -1.291E-4 0.3379241 0.9411734 -1.291E-4 -0.9455456 0.3254898 0.0 -0.9455456 0.3254898 0.0 -0.9455456 0.3254898 0.0 0.3383238 0.9410297 0.0 0.3383238 0.9410297 0.0 0.3383238 0.9410297 0.0 -0.9455456 0.3254898 0.0 -0.9455456 0.3254898 0.0 -0.9455456 0.3254898 0.0 0.3383723 0.9410123 0.0 0.3383723 0.9410123 0.0 0.3383723 0.9410123 0.0 -0.0912934 0.0314336 0.9953278 -0.0912934 0.0314336 0.9953278 -0.0912934 0.0314336 0.9953278 0.3383043 0.9410368 0.0 0.3383043 0.9410368 0.0 0.3383043 0.9410368 0.0 -0.0912891 0.0314357 0.9953281 -0.0912891 0.0314357 0.9953281 -0.0912891 0.0314357 0.9953281 -0.0912898 0.0314253 0.9953284 -0.0912898 0.0314253 0.9953284 -0.0912898 0.0314253 0.9953284 0.3384792 0.9409739 -4.9E-6 0.3384792 0.9409739 -4.9E-6 0.3384792 0.9409739 -4.9E-6 -0.0912942 0.0314296 0.9953279 -0.0912942 0.0314296 0.9953279 -0.0912942 0.0314296 0.9953279 -0.091288 0.0314243 0.9953286 -0.091288 0.0314243 0.9953286 -0.091288 0.0314243 0.9953286 -0.0912937 0.0314226 0.9953281 -0.0912937 0.0314226 0.9953281 -0.0912937 0.0314226 0.9953281 -0.0912912 0.0314088 0.9953288 -0.0912912 0.0314088 0.9953288 -0.0912912 0.0314088 0.9953288 -0.0913039 0.031435 0.9953268 -0.0913039 0.031435 0.9953268 -0.0913039 0.031435 0.9953268 -0.0912981 0.0314288 0.9953276 -0.0912981 0.0314288 0.9953276 -0.0912981 0.0314288 0.9953276 -0.0912851 0.0314336 0.9953285 -0.0912851 0.0314336 0.9953285 -0.0912851 0.0314336 0.9953285 -0.0912737 0.0314304 0.9953297 -0.0912737 0.0314304 0.9953297 -0.0912737 0.0314304 0.9953297 -0.0913133 0.031402 0.9953271 -0.0913133 0.031402 0.9953271 -0.0913133 0.031402 0.9953271 -0.0913169 0.0314323 0.9953257 -0.0913169 0.0314323 0.9953257 -0.0913169 0.0314323 0.9953257 -0.0912951 0.0314105 0.9953284 -0.0912951 0.0314105 0.9953284 -0.0912951 0.0314105 0.9953284 -0.091312 0.0314326 0.9953261 -0.091312 0.0314326 0.9953261 -0.091312 0.0314326 0.9953261 -0.0912946 0.031428 0.9953279 -0.0912946 0.031428 0.9953279 -0.0912946 0.031428 0.9953279 0.3254728 0.9455514 0.0 0.3254728 0.9455514 0.0 0.3254728 0.9455514 0.0 -0.0913062 0.0314673 0.9953256 -0.0913062 0.0314673 0.9953256 -0.0913062 0.0314673 0.9953256 -0.0913941 0.0314682 0.9953175 -0.0913941 0.0314682 0.9953175 -0.0913941 0.0314682 0.9953175 0.3254728 0.9455514 0.0 0.3254728 0.9455514 0.0 0.3254728 0.9455514 0.0 -0.0912873 0.0314297 0.9953285 -0.0912873 0.0314297 0.9953285 -0.0912873 0.0314297 0.9953285 -0.0912875 0.0314241 0.9953286 -0.0912875 0.0314241 0.9953286 -0.0912875 0.0314241 0.9953286 -0.0913085 0.0314322 0.9953265 -0.0913085 0.0314322 0.9953265 -0.0913085 0.0314322 0.9953265 -0.0912874 0.0314295 0.9953285 -0.0912874 0.0314295 0.9953285 -0.0912874 0.0314295 0.9953285 -0.0913001 0.031404 0.9953281 -0.0913001 0.031404 0.9953281 -0.0913001 0.031404 0.9953281 -0.0912889 0.0314245 0.9953285 -0.0912889 0.0314245 0.9953285 -0.0912889 0.0314245 0.9953285 -0.0912872 0.0314301 0.9953285 -0.0912872 0.0314301 0.9953285 -0.0912872 0.0314301 0.9953285 -0.945541 0.3255029 0.0 -0.945541 0.3255029 0.0 -0.945541 0.3255029 0.0 -0.0912692 0.0314383 0.9953299 -0.0912692 0.0314383 0.9953299 -0.0912692 0.0314383 0.9953299 -0.945541 0.3255029 0.0 -0.945541 0.3255029 0.0 -0.945541 0.3255029 0.0 -0.091413 0.0310324 0.9953294 -0.091413 0.0310324 0.9953294 -0.091413 0.0310324 0.9953294 -0.0912449 0.0314141 0.9953329 -0.0912449 0.0314141 0.9953329 -0.0912449 0.0314141 0.9953329 -0.94707 0.3210273 8.0E-7 -0.94707 0.3210273 8.0E-7 -0.94707 0.3210273 8.0E-7 -0.0914328 0.031023 0.9953279 -0.0914328 0.031023 0.9953279 -0.0914328 0.031023 0.9953279 -0.9470682 0.3210326 3.0E-7 -0.9470682 0.3210326 3.0E-7 -0.9470682 0.3210326 3.0E-7 -0.0912886 0.0314269 0.9953284 -0.0912886 0.0314269 0.9953284 -0.0912886 0.0314269 0.9953284 -0.9470698 0.3210277 1.0E-6 -0.9470698 0.3210277 1.0E-6 -0.9470698 0.3210277 1.0E-6 -0.0913355 0.0314418 0.9953237 -0.0913355 0.0314418 0.9953237 -0.0913355 0.0314418 0.9953237 -0.9470651 0.3210417 0.0 -0.9470651 0.3210417 0.0 -0.9470651 0.3210417 0.0 -0.0913756 0.031456 0.9953195 -0.0913756 0.031456 0.9953195 -0.0913756 0.031456 0.9953195 -0.0912965 0.0313982 0.9953286 -0.0912965 0.0313982 0.9953286 -0.0912965 0.0313982 0.9953286 -0.9470587 0.3210605 3.5E-6 -0.9470587 0.3210605 3.5E-6 -0.9470587 0.3210605 3.5E-6 -0.0912883 0.0314503 0.9953278 -0.0912883 0.0314503 0.9953278 -0.0912883 0.0314503 0.9953278 -0.9471046 0.3209249 0.0 -0.9471046 0.3209249 0.0 -0.9471046 0.3209249 0.0 -0.0912791 0.0314247 0.9953294 -0.0912791 0.0314247 0.9953294 -0.0912791 0.0314247 0.9953294 -0.0912287 0.0315694 0.9953294 -0.0912287 0.0315694 0.9953294 -0.0912287 0.0315694 0.9953294 -0.0912682 0.0315099 0.9953277 -0.0912682 0.0315099 0.9953277 -0.0912682 0.0315099 0.9953277 -0.091165 0.0313836 0.9953411 -0.091165 0.0313836 0.9953411 -0.091165 0.0313836 0.9953411 -0.0912981 0.031428 0.9953276 -0.0912981 0.031428 0.9953276 -0.0912981 0.031428 0.9953276 0.3256063 0.9455054 0.0 0.3256063 0.9455054 0.0 0.3256063 0.9455054 0.0 -0.3254938 -0.9455442 0.0 -0.3254938 -0.9455442 0.0 -0.3254938 -0.9455442 0.0 0.3256063 0.9455054 0.0 0.3256063 0.9455054 0.0 0.3256063 0.9455054 0.0 -0.3254938 -0.9455442 0.0 -0.3254938 -0.9455442 0.0 -0.3254938 -0.9455442 0.0 -0.3256091 -0.9455045 0.0 -0.3256091 -0.9455045 0.0 -0.3256091 -0.9455045 0.0 -0.3256091 -0.9455045 0.0 -0.3256091 -0.9455045 0.0 -0.3256091 -0.9455045 0.0 0.9455435 -0.3254959 2.3E-6 0.9455435 -0.3254959 2.3E-6 0.9455435 -0.3254959 2.3E-6 0.9455845 -0.3253765 0.0 0.9455845 -0.3253765 0.0 0.9455845 -0.3253765 0.0 0.9455346 -0.3255217 0.0 0.9455346 -0.3255217 0.0 0.9455346 -0.3255217 0.0 0.9455432 -0.3254966 4.3E-6 0.9455432 -0.3254966 4.3E-6 0.9455432 -0.3254966 4.3E-6 0.3252249 0.9456367 -2.0E-7 0.3252249 0.9456367 -2.0E-7 0.3252249 0.9456367 -2.0E-7 0.3252242 0.945637 0.0 0.3252242 0.945637 0.0 0.3252242 0.945637 0.0 0.3251733 0.9456545 -1.58E-5 0.3251733 0.9456545 -1.58E-5 0.3251733 0.9456545 -1.58E-5 0.3252305 0.9456348 0.0 0.3252305 0.9456348 0.0 0.3252305 0.9456348 0.0 0.3255157 0.9455367 0.0 0.3255157 0.9455367 0.0 0.3255157 0.9455367 0.0 -0.2688152 -0.9631918 -8.97E-5 -0.2688152 -0.9631918 -8.97E-5 -0.2688152 -0.9631918 -8.97E-5 0.3255157 0.9455367 0.0 0.3255157 0.9455367 0.0 0.3255157 0.9455367 0.0 -0.2685465 -0.9632668 0.0 -0.2685465 -0.9632668 0.0 -0.2685465 -0.9632668 0.0 -0.2685212 -0.9632738 0.0 -0.2685212 -0.9632738 0.0 -0.2685212 -0.9632738 0.0 -0.2685082 -0.9632774 -6.0E-7 -0.2685082 -0.9632774 -6.0E-7 -0.2685082 -0.9632774 -6.0E-7 -0.2685536 -0.9632647 0.0 -0.2685536 -0.9632647 0.0 -0.2685536 -0.9632647 0.0 0.9460782 -0.3239386 -1.1E-6 0.9460782 -0.3239386 -1.1E-6 0.9460782 -0.3239386 -1.1E-6 0.9460777 -0.3239397 -3.0E-6 0.9460777 -0.3239397 -3.0E-6 0.9460777 -0.3239397 -3.0E-6 0.946075 -0.3239475 5.7E-6 0.946075 -0.3239475 5.7E-6 0.946075 -0.3239475 5.7E-6 0.9460629 -0.3239831 2.91E-5 0.9460629 -0.3239831 2.91E-5 0.9460629 -0.3239831 2.91E-5 0.9460789 -0.3239364 6.0E-7 0.9460789 -0.3239364 6.0E-7 0.9460789 -0.3239364 6.0E-7 0.9460868 -0.3239132 0.0 0.9460868 -0.3239132 0.0 0.9460868 -0.3239132 0.0 0.9460815 -0.3239287 0.0 0.9460815 -0.3239287 0.0 0.9460815 -0.3239287 0.0 0.9460772 -0.3239413 -2.4E-6 0.9460772 -0.3239413 -2.4E-6 0.9460772 -0.3239413 -2.4E-6 0.3254426 0.9455618 0.0 0.3254426 0.9455618 0.0 0.3254426 0.9455618 0.0 0.9460879 -0.3239101 1.62E-5 0.9460879 -0.3239101 1.62E-5 0.9460879 -0.3239101 1.62E-5 0.3254426 0.9455618 0.0 0.3254426 0.9455618 0.0 0.3254426 0.9455618 0.0 -0.9471762 0.3207136 -8.5E-6 -0.9471762 0.3207136 -8.5E-6 -0.9471762 0.3207136 -8.5E-6 -0.9471787 0.3207064 0.0 -0.9471787 0.3207064 0.0 -0.9471787 0.3207064 0.0 -0.9469789 0.3212959 0.0 -0.9469789 0.3212959 0.0 -0.9469789 0.3212959 0.0 -0.3254844 -0.9455474 0.0 -0.3254844 -0.9455474 0.0 -0.3254844 -0.9455474 0.0 -0.3254844 -0.9455474 0.0 -0.3254844 -0.9455474 0.0 -0.3254844 -0.9455474 0.0 -0.945017 0.3270212 0.0 -0.945017 0.3270212 0.0 -0.945017 0.3270212 0.0 0.3495154 0.9369306 7.93E-5 0.3495154 0.9369306 7.93E-5 0.3495154 0.9369306 7.93E-5 -0.9450405 0.3269533 8.0E-7 -0.9450405 0.3269533 8.0E-7 -0.9450405 0.3269533 8.0E-7 0.3492613 0.9370254 0.0 0.3492613 0.9370254 0.0 0.3492613 0.9370254 0.0 -0.9450437 0.3269441 1.3E-6 -0.9450437 0.3269441 1.3E-6 -0.9450437 0.3269441 1.3E-6 0.3484451 0.9373291 -2.828E-4 0.3484451 0.9373291 -2.828E-4 0.3484451 0.9373291 -2.828E-4 -0.9450408 0.3269524 7.0E-7 -0.9450408 0.3269524 7.0E-7 -0.9450408 0.3269524 7.0E-7 0.3492593 0.9370261 0.0 0.3492593 0.9370261 0.0 0.3492593 0.9370261 0.0 -0.9450403 0.3269538 5.0E-7 -0.9450403 0.3269538 5.0E-7 -0.9450403 0.3269538 5.0E-7 0.3492593 0.9370261 0.0 0.3492593 0.9370261 0.0 0.3492593 0.9370261 0.0 -0.9450498 0.3269265 0.0 -0.9450498 0.3269265 0.0 -0.9450498 0.3269265 0.0 0.0998026 -0.0343539 0.994414 0.0998026 -0.0343539 0.994414 0.0998026 -0.0343539 0.994414 0.0998059 -0.0343596 0.9944135 0.0998059 -0.0343596 0.9944135 0.0998059 -0.0343596 0.9944135 0.0998073 -0.0343612 0.9944133 0.0998073 -0.0343612 0.9944133 0.0998073 -0.0343612 0.9944133 0.0997957 -0.0343895 0.9944135 0.0997957 -0.0343895 0.9944135 0.0997957 -0.0343895 0.9944135 0.099789 -0.0343616 0.9944151 0.099789 -0.0343616 0.9944151 0.099789 -0.0343616 0.9944151 0.0997953 -0.0343477 0.994415 0.0997953 -0.0343477 0.994415 0.0997953 -0.0343477 0.994415 0.0997966 -0.0343591 0.9944144 0.0997966 -0.0343591 0.9944144 0.0997966 -0.0343591 0.9944144 -0.4251415 0.1463768 0.8932125 -0.4251415 0.1463768 0.8932125 -0.4251415 0.1463768 0.8932125 0.0998009 -0.0343551 0.9944142 0.0998009 -0.0343551 0.9944142 0.0998009 -0.0343551 0.9944142</float_array>
                    <technique_common>
                        <accessor count="540" source="#geometry0-normal-array" stride="3">
                            <param name="X" type="float"/>
                            <param name="Y" type="float"/>
                            <param name="Z" type="float"/>
                        </accessor>
                    </technique_common>
                </source>
                <source id="geometry0-texCoords">
                    <float_array id="geometry0-texCoords-array" count="0"></float_array>
                    <technique_common>
                        <accessor count="0" source="#geometry0-texCoords-array" stride="2">
                            <param name="S" type="float"/>
                            <param name="T" type="float"/>
                        </accessor>
                    </technique_common>
                </source>
                <vertices id="geometry0-vertex">
                    <input semantic="POSITION" source="#geometry0-position"/>
                </vertices>
                <triangles count="74" material="default_dc_r_0.6_g_0.6_b_0_tri">
                    <input offset="0" semantic="VERTEX" source="#geometry0-vertex"/>
                    <input offset="1" semantic="NORMAL" source="#geometry0-normal"/>
                    <p>1 0 3 1 2 2 76 3 71 4 70 5 76 6 64 7 71 8 65 9 64 10 72 11 74 12 73 13 68 14 67 15 70 16 66 17 63 18 65 19 50 20 65 24 72 25 77 26 72 30 74 31 77 32 50 36 47 37 63 38 44 45 56 46 66 47 56 54 78 55 67 56 69 57 79 58 57 59 39 60 68 61 57 62 4 63 5 64 6 65 4 66 6 67 7 68 8 69 5 70 4 71 9 72 8 73 4 74 10 129 11 130 12 131 11 132 13 133 14 134 12 135 11 136 14 137 15 141 10 142 12 143 16 153 17 154 18 155 18 159 17 160 19 161 20 165 21 166 18 167 18 171 19 172 20 173 22 216 23 217 24 218 25 222 26 223 27 224 28 225 29 226 30 227 31 231 32 232 33 233 34 234 35 235 36 236 36 237 22 238 24 239 37 240 31 241 38 242 31 243 39 244 32 245 22 246 40 247 23 248 40 249 37 250 38 251 41 252 27 253 26 254 42 255 43 256 27 257 44 258 29 259 28 260 29 261 45 262 46 263 36 264 35 265 47 266 25 267 35 268 26 269 23 273 40 274 48 275 49 276 24 277 23 278 46 282 45 283 43 284 43 285 25 286 27 287 47 288 50 289 36 290 42 291 46 292 43 293 48 294 40 295 38 296 29 297 46 298 30 299 31 300 33 301 38 302 49 306 51 307 24 308 24 312 52 313 36 314 53 315 41 316 26 317 35 321 54 322 26 323 28 327 30 328 55 329 56 333 44 334 28 335 39 339 57 340 32 341 33 342 32 343 58 344 34 348 36 349 52 350 34 354 54 355 35 356 59 357 28 358 55 359 58 360 32 361 60 362 61 363 51 364 49 365 53 366 62 367 41 368 63 513 64 514 65 515 66 516 56 517 67 518 68 519 69 520 57 521 70 522 71 523 66 524 72 525 73 526 74 527 73 528 69 529 68 530 63 531 75 532 64 533 0 534 1 535 2 536 64 537 75 538 71 539</p>
                </triangles>
                <triangles count="96" material="default_dc_r_1.0_g_1.0_b_1_tri">
                    <input offset="0" semantic="VERTEX" source="#geometry0-vertex"/>
                    <input offset="1" semantic="NORMAL" source="#geometry0-normal"/>
                    <p>133 21 134 22 130 23 135 27 134 28 133 29 136 33 134 34 135 35 102 39 101 40 93 41 137 42 130 43 132 44 101 48 94 49 93 50 137 51 133 52 130 53 156 75 170 76 165 77 170 78 166 79 165 80 162 81 171 82 156 83 171 84 170 85 156 86 103 93 104 94 105 95 106 99 103 100 105 101 100 105 103 106 106 107 99 108 100 109 106 110 117 138 138 139 134 140 138 144 139 145 134 146 136 147 117 148 134 149 136 150 119 151 117 152 97 156 107 157 108 158 108 162 109 163 110 164 109 168 111 169 110 170 97 174 108 175 110 176 96 177 107 178 97 179 140 180 139 181 138 182 80 183 81 184 82 185 140 186 138 187 141 188 81 189 83 190 84 191 83 192 85 193 84 194 82 195 81 196 84 197 86 198 80 199 82 200 116 201 142 202 141 203 112 204 113 205 114 206 142 207 140 208 141 209 113 210 115 211 114 212 143 213 142 214 116 215 118 219 144 220 116 221 144 228 143 229 116 230 87 270 86 271 82 272 87 279 82 280 88 281 116 303 117 304 118 305 117 309 119 310 118 311 145 318 146 319 147 320 148 324 147 325 142 326 147 330 146 331 142 332 148 336 142 337 143 338 149 345 146 346 145 347 150 351 146 352 149 353 89 369 87 370 90 371 110 372 111 373 120 374 87 375 88 376 90 377 110 378 120 379 121 380 121 381 120 382 103 383 120 384 104 385 103 386 91 387 90 388 92 389 91 390 89 391 90 392 93 393 94 394 92 395 92 396 90 397 93 398 151 399 152 400 146 401 151 402 146 403 150 404 153 405 152 406 151 407 154 408 152 409 153 410 95 411 96 412 97 413 113 414 122 415 123 416 95 417 97 418 98 419 122 420 124 421 123 422 125 423 113 424 123 425 125 426 126 427 113 428 126 429 115 430 113 431 152 432 155 433 156 434 152 435 157 436 155 437 155 438 158 439 156 440 158 441 159 442 156 443 159 444 160 445 156 446 154 447 161 448 152 449 160 450 162 451 156 452 161 453 163 454 152 455 99 456 95 457 100 458 152 459 163 460 157 461 95 462 98 463 100 464 127 465 128 466 124 467 127 468 124 469 122 470 129 471 128 472 127 473 84 474 85 475 101 476 84 477 101 478 102 479 164 480 165 481 166 482 112 483 130 484 131 485 167 486 123 487 165 488 130 489 128 490 129 491 164 492 168 493 165 494 131 495 130 496 129 497 169 498 123 499 167 500 132 501 130 502 112 503 168 504 167 505 165 506 114 507 132 508 112 509 125 510 123 511 169 512</p>
                </triangles>
                <triangles count="10" material="default_dc_r_0.9_g_0.7_b_0_tri">
                    <input offset="0" semantic="VERTEX" source="#geometry0-vertex"/>
                    <input offset="1" semantic="NORMAL" source="#geometry0-normal"/>
                    <p>172 87 173 88 174 89 175 90 176 91 177 92 178 96 176 97 175 98 176 102 172 103 174 104 172 111 179 112 173 113 179 114 180 115 173 116 181 117 178 118 175 119 173 120 182 121 174 122 177 123 183 124 175 125 176 126 174 127 177 128</p>
                </triangles>
            </mesh>
        </geometry>
    </library_geometries>
    <library_visual_scenes>
        <visual_scene id="Building_FME_1abdf703-8edd-4ec5-9115-e8b6b69a4a56">
            <node>
                <instance_geometry url="#geometry0">
                    <bind_material>
                        <technique_common>
                            <instance_material symbol="default_dc_r_0.6_g_0.6_b_0_tri" target="#default_dc_r_0.6_g_0.6_b_0_mat"/>
                            <instance_material symbol="default_dc_r_1.0_g_1.0_b_1_tri" target="#default_dc_r_1.0_g_1.0_b_1_mat"/>
                            <instance_material symbol="default_dc_r_0.9_g_0.7_b_0_tri" target="#default_dc_r_0.9_g_0.7_b_0_mat"/>
                        </technique_common>
                    </bind_material>
                </instance_geometry>
            </node>
        </visual_scene>
    </library_visual_scenes>
    <scene>
        <instance_visual_scene url="#Building_FME_1abdf703-8edd-4ec5-9115-e8b6b69a4a56"/>
    </scene>
</COLLADA>
