<?xml version="1.0" encoding="UTF-8" standalone="yes"?>
<COLLADA xmlns="http://www.collada.org/2005/11/COLLADASchema" version="1.4.1">
    <asset>
        <contributor>
            <authoring_tool>3D City Database Importer/Exporter, version 5.5.1; Chair of Geoinformatics, Technical University of Munich</authoring_tool>
        </contributor>
        <created>2026-01-16T16:51:34.250</created>
        <modified>2026-01-16T16:51:34.250</modified>
        <unit meter="1.0" name="meters"/>
        <up_axis>Z_UP</up_axis>
    </asset>
    <library_materials>
        <material id="default_ai_0.2_sh_0.2_tr_0.0_dc_r_0.8_g_0.8_b_0.8_sc_r_1.0_g_1.0_b_1.0_ec_r_0.0_g_0.0_b_0_mat">
            <instance_effect url="#default_ai_0.2_sh_0.2_tr_0.0_dc_r_0.8_g_0.8_b_0.8_sc_r_1.0_g_1.0_b_1.0_ec_r_0.0_g_0.0_b_0_eff"/>
        </material>
        <material id="default_ai_0.2_sh_0.2_tr_0.0_dc_r_1.0_g_0.2_b_0.2_sc_r_1.0_g_1.0_b_1.0_ec_r_0.0_g_0.0_b_0_mat">
            <instance_effect url="#default_ai_0.2_sh_0.2_tr_0.0_dc_r_1.0_g_0.2_b_0.2_sc_r_1.0_g_1.0_b_1.0_ec_r_0.0_g_0.0_b_0_eff"/>
        </material>
    </library_materials>
    <library_effects>
        <effect id="default_ai_0.2_sh_0.2_tr_0.0_dc_r_0.8_g_0.8_b_0.8_sc_r_1.0_g_1.0_b_1.0_ec_r_0.0_g_0.0_b_0_eff">
            <profile_COMMON>
                <technique sid="COMMON">
                    <lambert>
                        <emission>
                            <color>0.0 0.0 0.0 1.0</color>
                        </emission>
                        <diffuse>
                            <color>0.8 0.8 0.8 1.0</color>
                        </diffuse>
                        <reflective>
                            <color>1.0 1.0 1.0 1.0</color>
                        </reflective>
                        <reflectivity>
                            <float>0.2</float>
                        </reflectivity>
                        <transparent opaque="A_ONE">
                            <color>1.0 1.0 1.0 1.0</color>
                        </transparent>
                        <transparency>
                            <float>1.0</float>
                        </transparency>
                    </lambert>
                </technique>
                <extra>
                    <technique profile="GOOGLEEARTH">
                        <double_sided>1</double_sided>
                    </technique>
                </extra>
            </profile_COMMON>
        </effect>
        <effect id="default_ai_0.2_sh_0.2_tr_0.0_dc_r_1.0_g_0.2_b_0.2_sc_r_1.0_g_1.0_b_1.0_ec_r_0.0_g_0.0_b_0_eff">
            <profile_COMMON>
                <technique sid="COMMON">
                    <lambert>
                        <emission>
                            <color>0.0 0.0 0.0 1.0</color>
                        </emission>
                        <diffuse>
                            <color>1.0 0.2 0.2 1.0</color>
                        </diffuse>
                        <reflective>
                            <color>1.0 1.0 1.0 1.0</color>
                        </reflective>
                        <reflectivity>
                            <float>0.2</float>
                        </reflectivity>
                        <transparent opaque="A_ONE">
                            <color>1.0 1.0 1.0 1.0</color>
                        </transparent>
                        <transparency>
                            <float>1.0</float>
                        </transparency>
                    </lambert>
                </technique>
                <extra>
                    <technique profile="GOOGLEEARTH">
                        <double_sided>1</double_sided>
                    </technique>
                </extra>
            </profile_COMMON>
        </effect>
    </library_effects>
    <library_geometries>
        <geometry id="geometry0">
            <mesh>
                <source id="geometry0-position">
                    <float_array id="geometry0-position-array" count="93">-1.9207159 3.0512543 5.0000606 -3.4806829 8.1322479 6.0000604 -5.1152044 4.4814606 5.0000587 -0.2861944 6.7020569 6.0000604 6.05E-5 -3.05E-5 3.8555617 -2.7380071 1.2258759 3.8555617 2.4518732 5.4761353 6.0000595 4.0863947 9.1269379 4.230657 -1.8461004 11.78302 4.230659 -2.7380727 1.2258612 3.8555628 2.55E-5 -4.51E-5 6.02E-5 2.55E-5 -4.51E-5 3.8555628 -2.7380727 1.2258612 6.13E-5 -1.9207967 3.0512549 4.5703951 -1.9208119 3.0512549 6.12E-5 -5.1152394 4.4814765 6.1E-5 -1.9208119 3.0512625 5.0000612 -5.1152547 4.4814765 5.0000593 2.4518382 5.4761359 6.0000602 4.086375 9.1269156 6.19E-5 4.086375 9.1269156 4.2306582 -1.8461659 11.7830588 6.24E-5 -3.4807027 8.1322715 6.0000612 -1.8461659 11.7830512 4.2306606 -0.2862599 6.7020423 6.0000612 4.0863953 9.1269684 1.5E-6 -1.9208069 3.0513306 1.2E-6 -5.1152344 4.4815674 1.6E-6 0.0 0.0 0.0 -2.7380676 1.2259064 1.3E-6 -1.8461304 11.7831116 2.2E-6</float_array>
                    <technique_common>
                        <accessor count="31" source="#geometry0-position-array" stride="3">
                            <param name="X" type="float"/>
                            <param name="Y" type="float"/>
                            <param name="Z" type="float"/>
                        </accessor>
                    </technique_common>
                </source>
                <source id="geometry0-normal">
                    <float_array id="geometry0-normal-array" count="234">-1.0E-7 1.0E-7 -1.0 -1.0E-7 1.0E-7 -1.0 -1.0E-7 1.0E-7 -1.0 -2.0E-7 3.0E-7 -1.0 -2.0E-7 3.0E-7 -1.0 -2.0E-7 3.0E-7 -1.0 -4.0E-7 1.0E-7 -1.0 -4.0E-7 1.0E-7 -1.0 -4.0E-7 1.0E-7 -1.0 -1.0E-7 1.0E-7 -1.0 -1.0E-7 1.0E-7 -1.0 -1.0E-7 1.0E-7 -1.0 -0.4086329 -0.9126989 -1.3E-6 -0.4086329 -0.9126989 -1.3E-6 -0.4086329 -0.9126989 -1.3E-6 -0.4086363 -0.9126973 1.4E-6 -0.4086363 -0.9126973 1.4E-6 -0.4086363 -0.9126973 1.4E-6 -0.0991073 -0.2213635 0.9701422 -0.0991073 -0.2213635 0.9701422 -0.0991073 -0.2213635 0.9701422 -0.0991055 -0.2213629 0.9701425 -0.0991055 -0.2213629 0.9701425 -0.0991055 -0.2213629 0.9701425 0.9126976 -0.4086358 0.0 0.9126976 -0.4086358 0.0 0.9126976 -0.4086358 0.0 0.9126976 -0.4086356 -2.0E-7 0.9126976 -0.4086356 -2.0E-7 0.9126976 -0.4086356 -2.0E-7 0.9126977 -0.4086353 0.0 0.9126977 -0.4086353 0.0 0.9126977 -0.4086353 0.0 -0.1375335 -0.3071818 0.9416602 -0.1375335 -0.3071818 0.9416602 -0.1375335 -0.3071818 0.9416602 -0.1375349 -0.3071817 0.94166 -0.1375349 -0.3071817 0.94166 -0.1375349 -0.3071817 0.94166 -0.9126982 0.4086344 -2.8E-6 -0.9126982 0.4086344 -2.8E-6 -0.9126982 0.4086344 -2.8E-6 -0.9126971 0.4086369 1.5E-6 -0.9126971 0.4086369 1.5E-6 -0.9126971 0.4086369 1.5E-6 -0.9126976 0.4086357 7.0E-7 -0.9126976 0.4086357 7.0E-7 -0.9126976 0.4086357 7.0E-7 0.1653075 0.3692222 0.9145209 0.1653075 0.3692222 0.9145209 0.1653075 0.3692222 0.9145209 0.165306 0.3692291 0.9145183 0.165306 0.3692291 0.9145183 0.165306 0.3692291 0.9145183 0.1653121 0.36922 0.9145209 0.1653121 0.36922 0.9145209 0.1653121 0.36922 0.9145209 -0.4086348 -0.912698 0.0 -0.4086348 -0.912698 0.0 -0.4086348 -0.912698 0.0 -0.4086348 -0.912698 0.0 -0.4086348 -0.912698 0.0 -0.4086348 -0.912698 0.0 0.9126922 -0.4086477 3.97E-5 0.9126922 -0.4086477 3.97E-5 0.9126922 -0.4086477 3.97E-5 0.4086367 0.9126971 0.0 0.4086367 0.9126971 0.0 0.4086367 0.9126971 0.0 0.4086359 0.9126976 1.6E-6 0.4086359 0.9126976 1.6E-6 0.4086359 0.9126976 1.6E-6 -0.9126995 0.4086316 3.0E-6 -0.9126995 0.4086316 3.0E-6 -0.9126995 0.4086316 3.0E-6 -0.9126966 0.4086379 0.0 -0.9126966 0.4086379 0.0 -0.9126966 0.4086379 0.0</float_array>
                    <technique_common>
                        <accessor count="78" source="#geometry0-normal-array" stride="3">
                            <param name="X" type="float"/>
                            <param name="Y" type="float"/>
                            <param name="Z" type="float"/>
                        </accessor>
                    </technique_common>
                </source>
                <source id="geometry0-texCoords">
                    <float_array id="geometry0-texCoords-array" count="0"></float_array>
                    <technique_common>
                        <accessor count="0" source="#geometry0-texCoords-array" stride="2">
                            <param name="S" type="float"/>
                            <param name="T" type="float"/>
                        </accessor>
                    </technique_common>
                </source>
                <vertices id="geometry0-vertex">
                    <input semantic="POSITION" source="#geometry0-position"/>
                </vertices>
                <triangles count="19" material="default_ai_0.2_sh_0.2_tr_0.0_dc_r_0.8_g_0.8_b_0.8_sc_r_1.0_g_1.0_b_1.0_ec_r_0.0_g_0.0_b_0_tri">
                    <input offset="0" semantic="VERTEX" source="#geometry0-vertex"/>
                    <input offset="1" semantic="NORMAL" source="#geometry0-normal"/>
                    <p>25 0 26 1 27 2 28 3 26 4 25 5 29 6 26 7 28 8 30 9 25 10 27 11 15 12 16 13 17 14 14 15 16 16 15 17 10 24 18 25 11 26 19 27 18 28 10 29 20 30 18 31 19 32 17 39 21 40 15 41 22 42 21 43 17 44 23 45 21 46 22 47 9 57 10 58 11 59 12 60 10 61 9 62 13 63 24 64 16 65 21 66 20 67 19 68 23 69 20 70 21 71 12 72 13 73 14 74 9 75 13 76 12 77</p>
                </triangles>
                <triangles count="7" material="default_ai_0.2_sh_0.2_tr_0.0_dc_r_1.0_g_0.2_b_0.2_sc_r_1.0_g_1.0_b_1.0_ec_r_0.0_g_0.0_b_0_tri">
                    <input offset="0" semantic="VERTEX" source="#geometry0-vertex"/>
                    <input offset="1" semantic="NORMAL" source="#geometry0-normal"/>
                    <p>0 18 1 19 2 20 3 21 1 22 0 23 4 33 3 34 5 35 6 36 3 37 4 38 1 48 7 49 8 50 3 51 7 52 1 53 6 54 7 55 3 56</p>
                </triangles>
            </mesh>
        </geometry>
    </library_geometries>
    <library_visual_scenes>
        <visual_scene id="Building_pb-9635e7e9-7f36-11f0-89eb-9c7bef4dcf4c">
            <node>
                <instance_geometry url="#geometry0">
                    <bind_material>
                        <technique_common>
                            <instance_material symbol="default_ai_0.2_sh_0.2_tr_0.0_dc_r_0.8_g_0.8_b_0.8_sc_r_1.0_g_1.0_b_1.0_ec_r_0.0_g_0.0_b_0_tri" target="#default_ai_0.2_sh_0.2_tr_0.0_dc_r_0.8_g_0.8_b_0.8_sc_r_1.0_g_1.0_b_1.0_ec_r_0.0_g_0.0_b_0_mat"/>
                            <instance_material symbol="default_ai_0.2_sh_0.2_tr_0.0_dc_r_1.0_g_0.2_b_0.2_sc_r_1.0_g_1.0_b_1.0_ec_r_0.0_g_0.0_b_0_tri" target="#default_ai_0.2_sh_0.2_tr_0.0_dc_r_1.0_g_0.2_b_0.2_sc_r_1.0_g_1.0_b_1.0_ec_r_0.0_g_0.0_b_0_mat"/>
                        </technique_common>
                    </bind_material>
                </instance_geometry>
            </node>
        </visual_scene>
    </library_visual_scenes>
    <scene>
        <instance_visual_scene url="#Building_pb-9635e7e9-7f36-11f0-89eb-9c7bef4dcf4c"/>
    </scene>
</COLLADA>
