<?xml version="1.0" encoding="UTF-8" standalone="yes"?>
<COLLADA xmlns="http://www.collada.org/2005/11/COLLADASchema" version="1.4.1">
    <asset>
        <contributor>
            <authoring_tool>3D City Database Importer/Exporter, version 5.5.1; Chair of Geoinformatics, Technical University of Munich</authoring_tool>
        </contributor>
        <created>2026-01-16T16:51:34.283</created>
        <modified>2026-01-16T16:51:34.283</modified>
        <unit meter="1.0" name="meters"/>
        <up_axis>Z_UP</up_axis>
    </asset>
    <library_materials>
        <material id="default_dc_r_1.0_g_1.0_b_1_mat">
            <instance_effect url="#default_dc_r_1.0_g_1.0_b_1_eff"/>
        </material>
        <material id="default_dc_r_0.6_g_0.6_b_0_mat">
            <instance_effect url="#default_dc_r_0.6_g_0.6_b_0_eff"/>
        </material>
        <material id="default_dc_r_0.9_g_0.7_b_0_mat">
            <instance_effect url="#default_dc_r_0.9_g_0.7_b_0_eff"/>
        </material>
    </library_materials>
    <library_effects>
        <effect id="default_dc_r_1.0_g_1.0_b_1_eff">
            <profile_COMMON>
                <technique sid="COMMON">
                    <lambert>
                        <emission>
                            <color>0.0 0.0 0.0 1.0</color>
                        </emission>
                        <diffuse>
                            <color>1.0 1.0 1.0 1.0</color>
                        </diffuse>
                    </lambert>
                </technique>
                <extra>
                    <technique profile="GOOGLEEARTH">
                        <double_sided>1</double_sided>
                    </technique>
                </extra>
            </profile_COMMON>
        </effect>
        <effect id="default_dc_r_0.6_g_0.6_b_0_eff">
            <profile_COMMON>
                <technique sid="COMMON">
                    <lambert>
                        <emission>
                            <color>0.0 0.0 0.0 1.0</color>
                        </emission>
                        <diffuse>
                            <color>0.6 0.6 0.6 1.0</color>
                        </diffuse>
                    </lambert>
                </technique>
                <extra>
                    <technique profile="GOOGLEEARTH">
                        <double_sided>1</double_sided>
                    </technique>
                </extra>
            </profile_COMMON>
        </effect>
        <effect id="default_dc_r_0.9_g_0.7_b_0_eff">
            <profile_COMMON>
                <technique sid="COMMON">
                    <lambert>
                        <emission>
                            <color>0.0 0.0 0.0 1.0</color>
                        </emission>
                        <diffuse>
                            <color>0.9 0.7 0.4 1.0</color>
                        </diffuse>
                    </lambert>
                </technique>
                <extra>
                    <technique profile="GOOGLEEARTH">
                        <double_sided>1</double_sided>
                    </technique>
                </extra>
            </profile_COMMON>
        </effect>
    </library_effects>
    <library_geometries>
        <geometry id="geometry0">
            <mesh>
                <source id="geometry0-position">
                    <float_array id="geometry0-position-array" count="468">0.1328 0.1292 2.802724 0.0686 -0.028 2.805924 4.8225 -1.7846 2.802724 0.1878 0.4574 2.767824 0.3445 0.0428 2.633124 0.4045 1.7591 3.301824 4.9508 -1.4702 2.774024 0.1328 0.1292 2.633124 0.1362 0.3317 2.711524 0.1618 0.4679 2.767824 6.179 1.5396 4.122724 4.8225 -1.7846 2.633124 1.1552 3.5897 4.122724 -0.0843 0.5671 2.767324 0.0 0.0 2.562724 0.0686 -0.028 2.562724 7.6631 3.1136 3.290024 5.2098 5.9622 2.584324 5.302 -1.6135 5.463924 10.2473 2.0542 3.291924 9.616 2.313 3.291424 7.6642 3.1162 3.288824 8.004 3.944 2.919624 4.9508 -1.4702 5.463924 14.1382 0.459 3.294624 17.5117 -6.5962 5.463924 3.1261 6.8218 2.580824 2.5741 7.0495 2.579824 15.4744 -0.0888 3.295624 8.3078 4.6842 2.589624 13.7043 -15.9261 5.463924 11.0259 -11.0721 3.305024 12.198 -15.4125 4.668824 11.5758 -9.7327 3.306624 10.9167 -11.3379 3.304724 9.6697 -14.3753 3.301224 13.4013 -15.9062 5.319724 13.6678 -16.0155 5.463924 16.1685 0.4684 3.505724 15.8034 0.5631 3.318624 15.5264 -0.1101 3.317624 19.7886 -1.0168 5.463924 15.8228 0.6102 3.318724 15.4744 -0.0888 3.289424 21.7111 -1.8054 4.434224 14.137 -16.208 5.212624 18.3966 -15.7598 3.342124 23.6305 -3.0128 3.327424 16.6564 -17.2415 3.863124 15.6952 -16.8472 4.378024 17.7626 -17.3037 3.343924 17.625 -17.6389 3.344324 23.7781 -2.6534 3.327024 4.7583 -1.9418 5.250424 4.1199 -4.7296 4.067424 8.2302 -6.4125 4.065224 12.2613 -8.063 4.063124 3.7072 -4.5596 4.068024 4.8225 -1.7846 5.321624 3.6925 -4.5535 4.068024 4.7583 -1.9418 2.805924 3.4606 -4.458 2.859924 -0.9909 -2.6242 2.859624 3.6925 -4.5535 2.859924 6.179 1.5396 4.1227 4.9508 -1.4702 2.774 4.9508 -1.4702 5.4639 15.4744 -0.0888 3.2956 17.5117 -6.5962 5.4639 15.4744 -0.0888 3.2895 4.8225 -1.7846 2.8027 4.7583 -1.9418 2.8059 4.7583 -1.9418 5.2504 4.8225 -1.7846 5.3216 4.8225 -1.7846 2.6331 0.3445 0.0428 2.6331 0.1328 0.1292 2.6331 0.1328 0.1292 2.8027 0.0686 -0.028 2.5627 0.0686 -0.028 2.8059 0.0 0.0 2.5627 0.0 0.0 0.0 0.0686 -0.028 0.0 0.1878 0.4574 0.0 0.1362 0.3317 2.7115 0.1878 0.4574 2.7678 0.1618 0.4679 2.7678 -0.0843 0.5671 2.7673 -0.0843 0.5671 0.0 0.4045 1.7591 3.3018 2.5741 7.0495 0.0 1.1552 3.5897 4.1227 2.5741 7.0495 2.5799 5.2098 5.9622 2.5843 8.3078 4.6842 0.0 3.1261 6.8218 2.5808 8.3078 4.6842 2.5896 7.6642 3.1162 3.2889 7.6631 3.1136 3.29 7.6631 3.1136 0.0 8.004 3.944 2.9197 15.5264 -0.1101 0.0 14.1382 0.459 3.2947 10.2473 2.0542 3.2919 9.616 2.313 3.2914 15.5264 -0.1101 3.3176 15.8034 0.5631 3.3187 15.8228 0.6102 0.0 15.8228 0.6102 3.3187 16.1685 0.4684 3.5057 21.7111 -1.8054 4.4342 23.7781 -2.6534 0.0 19.7886 -1.0168 5.4639 23.7781 -2.6534 3.327 18.3966 -15.7598 3.3421 17.625 -17.6389 0.0 23.6305 -3.0128 3.3274 17.7626 -17.3037 3.3439 17.625 -17.6389 3.3443 15.6952 -16.8472 4.378 12.198 -15.4125 4.6688 9.6697 -14.3753 0.0 14.137 -16.208 5.2126 13.4013 -15.9062 5.3197 9.6697 -14.3753 3.3012 16.6564 -17.2415 3.8631 13.6678 -16.0155 5.4639 11.5758 -9.7327 3.3066 12.2613 -8.063 0.0 11.0259 -11.0721 3.3051 10.9167 -11.3379 3.3047 12.2613 -8.063 4.0631 8.2302 -6.4125 4.0652 4.1199 -4.7296 4.0674 4.1199 -4.7296 0.0 3.6925 -4.5535 2.8599 3.6925 -4.5535 4.068 -0.9909 -2.6242 0.0 -0.9909 -2.6242 2.8596 3.4606 -4.458 2.8599 3.7072 -4.5596 4.068 15.5264 -0.1101 3.6E-5 23.7781 -2.6534 3.6E-5 12.2613 -8.063 3.6E-5 0.1878 0.4574 3.6E-5 7.6631 3.1136 3.6E-5 4.1199 -4.7296 3.6E-5 2.5741 7.0495 3.6E-5 0.0686 -0.028 3.6E-5 15.8228 0.6102 3.6E-5 0.0 0.0 3.6E-5 8.3078 4.6842 3.6E-5 17.625 -17.6389 3.6E-5 -0.0843 0.5671 3.6E-5 9.6697 -14.3753 3.6E-5 -0.9909 -2.6242 3.6E-5</float_array>
                    <technique_common>
                        <accessor count="156" source="#geometry0-position-array" stride="3">
                            <param name="X" type="float"/>
                            <param name="Y" type="float"/>
                            <param name="Z" type="float"/>
                        </accessor>
                    </technique_common>
                </source>
                <source id="geometry0-normal">
                    <float_array id="geometry0-normal-array" count="1398">0.9250559 -0.3798312 -9.8E-6 0.9250559 -0.3798312 -9.8E-6 0.9250559 -0.3798312 -9.8E-6 0.9250575 -0.3798273 8.1E-6 0.9250575 -0.3798273 8.1E-6 0.9250575 -0.3798273 8.1E-6 0.9250897 -0.3797488 0.0 0.9250897 -0.3797488 0.0 0.9250897 -0.3797488 0.0 0.9250311 -0.3798914 0.0 0.9250311 -0.3798914 0.0 0.9250311 -0.3798914 0.0 0.9250411 -0.3798672 1.39E-5 0.9250411 -0.3798672 1.39E-5 0.9250411 -0.3798672 1.39E-5 -0.3795451 -0.9251732 3.2E-6 -0.3795451 -0.9251732 3.2E-6 -0.3795451 -0.9251732 3.2E-6 -0.3795452 -0.9251732 3.1E-6 -0.3795452 -0.9251732 3.1E-6 -0.3795452 -0.9251732 3.1E-6 -0.925772 0.3780825 0.0 -0.925772 0.3780825 0.0 -0.925772 0.3780825 0.0 -0.3795399 -0.9251754 -9.0E-5 -0.3795399 -0.9251754 -9.0E-5 -0.3795399 -0.9251754 -9.0E-5 -0.925772 0.3780825 0.0 -0.925772 0.3780825 0.0 -0.925772 0.3780825 0.0 -0.3795403 -0.9251753 0.0 -0.3795403 -0.9251753 0.0 -0.3795403 -0.9251753 0.0 -0.3795775 -0.9251599 0.0 -0.3795775 -0.9251599 0.0 -0.3795775 -0.9251599 0.0 -0.3795166 -0.9251849 1.78E-5 -0.3795166 -0.9251849 1.78E-5 -0.3795166 -0.9251849 1.78E-5 -0.3795128 -0.9251865 1.27E-4 -0.3795128 -0.9251865 1.27E-4 -0.3795128 -0.9251865 1.27E-4 -0.379549 -0.9251716 -5.19E-5 -0.379549 -0.9251716 -5.19E-5 -0.379549 -0.9251716 -5.19E-5 -0.377897 -0.9258476 0.0 -0.377897 -0.9258476 0.0 -0.377897 -0.9258476 0.0 -0.4143823 0.1691769 0.8942407 -0.4143823 0.1691769 0.8942407 -0.4143823 0.1691769 0.8942407 -0.377897 -0.9258476 0.0 -0.377897 -0.9258476 0.0 -0.377897 -0.9258476 0.0 -0.4143445 0.1691263 0.8942677 -0.4143445 0.1691263 0.8942677 -0.4143445 0.1691263 0.8942677 -0.4144844 0.168822 0.8942605 -0.4144844 0.168822 0.8942605 -0.4144844 0.168822 0.8942605 -0.4143528 0.1690935 0.8942702 -0.4143528 0.1690935 0.8942702 -0.4143528 0.1690935 0.8942702 -0.4156687 0.1685241 0.8937668 -0.4156687 0.1685241 0.8937668 -0.4156687 0.1685241 0.8937668 -0.925063 0.3798138 0.0 -0.925063 0.3798138 0.0 -0.925063 0.3798138 0.0 -0.9250538 0.3798361 4.7E-6 -0.9250538 0.3798361 4.7E-6 -0.9250538 0.3798361 4.7E-6 -0.9250891 0.3797503 0.0 -0.9250891 0.3797503 0.0 -0.9250891 0.3797503 0.0 -0.9250709 0.3797945 2.1E-6 -0.9250709 0.3797945 2.1E-6 -0.9250709 0.3797945 2.1E-6 -0.9250688 0.3797995 -1.26E-5 -0.9250688 0.3797995 -1.26E-5 -0.9250688 0.3797995 -1.26E-5 -0.3738585 -0.9274858 0.0 -0.3738585 -0.9274858 0.0 -0.3738585 -0.9274858 0.0 -0.9249815 0.3800121 2.336E-4 -0.9249815 0.3800121 2.336E-4 -0.9249815 0.3800121 2.336E-4 -0.3739163 -0.9274625 6.0E-6 -0.3739163 -0.9274625 6.0E-6 -0.3739163 -0.9274625 6.0E-6 -0.9250723 0.379791 0.0 -0.9250723 0.379791 0.0 -0.9250723 0.379791 0.0 0.4110971 -0.1677649 0.8960213 0.4110971 -0.1677649 0.8960213 0.4110971 -0.1677649 0.8960213 -0.3744633 -0.9272417 0.0 -0.3744633 -0.9272417 0.0 -0.3744633 -0.9272417 0.0 -0.9250736 0.3797878 0.0 -0.9250736 0.3797878 0.0 -0.9250736 0.3797878 0.0 0.411114 -0.1677222 0.8960215 0.411114 -0.1677222 0.8960215 0.411114 -0.1677222 0.8960215 0.4111221 -0.1677903 0.896005 0.4111221 -0.1677903 0.896005 0.4111221 -0.1677903 0.896005 0.0 0.0 -1.0 0.0 0.0 -1.0 0.0 0.0 -1.0 0.4111338 -0.1678078 0.8959964 0.4111338 -0.1678078 0.8959964 0.4111338 -0.1678078 0.8959964 0.0 0.0 -1.0 0.0 0.0 -1.0 0.0 0.0 -1.0 0.4111143 -0.1677386 0.8960183 0.4111143 -0.1677386 0.8960183 0.4111143 -0.1677386 0.8960183 0.0 0.0 -1.0 0.0 0.0 -1.0 0.0 0.0 -1.0 0.4111134 -0.1677786 0.8960112 0.4111134 -0.1677786 0.8960112 0.4111134 -0.1677786 0.8960112 0.0 0.0 -1.0 0.0 0.0 -1.0 0.0 0.0 -1.0 0.4111231 -0.1676964 0.8960222 0.4111231 -0.1676964 0.8960222 0.4111231 -0.1676964 0.8960222 0.0 0.0 -1.0 0.0 0.0 -1.0 0.0 0.0 -1.0 0.4110526 -0.1678246 0.8960305 0.4110526 -0.1678246 0.8960305 0.4110526 -0.1678246 0.8960305 0.0 0.0 -1.0 0.0 0.0 -1.0 0.0 0.0 -1.0 0.4111125 -0.1677689 0.8960134 0.4111125 -0.1677689 0.8960134 0.4111125 -0.1677689 0.8960134 0.0 0.0 -1.0 0.0 0.0 -1.0 0.0 0.0 -1.0 0.4111121 -0.167769 0.8960136 0.4111121 -0.167769 0.8960136 0.4111121 -0.167769 0.8960136 0.0 0.0 -1.0 0.0 0.0 -1.0 0.0 0.0 -1.0 0.4110977 -0.1678323 0.8960084 0.4110977 -0.1678323 0.8960084 0.4110977 -0.1678323 0.8960084 0.0 0.0 -1.0 0.0 0.0 -1.0 0.0 0.0 -1.0 0.0 0.0 -1.0 0.0 0.0 -1.0 0.0 0.0 -1.0 0.0 0.0 -1.0 0.0 0.0 -1.0 0.0 0.0 -1.0 0.0 0.0 -1.0 0.0 0.0 -1.0 0.0 0.0 -1.0 0.0 0.0 -1.0 0.0 0.0 -1.0 0.0 0.0 -1.0 -0.925221 0.3794286 -9.3E-6 -0.925221 0.3794286 -9.3E-6 -0.925221 0.3794286 -9.3E-6 -0.9252301 0.3794065 0.0 -0.9252301 0.3794065 0.0 -0.9252301 0.3794065 0.0 -0.9252223 0.3794256 -1.49E-5 -0.9252223 0.3794256 -1.49E-5 -0.9252223 0.3794256 -1.49E-5 -0.3789055 -0.9254354 0.0 -0.3789055 -0.9254354 0.0 -0.3789055 -0.9254354 0.0 -0.925216 0.3794408 0.0 -0.925216 0.3794408 0.0 -0.925216 0.3794408 0.0 -0.3789081 -0.9254343 3.1E-6 -0.3789081 -0.9254343 3.1E-6 -0.3789081 -0.9254343 3.1E-6 -0.3789108 -0.9254332 0.0 -0.3789108 -0.9254332 0.0 -0.3789108 -0.9254332 0.0 0.0071193 0.0174455 0.9998224 0.0071193 0.0174455 0.9998224 0.0071193 0.0174455 0.9998224 -0.1460325 -0.35792 0.9222623 -0.1460325 -0.35792 0.9222623 -0.1460325 -0.35792 0.9222623 -0.146066 -0.3579178 0.9222578 -0.146066 -0.3579178 0.9222578 -0.146066 -0.3579178 0.9222578 0.3813514 0.9244301 1.9E-6 0.3813514 0.9244301 1.9E-6 0.3813514 0.9244301 1.9E-6 -0.1460488 -0.3579137 0.9222621 -0.1460488 -0.3579137 0.9222621 -0.1460488 -0.3579137 0.9222621 0.3813305 0.9244387 0.0 0.3813305 0.9244387 0.0 0.3813305 0.9244387 0.0 -0.1460876 -0.357906 0.922259 -0.1460876 -0.357906 0.922259 -0.1460876 -0.357906 0.922259 0.3813501 0.9244307 0.0 0.3813501 0.9244307 0.0 0.3813501 0.9244307 0.0 -0.1458988 -0.3581078 0.9222106 -0.1458988 -0.3581078 0.9222106 -0.1458988 -0.3581078 0.9222106 0.3813589 0.924427 -7.1E-6 0.3813589 0.924427 -7.1E-6 0.3813589 0.924427 -7.1E-6 -0.1481648 -0.3570688 0.9222521 -0.1481648 -0.3570688 0.9222521 -0.1481648 -0.3570688 0.9222521 -0.1460782 -0.3578845 0.9222689 -0.1460782 -0.3578845 0.9222689 -0.1460782 -0.3578845 0.9222689 -0.1460142 -0.3578519 0.9222916 -0.1460142 -0.3578519 0.9222916 -0.1460142 -0.3578519 0.9222916 -0.1460658 -0.3579223 0.9222562 -0.1460658 -0.3579223 0.9222562 -0.1460658 -0.3579223 0.9222562 -0.9258726 0.3778361 0.0 -0.9258726 0.3778361 0.0 -0.9258726 0.3778361 0.0 -0.9258726 0.3778362 0.0 -0.9258726 0.3778362 0.0 -0.9258726 0.3778362 0.0 0.9209568 -0.3896648 0.0 0.9209568 -0.3896648 0.0 0.9209568 -0.3896648 0.0 0.9250958 -0.3797337 0.0 0.9250958 -0.3797337 0.0 0.9250958 -0.3797337 0.0 0.9251086 -0.3797026 -2.21E-5 0.9251086 -0.3797026 -2.21E-5 0.9251086 -0.3797026 -2.21E-5 0.9250927 -0.3797413 -9.2E-6 0.9250927 -0.3797413 -9.2E-6 0.9250927 -0.3797413 -9.2E-6 -0.9258693 0.377844 0.0 -0.9258693 0.377844 0.0 -0.9258693 0.377844 0.0 -0.9258693 0.377844 0.0 -0.9258693 0.377844 0.0 -0.9258693 0.377844 0.0 -0.9258693 0.3778439 0.0 -0.9258693 0.3778439 0.0 -0.9258693 0.3778439 0.0 -0.1447878 -0.3548116 0.9236585 -0.1447878 -0.3548116 0.9236585 -0.1447878 -0.3548116 0.9236585 -0.1447957 -0.354811 0.9236576 -0.1447957 -0.354811 0.9236576 -0.1447957 -0.354811 0.9236576 -0.1449317 -0.3551162 0.923519 -0.1449317 -0.3551162 0.923519 -0.1449317 -0.3551162 0.923519 -0.143401 -0.3550878 0.9237688 -0.143401 -0.3550878 0.9237688 -0.143401 -0.3550878 0.9237688 -0.1441199 -0.3546174 0.9238376 -0.1441199 -0.3546174 0.9238376 -0.1441199 -0.3546174 0.9238376 -0.1447938 -0.3548086 0.9236588 -0.1447938 -0.3548086 0.9236588 -0.1447938 -0.3548086 0.9236588 -0.1448058 -0.3548433 0.9236436 -0.1448058 -0.3548433 0.9236436 -0.1448058 -0.3548433 0.9236436 0.3793285 0.9252621 5.2E-6 0.3793285 0.9252621 5.2E-6 0.3793285 0.9252621 5.2E-6 -0.1447937 -0.354819 0.9236549 -0.1447937 -0.354819 0.9236549 -0.1447937 -0.354819 0.9236549 0.3793284 0.9252621 0.0 0.3793284 0.9252621 0.0 0.3793284 0.9252621 0.0 -0.1448784 -0.3547659 0.9236619 -0.1448784 -0.3547659 0.9236619 -0.1448784 -0.3547659 0.9236619 0.3793392 0.9252577 1.05E-5 0.3793392 0.9252577 1.05E-5 0.3793392 0.9252577 1.05E-5 1.0 0.0 0.0 1.0 0.0 0.0 0.3793278 0.9252623 -1.1E-5 0.3793278 0.9252623 -1.1E-5 0.3793278 0.9252623 -1.1E-5 -0.1440899 -0.3551728 0.9236289 -0.1440899 -0.3551728 0.9236289 -0.1440899 -0.3551728 0.9236289 0.3793119 0.9252689 3.6E-6 0.3793119 0.9252689 3.6E-6 0.3793119 0.9252689 3.6E-6 -0.1447286 -0.3545851 0.9237549 -0.1447286 -0.3545851 0.9237549 -0.1447286 -0.3545851 0.9237549 0.3790484 0.925377 0.0 0.3790484 0.925377 0.0 0.3790484 0.925377 0.0 0.3793171 0.9252667 0.0 0.3793171 0.9252667 0.0 0.3793171 0.9252667 0.0 0.0072338 0.0177263 0.9998167 0.0072338 0.0177263 0.9998167 0.0072338 0.0177263 0.9998167 0.0072354 0.0177275 0.9998167 0.0072354 0.0177275 0.9998167 0.0072354 0.0177275 0.9998167 0.0071192 0.0174455 0.9998224 0.0071192 0.0174455 0.9998224 0.0071192 0.0174455 0.9998224 0.0072884 0.0176982 0.9998168 0.0072884 0.0176982 0.9998168 0.0072884 0.0176982 0.9998168 -0.9258788 0.3778206 0.0 -0.9258788 0.3778206 0.0 -0.9258788 0.3778206 0.0 -0.9247658 0.3805368 -5.1E-6 -0.9247658 0.3805368 -5.1E-6 -0.9247658 0.3805368 -5.1E-6 -0.9247746 0.3805154 0.0 -0.9247746 0.3805154 0.0 -0.9247746 0.3805154 0.0 0.1441332 0.3531392 0.9244016 0.1441332 0.3531392 0.9244016 0.1441332 0.3531392 0.9244016 0.9543244 0.2987723 0.0 0.9543244 0.2987723 0.0 0.9543244 0.2987723 0.0 -0.9246399 0.3808425 0.0 -0.9246399 0.3808425 0.0 -0.9246399 0.3808425 0.0 0.1441101 0.3531241 0.9244111 0.1441101 0.3531241 0.9244111 0.1441101 0.3531241 0.9244111 0.1441147 0.353155 0.9243984 0.1441147 0.353155 0.9243984 0.1441147 0.353155 0.9243984 0.1531988 0.359934 0.9203139 0.1531988 0.359934 0.9203139 0.1531988 0.359934 0.9203139 0.144128 0.3531248 0.9244079 0.144128 0.3531248 0.9244079 0.144128 0.3531248 0.9244079 0.1441066 0.3531353 0.9244072 0.1441066 0.3531353 0.9244072 0.1441066 0.3531353 0.9244072 0.1440878 0.3531307 0.9244119 0.1440878 0.3531307 0.9244119 0.1440878 0.3531307 0.9244119 0.1441145 0.3531409 0.9244038 0.1441145 0.3531409 0.9244038 0.1441145 0.3531409 0.9244038 0.1440841 0.3532552 0.924365 0.1440841 0.3532552 0.924365 0.1440841 0.3532552 0.924365 0.1441201 0.3531158 0.9244126 0.1441201 0.3531158 0.9244126 0.1441201 0.3531158 0.9244126 0.1440115 0.3531786 0.9244055 0.1440115 0.3531786 0.9244055 0.1440115 0.3531786 0.9244055 0.1441256 0.3531058 0.9244156 0.1441256 0.3531058 0.9244156 0.1441256 0.3531058 0.9244156 0.3795448 0.9251733 -5.5E-6 0.3795448 0.9251733 -5.5E-6 0.3795448 0.9251733 -5.5E-6 0.1440794 0.3531274 0.9244145 0.1440794 0.3531274 0.9244145 0.1440794 0.3531274 0.9244145 0.3794965 0.9251932 0.0 0.3794965 0.9251932 0.0 0.3794965 0.9251932 0.0 0.1440498 0.3530249 0.9244583 0.1440498 0.3530249 0.9244583 0.1440498 0.3530249 0.9244583 0.3795451 0.9251732 -6.1E-6 0.3795451 0.9251732 -6.1E-6 0.3795451 0.9251732 -6.1E-6 0.3795354 0.9251772 5.98E-5 0.3795354 0.9251772 5.98E-5 0.3795354 0.9251772 5.98E-5 0.3795564 0.9251686 0.0 0.3795564 0.9251686 0.0 0.3795564 0.9251686 0.0 -0.9257712 0.3780845 0.0 -0.9257712 0.3780845 0.0 -0.9257712 0.3780845 0.0 -0.9257711 0.3780845 0.0 -0.9257711 0.3780845 0.0 -0.9257711 0.3780845 0.0 -0.9258753 0.3778292 0.0 -0.9258753 0.3778292 0.0 -0.9258753 0.3778292 0.0 -0.9258753 0.3778292 0.0 -0.9258753 0.3778292 0.0 -0.9258753 0.3778292 0.0 -0.9258753 0.3778292 0.0 -0.9258753 0.3778292 0.0 -0.9258753 0.3778292 0.0 -0.3807896 -0.9246618 2.91E-5 -0.3807896 -0.9246618 2.91E-5 -0.3807896 -0.9246618 2.91E-5 -0.3808971 -0.9246174 0.0 -0.3808971 -0.9246174 0.0 -0.3808971 -0.9246174 0.0 -0.3808972 -0.9246174 1.0E-7 -0.3808972 -0.9246174 1.0E-7 -0.3808972 -0.9246174 1.0E-7 -0.3809561 -0.9245932 0.0 -0.3809561 -0.9245932 0.0 -0.3809561 -0.9245932 0.0 -0.3832619 -0.9236397 0.0 -0.3832619 -0.9236397 0.0 -0.3832619 -0.9236397 0.0 -0.3808738 -0.924627 -3.4E-5 -0.3808738 -0.924627 -3.4E-5 -0.3808738 -0.924627 -3.4E-5 0.3778341 0.9258734 0.0 0.3778341 0.9258734 0.0 0.3778341 0.9258734 0.0 0.3778664 0.9258601 0.0 0.3778664 0.9258601 0.0 0.3778664 0.9258601 0.0 -0.4143817 0.1690842 0.8942586 -0.4143817 0.1690842 0.8942586 -0.4143817 0.1690842 0.8942586 0.3778355 0.9258727 -4.5E-5 0.3778355 0.9258727 -4.5E-5 0.3778355 0.9258727 -4.5E-5 -0.4144043 0.1690684 0.894251 -0.4144043 0.1690684 0.894251 -0.4144043 0.1690684 0.894251 1.0 0.0 0.0 1.0 0.0 0.0 -0.4141972 0.1691567 0.8943304 -0.4141972 0.1691567 0.8943304 -0.4141972 0.1691567 0.8943304 -0.4143602 0.1690846 0.8942684 -0.4143602 0.1690846 0.8942684 -0.4143602 0.1690846 0.8942684 -0.4145077 0.1687283 0.8942674 -0.4145077 0.1687283 0.8942674 -0.4145077 0.1687283 0.8942674 -0.4144463 0.1692102 0.8942048 -0.4144463 0.1692102 0.8942048 -0.4144463 0.1692102 0.8942048 -0.4143543 0.1690921 0.8942697 -0.4143543 0.1690921 0.8942697 -0.4143543 0.1690921 0.8942697</float_array>
                    <technique_common>
                        <accessor count="466" source="#geometry0-normal-array" stride="3">
                            <param name="X" type="float"/>
                            <param name="Y" type="float"/>
                            <param name="Z" type="float"/>
                        </accessor>
                    </technique_common>
                </source>
                <source id="geometry0-texCoords">
                    <float_array id="geometry0-texCoords-array" count="0"></float_array>
                    <technique_common>
                        <accessor count="0" source="#geometry0-texCoords-array" stride="2">
                            <param name="S" type="float"/>
                            <param name="T" type="float"/>
                        </accessor>
                    </technique_common>
                </source>
                <vertices id="geometry0-vertex">
                    <input semantic="POSITION" source="#geometry0-position"/>
                </vertices>
                <triangles count="63" material="default_dc_r_0.6_g_0.6_b_0_tri">
                    <input offset="0" semantic="VERTEX" source="#geometry0-vertex"/>
                    <input offset="1" semantic="NORMAL" source="#geometry0-normal"/>
                    <p>38 48 39 49 40 50 40 54 41 55 38 56 42 57 39 58 38 59 41 60 40 61 25 62 40 63 43 64 25 65 41 93 25 94 44 95 45 102 46 103 30 104 44 105 25 106 47 107 48 111 46 112 49 113 49 117 46 118 45 119 48 123 50 124 46 125 51 129 50 130 48 131 45 135 30 136 37 137 47 141 25 142 46 143 46 147 25 148 30 149 52 153 44 154 47 155 0 192 1 193 2 194 53 195 54 196 18 197 55 198 56 199 25 200 54 204 55 205 18 206 53 210 57 211 54 212 53 216 18 217 58 218 53 222 59 223 57 224 33 225 25 226 56 227 18 228 23 229 58 230 55 231 25 232 18 233 3 261 4 262 5 263 5 264 4 265 6 266 7 267 4 268 8 269 9 270 3 271 5 272 8 273 4 274 3 275 10 276 5 277 6 278 6 279 4 280 11 281 12 285 5 286 10 287 13 291 9 292 5 293 6 297 11 298 11 298 14 302 7 303 8 304 14 308 15 309 7 310 60 317 1 318 61 319 1 320 62 321 61 322 2 323 1 324 60 325 63 326 60 327 61 328 10 338 16 339 17 340 10 347 18 348 19 349 16 350 10 351 20 352 17 353 16 354 21 355 22 356 17 357 21 358 17 359 12 360 10 361 10 362 23 363 18 364 24 365 18 366 25 367 20 368 10 369 19 370 17 371 26 372 12 373 26 374 27 375 12 376 19 377 18 378 24 379 24 383 25 384 28 385 29 389 17 390 22 391 30 440 31 441 32 442 33 446 31 447 30 448 34 451 32 452 31 453 34 454 35 455 32 456 32 457 36 458 30 459 30 460 36 461 37 462 33 463 30 464 25 465</p>
                </triangles>
                <triangles count="80" material="default_dc_r_1.0_g_1.0_b_1_tri">
                    <input offset="0" semantic="VERTEX" source="#geometry0-vertex"/>
                    <input offset="1" semantic="NORMAL" source="#geometry0-normal"/>
                    <p>111 0 114 1 115 2 111 3 116 4 114 5 117 6 118 7 115 8 113 9 116 10 111 11 114 12 117 13 115 14 115 15 119 16 120 17 115 18 120 19 121 20 76 21 78 22 79 23 122 24 123 25 120 26 76 27 79 28 77 29 120 30 124 31 121 32 118 33 125 34 115 35 125 36 119 37 115 38 126 39 123 40 122 41 119 42 122 43 120 44 80 45 81 46 82 47 80 51 82 52 78 53 83 66 81 67 80 68 84 69 83 70 80 71 85 72 83 73 84 74 127 75 128 76 129 77 130 78 128 79 121 80 86 81 87 82 88 83 129 84 128 85 130 86 86 87 88 88 83 89 131 90 128 91 127 92 85 96 86 97 83 98 130 99 121 100 124 101 89 171 90 172 88 173 89 174 88 175 87 176 91 177 90 178 89 179 132 180 133 181 134 182 92 183 90 184 91 185 128 186 132 187 134 188 131 189 132 190 128 191 93 201 94 202 90 203 95 207 90 208 92 209 96 213 94 214 93 215 95 219 93 220 90 221 71 234 135 235 136 236 71 237 136 238 72 239 97 240 98 241 99 242 96 243 99 244 94 245 96 246 100 247 99 248 100 249 97 250 99 251 78 252 82 253 137 254 138 255 78 256 137 257 79 258 78 259 138 260 69 282 101 283 102 284 67 288 69 289 102 290 102 294 101 295 103 296 103 299 101 300 99 301 104 305 103 306 99 307 105 311 101 312 69 313 104 314 99 315 98 316 64 329 65 330 66 331 106 332 107 333 101 334 106 335 101 336 105 337 67 341 68 342 69 343 108 344 107 345 106 346 109 380 110 381 107 382 109 386 107 387 108 388 110 392 111 393 107 394 109 395 112 396 110 397 113 398 111 399 110 400 70 401 71 402 72 403 70 404 72 405 73 406 65 407 74 408 70 409 73 410 65 411 70 412 66 413 65 414 73 415 135 416 139 417 134 418 139 419 138 420 137 421 134 422 139 423 137 424 133 425 135 426 134 427 140 428 136 429 135 430 133 431 140 432 135 433 74 434 75 435 70 436 75 437 76 438 77 439 70 443 75 444 77 445 74 449 74 449 70 450</p>
                </triangles>
                <triangles count="13" material="default_dc_r_0.9_g_0.7_b_0_tri">
                    <input offset="0" semantic="VERTEX" source="#geometry0-vertex"/>
                    <input offset="1" semantic="NORMAL" source="#geometry0-normal"/>
                    <p>141 108 142 109 143 110 144 114 145 115 146 116 144 120 147 121 145 122 144 126 146 127 148 128 145 132 141 133 143 134 149 138 142 139 141 140 150 144 144 145 148 146 145 150 147 151 151 152 143 156 142 157 152 158 143 159 146 160 145 161 153 162 147 163 144 164 143 165 152 166 154 167 146 168 155 169 148 170</p>
                </triangles>
            </mesh>
        </geometry>
    </library_geometries>
    <library_visual_scenes>
        <visual_scene id="Building_FME_0218602f-e730-4b52-8678-696edc35da3f">
            <node>
                <instance_geometry url="#geometry0">
                    <bind_material>
                        <technique_common>
                            <instance_material symbol="default_dc_r_0.6_g_0.6_b_0_tri" target="#default_dc_r_0.6_g_0.6_b_0_mat"/>
                            <instance_material symbol="default_dc_r_1.0_g_1.0_b_1_tri" target="#default_dc_r_1.0_g_1.0_b_1_mat"/>
                            <instance_material symbol="default_dc_r_0.9_g_0.7_b_0_tri" target="#default_dc_r_0.9_g_0.7_b_0_mat"/>
                        </technique_common>
                    </bind_material>
                </instance_geometry>
            </node>
        </visual_scene>
    </library_visual_scenes>
    <scene>
        <instance_visual_scene url="#Building_FME_0218602f-e730-4b52-8678-696edc35da3f"/>
    </scene>
</COLLADA>
