<?xml version="1.0" encoding="UTF-8" standalone="yes"?>
<COLLADA xmlns="http://www.collada.org/2005/11/COLLADASchema" version="1.4.1">
    <asset>
        <contributor>
            <authoring_tool>3D City Database Importer/Exporter, version 5.5.1; Chair of Geoinformatics, Technical University of Munich</authoring_tool>
        </contributor>
        <created>2026-01-16T16:51:34.174</created>
        <modified>2026-01-16T16:51:34.174</modified>
        <unit meter="1.0" name="meters"/>
        <up_axis>Z_UP</up_axis>
    </asset>
    <library_materials>
        <material id="default_ai_0.2_sh_0.2_tr_0.0_dc_r_0.8_g_0.8_b_0.8_sc_r_1.0_g_1.0_b_1.0_ec_r_0.0_g_0.0_b_0_mat">
            <instance_effect url="#default_ai_0.2_sh_0.2_tr_0.0_dc_r_0.8_g_0.8_b_0.8_sc_r_1.0_g_1.0_b_1.0_ec_r_0.0_g_0.0_b_0_eff"/>
        </material>
        <material id="default_ai_0.2_sh_0.2_tr_0.0_dc_r_1.0_g_0.2_b_0.2_sc_r_1.0_g_1.0_b_1.0_ec_r_0.0_g_0.0_b_0_mat">
            <instance_effect url="#default_ai_0.2_sh_0.2_tr_0.0_dc_r_1.0_g_0.2_b_0.2_sc_r_1.0_g_1.0_b_1.0_ec_r_0.0_g_0.0_b_0_eff"/>
        </material>
    </library_materials>
    <library_effects>
        <effect id="default_ai_0.2_sh_0.2_tr_0.0_dc_r_0.8_g_0.8_b_0.8_sc_r_1.0_g_1.0_b_1.0_ec_r_0.0_g_0.0_b_0_eff">
            <profile_COMMON>
                <technique sid="COMMON">
                    <lambert>
                        <emission>
                            <color>0.0 0.0 0.0 1.0</color>
                        </emission>
                        <diffuse>
                            <color>0.8 0.8 0.8 1.0</color>
                        </diffuse>
                        <reflective>
                            <color>1.0 1.0 1.0 1.0</color>
                        </reflective>
                        <reflectivity>
                            <float>0.2</float>
                        </reflectivity>
                        <transparent opaque="A_ONE">
                            <color>1.0 1.0 1.0 1.0</color>
                        </transparent>
                        <transparency>
                            <float>1.0</float>
                        </transparency>
                    </lambert>
                </technique>
                <extra>
                    <technique profile="GOOGLEEARTH">
                        <double_sided>1</double_sided>
                    </technique>
                </extra>
            </profile_COMMON>
        </effect>
        <effect id="default_ai_0.2_sh_0.2_tr_0.0_dc_r_1.0_g_0.2_b_0.2_sc_r_1.0_g_1.0_b_1.0_ec_r_0.0_g_0.0_b_0_eff">
            <profile_COMMON>
                <technique sid="COMMON">
                    <lambert>
                        <emission>
                            <color>0.0 0.0 0.0 1.0</color>
                        </emission>
                        <diffuse>
                            <color>1.0 0.2 0.2 1.0</color>
                        </diffuse>
                        <reflective>
                            <color>1.0 1.0 1.0 1.0</color>
                        </reflective>
                        <reflectivity>
                            <float>0.2</float>
                        </reflectivity>
                        <transparent opaque="A_ONE">
                            <color>1.0 1.0 1.0 1.0</color>
                        </transparent>
                        <transparency>
                            <float>1.0</float>
                        </transparency>
                    </lambert>
                </technique>
                <extra>
                    <technique profile="GOOGLEEARTH">
                        <double_sided>1</double_sided>
                    </technique>
                </extra>
            </profile_COMMON>
        </effect>
    </library_effects>
    <library_geometries>
        <geometry id="geometry0">
            <mesh>
                <source id="geometry0-position">
                    <float_array id="geometry0-position-array" count="84">-3.3771062 3.5522156 5.5000092 -1.038117 2.203476 6.1437384 -1.038117 2.203476 5.5000092 -3.3771062 3.5522156 6.1437393 -0.5553747 9.0462799 9.0000077 5.4948573 9.5292358 7.4584652 1.1633753 12.0269165 7.4584681 3.776092 6.548584 9.0000101 -4.331513 2.4976654 5.5000101 -3.11E-5 -1.53E-5 5.5000092 0.38034 4.6633606 7.4584709 -1.958634 6.0121307 7.45847 0.38034 4.6633606 5.5000092 -1.958634 6.0121307 5.5000092 -1.94E-5 -5.2E-6 5.5000154 5.4948517 9.5292381 7.4584704 3.7761179 6.5485896 9.0000149 -2.42E-5 -6.0E-6 1.2E-5 5.4948527 9.5292281 1.79E-5 1.1633755 12.0268997 7.4584728 1.1633793 12.0268959 2.44E-5 -4.3314904 2.497666 5.5000154 -4.3314956 2.4976651 1.2E-5 -0.555363 9.0462593 9.0000101 1.1633759 12.0269318 9.0E-7 0.0 0.0 0.0 -4.3314819 2.4976807 2.5E-6 5.4948425 9.5292511 4.0E-7</float_array>
                    <technique_common>
                        <accessor count="28" source="#geometry0-position-array" stride="3">
                            <param name="X" type="float"/>
                            <param name="Y" type="float"/>
                            <param name="Z" type="float"/>
                        </accessor>
                    </technique_common>
                </source>
                <source id="geometry0-normal">
                    <float_array id="geometry0-normal-array" count="288">0.8662947 -0.4995333 -2.0E-6 0.8662947 -0.4995333 -2.0E-6 0.8662947 -0.4995333 -2.0E-6 0.2042459 0.3542025 0.912592 0.2042459 0.3542025 0.912592 0.2042459 0.3542025 0.912592 0.8662945 -0.4995335 -6.0E-7 0.8662945 -0.4995335 -6.0E-7 0.8662945 -0.4995335 -6.0E-7 0.2042461 0.3542015 0.9125924 0.2042461 0.3542015 0.9125924 0.2042461 0.3542015 0.9125924 0.8662941 -0.4995343 7.0E-7 0.8662941 -0.4995343 7.0E-7 0.8662941 -0.4995343 7.0E-7 -0.4995452 -0.8662878 0.0 -0.4995452 -0.8662878 0.0 -0.4995452 -0.8662878 0.0 -0.4995451 -0.8662878 0.0 -0.4995451 -0.8662878 0.0 -0.4995451 -0.8662878 0.0 -0.209884 -0.3639822 0.9074501 -0.209884 -0.3639822 0.9074501 -0.209884 -0.3639822 0.9074501 -0.2098839 -0.3639814 0.9074504 -0.2098839 -0.3639814 0.9074504 -0.2098839 -0.3639814 0.9074504 -0.2098807 -0.3639802 0.9074516 -0.2098807 -0.3639802 0.9074516 -0.2098807 -0.3639802 0.9074516 -0.2098765 -0.3639809 0.9074523 -0.2098765 -0.3639809 0.9074523 -0.2098765 -0.3639809 0.9074523 -0.2098838 -0.36397 0.907455 -0.2098838 -0.36397 0.907455 -0.2098838 -0.36397 0.907455 -0.2098829 -0.3639747 0.9074534 -0.2098829 -0.3639747 0.9074534 -0.2098829 -0.3639747 0.9074534 -0.2098932 -0.3639697 0.9074529 -0.2098932 -0.3639697 0.9074529 -0.2098932 -0.3639697 0.9074529 -0.2099186 -0.3639531 0.9074538 -0.2099186 -0.3639531 0.9074538 -0.2099186 -0.3639531 0.9074538 -0.8662934 0.4995356 0.0 -0.8662934 0.4995356 0.0 -0.8662934 0.4995356 0.0 0.4995323 0.8662952 -1.0E-6 0.4995323 0.8662952 -1.0E-6 0.4995323 0.8662952 -1.0E-6 -5.0E-7 1.0E-7 -1.0 -5.0E-7 1.0E-7 -1.0 -5.0E-7 1.0E-7 -1.0 -0.8662935 0.4995356 0.0 -0.8662935 0.4995356 0.0 -0.8662935 0.4995356 0.0 0.4995334 0.8662946 -2.0E-7 0.4995334 0.8662946 -2.0E-7 0.4995334 0.8662946 -2.0E-7 -1.0E-7 1.0E-7 -1.0 -1.0E-7 1.0E-7 -1.0 -1.0E-7 1.0E-7 -1.0 0.8662937 -0.499535 0.0 0.8662937 -0.499535 0.0 0.8662937 -0.499535 0.0 0.8662937 -0.4995349 0.0 0.8662937 -0.4995349 0.0 0.8662937 -0.4995349 0.0 -0.8662941 0.4995343 8.0E-7 -0.8662941 0.4995343 8.0E-7 -0.8662941 0.4995343 8.0E-7 -0.8662945 0.4995336 -1.0E-6 -0.8662945 0.4995336 -1.0E-6 -0.8662945 0.4995336 -1.0E-6 -0.8662941 0.4995342 -7.0E-7 -0.8662941 0.4995342 -7.0E-7 -0.8662941 0.4995342 -7.0E-7 0.0 0.0 1.0 0.0 0.0 1.0 0.0 0.0 1.0 0.0 0.0 1.0 0.0 0.0 1.0 0.0 0.0 1.0 0.4995342 0.8662941 0.0 0.4995342 0.8662941 0.0 0.4995342 0.8662941 0.0 0.4995343 0.8662942 0.0 0.4995343 0.8662942 0.0 0.4995343 0.8662942 0.0 -0.4995342 -0.8662942 6.0E-7 -0.4995342 -0.8662942 6.0E-7 -0.4995342 -0.8662942 6.0E-7 -0.4995342 -0.8662941 6.0E-7 -0.4995342 -0.8662941 6.0E-7 -0.4995342 -0.8662941 6.0E-7</float_array>
                    <technique_common>
                        <accessor count="96" source="#geometry0-normal-array" stride="3">
                            <param name="X" type="float"/>
                            <param name="Y" type="float"/>
                            <param name="Z" type="float"/>
                        </accessor>
                    </technique_common>
                </source>
                <source id="geometry0-texCoords">
                    <float_array id="geometry0-texCoords-array" count="0"></float_array>
                    <technique_common>
                        <accessor count="0" source="#geometry0-texCoords-array" stride="2">
                            <param name="S" type="float"/>
                            <param name="T" type="float"/>
                        </accessor>
                    </technique_common>
                </source>
                <vertices id="geometry0-vertex">
                    <input semantic="POSITION" source="#geometry0-position"/>
                </vertices>
                <triangles count="12" material="default_ai_0.2_sh_0.2_tr_0.0_dc_r_0.8_g_0.8_b_0.8_sc_r_1.0_g_1.0_b_1.0_ec_r_0.0_g_0.0_b_0_tri">
                    <input offset="0" semantic="VERTEX" source="#geometry0-vertex"/>
                    <input offset="1" semantic="NORMAL" source="#geometry0-normal"/>
                    <p>14 0 15 1 16 2 17 6 15 7 14 8 18 12 15 13 17 14 18 48 19 49 15 50 24 51 25 52 26 53 20 57 19 58 18 59 27 60 25 61 24 62 21 69 20 70 22 71 23 72 20 73 21 74 19 75 20 76 23 77 17 90 21 91 22 92 14 93 21 94 17 95</p>
                </triangles>
                <triangles count="20" material="default_ai_0.2_sh_0.2_tr_0.0_dc_r_1.0_g_0.2_b_0.2_sc_r_1.0_g_1.0_b_1.0_ec_r_0.0_g_0.0_b_0_tri">
                    <input offset="0" semantic="VERTEX" source="#geometry0-vertex"/>
                    <input offset="1" semantic="NORMAL" source="#geometry0-normal"/>
                    <p>4 3 5 4 6 5 7 9 5 10 4 11 11 15 12 16 10 17 13 18 12 19 11 20 1 21 3 22 8 23 9 24 1 25 8 26 10 27 1 28 9 29 7 30 10 31 9 32 11 33 10 34 7 35 4 36 11 37 7 38 8 39 11 40 4 41 3 42 11 43 8 44 2 45 10 46 12 47 1 54 10 55 2 56 13 63 3 64 0 65 11 66 3 67 13 68 12 78 0 79 2 80 13 81 0 82 12 83 0 84 1 85 2 86 3 87 1 88 0 89</p>
                </triangles>
            </mesh>
        </geometry>
    </library_geometries>
    <library_visual_scenes>
        <visual_scene id="Building_pb-9635c0fb-7f36-11f0-b20d-9c7bef4dcf4c">
            <node>
                <instance_geometry url="#geometry0">
                    <bind_material>
                        <technique_common>
                            <instance_material symbol="default_ai_0.2_sh_0.2_tr_0.0_dc_r_0.8_g_0.8_b_0.8_sc_r_1.0_g_1.0_b_1.0_ec_r_0.0_g_0.0_b_0_tri" target="#default_ai_0.2_sh_0.2_tr_0.0_dc_r_0.8_g_0.8_b_0.8_sc_r_1.0_g_1.0_b_1.0_ec_r_0.0_g_0.0_b_0_mat"/>
                            <instance_material symbol="default_ai_0.2_sh_0.2_tr_0.0_dc_r_1.0_g_0.2_b_0.2_sc_r_1.0_g_1.0_b_1.0_ec_r_0.0_g_0.0_b_0_tri" target="#default_ai_0.2_sh_0.2_tr_0.0_dc_r_1.0_g_0.2_b_0.2_sc_r_1.0_g_1.0_b_1.0_ec_r_0.0_g_0.0_b_0_mat"/>
                        </technique_common>
                    </bind_material>
                </instance_geometry>
            </node>
        </visual_scene>
    </library_visual_scenes>
    <scene>
        <instance_visual_scene url="#Building_pb-9635c0fb-7f36-11f0-b20d-9c7bef4dcf4c"/>
    </scene>
</COLLADA>
