<?xml version="1.0" encoding="UTF-8" standalone="yes"?>
<COLLADA xmlns="http://www.collada.org/2005/11/COLLADASchema" version="1.4.1">
    <asset>
        <contributor>
            <authoring_tool>3D City Database Importer/Exporter, version 5.5.1; Chair of Geoinformatics, Technical University of Munich</authoring_tool>
        </contributor>
        <created>2026-01-16T16:51:34.330</created>
        <modified>2026-01-16T16:51:34.330</modified>
        <unit meter="1.0" name="meters"/>
        <up_axis>Z_UP</up_axis>
    </asset>
    <library_materials>
        <material id="default_dc_r_1.0_g_1.0_b_1_mat">
            <instance_effect url="#default_dc_r_1.0_g_1.0_b_1_eff"/>
        </material>
        <material id="default_dc_r_0.9_g_0.7_b_0_mat">
            <instance_effect url="#default_dc_r_0.9_g_0.7_b_0_eff"/>
        </material>
        <material id="default_dc_r_0.6_g_0.6_b_0_mat">
            <instance_effect url="#default_dc_r_0.6_g_0.6_b_0_eff"/>
        </material>
    </library_materials>
    <library_effects>
        <effect id="default_dc_r_1.0_g_1.0_b_1_eff">
            <profile_COMMON>
                <technique sid="COMMON">
                    <lambert>
                        <emission>
                            <color>0.0 0.0 0.0 1.0</color>
                        </emission>
                        <diffuse>
                            <color>1.0 1.0 1.0 1.0</color>
                        </diffuse>
                    </lambert>
                </technique>
                <extra>
                    <technique profile="GOOGLEEARTH">
                        <double_sided>1</double_sided>
                    </technique>
                </extra>
            </profile_COMMON>
        </effect>
        <effect id="default_dc_r_0.9_g_0.7_b_0_eff">
            <profile_COMMON>
                <technique sid="COMMON">
                    <lambert>
                        <emission>
                            <color>0.0 0.0 0.0 1.0</color>
                        </emission>
                        <diffuse>
                            <color>0.9 0.7 0.4 1.0</color>
                        </diffuse>
                    </lambert>
                </technique>
                <extra>
                    <technique profile="GOOGLEEARTH">
                        <double_sided>1</double_sided>
                    </technique>
                </extra>
            </profile_COMMON>
        </effect>
        <effect id="default_dc_r_0.6_g_0.6_b_0_eff">
            <profile_COMMON>
                <technique sid="COMMON">
                    <lambert>
                        <emission>
                            <color>0.0 0.0 0.0 1.0</color>
                        </emission>
                        <diffuse>
                            <color>0.6 0.6 0.6 1.0</color>
                        </diffuse>
                    </lambert>
                </technique>
                <extra>
                    <technique profile="GOOGLEEARTH">
                        <double_sided>1</double_sided>
                    </technique>
                </extra>
            </profile_COMMON>
        </effect>
    </library_effects>
    <library_geometries>
        <geometry id="geometry0">
            <mesh>
                <source id="geometry0-position">
                    <float_array id="geometry0-position-array" count="96">0.0 0.0 2.232624 -3.0026 0.4563 2.338724 -3.5429 -1.4008 2.850724 2.9352 -3.2856 2.850724 3.4755 -1.4285 2.338724 -4.1131 -3.3605 2.226724 -1.5127 -4.6202 2.079024 2.365 -5.2452 2.226724 0.0 0.0 0.0 -3.0026 0.4563 0.0 0.0 0.0 2.2326 -3.0026 0.4563 2.3387 3.4755 -1.4285 0.0 3.4755 -1.4285 2.3387 2.9352 -3.2856 2.8507 2.9352 -3.2856 0.0 2.365 -5.2452 2.2267 2.365 -5.2452 0.0 -1.5127 -4.6202 2.079 -1.5127 -4.6202 0.0 -3.5429 -1.4008 0.0 -3.5429 -1.4008 2.8507 -4.1131 -3.3605 2.2267 -4.1131 -3.3605 0.0 -3.5429 -1.4008 3.6E-5 0.0 0.0 3.6E-5 -1.5127 -4.6202 3.6E-5 2.9352 -3.2856 3.6E-5 -3.0026 0.4563 3.6E-5 3.4755 -1.4285 3.6E-5 -4.1131 -3.3605 3.6E-5 2.365 -5.2452 3.6E-5</float_array>
                    <technique_common>
                        <accessor count="32" source="#geometry0-position-array" stride="3">
                            <param name="X" type="float"/>
                            <param name="Y" type="float"/>
                            <param name="Z" type="float"/>
                        </accessor>
                    </technique_common>
                </source>
                <source id="geometry0-normal">
                    <float_array id="geometry0-normal-array" count="252">-0.9601814 0.2793771 0.0 -0.9601814 0.2793771 0.0 -0.9601814 0.2793771 0.0 -0.9601814 0.2793771 0.0 -0.9601814 0.2793771 0.0 -0.9601814 0.2793771 0.0 0.960188 -0.2793548 0.0 0.960188 -0.2793548 0.0 0.960188 -0.2793548 0.0 0.960188 -0.2793548 0.0 0.960188 -0.2793548 0.0 0.960188 -0.2793548 0.0 0.0 0.0 -1.0 0.0 0.0 -1.0 0.0 0.0 -1.0 0.0 0.0 -1.0 0.0 0.0 -1.0 0.0 0.0 -1.0 0.0 0.0 -1.0 0.0 0.0 -1.0 0.0 0.0 -1.0 0.0 0.0 -1.0 0.0 0.0 -1.0 0.0 0.0 -1.0 0.0 0.0 -1.0 0.0 0.0 -1.0 0.0 0.0 -1.0 0.0 0.0 -1.0 0.0 0.0 -1.0 0.0 0.0 -1.0 0.1502433 0.988649 0.0 0.1502433 0.988649 0.0 0.1502433 0.988649 0.0 0.1502433 0.988649 0.0 0.1502433 0.988649 0.0 0.1502433 0.988649 0.0 -0.960188 0.2793548 0.0 -0.960188 0.2793548 0.0 -0.960188 0.2793548 0.0 0.9601776 -0.2793902 0.0 0.9601776 -0.2793902 0.0 0.9601776 -0.2793902 0.0 -0.960188 0.2793547 0.0 -0.960188 0.2793547 0.0 -0.960188 0.2793547 0.0 0.9601776 -0.2793903 0.0 0.9601776 -0.2793903 0.0 0.9601776 -0.2793903 0.0 -0.4359653 -0.8999636 0.0 -0.4359653 -0.8999636 0.0 -0.4359653 -0.8999636 0.0 -0.4359653 -0.8999636 0.0 -0.4359653 -0.8999636 0.0 -0.4359653 -0.8999636 0.0 0.0715004 0.2457161 0.9667012 0.0715004 0.2457161 0.9667012 0.0715004 0.2457161 0.9667012 -0.1591244 -0.9872585 0.0 -0.1591244 -0.9872585 0.0 -0.1591244 -0.9872585 0.0 0.0714948 0.2457291 0.9666983 0.0714948 0.2457291 0.9666983 0.0714948 0.2457291 0.9666983 -0.1591244 -0.9872586 0.0 -0.1591244 -0.9872586 0.0 -0.1591244 -0.9872586 0.0 0.0714847 0.2457207 0.9667012 0.0714847 0.2457207 0.9667012 0.0714847 0.2457207 0.9667012 0.3801608 0.9249204 0.0 0.3801608 0.9249204 0.0 0.3801608 0.9249204 0.0 0.3801608 0.9249204 0.0 0.3801608 0.9249204 0.0 0.3801608 0.9249204 0.0 -0.0816791 -0.2807367 0.956303 -0.0816791 -0.2807367 0.956303 -0.0816791 -0.2807367 0.956303 -0.0816804 -0.2807375 0.9563027 -0.0816804 -0.2807375 0.9563027 -0.0816804 -0.2807375 0.9563027 -0.0816758 -0.2807508 0.9562992 -0.0816758 -0.2807508 0.9562992 -0.0816758 -0.2807508 0.9562992</float_array>
                    <technique_common>
                        <accessor count="84" source="#geometry0-normal-array" stride="3">
                            <param name="X" type="float"/>
                            <param name="Y" type="float"/>
                            <param name="Z" type="float"/>
                        </accessor>
                    </technique_common>
                </source>
                <source id="geometry0-texCoords">
                    <float_array id="geometry0-texCoords-array" count="0"></float_array>
                    <technique_common>
                        <accessor count="0" source="#geometry0-texCoords-array" stride="2">
                            <param name="S" type="float"/>
                            <param name="T" type="float"/>
                        </accessor>
                    </technique_common>
                </source>
                <vertices id="geometry0-vertex">
                    <input semantic="POSITION" source="#geometry0-position"/>
                </vertices>
                <triangles count="6" material="default_dc_r_0.6_g_0.6_b_0_tri">
                    <input offset="0" semantic="VERTEX" source="#geometry0-vertex"/>
                    <input offset="1" semantic="NORMAL" source="#geometry0-normal"/>
                    <p>0 54 1 55 2 56 3 60 0 61 2 62 4 66 0 67 3 68 2 75 5 76 6 77 3 78 2 79 6 80 7 81 3 82 6 83</p>
                </triangles>
                <triangles count="16" material="default_dc_r_1.0_g_1.0_b_1_tri">
                    <input offset="0" semantic="VERTEX" source="#geometry0-vertex"/>
                    <input offset="1" semantic="NORMAL" source="#geometry0-normal"/>
                    <p>20 0 23 1 22 2 20 3 22 4 21 5 14 6 15 7 13 8 15 9 12 10 13 11 8 30 9 31 10 32 9 33 11 34 10 35 9 36 20 37 11 38 16 39 17 40 15 41 20 42 21 43 11 44 16 45 15 46 14 47 22 48 23 49 18 50 23 51 19 52 18 53 18 57 19 58 17 59 18 63 17 64 16 65 12 69 8 70 10 71 12 72 10 73 13 74</p>
                </triangles>
                <triangles count="6" material="default_dc_r_0.9_g_0.7_b_0_tri">
                    <input offset="0" semantic="VERTEX" source="#geometry0-vertex"/>
                    <input offset="1" semantic="NORMAL" source="#geometry0-normal"/>
                    <p>24 12 25 13 26 14 25 15 27 16 26 17 28 18 25 19 24 20 25 21 29 22 27 23 26 24 30 25 24 26 27 27 31 28 26 29</p>
                </triangles>
            </mesh>
        </geometry>
    </library_geometries>
    <library_visual_scenes>
        <visual_scene id="Building_FME_36875d29-a382-4ec9-86ba-f0e9a9e12bcc">
            <node>
                <instance_geometry url="#geometry0">
                    <bind_material>
                        <technique_common>
                            <instance_material symbol="default_dc_r_0.6_g_0.6_b_0_tri" target="#default_dc_r_0.6_g_0.6_b_0_mat"/>
                            <instance_material symbol="default_dc_r_1.0_g_1.0_b_1_tri" target="#default_dc_r_1.0_g_1.0_b_1_mat"/>
                            <instance_material symbol="default_dc_r_0.9_g_0.7_b_0_tri" target="#default_dc_r_0.9_g_0.7_b_0_mat"/>
                        </technique_common>
                    </bind_material>
                </instance_geometry>
            </node>
        </visual_scene>
    </library_visual_scenes>
    <scene>
        <instance_visual_scene url="#Building_FME_36875d29-a382-4ec9-86ba-f0e9a9e12bcc"/>
    </scene>
</COLLADA>
