<?xml version="1.0" encoding="UTF-8" standalone="yes"?>
<COLLADA xmlns="http://www.collada.org/2005/11/COLLADASchema" version="1.4.1">
    <asset>
        <contributor>
            <authoring_tool>3D City Database Importer/Exporter, version 5.5.1; Chair of Geoinformatics, Technical University of Munich</authoring_tool>
        </contributor>
        <created>2026-01-16T16:51:34.521</created>
        <modified>2026-01-16T16:51:34.521</modified>
        <unit meter="1.0" name="meters"/>
        <up_axis>Z_UP</up_axis>
    </asset>
    <library_materials>
        <material id="default_ai_0.2_sh_0.2_tr_0.0_dc_r_0.8_g_0.8_b_0.8_sc_r_1.0_g_1.0_b_1.0_ec_r_0.0_g_0.0_b_0_mat">
            <instance_effect url="#default_ai_0.2_sh_0.2_tr_0.0_dc_r_0.8_g_0.8_b_0.8_sc_r_1.0_g_1.0_b_1.0_ec_r_0.0_g_0.0_b_0_eff"/>
        </material>
        <material id="default_ai_0.2_sh_0.2_tr_0.0_dc_r_1.0_g_0.2_b_0.2_sc_r_1.0_g_1.0_b_1.0_ec_r_0.0_g_0.0_b_0_mat">
            <instance_effect url="#default_ai_0.2_sh_0.2_tr_0.0_dc_r_1.0_g_0.2_b_0.2_sc_r_1.0_g_1.0_b_1.0_ec_r_0.0_g_0.0_b_0_eff"/>
        </material>
    </library_materials>
    <library_effects>
        <effect id="default_ai_0.2_sh_0.2_tr_0.0_dc_r_0.8_g_0.8_b_0.8_sc_r_1.0_g_1.0_b_1.0_ec_r_0.0_g_0.0_b_0_eff">
            <profile_COMMON>
                <technique sid="COMMON">
                    <lambert>
                        <emission>
                            <color>0.0 0.0 0.0 1.0</color>
                        </emission>
                        <diffuse>
                            <color>0.8 0.8 0.8 1.0</color>
                        </diffuse>
                        <reflective>
                            <color>1.0 1.0 1.0 1.0</color>
                        </reflective>
                        <reflectivity>
                            <float>0.2</float>
                        </reflectivity>
                        <transparent opaque="A_ONE">
                            <color>1.0 1.0 1.0 1.0</color>
                        </transparent>
                        <transparency>
                            <float>1.0</float>
                        </transparency>
                    </lambert>
                </technique>
                <extra>
                    <technique profile="GOOGLEEARTH">
                        <double_sided>1</double_sided>
                    </technique>
                </extra>
            </profile_COMMON>
        </effect>
        <effect id="default_ai_0.2_sh_0.2_tr_0.0_dc_r_1.0_g_0.2_b_0.2_sc_r_1.0_g_1.0_b_1.0_ec_r_0.0_g_0.0_b_0_eff">
            <profile_COMMON>
                <technique sid="COMMON">
                    <lambert>
                        <emission>
                            <color>0.0 0.0 0.0 1.0</color>
                        </emission>
                        <diffuse>
                            <color>1.0 0.2 0.2 1.0</color>
                        </diffuse>
                        <reflective>
                            <color>1.0 1.0 1.0 1.0</color>
                        </reflective>
                        <reflectivity>
                            <float>0.2</float>
                        </reflectivity>
                        <transparent opaque="A_ONE">
                            <color>1.0 1.0 1.0 1.0</color>
                        </transparent>
                        <transparency>
                            <float>1.0</float>
                        </transparency>
                    </lambert>
                </technique>
                <extra>
                    <technique profile="GOOGLEEARTH">
                        <double_sided>1</double_sided>
                    </technique>
                </extra>
            </profile_COMMON>
        </effect>
    </library_effects>
    <library_geometries>
        <geometry id="geometry0">
            <mesh>
                <source id="geometry0-position">
                    <float_array id="geometry0-position-array" count="123">-9.2016397 -4.6455383 8.0000303 -4.3726392 -2.4249573 9.0000303 -7.5670744 -0.9946594 9.0000303 -6.0071912 -6.0757446 8.0000303 -4.0863691 -9.1270447 5.5000308 -6.8244558 -7.901123 5.5000308 -1.6345525 -3.6508789 9.0000303 -0.0010706 3.726E-4 5.4999939 -7.2401796 -0.2645619 8.3000186 -0.9818025 -2.1902115 7.6001521 -5.9325452 2.6560218 5.4999668 -7.3979898 -0.617018 8.6379309 -1.1001583 -2.4545715 7.8535996 -7.5670772 -0.9946806 9.0000065 -1.226976 -2.7378352 8.1251708 -4.3726287 -2.4249427 9.000052 -1.4176851 -3.1638083 8.5335599 -1.6355358 -3.6504028 9.000068 -3.2691396 -7.3016046 8.000042 -4.32E-5 -4.13E-5 4.35E-5 -3.2691319 -7.3016084 4.36E-5 -1.6345952 -3.650821 9.000042 -5.84E-5 -3.75E-5 5.5000424 -4.3726628 -2.4249223 9.000041 -6.0072072 -6.0757058 8.000042 -6.0072072 -6.0757058 6.6667109 -4.0863927 -9.1270116 5.500042 -4.0863774 -9.1270173 4.32E-5 -6.8244832 -7.9011033 5.5000429 -6.8244984 -7.9010995 4.39E-5 -6.0072224 -6.075702 4.33E-5 -9.2016805 -4.645469 8.000042 -9.2016347 -4.6454805 4.4E-5 -5.9325612 2.6561057 5.5000424 -5.9325459 2.6561019 4.4E-5 0.0 0.0 0.0 -6.0071869 -6.0756531 7.0E-7 -9.2016354 -4.6454163 1.0E-6 -4.0863838 -9.1269836 5.0E-7 -6.8245087 -7.901062 8.0E-7 -5.9325447 2.6561279 7.0E-7</float_array>
                    <technique_common>
                        <accessor count="41" source="#geometry0-position-array" stride="3">
                            <param name="X" type="float"/>
                            <param name="Y" type="float"/>
                            <param name="Z" type="float"/>
                        </accessor>
                    </technique_common>
                </source>
                <source id="geometry0-normal">
                    <float_array id="geometry0-normal-array" count="297">-0.9126974 0.4086359 2.3E-6 -0.9126974 0.4086359 2.3E-6 -0.9126974 0.4086359 2.3E-6 -0.9126969 0.4086372 2.8E-6 -0.9126969 0.4086372 2.8E-6 -0.9126969 0.4086372 2.8E-6 -0.4086352 -0.9126978 0.0 -0.4086352 -0.9126978 0.0 -0.4086352 -0.9126978 0.0 -0.4086356 -0.9126976 -1.0E-6 -0.4086356 -0.9126976 -1.0E-6 -0.4086356 -0.9126976 -1.0E-6 -0.408638 -0.9126965 4.0E-7 -0.408638 -0.9126965 4.0E-7 -0.408638 -0.9126965 4.0E-7 -0.099111 -0.221355 0.9701438 -0.099111 -0.221355 0.9701438 -0.099111 -0.221355 0.9701438 -0.0991074 -0.2213622 0.9701425 -0.0991074 -0.2213622 0.9701425 -0.0991074 -0.2213622 0.9701425 -0.9126971 0.4086367 -1.0E-6 -0.9126971 0.4086367 -1.0E-6 -0.9126971 0.4086367 -1.0E-6 -0.408635 -0.9126979 5.0E-7 -0.408635 -0.9126979 5.0E-7 -0.408635 -0.9126979 5.0E-7 -0.9126971 0.4086368 -9.0E-7 -0.9126971 0.4086368 -9.0E-7 -0.9126971 0.4086368 -9.0E-7 -0.4086362 -0.9126974 -2.0E-7 -0.4086362 -0.9126974 -2.0E-7 -0.4086362 -0.9126974 -2.0E-7 -0.9126989 0.4086328 -2.8E-6 -0.9126989 0.4086328 -2.8E-6 -0.9126989 0.4086328 -2.8E-6 0.4086389 0.9126961 5.0E-7 0.4086389 0.9126961 5.0E-7 0.4086389 0.9126961 5.0E-7 -0.2059024 -0.4598817 0.8637783 -0.2059024 -0.4598817 0.8637783 -0.2059024 -0.4598817 0.8637783 0.408639 0.9126962 5.0E-7 0.408639 0.9126962 5.0E-7 0.408639 0.9126962 5.0E-7 -0.2059025 -0.4598817 0.8637783 -0.2059025 -0.4598817 0.8637783 -0.2059025 -0.4598817 0.8637783 0.2690898 0.6010282 0.7525661 0.2690898 0.6010282 0.7525661 0.2690898 0.6010282 0.7525661 0.2690898 0.6010282 0.7525662 0.2690898 0.6010282 0.7525662 0.2690898 0.6010282 0.7525662 0.2690898 0.601028 0.7525663 0.2690898 0.601028 0.7525663 0.2690898 0.601028 0.7525663 0.2690899 0.6010287 0.7525656 0.2690899 0.6010287 0.7525656 0.2690899 0.6010287 0.7525656 0.9126971 -0.4086366 0.0 0.9126971 -0.4086366 0.0 0.9126971 -0.4086366 0.0 0.26909 0.6010291 0.7525654 0.26909 0.6010291 0.7525654 0.26909 0.6010291 0.7525654 0.26909 0.6010287 0.7525657 0.26909 0.6010287 0.7525657 0.26909 0.6010287 0.7525657 0.2690899 0.6010281 0.7525661 0.2690899 0.6010281 0.7525661 0.2690899 0.6010281 0.7525661 0.2690899 0.6010286 0.7525659 0.2690899 0.6010286 0.7525659 0.2690899 0.6010286 0.7525659 0.2690899 0.6010278 0.7525664 0.2690899 0.6010278 0.7525664 0.2690899 0.6010278 0.7525664 -1.0E-7 0.0 -1.0 -1.0E-7 0.0 -1.0 -1.0E-7 0.0 -1.0 0.9126989 -0.4086328 2.8E-6 0.9126989 -0.4086328 2.8E-6 0.9126989 -0.4086328 2.8E-6 -1.0E-7 -0.0 -1.0 -1.0E-7 -0.0 -1.0 -1.0E-7 -0.0 -1.0 0.9126983 -0.4086342 2.1E-6 0.9126983 -0.4086342 2.1E-6 0.9126983 -0.4086342 2.1E-6 -1.0E-7 -0.0 -1.0 -1.0E-7 -0.0 -1.0 -1.0E-7 -0.0 -1.0 -1.0E-7 0.0 -1.0 -1.0E-7 0.0 -1.0 -1.0E-7 0.0 -1.0 0.9126984 -0.4086338 2.9E-6 0.9126984 -0.4086338 2.9E-6 0.9126984 -0.4086338 2.9E-6</float_array>
                    <technique_common>
                        <accessor count="99" source="#geometry0-normal-array" stride="3">
                            <param name="X" type="float"/>
                            <param name="Y" type="float"/>
                            <param name="Z" type="float"/>
                        </accessor>
                    </technique_common>
                </source>
                <source id="geometry0-texCoords">
                    <float_array id="geometry0-texCoords-array" count="0"></float_array>
                    <technique_common>
                        <accessor count="0" source="#geometry0-texCoords-array" stride="2">
                            <param name="S" type="float"/>
                            <param name="T" type="float"/>
                        </accessor>
                    </technique_common>
                </source>
                <vertices id="geometry0-vertex">
                    <input semantic="POSITION" source="#geometry0-position"/>
                </vertices>
                <triangles count="20" material="default_ai_0.2_sh_0.2_tr_0.0_dc_r_0.8_g_0.8_b_0.8_sc_r_1.0_g_1.0_b_1.0_ec_r_0.0_g_0.0_b_0_tri">
                    <input offset="0" semantic="VERTEX" source="#geometry0-vertex"/>
                    <input offset="1" semantic="NORMAL" source="#geometry0-normal"/>
                    <p>30 0 28 1 25 2 29 3 28 4 30 5 31 6 25 7 24 8 32 9 25 10 31 11 30 12 25 13 32 14 18 21 19 22 20 23 27 24 28 25 29 26 21 27 19 28 18 29 26 30 28 31 27 32 22 33 19 34 21 35 19 36 33 37 22 38 34 42 33 43 19 44 23 60 24 61 25 62 35 78 36 79 37 80 21 81 19 82 22 83 38 84 36 85 35 86 26 87 19 88 21 89 39 90 36 91 38 92 40 93 35 94 37 95 27 96 19 97 26 98</p>
                </triangles>
                <triangles count="13" material="default_ai_0.2_sh_0.2_tr_0.0_dc_r_1.0_g_0.2_b_0.2_sc_r_1.0_g_1.0_b_1.0_ec_r_0.0_g_0.0_b_0_tri">
                    <input offset="0" semantic="VERTEX" source="#geometry0-vertex"/>
                    <input offset="1" semantic="NORMAL" source="#geometry0-normal"/>
                    <p>0 15 1 16 2 17 3 18 1 19 0 20 4 39 1 40 5 41 6 45 1 46 4 47 7 48 8 49 9 50 10 51 8 52 7 53 9 54 11 55 12 56 8 57 11 58 9 59 12 63 13 64 14 65 11 66 13 67 12 68 14 69 15 70 16 71 13 72 15 73 14 74 15 75 17 76 16 77</p>
                </triangles>
            </mesh>
        </geometry>
    </library_geometries>
    <library_visual_scenes>
        <visual_scene id="Building_pb-9635c104-7f36-11f0-be34-9c7bef4dcf4c">
            <node>
                <instance_geometry url="#geometry0">
                    <bind_material>
                        <technique_common>
                            <instance_material symbol="default_ai_0.2_sh_0.2_tr_0.0_dc_r_0.8_g_0.8_b_0.8_sc_r_1.0_g_1.0_b_1.0_ec_r_0.0_g_0.0_b_0_tri" target="#default_ai_0.2_sh_0.2_tr_0.0_dc_r_0.8_g_0.8_b_0.8_sc_r_1.0_g_1.0_b_1.0_ec_r_0.0_g_0.0_b_0_mat"/>
                            <instance_material symbol="default_ai_0.2_sh_0.2_tr_0.0_dc_r_1.0_g_0.2_b_0.2_sc_r_1.0_g_1.0_b_1.0_ec_r_0.0_g_0.0_b_0_tri" target="#default_ai_0.2_sh_0.2_tr_0.0_dc_r_1.0_g_0.2_b_0.2_sc_r_1.0_g_1.0_b_1.0_ec_r_0.0_g_0.0_b_0_mat"/>
                        </technique_common>
                    </bind_material>
                </instance_geometry>
            </node>
        </visual_scene>
    </library_visual_scenes>
    <scene>
        <instance_visual_scene url="#Building_pb-9635c104-7f36-11f0-be34-9c7bef4dcf4c"/>
    </scene>
</COLLADA>
