<?xml version="1.0" encoding="UTF-8" standalone="yes"?>
<COLLADA xmlns="http://www.collada.org/2005/11/COLLADASchema" version="1.4.1">
    <asset>
        <contributor>
            <authoring_tool>3D City Database Importer/Exporter, version 5.5.1; Chair of Geoinformatics, Technical University of Munich</authoring_tool>
        </contributor>
        <created>2026-01-16T16:51:34.424</created>
        <modified>2026-01-16T16:51:34.424</modified>
        <unit meter="1.0" name="meters"/>
        <up_axis>Z_UP</up_axis>
    </asset>
    <library_materials>
        <material id="default_ai_0.2_sh_0.2_tr_0.0_dc_r_0.8_g_0.8_b_0.8_sc_r_1.0_g_1.0_b_1.0_ec_r_0.0_g_0.0_b_0_mat">
            <instance_effect url="#default_ai_0.2_sh_0.2_tr_0.0_dc_r_0.8_g_0.8_b_0.8_sc_r_1.0_g_1.0_b_1.0_ec_r_0.0_g_0.0_b_0_eff"/>
        </material>
        <material id="default_ai_0.2_sh_0.2_tr_0.0_dc_r_1.0_g_0.2_b_0.2_sc_r_1.0_g_1.0_b_1.0_ec_r_0.0_g_0.0_b_0_mat">
            <instance_effect url="#default_ai_0.2_sh_0.2_tr_0.0_dc_r_1.0_g_0.2_b_0.2_sc_r_1.0_g_1.0_b_1.0_ec_r_0.0_g_0.0_b_0_eff"/>
        </material>
    </library_materials>
    <library_effects>
        <effect id="default_ai_0.2_sh_0.2_tr_0.0_dc_r_0.8_g_0.8_b_0.8_sc_r_1.0_g_1.0_b_1.0_ec_r_0.0_g_0.0_b_0_eff">
            <profile_COMMON>
                <technique sid="COMMON">
                    <lambert>
                        <emission>
                            <color>0.0 0.0 0.0 1.0</color>
                        </emission>
                        <diffuse>
                            <color>0.8 0.8 0.8 1.0</color>
                        </diffuse>
                        <reflective>
                            <color>1.0 1.0 1.0 1.0</color>
                        </reflective>
                        <reflectivity>
                            <float>0.2</float>
                        </reflectivity>
                        <transparent opaque="A_ONE">
                            <color>1.0 1.0 1.0 1.0</color>
                        </transparent>
                        <transparency>
                            <float>1.0</float>
                        </transparency>
                    </lambert>
                </technique>
                <extra>
                    <technique profile="GOOGLEEARTH">
                        <double_sided>1</double_sided>
                    </technique>
                </extra>
            </profile_COMMON>
        </effect>
        <effect id="default_ai_0.2_sh_0.2_tr_0.0_dc_r_1.0_g_0.2_b_0.2_sc_r_1.0_g_1.0_b_1.0_ec_r_0.0_g_0.0_b_0_eff">
            <profile_COMMON>
                <technique sid="COMMON">
                    <lambert>
                        <emission>
                            <color>0.0 0.0 0.0 1.0</color>
                        </emission>
                        <diffuse>
                            <color>1.0 0.2 0.2 1.0</color>
                        </diffuse>
                        <reflective>
                            <color>1.0 1.0 1.0 1.0</color>
                        </reflective>
                        <reflectivity>
                            <float>0.2</float>
                        </reflectivity>
                        <transparent opaque="A_ONE">
                            <color>1.0 1.0 1.0 1.0</color>
                        </transparent>
                        <transparency>
                            <float>1.0</float>
                        </transparency>
                    </lambert>
                </technique>
                <extra>
                    <technique profile="GOOGLEEARTH">
                        <double_sided>1</double_sided>
                    </technique>
                </extra>
            </profile_COMMON>
        </effect>
    </library_effects>
    <library_geometries>
        <geometry id="geometry0">
            <mesh>
                <source id="geometry0-position">
                    <float_array id="geometry0-position-array" count="81">-58.2947288 -28.7863436 15.0000067 -25.9437643 -46.7423191 15.0000058 -25.2823191 -45.5505676 15.0000067 -6.44E-5 -1.9E-6 15.0000067 -32.3510159 17.9559784 15.0000067 -25.2823072 -45.5505899 6.7E-6 -25.9437643 -46.7423204 15.0000057 -25.9437643 -46.7423204 6.7E-6 -21.0280271 -37.8857072 7.0E-6 -20.9663625 -37.7746309 7.1E-6 -7.3860517 -13.3072465 8.1E-6 -4.63E-5 -1.32E-5 8.6E-6 -25.2823072 -45.5505899 15.0000057 -4.63E-5 -1.44E-5 15.0000076 -32.3509832 17.9559599 15.0000076 -32.3509794 17.9559609 8.7E-6 -25.1712423 -45.466842 6.8E-6 -25.2321859 -45.5783227 6.7E-6 -21.0273061 -37.8861078 7.0E-6 -20.9914213 -37.7607606 7.1E-6 -7.3286748 -13.2426809 8.1E-6 -58.2947031 -28.7863496 6.7E-6 -58.294704 -28.7863496 15.0000057 -25.9437103 -46.7423096 2.9E-6 -32.3509521 17.9559631 3.6E-6 0.0 0.0 0.0 -58.2946625 -28.7863464 6.5E-6</float_array>
                    <technique_common>
                        <accessor count="27" source="#geometry0-position-array" stride="3">
                            <param name="X" type="float"/>
                            <param name="Y" type="float"/>
                            <param name="Z" type="float"/>
                        </accessor>
                    </technique_common>
                </source>
                <source id="geometry0-normal">
                    <float_array id="geometry0-normal-array" count="225">1.6E-5 -8.9E-6 1.0 1.6E-5 -8.9E-6 1.0 1.6E-5 -8.9E-6 1.0 8.0E-7 -5.0E-7 1.0 8.0E-7 -5.0E-7 1.0 8.0E-7 -5.0E-7 1.0 0.8743489 -0.4852979 0.0 0.8743489 -0.4852979 0.0 0.8743489 -0.4852979 0.0 -0.0111841 0.0061136 0.9999188 -0.0111841 0.0061136 0.9999188 -0.0111841 0.0061136 0.9999188 0.8743503 -0.4852953 3.0E-7 0.8743503 -0.4852953 3.0E-7 0.8743503 -0.4852953 3.0E-7 -3.0E-7 1.0E-7 1.0 -3.0E-7 1.0E-7 1.0 -3.0E-7 1.0E-7 1.0 -1.0E-7 -0.0 -1.0 -1.0E-7 -0.0 -1.0 -1.0E-7 -0.0 -1.0 0.8743078 -0.485372 -6.01E-5 0.8743078 -0.485372 -6.01E-5 0.8743078 -0.485372 -6.01E-5 -4.9E-6 1.1E-6 1.0 -4.9E-6 1.1E-6 1.0 -4.9E-6 1.1E-6 1.0 -1.0E-7 -0.0 -1.0 -1.0E-7 -0.0 -1.0 -1.0E-7 -0.0 -1.0 0.8743497 -0.4852967 0.0 0.8743497 -0.4852967 0.0 0.8743497 -0.4852967 0.0 -4.2E-6 2.3E-6 1.0 -4.2E-6 2.3E-6 1.0 -4.2E-6 2.3E-6 1.0 0.8743498 -0.4852963 1.1E-6 0.8743498 -0.4852963 1.1E-6 0.8743498 -0.4852963 1.1E-6 -1.8E-6 1.0E-6 1.0 -1.8E-6 1.0E-6 1.0 -1.8E-6 1.0E-6 1.0 0.8743489 -0.4852978 -5.5E-6 0.8743489 -0.4852978 -5.5E-6 0.8743489 -0.4852978 -5.5E-6 0.8743496 -0.4852965 -0.0 0.8743496 -0.4852965 -0.0 0.8743496 -0.4852965 -0.0 -0.8743497 0.4852967 -2.0E-7 -0.8743497 0.4852967 -2.0E-7 -0.8743497 0.4852967 -2.0E-7 -0.8743497 0.4852965 0.0 -0.8743497 0.4852965 0.0 -0.8743497 0.4852965 0.0 -3.0E-7 -6.0E-7 1.0 -3.0E-7 -6.0E-7 1.0 -3.0E-7 -6.0E-7 1.0 0.0 0.0 1.0 0.0 0.0 1.0 0.0 0.0 1.0 0.0 0.0 1.0 0.0 0.0 1.0 0.0 0.0 1.0 -0.4852965 -0.8743497 0.0 -0.4852965 -0.8743497 0.0 -0.4852965 -0.8743497 0.0 0.4852966 0.8743496 1.0E-7 0.4852966 0.8743496 1.0E-7 0.4852966 0.8743496 1.0E-7 -0.4852965 -0.8743497 0.0 -0.4852965 -0.8743497 0.0 -0.4852965 -0.8743497 0.0 0.4852966 0.8743496 2.0E-7 0.4852966 0.8743496 2.0E-7 0.4852966 0.8743496 2.0E-7</float_array>
                    <technique_common>
                        <accessor count="75" source="#geometry0-normal-array" stride="3">
                            <param name="X" type="float"/>
                            <param name="Y" type="float"/>
                            <param name="Z" type="float"/>
                        </accessor>
                    </technique_common>
                </source>
                <source id="geometry0-texCoords">
                    <float_array id="geometry0-texCoords-array" count="0"></float_array>
                    <technique_common>
                        <accessor count="0" source="#geometry0-texCoords-array" stride="2">
                            <param name="S" type="float"/>
                            <param name="T" type="float"/>
                        </accessor>
                    </technique_common>
                </source>
                <vertices id="geometry0-vertex">
                    <input semantic="POSITION" source="#geometry0-position"/>
                </vertices>
                <triangles count="22" material="default_ai_0.2_sh_0.2_tr_0.0_dc_r_0.8_g_0.8_b_0.8_sc_r_1.0_g_1.0_b_1.0_ec_r_0.0_g_0.0_b_0_tri">
                    <input offset="0" semantic="VERTEX" source="#geometry0-vertex"/>
                    <input offset="1" semantic="NORMAL" source="#geometry0-normal"/>
                    <p>10 0 16 1 17 2 9 3 16 4 10 5 5 6 6 7 7 8 18 9 16 10 9 11 8 12 6 13 5 14 5 15 16 16 18 17 23 18 24 19 25 20 9 21 6 22 8 23 8 24 18 25 19 26 26 27 24 28 23 29 10 30 6 31 9 32 5 33 18 34 8 35 11 36 6 37 10 38 20 39 10 40 17 41 12 42 6 43 11 44 11 45 13 46 12 47 21 48 14 49 15 50 22 51 14 52 21 53 22 63 7 64 6 65 11 66 14 67 13 68 21 69 7 70 22 71 15 72 14 73 11 74</p>
                </triangles>
                <triangles count="3" material="default_ai_0.2_sh_0.2_tr_0.0_dc_r_1.0_g_0.2_b_0.2_sc_r_1.0_g_1.0_b_1.0_ec_r_0.0_g_0.0_b_0_tri">
                    <input offset="0" semantic="VERTEX" source="#geometry0-vertex"/>
                    <input offset="1" semantic="NORMAL" source="#geometry0-normal"/>
                    <p>0 54 1 55 2 56 3 57 0 58 2 59 4 60 0 61 3 62</p>
                </triangles>
            </mesh>
        </geometry>
    </library_geometries>
    <library_visual_scenes>
        <visual_scene id="Building_pb-96359a09-7f36-11f0-8a66-9c7bef4dcf4c">
            <node>
                <instance_geometry url="#geometry0">
                    <bind_material>
                        <technique_common>
                            <instance_material symbol="default_ai_0.2_sh_0.2_tr_0.0_dc_r_0.8_g_0.8_b_0.8_sc_r_1.0_g_1.0_b_1.0_ec_r_0.0_g_0.0_b_0_tri" target="#default_ai_0.2_sh_0.2_tr_0.0_dc_r_0.8_g_0.8_b_0.8_sc_r_1.0_g_1.0_b_1.0_ec_r_0.0_g_0.0_b_0_mat"/>
                            <instance_material symbol="default_ai_0.2_sh_0.2_tr_0.0_dc_r_1.0_g_0.2_b_0.2_sc_r_1.0_g_1.0_b_1.0_ec_r_0.0_g_0.0_b_0_tri" target="#default_ai_0.2_sh_0.2_tr_0.0_dc_r_1.0_g_0.2_b_0.2_sc_r_1.0_g_1.0_b_1.0_ec_r_0.0_g_0.0_b_0_mat"/>
                        </technique_common>
                    </bind_material>
                </instance_geometry>
            </node>
        </visual_scene>
    </library_visual_scenes>
    <scene>
        <instance_visual_scene url="#Building_pb-96359a09-7f36-11f0-8a66-9c7bef4dcf4c"/>
    </scene>
</COLLADA>
