<?xml version="1.0" encoding="UTF-8" standalone="yes"?>
<COLLADA xmlns="http://www.collada.org/2005/11/COLLADASchema" version="1.4.1">
    <asset>
        <contributor>
            <authoring_tool>3D City Database Importer/Exporter, version 5.5.1; Chair of Geoinformatics, Technical University of Munich</authoring_tool>
        </contributor>
        <created>2026-01-16T16:51:34.271</created>
        <modified>2026-01-16T16:51:34.271</modified>
        <unit meter="1.0" name="meters"/>
        <up_axis>Z_UP</up_axis>
    </asset>
    <library_materials>
        <material id="default_ai_0.2_sh_0.2_tr_0.0_dc_r_0.8_g_0.8_b_0.8_sc_r_1.0_g_1.0_b_1.0_ec_r_0.0_g_0.0_b_0_mat">
            <instance_effect url="#default_ai_0.2_sh_0.2_tr_0.0_dc_r_0.8_g_0.8_b_0.8_sc_r_1.0_g_1.0_b_1.0_ec_r_0.0_g_0.0_b_0_eff"/>
        </material>
        <material id="default_ai_0.2_sh_0.2_tr_0.0_dc_r_1.0_g_0.2_b_0.2_sc_r_1.0_g_1.0_b_1.0_ec_r_0.0_g_0.0_b_0_mat">
            <instance_effect url="#default_ai_0.2_sh_0.2_tr_0.0_dc_r_1.0_g_0.2_b_0.2_sc_r_1.0_g_1.0_b_1.0_ec_r_0.0_g_0.0_b_0_eff"/>
        </material>
    </library_materials>
    <library_effects>
        <effect id="default_ai_0.2_sh_0.2_tr_0.0_dc_r_0.8_g_0.8_b_0.8_sc_r_1.0_g_1.0_b_1.0_ec_r_0.0_g_0.0_b_0_eff">
            <profile_COMMON>
                <technique sid="COMMON">
                    <lambert>
                        <emission>
                            <color>0.0 0.0 0.0 1.0</color>
                        </emission>
                        <diffuse>
                            <color>0.8 0.8 0.8 1.0</color>
                        </diffuse>
                        <reflective>
                            <color>1.0 1.0 1.0 1.0</color>
                        </reflective>
                        <reflectivity>
                            <float>0.2</float>
                        </reflectivity>
                        <transparent opaque="A_ONE">
                            <color>1.0 1.0 1.0 1.0</color>
                        </transparent>
                        <transparency>
                            <float>1.0</float>
                        </transparency>
                    </lambert>
                </technique>
                <extra>
                    <technique profile="GOOGLEEARTH">
                        <double_sided>1</double_sided>
                    </technique>
                </extra>
            </profile_COMMON>
        </effect>
        <effect id="default_ai_0.2_sh_0.2_tr_0.0_dc_r_1.0_g_0.2_b_0.2_sc_r_1.0_g_1.0_b_1.0_ec_r_0.0_g_0.0_b_0_eff">
            <profile_COMMON>
                <technique sid="COMMON">
                    <lambert>
                        <emission>
                            <color>0.0 0.0 0.0 1.0</color>
                        </emission>
                        <diffuse>
                            <color>1.0 0.2 0.2 1.0</color>
                        </diffuse>
                        <reflective>
                            <color>1.0 1.0 1.0 1.0</color>
                        </reflective>
                        <reflectivity>
                            <float>0.2</float>
                        </reflectivity>
                        <transparent opaque="A_ONE">
                            <color>1.0 1.0 1.0 1.0</color>
                        </transparent>
                        <transparency>
                            <float>1.0</float>
                        </transparency>
                    </lambert>
                </technique>
                <extra>
                    <technique profile="GOOGLEEARTH">
                        <double_sided>1</double_sided>
                    </technique>
                </extra>
            </profile_COMMON>
        </effect>
    </library_effects>
    <library_geometries>
        <geometry id="geometry0">
            <mesh>
                <source id="geometry0-position">
                    <float_array id="geometry0-position-array" count="60">-6.3248983 -11.3577423 18.0000393 -31.669663 10.1962585 20.9769747 -34.8286596 4.5154877 18.0000383 -3.1624456 -5.678894 20.9769785 -28.5106359 15.8770142 18.0000383 -2.34E-5 -4.58E-5 18.0000393 -1.0E-5 -5.56E-5 4.29E-5 -28.5106378 15.8769891 18.000042 -1.1E-5 -5.56E-5 18.000042 -28.5106435 15.8769948 4.22E-5 -31.6696382 10.196243 20.9769803 -34.8286424 4.5154855 4.24E-5 -34.82865 4.5154874 18.0000439 -6.3248949 -11.3577292 18.0000439 -6.324894 -11.3577254 4.33E-5 -3.1624465 -5.6788962 20.9769822 -6.324852 -11.3576508 7.0E-7 -28.5106125 15.8770752 1.2E-6 0.0 0.0 0.0 -34.8286133 4.5155334 1.9E-6</float_array>
                    <technique_common>
                        <accessor count="20" source="#geometry0-position-array" stride="3">
                            <param name="X" type="float"/>
                            <param name="Y" type="float"/>
                            <param name="Z" type="float"/>
                        </accessor>
                    </technique_common>
                </source>
                <source id="geometry0-normal">
                    <float_array id="geometry0-normal-array" count="144">-0.8739592 0.4859993 4.0E-7 -0.8739592 0.4859993 4.0E-7 -0.8739592 0.4859993 4.0E-7 -0.8739596 0.4859986 2.0E-7 -0.8739596 0.4859986 2.0E-7 -0.8739596 0.4859986 2.0E-7 -0.8739586 0.4860002 -4.0E-7 -0.8739586 0.4860002 -4.0E-7 -0.8739586 0.4860002 -4.0E-7 -1.0E-7 -0.0 -1.0 -1.0E-7 -0.0 -1.0 -1.0E-7 -0.0 -1.0 -1.0E-7 -0.0 -1.0 -1.0E-7 -0.0 -1.0 -1.0E-7 -0.0 -1.0 0.2025879 0.3637899 0.9091838 0.2025879 0.3637899 0.9091838 0.2025879 0.3637899 0.9091838 0.2025886 0.3637907 0.9091833 0.2025886 0.3637907 0.9091833 0.2025886 0.3637907 0.9091833 -0.486528 -0.8736651 -1.0E-7 -0.486528 -0.8736651 -1.0E-7 -0.486528 -0.8736651 -1.0E-7 -0.4865279 -0.873665 -2.0E-7 -0.4865279 -0.873665 -2.0E-7 -0.4865279 -0.873665 -2.0E-7 0.486528 0.873665 1.0E-7 0.486528 0.873665 1.0E-7 0.486528 0.873665 1.0E-7 0.486528 0.873665 1.0E-7 0.486528 0.873665 1.0E-7 0.486528 0.873665 1.0E-7 0.8736643 -0.4865293 -0.0 0.8736643 -0.4865293 -0.0 0.8736643 -0.4865293 -0.0 0.8736648 -0.4865283 -4.0E-7 0.8736648 -0.4865283 -4.0E-7 0.8736648 -0.4865283 -4.0E-7 0.8736655 -0.4865272 0.0 0.8736655 -0.4865272 0.0 0.8736655 -0.4865272 0.0 -0.2025881 -0.3637899 0.9091837 -0.2025881 -0.3637899 0.9091837 -0.2025881 -0.3637899 0.9091837 -0.2025882 -0.36379 0.9091837 -0.2025882 -0.36379 0.9091837 -0.2025882 -0.36379 0.9091837</float_array>
                    <technique_common>
                        <accessor count="48" source="#geometry0-normal-array" stride="3">
                            <param name="X" type="float"/>
                            <param name="Y" type="float"/>
                            <param name="Z" type="float"/>
                        </accessor>
                    </technique_common>
                </source>
                <source id="geometry0-texCoords">
                    <float_array id="geometry0-texCoords-array" count="0"></float_array>
                    <technique_common>
                        <accessor count="0" source="#geometry0-texCoords-array" stride="2">
                            <param name="S" type="float"/>
                            <param name="T" type="float"/>
                        </accessor>
                    </technique_common>
                </source>
                <vertices id="geometry0-vertex">
                    <input semantic="POSITION" source="#geometry0-position"/>
                </vertices>
                <triangles count="12" material="default_ai_0.2_sh_0.2_tr_0.0_dc_r_0.8_g_0.8_b_0.8_sc_r_1.0_g_1.0_b_1.0_ec_r_0.0_g_0.0_b_0_tri">
                    <input offset="0" semantic="VERTEX" source="#geometry0-vertex"/>
                    <input offset="1" semantic="NORMAL" source="#geometry0-normal"/>
                    <p>9 0 10 1 7 2 11 3 10 4 9 5 12 6 10 7 11 8 16 9 17 10 18 11 19 12 17 13 16 14 11 21 13 22 12 23 14 24 13 25 11 26 6 27 7 28 8 29 9 30 7 31 6 32 14 33 15 34 13 35 6 36 15 37 14 38 8 39 15 40 6 41</p>
                </triangles>
                <triangles count="4" material="default_ai_0.2_sh_0.2_tr_0.0_dc_r_1.0_g_0.2_b_0.2_sc_r_1.0_g_1.0_b_1.0_ec_r_0.0_g_0.0_b_0_tri">
                    <input offset="0" semantic="VERTEX" source="#geometry0-vertex"/>
                    <input offset="1" semantic="NORMAL" source="#geometry0-normal"/>
                    <p>3 15 4 16 1 17 5 18 4 19 3 20 0 42 1 43 2 44 3 45 1 46 0 47</p>
                </triangles>
            </mesh>
        </geometry>
    </library_geometries>
    <library_visual_scenes>
        <visual_scene id="Building_pb-96359a01-7f36-11f0-9e07-9c7bef4dcf4c">
            <node>
                <instance_geometry url="#geometry0">
                    <bind_material>
                        <technique_common>
                            <instance_material symbol="default_ai_0.2_sh_0.2_tr_0.0_dc_r_0.8_g_0.8_b_0.8_sc_r_1.0_g_1.0_b_1.0_ec_r_0.0_g_0.0_b_0_tri" target="#default_ai_0.2_sh_0.2_tr_0.0_dc_r_0.8_g_0.8_b_0.8_sc_r_1.0_g_1.0_b_1.0_ec_r_0.0_g_0.0_b_0_mat"/>
                            <instance_material symbol="default_ai_0.2_sh_0.2_tr_0.0_dc_r_1.0_g_0.2_b_0.2_sc_r_1.0_g_1.0_b_1.0_ec_r_0.0_g_0.0_b_0_tri" target="#default_ai_0.2_sh_0.2_tr_0.0_dc_r_1.0_g_0.2_b_0.2_sc_r_1.0_g_1.0_b_1.0_ec_r_0.0_g_0.0_b_0_mat"/>
                        </technique_common>
                    </bind_material>
                </instance_geometry>
            </node>
        </visual_scene>
    </library_visual_scenes>
    <scene>
        <instance_visual_scene url="#Building_pb-96359a01-7f36-11f0-9e07-9c7bef4dcf4c"/>
    </scene>
</COLLADA>
