<?xml version="1.0" encoding="UTF-8" standalone="yes"?>
<COLLADA xmlns="http://www.collada.org/2005/11/COLLADASchema" version="1.4.1">
    <asset>
        <contributor>
            <authoring_tool>3D City Database Importer/Exporter, version 5.5.1; Chair of Geoinformatics, Technical University of Munich</authoring_tool>
        </contributor>
        <created>2026-01-16T16:51:34.456</created>
        <modified>2026-01-16T16:51:34.456</modified>
        <unit meter="1.0" name="meters"/>
        <up_axis>Z_UP</up_axis>
    </asset>
    <library_materials>
        <material id="default_dc_r_1.0_g_1.0_b_1_mat">
            <instance_effect url="#default_dc_r_1.0_g_1.0_b_1_eff"/>
        </material>
        <material id="default_dc_r_0.6_g_0.6_b_0_mat">
            <instance_effect url="#default_dc_r_0.6_g_0.6_b_0_eff"/>
        </material>
        <material id="default_dc_r_0.9_g_0.7_b_0_mat">
            <instance_effect url="#default_dc_r_0.9_g_0.7_b_0_eff"/>
        </material>
    </library_materials>
    <library_effects>
        <effect id="default_dc_r_1.0_g_1.0_b_1_eff">
            <profile_COMMON>
                <technique sid="COMMON">
                    <lambert>
                        <emission>
                            <color>0.0 0.0 0.0 1.0</color>
                        </emission>
                        <diffuse>
                            <color>1.0 1.0 1.0 1.0</color>
                        </diffuse>
                    </lambert>
                </technique>
                <extra>
                    <technique profile="GOOGLEEARTH">
                        <double_sided>1</double_sided>
                    </technique>
                </extra>
            </profile_COMMON>
        </effect>
        <effect id="default_dc_r_0.6_g_0.6_b_0_eff">
            <profile_COMMON>
                <technique sid="COMMON">
                    <lambert>
                        <emission>
                            <color>0.0 0.0 0.0 1.0</color>
                        </emission>
                        <diffuse>
                            <color>0.6 0.6 0.6 1.0</color>
                        </diffuse>
                    </lambert>
                </technique>
                <extra>
                    <technique profile="GOOGLEEARTH">
                        <double_sided>1</double_sided>
                    </technique>
                </extra>
            </profile_COMMON>
        </effect>
        <effect id="default_dc_r_0.9_g_0.7_b_0_eff">
            <profile_COMMON>
                <technique sid="COMMON">
                    <lambert>
                        <emission>
                            <color>0.0 0.0 0.0 1.0</color>
                        </emission>
                        <diffuse>
                            <color>0.9 0.7 0.4 1.0</color>
                        </diffuse>
                    </lambert>
                </technique>
                <extra>
                    <technique profile="GOOGLEEARTH">
                        <double_sided>1</double_sided>
                    </technique>
                </extra>
            </profile_COMMON>
        </effect>
    </library_effects>
    <library_geometries>
        <geometry id="geometry0">
            <mesh>
                <source id="geometry0-position">
                    <float_array id="geometry0-position-array" count="384">9.9491 -2.2198 3.503624 10.5112 -1.7221 3.324824 8.8919 -0.5311 4.250424 10.7067 -1.1529 3.324624 11.4099 0.894 3.323824 9.5241 -2.4211 3.666124 10.7936 -1.8196 3.180724 11.6485 1.5886 3.323524 9.8323 2.2133 4.250424 7.9963 -3.1451 4.250424 6.6366 0.2417 3.111224 7.026 -1.2493 3.518224 7.222 -1.6323 3.666124 7.5046 2.7463 3.115624 6.4857 -0.1936 3.110524 7.5875 2.9855 3.116124 5.5642 -0.0216 3.177824 2.5506 -0.8781 4.062624 14.2106 -8.8125 5.907524 11.8348 -2.1791 3.181924 14.075 -9.2057 6.113424 -0.5895 -4.1808 6.113424 0.0 0.0 4.060724 -5.4594 -2.5121 6.113424 14.1629 -8.9508 5.979924 0.7541 -0.2596 4.061224 6.4401 -0.3252 3.179424 0.4492 1.2985 3.380424 16.0027 -3.618 3.187024 3.1293 0.8223 3.173324 -2.6738 -7.7617 4.118024 -1.9073 -8.0266 4.117024 -0.1331 -8.6398 4.114624 -0.6896 -10.2754 3.266124 12.1517 -14.7804 3.217524 14.0298 -9.3367 6.045324 -0.7117 -10.3402 3.232524 -3.155 -9.1571 3.393224 -11.6735 -20.647 6.113424 -3.4941 -10.1405 3.394524 -7.5922 -8.7363 6.113424 -7.6023 -22.0549 3.409724 0.7781 2.2492 3.378624 -3.3439 3.6616 6.113424 2.841 8.2119 3.366824 -1.0649 10.3128 6.113424 3.0728 8.8819 3.365524 -15.3807 -17.8281 3.370424 -15.0539 -16.8809 3.371824 -5.4518 10.9462 3.411024 -5.7981 9.9426 3.409624 -15.8545 -19.2012 3.368524 -5.1794 11.7357 3.412224 0.7781 2.2492 3.3786 0.4492 1.2985 3.3804 0.0 0.0 0.0 3.0728 8.8819 0.0 2.841 8.2119 3.3669 0.0 0.0 4.0607 3.0728 8.8819 3.3655 0.7541 -0.2596 4.0613 2.5506 -0.8781 0.0 2.5506 -0.8781 4.0626 3.1293 0.8223 0.0 3.1293 0.8223 3.1734 5.5642 -0.0216 3.1778 6.4401 -0.3252 0.0 6.4401 -0.3252 3.1795 6.4857 -0.1936 3.1105 6.6366 0.2417 3.1112 7.5875 2.9855 0.0 7.5046 2.7463 3.1157 7.5875 2.9855 3.1161 11.6485 1.5886 0.0 9.8323 2.2133 4.2504 11.6485 1.5886 3.3236 11.4099 0.894 3.3238 10.5112 -1.7221 0.0 10.7067 -1.1529 3.3246 10.5112 -1.7221 3.3249 11.8348 -2.1791 3.182 16.0027 -3.618 0.0 10.7936 -1.8196 3.1807 16.0027 -3.618 3.187 14.2106 -8.8125 5.9075 14.0298 -9.3367 6.0454 12.1517 -14.7804 0.0 12.1517 -14.7804 3.2175 14.1629 -8.9508 5.9799 14.075 -9.2057 6.1134 -0.7117 -10.3402 3.2325 -0.7117 -10.3402 0.0 -0.6896 -10.2754 3.2662 -0.1331 -8.6398 0.0 -0.1331 -8.6398 4.1146 -1.9073 -8.0266 4.117 -2.6738 -7.7617 4.1181 -2.6738 -7.7617 0.0 -3.155 -9.1571 3.3932 -3.4941 -10.1405 3.3945 -7.6023 -22.0549 3.4097 -7.6023 -22.0549 0.0 -1.0649 10.3128 6.1134 -5.1794 11.7357 0.0 -5.1794 11.7357 3.4122 -11.6735 -20.647 6.1134 -15.8545 -19.2012 0.0 -15.8545 -19.2012 3.3685 -5.7981 9.9426 3.4096 -15.0539 -16.8809 3.3718 -15.3807 -17.8281 3.3704 -5.4518 10.9462 3.4111 6.4401 -0.3252 3.6E-5 10.5112 -1.7221 3.6E-5 -0.1331 -8.6398 3.6E-5 2.5506 -0.8781 3.6E-5 -5.1794 11.7357 3.6E-5 0.0 0.0 3.6E-5 -2.6738 -7.7617 3.6E-5 12.1517 -14.7804 3.6E-5 7.5875 2.9855 3.6E-5 3.1293 0.8223 3.6E-5 -15.8545 -19.2012 3.6E-5 3.0728 8.8819 3.6E-5 -7.6023 -22.0549 3.6E-5 -0.7117 -10.3402 3.6E-5 11.6485 1.5886 3.6E-5 16.0027 -3.618 3.6E-5</float_array>
                    <technique_common>
                        <accessor count="128" source="#geometry0-position-array" stride="3">
                            <param name="X" type="float"/>
                            <param name="Y" type="float"/>
                            <param name="Z" type="float"/>
                        </accessor>
                    </technique_common>
                </source>
                <source id="geometry0-normal">
                    <float_array id="geometry0-normal-array" count="1206">0.3263412 0.945252 1.1E-5 0.3263412 0.945252 1.1E-5 0.3263412 0.945252 1.1E-5 0.3263685 0.9452426 -1.7E-6 0.3263685 0.9452426 -1.7E-6 0.3263685 0.9452426 -1.7E-6 0.3263515 0.9452485 0.0 0.3263515 0.9452485 0.0 0.3263515 0.9452485 0.0 0.5028965 -0.1723217 0.8469949 0.5028965 -0.1723217 0.8469949 0.5028965 -0.1723217 0.8469949 0.3263338 0.9452546 0.0 0.3263338 0.9452546 0.0 0.3263338 0.9452546 0.0 0.5029009 -0.1723252 0.8469915 0.5029009 -0.1723252 0.8469915 0.5029009 -0.1723252 0.8469915 0.5028986 -0.1723237 0.8469931 0.5028986 -0.1723237 0.8469931 0.5028986 -0.1723237 0.8469931 0.502906 -0.1722943 0.8469949 0.502906 -0.1722943 0.8469949 0.502906 -0.1722943 0.8469949 0.5028853 -0.1723722 0.8469913 0.5028853 -0.1723722 0.8469913 0.5028853 -0.1723722 0.8469913 0.5029056 -0.1723129 0.8469912 0.5029056 -0.1723129 0.8469912 0.5029056 -0.1723129 0.8469912 0.5029088 -0.1723191 0.8469881 0.5029088 -0.1723191 0.8469881 0.5029088 -0.1723191 0.8469881 0.9453448 -0.3260724 -6.82E-5 0.9453448 -0.3260724 -6.82E-5 0.9453448 -0.3260724 -6.82E-5 0.5029089 -0.1723284 0.8469862 0.5029089 -0.1723284 0.8469862 0.5029089 -0.1723284 0.8469862 0.9453214 -0.3261401 0.0 0.9453214 -0.3261401 0.0 0.9453214 -0.3261401 0.0 0.5028969 -0.1723441 0.84699 0.5028969 -0.1723441 0.84699 0.5028969 -0.1723441 0.84699 0.9453235 -0.3261343 1.8E-6 0.9453235 -0.3261343 1.8E-6 0.9453235 -0.3261343 1.8E-6 0.9453494 -0.3260591 -1.16E-5 0.9453494 -0.3260591 -1.16E-5 0.9453494 -0.3260591 -1.16E-5 0.945341 -0.3260835 -1.726E-4 0.945341 -0.3260835 -1.726E-4 0.945341 -0.3260835 -1.726E-4 0.9453229 -0.3261361 0.0 0.9453229 -0.3261361 0.0 0.9453229 -0.3261361 0.0 -0.3262891 -0.94527 0.0 -0.3262891 -0.94527 0.0 -0.3262891 -0.94527 0.0 -0.3262891 -0.94527 0.0 -0.3262891 -0.94527 0.0 -0.3262891 -0.94527 0.0 0.4111902 -0.1408534 0.9006014 0.4111902 -0.1408534 0.9006014 0.4111902 -0.1408534 0.9006014 0.4111583 -0.140902 0.9006084 0.4111583 -0.140902 0.9006084 0.4111583 -0.140902 0.9006084 0.4111593 -0.1408991 0.9006084 0.4111593 -0.1408991 0.9006084 0.4111593 -0.1408991 0.9006084 0.4111055 -0.140919 0.9006299 0.4111055 -0.140919 0.9006299 0.4111055 -0.140919 0.9006299 0.4110409 -0.1406489 0.9007016 0.4110409 -0.1406489 0.9007016 0.4110409 -0.1406489 0.9007016 -0.4988054 0.1708404 0.8497098 -0.4988054 0.1708404 0.8497098 -0.4988054 0.1708404 0.8497098 0.4111777 -0.140854 0.900607 0.4111777 -0.140854 0.900607 0.4111777 -0.140854 0.900607 -0.4987549 0.1709046 0.8497266 -0.4987549 0.1709046 0.8497266 -0.4987549 0.1709046 0.8497266 0.4111902 -0.1408806 0.9005972 0.4111902 -0.1408806 0.9005972 0.4111902 -0.1408806 0.9005972 -0.4987525 0.1709017 0.8497285 -0.4987525 0.1709017 0.8497285 -0.4987525 0.1709017 0.8497285 0.4111539 -0.1408866 0.9006128 0.4111539 -0.1408866 0.9006128 0.4111539 -0.1408866 0.9006128 -0.4987628 0.1709167 0.8497194 -0.4987628 0.1709167 0.8497194 -0.4987628 0.1709167 0.8497194 -0.4987547 0.1709044 0.8497267 -0.4987547 0.1709044 0.8497267 -0.4987547 0.1709044 0.8497267 -0.498753 0.170923 0.849724 -0.498753 0.170923 0.849724 -0.498753 0.170923 0.849724 -0.4987536 0.1709045 0.8497273 -0.4987536 0.1709045 0.8497273 -0.4987536 0.1709045 0.8497273 -0.4987634 0.1708987 0.8497227 -0.4987634 0.1708987 0.8497227 -0.4987634 0.1708987 0.8497227 -0.4987851 0.1708037 0.8497291 -0.4987851 0.1708037 0.8497291 -0.4987851 0.1708037 0.8497291 -0.946694 0.3221343 1.46E-5 -0.946694 0.3221343 1.46E-5 -0.946694 0.3221343 1.46E-5 -0.9464699 0.3227921 0.0 -0.9464699 0.3227921 0.0 -0.9464699 0.3227921 0.0 -0.9467029 0.3221082 0.0 -0.9467029 0.3221082 0.0 -0.9467029 0.3221082 0.0 -0.3266401 -0.9451488 0.0 -0.3266401 -0.9451488 0.0 -0.3266401 -0.9451488 0.0 -0.3266544 -0.9451439 3.0E-6 -0.3266544 -0.9451439 3.0E-6 -0.3266544 -0.9451439 3.0E-6 -0.4078653 0.1397754 0.9022797 -0.4078653 0.1397754 0.9022797 -0.4078653 0.1397754 0.9022797 -0.3266605 -0.9451417 0.0 -0.3266605 -0.9451417 0.0 -0.3266605 -0.9451417 0.0 -0.407849 0.1397162 0.9022963 -0.407849 0.1397162 0.9022963 -0.407849 0.1397162 0.9022963 -0.4078749 0.139763 0.9022773 -0.4078749 0.139763 0.9022773 -0.4078749 0.139763 0.9022773 -0.4078615 0.1397401 0.9022869 -0.4078615 0.1397401 0.9022869 -0.4078615 0.1397401 0.9022869 -0.4078683 0.1397667 0.9022797 -0.4078683 0.1397667 0.9022797 -0.4078683 0.1397667 0.9022797 -0.4076376 0.1398594 0.9023696 -0.4076376 0.1398594 0.9023696 -0.4076376 0.1398594 0.9023696 -0.4079417 0.1394952 0.9022886 -0.4079417 0.1394952 0.9022886 -0.4079417 0.1394952 0.9022886 0.945044 -0.3269432 6.5E-6 0.945044 -0.3269432 6.5E-6 0.945044 -0.3269432 6.5E-6 0.945374 -0.3259877 9.1E-6 0.945374 -0.3259877 9.1E-6 0.945374 -0.3259877 9.1E-6 0.9453782 -0.3259755 0.0 0.9453782 -0.3259755 0.0 0.9453782 -0.3259755 0.0 0.9450405 -0.3269533 5.0E-7 0.9450405 -0.3269533 5.0E-7 0.9450405 -0.3269533 5.0E-7 0.9453768 -0.3259795 1.55E-5 0.9453768 -0.3259795 1.55E-5 0.9453768 -0.3259795 1.55E-5 0.9453672 -0.3260075 0.0 0.9453672 -0.3260075 0.0 0.9453672 -0.3260075 0.0 0.9450493 -0.3269281 0.0 0.9450493 -0.3269281 0.0 0.9450493 -0.3269281 0.0 0.9450422 -0.3269487 1.06E-5 0.9450422 -0.3269487 1.06E-5 0.9450422 -0.3269487 1.06E-5 0.9450398 -0.3269553 0.0 0.9450398 -0.3269553 0.0 0.9450398 -0.3269553 0.0 0.1438274 0.4197332 0.8961796 0.1438274 0.4197332 0.8961796 0.1438274 0.4197332 0.8961796 0.1438287 0.4197422 0.8961751 0.1438287 0.4197422 0.8961751 0.1438287 0.4197422 0.8961751 0.1438345 0.4197531 0.8961691 0.1438345 0.4197531 0.8961691 0.1438345 0.4197531 0.8961691 0.1438261 0.4196828 0.8962034 0.1438261 0.4196828 0.8962034 0.1438261 0.4196828 0.8962034 0.1438244 0.419776 0.89616 0.1438244 0.419776 0.89616 0.1438244 0.419776 0.89616 0.1438258 0.4197363 0.8961783 0.1438258 0.4197363 0.8961783 0.1438258 0.4197363 0.8961783 0.143823 0.4197302 0.8961816 0.143823 0.4197302 0.8961816 0.143823 0.4197302 0.8961816 0.1437015 0.4196247 0.8962505 0.1437015 0.4196247 0.8962505 0.1437015 0.4196247 0.8962505 0.1438428 0.4197506 0.896169 0.1438428 0.4197506 0.896169 0.1438428 0.4197506 0.896169 0.143894 0.4197177 0.8961762 0.143894 0.4197177 0.8961762 0.143894 0.4197177 0.8961762 0.1438119 0.4197457 0.8961762 0.1438119 0.4197457 0.8961762 0.1438119 0.4197457 0.8961762 0.1438423 0.4195945 0.8962421 0.1438423 0.4195945 0.8962421 0.1438423 0.4195945 0.8962421 0.1438602 0.4197665 0.8961587 0.1438602 0.4197665 0.8961587 0.1438602 0.4197665 0.8961587 0.1434527 0.4195663 0.8963177 0.1434527 0.4195663 0.8963177 0.1434527 0.4195663 0.8963177 0.143801 0.419767 0.8961679 0.143801 0.419767 0.8961679 0.143801 0.419767 0.8961679 0.1438113 0.4197386 0.8961796 0.1438113 0.4197386 0.8961796 0.1438113 0.4197386 0.8961796 0.1438218 0.4197469 0.896174 0.1438218 0.4197469 0.896174 0.1438218 0.4197469 0.896174 0.1438263 0.419734 0.8961793 0.1438263 0.419734 0.8961793 0.1438263 0.419734 0.8961793 0.1438308 0.4197433 0.8961742 0.1438308 0.4197433 0.8961742 0.1438308 0.4197433 0.8961742 0.3268313 0.9450827 1.7E-6 0.3268313 0.9450827 1.7E-6 0.3268313 0.9450827 1.7E-6 0.3268335 0.945082 0.0 0.3268335 0.945082 0.0 0.3268335 0.945082 0.0 0.326829 0.9450835 0.0 0.326829 0.9450835 0.0 0.326829 0.9450835 0.0 0.3255211 0.9455348 -3.6E-6 0.3255211 0.9455348 -3.6E-6 0.3255211 0.9455348 -3.6E-6 0.3255037 0.9455407 0.0 0.3255037 0.9455407 0.0 0.3255037 0.9455407 0.0 0.3255284 0.9455323 0.0 0.3255284 0.9455323 0.0 0.3255284 0.9455323 0.0 -0.3268209 -0.9450862 5.5E-6 -0.3268209 -0.9450862 5.5E-6 -0.3268209 -0.9450862 5.5E-6 -0.3268138 -0.9450887 0.0 -0.3268138 -0.9450887 0.0 -0.3268138 -0.9450887 0.0 -0.3268283 -0.9450837 0.0 -0.3268283 -0.9450837 0.0 -0.3268283 -0.9450837 0.0 -0.946677 0.3221842 0.0 -0.946677 0.3221842 0.0 -0.946677 0.3221842 0.0 -0.946677 0.3221842 0.0 -0.946677 0.3221842 0.0 -0.946677 0.3221842 0.0 0.3274811 0.9448577 -5.7E-6 0.3274811 0.9448577 -5.7E-6 0.3274811 0.9448577 -5.7E-6 0.3274744 0.94486 0.0 0.3274744 0.94486 0.0 0.3274744 0.94486 0.0 -0.9453043 0.3261896 9.0E-6 -0.9453043 0.3261896 9.0E-6 -0.9453043 0.3261896 9.0E-6 0.3274994 0.9448513 0.0 0.3274994 0.9448513 0.0 0.3274994 0.9448513 0.0 -0.9453178 0.3261507 1.59E-5 -0.9453178 0.3261507 1.59E-5 -0.9453178 0.3261507 1.59E-5 -0.9453052 0.3261874 -1.24E-5 -0.9453052 0.3261874 -1.24E-5 -0.9453052 0.3261874 -1.24E-5 -0.9453058 0.3261856 0.0 -0.9453058 0.3261856 0.0 -0.9453058 0.3261856 0.0 -0.9453059 0.3261853 6.4E-6 -0.9453059 0.3261853 6.4E-6 -0.9453059 0.3261853 6.4E-6 -0.9453143 0.3261606 0.0 -0.9453143 0.3261606 0.0 -0.9453143 0.3261606 0.0 -0.9448389 0.3275353 -6.1E-6 -0.9448389 0.3275353 -6.1E-6 -0.9448389 0.3275353 -6.1E-6 -0.9448636 0.3274644 8.4E-6 -0.9448636 0.3274644 8.4E-6 -0.9448636 0.3274644 8.4E-6 -0.9448667 0.3274552 -7.0E-7 -0.9448667 0.3274552 -7.0E-7 -0.9448667 0.3274552 -7.0E-7 -0.9448837 0.3274061 0.0 -0.9448837 0.3274061 0.0 -0.9448837 0.3274061 0.0 -0.9448639 0.3274633 0.0 -0.9448639 0.3274633 0.0 -0.9448639 0.3274633 0.0 0.0 0.0 -1.0 0.0 0.0 -1.0 0.0 0.0 -1.0 0.0 0.0 -1.0 0.0 0.0 -1.0 0.0 0.0 -1.0 0.0 0.0 -1.0 0.0 0.0 -1.0 0.0 0.0 -1.0 0.0 0.0 -1.0 0.0 0.0 -1.0 0.0 0.0 -1.0 0.0 0.0 -1.0 0.0 0.0 -1.0 0.0 0.0 -1.0 0.0 0.0 -1.0 0.0 0.0 -1.0 0.0 0.0 -1.0 0.3252737 0.9456199 0.0 0.3252737 0.9456199 0.0 0.3252737 0.9456199 0.0 0.0 0.0 -1.0 0.0 0.0 -1.0 0.0 0.0 -1.0 0.3252817 0.9456171 1.17E-5 0.3252817 0.9456171 1.17E-5 0.3252817 0.9456171 1.17E-5 0.0 0.0 -1.0 0.0 0.0 -1.0 0.0 0.0 -1.0 0.3252572 0.9456256 0.0 0.3252572 0.9456256 0.0 0.3252572 0.9456256 0.0 0.0 0.0 -1.0 0.0 0.0 -1.0 0.0 0.0 -1.0 0.0 0.0 -1.0 0.0 0.0 -1.0 0.0 0.0 -1.0 0.0 0.0 -1.0 0.0 0.0 -1.0 0.0 0.0 -1.0 0.0 0.0 -1.0 0.0 0.0 -1.0 0.0 0.0 -1.0 -0.1429358 -0.4169797 0.8976064 -0.1429358 -0.4169797 0.8976064 -0.1429358 -0.4169797 0.8976064 0.0 0.0 -1.0 0.0 0.0 -1.0 0.0 0.0 -1.0 -0.1429061 -0.4169899 0.8976064 -0.1429061 -0.4169899 0.8976064 -0.1429061 -0.4169899 0.8976064 0.0 0.0 -1.0 0.0 0.0 -1.0 0.0 0.0 -1.0 -0.1429031 -0.417022 0.8975919 -0.1429031 -0.417022 0.8975919 -0.1429031 -0.417022 0.8975919 -0.1428816 -0.4169823 0.8976139 -0.1428816 -0.4169823 0.8976139 -0.1428816 -0.4169823 0.8976139 -0.1428779 -0.4172564 0.897487 -0.1428779 -0.4172564 0.897487 -0.1428779 -0.4172564 0.897487 -0.1428164 -0.4167764 0.8977198 -0.1428164 -0.4167764 0.8977198 -0.1428164 -0.4167764 0.8977198 -0.1428845 -0.4169893 0.8976101 -0.1428845 -0.4169893 0.8976101 -0.1428845 -0.4169893 0.8976101 -0.1428891 -0.4170046 0.8976023 -0.1428891 -0.4170046 0.8976023 -0.1428891 -0.4170046 0.8976023 -0.1428392 -0.4169847 0.8976195 -0.1428392 -0.4169847 0.8976195 -0.1428392 -0.4169847 0.8976195 0.9457527 -0.3248875 -2.9E-6 0.9457527 -0.3248875 -2.9E-6 0.9457527 -0.3248875 -2.9E-6 0.9457694 -0.3248388 0.0 0.9457694 -0.3248388 0.0 0.9457694 -0.3248388 0.0 0.9457569 -0.3248751 0.0 0.9457569 -0.3248751 0.0 0.9457569 -0.3248751 0.0 0.9457466 -0.3249052 1.27E-5 0.9457466 -0.3249052 1.27E-5 0.9457466 -0.3249052 1.27E-5</float_array>
                    <technique_common>
                        <accessor count="402" source="#geometry0-normal-array" stride="3">
                            <param name="X" type="float"/>
                            <param name="Y" type="float"/>
                            <param name="Z" type="float"/>
                        </accessor>
                    </technique_common>
                </source>
                <source id="geometry0-texCoords">
                    <float_array id="geometry0-texCoords-array" count="0"></float_array>
                    <technique_common>
                        <accessor count="0" source="#geometry0-texCoords-array" stride="2">
                            <param name="S" type="float"/>
                            <param name="T" type="float"/>
                        </accessor>
                    </technique_common>
                </source>
                <vertices id="geometry0-vertex">
                    <input semantic="POSITION" source="#geometry0-position"/>
                </vertices>
                <triangles count="61" material="default_dc_r_0.6_g_0.6_b_0_tri">
                    <input offset="0" semantic="VERTEX" source="#geometry0-vertex"/>
                    <input offset="1" semantic="NORMAL" source="#geometry0-normal"/>
                    <p>38 9 39 10 40 11 37 15 23 16 40 17 41 18 39 19 38 20 39 21 37 22 40 23 42 24 43 25 27 26 44 27 43 28 42 29 45 30 43 31 44 32 43 36 23 37 27 38 46 42 45 43 44 44 0 63 1 64 2 65 1 66 3 67 2 68 3 69 4 70 2 71 0 72 2 73 5 74 0 75 6 76 1 77 47 78 38 79 48 80 4 81 7 82 8 83 40 84 23 85 48 86 2 87 9 88 5 89 38 90 40 91 48 92 4 93 8 94 2 95 45 96 49 97 50 98 48 99 23 100 50 101 51 102 38 103 47 104 23 105 43 106 50 107 43 108 45 109 50 110 52 111 49 112 45 113 2 129 10 130 11 131 12 135 2 136 11 137 8 138 13 139 2 140 9 141 2 142 12 143 13 144 10 145 2 146 10 147 14 148 11 149 8 150 15 151 13 152 16 180 17 181 11 182 5 183 9 184 18 185 9 186 12 187 17 188 12 189 11 190 17 191 0 192 5 193 19 194 20 195 9 196 21 197 21 198 22 199 23 200 9 201 24 202 18 203 20 204 24 205 9 206 25 207 22 208 21 209 17 210 25 211 21 212 0 213 19 214 6 215 16 216 11 217 26 218 26 219 11 220 14 221 23 222 22 223 27 224 28 225 19 226 18 227 16 228 29 229 17 230 9 231 17 232 21 233 19 234 5 235 18 236 21 357 30 358 31 359 21 363 31 364 32 365 32 369 33 370 34 371 35 372 32 373 34 374 20 375 32 376 35 377 33 378 36 379 34 380 20 381 21 382 32 383 23 384 30 385 21 386 23 387 37 388 30 389</p>
                </triangles>
                <triangles count="59" material="default_dc_r_1.0_g_1.0_b_1_tri">
                    <input offset="0" semantic="VERTEX" source="#geometry0-vertex"/>
                    <input offset="1" semantic="NORMAL" source="#geometry0-normal"/>
                    <p>80 0 81 1 77 2 82 3 80 4 77 5 82 6 77 7 79 8 83 12 81 13 80 14 84 33 85 34 86 35 85 39 87 40 86 41 81 45 84 46 86 47 88 48 85 49 84 50 89 51 85 52 88 53 83 54 84 55 81 56 90 57 91 58 87 59 91 60 86 61 87 62 92 114 93 115 91 116 92 117 91 118 90 119 94 120 93 121 92 122 95 123 96 124 97 125 93 126 95 127 97 128 94 132 95 133 93 134 53 153 54 154 55 155 98 156 99 157 97 158 99 159 100 160 101 161 56 162 57 163 53 164 97 165 99 166 101 167 96 168 98 169 97 170 54 171 58 172 55 173 56 174 53 175 55 176 59 177 57 178 56 179 102 237 56 238 103 239 102 240 103 241 104 242 59 243 56 244 102 245 60 246 61 247 55 248 60 249 55 250 58 251 62 252 61 253 60 254 105 255 106 256 101 257 105 258 107 259 106 260 100 261 105 262 101 263 63 264 61 265 64 266 61 267 62 268 64 269 65 270 66 271 63 272 65 273 63 274 64 275 108 276 103 277 109 278 67 279 66 280 65 281 110 282 109 283 106 284 109 285 103 286 106 287 110 288 106 289 107 290 111 291 103 292 108 293 104 294 103 295 111 296 68 297 69 298 66 299 69 300 70 301 66 302 71 303 70 304 69 305 68 306 66 307 67 308 72 309 70 310 71 311 73 330 70 331 72 332 74 336 73 337 72 338 75 342 73 343 74 344 73 390 76 391 77 392 78 393 79 394 77 395 75 396 76 397 73 398 76 399 78 400 77 401</p>
                </triangles>
                <triangles count="14" material="default_dc_r_0.9_g_0.7_b_0_tri">
                    <input offset="0" semantic="VERTEX" source="#geometry0-vertex"/>
                    <input offset="1" semantic="NORMAL" source="#geometry0-normal"/>
                    <p>112 312 113 313 114 314 115 315 112 316 114 317 116 318 117 319 118 320 114 321 113 322 119 323 115 324 114 325 117 326 120 327 113 328 112 329 112 333 115 334 121 335 117 339 114 340 118 341 116 345 118 346 122 347 123 348 117 349 116 350 118 351 124 352 122 353 125 354 114 355 119 356 126 360 113 361 120 362 127 366 119 367 113 368</p>
                </triangles>
            </mesh>
        </geometry>
    </library_geometries>
    <library_visual_scenes>
        <visual_scene id="Building_FME_4e9897af-a7ac-4244-810b-e39818c58e04">
            <node>
                <instance_geometry url="#geometry0">
                    <bind_material>
                        <technique_common>
                            <instance_material symbol="default_dc_r_0.6_g_0.6_b_0_tri" target="#default_dc_r_0.6_g_0.6_b_0_mat"/>
                            <instance_material symbol="default_dc_r_1.0_g_1.0_b_1_tri" target="#default_dc_r_1.0_g_1.0_b_1_mat"/>
                            <instance_material symbol="default_dc_r_0.9_g_0.7_b_0_tri" target="#default_dc_r_0.9_g_0.7_b_0_mat"/>
                        </technique_common>
                    </bind_material>
                </instance_geometry>
            </node>
        </visual_scene>
    </library_visual_scenes>
    <scene>
        <instance_visual_scene url="#Building_FME_4e9897af-a7ac-4244-810b-e39818c58e04"/>
    </scene>
</COLLADA>
