<?xml version="1.0" encoding="UTF-8" standalone="yes"?>
<COLLADA xmlns="http://www.collada.org/2005/11/COLLADASchema" version="1.4.1">
    <asset>
        <contributor>
            <authoring_tool>3D City Database Importer/Exporter, version 5.5.1; Chair of Geoinformatics, Technical University of Munich</authoring_tool>
        </contributor>
        <created>2026-01-16T16:51:34.412</created>
        <modified>2026-01-16T16:51:34.412</modified>
        <unit meter="1.0" name="meters"/>
        <up_axis>Z_UP</up_axis>
    </asset>
    <library_materials>
        <material id="default_dc_r_1.0_g_1.0_b_1_mat">
            <instance_effect url="#default_dc_r_1.0_g_1.0_b_1_eff"/>
        </material>
        <material id="default_dc_r_0.6_g_0.6_b_0_mat">
            <instance_effect url="#default_dc_r_0.6_g_0.6_b_0_eff"/>
        </material>
        <material id="default_dc_r_0.9_g_0.7_b_0_mat">
            <instance_effect url="#default_dc_r_0.9_g_0.7_b_0_eff"/>
        </material>
    </library_materials>
    <library_effects>
        <effect id="default_dc_r_1.0_g_1.0_b_1_eff">
            <profile_COMMON>
                <technique sid="COMMON">
                    <lambert>
                        <emission>
                            <color>0.0 0.0 0.0 1.0</color>
                        </emission>
                        <diffuse>
                            <color>1.0 1.0 1.0 1.0</color>
                        </diffuse>
                    </lambert>
                </technique>
                <extra>
                    <technique profile="GOOGLEEARTH">
                        <double_sided>1</double_sided>
                    </technique>
                </extra>
            </profile_COMMON>
        </effect>
        <effect id="default_dc_r_0.6_g_0.6_b_0_eff">
            <profile_COMMON>
                <technique sid="COMMON">
                    <lambert>
                        <emission>
                            <color>0.0 0.0 0.0 1.0</color>
                        </emission>
                        <diffuse>
                            <color>0.6 0.6 0.6 1.0</color>
                        </diffuse>
                    </lambert>
                </technique>
                <extra>
                    <technique profile="GOOGLEEARTH">
                        <double_sided>1</double_sided>
                    </technique>
                </extra>
            </profile_COMMON>
        </effect>
        <effect id="default_dc_r_0.9_g_0.7_b_0_eff">
            <profile_COMMON>
                <technique sid="COMMON">
                    <lambert>
                        <emission>
                            <color>0.0 0.0 0.0 1.0</color>
                        </emission>
                        <diffuse>
                            <color>0.9 0.7 0.4 1.0</color>
                        </diffuse>
                    </lambert>
                </technique>
                <extra>
                    <technique profile="GOOGLEEARTH">
                        <double_sided>1</double_sided>
                    </technique>
                </extra>
            </profile_COMMON>
        </effect>
    </library_effects>
    <library_geometries>
        <geometry id="geometry0">
            <mesh>
                <source id="geometry0-position">
                    <float_array id="geometry0-position-array" count="672">-1.8714 0.4251 2.693088 -3.4592 -2.412 2.693088 -1.8501 -3.3086 2.693088 -0.265 -0.4739 2.693088 -6.9204 8.9425 4.729888 -6.923 8.9378 4.729888 -6.9192 8.9418 4.730588 -8.3898 9.7675 2.273088 -8.3934 9.7607 2.273088 -6.9204 8.9425 2.273088 -6.923 8.9378 2.273088 -1.8714 0.4251 4.613088 -4.1624 -2.0202 5.109988 -4.1571 -2.0232 5.106188 -3.8339 -2.2032 4.877888 -3.6344 -2.3143 4.736888 -1.948 0.6712 4.728488 -5.9326 -1.0339 6.360788 -5.9933 -1.0001 6.403688 -3.0593 4.2422 6.403688 -7.1783 -0.3399 7.240888 -3.4592 -2.412 4.613088 -7.1955 -0.3303 7.253088 -3.3723 6.5008 7.253088 -0.6941 5.0019 5.358788 -9.0345 5.1651 4.729888 -8.6256 4.8071 5.042688 -6.5559 8.5328 5.034688 -10.0158 6.8445 3.743388 -9.2056 3.7002 5.062988 -7.3553 -0.2413 7.145388 -3.7475 6.9687 6.925988 -9.6215 2.957 5.062988 -9.6967 2.8868 5.044488 -8.4768 9.6026 3.740988 -8.4796 9.5974 3.741088 -8.4741 9.6076 3.740988 -9.1957 3.785 5.043688 -9.0489 5.0414 4.757988 -8.4402 9.672 3.739888 -6.0765 8.2658 5.357588 -6.5371 8.5665 5.034688 -9.0908 5.0645 4.729888 -6.4942 8.6435 5.034588 -8.4049 9.7388 3.738788 -9.2341 3.7161 5.043788 -5.3734 7.8742 5.831088 -10.4963 5.9833 3.744188 -9.649 2.9724 5.044488 -8.3934 9.7607 3.738388 -3.5617 6.8653 7.051088 -7.3036 -0.2701 7.180288 -10.4727 1.4955 5.045888 -6.4689 8.689 5.034488 -3.2618 6.6982 7.253088 0.5625 4.7736 4.613088 0.5641 4.7764 4.613088 0.5638 4.7766 4.613488 0.1738 4.9943 5.253188 0.2534 4.9466 5.120488 0.1725 4.9919 5.253188 -0.6603 5.2494 6.474188 -0.6941 5.0019 6.343288 -0.496 5.1579 6.204688 -3.2618 6.6982 10.738988 -3.3723 6.5008 10.738988 -0.3908 5.0993 6.032288 1.2564 1.9661 6.333788 0.5625 4.7736 5.120488 0.0847 4.8345 5.224088 0.0978 4.858 5.208588 0.0157 4.8729 5.224188 2.1962 3.6585 5.221188 2.1948 3.656 5.222788 2.282 3.8112 5.120488 -0.3908 5.0993 5.224688 0.1725 4.9919 5.120488 1.2278 1.9145 6.367688 1.1974 1.8597 6.403688 1.1354 1.7481 6.320488 0.0 0.0 4.966588 -0.2598 -0.4646 4.619988 -0.265 -0.4739 4.613088 0.1281 -0.0659 4.969788 -3.3723 6.5008 10.738964 -3.3723 6.5008 7.253064 -0.6941 5.0019 6.343264 -0.6941 5.0019 5.358764 -6.923 8.9378 2.273064 -8.3934 9.7607 2.273064 -8.3934 9.7607 3.738464 -6.923 8.9378 4.729864 -6.9204 8.9425 2.273064 -6.9204 8.9425 4.729864 -3.2618 6.6982 10.738964 -3.2618 6.6982 7.253064 -0.3908 5.0993 6.032264 -0.3908 5.0993 5.224764 0.1725 4.9919 5.253264 0.1725 4.9919 5.120464 0.2534 4.9466 5.120464 0.5625 4.7736 4.613064 0.5625 4.7736 5.120464 -1.8714 0.4251 4.613064 -1.8714 0.4251 2.693064 -0.265 -0.4739 2.693064 -0.265 -0.4739 4.613064 -3.4592 -2.412 4.613064 -3.4592 -2.412 2.693064 -8.4768 9.6026 6.4E-5 -8.4796 9.5974 6.4E-5 -8.4768 9.6026 3.741064 -8.4796 9.5974 3.741064 -8.4402 9.672 3.739864 -8.4402 9.672 6.4E-5 -8.4741 9.6076 3.740964 -8.4049 9.7388 3.738764 -8.3934 9.7607 6.4E-5 -8.3898 9.7675 2.273064 -8.3898 9.7675 6.4E-5 -6.4689 8.689 6.4E-5 -6.4689 8.689 5.034464 -6.9192 8.9418 4.730664 -6.4942 8.6435 5.034564 -6.5559 8.5328 6.4E-5 -6.5371 8.5665 5.034664 -6.5559 8.5328 5.034664 -0.6603 5.2494 6.474164 -3.5617 6.8653 7.051064 -3.7475 6.9687 6.925964 -5.3734 7.8742 5.831064 -6.0765 8.2658 5.357564 -0.3908 5.0993 6.4E-5 -0.496 5.1579 6.204764 0.0157 4.8729 5.224164 0.0847 4.8345 6.4E-5 0.0847 4.8345 5.224064 0.1725 4.9919 6.4E-5 0.0978 4.858 5.208564 0.1738 4.9943 6.4E-5 0.1738 4.9943 5.253264 0.5641 4.7764 4.613064 0.5641 4.7764 6.4E-5 0.5638 4.7766 4.613564 0.5625 4.7736 6.4E-5 2.282 3.8112 6.4E-5 2.282 3.8112 5.120464 2.1962 3.6585 5.221164 2.1962 3.6585 6.4E-5 2.1948 3.656 5.222764 2.1948 3.656 6.4E-5 0.1281 -0.0659 4.969864 1.2564 1.9661 6.333764 1.1354 1.7481 6.320464 1.2278 1.9145 6.367664 0.1281 -0.0659 6.4E-5 1.1974 1.8597 6.403664 0.0 0.0 4.966564 0.0 0.0 6.4E-5 -0.2598 -0.4646 4.619964 -1.8501 -3.3086 2.693064 -1.8501 -3.3086 6.4E-5 -3.8339 -2.2032 6.4E-5 -3.8339 -2.2032 4.877864 -3.6344 -2.3143 4.736964 -4.1624 -2.0202 5.109964 -5.9326 -1.0339 6.360764 -4.1571 -2.0232 5.106164 -5.9933 -1.0001 6.403664 -10.4727 1.4955 5.045964 -10.4727 1.4955 6.4E-5 -7.1783 -0.3399 7.240864 -7.3036 -0.2701 7.180264 -7.3553 -0.2413 7.145464 -7.1955 -0.3303 7.253064 -9.6967 2.8868 5.044564 -9.649 2.9724 6.4E-5 -9.649 2.9724 5.044464 -9.6215 2.957 6.4E-5 -9.6215 2.957 5.062964 -9.2056 3.7002 6.4E-5 -9.2056 3.7002 5.062964 -9.2341 3.7161 5.043764 -9.2341 3.7161 6.4E-5 -9.1957 3.785 5.043664 -8.6256 4.8071 6.4E-5 -8.6256 4.8071 5.042664 -9.0908 5.0645 4.729864 -9.0908 5.0645 6.4E-5 -9.0489 5.0414 4.757964 -9.0345 5.1651 6.4E-5 -9.0345 5.1651 4.729864 -10.4963 5.9833 3.744164 -10.4963 5.9833 6.4E-5 -10.0158 6.8445 3.743464 0.0 0.0 0.0 0.0847 4.8345 0.0 0.5625 4.7736 0.0 -8.6256 4.8071 0.0 -0.3908 5.0993 0.0 -3.8339 -2.2032 0.0 -9.0345 5.1651 0.0 -6.5559 8.5328 0.0 -8.4796 9.5974 0.0 2.1948 3.656 0.0 -9.2056 3.7002 0.0 0.1725 4.9919 0.0 2.1962 3.6585 0.0 -8.4768 9.6026 0.0 -8.4402 9.672 0.0 -6.4689 8.689 0.0 0.5641 4.7764 0.0 2.282 3.8112 0.0 -9.6215 2.957 0.0 -9.0908 5.0645 0.0 -10.4963 5.9833 0.0 0.1281 -0.0659 0.0 -9.2341 3.7161 0.0 -8.3934 9.7607 0.0 0.1738 4.9943 0.0 -1.8501 -3.3086 0.0 -10.4727 1.4955 0.0 -8.3898 9.7675 0.0 -9.649 2.9724 0.0</float_array>
                    <technique_common>
                        <accessor count="224" source="#geometry0-position-array" stride="3">
                            <param name="X" type="float"/>
                            <param name="Y" type="float"/>
                            <param name="Z" type="float"/>
                        </accessor>
                    </technique_common>
                </source>
                <source id="geometry0-normal">
                    <float_array id="geometry0-normal-array" count="1989">-0.4867222 -0.8735569 -5.3E-6 -0.4867222 -0.8735569 -5.3E-6 -0.4867222 -0.8735569 -5.3E-6 -0.492918 -0.8700756 -5.283E-4 -0.492918 -0.8700756 -5.283E-4 -0.492918 -0.8700756 -5.283E-4 -0.486634 -0.8736058 -2.518E-4 -0.486634 -0.8736058 -2.518E-4 -0.486634 -0.8736058 -2.518E-4 -0.8844439 0.4666464 1.31E-5 -0.8844439 0.4666464 1.31E-5 -0.8844439 0.4666464 1.31E-5 -0.4866961 -0.8735713 5.9E-6 -0.4866961 -0.8735713 5.9E-6 -0.4866961 -0.8735713 5.9E-6 -0.8841407 0.4672206 0.0 -0.8841407 0.4672206 0.0 -0.8841407 0.4672206 0.0 -0.486657 -0.8735932 2.14E-5 -0.486657 -0.8735932 2.14E-5 -0.486657 -0.8735932 2.14E-5 -0.8853678 0.4648913 0.0 -0.8853678 0.4648913 0.0 -0.8853678 0.4648913 0.0 -0.4866909 -0.8735743 -6.4E-6 -0.4866909 -0.8735743 -6.4E-6 -0.4866909 -0.8735743 -6.4E-6 -0.4865606 -0.8736469 0.0 -0.4865606 -0.8736469 0.0 -0.4865606 -0.8736469 0.0 -0.4866898 -0.8735749 0.0 -0.4866898 -0.8735749 0.0 -0.4866898 -0.8735749 0.0 -0.4866681 -0.873587 4.83E-5 -0.4866681 -0.873587 4.83E-5 -0.4866681 -0.873587 4.83E-5 -0.4869396 -0.8734353 7.873E-4 -0.4869396 -0.8734353 7.873E-4 -0.4869396 -0.8734353 7.873E-4 -0.8837729 0.4679162 0.0 -0.8837729 0.4679162 0.0 -0.8837729 0.4679162 0.0 -0.8837729 0.4679162 0.0 -0.8837729 0.4679162 0.0 -0.8837729 0.4679162 0.0 0.4895679 0.8719651 0.0 0.4895679 0.8719651 0.0 0.4895679 0.8719651 0.0 0.4895692 0.8719644 -1.1E-6 0.4895692 0.8719644 -1.1E-6 0.4895692 0.8719644 -1.1E-6 0.4895734 0.8719621 0.0 0.4895734 0.8719621 0.0 0.4895734 0.8719621 0.0 0.503807 0.8638163 0.0 0.503807 0.8638163 0.0 0.503807 0.8638163 0.0 0.4895302 0.8719864 9.3E-6 0.4895302 0.8719864 9.3E-6 0.4895302 0.8719864 9.3E-6 -0.8733528 0.4870883 7.1E-6 -0.8733528 0.4870883 7.1E-6 -0.8733528 0.4870883 7.1E-6 -0.8733418 0.4871079 0.0 -0.8733418 0.4871079 0.0 -0.8733418 0.4871079 0.0 -0.8735309 0.4867688 0.0 -0.8735309 0.4867688 0.0 -0.8735309 0.4867688 0.0 0.6456915 -0.3689744 0.6685359 0.6456915 -0.3689744 0.6685359 0.6456915 -0.3689744 0.6685359 0.7298002 -0.3740814 0.5722367 0.7298002 -0.3740814 0.5722367 0.7298002 -0.3740814 0.5722367 0.7217836 -0.3891247 0.5723725 0.7217836 -0.3891247 0.5723725 0.7217836 -0.3891247 0.5723725 0.7207958 -0.390446 0.5727174 0.7207958 -0.390446 0.5727174 0.7207958 -0.390446 0.5727174 0.87363 -0.486591 -7.3E-6 0.87363 -0.486591 -7.3E-6 0.87363 -0.486591 -7.3E-6 0.8732973 -0.4871876 0.0 0.8732973 -0.4871876 0.0 0.8732973 -0.4871876 0.0 0.8735715 -0.4866958 -4.3E-6 0.8735715 -0.4866958 -4.3E-6 0.8735715 -0.4866958 -4.3E-6 0.4885997 0.8725082 0.0 0.4885997 0.8725082 0.0 0.4885997 0.8725082 0.0 0.8739749 -0.4859711 0.0 0.8739749 -0.4859711 0.0 0.8739749 -0.4859711 0.0 0.4885997 0.8725082 0.0 0.4885997 0.8725082 0.0 0.4885997 0.8725082 0.0 -0.8726521 0.4883425 0.0 -0.8726521 0.4883425 0.0 -0.8726521 0.4883425 0.0 -0.8726521 0.4883425 0.0 -0.8726521 0.4883425 0.0 -0.8726521 0.4883425 0.0 0.4865444 0.873656 -9.8E-6 0.4865444 0.873656 -9.8E-6 0.4865444 0.873656 -9.8E-6 0.4866423 0.8736014 1.718E-4 0.4866423 0.8736014 1.718E-4 0.4866423 0.8736014 1.718E-4 0.4864352 0.8737166 -2.994E-4 0.4864352 0.8737166 -2.994E-4 0.4864352 0.8737166 -2.994E-4 0.4865527 0.8736512 4.5E-6 0.4865527 0.8736512 4.5E-6 0.4865527 0.8736512 4.5E-6 0.4865831 0.8736343 -1.6E-6 0.4865831 0.8736343 -1.6E-6 0.4865831 0.8736343 -1.6E-6 0.4865571 0.8736488 5.4E-6 0.4865571 0.8736488 5.4E-6 0.4865571 0.8736488 5.4E-6 0.4865699 0.8736417 0.0 0.4865699 0.8736417 0.0 0.4865699 0.8736417 0.0 0.4865523 0.8736514 0.0 0.4865523 0.8736514 0.0 0.4865523 0.8736514 0.0 -0.4871935 -0.8732941 0.0 -0.4871935 -0.8732941 0.0 -0.4871935 -0.8732941 0.0 0.4865466 0.8736547 0.0 0.4865466 0.8736547 0.0 0.4865466 0.8736547 0.0 -0.4871935 -0.8732941 0.0 -0.4871935 -0.8732941 0.0 -0.4871935 -0.8732941 0.0 0.4866294 0.8736085 0.0 0.4866294 0.8736085 0.0 0.4866294 0.8736085 0.0 0.486529 0.8736644 -1.41E-5 0.486529 0.8736644 -1.41E-5 0.486529 0.8736644 -1.41E-5 -0.873344 0.4871039 -4.9E-6 -0.873344 0.4871039 -4.9E-6 -0.873344 0.4871039 -4.9E-6 -0.8734955 0.4868323 0.0 -0.8734955 0.4868323 0.0 -0.8734955 0.4868323 0.0 -0.8733338 0.4871222 0.0 -0.8733338 0.4871222 0.0 -0.8733338 0.4871222 0.0 -0.4841408 -0.8749901 0.0 -0.4841408 -0.8749901 0.0 -0.4841408 -0.8749901 0.0 -0.4828773 -0.875688 1.622E-4 -0.4828773 -0.875688 1.622E-4 -0.4828773 -0.875688 1.622E-4 -0.4842739 -0.8749164 0.0 -0.4842739 -0.8749164 0.0 -0.4842739 -0.8749164 0.0 0.486532 0.8736628 4.2E-6 0.486532 0.8736628 4.2E-6 0.486532 0.8736628 4.2E-6 0.4865732 0.8736399 0.0 0.4865732 0.8736399 0.0 0.4865732 0.8736399 0.0 0.4862896 0.8737977 0.0 0.4862896 0.8737977 0.0 0.4862896 0.8737977 0.0 0.7156831 -0.4003984 0.5722576 0.7156831 -0.4003984 0.5722576 0.7156831 -0.4003984 0.5722576 0.7154551 -0.4004947 0.5724754 0.7154551 -0.4004947 0.5724754 0.7154551 -0.4004947 0.5724754 0.7156167 -0.3999814 0.5726321 0.7156167 -0.3999814 0.5726321 0.7156167 -0.3999814 0.5726321 0.7154608 -0.4004838 0.5724759 0.7154608 -0.4004838 0.5724759 0.7154608 -0.4004838 0.5724759 0.2434103 0.4348411 0.8669859 0.2434103 0.4348411 0.8669859 0.2434103 0.4348411 0.8669859 0.2434198 0.4348434 0.8669822 0.2434198 0.4348434 0.8669822 0.2434198 0.4348434 0.8669822 0.241984 0.4366241 0.866489 0.241984 0.4366241 0.866489 0.241984 0.4366241 0.866489 -0.8733187 0.4871494 0.0 -0.8733187 0.4871494 0.0 -0.8733187 0.4871494 0.0 0.2434667 0.4352278 0.8667761 0.2434667 0.4352278 0.8667761 0.2434667 0.4352278 0.8667761 -0.8734548 0.4869052 0.0 -0.8734548 0.4869052 0.0 -0.8734548 0.4869052 0.0 -0.8732952 0.4871913 -1.7E-6 -0.8732952 0.4871913 -1.7E-6 -0.8732952 0.4871913 -1.7E-6 0.2369687 0.426024 0.8731262 0.2369687 0.426024 0.8731262 0.2369687 0.426024 0.8731262 0.2434115 0.434905 0.8669537 0.2434115 0.434905 0.8669537 0.2434115 0.434905 0.8669537 0.24343 0.4349312 0.8669353 0.24343 0.4349312 0.8669353 0.24343 0.4349312 0.8669353 0.2434667 0.4352284 0.8667757 0.2434667 0.4352284 0.8667757 0.2434667 0.4352284 0.8667757 -0.872639 0.4883658 0.0 -0.872639 0.4883658 0.0 -0.872639 0.4883658 0.0 0.2433883 0.4348388 0.8669933 0.2433883 0.4348388 0.8669933 0.2433883 0.4348388 0.8669933 -0.872639 0.4883658 0.0 -0.872639 0.4883658 0.0 -0.872639 0.4883658 0.0 0.2434069 0.4346935 0.8670609 0.2434069 0.4346935 0.8670609 0.2434069 0.4346935 0.8670609 0.2432955 0.4347843 0.8670467 0.2432955 0.4347843 0.8670467 0.2432955 0.4347843 0.8670467 0.2433676 0.4348133 0.8670119 0.2433676 0.4348133 0.8670119 0.2433676 0.4348133 0.8670119 0.2431747 0.4347292 0.8671081 0.2431747 0.4347292 0.8671081 0.2431747 0.4347292 0.8671081 -0.4884181 -0.8726097 0.0 -0.4884181 -0.8726097 0.0 -0.4884181 -0.8726097 0.0 -0.4884181 -0.8726097 0.0 -0.4884181 -0.8726097 0.0 -0.4884181 -0.8726097 0.0 -0.8792843 0.4762972 0.0 -0.8792843 0.4762972 0.0 -0.8792843 0.4762972 0.0 -0.8792843 0.4762972 0.0 -0.8792843 0.4762972 0.0 -0.8792843 0.4762972 0.0 -0.8792844 0.4762972 0.0 -0.8792844 0.4762972 0.0 -0.8792844 0.4762972 0.0 -0.8732462 0.4872792 -1.35E-5 -0.8732462 0.4872792 -1.35E-5 -0.8732462 0.4872792 -1.35E-5 -0.8732712 0.4872344 0.0 -0.8732712 0.4872344 0.0 -0.8732712 0.4872344 0.0 -0.8732384 0.4872932 0.0 -0.8732384 0.4872932 0.0 -0.8732384 0.4872932 0.0 0.4874649 0.8731425 0.0 0.4874649 0.8731425 0.0 0.4874649 0.8731425 0.0 0.4874098 0.8731733 0.0 0.4874098 0.8731733 0.0 0.4874098 0.8731733 0.0 0.5464902 0.8374388 -0.0066806 0.5464902 0.8374388 -0.0066806 0.5464902 0.8374388 -0.0066806 -0.2664587 -0.4760319 0.8380891 -0.2664587 -0.4760319 0.8380891 -0.2664587 -0.4760319 0.8380891 -0.2664614 -0.4761685 0.8380107 -0.2664614 -0.4761685 0.8380107 -0.2664614 -0.4761685 0.8380107 -0.2654493 -0.4743244 0.8393766 -0.2654493 -0.4743244 0.8393766 -0.2654493 -0.4743244 0.8393766 -0.2664365 -0.4759476 0.8381441 -0.2664365 -0.4759476 0.8381441 -0.2664365 -0.4759476 0.8381441 -0.2659798 -0.4763299 0.8380721 -0.2659798 -0.4763299 0.8380721 -0.2659798 -0.4763299 0.8380721 -0.2664391 -0.4760676 0.8380752 -0.2664391 -0.4760676 0.8380752 -0.2664391 -0.4760676 0.8380752 -0.2666668 -0.476441 0.8377904 -0.2666668 -0.476441 0.8377904 -0.2666668 -0.476441 0.8377904 0.0 0.0 1.0 0.0 0.0 1.0 0.0 0.0 1.0 0.8682386 -0.4961469 0.0 0.8682386 -0.4961469 0.0 0.8682386 -0.4961469 0.0 0.0 0.0 1.0 0.0 0.0 1.0 0.0 0.0 1.0 0.8682386 -0.4961469 0.0 0.8682386 -0.4961469 0.0 0.8682386 -0.4961469 0.0 0.0 0.0 -1.0 0.0 0.0 -1.0 0.0 0.0 -1.0 0.0 0.0 -1.0 0.0 0.0 -1.0 0.0 0.0 -1.0 0.0 0.0 -1.0 0.0 0.0 -1.0 0.0 0.0 -1.0 -0.3937908 0.2178315 0.8930163 -0.3937908 0.2178315 0.8930163 -0.3937908 0.2178315 0.8930163 -0.4883821 -0.8726299 0.0 -0.4883821 -0.8726299 0.0 -0.4883821 -0.8726299 0.0 0.0 0.0 -1.0 0.0 0.0 -1.0 0.0 0.0 -1.0 -0.4883821 -0.8726299 0.0 -0.4883821 -0.8726299 0.0 -0.4883821 -0.8726299 0.0 0.0 0.0 -1.0 0.0 0.0 -1.0 0.0 0.0 -1.0 0.0 0.0 -1.0 0.0 0.0 -1.0 0.0 0.0 -1.0 0.0 0.0 -1.0 0.0 0.0 -1.0 0.0 0.0 -1.0 0.0 0.0 -1.0 0.0 0.0 -1.0 0.0 0.0 -1.0 0.0 0.0 -1.0 0.0 0.0 -1.0 0.0 0.0 -1.0 0.0 0.0 -1.0 0.0 0.0 -1.0 0.0 0.0 -1.0 0.0 0.0 -1.0 0.0 0.0 -1.0 0.0 0.0 -1.0 0.0 0.0 -1.0 0.0 0.0 -1.0 0.0 0.0 -1.0 0.0 0.0 -1.0 0.0 0.0 -1.0 0.0 0.0 -1.0 0.4884025 0.8726184 0.0 0.4884025 0.8726184 0.0 0.4884025 0.8726184 0.0 0.0 0.0 -1.0 0.0 0.0 -1.0 0.0 0.0 -1.0 0.4884025 0.8726184 0.0 0.4884025 0.8726184 0.0 0.4884025 0.8726184 0.0 0.0 0.0 -1.0 0.0 0.0 -1.0 0.0 0.0 -1.0 0.4884025 0.8726184 0.0 0.4884025 0.8726184 0.0 0.4884025 0.8726184 0.0 0.0 0.0 -1.0 0.0 0.0 -1.0 0.0 0.0 -1.0 0.0 0.0 -1.0 0.0 0.0 -1.0 0.0 0.0 -1.0 0.0 0.0 -1.0 0.0 0.0 -1.0 0.0 0.0 -1.0 0.0 0.0 -1.0 0.0 0.0 -1.0 0.0 0.0 -1.0 0.0 0.0 -1.0 0.0 0.0 -1.0 0.0 0.0 -1.0 0.0 0.0 -1.0 0.0 0.0 -1.0 0.0 0.0 -1.0 0.0 0.0 -1.0 0.0 0.0 -1.0 0.0 0.0 -1.0 0.0 0.0 -1.0 0.0 0.0 -1.0 0.0 0.0 -1.0 0.0 0.0 -1.0 0.0 0.0 -1.0 0.0 0.0 -1.0 0.4883664 0.8726386 0.0 0.4883664 0.8726386 0.0 0.4883664 0.8726386 0.0 0.0 0.0 -1.0 0.0 0.0 -1.0 0.0 0.0 -1.0 0.4883664 0.8726386 0.0 0.4883664 0.8726386 0.0 0.4883664 0.8726386 0.0 0.0 0.0 -1.0 0.0 0.0 -1.0 0.0 0.0 -1.0 0.0 0.0 -1.0 0.0 0.0 -1.0 0.0 0.0 -1.0 0.8718036 -0.4898554 0.0 0.8718036 -0.4898554 0.0 0.8718036 -0.4898554 0.0 0.8718036 -0.4898555 0.0 0.8718036 -0.4898555 0.0 0.8718036 -0.4898555 0.0 0.0 0.0 1.0 0.0 0.0 1.0 0.0 0.0 1.0 0.0 0.0 1.0 0.0 0.0 1.0 0.0 0.0 1.0 -0.8750436 0.484044 0.0 -0.8750436 0.484044 0.0 -0.8750436 0.484044 0.0 -0.8750436 0.484044 0.0 -0.8750436 0.484044 0.0 -0.8750436 0.484044 0.0 0.4612985 -0.2597991 0.8483561 0.4612985 -0.2597991 0.8483561 0.4612985 -0.2597991 0.8483561 -0.8725893 0.4884547 0.0 -0.8725893 0.4884547 0.0 -0.8725893 0.4884547 0.0 0.4582912 -0.2564593 0.8509981 0.4582912 -0.2564593 0.8509981 0.4582912 -0.2564593 0.8509981 -0.8725893 0.4884547 0.0 -0.8725893 0.4884547 0.0 -0.8725893 0.4884547 0.0 0.4584632 -0.2566014 0.8508626 0.4584632 -0.2566014 0.8508626 0.4584632 -0.2566014 0.8508626 0.4583562 -0.2565006 0.8509507 0.4583562 -0.2565006 0.8509507 0.4583562 -0.2565006 0.8509507 0.4584697 -0.2565954 0.850861 0.4584697 -0.2565954 0.850861 0.4584697 -0.2565954 0.850861 0.4583658 -0.2565394 0.8509338 0.4583658 -0.2565394 0.8509338 0.4583658 -0.2565394 0.8509338 0.4583067 -0.2565042 0.8509762 0.4583067 -0.2565042 0.8509762 0.4583067 -0.2565042 0.8509762 0.4582685 -0.2564183 0.8510228 0.4582685 -0.2564183 0.8510228 0.4582685 -0.2564183 0.8510228 0.4582951 -0.2564875 0.8509876 0.4582951 -0.2564875 0.8509876 0.4582951 -0.2564875 0.8509876 0.4592721 -0.2575234 0.8501475 0.4592721 -0.2575234 0.8501475 0.4592721 -0.2575234 0.8501475 0.4583293 -0.2565087 0.8509627 0.4583293 -0.2565087 0.8509627 0.4583293 -0.2565087 0.8509627 0.4583212 -0.2565112 0.8509663 0.4583212 -0.2565112 0.8509663 0.4583212 -0.2565112 0.8509663 0.8725117 -0.4885932 0.0 0.8725117 -0.4885932 0.0 0.8725117 -0.4885932 0.0 0.8725117 -0.4885932 0.0 0.8725117 -0.4885932 0.0 0.8725117 -0.4885932 0.0 0.3057543 -0.9521105 0.0 0.3057543 -0.9521105 0.0 0.3057543 -0.9521105 0.0 0.3057543 -0.9521105 0.0 0.3057543 -0.9521105 0.0 0.3057543 -0.9521105 0.0 -0.4885706 -0.8725243 0.0 -0.4885706 -0.8725243 0.0 -0.4885706 -0.8725243 0.0 0.8742592 -0.4854594 0.0 0.8742592 -0.4854594 0.0 0.8742592 -0.4854594 0.0 0.8743384 -0.4853166 3.084E-4 0.8743384 -0.4853166 3.084E-4 0.8743384 -0.4853166 3.084E-4 0.8743707 -0.4852576 -9.528E-4 0.8743707 -0.4852576 -9.528E-4 0.8743707 -0.4852576 -9.528E-4 0.8742592 -0.4854594 0.0 0.8742592 -0.4854594 0.0 0.8742592 -0.4854594 0.0 0.8742597 -0.4854587 -1.46E-5 0.8742597 -0.4854587 -1.46E-5 0.8742597 -0.4854587 -1.46E-5 0.8743171 -0.4853549 -5.052E-4 0.8743171 -0.4853549 -5.052E-4 0.8743171 -0.4853549 -5.052E-4 0.4883967 0.8726217 0.0 0.4883967 0.8726217 0.0 0.4883967 0.8726217 0.0 -0.4424945 0.2476651 0.8618937 -0.4424945 0.2476651 0.8618937 -0.4424945 0.2476651 0.8618937 -0.4424954 0.247585 0.8619161 -0.4424954 0.247585 0.8619161 -0.4424954 0.247585 0.8619161 -0.4424711 0.2476555 0.8619084 -0.4424711 0.2476555 0.8619084 -0.4424711 0.2476555 0.8619084 -0.4425302 0.2476937 0.8618671 -0.4425302 0.2476937 0.8618671 -0.4425302 0.2476937 0.8618671 -0.4425052 0.2476882 0.8618814 -0.4425052 0.2476882 0.8618814 -0.4425052 0.2476882 0.8618814 -0.4424979 0.2476443 0.8618978 -0.4424979 0.2476443 0.8618978 -0.4424979 0.2476443 0.8618978 -0.4428754 0.2473091 0.8618002 -0.4428754 0.2473091 0.8618002 -0.4428754 0.2473091 0.8618002 -0.4399053 0.2534035 0.8615509 -0.4399053 0.2534035 0.8615509 -0.4399053 0.2534035 0.8615509 -0.4457532 0.240688 0.862191 -0.4457532 0.240688 0.862191 -0.4457532 0.240688 0.862191 -0.4427765 0.2478119 0.8617066 -0.4427765 0.2478119 0.8617066 -0.4427765 0.2478119 0.8617066 -0.4427646 0.2473214 0.8618536 -0.4427646 0.2473214 0.8618536 -0.4427646 0.2473214 0.8618536 -0.442533 0.2476734 0.8618715 -0.442533 0.2476734 0.8618715 -0.442533 0.2476734 0.8618715 -0.4425501 0.2476959 0.8618562 -0.4425501 0.2476959 0.8618562 -0.4425501 0.2476959 0.8618562 -0.4429454 0.2471065 0.8618223 -0.4429454 0.2471065 0.8618223 -0.4429454 0.2471065 0.8618223 -0.4425379 0.2476695 0.8618701 -0.4425379 0.2476695 0.8618701 -0.4425379 0.2476695 0.8618701 -0.4419279 0.2473216 0.862283 -0.4419279 0.2473216 0.862283 -0.4419279 0.2473216 0.862283 -0.4425088 0.2476312 0.861896 -0.4425088 0.2476312 0.861896 -0.4425088 0.2476312 0.861896 -0.442489 0.2476462 0.8619019 -0.442489 0.2476462 0.8619019 -0.442489 0.2476462 0.8619019 -0.4883618 -0.8726412 0.0 -0.4883618 -0.8726412 0.0 -0.4883618 -0.8726412 0.0 -0.4423841 0.2479693 0.8618628 -0.4423841 0.2479693 0.8618628 -0.4423841 0.2479693 0.8618628 -0.4883618 -0.8726412 0.0 -0.4883618 -0.8726412 0.0 -0.4883618 -0.8726412 0.0 -0.4423874 0.247812 0.8619064 -0.4423874 0.247812 0.8619064 -0.4423874 0.247812 0.8619064 -0.4425023 0.2476574 0.8618919 -0.4425023 0.2476574 0.8618919 -0.4425023 0.2476574 0.8618919 -0.4425203 0.2477012 0.86187 -0.4425203 0.2477012 0.86187 -0.4425203 0.2477012 0.86187 -0.44218 0.2464016 0.862417 -0.44218 0.2464016 0.862417 -0.44218 0.2464016 0.862417 -0.4574578 -0.8892313 0.0 -0.4574578 -0.8892313 0.0 -0.4574578 -0.8892313 0.0 -0.4336579 0.2610629 0.8624309 -0.4336579 0.2610629 0.8624309 -0.4336579 0.2610629 0.8624309 -0.4574578 -0.8892313 0.0 -0.4574578 -0.8892313 0.0 -0.4574578 -0.8892313 0.0 -0.4423614 0.2480112 0.8618625 -0.4423614 0.2480112 0.8618625 -0.4423614 0.2480112 0.8618625 -0.4424935 0.2476462 0.8618996 -0.4424935 0.2476462 0.8618996 -0.4424935 0.2476462 0.8618996 -0.4424426 0.2477487 0.8618962 -0.4424426 0.2477487 0.8618962 -0.4424426 0.2477487 0.8618962 -0.4432574 0.2481013 0.861376 -0.4432574 0.2481013 0.861376 -0.4432574 0.2481013 0.861376 -0.442487 0.2476651 0.8618975 -0.442487 0.2476651 0.8618975 -0.442487 0.2476651 0.8618975 -0.4424604 0.2479164 0.861839 -0.4424604 0.2479164 0.861839 -0.4424604 0.2479164 0.861839 -0.4425148 0.2476647 0.8618833 -0.4425148 0.2476647 0.8618833 -0.4425148 0.2476647 0.8618833 -0.4425064 0.2477045 0.8618762 -0.4425064 0.2477045 0.8618762 -0.4425064 0.2477045 0.8618762 0.8726341 -0.4883748 0.0 0.8726341 -0.4883748 0.0 0.8726341 -0.4883748 0.0 0.8726341 -0.4883748 0.0 0.8726341 -0.4883748 0.0 0.8726341 -0.4883748 0.0 0.8728258 -0.4880318 0.0 0.8728258 -0.4880318 0.0 0.8728258 -0.4880318 0.0 0.872807 -0.4880656 2.0E-7 0.872807 -0.4880656 2.0E-7 0.872807 -0.4880656 2.0E-7 0.8728119 -0.4880567 0.0 0.8728119 -0.4880567 0.0 0.8728119 -0.4880567 0.0 0.8728113 -0.4880579 1.6E-6 0.8728113 -0.4880579 1.6E-6 0.8728113 -0.4880579 1.6E-6 0.8728073 -0.4880649 0.0 0.8728073 -0.4880649 0.0 0.8728073 -0.4880649 0.0 -0.8804867 0.4740709 0.0 -0.8804867 0.4740709 0.0 -0.8804867 0.4740709 0.0 -0.8804867 0.4740709 0.0 -0.8804867 0.4740709 0.0 -0.8804867 0.4740709 0.0 -0.4867492 -0.8735418 -3.9E-6 -0.4867492 -0.8735418 -3.9E-6 -0.4867492 -0.8735418 -3.9E-6 -0.4867705 -0.8735299 0.0 -0.4867705 -0.8735299 0.0 -0.4867705 -0.8735299 0.0 -0.4867443 -0.8735446 0.0 -0.4867443 -0.8735446 0.0 -0.4867443 -0.8735446 0.0 -0.4865023 -0.8736793 6.03E-5 -0.4865023 -0.8736793 6.03E-5 -0.4865023 -0.8736793 6.03E-5 -0.4870386 -0.8733804 0.0 -0.4870386 -0.8733804 0.0 -0.4870386 -0.8733804 0.0 -0.8845298 0.4664837 0.0 -0.8845298 0.4664837 0.0 -0.8845298 0.4664837 0.0 -0.8799208 0.4751203 0.0 -0.8799208 0.4751203 0.0 -0.8799208 0.4751203 0.0 -0.884886 0.4658076 1.6E-5 -0.884886 0.4658076 1.6E-5 -0.884886 0.4658076 1.6E-5</float_array>
                    <technique_common>
                        <accessor count="663" source="#geometry0-normal-array" stride="3">
                            <param name="X" type="float"/>
                            <param name="Y" type="float"/>
                            <param name="Z" type="float"/>
                        </accessor>
                    </technique_common>
                </source>
                <source id="geometry0-texCoords">
                    <float_array id="geometry0-texCoords-array" count="0"></float_array>
                    <technique_common>
                        <accessor count="0" source="#geometry0-texCoords-array" stride="2">
                            <param name="S" type="float"/>
                            <param name="T" type="float"/>
                        </accessor>
                    </technique_common>
                </source>
                <vertices id="geometry0-vertex">
                    <input semantic="POSITION" source="#geometry0-position"/>
                </vertices>
                <triangles count="77" material="default_dc_r_0.6_g_0.6_b_0_tri">
                    <input offset="0" semantic="VERTEX" source="#geometry0-vertex"/>
                    <input offset="1" semantic="NORMAL" source="#geometry0-normal"/>
                    <p>55 69 56 70 57 71 58 72 59 73 57 74 59 75 55 76 57 77 58 78 60 79 59 80 61 171 62 172 63 173 61 174 64 175 65 176 62 177 66 178 63 179 61 180 65 181 62 182 67 183 68 184 69 185 24 186 67 187 69 188 69 189 59 190 70 191 24 195 69 196 71 197 72 204 68 205 73 206 68 207 59 208 69 209 74 210 68 211 72 212 24 213 71 214 75 215 73 219 68 220 67 221 70 225 59 226 76 227 24 228 77 229 67 230 19 231 78 232 24 233 78 234 77 235 24 236 79 270 16 271 80 272 81 273 80 274 11 275 81 276 11 277 82 278 80 279 16 280 11 281 79 282 80 283 83 284 19 285 16 286 79 287 78 288 19 289 79 290 0 291 1 292 2 293 0 297 2 298 3 299 4 312 5 313 6 314 7 414 8 415 9 416 8 417 10 418 9 419 11 426 12 427 13 428 14 432 11 433 13 434 14 438 15 439 11 440 16 441 17 442 12 443 18 444 17 445 19 446 19 447 17 448 16 449 20 450 18 451 19 452 11 453 16 454 12 455 15 456 21 457 11 458 22 459 20 460 19 461 23 462 19 463 24 464 23 465 22 466 19 467 25 504 26 505 27 506 28 507 27 508 5 509 29 510 30 511 26 512 28 513 25 514 27 515 26 516 23 517 31 518 26 519 30 520 23 521 30 522 32 523 33 524 34 525 35 526 5 527 36 528 34 529 5 530 29 531 26 532 37 533 38 534 26 535 25 536 39 537 36 538 5 539 26 540 40 541 27 542 5 543 27 544 41 545 35 546 28 547 5 548 42 549 38 550 25 551 30 552 29 553 32 554 5 555 41 556 43 557 44 561 39 562 5 563 29 567 37 568 45 569 26 570 46 571 40 572 47 573 25 574 28 575 33 576 32 577 48 578 5 582 43 583 6 584 49 588 44 589 5 590 26 591 31 592 46 593 31 594 23 595 50 596 23 597 30 598 51 599 52 600 30 601 33 602 43 603 53 604 6 605 23 606 51 607 22 608 23 609 54 610 50 611</p>
                </triangles>
                <triangles count="117" material="default_dc_r_1.0_g_1.0_b_1_tri">
                    <input offset="0" semantic="VERTEX" source="#geometry0-vertex"/>
                    <input offset="1" semantic="NORMAL" source="#geometry0-normal"/>
                    <p>162 0 165 1 166 2 162 3 167 4 165 5 168 6 169 7 166 8 116 9 117 10 114 11 162 12 166 13 170 14 116 15 114 16 113 17 171 18 172 19 173 20 90 21 117 22 116 23 173 24 169 25 168 26 163 27 167 28 162 29 166 30 169 31 170 32 171 33 173 34 168 35 174 36 172 37 171 38 118 39 119 40 117 41 118 42 117 43 89 44 92 45 119 46 118 47 92 48 120 49 119 50 121 51 120 52 92 53 93 54 122 55 92 56 122 57 121 58 92 59 175 60 176 61 170 62 175 63 170 64 169 65 177 66 176 67 175 68 120 81 123 82 124 83 125 84 126 85 124 86 123 87 125 88 124 89 178 90 176 91 177 92 121 93 123 94 120 95 178 96 177 97 179 98 180 99 178 100 179 101 180 102 179 103 181 104 95 105 127 106 97 107 128 108 95 109 97 110 128 111 97 112 129 113 129 114 97 115 130 116 131 117 130 118 124 119 130 120 132 121 124 122 131 123 124 124 126 125 97 126 132 127 130 128 182 129 183 130 180 131 94 132 127 133 95 134 182 135 180 136 181 137 133 138 96 139 97 140 97 141 127 142 133 143 184 144 185 145 183 146 184 147 183 148 182 149 186 150 185 151 184 152 187 153 188 154 185 155 189 156 187 157 185 158 186 159 189 160 185 161 134 162 135 163 132 164 134 165 132 166 97 167 136 168 135 169 134 170 99 192 137 193 135 194 138 198 135 199 136 200 138 201 99 202 135 203 190 216 188 217 187 218 190 222 187 223 191 224 192 237 193 238 190 239 192 240 190 241 191 242 139 243 137 244 99 245 140 246 139 247 99 248 98 249 140 250 99 251 194 252 110 253 193 254 194 255 193 256 192 257 112 258 110 259 194 260 141 261 142 262 139 263 143 264 139 265 140 266 143 267 141 268 139 269 101 294 144 295 142 296 101 300 142 301 141 302 84 315 85 316 86 317 85 321 87 322 86 323 145 351 144 352 101 353 146 357 145 358 101 359 102 363 146 364 101 365 88 393 89 394 90 395 88 399 90 400 91 401 147 408 148 409 146 410 148 411 145 412 146 413 92 420 88 421 91 422 92 423 91 424 93 425 84 429 94 430 95 431 84 435 95 436 85 437 149 468 150 469 147 470 150 471 148 472 147 473 86 474 87 475 96 476 87 477 97 478 96 479 98 480 99 481 100 482 149 483 151 484 150 485 152 486 153 487 149 488 154 489 153 490 152 491 151 492 155 493 150 494 153 495 151 496 149 497 156 498 153 499 154 500 101 501 100 502 102 503 103 558 104 559 105 560 103 564 105 565 106 566 157 579 158 580 155 581 157 585 155 586 151 587 107 612 108 613 104 614 107 615 104 616 103 617 159 618 106 619 105 620 157 621 159 622 105 623 105 624 160 625 161 626 105 627 161 628 158 629 157 630 105 631 158 632 109 633 110 634 111 635 110 636 112 637 111 638 161 639 108 640 162 641 108 642 163 643 162 644 160 645 108 646 161 647 164 648 163 649 108 650 107 651 164 652 108 653 113 654 114 655 109 656 115 657 109 658 111 659 115 660 113 661 109 662</p>
                </triangles>
                <triangles count="27" material="default_dc_r_0.9_g_0.7_b_0_tri">
                    <input offset="0" semantic="VERTEX" source="#geometry0-vertex"/>
                    <input offset="1" semantic="NORMAL" source="#geometry0-normal"/>
                    <p>195 303 196 304 197 305 198 306 199 307 200 308 201 309 202 310 198 311 203 318 202 319 201 320 195 324 197 325 204 326 205 327 198 328 200 329 195 330 200 331 199 332 199 333 196 334 195 335 196 336 206 337 197 338 204 339 197 340 207 341 203 342 208 343 202 344 208 345 209 346 202 347 202 348 209 349 210 350 202 354 199 355 198 356 206 360 211 361 197 362 207 366 197 367 212 368 213 369 205 370 200 371 198 372 214 373 201 374 201 375 215 376 203 377 216 378 195 379 204 380 217 381 198 382 205 383 209 384 218 385 210 386 206 387 219 388 211 389 200 390 195 391 220 392 221 396 213 397 200 398 218 402 222 403 210 404 223 405 213 406 221 407</p>
                </triangles>
            </mesh>
        </geometry>
    </library_geometries>
    <library_visual_scenes>
        <visual_scene id="Building_FME_fa36dffe-ab22-4379-af10-8fcf2155c3a1">
            <node>
                <instance_geometry url="#geometry0">
                    <bind_material>
                        <technique_common>
                            <instance_material symbol="default_dc_r_0.6_g_0.6_b_0_tri" target="#default_dc_r_0.6_g_0.6_b_0_mat"/>
                            <instance_material symbol="default_dc_r_1.0_g_1.0_b_1_tri" target="#default_dc_r_1.0_g_1.0_b_1_mat"/>
                            <instance_material symbol="default_dc_r_0.9_g_0.7_b_0_tri" target="#default_dc_r_0.9_g_0.7_b_0_mat"/>
                        </technique_common>
                    </bind_material>
                </instance_geometry>
            </node>
        </visual_scene>
    </library_visual_scenes>
    <scene>
        <instance_visual_scene url="#Building_FME_fa36dffe-ab22-4379-af10-8fcf2155c3a1"/>
    </scene>
</COLLADA>
