<?xml version="1.0" encoding="UTF-8" standalone="yes"?>
<COLLADA xmlns="http://www.collada.org/2005/11/COLLADASchema" version="1.4.1">
    <asset>
        <contributor>
            <authoring_tool>3D City Database Importer/Exporter, version 5.5.1; Chair of Geoinformatics, Technical University of Munich</authoring_tool>
        </contributor>
        <created>2026-01-16T16:51:34.129</created>
        <modified>2026-01-16T16:51:34.129</modified>
        <unit meter="1.0" name="meters"/>
        <up_axis>Z_UP</up_axis>
    </asset>
    <library_materials>
        <material id="default_dc_r_0.9_g_0.7_b_0_mat">
            <instance_effect url="#default_dc_r_0.9_g_0.7_b_0_eff"/>
        </material>
        <material id="default_dc_r_1.0_g_1.0_b_1_mat">
            <instance_effect url="#default_dc_r_1.0_g_1.0_b_1_eff"/>
        </material>
        <material id="default_dc_r_0.6_g_0.6_b_0_mat">
            <instance_effect url="#default_dc_r_0.6_g_0.6_b_0_eff"/>
        </material>
    </library_materials>
    <library_effects>
        <effect id="default_dc_r_0.9_g_0.7_b_0_eff">
            <profile_COMMON>
                <technique sid="COMMON">
                    <lambert>
                        <emission>
                            <color>0.0 0.0 0.0 1.0</color>
                        </emission>
                        <diffuse>
                            <color>0.9 0.7 0.4 1.0</color>
                        </diffuse>
                    </lambert>
                </technique>
                <extra>
                    <technique profile="GOOGLEEARTH">
                        <double_sided>1</double_sided>
                    </technique>
                </extra>
            </profile_COMMON>
        </effect>
        <effect id="default_dc_r_1.0_g_1.0_b_1_eff">
            <profile_COMMON>
                <technique sid="COMMON">
                    <lambert>
                        <emission>
                            <color>0.0 0.0 0.0 1.0</color>
                        </emission>
                        <diffuse>
                            <color>1.0 1.0 1.0 1.0</color>
                        </diffuse>
                    </lambert>
                </technique>
                <extra>
                    <technique profile="GOOGLEEARTH">
                        <double_sided>1</double_sided>
                    </technique>
                </extra>
            </profile_COMMON>
        </effect>
        <effect id="default_dc_r_0.6_g_0.6_b_0_eff">
            <profile_COMMON>
                <technique sid="COMMON">
                    <lambert>
                        <emission>
                            <color>0.0 0.0 0.0 1.0</color>
                        </emission>
                        <diffuse>
                            <color>0.6 0.6 0.6 1.0</color>
                        </diffuse>
                    </lambert>
                </technique>
                <extra>
                    <technique profile="GOOGLEEARTH">
                        <double_sided>1</double_sided>
                    </technique>
                </extra>
            </profile_COMMON>
        </effect>
    </library_effects>
    <library_geometries>
        <geometry id="geometry0">
            <mesh>
                <source id="geometry0-position">
                    <float_array id="geometry0-position-array" count="108">3.1809 -6.9847 7.467724 0.0 0.0 2.557424 -8.0419 -1.4729 7.646124 3.1011 -7.1391 7.646124 -5.0886 2.6251 2.523024 -5.7481 2.9654 2.518524 4.8969 -3.6661 3.633424 5.3551 -2.7757 2.605624 -9.4577 -6.286 2.583924 3.0208 -7.2944 7.466724 0.7998 -11.5897 2.503724 -10.3035 -5.8487 2.590624 -5.0886 2.6251 2.523 0.0 0.0 0.0 -5.7481 2.9654 0.0 -5.7481 2.9654 2.5185 0.0 0.0 2.5574 5.3551 -2.7757 0.0 5.3551 -2.7757 2.6056 4.8969 -3.6661 3.6334 4.8969 -3.6661 0.0 3.0208 -7.2944 7.4667 0.7998 -11.5897 2.5037 0.7998 -11.5897 0.0 3.1809 -6.9847 7.4677 3.1011 -7.1391 7.6461 -10.3035 -5.8487 0.0 -10.3035 -5.8487 2.5906 -8.0419 -1.4729 7.6461 -9.4577 -6.286 2.584 0.0 0.0 3.6E-5 0.7998 -11.5897 3.6E-5 -10.3035 -5.8487 3.6E-5 -5.7481 2.9654 3.6E-5 4.8969 -3.6661 3.6E-5 5.3551 -2.7757 3.6E-5</float_array>
                    <technique_common>
                        <accessor count="36" source="#geometry0-position-array" stride="3">
                            <param name="X" type="float"/>
                            <param name="Y" type="float"/>
                            <param name="Z" type="float"/>
                        </accessor>
                    </technique_common>
                </source>
                <source id="geometry0-normal">
                    <float_array id="geometry0-normal-array" count="288">0.0 0.0 -1.0 0.0 0.0 -1.0 0.0 0.0 -1.0 0.0 0.0 -1.0 0.0 0.0 -1.0 0.0 0.0 -1.0 0.889174 -0.4575691 0.0 0.889174 -0.4575691 0.0 0.889174 -0.4575691 0.0 0.889174 -0.4575691 0.0 0.889174 -0.4575691 0.0 0.889174 -0.4575691 0.0 0.3246483 0.6384423 0.6978502 0.3246483 0.6384423 0.6978502 0.3246483 0.6384423 0.6978502 0.3246652 0.638478 0.6978096 0.3246652 0.638478 0.6978096 0.3246652 0.638478 0.6978096 0.3246685 0.6384341 0.6978483 0.3246685 0.6384341 0.6978483 0.3246685 0.6384341 0.6978483 0.3246324 0.6384411 0.6978588 0.3246324 0.6384411 0.6978588 0.3246324 0.6384411 0.6978588 0.8882778 -0.4593066 -1.1E-6 0.8882778 -0.4593066 -1.1E-6 0.8882778 -0.4593066 -1.1E-6 0.3246444 0.6384487 0.6978461 0.3246444 0.6384487 0.6978461 0.3246444 0.6384487 0.6978461 0.8882777 -0.4593067 0.0 0.8882777 -0.4593067 0.0 0.8882777 -0.4593067 0.0 0.3246492 0.6384569 0.6978365 0.3246492 0.6384569 0.6978365 0.3246492 0.6384569 0.6978365 0.8882777 -0.4593068 0.0 0.8882777 -0.4593068 0.0 0.8882777 -0.4593068 0.0 0.8883225 -0.4592202 1.025E-4 0.8883225 -0.4592202 1.025E-4 0.8883225 -0.4592202 1.025E-4 0.8883227 -0.4592198 -8.52E-5 0.8883227 -0.4592198 -8.52E-5 0.8883227 -0.4592198 -8.52E-5 -0.3246554 -0.6384536 0.6978365 -0.3246554 -0.6384536 0.6978365 -0.3246554 -0.6384536 0.6978365 -0.3246569 -0.6384476 0.6978414 -0.3246569 -0.6384476 0.6978414 -0.3246569 -0.6384476 0.6978414 -0.3246161 -0.6383815 0.6979208 -0.3246161 -0.6383815 0.6979208 -0.3246161 -0.6383815 0.6979208 -0.3245832 -0.6384824 0.6978438 -0.3245832 -0.6384824 0.6978438 -0.3245832 -0.6384824 0.6978438 -0.8883663 0.4591353 0.0 -0.8883663 0.4591353 0.0 -0.8883663 0.4591353 0.0 -0.8883663 0.4591353 0.0 -0.8883663 0.4591353 0.0 -0.8883663 0.4591353 0.0 -0.8883663 0.4591353 8.9E-6 -0.8883663 0.4591353 8.9E-6 -0.8883663 0.4591353 8.9E-6 0.4584767 0.8887064 2.44E-5 0.4584767 0.8887064 2.44E-5 0.4584767 0.8887064 2.44E-5 0.4585505 0.8886684 0.0 0.4585505 0.8886684 0.0 0.4585505 0.8886684 0.0 0.4584672 0.8887113 0.0 0.4584672 0.8887113 0.0 0.4584672 0.8887113 0.0 -0.4592711 -0.8882962 0.0 -0.4592711 -0.8882962 0.0 -0.4592711 -0.8882962 0.0 -0.4592912 -0.8882858 8.4E-6 -0.4592912 -0.8882858 8.4E-6 -0.4592912 -0.8882858 8.4E-6 -0.4592929 -0.888285 0.0 -0.4592929 -0.888285 0.0 -0.4592929 -0.888285 0.0 0.4601841 0.8878235 0.0 0.4601841 0.8878235 0.0 0.4601841 0.8878235 0.0 0.4601841 0.8878235 0.0 0.4601841 0.8878235 0.0 0.4601841 0.8878235 0.0 0.0 0.0 -1.0 0.0 0.0 -1.0 0.0 0.0 -1.0 0.0 0.0 -1.0 0.0 0.0 -1.0 0.0 0.0 -1.0</float_array>
                    <technique_common>
                        <accessor count="96" source="#geometry0-normal-array" stride="3">
                            <param name="X" type="float"/>
                            <param name="Y" type="float"/>
                            <param name="Z" type="float"/>
                        </accessor>
                    </technique_common>
                </source>
                <source id="geometry0-texCoords">
                    <float_array id="geometry0-texCoords-array" count="0"></float_array>
                    <technique_common>
                        <accessor count="0" source="#geometry0-texCoords-array" stride="2">
                            <param name="S" type="float"/>
                            <param name="T" type="float"/>
                        </accessor>
                    </technique_common>
                </source>
                <vertices id="geometry0-vertex">
                    <input semantic="POSITION" source="#geometry0-position"/>
                </vertices>
                <triangles count="10" material="default_dc_r_0.6_g_0.6_b_0_tri">
                    <input offset="0" semantic="VERTEX" source="#geometry0-vertex"/>
                    <input offset="1" semantic="NORMAL" source="#geometry0-normal"/>
                    <p>0 12 1 13 2 14 3 15 0 16 2 17 4 18 5 19 2 20 6 21 1 22 0 23 1 27 4 28 2 29 7 33 1 34 6 35 2 45 8 46 9 47 8 48 10 49 9 50 3 51 2 52 9 53 11 54 8 55 2 56</p>
                </triangles>
                <triangles count="18" material="default_dc_r_1.0_g_1.0_b_1_tri">
                    <input offset="0" semantic="VERTEX" source="#geometry0-vertex"/>
                    <input offset="1" semantic="NORMAL" source="#geometry0-normal"/>
                    <p>19 6 20 7 18 8 20 9 17 10 18 11 21 24 22 25 19 26 22 30 23 31 20 32 19 36 22 37 20 38 24 39 21 40 19 41 25 42 21 43 24 44 15 57 26 58 27 59 15 60 14 61 26 62 28 63 15 64 27 65 12 66 13 67 14 68 12 69 14 70 15 71 16 72 13 73 12 74 29 75 27 76 26 77 23 78 29 79 26 80 22 81 29 82 23 83 17 84 13 85 16 86 17 87 16 88 18 89</p>
                </triangles>
                <triangles count="4" material="default_dc_r_0.9_g_0.7_b_0_tri">
                    <input offset="0" semantic="VERTEX" source="#geometry0-vertex"/>
                    <input offset="1" semantic="NORMAL" source="#geometry0-normal"/>
                    <p>34 0 31 1 30 2 35 3 34 4 30 5 30 90 31 91 32 92 30 93 32 94 33 95</p>
                </triangles>
            </mesh>
        </geometry>
    </library_geometries>
    <library_visual_scenes>
        <visual_scene id="Building_FME_5f188e36-5d07-46e3-b5da-206ba2d9f93a">
            <node>
                <instance_geometry url="#geometry0">
                    <bind_material>
                        <technique_common>
                            <instance_material symbol="default_dc_r_0.6_g_0.6_b_0_tri" target="#default_dc_r_0.6_g_0.6_b_0_mat"/>
                            <instance_material symbol="default_dc_r_1.0_g_1.0_b_1_tri" target="#default_dc_r_1.0_g_1.0_b_1_mat"/>
                            <instance_material symbol="default_dc_r_0.9_g_0.7_b_0_tri" target="#default_dc_r_0.9_g_0.7_b_0_mat"/>
                        </technique_common>
                    </bind_material>
                </instance_geometry>
            </node>
        </visual_scene>
    </library_visual_scenes>
    <scene>
        <instance_visual_scene url="#Building_FME_5f188e36-5d07-46e3-b5da-206ba2d9f93a"/>
    </scene>
</COLLADA>
