<?xml version="1.0" encoding="UTF-8" standalone="yes"?>
<COLLADA xmlns="http://www.collada.org/2005/11/COLLADASchema" version="1.4.1">
    <asset>
        <contributor>
            <authoring_tool>3D City Database Importer/Exporter, version 5.5.1; Chair of Geoinformatics, Technical University of Munich</authoring_tool>
        </contributor>
        <created>2026-01-16T16:51:34.343</created>
        <modified>2026-01-16T16:51:34.343</modified>
        <unit meter="1.0" name="meters"/>
        <up_axis>Z_UP</up_axis>
    </asset>
    <library_materials>
        <material id="default_ai_0.2_sh_0.2_tr_0.0_dc_r_0.8_g_0.8_b_0.8_sc_r_1.0_g_1.0_b_1.0_ec_r_0.0_g_0.0_b_0_mat">
            <instance_effect url="#default_ai_0.2_sh_0.2_tr_0.0_dc_r_0.8_g_0.8_b_0.8_sc_r_1.0_g_1.0_b_1.0_ec_r_0.0_g_0.0_b_0_eff"/>
        </material>
        <material id="default_ai_0.2_sh_0.2_tr_0.0_dc_r_1.0_g_0.2_b_0.2_sc_r_1.0_g_1.0_b_1.0_ec_r_0.0_g_0.0_b_0_mat">
            <instance_effect url="#default_ai_0.2_sh_0.2_tr_0.0_dc_r_1.0_g_0.2_b_0.2_sc_r_1.0_g_1.0_b_1.0_ec_r_0.0_g_0.0_b_0_eff"/>
        </material>
    </library_materials>
    <library_effects>
        <effect id="default_ai_0.2_sh_0.2_tr_0.0_dc_r_0.8_g_0.8_b_0.8_sc_r_1.0_g_1.0_b_1.0_ec_r_0.0_g_0.0_b_0_eff">
            <profile_COMMON>
                <technique sid="COMMON">
                    <lambert>
                        <emission>
                            <color>0.0 0.0 0.0 1.0</color>
                        </emission>
                        <diffuse>
                            <color>0.8 0.8 0.8 1.0</color>
                        </diffuse>
                        <reflective>
                            <color>1.0 1.0 1.0 1.0</color>
                        </reflective>
                        <reflectivity>
                            <float>0.2</float>
                        </reflectivity>
                        <transparent opaque="A_ONE">
                            <color>1.0 1.0 1.0 1.0</color>
                        </transparent>
                        <transparency>
                            <float>1.0</float>
                        </transparency>
                    </lambert>
                </technique>
                <extra>
                    <technique profile="GOOGLEEARTH">
                        <double_sided>1</double_sided>
                    </technique>
                </extra>
            </profile_COMMON>
        </effect>
        <effect id="default_ai_0.2_sh_0.2_tr_0.0_dc_r_1.0_g_0.2_b_0.2_sc_r_1.0_g_1.0_b_1.0_ec_r_0.0_g_0.0_b_0_eff">
            <profile_COMMON>
                <technique sid="COMMON">
                    <lambert>
                        <emission>
                            <color>0.0 0.0 0.0 1.0</color>
                        </emission>
                        <diffuse>
                            <color>1.0 0.2 0.2 1.0</color>
                        </diffuse>
                        <reflective>
                            <color>1.0 1.0 1.0 1.0</color>
                        </reflective>
                        <reflectivity>
                            <float>0.2</float>
                        </reflectivity>
                        <transparent opaque="A_ONE">
                            <color>1.0 1.0 1.0 1.0</color>
                        </transparent>
                        <transparency>
                            <float>1.0</float>
                        </transparency>
                    </lambert>
                </technique>
                <extra>
                    <technique profile="GOOGLEEARTH">
                        <double_sided>1</double_sided>
                    </technique>
                </extra>
            </profile_COMMON>
        </effect>
    </library_effects>
    <library_geometries>
        <geometry id="geometry0">
            <mesh>
                <source id="geometry0-position">
                    <float_array id="geometry0-position-array" count="129">0.8173212 1.8253326 5.000063 -0.7425848 6.9062958 6.0000619 -2.3771673 3.2555237 5.000063 2.4519038 5.4760895 6.0000629 5.1899409 4.2502136 6.0000638 9.1E-5 -7.63E-5 3.9002409 2.7380976 -1.2259674 3.9002409 6.0071295 6.0756027 5.5005709 0.8919372 10.5570831 5.0010627 -0.7425848 6.9062962 6.0000645 6.8243993 7.9010203 5.0010635 5.7060301 5.4030805 5.6845999 2.4519026 5.4760885 6.0000608 5.189941 4.2502128 6.0000636 0.817271 1.8253333 4.6001813 2.451823 5.4761283 6.0000617 0.8172557 1.8253409 5.0000622 -2.3771718 3.2555701 6.3E-5 0.891917 10.5571448 5.0010602 0.8919017 10.5571448 6.3E-5 -2.3771718 3.2555701 5.0000626 -0.7426198 6.9063574 6.0000612 6.8244426 7.9010092 5.0010621 3.5553691 0.5994345 3.6667306 3.5553691 0.5994193 4.5159752 6.8244578 7.9010016 6.4E-5 3.5553691 0.5994193 6.31E-5 0.817271 1.8253409 6.32E-5 1.02E-5 -6.04E-5 3.9002408 1.02E-5 -6.04E-5 6.19E-5 2.7380931 -1.2259668 6.32E-5 2.7380931 -1.2259668 3.9002406 3.5157268 0.5108802 4.5100929 3.5553691 0.5994345 4.6001813 6.8244426 7.9010092 5.0852682 6.6201427 7.444657 4.9707443 6.6758525 7.5691153 4.9828402 6.8244629 7.9010773 1.2E-6 0.8172913 1.8254242 9.0E-7 -2.3771057 3.2556458 1.3E-6 2.7380981 -1.2259064 7.0E-7 0.0 0.0 0.0 0.8919373 10.5572205 9.0E-7</float_array>
                    <technique_common>
                        <accessor count="43" source="#geometry0-position-array" stride="3">
                            <param name="X" type="float"/>
                            <param name="Y" type="float"/>
                            <param name="Z" type="float"/>
                        </accessor>
                    </technique_common>
                </source>
                <source id="geometry0-normal">
                    <float_array id="geometry0-normal-array" count="315">-0.4086366 -0.9126972 -1.2E-6 -0.4086366 -0.9126972 -1.2E-6 -0.4086366 -0.9126972 -1.2E-6 -0.9126985 0.4086336 7.3E-6 -0.9126985 0.4086336 7.3E-6 -0.9126985 0.4086336 7.3E-6 -0.9127001 0.4086301 0.0 -0.9127001 0.4086301 0.0 -0.9127001 0.4086301 0.0 -0.9126979 0.4086352 -3.4E-6 -0.9126979 0.4086352 -3.4E-6 -0.9126979 0.4086352 -3.4E-6 -0.9126995 0.4086313 7.0E-7 -0.9126995 0.4086313 7.0E-7 -0.9126995 0.4086313 7.0E-7 -0.9126974 0.4086359 -1.7E-6 -0.9126974 0.4086359 -1.7E-6 -0.9126974 0.4086359 -1.7E-6 0.9127465 -0.4085265 -3.673E-4 0.9127465 -0.4085265 -3.673E-4 0.9127465 -0.4085265 -3.673E-4 0.9126909 -0.4086509 4.26E-5 0.9126909 -0.4086509 4.26E-5 0.9126909 -0.4086509 4.26E-5 -0.4086367 -0.9126971 0.0 -0.4086367 -0.9126971 0.0 -0.4086367 -0.9126971 0.0 -0.4086367 -0.9126971 0.0 -0.4086367 -0.9126971 0.0 -0.4086367 -0.9126971 0.0 0.4086359 0.9126975 -1.0E-7 0.4086359 0.9126975 -1.0E-7 0.4086359 0.9126975 -1.0E-7 0.4086367 0.9126971 -1.3E-6 0.4086367 0.9126971 -1.3E-6 0.4086367 0.9126971 -1.3E-6 -0.912698 0.4086347 2.8E-6 -0.912698 0.4086347 2.8E-6 -0.912698 0.4086347 2.8E-6 -0.9126973 0.4086363 0.0 -0.9126973 0.4086363 0.0 -0.9126973 0.4086363 0.0 -0.1349848 -0.3014861 0.9438671 -0.1349848 -0.3014861 0.9438671 -0.1349848 -0.3014861 0.9438671 -0.9126973 0.4086363 7.2E-6 -0.9126973 0.4086363 7.2E-6 -0.9126973 0.4086363 7.2E-6 -0.0991055 -0.2213629 0.9701425 -0.0991055 -0.2213629 0.9701425 -0.0991055 -0.2213629 0.9701425 -0.1349828 -0.3014883 0.9438668 -0.1349828 -0.3014883 0.9438668 -0.1349828 -0.3014883 0.9438668 -0.099107 -0.2213633 0.9701423 -0.099107 -0.2213633 0.9701423 -0.099107 -0.2213633 0.9701423 0.9126972 -0.4086366 0.0 0.9126972 -0.4086366 0.0 0.9126972 -0.4086366 0.0 -1.0E-7 1.0E-7 -1.0 -1.0E-7 1.0E-7 -1.0 -1.0E-7 1.0E-7 -1.0 0.9126977 -0.4086354 3.4E-6 0.9126977 -0.4086354 3.4E-6 0.9126977 -0.4086354 3.4E-6 -0.0 1.0E-7 -1.0 -0.0 1.0E-7 -1.0 -0.0 1.0E-7 -1.0 0.9126987 -0.408633 -2.01E-5 0.9126987 -0.408633 -2.01E-5 0.9126987 -0.408633 -2.01E-5 4.0E-7 3.0E-7 -1.0 4.0E-7 3.0E-7 -1.0 4.0E-7 3.0E-7 -1.0 0.9126842 -0.4086655 9.13E-5 0.9126842 -0.4086655 9.13E-5 0.9126842 -0.4086655 9.13E-5 0.0 -1.0E-7 -1.0 0.0 -1.0E-7 -1.0 0.0 -1.0E-7 -1.0 0.0427356 -0.0191339 0.9989032 0.0427356 -0.0191339 0.9989032 0.0427356 -0.0191339 0.9989032 0.0628294 0.0382295 -0.9972918 0.0628294 0.0382295 -0.9972918 0.0628294 0.0382295 -0.9972918 0.0990146 0.2211548 0.9701993 0.0990146 0.2211548 0.9701993 0.0990146 0.2211548 0.9701993 0.0990147 0.2211549 0.9701992 0.0990147 0.2211549 0.9701992 0.0990147 0.2211549 0.9701992 0.0990145 0.2211545 0.9701995 0.0990145 0.2211545 0.9701995 0.0990145 0.2211545 0.9701995 0.0990146 0.221155 0.9701992 0.0990146 0.221155 0.9701992 0.0990146 0.221155 0.9701992 0.0990145 0.2211547 0.9701993 0.0990145 0.2211547 0.9701993 0.0990145 0.2211547 0.9701993 -0.4086382 -0.9126965 0.0 -0.4086382 -0.9126965 0.0 -0.4086382 -0.9126965 0.0</float_array>
                    <technique_common>
                        <accessor count="105" source="#geometry0-normal-array" stride="3">
                            <param name="X" type="float"/>
                            <param name="Y" type="float"/>
                            <param name="Z" type="float"/>
                        </accessor>
                    </technique_common>
                </source>
                <source id="geometry0-texCoords">
                    <float_array id="geometry0-texCoords-array" count="0"></float_array>
                    <technique_common>
                        <accessor count="0" source="#geometry0-texCoords-array" stride="2">
                            <param name="S" type="float"/>
                            <param name="T" type="float"/>
                        </accessor>
                    </technique_common>
                </source>
                <vertices id="geometry0-vertex">
                    <input semantic="POSITION" source="#geometry0-position"/>
                </vertices>
                <triangles count="26" material="default_ai_0.2_sh_0.2_tr_0.0_dc_r_0.8_g_0.8_b_0.8_sc_r_1.0_g_1.0_b_1.0_ec_r_0.0_g_0.0_b_0_tri">
                    <input offset="0" semantic="VERTEX" source="#geometry0-vertex"/>
                    <input offset="1" semantic="NORMAL" source="#geometry0-normal"/>
                    <p>27 0 16 1 17 2 22 3 23 4 24 5 28 6 27 7 29 8 25 9 23 10 22 11 14 12 27 13 28 14 26 15 23 16 25 17 34 18 35 19 36 20 14 21 15 22 16 23 28 24 30 25 31 26 29 27 30 28 28 29 19 30 22 31 25 32 18 33 22 34 19 35 17 36 18 37 19 38 20 39 18 40 17 41 21 45 18 46 20 47 25 57 31 58 30 59 37 60 38 61 39 62 22 63 31 64 25 65 40 66 38 67 37 68 32 69 31 70 22 71 41 72 38 73 40 74 33 75 31 76 32 77 42 78 37 79 39 80 26 81 25 82 30 83 24 84 32 85 22 86 17 102 16 103 20 104</p>
                </triangles>
                <triangles count="9" material="default_ai_0.2_sh_0.2_tr_0.0_dc_r_1.0_g_0.2_b_0.2_sc_r_1.0_g_1.0_b_1.0_ec_r_0.0_g_0.0_b_0_tri">
                    <input offset="0" semantic="VERTEX" source="#geometry0-vertex"/>
                    <input offset="1" semantic="NORMAL" source="#geometry0-normal"/>
                    <p>4 42 5 43 6 44 0 48 1 49 2 50 3 51 5 52 4 53 3 54 1 55 0 56 7 87 8 88 9 89 10 90 8 91 7 92 11 93 9 94 12 95 7 96 9 97 11 98 11 99 12 100 13 101</p>
                </triangles>
            </mesh>
        </geometry>
    </library_geometries>
    <library_visual_scenes>
        <visual_scene id="Building_pb-9635c10a-7f36-11f0-bcc0-9c7bef4dcf4c">
            <node>
                <instance_geometry url="#geometry0">
                    <bind_material>
                        <technique_common>
                            <instance_material symbol="default_ai_0.2_sh_0.2_tr_0.0_dc_r_0.8_g_0.8_b_0.8_sc_r_1.0_g_1.0_b_1.0_ec_r_0.0_g_0.0_b_0_tri" target="#default_ai_0.2_sh_0.2_tr_0.0_dc_r_0.8_g_0.8_b_0.8_sc_r_1.0_g_1.0_b_1.0_ec_r_0.0_g_0.0_b_0_mat"/>
                            <instance_material symbol="default_ai_0.2_sh_0.2_tr_0.0_dc_r_1.0_g_0.2_b_0.2_sc_r_1.0_g_1.0_b_1.0_ec_r_0.0_g_0.0_b_0_tri" target="#default_ai_0.2_sh_0.2_tr_0.0_dc_r_1.0_g_0.2_b_0.2_sc_r_1.0_g_1.0_b_1.0_ec_r_0.0_g_0.0_b_0_mat"/>
                        </technique_common>
                    </bind_material>
                </instance_geometry>
            </node>
        </visual_scene>
    </library_visual_scenes>
    <scene>
        <instance_visual_scene url="#Building_pb-9635c10a-7f36-11f0-bcc0-9c7bef4dcf4c"/>
    </scene>
</COLLADA>
