<?xml version="1.0" encoding="UTF-8" standalone="yes"?>
<COLLADA xmlns="http://www.collada.org/2005/11/COLLADASchema" version="1.4.1">
    <asset>
        <contributor>
            <authoring_tool>3D City Database Importer/Exporter, version 5.5.1; Chair of Geoinformatics, Technical University of Munich</authoring_tool>
        </contributor>
        <created>2026-01-16T16:51:34.168</created>
        <modified>2026-01-16T16:51:34.168</modified>
        <unit meter="1.0" name="meters"/>
        <up_axis>Z_UP</up_axis>
    </asset>
    <library_materials>
        <material id="default_dc_r_0.6_g_0.6_b_0_mat">
            <instance_effect url="#default_dc_r_0.6_g_0.6_b_0_eff"/>
        </material>
        <material id="default_dc_r_1.0_g_1.0_b_1_mat">
            <instance_effect url="#default_dc_r_1.0_g_1.0_b_1_eff"/>
        </material>
        <material id="default_dc_r_0.9_g_0.7_b_0_mat">
            <instance_effect url="#default_dc_r_0.9_g_0.7_b_0_eff"/>
        </material>
    </library_materials>
    <library_effects>
        <effect id="default_dc_r_0.6_g_0.6_b_0_eff">
            <profile_COMMON>
                <technique sid="COMMON">
                    <lambert>
                        <emission>
                            <color>0.0 0.0 0.0 1.0</color>
                        </emission>
                        <diffuse>
                            <color>0.6 0.6 0.6 1.0</color>
                        </diffuse>
                    </lambert>
                </technique>
                <extra>
                    <technique profile="GOOGLEEARTH">
                        <double_sided>1</double_sided>
                    </technique>
                </extra>
            </profile_COMMON>
        </effect>
        <effect id="default_dc_r_1.0_g_1.0_b_1_eff">
            <profile_COMMON>
                <technique sid="COMMON">
                    <lambert>
                        <emission>
                            <color>0.0 0.0 0.0 1.0</color>
                        </emission>
                        <diffuse>
                            <color>1.0 1.0 1.0 1.0</color>
                        </diffuse>
                    </lambert>
                </technique>
                <extra>
                    <technique profile="GOOGLEEARTH">
                        <double_sided>1</double_sided>
                    </technique>
                </extra>
            </profile_COMMON>
        </effect>
        <effect id="default_dc_r_0.9_g_0.7_b_0_eff">
            <profile_COMMON>
                <technique sid="COMMON">
                    <lambert>
                        <emission>
                            <color>0.0 0.0 0.0 1.0</color>
                        </emission>
                        <diffuse>
                            <color>0.9 0.7 0.4 1.0</color>
                        </diffuse>
                    </lambert>
                </technique>
                <extra>
                    <technique profile="GOOGLEEARTH">
                        <double_sided>1</double_sided>
                    </technique>
                </extra>
            </profile_COMMON>
        </effect>
    </library_effects>
    <library_geometries>
        <geometry id="geometry0">
            <mesh>
                <source id="geometry0-position">
                    <float_array id="geometry0-position-array" count="135">-3.9402 -1.3579 2.996224 -4.4426 -1.7263 2.786224 -6.2385 -5.8072 2.769624 -6.863 -8.1011 2.996224 -6.8862 -8.0908 2.979224 -4.5674 -1.6714 2.695224 -7.1855 -7.9591 2.760924 -3.8006 -8.6332 2.487424 -4.1015 -9.3167 2.488124 0.0 0.0 2.478324 -0.0655 0.0288 2.490424 -6.2142 2.7354 2.483524 -6.3702 2.8041 2.483324 -7.5194 0.1935 2.996224 -7.5565 0.1091 2.944524 -7.7277 -0.2798 2.706324 -6.4491 -0.8428 2.701824 -6.2142 2.7354 2.4835 0.0 0.0 0.0 -6.3702 2.8041 0.0 -6.3702 2.8041 2.4834 -0.0655 0.0288 2.4904 0.0 0.0 2.4783 -3.8006 -8.6332 2.4874 -4.1015 -9.3167 0.0 -4.1015 -9.3167 2.4881 -7.1855 -7.9591 0.0 -6.8862 -8.0908 2.9792 -7.1855 -7.9591 2.7609 -6.863 -8.1011 2.9962 -6.2385 -5.8072 2.7697 -4.4426 -1.7263 0.0 -4.4426 -1.7263 2.7862 -7.5565 0.1091 2.9445 -7.7277 -0.2798 0.0 -7.7277 -0.2798 2.7064 -7.5194 0.1935 2.9962 -4.5674 -1.6714 2.6952 -6.4491 -0.8428 2.7018 -4.4426 -1.7263 3.6E-5 -7.7277 -0.2798 3.6E-5 -6.3702 2.8041 3.6E-5 0.0 0.0 3.6E-5 -4.1015 -9.3167 3.6E-5 -7.1855 -7.9591 3.6E-5</float_array>
                    <technique_common>
                        <accessor count="45" source="#geometry0-position-array" stride="3">
                            <param name="X" type="float"/>
                            <param name="Y" type="float"/>
                            <param name="Z" type="float"/>
                        </accessor>
                    </technique_common>
                </source>
                <source id="geometry0-normal">
                    <float_array id="geometry0-normal-array" count="378">-0.509437 0.2208287 0.8316902 -0.509437 0.2208287 0.8316902 -0.509437 0.2208287 0.8316902 -0.9152899 0.4027958 0.0 -0.9152899 0.4027958 0.0 -0.9152899 0.4027958 0.0 -0.4030043 -0.9151981 -1.88E-5 -0.4030043 -0.9151981 -1.88E-5 -0.4030043 -0.9151981 -1.88E-5 -0.402988 -0.9152052 0.0 -0.402988 -0.9152052 0.0 -0.402988 -0.9152052 0.0 0.9152371 -0.4029157 -7.0E-7 0.9152371 -0.4029157 -7.0E-7 0.9152371 -0.4029157 -7.0E-7 -0.402985 -0.9152066 -1.7E-6 -0.402985 -0.9152066 -1.7E-6 -0.402985 -0.9152066 -1.7E-6 0.9152361 -0.4029179 0.0 0.9152361 -0.4029179 0.0 0.9152361 -0.4029179 0.0 -0.4026646 -0.9153476 0.0 -0.4026646 -0.9153476 0.0 -0.4026646 -0.9153476 0.0 0.9152372 -0.4029155 0.0 0.9152372 -0.4029155 0.0 0.9152372 -0.4029155 0.0 0.0 0.0 -1.0 0.0 0.0 -1.0 0.0 0.0 -1.0 0.0 0.0 -1.0 0.0 0.0 -1.0 0.0 0.0 -1.0 -0.1944848 -0.4486568 0.872286 -0.1944848 -0.4486568 0.872286 -0.1944848 -0.4486568 0.872286 0.0 0.0 -1.0 0.0 0.0 -1.0 0.0 0.0 -1.0 -0.1945808 -0.4487506 0.8722162 -0.1945808 -0.4487506 0.8722162 -0.1945808 -0.4487506 0.8722162 0.0 0.0 -1.0 0.0 0.0 -1.0 0.0 0.0 -1.0 -0.1944532 -0.4485398 0.8723533 -0.1944532 -0.4485398 0.8723533 -0.1944532 -0.4485398 0.8723533 -0.915242 0.4029048 0.0 -0.915242 0.4029048 0.0 -0.915242 0.4029048 0.0 -0.1944697 -0.4486566 0.8722894 -0.1944697 -0.4486566 0.8722894 -0.1944697 -0.4486566 0.8722894 -0.9154787 0.4023663 8.49E-5 -0.9154787 0.4023663 8.49E-5 -0.9154787 0.4023663 8.49E-5 -0.9152512 0.4028839 0.0 -0.9152512 0.4028839 0.0 -0.9152512 0.4028839 0.0 -0.9152468 0.4028936 -1.45E-5 -0.9152468 0.4028936 -1.45E-5 -0.9152468 0.4028936 -1.45E-5 -0.4028978 -0.915245 0.0 -0.4028978 -0.915245 0.0 -0.4028978 -0.915245 0.0 -0.4027602 -0.9153056 0.0 -0.4027602 -0.9153056 0.0 -0.4027602 -0.9153056 0.0 -0.4028903 -0.9152483 -1.11E-5 -0.4028903 -0.9152483 -1.11E-5 -0.4028903 -0.9152483 -1.11E-5 -0.4059999 -0.913873 3.888E-4 -0.4059999 -0.913873 3.888E-4 -0.4059999 -0.913873 3.888E-4 0.1523627 -0.0660407 0.9861158 0.1523627 -0.0660407 0.9861158 0.1523627 -0.0660407 0.9861158 0.1523586 -0.0660635 0.9861149 0.1523586 -0.0660635 0.9861149 0.1523586 -0.0660635 0.9861149 0.1523741 -0.0660403 0.986114 0.1523741 -0.0660403 0.986114 0.1523741 -0.0660403 0.986114 0.1526886 -0.0669966 0.9860008 0.1526886 -0.0669966 0.9860008 0.1526886 -0.0669966 0.9860008 0.4028845 0.9152509 1.11E-5 0.4028845 0.9152509 1.11E-5 0.4028845 0.9152509 1.11E-5 0.4030336 0.9151852 0.0 0.4030336 0.9151852 0.0 0.4030336 0.9151852 0.0 0.4028848 0.9152507 1.19E-5 0.4028848 0.9152507 1.19E-5 0.4028848 0.9152507 1.19E-5 0.4025045 0.9154181 0.0 0.4025045 0.9154181 0.0 0.4025045 0.9154181 0.0 0.070271 0.1624331 0.9842141 0.070271 0.1624331 0.9842141 0.070271 0.1624331 0.9842141 0.0703819 0.1623764 0.9842156 0.0703819 0.1623764 0.9842156 0.0703819 0.1623764 0.9842156 0.0703691 0.1623696 0.9842176 0.0703691 0.1623696 0.9842176 0.0703691 0.1623696 0.9842176 -0.5095599 0.2208616 0.8316061 -0.5095599 0.2208616 0.8316061 -0.5095599 0.2208616 0.8316061 -0.5106639 0.221101 0.8308652 -0.5106639 0.221101 0.8308652 -0.5106639 0.221101 0.8308652 -0.5095933 0.2208802 0.8315808 -0.5095933 0.2208802 0.8315808 -0.5095933 0.2208802 0.8315808 -0.9152896 0.4027962 8.0E-7 -0.9152896 0.4027962 8.0E-7 -0.9152896 0.4027962 8.0E-7 -0.5094351 0.2206096 0.8317495 -0.5094351 0.2206096 0.8317495 -0.5094351 0.2206096 0.8317495 -0.9152893 0.402797 0.0 -0.9152893 0.402797 0.0 -0.9152893 0.402797 0.0</float_array>
                    <technique_common>
                        <accessor count="126" source="#geometry0-normal-array" stride="3">
                            <param name="X" type="float"/>
                            <param name="Y" type="float"/>
                            <param name="Z" type="float"/>
                        </accessor>
                    </technique_common>
                </source>
                <source id="geometry0-texCoords">
                    <float_array id="geometry0-texCoords-array" count="0"></float_array>
                    <technique_common>
                        <accessor count="0" source="#geometry0-texCoords-array" stride="2">
                            <param name="S" type="float"/>
                            <param name="T" type="float"/>
                        </accessor>
                    </technique_common>
                </source>
                <vertices id="geometry0-vertex">
                    <input semantic="POSITION" source="#geometry0-position"/>
                </vertices>
                <triangles count="16" material="default_dc_r_0.6_g_0.6_b_0_tri">
                    <input offset="0" semantic="VERTEX" source="#geometry0-vertex"/>
                    <input offset="1" semantic="NORMAL" source="#geometry0-normal"/>
                    <p>2 0 6 1 4 2 14 33 15 34 16 35 13 39 14 40 16 41 5 45 0 46 16 47 0 51 13 52 16 53 7 75 0 76 3 77 7 78 3 79 8 80 9 81 0 82 7 83 10 84 0 85 9 86 11 99 12 100 13 101 0 102 11 103 13 104 10 105 11 106 0 107 0 108 1 109 2 110 3 111 2 112 4 113 3 114 0 115 2 116 0 120 5 121 1 122</p>
                </triangles>
                <triangles count="22" material="default_dc_r_1.0_g_1.0_b_1_tri">
                    <input offset="0" semantic="VERTEX" source="#geometry0-vertex"/>
                    <input offset="1" semantic="NORMAL" source="#geometry0-normal"/>
                    <p>32 3 31 4 30 5 37 6 38 7 31 8 38 9 35 10 34 11 18 12 23 13 24 14 31 15 38 16 34 17 23 18 25 19 24 20 32 21 37 22 31 23 22 24 23 25 18 26 33 48 34 49 35 50 33 54 36 55 34 56 20 57 19 58 34 59 36 60 20 61 34 62 25 63 26 64 24 65 27 66 28 67 26 68 25 69 29 70 26 71 29 72 27 73 26 74 17 87 18 88 19 89 17 90 19 91 20 92 21 93 18 94 17 95 22 96 18 97 21 98 30 117 31 118 26 119 30 123 26 124 28 125</p>
                </triangles>
                <triangles count="4" material="default_dc_r_0.9_g_0.7_b_0_tri">
                    <input offset="0" semantic="VERTEX" source="#geometry0-vertex"/>
                    <input offset="1" semantic="NORMAL" source="#geometry0-normal"/>
                    <p>39 27 40 28 41 29 42 30 39 31 41 32 43 36 39 37 42 38 44 42 39 43 43 44</p>
                </triangles>
            </mesh>
        </geometry>
    </library_geometries>
    <library_visual_scenes>
        <visual_scene id="Building_FME_9db3874c-2927-41a1-860e-0c6d9589224d">
            <node>
                <instance_geometry url="#geometry0">
                    <bind_material>
                        <technique_common>
                            <instance_material symbol="default_dc_r_0.6_g_0.6_b_0_tri" target="#default_dc_r_0.6_g_0.6_b_0_mat"/>
                            <instance_material symbol="default_dc_r_1.0_g_1.0_b_1_tri" target="#default_dc_r_1.0_g_1.0_b_1_mat"/>
                            <instance_material symbol="default_dc_r_0.9_g_0.7_b_0_tri" target="#default_dc_r_0.9_g_0.7_b_0_mat"/>
                        </technique_common>
                    </bind_material>
                </instance_geometry>
            </node>
        </visual_scene>
    </library_visual_scenes>
    <scene>
        <instance_visual_scene url="#Building_FME_9db3874c-2927-41a1-860e-0c6d9589224d"/>
    </scene>
</COLLADA>
