<?xml version="1.0" encoding="UTF-8" standalone="yes"?>
<COLLADA xmlns="http://www.collada.org/2005/11/COLLADASchema" version="1.4.1">
    <asset>
        <contributor>
            <authoring_tool>3D City Database Importer/Exporter, version 5.5.1; Chair of Geoinformatics, Technical University of Munich</authoring_tool>
        </contributor>
        <created>2026-01-16T16:51:33.939</created>
        <modified>2026-01-16T16:51:33.939</modified>
        <unit meter="1.0" name="meters"/>
        <up_axis>Z_UP</up_axis>
    </asset>
    <library_materials>
        <material id="default_ai_0.2_sh_0.2_tr_0.0_dc_r_1.0_g_0.2_b_0.2_sc_r_1.0_g_1.0_b_1.0_ec_r_0.0_g_0.0_b_0_mat">
            <instance_effect url="#default_ai_0.2_sh_0.2_tr_0.0_dc_r_1.0_g_0.2_b_0.2_sc_r_1.0_g_1.0_b_1.0_ec_r_0.0_g_0.0_b_0_eff"/>
        </material>
        <material id="default_ai_0.2_sh_0.2_tr_0.0_dc_r_0.8_g_0.8_b_0.8_sc_r_1.0_g_1.0_b_1.0_ec_r_0.0_g_0.0_b_0_mat">
            <instance_effect url="#default_ai_0.2_sh_0.2_tr_0.0_dc_r_0.8_g_0.8_b_0.8_sc_r_1.0_g_1.0_b_1.0_ec_r_0.0_g_0.0_b_0_eff"/>
        </material>
    </library_materials>
    <library_effects>
        <effect id="default_ai_0.2_sh_0.2_tr_0.0_dc_r_1.0_g_0.2_b_0.2_sc_r_1.0_g_1.0_b_1.0_ec_r_0.0_g_0.0_b_0_eff">
            <profile_COMMON>
                <technique sid="COMMON">
                    <lambert>
                        <emission>
                            <color>0.0 0.0 0.0 1.0</color>
                        </emission>
                        <diffuse>
                            <color>1.0 0.2 0.2 1.0</color>
                        </diffuse>
                        <reflective>
                            <color>1.0 1.0 1.0 1.0</color>
                        </reflective>
                        <reflectivity>
                            <float>0.2</float>
                        </reflectivity>
                        <transparent opaque="A_ONE">
                            <color>1.0 1.0 1.0 1.0</color>
                        </transparent>
                        <transparency>
                            <float>1.0</float>
                        </transparency>
                    </lambert>
                </technique>
                <extra>
                    <technique profile="GOOGLEEARTH">
                        <double_sided>1</double_sided>
                    </technique>
                </extra>
            </profile_COMMON>
        </effect>
        <effect id="default_ai_0.2_sh_0.2_tr_0.0_dc_r_0.8_g_0.8_b_0.8_sc_r_1.0_g_1.0_b_1.0_ec_r_0.0_g_0.0_b_0_eff">
            <profile_COMMON>
                <technique sid="COMMON">
                    <lambert>
                        <emission>
                            <color>0.0 0.0 0.0 1.0</color>
                        </emission>
                        <diffuse>
                            <color>0.8 0.8 0.8 1.0</color>
                        </diffuse>
                        <reflective>
                            <color>1.0 1.0 1.0 1.0</color>
                        </reflective>
                        <reflectivity>
                            <float>0.2</float>
                        </reflectivity>
                        <transparent opaque="A_ONE">
                            <color>1.0 1.0 1.0 1.0</color>
                        </transparent>
                        <transparency>
                            <float>1.0</float>
                        </transparency>
                    </lambert>
                </technique>
                <extra>
                    <technique profile="GOOGLEEARTH">
                        <double_sided>1</double_sided>
                    </technique>
                </extra>
            </profile_COMMON>
        </effect>
    </library_effects>
    <library_geometries>
        <geometry id="geometry0">
            <mesh>
                <source id="geometry0-position">
                    <float_array id="geometry0-position-array" count="81">-5.8404852 -10.4878149 9.0000547 -32.3254858 17.9966211 9.0000547 -38.1727148 7.4969416 9.0000547 6.861E-4 0.001214 9.0000547 -38.17273 7.496947 9.000057 -5.8404775 -10.4878115 5.51E-5 -5.8404775 -10.4878092 9.0000541 -38.17273 7.4969527 5.63E-5 -10.4841924 5.8334357 18.0000532 6.862E-4 0.0012414 9.0000551 6.862E-4 0.0012433 18.0000532 -10.4842 5.8334357 9.0000551 -32.3254705 17.9966247 5.62E-5 -32.3254705 17.9966285 9.0000561 -10.4841924 5.8334319 5.53E-5 -0.0116067 -0.0208271 8.9811139 -5.8404756 -10.487799 9.000053 -5.8404765 -10.4878028 5.48E-5 -0.0116067 -0.0208271 9.0000539 -0.0116058 -0.0208252 5.1229883 -0.011601 -0.020819 5.42E-5 -10.4835999 5.8314791 3.6E-6 0.0 0.0 0.0 -5.8404341 -10.4877386 1.0E-7 -10.4876053 5.8337073 3.6E-6 -38.1727123 7.4970026 1.12E-5 -32.3321114 17.9846663 1.11E-5</float_array>
                    <technique_common>
                        <accessor count="27" source="#geometry0-position-array" stride="3">
                            <param name="X" type="float"/>
                            <param name="Y" type="float"/>
                            <param name="Z" type="float"/>
                        </accessor>
                    </technique_common>
                </source>
                <source id="geometry0-normal">
                    <float_array id="geometry0-normal-array" count="162">0.0 0.0 1.0 0.0 0.0 1.0 0.0 0.0 1.0 0.4865338 0.8736618 -4.0E-7 0.4865338 0.8736618 -4.0E-7 0.4865338 0.8736618 -4.0E-7 0.0 0.0 1.0 0.0 0.0 1.0 0.0 0.0 1.0 0.4865336 0.8736618 1.0E-7 0.4865336 0.8736618 1.0E-7 0.4865336 0.8736618 1.0E-7 -3.0E-7 1.0E-7 -1.0 -3.0E-7 1.0E-7 -1.0 -3.0E-7 1.0E-7 -1.0 -3.0E-7 1.0E-7 -1.0 -3.0E-7 1.0E-7 -1.0 -3.0E-7 1.0E-7 -1.0 -3.0E-7 1.0E-7 -1.0 -3.0E-7 1.0E-7 -1.0 -3.0E-7 1.0E-7 -1.0 -3.0E-7 1.0E-7 -1.0 -3.0E-7 1.0E-7 -1.0 -3.0E-7 1.0E-7 -1.0 -0.4861054 -0.8739002 2.0E-7 -0.4861054 -0.8739002 2.0E-7 -0.4861054 -0.8739002 2.0E-7 -0.8736587 0.4865394 -2.0E-7 -0.8736587 0.4865394 -2.0E-7 -0.8736587 0.4865394 -2.0E-7 -0.4861056 -0.8739001 -5.0E-7 -0.4861056 -0.8739001 -5.0E-7 -0.4861056 -0.8739001 -5.0E-7 -0.8736584 0.4865397 3.0E-7 -0.8736584 0.4865397 3.0E-7 -0.8736584 0.4865397 3.0E-7 -0.4861053 -0.8739002 2.0E-7 -0.4861053 -0.8739002 2.0E-7 -0.4861053 -0.8739002 2.0E-7 0.8736648 -0.4865283 1.0E-7 0.8736648 -0.4865283 1.0E-7 0.8736648 -0.4865283 1.0E-7 -0.4861051 -0.8739004 4.0E-7 -0.4861051 -0.8739004 4.0E-7 -0.4861051 -0.8739004 4.0E-7 0.8736648 -0.4865283 0.0 0.8736648 -0.4865283 0.0 0.8736648 -0.4865283 0.0 0.8736649 -0.4865282 0.0 0.8736649 -0.4865282 0.0 0.8736649 -0.4865282 0.0 0.8736649 -0.4865283 2.0E-7 0.8736649 -0.4865283 2.0E-7 0.8736649 -0.4865283 2.0E-7</float_array>
                    <technique_common>
                        <accessor count="54" source="#geometry0-normal-array" stride="3">
                            <param name="X" type="float"/>
                            <param name="Y" type="float"/>
                            <param name="Z" type="float"/>
                        </accessor>
                    </technique_common>
                </source>
                <source id="geometry0-texCoords">
                    <float_array id="geometry0-texCoords-array" count="0"></float_array>
                    <technique_common>
                        <accessor count="0" source="#geometry0-texCoords-array" stride="2">
                            <param name="S" type="float"/>
                            <param name="T" type="float"/>
                        </accessor>
                    </technique_common>
                </source>
                <vertices id="geometry0-vertex">
                    <input semantic="POSITION" source="#geometry0-position"/>
                </vertices>
                <triangles count="16" material="default_ai_0.2_sh_0.2_tr_0.0_dc_r_0.8_g_0.8_b_0.8_sc_r_1.0_g_1.0_b_1.0_ec_r_0.0_g_0.0_b_0_tri">
                    <input offset="0" semantic="VERTEX" source="#geometry0-vertex"/>
                    <input offset="1" semantic="NORMAL" source="#geometry0-normal"/>
                    <p>11 3 12 4 13 5 14 9 12 10 11 11 21 12 22 13 23 14 24 15 23 16 25 17 21 18 23 19 24 20 24 21 25 22 26 23 4 24 5 25 6 26 12 27 4 28 13 29 7 30 5 31 4 32 7 33 4 34 12 35 8 36 9 37 10 38 15 39 16 40 17 41 11 42 9 43 8 44 18 45 16 46 15 47 15 48 17 49 19 50 19 51 17 52 20 53</p>
                </triangles>
                <triangles count="2" material="default_ai_0.2_sh_0.2_tr_0.0_dc_r_1.0_g_0.2_b_0.2_sc_r_1.0_g_1.0_b_1.0_ec_r_0.0_g_0.0_b_0_tri">
                    <input offset="0" semantic="VERTEX" source="#geometry0-vertex"/>
                    <input offset="1" semantic="NORMAL" source="#geometry0-normal"/>
                    <p>0 0 1 1 2 2 3 6 1 7 0 8</p>
                </triangles>
            </mesh>
        </geometry>
    </library_geometries>
    <library_visual_scenes>
        <visual_scene id="Building_pb-9635e7f8-7f36-11f0-b267-9c7bef4dcf4c">
            <node>
                <instance_geometry url="#geometry0">
                    <bind_material>
                        <technique_common>
                            <instance_material symbol="default_ai_0.2_sh_0.2_tr_0.0_dc_r_0.8_g_0.8_b_0.8_sc_r_1.0_g_1.0_b_1.0_ec_r_0.0_g_0.0_b_0_tri" target="#default_ai_0.2_sh_0.2_tr_0.0_dc_r_0.8_g_0.8_b_0.8_sc_r_1.0_g_1.0_b_1.0_ec_r_0.0_g_0.0_b_0_mat"/>
                            <instance_material symbol="default_ai_0.2_sh_0.2_tr_0.0_dc_r_1.0_g_0.2_b_0.2_sc_r_1.0_g_1.0_b_1.0_ec_r_0.0_g_0.0_b_0_tri" target="#default_ai_0.2_sh_0.2_tr_0.0_dc_r_1.0_g_0.2_b_0.2_sc_r_1.0_g_1.0_b_1.0_ec_r_0.0_g_0.0_b_0_mat"/>
                        </technique_common>
                    </bind_material>
                </instance_geometry>
            </node>
        </visual_scene>
    </library_visual_scenes>
    <scene>
        <instance_visual_scene url="#Building_pb-9635e7f8-7f36-11f0-b267-9c7bef4dcf4c"/>
    </scene>
</COLLADA>
