<?xml version="1.0" encoding="UTF-8" standalone="yes"?>
<COLLADA xmlns="http://www.collada.org/2005/11/COLLADASchema" version="1.4.1">
    <asset>
        <contributor>
            <authoring_tool>3D City Database Importer/Exporter, version 5.5.1; Chair of Geoinformatics, Technical University of Munich</authoring_tool>
        </contributor>
        <created>2026-01-16T16:51:36.835</created>
        <modified>2026-01-16T16:51:36.835</modified>
        <unit meter="1.0" name="meters"/>
        <up_axis>Z_UP</up_axis>
    </asset>
    <library_materials>
        <material id="default_ai_0.2_sh_0.2_tr_0.0_dc_r_0.8_g_0.8_b_0.8_sc_r_1.0_g_1.0_b_1.0_ec_r_0.0_g_0.0_b_0_mat">
            <instance_effect url="#default_ai_0.2_sh_0.2_tr_0.0_dc_r_0.8_g_0.8_b_0.8_sc_r_1.0_g_1.0_b_1.0_ec_r_0.0_g_0.0_b_0_eff"/>
        </material>
        <material id="default_ai_0.2_sh_0.2_tr_0.0_dc_r_1.0_g_0.2_b_0.2_sc_r_1.0_g_1.0_b_1.0_ec_r_0.0_g_0.0_b_0_mat">
            <instance_effect url="#default_ai_0.2_sh_0.2_tr_0.0_dc_r_1.0_g_0.2_b_0.2_sc_r_1.0_g_1.0_b_1.0_ec_r_0.0_g_0.0_b_0_eff"/>
        </material>
    </library_materials>
    <library_effects>
        <effect id="default_ai_0.2_sh_0.2_tr_0.0_dc_r_0.8_g_0.8_b_0.8_sc_r_1.0_g_1.0_b_1.0_ec_r_0.0_g_0.0_b_0_eff">
            <profile_COMMON>
                <technique sid="COMMON">
                    <lambert>
                        <emission>
                            <color>0.0 0.0 0.0 1.0</color>
                        </emission>
                        <diffuse>
                            <color>0.8 0.8 0.8 1.0</color>
                        </diffuse>
                        <reflective>
                            <color>1.0 1.0 1.0 1.0</color>
                        </reflective>
                        <reflectivity>
                            <float>0.2</float>
                        </reflectivity>
                        <transparent opaque="A_ONE">
                            <color>1.0 1.0 1.0 1.0</color>
                        </transparent>
                        <transparency>
                            <float>1.0</float>
                        </transparency>
                    </lambert>
                </technique>
                <extra>
                    <technique profile="GOOGLEEARTH">
                        <double_sided>1</double_sided>
                    </technique>
                </extra>
            </profile_COMMON>
        </effect>
        <effect id="default_ai_0.2_sh_0.2_tr_0.0_dc_r_1.0_g_0.2_b_0.2_sc_r_1.0_g_1.0_b_1.0_ec_r_0.0_g_0.0_b_0_eff">
            <profile_COMMON>
                <technique sid="COMMON">
                    <lambert>
                        <emission>
                            <color>0.0 0.0 0.0 1.0</color>
                        </emission>
                        <diffuse>
                            <color>1.0 0.2 0.2 1.0</color>
                        </diffuse>
                        <reflective>
                            <color>1.0 1.0 1.0 1.0</color>
                        </reflective>
                        <reflectivity>
                            <float>0.2</float>
                        </reflectivity>
                        <transparent opaque="A_ONE">
                            <color>1.0 1.0 1.0 1.0</color>
                        </transparent>
                        <transparency>
                            <float>1.0</float>
                        </transparency>
                    </lambert>
                </technique>
                <extra>
                    <technique profile="GOOGLEEARTH">
                        <double_sided>1</double_sided>
                    </technique>
                </extra>
            </profile_COMMON>
        </effect>
    </library_effects>
    <library_geometries>
        <geometry id="geometry0">
            <mesh>
                <source id="geometry0-position">
                    <float_array id="geometry0-position-array" count="96">-1.58E-5 -1.221E-4 17.2000232 -10.5720049 -7.175293 20.7000213 -4.6933237 -9.9485168 17.2000232 -5.8786684 2.7732544 20.7000213 -18.67866 -24.3590088 20.7000213 -13.9853082 -14.4104919 20.7000213 -11.757319 5.5466309 17.2000232 -24.5572992 -21.5856323 17.2000232 -4.6933237 -9.9485168 18.9500232 -8.1066709 -17.1838379 18.9500232 -12.8000055 -27.1323853 17.2000232 -8.1066709 -17.1838379 17.2000232 -4.6933854 -9.9485505 17.2000334 -10.5720322 -7.1752237 20.7000354 -4.6933854 -9.9485505 18.9500334 -12.8000443 -27.1323274 3.92E-5 -24.5573228 -21.5856698 17.2000354 -24.5573533 -21.5856584 3.99E-5 -12.8000596 -27.1323198 17.2000354 -18.6786912 -24.3589929 20.7000354 -8.1067002 -17.1838334 18.9500354 -13.9853471 -14.4104913 20.7000354 -8.1067002 -17.1838334 17.2000354 -2.6E-5 -6.04E-5 3.93E-5 -4.13E-5 -5.66E-5 17.2000334 -11.7573502 5.546601 4.0E-5 -11.7573655 5.546601 17.2000354 -5.8787034 2.7732741 20.7000354 -24.5573406 -21.5856628 2.7E-6 0.0 0.0 0.0 -12.800005 -27.1322937 1.4E-6 -11.7573376 5.5466309 1.3E-6</float_array>
                    <technique_common>
                        <accessor count="32" source="#geometry0-position-array" stride="3">
                            <param name="X" type="float"/>
                            <param name="Y" type="float"/>
                            <param name="Z" type="float"/>
                        </accessor>
                    </technique_common>
                </source>
                <source id="geometry0-normal">
                    <float_array id="geometry0-normal-array" count="252">-0.4266686 -0.904408 0.0 -0.4266686 -0.904408 0.0 -0.4266686 -0.904408 0.0 0.428781 -0.2022821 0.8804708 0.428781 -0.2022821 0.8804708 0.428781 -0.2022821 0.8804708 0.4287791 -0.2022824 0.8804716 0.4287791 -0.2022824 0.8804716 0.4287791 -0.2022824 0.8804716 0.9044087 -0.4266672 1.0E-6 0.9044087 -0.4266672 1.0E-6 0.9044087 -0.4266672 1.0E-6 0.9044088 -0.426667 1.3E-6 0.9044088 -0.426667 1.3E-6 0.9044088 -0.426667 1.3E-6 0.0407311 -0.0192156 -0.9989854 0.0407311 -0.0192156 -0.9989854 0.0407311 -0.0192156 -0.9989854 0.9044101 -0.4266642 0.0 0.9044101 -0.4266642 0.0 0.9044101 -0.4266642 0.0 0.9044102 -0.4266641 0.0 0.9044102 -0.4266641 0.0 0.9044102 -0.4266641 0.0 0.9044086 -0.4266677 9.0E-7 0.9044086 -0.4266677 9.0E-7 0.9044086 -0.4266677 9.0E-7 0.4266661 0.9044092 4.0E-7 0.4266661 0.9044092 4.0E-7 0.4266661 0.9044092 4.0E-7 0.4266656 0.9044094 -0.0 0.4266656 0.9044094 -0.0 0.4266656 0.9044094 -0.0 0.4266662 0.9044092 2.0E-7 0.4266662 0.9044092 2.0E-7 0.4266662 0.9044092 2.0E-7 0.4266665 0.904409 0.0 0.4266665 0.904409 0.0 0.4266665 0.904409 0.0 0.0 0.0 1.0 0.0 0.0 1.0 0.0 0.0 1.0 0.0 0.0 1.0 0.0 0.0 1.0 0.0 0.0 1.0 -0.4287793 0.2022821 0.8804716 -0.4287793 0.2022821 0.8804716 -0.4287793 0.2022821 0.8804716 -0.42878 0.2022822 0.8804712 -0.42878 0.2022822 0.8804712 -0.42878 0.2022822 0.8804712 -0.426667 -0.9044088 2.0E-7 -0.426667 -0.9044088 2.0E-7 -0.426667 -0.9044088 2.0E-7 -0.4266672 -0.9044087 0.0 -0.4266672 -0.9044087 0.0 -0.4266672 -0.9044087 0.0 -0.4266672 -0.9044087 4.0E-7 -0.4266672 -0.9044087 4.0E-7 -0.4266672 -0.9044087 4.0E-7 -1.0E-7 0.0 -1.0 -1.0E-7 0.0 -1.0 -1.0E-7 0.0 -1.0 -1.0E-7 -0.0 -1.0 -1.0E-7 -0.0 -1.0 -1.0E-7 -0.0 -1.0 0.2351227 -0.1109219 0.9656157 0.2351227 -0.1109219 0.9656157 0.2351227 -0.1109219 0.9656157 0.2351229 -0.1109224 0.9656156 0.2351229 -0.1109224 0.9656156 0.2351229 -0.1109224 0.9656156 0.4287809 -0.2022839 0.8804705 0.4287809 -0.2022839 0.8804705 0.4287809 -0.2022839 0.8804705 -0.9044095 0.4266655 -8.0E-7 -0.9044095 0.4266655 -8.0E-7 -0.9044095 0.4266655 -8.0E-7 0.4287796 -0.2022815 0.8804716 0.4287796 -0.2022815 0.8804716 0.4287796 -0.2022815 0.8804716 -0.9044089 0.4266669 1.9E-6 -0.9044089 0.4266669 1.9E-6 -0.9044089 0.4266669 1.9E-6</float_array>
                    <technique_common>
                        <accessor count="84" source="#geometry0-normal-array" stride="3">
                            <param name="X" type="float"/>
                            <param name="Y" type="float"/>
                            <param name="Z" type="float"/>
                        </accessor>
                    </technique_common>
                </source>
                <source id="geometry0-texCoords">
                    <float_array id="geometry0-texCoords-array" count="0"></float_array>
                    <technique_common>
                        <accessor count="0" source="#geometry0-texCoords-array" stride="2">
                            <param name="S" type="float"/>
                            <param name="T" type="float"/>
                        </accessor>
                    </technique_common>
                </source>
                <vertices id="geometry0-vertex">
                    <input semantic="POSITION" source="#geometry0-position"/>
                </vertices>
                <triangles count="18" material="default_ai_0.2_sh_0.2_tr_0.0_dc_r_0.8_g_0.8_b_0.8_sc_r_1.0_g_1.0_b_1.0_ec_r_0.0_g_0.0_b_0_tri">
                    <input offset="0" semantic="VERTEX" source="#geometry0-vertex"/>
                    <input offset="1" semantic="NORMAL" source="#geometry0-normal"/>
                    <p>20 0 21 1 22 2 18 9 15 10 23 11 12 12 18 13 23 14 22 15 18 16 12 17 14 18 22 19 12 20 20 21 22 22 14 23 24 24 12 25 23 26 26 27 23 28 25 29 27 30 23 31 26 32 24 33 23 34 27 35 12 36 13 37 14 38 15 51 16 52 17 53 18 54 16 55 15 56 19 57 16 58 18 59 28 60 29 61 30 62 31 63 29 64 28 65 25 75 16 76 26 77 17 81 16 82 25 83</p>
                </triangles>
                <triangles count="10" material="default_ai_0.2_sh_0.2_tr_0.0_dc_r_1.0_g_0.2_b_0.2_sc_r_1.0_g_1.0_b_1.0_ec_r_0.0_g_0.0_b_0_tri">
                    <input offset="0" semantic="VERTEX" source="#geometry0-vertex"/>
                    <input offset="1" semantic="NORMAL" source="#geometry0-normal"/>
                    <p>5 3 10 4 11 5 4 6 10 7 5 8 1 39 4 40 5 41 3 42 4 43 1 44 6 45 4 46 3 47 7 48 4 49 6 50 8 66 5 67 9 68 1 69 5 70 8 71 0 72 1 73 2 74 3 78 1 79 0 80</p>
                </triangles>
            </mesh>
        </geometry>
    </library_geometries>
    <library_visual_scenes>
        <visual_scene id="Building_pb-9635c101-7f36-11f0-9abc-9c7bef4dcf4c">
            <node>
                <instance_geometry url="#geometry0">
                    <bind_material>
                        <technique_common>
                            <instance_material symbol="default_ai_0.2_sh_0.2_tr_0.0_dc_r_0.8_g_0.8_b_0.8_sc_r_1.0_g_1.0_b_1.0_ec_r_0.0_g_0.0_b_0_tri" target="#default_ai_0.2_sh_0.2_tr_0.0_dc_r_0.8_g_0.8_b_0.8_sc_r_1.0_g_1.0_b_1.0_ec_r_0.0_g_0.0_b_0_mat"/>
                            <instance_material symbol="default_ai_0.2_sh_0.2_tr_0.0_dc_r_1.0_g_0.2_b_0.2_sc_r_1.0_g_1.0_b_1.0_ec_r_0.0_g_0.0_b_0_tri" target="#default_ai_0.2_sh_0.2_tr_0.0_dc_r_1.0_g_0.2_b_0.2_sc_r_1.0_g_1.0_b_1.0_ec_r_0.0_g_0.0_b_0_mat"/>
                        </technique_common>
                    </bind_material>
                </instance_geometry>
            </node>
        </visual_scene>
    </library_visual_scenes>
    <scene>
        <instance_visual_scene url="#Building_pb-9635c101-7f36-11f0-9abc-9c7bef4dcf4c"/>
    </scene>
</COLLADA>
