<?xml version="1.0" encoding="UTF-8" standalone="yes"?>
<COLLADA xmlns="http://www.collada.org/2005/11/COLLADASchema" version="1.4.1">
    <asset>
        <contributor>
            <authoring_tool>3D City Database Importer/Exporter, version 5.5.1; Chair of Geoinformatics, Technical University of Munich</authoring_tool>
        </contributor>
        <created>2026-01-16T16:51:34.210</created>
        <modified>2026-01-16T16:51:34.210</modified>
        <unit meter="1.0" name="meters"/>
        <up_axis>Z_UP</up_axis>
    </asset>
    <library_materials>
        <material id="default_ai_0.2_sh_0.2_tr_0.0_dc_r_0.8_g_0.8_b_0.8_sc_r_1.0_g_1.0_b_1.0_ec_r_0.0_g_0.0_b_0_mat">
            <instance_effect url="#default_ai_0.2_sh_0.2_tr_0.0_dc_r_0.8_g_0.8_b_0.8_sc_r_1.0_g_1.0_b_1.0_ec_r_0.0_g_0.0_b_0_eff"/>
        </material>
        <material id="default_ai_0.2_sh_0.2_tr_0.0_dc_r_1.0_g_0.2_b_0.2_sc_r_1.0_g_1.0_b_1.0_ec_r_0.0_g_0.0_b_0_mat">
            <instance_effect url="#default_ai_0.2_sh_0.2_tr_0.0_dc_r_1.0_g_0.2_b_0.2_sc_r_1.0_g_1.0_b_1.0_ec_r_0.0_g_0.0_b_0_eff"/>
        </material>
    </library_materials>
    <library_effects>
        <effect id="default_ai_0.2_sh_0.2_tr_0.0_dc_r_0.8_g_0.8_b_0.8_sc_r_1.0_g_1.0_b_1.0_ec_r_0.0_g_0.0_b_0_eff">
            <profile_COMMON>
                <technique sid="COMMON">
                    <lambert>
                        <emission>
                            <color>0.0 0.0 0.0 1.0</color>
                        </emission>
                        <diffuse>
                            <color>0.8 0.8 0.8 1.0</color>
                        </diffuse>
                        <reflective>
                            <color>1.0 1.0 1.0 1.0</color>
                        </reflective>
                        <reflectivity>
                            <float>0.2</float>
                        </reflectivity>
                        <transparent opaque="A_ONE">
                            <color>1.0 1.0 1.0 1.0</color>
                        </transparent>
                        <transparency>
                            <float>1.0</float>
                        </transparency>
                    </lambert>
                </technique>
                <extra>
                    <technique profile="GOOGLEEARTH">
                        <double_sided>1</double_sided>
                    </technique>
                </extra>
            </profile_COMMON>
        </effect>
        <effect id="default_ai_0.2_sh_0.2_tr_0.0_dc_r_1.0_g_0.2_b_0.2_sc_r_1.0_g_1.0_b_1.0_ec_r_0.0_g_0.0_b_0_eff">
            <profile_COMMON>
                <technique sid="COMMON">
                    <lambert>
                        <emission>
                            <color>0.0 0.0 0.0 1.0</color>
                        </emission>
                        <diffuse>
                            <color>1.0 0.2 0.2 1.0</color>
                        </diffuse>
                        <reflective>
                            <color>1.0 1.0 1.0 1.0</color>
                        </reflective>
                        <reflectivity>
                            <float>0.2</float>
                        </reflectivity>
                        <transparent opaque="A_ONE">
                            <color>1.0 1.0 1.0 1.0</color>
                        </transparent>
                        <transparency>
                            <float>1.0</float>
                        </transparency>
                    </lambert>
                </technique>
                <extra>
                    <technique profile="GOOGLEEARTH">
                        <double_sided>1</double_sided>
                    </technique>
                </extra>
            </profile_COMMON>
        </effect>
    </library_effects>
    <library_geometries>
        <geometry id="geometry0">
            <mesh>
                <source id="geometry0-position">
                    <float_array id="geometry0-position-array" count="96">8.3907664 1.9480056 6.9034599 6.270686 3.010177 7.8077485 3.8063098 -1.908046 7.8072505 6.9864894 -3.5014491 6.4516939 8.0461162 -4.032325 6.0000334 10.5102702 0.8861243 6.0000316 6.2700635 3.0089297 7.8077512 6.22E-4 1.33E-4 6.0002591 3.8069138 -1.9068418 7.8072524 4.3665733 3.9625812 6.9040927 2.4633495 4.9160991 6.0001848 3.7321581 4.2804241 6.6027906 2.4631848 4.9165146 6.0000411 -4.23E-4 -8.564E-4 4.02E-5 -4.306E-4 -8.535E-4 6.0000396 2.4632001 4.9165184 4.1E-5 8.0461697 -4.0322335 6.0000368 3.8063245 -1.90806 7.8072558 8.0461774 -4.0322364 3.96E-5 10.5097928 0.8851384 3.66E-5 10.5098004 0.8851339 6.0000373 6.4380188 -3.2183027 6.0E-7 10.5159354 0.8973804 1.0E-6 8.050199 -4.0242157 8.0E-7 7.292624 2.5074177 7.0E-7 0.0 0.0 0.0 3.8055082 4.2492251 4.0E-7 0.6703246 -0.3350897 1.0E-7 2.4644687 4.9190707 2.0E-7 6.487205 2.9097228 6.0E-7 6.035126 -3.016901 6.0E-7 2.010613 -1.0050861 2.0E-7</float_array>
                    <technique_common>
                        <accessor count="32" source="#geometry0-position-array" stride="3">
                            <param name="X" type="float"/>
                            <param name="Y" type="float"/>
                            <param name="Z" type="float"/>
                        </accessor>
                    </technique_common>
                </source>
                <source id="geometry0-normal">
                    <float_array id="geometry0-normal-array" count="216">0.8940685 -0.4479302 1.4E-6 0.8940685 -0.4479302 1.4E-6 0.8940685 -0.4479302 1.4E-6 0.8940671 -0.447933 -1.5E-6 0.8940671 -0.447933 -1.5E-6 0.8940671 -0.447933 -1.5E-6 0.3185284 -0.1596998 0.9343638 0.3185284 -0.1596998 0.9343638 0.3185284 -0.1596998 0.9343638 0.3183862 -0.1595118 0.9344443 0.3183862 -0.1595118 0.9344443 0.3183862 -0.1595118 0.9344443 -0.8940682 0.4479308 -1.4E-6 -0.8940682 0.4479308 -1.4E-6 -0.8940682 0.4479308 -1.4E-6 0.3183862 -0.1595119 0.9344443 0.3183862 -0.1595119 0.9344443 0.3183862 -0.1595119 0.9344443 -0.8940679 0.4479314 -2.0E-6 -0.8940679 0.4479314 -2.0E-6 -0.8940679 0.4479314 -2.0E-6 0.3183865 -0.1595119 0.9344443 0.3183865 -0.1595119 0.9344443 0.3183865 -0.1595119 0.9344443 1.0E-7 -0.0 -1.0 1.0E-7 -0.0 -1.0 1.0E-7 -0.0 -1.0 1.0E-7 -0.0 -1.0 1.0E-7 -0.0 -1.0 1.0E-7 -0.0 -1.0 1.0E-7 -0.0 -1.0 1.0E-7 -0.0 -1.0 1.0E-7 -0.0 -1.0 -0.4479316 -0.8940678 -3.0E-6 -0.4479316 -0.8940678 -3.0E-6 -0.4479316 -0.8940678 -3.0E-6 1.0E-7 -0.0 -1.0 1.0E-7 -0.0 -1.0 1.0E-7 -0.0 -1.0 -0.4479316 -0.8940678 -1.0E-7 -0.4479316 -0.8940678 -1.0E-7 -0.4479316 -0.8940678 -1.0E-7 1.0E-7 -0.0 -1.0 1.0E-7 -0.0 -1.0 1.0E-7 -0.0 -1.0 -0.4479316 -0.8940678 -1.0E-7 -0.4479316 -0.8940678 -1.0E-7 -0.4479316 -0.8940678 -1.0E-7 1.0E-7 -0.0 -1.0 1.0E-7 -0.0 -1.0 1.0E-7 -0.0 -1.0 1.0E-7 -0.0 -1.0 1.0E-7 -0.0 -1.0 1.0E-7 -0.0 -1.0 1.0E-7 -0.0 -1.0 1.0E-7 -0.0 -1.0 1.0E-7 -0.0 -1.0 1.0E-7 -0.0 -1.0 1.0E-7 -0.0 -1.0 1.0E-7 -0.0 -1.0 -0.3493496 0.1749555 0.9205137 -0.3493496 0.1749555 0.9205137 -0.3493496 0.1749555 0.9205137 -0.3493496 0.1749555 0.9205137 -0.3493496 0.1749555 0.9205137 -0.3493496 0.1749555 0.9205137 -0.3494463 0.1750742 0.9204544 -0.3494463 0.1750742 0.9204544 -0.3494463 0.1750742 0.9204544 -0.3494418 0.17507 0.9204569 -0.3494418 0.17507 0.9204569 -0.3494418 0.17507 0.9204569</float_array>
                    <technique_common>
                        <accessor count="72" source="#geometry0-normal-array" stride="3">
                            <param name="X" type="float"/>
                            <param name="Y" type="float"/>
                            <param name="Z" type="float"/>
                        </accessor>
                    </technique_common>
                </source>
                <source id="geometry0-texCoords">
                    <float_array id="geometry0-texCoords-array" count="0"></float_array>
                    <technique_common>
                        <accessor count="0" source="#geometry0-texCoords-array" stride="2">
                            <param name="S" type="float"/>
                            <param name="T" type="float"/>
                        </accessor>
                    </technique_common>
                </source>
                <vertices id="geometry0-vertex">
                    <input semantic="POSITION" source="#geometry0-position"/>
                </vertices>
                <triangles count="16" material="default_ai_0.2_sh_0.2_tr_0.0_dc_r_0.8_g_0.8_b_0.8_sc_r_1.0_g_1.0_b_1.0_ec_r_0.0_g_0.0_b_0_tri">
                    <input offset="0" semantic="VERTEX" source="#geometry0-vertex"/>
                    <input offset="1" semantic="NORMAL" source="#geometry0-normal"/>
                    <p>19 0 16 1 18 2 20 3 16 4 19 5 12 12 13 13 14 14 15 18 13 19 12 20 21 24 22 25 23 26 24 27 22 28 21 29 25 30 26 31 27 32 14 33 16 34 17 35 28 36 26 37 25 38 13 39 16 40 14 41 29 42 30 43 31 44 18 45 16 46 13 47 29 48 27 49 26 50 31 51 27 52 29 53 24 54 30 55 29 56 21 57 30 58 24 59</p>
                </triangles>
                <triangles count="8" material="default_ai_0.2_sh_0.2_tr_0.0_dc_r_1.0_g_0.2_b_0.2_sc_r_1.0_g_1.0_b_1.0_ec_r_0.0_g_0.0_b_0_tri">
                    <input offset="0" semantic="VERTEX" source="#geometry0-vertex"/>
                    <input offset="1" semantic="NORMAL" source="#geometry0-normal"/>
                    <p>0 6 1 7 2 8 0 9 2 10 3 11 0 15 4 16 5 17 3 21 4 22 0 23 6 60 7 61 8 62 9 63 7 64 6 65 10 66 7 67 11 68 7 69 9 70 11 71</p>
                </triangles>
            </mesh>
        </geometry>
    </library_geometries>
    <library_visual_scenes>
        <visual_scene id="Building_pb-477ad06a-7f52-11f0-8601-9c7bef4dcf4c">
            <node>
                <instance_geometry url="#geometry0">
                    <bind_material>
                        <technique_common>
                            <instance_material symbol="default_ai_0.2_sh_0.2_tr_0.0_dc_r_0.8_g_0.8_b_0.8_sc_r_1.0_g_1.0_b_1.0_ec_r_0.0_g_0.0_b_0_tri" target="#default_ai_0.2_sh_0.2_tr_0.0_dc_r_0.8_g_0.8_b_0.8_sc_r_1.0_g_1.0_b_1.0_ec_r_0.0_g_0.0_b_0_mat"/>
                            <instance_material symbol="default_ai_0.2_sh_0.2_tr_0.0_dc_r_1.0_g_0.2_b_0.2_sc_r_1.0_g_1.0_b_1.0_ec_r_0.0_g_0.0_b_0_tri" target="#default_ai_0.2_sh_0.2_tr_0.0_dc_r_1.0_g_0.2_b_0.2_sc_r_1.0_g_1.0_b_1.0_ec_r_0.0_g_0.0_b_0_mat"/>
                        </technique_common>
                    </bind_material>
                </instance_geometry>
            </node>
        </visual_scene>
    </library_visual_scenes>
    <scene>
        <instance_visual_scene url="#Building_pb-477ad06a-7f52-11f0-8601-9c7bef4dcf4c"/>
    </scene>
</COLLADA>
