<?xml version="1.0" encoding="UTF-8" standalone="yes"?>
<COLLADA xmlns="http://www.collada.org/2005/11/COLLADASchema" version="1.4.1">
    <asset>
        <contributor>
            <authoring_tool>3D City Database Importer/Exporter, version 5.5.1; Chair of Geoinformatics, Technical University of Munich</authoring_tool>
        </contributor>
        <created>2026-01-16T16:51:34.387</created>
        <modified>2026-01-16T16:51:34.387</modified>
        <unit meter="1.0" name="meters"/>
        <up_axis>Z_UP</up_axis>
    </asset>
    <library_materials>
        <material id="default_ai_0.2_sh_0.2_tr_0.0_dc_r_0.8_g_0.8_b_0.8_sc_r_1.0_g_1.0_b_1.0_ec_r_0.0_g_0.0_b_0_mat">
            <instance_effect url="#default_ai_0.2_sh_0.2_tr_0.0_dc_r_0.8_g_0.8_b_0.8_sc_r_1.0_g_1.0_b_1.0_ec_r_0.0_g_0.0_b_0_eff"/>
        </material>
        <material id="default_ai_0.2_sh_0.2_tr_0.0_dc_r_1.0_g_0.2_b_0.2_sc_r_1.0_g_1.0_b_1.0_ec_r_0.0_g_0.0_b_0_mat">
            <instance_effect url="#default_ai_0.2_sh_0.2_tr_0.0_dc_r_1.0_g_0.2_b_0.2_sc_r_1.0_g_1.0_b_1.0_ec_r_0.0_g_0.0_b_0_eff"/>
        </material>
    </library_materials>
    <library_effects>
        <effect id="default_ai_0.2_sh_0.2_tr_0.0_dc_r_0.8_g_0.8_b_0.8_sc_r_1.0_g_1.0_b_1.0_ec_r_0.0_g_0.0_b_0_eff">
            <profile_COMMON>
                <technique sid="COMMON">
                    <lambert>
                        <emission>
                            <color>0.0 0.0 0.0 1.0</color>
                        </emission>
                        <diffuse>
                            <color>0.8 0.8 0.8 1.0</color>
                        </diffuse>
                        <reflective>
                            <color>1.0 1.0 1.0 1.0</color>
                        </reflective>
                        <reflectivity>
                            <float>0.2</float>
                        </reflectivity>
                        <transparent opaque="A_ONE">
                            <color>1.0 1.0 1.0 1.0</color>
                        </transparent>
                        <transparency>
                            <float>1.0</float>
                        </transparency>
                    </lambert>
                </technique>
                <extra>
                    <technique profile="GOOGLEEARTH">
                        <double_sided>1</double_sided>
                    </technique>
                </extra>
            </profile_COMMON>
        </effect>
        <effect id="default_ai_0.2_sh_0.2_tr_0.0_dc_r_1.0_g_0.2_b_0.2_sc_r_1.0_g_1.0_b_1.0_ec_r_0.0_g_0.0_b_0_eff">
            <profile_COMMON>
                <technique sid="COMMON">
                    <lambert>
                        <emission>
                            <color>0.0 0.0 0.0 1.0</color>
                        </emission>
                        <diffuse>
                            <color>1.0 0.2 0.2 1.0</color>
                        </diffuse>
                        <reflective>
                            <color>1.0 1.0 1.0 1.0</color>
                        </reflective>
                        <reflectivity>
                            <float>0.2</float>
                        </reflectivity>
                        <transparent opaque="A_ONE">
                            <color>1.0 1.0 1.0 1.0</color>
                        </transparent>
                        <transparency>
                            <float>1.0</float>
                        </transparency>
                    </lambert>
                </technique>
                <extra>
                    <technique profile="GOOGLEEARTH">
                        <double_sided>1</double_sided>
                    </technique>
                </extra>
            </profile_COMMON>
        </effect>
    </library_effects>
    <library_geometries>
        <geometry id="geometry0">
            <mesh>
                <source id="geometry0-position">
                    <float_array id="geometry0-position-array" count="111">-5.0E-7 -9.16E-5 8.0000574 -1.559876 5.0810089 9.0000565 -3.194367 1.4302063 8.0000565 1.6346125 3.6508026 9.0000565 4.3726496 2.4247894 9.0000574 -0.8172613 -1.8254852 6.4206397 1.9208674 -3.0513916 6.4206397 5.1890873 4.250342 7.8340368 6.006232 6.0754349 6.6680247 -1.559876 5.0810091 9.0000586 4.8879565 3.5777662 8.2637305 1.6346104 3.6507984 9.0000496 4.371901 2.425156 9.000108 0.0746636 8.7317533 6.6676775 -3.194463 1.430184 8.0000577 0.0746333 8.731774 6.02E-5 -3.194463 1.4301917 5.93E-5 -1.5599187 5.080979 9.0000577 0.0746257 8.7317664 6.6677294 -1.27E-5 -2.99E-5 8.0000586 -1.27E-5 -2.99E-5 5.95E-5 -1.27E-5 -2.99E-5 7.2804465 -0.8172963 -1.8254236 6.4206414 1.9208018 -3.0513376 6.0E-5 1.9208018 -3.0513376 6.4206414 -0.8172887 -1.8254236 5.92E-5 2.7380778 -1.2259515 5.89E-5 6.007159 6.0756308 6.667726 6.0071666 6.0756308 5.98E-5 4.372607 2.4248435 9.0000577 1.6345241 3.6507498 9.0000577 6.0071716 6.0757141 3.0E-7 0.0 0.0 0.0 -3.1944275 1.4302216 4.0E-7 1.9208374 -3.0512695 8.0E-7 -0.8172607 -1.8253632 1.0E-7 0.0746765 8.731842 1.0E-6</float_array>
                    <technique_common>
                        <accessor count="37" source="#geometry0-position-array" stride="3">
                            <param name="X" type="float"/>
                            <param name="Y" type="float"/>
                            <param name="Z" type="float"/>
                        </accessor>
                    </technique_common>
                </source>
                <source id="geometry0-normal">
                    <float_array id="geometry0-normal-array" count="252">1.0 0.0 0.0 1.0 0.0 0.0 1.0 0.0 0.0 -1.0E-7 1.0E-7 -1.0 -1.0E-7 1.0E-7 -1.0 -1.0E-7 1.0E-7 -1.0 -0.4086321 -0.9126992 0.0 -0.4086321 -0.9126992 0.0 -0.4086321 -0.9126992 0.0 2.0E-7 -1.0E-7 -1.0 2.0E-7 -1.0E-7 -1.0 2.0E-7 -1.0E-7 -1.0 -0.1613902 -0.3604739 0.9187011 -0.1613902 -0.3604739 0.9187011 -0.1613902 -0.3604739 0.9187011 -0.4086339 -0.9126983 -9.0E-7 -0.4086339 -0.9126983 -9.0E-7 -0.4086339 -0.9126983 -9.0E-7 2.0E-7 -1.0E-7 -1.0 2.0E-7 -1.0E-7 -1.0 2.0E-7 -1.0E-7 -1.0 -0.1614036 -0.3604595 0.9187044 -0.1614036 -0.3604595 0.9187044 -0.1614036 -0.3604595 0.9187044 -1.0E-7 1.0E-7 -1.0 -1.0E-7 1.0E-7 -1.0 -1.0E-7 1.0E-7 -1.0 0.4086373 0.9126969 1.5E-6 0.4086373 0.9126969 1.5E-6 0.4086373 0.9126969 1.5E-6 0.4086363 0.9126973 5.0E-7 0.4086363 0.9126973 5.0E-7 0.4086363 0.9126973 5.0E-7 0.2058364 0.4597467 0.8638659 0.2058364 0.4597467 0.8638659 0.2058364 0.4597467 0.8638659 0.2058365 0.4597467 0.8638659 0.2058365 0.4597467 0.8638659 0.2058365 0.4597467 0.8638659 0.2058364 0.4597458 0.8638664 0.2058364 0.4597458 0.8638664 0.2058364 0.4597458 0.8638664 0.2058366 0.4597466 0.863866 0.2058366 0.4597466 0.863866 0.2058366 0.4597466 0.863866 0.2058365 0.4597464 0.863866 0.2058365 0.4597464 0.863866 0.2058365 0.4597464 0.863866 0.9126977 -0.4086354 0.0 0.9126977 -0.4086354 0.0 0.9126977 -0.4086354 0.0 -0.4086369 -0.912697 0.0 -0.4086369 -0.912697 0.0 -0.4086369 -0.912697 0.0 -0.4086379 -0.9126966 -5.0E-7 -0.4086379 -0.9126966 -5.0E-7 -0.4086379 -0.9126966 -5.0E-7 -0.9126971 0.4086367 4.0E-7 -0.9126971 0.4086367 4.0E-7 -0.9126971 0.4086367 4.0E-7 -0.9126976 0.4086357 -7.0E-7 -0.9126976 0.4086357 -7.0E-7 -0.9126976 0.4086357 -7.0E-7 -0.9126975 0.4086359 -6.0E-7 -0.9126975 0.4086359 -6.0E-7 -0.9126975 0.4086359 -6.0E-7 -0.0991153 -0.2213593 0.9701424 -0.0991153 -0.2213593 0.9701424 -0.0991153 -0.2213593 0.9701424 -0.0991035 -0.221356 0.9701443 -0.0991035 -0.221356 0.9701443 -0.0991035 -0.221356 0.9701443 -0.9126952 0.408641 0.0 -0.9126952 0.408641 0.0 -0.9126952 0.408641 0.0 -0.9126966 0.4086379 -1.1E-6 -0.9126966 0.4086379 -1.1E-6 -0.9126966 0.4086379 -1.1E-6 -0.9126974 0.4086359 -1.0E-6 -0.9126974 0.4086359 -1.0E-6 -0.9126974 0.4086359 -1.0E-6 -0.9126971 0.4086368 -2.2E-6 -0.9126971 0.4086368 -2.2E-6 -0.9126971 0.4086368 -2.2E-6</float_array>
                    <technique_common>
                        <accessor count="84" source="#geometry0-normal-array" stride="3">
                            <param name="X" type="float"/>
                            <param name="Y" type="float"/>
                            <param name="Z" type="float"/>
                        </accessor>
                    </technique_common>
                </source>
                <source id="geometry0-texCoords">
                    <float_array id="geometry0-texCoords-array" count="0"></float_array>
                    <technique_common>
                        <accessor count="0" source="#geometry0-texCoords-array" stride="2">
                            <param name="S" type="float"/>
                            <param name="T" type="float"/>
                        </accessor>
                    </technique_common>
                </source>
                <vertices id="geometry0-vertex">
                    <input semantic="POSITION" source="#geometry0-position"/>
                </vertices>
                <triangles count="19" material="default_ai_0.2_sh_0.2_tr_0.0_dc_r_0.8_g_0.8_b_0.8_sc_r_1.0_g_1.0_b_1.0_ec_r_0.0_g_0.0_b_0_tri">
                    <input offset="0" semantic="VERTEX" source="#geometry0-vertex"/>
                    <input offset="1" semantic="NORMAL" source="#geometry0-normal"/>
                    <p>19 0 20 1 21 2 31 3 32 4 33 5 14 6 20 7 19 8 34 9 32 10 31 11 16 15 20 16 14 17 35 18 32 19 34 20 36 24 31 25 33 26 18 27 28 28 15 29 27 30 28 31 18 32 19 48 21 49 30 50 22 51 23 52 24 53 25 54 23 55 22 56 14 57 15 58 16 59 17 60 15 61 14 62 18 63 15 64 17 65 20 72 22 73 21 74 25 75 22 76 20 77 26 78 27 79 28 80 29 81 27 82 26 83</p>
                </triangles>
                <triangles count="9" material="default_ai_0.2_sh_0.2_tr_0.0_dc_r_1.0_g_0.2_b_0.2_sc_r_1.0_g_1.0_b_1.0_ec_r_0.0_g_0.0_b_0_tri">
                    <input offset="0" semantic="VERTEX" source="#geometry0-vertex"/>
                    <input offset="1" semantic="NORMAL" source="#geometry0-normal"/>
                    <p>4 12 5 13 6 14 3 21 5 22 4 23 7 33 8 34 9 35 10 36 9 37 11 38 7 39 9 40 10 41 10 42 11 43 12 44 9 45 8 46 13 47 0 66 1 67 2 68 3 69 1 70 0 71</p>
                </triangles>
            </mesh>
        </geometry>
    </library_geometries>
    <library_visual_scenes>
        <visual_scene id="Building_pb-9635e7eb-7f36-11f0-913d-9c7bef4dcf4c">
            <node>
                <instance_geometry url="#geometry0">
                    <bind_material>
                        <technique_common>
                            <instance_material symbol="default_ai_0.2_sh_0.2_tr_0.0_dc_r_0.8_g_0.8_b_0.8_sc_r_1.0_g_1.0_b_1.0_ec_r_0.0_g_0.0_b_0_tri" target="#default_ai_0.2_sh_0.2_tr_0.0_dc_r_0.8_g_0.8_b_0.8_sc_r_1.0_g_1.0_b_1.0_ec_r_0.0_g_0.0_b_0_mat"/>
                            <instance_material symbol="default_ai_0.2_sh_0.2_tr_0.0_dc_r_1.0_g_0.2_b_0.2_sc_r_1.0_g_1.0_b_1.0_ec_r_0.0_g_0.0_b_0_tri" target="#default_ai_0.2_sh_0.2_tr_0.0_dc_r_1.0_g_0.2_b_0.2_sc_r_1.0_g_1.0_b_1.0_ec_r_0.0_g_0.0_b_0_mat"/>
                        </technique_common>
                    </bind_material>
                </instance_geometry>
            </node>
        </visual_scene>
    </library_visual_scenes>
    <scene>
        <instance_visual_scene url="#Building_pb-9635e7eb-7f36-11f0-913d-9c7bef4dcf4c"/>
    </scene>
</COLLADA>
