<?xml version="1.0" encoding="UTF-8" standalone="yes"?>
<COLLADA xmlns="http://www.collada.org/2005/11/COLLADASchema" version="1.4.1">
    <asset>
        <contributor>
            <authoring_tool>3D City Database Importer/Exporter, version 5.5.1; Chair of Geoinformatics, Technical University of Munich</authoring_tool>
        </contributor>
        <created>2026-01-16T16:51:34.561</created>
        <modified>2026-01-16T16:51:34.561</modified>
        <unit meter="1.0" name="meters"/>
        <up_axis>Z_UP</up_axis>
    </asset>
    <library_materials>
        <material id="default_ai_0.2_sh_0.2_tr_0.0_dc_r_0.8_g_0.8_b_0.8_sc_r_1.0_g_1.0_b_1.0_ec_r_0.0_g_0.0_b_0_mat">
            <instance_effect url="#default_ai_0.2_sh_0.2_tr_0.0_dc_r_0.8_g_0.8_b_0.8_sc_r_1.0_g_1.0_b_1.0_ec_r_0.0_g_0.0_b_0_eff"/>
        </material>
        <material id="default_ai_0.2_sh_0.2_tr_0.0_dc_r_1.0_g_0.2_b_0.2_sc_r_1.0_g_1.0_b_1.0_ec_r_0.0_g_0.0_b_0_mat">
            <instance_effect url="#default_ai_0.2_sh_0.2_tr_0.0_dc_r_1.0_g_0.2_b_0.2_sc_r_1.0_g_1.0_b_1.0_ec_r_0.0_g_0.0_b_0_eff"/>
        </material>
    </library_materials>
    <library_effects>
        <effect id="default_ai_0.2_sh_0.2_tr_0.0_dc_r_0.8_g_0.8_b_0.8_sc_r_1.0_g_1.0_b_1.0_ec_r_0.0_g_0.0_b_0_eff">
            <profile_COMMON>
                <technique sid="COMMON">
                    <lambert>
                        <emission>
                            <color>0.0 0.0 0.0 1.0</color>
                        </emission>
                        <diffuse>
                            <color>0.8 0.8 0.8 1.0</color>
                        </diffuse>
                        <reflective>
                            <color>1.0 1.0 1.0 1.0</color>
                        </reflective>
                        <reflectivity>
                            <float>0.2</float>
                        </reflectivity>
                        <transparent opaque="A_ONE">
                            <color>1.0 1.0 1.0 1.0</color>
                        </transparent>
                        <transparency>
                            <float>1.0</float>
                        </transparency>
                    </lambert>
                </technique>
                <extra>
                    <technique profile="GOOGLEEARTH">
                        <double_sided>1</double_sided>
                    </technique>
                </extra>
            </profile_COMMON>
        </effect>
        <effect id="default_ai_0.2_sh_0.2_tr_0.0_dc_r_1.0_g_0.2_b_0.2_sc_r_1.0_g_1.0_b_1.0_ec_r_0.0_g_0.0_b_0_eff">
            <profile_COMMON>
                <technique sid="COMMON">
                    <lambert>
                        <emission>
                            <color>0.0 0.0 0.0 1.0</color>
                        </emission>
                        <diffuse>
                            <color>1.0 0.2 0.2 1.0</color>
                        </diffuse>
                        <reflective>
                            <color>1.0 1.0 1.0 1.0</color>
                        </reflective>
                        <reflectivity>
                            <float>0.2</float>
                        </reflectivity>
                        <transparent opaque="A_ONE">
                            <color>1.0 1.0 1.0 1.0</color>
                        </transparent>
                        <transparency>
                            <float>1.0</float>
                        </transparency>
                    </lambert>
                </technique>
                <extra>
                    <technique profile="GOOGLEEARTH">
                        <double_sided>1</double_sided>
                    </technique>
                </extra>
            </profile_COMMON>
        </effect>
    </library_effects>
    <library_geometries>
        <geometry id="geometry0">
            <mesh>
                <source id="geometry0-position">
                    <float_array id="geometry0-position-array" count="204">-16.1729284 -7.171814 23.5796393 -11.6365209 -2.3777771 23.8009452 -14.2398687 -1.4917297 23.5796374 -13.5695806 -8.0578613 23.8009509 -15.4248357 -39.1161499 20.3000449 -1.58E-5 -6.1E-5 20.3000373 -1.8933569 0.6443176 20.3000392 -13.5314642 -39.7605591 20.3000392 -5.5032049 7.154541 22.6402587 -14.2399145 -1.4918518 20.3000411 -9.0471655 -3.2590637 22.6402568 -10.6959234 8.9217224 20.300043 -22.2556005 -42.0731201 22.6392592 -23.9052282 -29.8921509 20.3000392 -27.4491735 -40.305603 20.3000392 -18.7116247 -31.659668 22.6392611 -19.3687749 -25.098114 23.800949 -23.9052282 -29.8921509 23.6420401 -21.3018804 -30.7781982 23.8000392 -21.972138 -24.2120667 23.6420401 -10.9802557 -8.9391174 22.6402587 -16.7794347 -25.9792786 22.6396502 -17.0357214 -43.8496399 20.3000449 -0.2824712 5.3776855 20.3000373 -21.972138 -24.2120667 20.3000392 -16.1729742 -7.171936 20.3000411 -13.5314899 -39.7605394 5.57E-5 -2.41E-5 -3.75E-5 20.3000437 -13.531511 -39.760547 20.3000456 -2.22E-5 -3.75E-5 5.36E-5 -19.3688219 -25.098079 23.8009554 -21.9721911 -24.2120813 20.3000456 -21.9721988 -24.2120775 23.6420466 -16.7794631 -25.9793084 22.6396586 -23.9052623 -29.8921655 20.3000456 -21.3019035 -30.7781442 23.8000456 -23.9052661 -29.8921502 23.6420466 -18.7116621 -31.659675 22.6392676 -9.0472019 -3.2589868 22.6402651 -14.2399127 -1.4917825 23.5796438 -11.636561 -2.3777536 23.8009516 -14.2399195 -1.4917749 20.3000494 -10.6959601 8.9216925 5.61E-5 -27.4492171 -40.3056367 5.55E-5 -27.449219 -40.3056367 20.3000475 -10.6959622 8.9216925 20.3000494 -16.1729906 -7.1718667 20.3000494 -16.1729837 -7.1718667 23.5796458 -13.5696173 -8.0578454 23.8009573 -10.980254 -8.9390634 22.6402651 -15.4248565 -39.116195 5.57E-5 -15.4248586 -39.116195 20.3000513 -0.282492 5.377732 20.3000437 -5.5032447 7.1544806 22.640267 -0.2824748 5.377732 5.36E-5 -1.8933804 0.6443335 5.46E-5 -1.8933823 0.6443335 20.3000456 -17.0357468 -43.8495935 5.58E-5 -17.035749 -43.8495935 20.3000532 -22.2556336 -42.0731424 22.6392657 -0.2825165 5.3777161 0.0 -27.4491882 -40.3056335 4.1E-6 -10.6959534 8.9217834 3.2E-6 -1.8934021 0.6443481 1.2E-6 0.0 0.0 0.0 -15.4248352 -39.1161194 3.7E-6 -17.0357666 -43.8495483 3.9E-6 -13.5314941 -39.760498 3.5E-6</float_array>
                    <technique_common>
                        <accessor count="68" source="#geometry0-position-array" stride="3">
                            <param name="X" type="float"/>
                            <param name="Y" type="float"/>
                            <param name="Z" type="float"/>
                        </accessor>
                    </technique_common>
                </source>
                <source id="geometry0-normal">
                    <float_array id="geometry0-normal-array" count="558">0.3221782 0.946679 1.0E-6 0.3221782 0.946679 1.0E-6 0.3221782 0.946679 1.0E-6 0.3221782 0.946679 3.0E-7 0.3221782 0.946679 3.0E-7 0.3221782 0.946679 3.0E-7 0.322175 0.9466801 -1.65E-5 0.322175 0.9466801 -1.65E-5 0.322175 0.9466801 -1.65E-5 0.3221778 0.9466792 0.0 0.3221778 0.9466792 0.0 0.3221778 0.9466792 0.0 0.3698078 -0.1258547 0.9205449 0.3698078 -0.1258547 0.9205449 0.3698078 -0.1258547 0.9205449 0.3221779 0.9466791 1.5E-6 0.3221779 0.9466791 1.5E-6 0.3221779 0.9466791 1.5E-6 0.3697996 -0.1258534 0.9205483 0.3697996 -0.1258534 0.9205483 0.3697996 -0.1258534 0.9205483 0.3696615 -0.1258376 0.920606 0.3696615 -0.1258376 0.920606 0.3696615 -0.1258376 0.920606 0.3697277 -0.1258263 0.9205809 0.3697277 -0.1258263 0.9205809 0.3697277 -0.1258263 0.9205809 0.3697253 -0.1258276 0.9205817 0.3697253 -0.1258276 0.9205817 0.3697253 -0.1258276 0.9205817 0.3697238 -0.1258231 0.9205829 0.3697238 -0.1258231 0.9205829 0.3697238 -0.1258231 0.9205829 0.3699296 -0.1260457 0.9204698 0.3699296 -0.1260457 0.9204698 0.3699296 -0.1260457 0.9204698 0.3697244 -0.1258252 0.9205824 0.3697244 -0.1258252 0.9205824 0.3697244 -0.1258252 0.9205824 0.3698047 -0.1258519 0.9205465 0.3698047 -0.1258519 0.9205465 0.3698047 -0.1258519 0.9205465 0.3698092 -0.1258567 0.920544 0.3698092 -0.1258567 0.920544 0.3698092 -0.1258567 0.920544 -0.9466791 0.3221779 -2.5E-6 -0.9466791 0.3221779 -2.5E-6 -0.9466791 0.3221779 -2.5E-6 0.3698061 -0.1258527 0.9205458 0.3698061 -0.1258527 0.9205458 0.3698061 -0.1258527 0.9205458 -0.9466791 0.322178 -2.6E-6 -0.9466791 0.322178 -2.6E-6 -0.9466791 0.322178 -2.6E-6 0.3698077 -0.1258546 0.9205449 0.3698077 -0.1258546 0.9205449 0.3698077 -0.1258546 0.9205449 0.9466792 -0.3221779 1.0E-7 0.9466792 -0.3221779 1.0E-7 0.9466792 -0.3221779 1.0E-7 0.9466783 -0.3221806 8.0E-7 0.9466783 -0.3221806 8.0E-7 0.9466783 -0.3221806 8.0E-7 0.3221847 0.9466768 0.0 0.3221847 0.9466768 0.0 0.3221847 0.9466768 0.0 0.3221847 0.9466768 0.0 0.3221847 0.9466768 0.0 0.3221847 0.9466768 0.0 -0.9466791 0.3221779 -1.0E-7 -0.9466791 0.3221779 -1.0E-7 -0.9466791 0.3221779 -1.0E-7 -0.9466791 0.3221779 -4.0E-7 -0.9466791 0.3221779 -4.0E-7 -0.9466791 0.3221779 -4.0E-7 -0.9466791 0.3221779 -1.0E-7 -0.9466791 0.3221779 -1.0E-7 -0.9466791 0.3221779 -1.0E-7 -0.6396943 0.2177036 -0.7371542 -0.6396943 0.2177036 -0.7371542 -0.6396943 0.2177036 -0.7371542 -0.075939 0.025844 0.9967775 -0.075939 0.025844 0.9967775 -0.075939 0.025844 0.9967775 -0.0759401 0.0258451 0.9967774 -0.0759401 0.0258451 0.9967774 -0.0759401 0.0258451 0.9967774 0.9466792 -0.3221779 1.0E-7 0.9466792 -0.3221779 1.0E-7 0.9466792 -0.3221779 1.0E-7 -0.9466792 0.3221776 2.7E-6 -0.9466792 0.3221776 2.7E-6 -0.9466792 0.3221776 2.7E-6 0.9466791 -0.322178 1.0E-7 0.9466791 -0.322178 1.0E-7 0.9466791 -0.322178 1.0E-7 -0.9466792 0.3221779 2.2E-6 -0.9466792 0.3221779 2.2E-6 -0.9466792 0.3221779 2.2E-6 9.0E-7 -2.0E-7 1.0 9.0E-7 -2.0E-7 1.0 9.0E-7 -2.0E-7 1.0 2.7E-6 -9.0E-7 1.0 2.7E-6 -9.0E-7 1.0 2.7E-6 -9.0E-7 1.0 -0.3714964 0.126429 0.9197859 -0.3714964 0.126429 0.9197859 -0.3714964 0.126429 0.9197859 -0.3714251 0.1263721 0.9198225 -0.3714251 0.1263721 0.9198225 -0.3714251 0.1263721 0.9198225 -0.3221779 -0.9466792 -1.0E-6 -0.3221779 -0.9466792 -1.0E-6 -0.3221779 -0.9466792 -1.0E-6 -0.3221779 -0.9466792 -0.0 -0.3221779 -0.9466792 -0.0 -0.3221779 -0.9466792 -0.0 -0.3221779 -0.9466791 -0.0 -0.3221779 -0.9466791 -0.0 -0.3221779 -0.9466791 -0.0 0.946679 -0.3221783 9.0E-7 0.946679 -0.3221783 9.0E-7 0.946679 -0.3221783 9.0E-7 0.9466792 -0.322178 1.0E-7 0.9466792 -0.322178 1.0E-7 0.9466792 -0.322178 1.0E-7 -0.3714944 0.1264269 0.919787 -0.3714944 0.1264269 0.919787 -0.3714944 0.1264269 0.919787 -0.3714961 0.1264289 0.919786 -0.3714961 0.1264289 0.919786 -0.3714961 0.1264289 0.919786 -3.0E-7 1.0E-7 -1.0 -3.0E-7 1.0E-7 -1.0 -3.0E-7 1.0E-7 -1.0 -0.3221746 -0.9466802 7.0E-7 -0.3221746 -0.9466802 7.0E-7 -0.3221746 -0.9466802 7.0E-7 6.0E-7 -5.0E-7 -1.0 6.0E-7 -5.0E-7 -1.0 6.0E-7 -5.0E-7 -1.0 -0.3221756 -0.9466799 1.6E-6 -0.3221756 -0.9466799 1.6E-6 -0.3221756 -0.9466799 1.6E-6 -5.0E-7 3.0E-7 -1.0 -5.0E-7 3.0E-7 -1.0 -5.0E-7 3.0E-7 -1.0 -0.3713099 0.1263656 0.91987 -0.3713099 0.1263656 0.91987 -0.3713099 0.1263656 0.91987 -0.0 -1.0E-7 -1.0 -0.0 -1.0E-7 -1.0 -0.0 -1.0E-7 -1.0 -0.3713081 0.1263659 0.9198706 -0.3713081 0.1263659 0.9198706 -0.3713081 0.1263659 0.9198706 -0.0 -0.0 -1.0 -0.0 -0.0 -1.0 -0.0 -0.0 -1.0 -1.0E-7 -0.0 -1.0 -1.0E-7 -0.0 -1.0 -1.0E-7 -0.0 -1.0 0.322181 0.9466781 -3.0E-7 0.322181 0.9466781 -3.0E-7 0.322181 0.9466781 -3.0E-7 0.3221804 0.9466783 1.0E-7 0.3221804 0.9466783 1.0E-7 0.3221804 0.9466783 1.0E-7 -0.3221778 -0.9466792 -0.0 -0.3221778 -0.9466792 -0.0 -0.3221778 -0.9466792 -0.0 -0.3221716 -0.9466813 -7.0E-7 -0.3221716 -0.9466813 -7.0E-7 -0.3221716 -0.9466813 -7.0E-7 -0.3221802 -0.9466783 3.9E-6 -0.3221802 -0.9466783 3.9E-6 -0.3221802 -0.9466783 3.9E-6 -0.3221795 -0.9466786 3.4E-6 -0.3221795 -0.9466786 3.4E-6 -0.3221795 -0.9466786 3.4E-6 -0.0543498 0.018337 0.9983535 -0.0543498 0.018337 0.9983535 -0.0543498 0.018337 0.9983535 -0.0546124 0.0185861 0.9983346 -0.0546124 0.0185861 0.9983346 -0.0546124 0.0185861 0.9983346</float_array>
                    <technique_common>
                        <accessor count="186" source="#geometry0-normal-array" stride="3">
                            <param name="X" type="float"/>
                            <param name="Y" type="float"/>
                            <param name="Z" type="float"/>
                        </accessor>
                    </technique_common>
                </source>
                <source id="geometry0-texCoords">
                    <float_array id="geometry0-texCoords-array" count="0"></float_array>
                    <technique_common>
                        <accessor count="0" source="#geometry0-texCoords-array" stride="2">
                            <param name="S" type="float"/>
                            <param name="T" type="float"/>
                        </accessor>
                    </technique_common>
                </source>
                <vertices id="geometry0-vertex">
                    <input semantic="POSITION" source="#geometry0-position"/>
                </vertices>
                <triangles count="38" material="default_ai_0.2_sh_0.2_tr_0.0_dc_r_0.8_g_0.8_b_0.8_sc_r_1.0_g_1.0_b_1.0_ec_r_0.0_g_0.0_b_0_tri">
                    <input offset="0" semantic="VERTEX" source="#geometry0-vertex"/>
                    <input offset="1" semantic="NORMAL" source="#geometry0-normal"/>
                    <p>52 0 45 1 53 2 54 3 45 4 52 5 38 6 39 7 40 8 42 9 45 10 54 11 41 15 39 16 38 17 34 45 32 46 31 47 36 51 32 52 34 53 55 57 52 58 56 59 54 60 52 61 55 62 29 63 56 64 27 65 55 66 56 67 29 68 42 69 43 70 44 71 31 72 42 73 44 74 45 75 42 76 31 77 41 78 45 79 31 80 57 87 51 88 58 89 46 90 39 91 41 92 50 93 51 94 57 95 47 96 39 97 46 98 44 111 58 112 59 113 43 114 58 115 44 116 57 117 58 118 43 119 26 120 27 121 28 122 29 123 27 124 26 125 60 132 61 133 62 134 46 135 48 136 47 137 63 138 61 139 60 140 49 141 48 142 46 143 64 144 61 145 63 146 65 150 61 151 64 152 66 156 61 157 65 158 64 159 67 160 65 161 30 162 31 163 32 164 33 165 31 166 30 167 50 168 28 169 51 170 26 171 28 172 50 173 34 174 35 175 36 176 37 177 35 178 34 179</p>
                </triangles>
                <triangles count="24" material="default_ai_0.2_sh_0.2_tr_0.0_dc_r_1.0_g_0.2_b_0.2_sc_r_1.0_g_1.0_b_1.0_ec_r_0.0_g_0.0_b_0_tri">
                    <input offset="0" semantic="VERTEX" source="#geometry0-vertex"/>
                    <input offset="1" semantic="NORMAL" source="#geometry0-normal"/>
                    <p>10 12 4 13 6 14 20 18 4 19 10 20 21 21 4 22 20 23 15 24 4 25 21 26 12 27 4 28 15 29 22 30 4 31 12 32 18 33 21 34 16 35 15 36 21 37 18 38 3 39 10 40 1 41 20 42 10 43 3 44 10 48 23 49 8 50 6 54 23 55 10 56 0 81 1 82 2 83 3 84 1 85 0 86 4 99 5 100 6 101 7 102 5 103 4 104 24 105 20 106 25 107 21 108 20 109 24 110 8 126 9 127 10 128 11 129 9 130 8 131 12 147 13 148 14 149 15 153 13 154 12 155 16 180 17 181 18 182 19 183 17 184 16 185</p>
                </triangles>
            </mesh>
        </geometry>
    </library_geometries>
    <library_visual_scenes>
        <visual_scene id="Building_pb-9635c106-7f36-11f0-934b-9c7bef4dcf4c">
            <node>
                <instance_geometry url="#geometry0">
                    <bind_material>
                        <technique_common>
                            <instance_material symbol="default_ai_0.2_sh_0.2_tr_0.0_dc_r_0.8_g_0.8_b_0.8_sc_r_1.0_g_1.0_b_1.0_ec_r_0.0_g_0.0_b_0_tri" target="#default_ai_0.2_sh_0.2_tr_0.0_dc_r_0.8_g_0.8_b_0.8_sc_r_1.0_g_1.0_b_1.0_ec_r_0.0_g_0.0_b_0_mat"/>
                            <instance_material symbol="default_ai_0.2_sh_0.2_tr_0.0_dc_r_1.0_g_0.2_b_0.2_sc_r_1.0_g_1.0_b_1.0_ec_r_0.0_g_0.0_b_0_tri" target="#default_ai_0.2_sh_0.2_tr_0.0_dc_r_1.0_g_0.2_b_0.2_sc_r_1.0_g_1.0_b_1.0_ec_r_0.0_g_0.0_b_0_mat"/>
                        </technique_common>
                    </bind_material>
                </instance_geometry>
            </node>
        </visual_scene>
    </library_visual_scenes>
    <scene>
        <instance_visual_scene url="#Building_pb-9635c106-7f36-11f0-934b-9c7bef4dcf4c"/>
    </scene>
</COLLADA>
