<?xml version="1.0" encoding="UTF-8" standalone="yes"?>
<COLLADA xmlns="http://www.collada.org/2005/11/COLLADASchema" version="1.4.1">
    <asset>
        <contributor>
            <authoring_tool>3D City Database Importer/Exporter, version 5.5.1; Chair of Geoinformatics, Technical University of Munich</authoring_tool>
        </contributor>
        <created>2026-01-16T16:51:36.809</created>
        <modified>2026-01-16T16:51:36.809</modified>
        <unit meter="1.0" name="meters"/>
        <up_axis>Z_UP</up_axis>
    </asset>
    <library_materials>
        <material id="default_ai_0.2_sh_0.2_tr_0.0_dc_r_0.8_g_0.8_b_0.8_sc_r_1.0_g_1.0_b_1.0_ec_r_0.0_g_0.0_b_0_mat">
            <instance_effect url="#default_ai_0.2_sh_0.2_tr_0.0_dc_r_0.8_g_0.8_b_0.8_sc_r_1.0_g_1.0_b_1.0_ec_r_0.0_g_0.0_b_0_eff"/>
        </material>
        <material id="default_ai_0.2_sh_0.2_tr_0.0_dc_r_1.0_g_0.2_b_0.2_sc_r_1.0_g_1.0_b_1.0_ec_r_0.0_g_0.0_b_0_mat">
            <instance_effect url="#default_ai_0.2_sh_0.2_tr_0.0_dc_r_1.0_g_0.2_b_0.2_sc_r_1.0_g_1.0_b_1.0_ec_r_0.0_g_0.0_b_0_eff"/>
        </material>
    </library_materials>
    <library_effects>
        <effect id="default_ai_0.2_sh_0.2_tr_0.0_dc_r_0.8_g_0.8_b_0.8_sc_r_1.0_g_1.0_b_1.0_ec_r_0.0_g_0.0_b_0_eff">
            <profile_COMMON>
                <technique sid="COMMON">
                    <lambert>
                        <emission>
                            <color>0.0 0.0 0.0 1.0</color>
                        </emission>
                        <diffuse>
                            <color>0.8 0.8 0.8 1.0</color>
                        </diffuse>
                        <reflective>
                            <color>1.0 1.0 1.0 1.0</color>
                        </reflective>
                        <reflectivity>
                            <float>0.2</float>
                        </reflectivity>
                        <transparent opaque="A_ONE">
                            <color>1.0 1.0 1.0 1.0</color>
                        </transparent>
                        <transparency>
                            <float>1.0</float>
                        </transparency>
                    </lambert>
                </technique>
                <extra>
                    <technique profile="GOOGLEEARTH">
                        <double_sided>1</double_sided>
                    </technique>
                </extra>
            </profile_COMMON>
        </effect>
        <effect id="default_ai_0.2_sh_0.2_tr_0.0_dc_r_1.0_g_0.2_b_0.2_sc_r_1.0_g_1.0_b_1.0_ec_r_0.0_g_0.0_b_0_eff">
            <profile_COMMON>
                <technique sid="COMMON">
                    <lambert>
                        <emission>
                            <color>0.0 0.0 0.0 1.0</color>
                        </emission>
                        <diffuse>
                            <color>1.0 0.2 0.2 1.0</color>
                        </diffuse>
                        <reflective>
                            <color>1.0 1.0 1.0 1.0</color>
                        </reflective>
                        <reflectivity>
                            <float>0.2</float>
                        </reflectivity>
                        <transparent opaque="A_ONE">
                            <color>1.0 1.0 1.0 1.0</color>
                        </transparent>
                        <transparency>
                            <float>1.0</float>
                        </transparency>
                    </lambert>
                </technique>
                <extra>
                    <technique profile="GOOGLEEARTH">
                        <double_sided>1</double_sided>
                    </technique>
                </extra>
            </profile_COMMON>
        </effect>
    </library_effects>
    <library_geometries>
        <geometry id="geometry0">
            <mesh>
                <source id="geometry0-position">
                    <float_array id="geometry0-position-array" count="60">-17.9890905 -7.7867508 19.000014 -5.2554021 2.8947983 22.0401513 -10.5107885 5.7896347 19.000014 -12.7337041 -10.6815872 22.0401494 -5.0E-7 -3.81E-5 19.000014 -7.4783331 -13.5764465 19.000014 -10.5107721 5.7896484 1.83E-5 -5.1E-6 -2.44E-5 19.0000207 -5.1E-6 -2.44E-5 2.12E-5 -10.5107702 5.7896484 19.0000226 -5.2553915 2.8948158 22.0401589 -17.9890989 -7.786737 19.0000188 -17.9890932 -7.7867447 1.59E-5 -7.4783185 -13.5764175 2.29E-5 -7.4783185 -13.5764175 19.0000188 -12.7337049 -10.6815811 22.0401551 0.0 0.0 0.0 -17.9890747 -7.7867279 2.0E-6 -10.5107574 5.7896347 2.2E-6 -7.4783173 -13.5764008 1.8E-6</float_array>
                    <technique_common>
                        <accessor count="20" source="#geometry0-position-array" stride="3">
                            <param name="X" type="float"/>
                            <param name="Y" type="float"/>
                            <param name="Z" type="float"/>
                        </accessor>
                    </technique_common>
                </source>
                <source id="geometry0-normal">
                    <float_array id="geometry0-normal-array" count="144">-0.4824783 -0.8759079 2.0E-7 -0.4824783 -0.8759079 2.0E-7 -0.4824783 -0.8759079 2.0E-7 -0.4824786 -0.8759078 0.0 -0.4824786 -0.8759078 0.0 -0.4824786 -0.8759078 0.0 -2.0E-7 1.0E-7 -1.0 -2.0E-7 1.0E-7 -1.0 -2.0E-7 1.0E-7 -1.0 -0.4824786 -0.8759078 -4.0E-7 -0.4824786 -0.8759078 -4.0E-7 -0.4824786 -0.8759078 -4.0E-7 -1.0E-7 -1.0E-7 -1.0 -1.0E-7 -1.0E-7 -1.0 -1.0E-7 -1.0E-7 -1.0 -0.3958976 0.2180729 0.8920254 -0.3958976 0.2180729 0.8920254 -0.3958976 0.2180729 0.8920254 -0.3958976 0.2180728 0.8920255 -0.3958976 0.2180728 0.8920255 -0.3958976 0.2180728 0.8920255 0.875908 -0.4824782 0.0 0.875908 -0.4824782 0.0 0.875908 -0.4824782 0.0 -0.8759074 0.4824792 1.0E-7 -0.8759074 0.4824792 1.0E-7 -0.8759074 0.4824792 1.0E-7 0.875908 -0.4824782 0.0 0.875908 -0.4824782 0.0 0.875908 -0.4824782 0.0 -0.8759078 0.4824786 -5.0E-7 -0.8759078 0.4824786 -5.0E-7 -0.8759078 0.4824786 -5.0E-7 0.4824785 0.8759078 0.0 0.4824785 0.8759078 0.0 0.4824785 0.8759078 0.0 0.4824786 0.8759078 -1.0E-7 0.4824786 0.8759078 -1.0E-7 0.4824786 0.8759078 -1.0E-7 0.4824786 0.8759078 -5.0E-7 0.4824786 0.8759078 -5.0E-7 0.4824786 0.8759078 -5.0E-7 0.3958973 -0.2180733 0.8920254 0.3958973 -0.2180733 0.8920254 0.3958973 -0.2180733 0.8920254 0.3958969 -0.2180727 0.8920258 0.3958969 -0.2180727 0.8920258 0.3958969 -0.2180727 0.8920258</float_array>
                    <technique_common>
                        <accessor count="48" source="#geometry0-normal-array" stride="3">
                            <param name="X" type="float"/>
                            <param name="Y" type="float"/>
                            <param name="Z" type="float"/>
                        </accessor>
                    </technique_common>
                </source>
                <source id="geometry0-texCoords">
                    <float_array id="geometry0-texCoords-array" count="0"></float_array>
                    <technique_common>
                        <accessor count="0" source="#geometry0-texCoords-array" stride="2">
                            <param name="S" type="float"/>
                            <param name="T" type="float"/>
                        </accessor>
                    </technique_common>
                </source>
                <vertices id="geometry0-vertex">
                    <input semantic="POSITION" source="#geometry0-position"/>
                </vertices>
                <triangles count="12" material="default_ai_0.2_sh_0.2_tr_0.0_dc_r_0.8_g_0.8_b_0.8_sc_r_1.0_g_1.0_b_1.0_ec_r_0.0_g_0.0_b_0_tri">
                    <input offset="0" semantic="VERTEX" source="#geometry0-vertex"/>
                    <input offset="1" semantic="NORMAL" source="#geometry0-normal"/>
                    <p>13 0 11 1 12 2 14 3 11 4 13 5 16 6 17 7 18 8 15 9 11 10 14 11 19 12 17 13 16 14 13 21 7 22 14 23 6 24 11 25 9 26 8 27 7 28 13 29 12 30 11 31 6 32 6 33 7 34 8 35 9 36 7 37 6 38 10 39 7 40 9 41</p>
                </triangles>
                <triangles count="4" material="default_ai_0.2_sh_0.2_tr_0.0_dc_r_1.0_g_0.2_b_0.2_sc_r_1.0_g_1.0_b_1.0_ec_r_0.0_g_0.0_b_0_tri">
                    <input offset="0" semantic="VERTEX" source="#geometry0-vertex"/>
                    <input offset="1" semantic="NORMAL" source="#geometry0-normal"/>
                    <p>0 15 1 16 2 17 3 18 1 19 0 20 4 42 3 43 5 44 1 45 3 46 4 47</p>
                </triangles>
            </mesh>
        </geometry>
    </library_geometries>
    <library_visual_scenes>
        <visual_scene id="Building_pb-9635c0fd-7f36-11f0-a17d-9c7bef4dcf4c">
            <node>
                <instance_geometry url="#geometry0">
                    <bind_material>
                        <technique_common>
                            <instance_material symbol="default_ai_0.2_sh_0.2_tr_0.0_dc_r_0.8_g_0.8_b_0.8_sc_r_1.0_g_1.0_b_1.0_ec_r_0.0_g_0.0_b_0_tri" target="#default_ai_0.2_sh_0.2_tr_0.0_dc_r_0.8_g_0.8_b_0.8_sc_r_1.0_g_1.0_b_1.0_ec_r_0.0_g_0.0_b_0_mat"/>
                            <instance_material symbol="default_ai_0.2_sh_0.2_tr_0.0_dc_r_1.0_g_0.2_b_0.2_sc_r_1.0_g_1.0_b_1.0_ec_r_0.0_g_0.0_b_0_tri" target="#default_ai_0.2_sh_0.2_tr_0.0_dc_r_1.0_g_0.2_b_0.2_sc_r_1.0_g_1.0_b_1.0_ec_r_0.0_g_0.0_b_0_mat"/>
                        </technique_common>
                    </bind_material>
                </instance_geometry>
            </node>
        </visual_scene>
    </library_visual_scenes>
    <scene>
        <instance_visual_scene url="#Building_pb-9635c0fd-7f36-11f0-a17d-9c7bef4dcf4c"/>
    </scene>
</COLLADA>
