<?xml version="1.0" encoding="UTF-8" standalone="yes"?>
<COLLADA xmlns="http://www.collada.org/2005/11/COLLADASchema" version="1.4.1">
    <asset>
        <contributor>
            <authoring_tool>3D City Database Importer/Exporter, version 5.5.1; Chair of Geoinformatics, Technical University of Munich</authoring_tool>
        </contributor>
        <created>2026-01-16T16:51:34.385</created>
        <modified>2026-01-16T16:51:34.385</modified>
        <unit meter="1.0" name="meters"/>
        <up_axis>Z_UP</up_axis>
    </asset>
    <library_materials>
        <material id="default_ai_0.2_sh_0.2_tr_0.0_dc_r_0.8_g_0.8_b_0.8_sc_r_1.0_g_1.0_b_1.0_ec_r_0.0_g_0.0_b_0_mat">
            <instance_effect url="#default_ai_0.2_sh_0.2_tr_0.0_dc_r_0.8_g_0.8_b_0.8_sc_r_1.0_g_1.0_b_1.0_ec_r_0.0_g_0.0_b_0_eff"/>
        </material>
        <material id="default_ai_0.2_sh_0.2_tr_0.0_dc_r_1.0_g_0.2_b_0.2_sc_r_1.0_g_1.0_b_1.0_ec_r_0.0_g_0.0_b_0_mat">
            <instance_effect url="#default_ai_0.2_sh_0.2_tr_0.0_dc_r_1.0_g_0.2_b_0.2_sc_r_1.0_g_1.0_b_1.0_ec_r_0.0_g_0.0_b_0_eff"/>
        </material>
    </library_materials>
    <library_effects>
        <effect id="default_ai_0.2_sh_0.2_tr_0.0_dc_r_0.8_g_0.8_b_0.8_sc_r_1.0_g_1.0_b_1.0_ec_r_0.0_g_0.0_b_0_eff">
            <profile_COMMON>
                <technique sid="COMMON">
                    <lambert>
                        <emission>
                            <color>0.0 0.0 0.0 1.0</color>
                        </emission>
                        <diffuse>
                            <color>0.8 0.8 0.8 1.0</color>
                        </diffuse>
                        <reflective>
                            <color>1.0 1.0 1.0 1.0</color>
                        </reflective>
                        <reflectivity>
                            <float>0.2</float>
                        </reflectivity>
                        <transparent opaque="A_ONE">
                            <color>1.0 1.0 1.0 1.0</color>
                        </transparent>
                        <transparency>
                            <float>1.0</float>
                        </transparency>
                    </lambert>
                </technique>
                <extra>
                    <technique profile="GOOGLEEARTH">
                        <double_sided>1</double_sided>
                    </technique>
                </extra>
            </profile_COMMON>
        </effect>
        <effect id="default_ai_0.2_sh_0.2_tr_0.0_dc_r_1.0_g_0.2_b_0.2_sc_r_1.0_g_1.0_b_1.0_ec_r_0.0_g_0.0_b_0_eff">
            <profile_COMMON>
                <technique sid="COMMON">
                    <lambert>
                        <emission>
                            <color>0.0 0.0 0.0 1.0</color>
                        </emission>
                        <diffuse>
                            <color>1.0 0.2 0.2 1.0</color>
                        </diffuse>
                        <reflective>
                            <color>1.0 1.0 1.0 1.0</color>
                        </reflective>
                        <reflectivity>
                            <float>0.2</float>
                        </reflectivity>
                        <transparent opaque="A_ONE">
                            <color>1.0 1.0 1.0 1.0</color>
                        </transparent>
                        <transparency>
                            <float>1.0</float>
                        </transparency>
                    </lambert>
                </technique>
                <extra>
                    <technique profile="GOOGLEEARTH">
                        <double_sided>1</double_sided>
                    </technique>
                </extra>
            </profile_COMMON>
        </effect>
    </library_effects>
    <library_geometries>
        <geometry id="geometry0">
            <mesh>
                <source id="geometry0-position">
                    <float_array id="geometry0-position-array" count="84">-6.5329443 -7.3257294 5.5000104 -7.4534765 -3.5171051 5.5000104 -8.871964 -5.977005 5.5000114 -5.1144872 -4.8658447 5.5000104 -7.4534765 -3.5171051 7.4584731 -8.871964 -5.977005 6.1437406 -6.5329443 -7.3257294 6.1437406 -5.1144872 -4.8658447 7.4584722 -9.8263403 -7.0315704 5.5000114 -5.4948736 -9.5292511 5.5000104 -1.7187505 -2.9806519 9.000008 -6.0502325 -0.4829865 9.000008 -4.3314977 2.4976501 7.4584684 -1.58E-5 -3.05E-5 7.4584674 -5.4948772 -9.5292347 1.36E-5 -9.8263429 -7.0315626 5.5000171 -9.8263486 -7.0315635 1.37E-5 -5.4948724 -9.5292338 5.5000171 -1.3E-6 9.5E-6 7.4584722 -1.7187417 -2.9806333 9.0000133 -7.0E-6 3.3E-6 1.96E-5 -4.3314784 2.4976744 1.96E-5 -4.3314756 2.4976734 7.4584717 -6.0502122 -0.4829622 9.0000133 -5.494873 -9.5292206 2.6E-6 -4.3314972 2.4977112 2.5E-6 0.0 0.0 0.0 -9.826355 -7.0315704 3.1E-6</float_array>
                    <technique_common>
                        <accessor count="28" source="#geometry0-position-array" stride="3">
                            <param name="X" type="float"/>
                            <param name="Y" type="float"/>
                            <param name="Z" type="float"/>
                        </accessor>
                    </technique_common>
                </source>
                <source id="geometry0-normal">
                    <float_array id="geometry0-normal-array" count="288">-0.8662944 0.4995337 9.0E-7 -0.8662944 0.4995337 9.0E-7 -0.8662944 0.4995337 9.0E-7 5.0E-7 1.0E-7 1.0 5.0E-7 1.0E-7 1.0 5.0E-7 1.0E-7 1.0 -0.8662947 0.4995331 -4.0E-7 -0.8662947 0.4995331 -4.0E-7 -0.8662947 0.4995331 -4.0E-7 0.0 0.0 1.0 0.0 0.0 1.0 0.0 0.0 1.0 -0.8662938 0.4995349 4.0E-7 -0.8662938 0.4995349 4.0E-7 -0.8662938 0.4995349 4.0E-7 0.4995251 0.8662995 0.0 0.4995251 0.8662995 0.0 0.4995251 0.8662995 0.0 0.499525 0.8662995 0.0 0.499525 0.8662995 0.0 0.499525 0.8662995 0.0 -5.0E-7 0.0 -1.0 -5.0E-7 0.0 -1.0 -5.0E-7 0.0 -1.0 -1.0E-7 -0.0 -1.0 -1.0E-7 -0.0 -1.0 -1.0E-7 -0.0 -1.0 0.86629 -0.4995414 0.0 0.86629 -0.4995414 0.0 0.86629 -0.4995414 0.0 0.86629 -0.4995415 0.0 0.86629 -0.4995415 0.0 0.86629 -0.4995415 0.0 -0.209881 -0.3639853 0.9074495 -0.209881 -0.3639853 0.9074495 -0.209881 -0.3639853 0.9074495 -0.2098809 -0.3639749 0.9074537 -0.2098809 -0.3639749 0.9074537 -0.2098809 -0.3639749 0.9074537 -0.2098862 -0.3639768 0.9074517 -0.2098862 -0.3639768 0.9074517 -0.2098862 -0.3639768 0.9074517 -0.2098815 -0.3639775 0.9074525 -0.2098815 -0.3639775 0.9074525 -0.2098815 -0.3639775 0.9074525 -0.2098814 -0.3639777 0.9074525 -0.2098814 -0.3639777 0.9074525 -0.2098814 -0.3639777 0.9074525 -0.2098812 -0.3639786 0.9074522 -0.2098812 -0.3639786 0.9074522 -0.2098812 -0.3639786 0.9074522 -0.2098821 -0.3639782 0.9074521 -0.2098821 -0.3639782 0.9074521 -0.2098821 -0.3639782 0.9074521 -0.4995342 -0.8662941 6.0E-7 -0.4995342 -0.8662941 6.0E-7 -0.4995342 -0.8662941 6.0E-7 -0.209916 -0.3639559 0.9074532 -0.209916 -0.3639559 0.9074532 -0.209916 -0.3639559 0.9074532 -0.4995343 -0.8662941 6.0E-7 -0.4995343 -0.8662941 6.0E-7 -0.4995343 -0.8662941 6.0E-7 0.8662944 -0.4995338 2.0E-6 0.8662944 -0.4995338 2.0E-6 0.8662944 -0.4995338 2.0E-6 0.8662946 -0.4995335 -7.0E-7 0.8662946 -0.4995335 -7.0E-7 0.8662946 -0.4995335 -7.0E-7 0.8662945 -0.4995337 -2.0E-7 0.8662945 -0.4995337 -2.0E-7 0.8662945 -0.4995337 -2.0E-7 -0.8662934 0.4995356 0.0 -0.8662934 0.4995356 0.0 -0.8662934 0.4995356 0.0 -0.8662934 0.4995356 0.0 -0.8662934 0.4995356 0.0 -0.8662934 0.4995356 0.0 0.4995328 0.8662949 -1.0E-7 0.4995328 0.8662949 -1.0E-7 0.4995328 0.8662949 -1.0E-7 0.4995341 0.8662942 -1.1E-6 0.4995341 0.8662942 -1.1E-6 0.4995341 0.8662942 -1.1E-6 -0.4995343 -0.8662942 0.0 -0.4995343 -0.8662942 0.0 -0.4995343 -0.8662942 0.0 -0.4995342 -0.8662941 0.0 -0.4995342 -0.8662941 0.0 -0.4995342 -0.8662941 0.0 0.2042467 0.3542046 0.912591 0.2042467 0.3542046 0.912591 0.2042467 0.3542046 0.912591 0.2042448 0.3542039 0.9125917 0.2042448 0.3542039 0.9125917 0.2042448 0.3542039 0.9125917</float_array>
                    <technique_common>
                        <accessor count="96" source="#geometry0-normal-array" stride="3">
                            <param name="X" type="float"/>
                            <param name="Y" type="float"/>
                            <param name="Z" type="float"/>
                        </accessor>
                    </technique_common>
                </source>
                <source id="geometry0-texCoords">
                    <float_array id="geometry0-texCoords-array" count="0"></float_array>
                    <technique_common>
                        <accessor count="0" source="#geometry0-texCoords-array" stride="2">
                            <param name="S" type="float"/>
                            <param name="T" type="float"/>
                        </accessor>
                    </technique_common>
                </source>
                <vertices id="geometry0-vertex">
                    <input semantic="POSITION" source="#geometry0-position"/>
                </vertices>
                <triangles count="12" material="default_ai_0.2_sh_0.2_tr_0.0_dc_r_0.8_g_0.8_b_0.8_sc_r_1.0_g_1.0_b_1.0_ec_r_0.0_g_0.0_b_0_tri">
                    <input offset="0" semantic="VERTEX" source="#geometry0-vertex"/>
                    <input offset="1" semantic="NORMAL" source="#geometry0-normal"/>
                    <p>15 0 21 1 16 2 23 6 21 7 15 8 22 12 21 13 23 14 24 21 25 22 26 23 27 24 25 25 24 26 14 54 15 55 16 56 17 60 15 61 14 62 17 63 18 64 19 65 14 66 18 67 17 68 20 69 18 70 14 71 18 78 21 79 22 80 20 81 21 82 18 83</p>
                </triangles>
                <triangles count="20" material="default_ai_0.2_sh_0.2_tr_0.0_dc_r_1.0_g_0.2_b_0.2_sc_r_1.0_g_1.0_b_1.0_ec_r_0.0_g_0.0_b_0_tri">
                    <input offset="0" semantic="VERTEX" source="#geometry0-vertex"/>
                    <input offset="1" semantic="NORMAL" source="#geometry0-normal"/>
                    <p>0 3 1 4 2 5 3 9 1 10 0 11 6 15 2 16 5 17 0 18 2 19 6 20 2 27 4 28 5 29 1 30 4 31 2 32 6 33 5 34 8 35 9 36 6 37 8 38 7 39 6 40 9 41 10 42 7 43 9 44 4 45 7 46 10 47 11 48 4 49 10 50 8 51 4 52 11 53 5 57 4 58 8 59 3 72 6 73 7 74 0 75 6 76 3 77 3 84 4 85 1 86 7 87 4 88 3 89 12 90 10 91 13 92 11 93 10 94 12 95</p>
                </triangles>
            </mesh>
        </geometry>
    </library_geometries>
    <library_visual_scenes>
        <visual_scene id="Building_pb-9635c0fa-7f36-11f0-885c-9c7bef4dcf4c">
            <node>
                <instance_geometry url="#geometry0">
                    <bind_material>
                        <technique_common>
                            <instance_material symbol="default_ai_0.2_sh_0.2_tr_0.0_dc_r_0.8_g_0.8_b_0.8_sc_r_1.0_g_1.0_b_1.0_ec_r_0.0_g_0.0_b_0_tri" target="#default_ai_0.2_sh_0.2_tr_0.0_dc_r_0.8_g_0.8_b_0.8_sc_r_1.0_g_1.0_b_1.0_ec_r_0.0_g_0.0_b_0_mat"/>
                            <instance_material symbol="default_ai_0.2_sh_0.2_tr_0.0_dc_r_1.0_g_0.2_b_0.2_sc_r_1.0_g_1.0_b_1.0_ec_r_0.0_g_0.0_b_0_tri" target="#default_ai_0.2_sh_0.2_tr_0.0_dc_r_1.0_g_0.2_b_0.2_sc_r_1.0_g_1.0_b_1.0_ec_r_0.0_g_0.0_b_0_mat"/>
                        </technique_common>
                    </bind_material>
                </instance_geometry>
            </node>
        </visual_scene>
    </library_visual_scenes>
    <scene>
        <instance_visual_scene url="#Building_pb-9635c0fa-7f36-11f0-885c-9c7bef4dcf4c"/>
    </scene>
</COLLADA>
