<?xml version="1.0" encoding="UTF-8" standalone="yes"?>
<COLLADA xmlns="http://www.collada.org/2005/11/COLLADASchema" version="1.4.1">
    <asset>
        <contributor>
            <authoring_tool>3D City Database Importer/Exporter, version 5.5.1; Chair of Geoinformatics, Technical University of Munich</authoring_tool>
        </contributor>
        <created>2026-01-16T16:51:34.691</created>
        <modified>2026-01-16T16:51:34.691</modified>
        <unit meter="1.0" name="meters"/>
        <up_axis>Z_UP</up_axis>
    </asset>
    <library_materials>
        <material id="default_ai_0.2_sh_0.2_tr_0.0_dc_r_0.8_g_0.8_b_0.8_sc_r_1.0_g_1.0_b_1.0_ec_r_0.0_g_0.0_b_0_mat">
            <instance_effect url="#default_ai_0.2_sh_0.2_tr_0.0_dc_r_0.8_g_0.8_b_0.8_sc_r_1.0_g_1.0_b_1.0_ec_r_0.0_g_0.0_b_0_eff"/>
        </material>
        <material id="default_ai_0.2_sh_0.2_tr_0.0_dc_r_1.0_g_0.2_b_0.2_sc_r_1.0_g_1.0_b_1.0_ec_r_0.0_g_0.0_b_0_mat">
            <instance_effect url="#default_ai_0.2_sh_0.2_tr_0.0_dc_r_1.0_g_0.2_b_0.2_sc_r_1.0_g_1.0_b_1.0_ec_r_0.0_g_0.0_b_0_eff"/>
        </material>
    </library_materials>
    <library_effects>
        <effect id="default_ai_0.2_sh_0.2_tr_0.0_dc_r_0.8_g_0.8_b_0.8_sc_r_1.0_g_1.0_b_1.0_ec_r_0.0_g_0.0_b_0_eff">
            <profile_COMMON>
                <technique sid="COMMON">
                    <lambert>
                        <emission>
                            <color>0.0 0.0 0.0 1.0</color>
                        </emission>
                        <diffuse>
                            <color>0.8 0.8 0.8 1.0</color>
                        </diffuse>
                        <reflective>
                            <color>1.0 1.0 1.0 1.0</color>
                        </reflective>
                        <reflectivity>
                            <float>0.2</float>
                        </reflectivity>
                        <transparent opaque="A_ONE">
                            <color>1.0 1.0 1.0 1.0</color>
                        </transparent>
                        <transparency>
                            <float>1.0</float>
                        </transparency>
                    </lambert>
                </technique>
                <extra>
                    <technique profile="GOOGLEEARTH">
                        <double_sided>1</double_sided>
                    </technique>
                </extra>
            </profile_COMMON>
        </effect>
        <effect id="default_ai_0.2_sh_0.2_tr_0.0_dc_r_1.0_g_0.2_b_0.2_sc_r_1.0_g_1.0_b_1.0_ec_r_0.0_g_0.0_b_0_eff">
            <profile_COMMON>
                <technique sid="COMMON">
                    <lambert>
                        <emission>
                            <color>0.0 0.0 0.0 1.0</color>
                        </emission>
                        <diffuse>
                            <color>1.0 0.2 0.2 1.0</color>
                        </diffuse>
                        <reflective>
                            <color>1.0 1.0 1.0 1.0</color>
                        </reflective>
                        <reflectivity>
                            <float>0.2</float>
                        </reflectivity>
                        <transparent opaque="A_ONE">
                            <color>1.0 1.0 1.0 1.0</color>
                        </transparent>
                        <transparency>
                            <float>1.0</float>
                        </transparency>
                    </lambert>
                </technique>
                <extra>
                    <technique profile="GOOGLEEARTH">
                        <double_sided>1</double_sided>
                    </technique>
                </extra>
            </profile_COMMON>
        </effect>
    </library_effects>
    <library_geometries>
        <geometry id="geometry0">
            <mesh>
                <source id="geometry0-position">
                    <float_array id="geometry0-position-array" count="111">3.2686918 7.3015487 7.8329606 4.0863948 9.1269525 6.6657225 -3.480682 8.1322625 9.0000555 2.9675655 6.6289586 8.2630027 -0.2862821 6.7019723 9.0000702 2.4518111 5.4760547 9.00005 -1.8461476 11.7830811 6.6657817 -0.2862859 6.7019653 9.0000564 -5.1152654 4.4814911 8.0000555 -1.9208074 3.051178 8.0000555 -3.4806829 8.1322632 9.0000555 -5.0E-7 -1.221E-4 5.500057 2.4518122 5.476059 9.0000574 -2.7380987 1.2257843 5.500057 0.8172481 1.8253256 5.96E-5 -2.03E-5 -6.04E-5 5.5000586 -2.79E-5 -6.04E-5 5.88E-5 4.0863444 9.1269118 6.6657256 0.8172481 1.8253256 6.6667255 4.0863444 9.1269118 5.96E-5 -1.9208424 3.0512397 6.6667255 -5.1152699 4.4814688 5.96E-5 -1.9208424 3.0512397 5.98E-5 -1.9208348 3.051232 8.0000576 -5.1152852 4.4814612 8.0000567 -2.7381184 1.225846 5.500059 -2.7381108 1.225846 5.94E-5 -1.8461888 11.7830435 6.6657256 -1.8461888 11.7830435 6.0E-5 -3.4807332 8.1322562 9.0000567 -0.2862904 6.702027 9.0000576 4.0863647 9.1269531 5.0E-7 -1.9208069 3.0513153 1.2E-6 -5.1152649 4.4815521 1.6E-6 0.0 0.0 0.0 -2.7380981 1.2258911 1.3E-6 -1.8461609 11.7831116 1.2E-6</float_array>
                    <technique_common>
                        <accessor count="37" source="#geometry0-position-array" stride="3">
                            <param name="X" type="float"/>
                            <param name="Y" type="float"/>
                            <param name="Z" type="float"/>
                        </accessor>
                    </technique_common>
                </source>
                <source id="geometry0-normal">
                    <float_array id="geometry0-normal-array" count="270">-0.4086348 -0.912698 -6.0E-7 -0.4086348 -0.912698 -6.0E-7 -0.4086348 -0.912698 -6.0E-7 0.9126984 -0.4086339 -7.6E-6 0.9126984 -0.4086339 -7.6E-6 0.9126984 -0.4086339 -7.6E-6 -0.4086367 -0.9126971 6.0E-7 -0.4086367 -0.9126971 6.0E-7 -0.4086367 -0.9126971 6.0E-7 -0.2058996 -0.4598822 0.8637787 -0.2058996 -0.4598822 0.8637787 -0.2058996 -0.4598822 0.8637787 -0.2058993 -0.4598822 0.8637788 -0.2058993 -0.4598822 0.8637788 -0.2058993 -0.4598822 0.8637788 -0.4086381 -0.9126965 0.0 -0.4086381 -0.9126965 0.0 -0.4086381 -0.9126965 0.0 -0.4086331 -0.9126987 -3.0E-6 -0.4086331 -0.9126987 -3.0E-6 -0.4086331 -0.9126987 -3.0E-6 -0.4086357 -0.9126976 -1.6E-6 -0.4086357 -0.9126976 -1.6E-6 -0.4086357 -0.9126976 -1.6E-6 0.2059674 0.4600154 0.8636917 0.2059674 0.4600154 0.8636917 0.2059674 0.4600154 0.8636917 0.2059675 0.4600158 0.8636914 0.2059675 0.4600158 0.8636914 0.2059675 0.4600158 0.8636914 0.4086357 0.9126976 0.0 0.4086357 0.9126976 0.0 0.4086357 0.9126976 0.0 0.2059674 0.460015 0.8636918 0.2059674 0.460015 0.8636918 0.2059674 0.460015 0.8636918 0.4086357 0.9126976 0.0 0.4086357 0.9126976 0.0 0.4086357 0.9126976 0.0 0.2059676 0.4600148 0.8636919 0.2059676 0.4600148 0.8636919 0.2059676 0.4600148 0.8636919 0.2059675 0.4600152 0.8636917 0.2059675 0.4600152 0.8636917 0.2059675 0.4600152 0.8636917 -1.0E-7 -0.0 -1.0 -1.0E-7 -0.0 -1.0 -1.0E-7 -0.0 -1.0 -3.0E-7 2.0E-7 -1.0 -3.0E-7 2.0E-7 -1.0 -3.0E-7 2.0E-7 -1.0 -4.0E-7 1.0E-7 -1.0 -4.0E-7 1.0E-7 -1.0 -4.0E-7 1.0E-7 -1.0 0.9126959 -0.4086393 -1.3E-6 0.9126959 -0.4086393 -1.3E-6 0.9126959 -0.4086393 -1.3E-6 -1.0E-7 0.0 -1.0 -1.0E-7 0.0 -1.0 -1.0E-7 0.0 -1.0 0.9126972 -0.4086365 -1.0E-7 0.9126972 -0.4086365 -1.0E-7 0.9126972 -0.4086365 -1.0E-7 0.9126972 -0.4086366 8.0E-7 0.9126972 -0.4086366 8.0E-7 0.9126972 -0.4086366 8.0E-7 0.9126972 -0.4086365 0.0 0.9126972 -0.4086365 0.0 0.9126972 -0.4086365 0.0 -0.9126977 0.4086355 -1.3E-6 -0.9126977 0.4086355 -1.3E-6 -0.9126977 0.4086355 -1.3E-6 -0.912697 0.4086371 4.0E-7 -0.912697 0.4086371 4.0E-7 -0.912697 0.4086371 4.0E-7 -0.9126973 0.4086363 0.0 -0.9126973 0.4086363 0.0 -0.9126973 0.4086363 0.0 -0.0991137 -0.2213604 0.9701422 -0.0991137 -0.2213604 0.9701422 -0.0991137 -0.2213604 0.9701422 -0.9126966 0.4086379 0.0 -0.9126966 0.4086379 0.0 -0.9126966 0.4086379 0.0 -0.0991143 -0.2213592 0.9701425 -0.0991143 -0.2213592 0.9701425 -0.0991143 -0.2213592 0.9701425 -0.912698 0.4086347 -1.3E-6 -0.912698 0.4086347 -1.3E-6 -0.912698 0.4086347 -1.3E-6</float_array>
                    <technique_common>
                        <accessor count="90" source="#geometry0-normal-array" stride="3">
                            <param name="X" type="float"/>
                            <param name="Y" type="float"/>
                            <param name="Z" type="float"/>
                        </accessor>
                    </technique_common>
                </source>
                <source id="geometry0-texCoords">
                    <float_array id="geometry0-texCoords-array" count="0"></float_array>
                    <technique_common>
                        <accessor count="0" source="#geometry0-texCoords-array" stride="2">
                            <param name="S" type="float"/>
                            <param name="T" type="float"/>
                        </accessor>
                    </technique_common>
                </source>
                <vertices id="geometry0-vertex">
                    <input semantic="POSITION" source="#geometry0-position"/>
                </vertices>
                <triangles count="21" material="default_ai_0.2_sh_0.2_tr_0.0_dc_r_0.8_g_0.8_b_0.8_sc_r_1.0_g_1.0_b_1.0_ec_r_0.0_g_0.0_b_0_tri">
                    <input offset="0" semantic="VERTEX" source="#geometry0-vertex"/>
                    <input offset="1" semantic="NORMAL" source="#geometry0-normal"/>
                    <p>26 0 15 1 25 2 30 3 23 4 20 5 16 6 15 7 26 8 20 15 21 16 22 17 23 18 21 19 20 20 24 21 21 22 23 23 27 30 19 31 28 32 17 36 19 37 27 38 31 45 32 46 33 47 34 48 32 49 31 50 35 51 32 52 34 53 14 54 15 55 16 56 36 57 31 58 33 59 17 60 15 61 14 62 18 63 15 64 17 65 19 66 17 67 14 68 24 69 28 70 21 71 29 72 28 73 24 74 27 75 28 76 29 77 22 81 25 82 20 83 26 87 25 88 22 89</p>
                </triangles>
                <triangles count="9" material="default_ai_0.2_sh_0.2_tr_0.0_dc_r_1.0_g_0.2_b_0.2_sc_r_1.0_g_1.0_b_1.0_ec_r_0.0_g_0.0_b_0_tri">
                    <input offset="0" semantic="VERTEX" source="#geometry0-vertex"/>
                    <input offset="1" semantic="NORMAL" source="#geometry0-normal"/>
                    <p>7 9 11 10 12 11 13 12 11 13 7 14 0 24 1 25 2 26 3 27 2 28 4 29 0 33 2 34 3 35 3 39 4 40 5 41 2 42 1 43 6 44 7 78 8 79 9 80 10 84 8 85 7 86</p>
                </triangles>
            </mesh>
        </geometry>
    </library_geometries>
    <library_visual_scenes>
        <visual_scene id="Building_pb-9635e7ed-7f36-11f0-b84e-9c7bef4dcf4c">
            <node>
                <instance_geometry url="#geometry0">
                    <bind_material>
                        <technique_common>
                            <instance_material symbol="default_ai_0.2_sh_0.2_tr_0.0_dc_r_0.8_g_0.8_b_0.8_sc_r_1.0_g_1.0_b_1.0_ec_r_0.0_g_0.0_b_0_tri" target="#default_ai_0.2_sh_0.2_tr_0.0_dc_r_0.8_g_0.8_b_0.8_sc_r_1.0_g_1.0_b_1.0_ec_r_0.0_g_0.0_b_0_mat"/>
                            <instance_material symbol="default_ai_0.2_sh_0.2_tr_0.0_dc_r_1.0_g_0.2_b_0.2_sc_r_1.0_g_1.0_b_1.0_ec_r_0.0_g_0.0_b_0_tri" target="#default_ai_0.2_sh_0.2_tr_0.0_dc_r_1.0_g_0.2_b_0.2_sc_r_1.0_g_1.0_b_1.0_ec_r_0.0_g_0.0_b_0_mat"/>
                        </technique_common>
                    </bind_material>
                </instance_geometry>
            </node>
        </visual_scene>
    </library_visual_scenes>
    <scene>
        <instance_visual_scene url="#Building_pb-9635e7ed-7f36-11f0-b84e-9c7bef4dcf4c"/>
    </scene>
</COLLADA>
