<?xml version="1.0" encoding="UTF-8" standalone="yes"?>
<COLLADA xmlns="http://www.collada.org/2005/11/COLLADASchema" version="1.4.1">
    <asset>
        <contributor>
            <authoring_tool>3D City Database Importer/Exporter, version 5.5.1; Chair of Geoinformatics, Technical University of Munich</authoring_tool>
        </contributor>
        <created>2026-01-16T16:51:34.734</created>
        <modified>2026-01-16T16:51:34.734</modified>
        <unit meter="1.0" name="meters"/>
        <up_axis>Z_UP</up_axis>
    </asset>
    <library_materials>
        <material id="default_ai_0.2_sh_0.2_tr_0.0_dc_r_1.0_g_0.2_b_0.2_sc_r_1.0_g_1.0_b_1.0_ec_r_0.0_g_0.0_b_0_mat">
            <instance_effect url="#default_ai_0.2_sh_0.2_tr_0.0_dc_r_1.0_g_0.2_b_0.2_sc_r_1.0_g_1.0_b_1.0_ec_r_0.0_g_0.0_b_0_eff"/>
        </material>
        <material id="default_ai_0.2_sh_0.2_tr_0.0_dc_r_0.8_g_0.8_b_0.8_sc_r_1.0_g_1.0_b_1.0_ec_r_0.0_g_0.0_b_0_mat">
            <instance_effect url="#default_ai_0.2_sh_0.2_tr_0.0_dc_r_0.8_g_0.8_b_0.8_sc_r_1.0_g_1.0_b_1.0_ec_r_0.0_g_0.0_b_0_eff"/>
        </material>
    </library_materials>
    <library_effects>
        <effect id="default_ai_0.2_sh_0.2_tr_0.0_dc_r_1.0_g_0.2_b_0.2_sc_r_1.0_g_1.0_b_1.0_ec_r_0.0_g_0.0_b_0_eff">
            <profile_COMMON>
                <technique sid="COMMON">
                    <lambert>
                        <emission>
                            <color>0.0 0.0 0.0 1.0</color>
                        </emission>
                        <diffuse>
                            <color>1.0 0.2 0.2 1.0</color>
                        </diffuse>
                        <reflective>
                            <color>1.0 1.0 1.0 1.0</color>
                        </reflective>
                        <reflectivity>
                            <float>0.2</float>
                        </reflectivity>
                        <transparent opaque="A_ONE">
                            <color>1.0 1.0 1.0 1.0</color>
                        </transparent>
                        <transparency>
                            <float>1.0</float>
                        </transparency>
                    </lambert>
                </technique>
                <extra>
                    <technique profile="GOOGLEEARTH">
                        <double_sided>1</double_sided>
                    </technique>
                </extra>
            </profile_COMMON>
        </effect>
        <effect id="default_ai_0.2_sh_0.2_tr_0.0_dc_r_0.8_g_0.8_b_0.8_sc_r_1.0_g_1.0_b_1.0_ec_r_0.0_g_0.0_b_0_eff">
            <profile_COMMON>
                <technique sid="COMMON">
                    <lambert>
                        <emission>
                            <color>0.0 0.0 0.0 1.0</color>
                        </emission>
                        <diffuse>
                            <color>0.8 0.8 0.8 1.0</color>
                        </diffuse>
                        <reflective>
                            <color>1.0 1.0 1.0 1.0</color>
                        </reflective>
                        <reflectivity>
                            <float>0.2</float>
                        </reflectivity>
                        <transparent opaque="A_ONE">
                            <color>1.0 1.0 1.0 1.0</color>
                        </transparent>
                        <transparency>
                            <float>1.0</float>
                        </transparency>
                    </lambert>
                </technique>
                <extra>
                    <technique profile="GOOGLEEARTH">
                        <double_sided>1</double_sided>
                    </technique>
                </extra>
            </profile_COMMON>
        </effect>
    </library_effects>
    <library_geometries>
        <geometry id="geometry0">
            <mesh>
                <source id="geometry0-position">
                    <float_array id="geometry0-position-array" count="129">-1.6470266 3.2073975 9.0000289 -3.0192094 8.5512695 9.0000289 -4.9663702 5.0572205 9.0000289 0.3001627 6.7014465 9.0000289 -6.35E-5 0.0 5.5000294 2.9207281 5.2410889 9.0000289 -2.6205984 1.4603577 5.5000294 4.8664956 8.7351403 7.5628803 -3.0192171 8.5512724 9.0000261 3.3089976 5.9403443 8.7127984 0.3001513 6.7014523 9.0000271 3.1129822 5.5886116 8.8573969 2.9196476 5.2416899 9.0000277 -1.0720125 12.0453548 7.5636239 -1.0739246 12.0453091 7.563971 -2.0472723 10.2987041 8.2814971 -2.4248758 9.6211128 8.5602443 -3.0206361 8.5520644 9.0000262 -4.9664014 5.057215 9.0000317 -1.0721944 12.0450576 7.5627434 -4.9664014 5.057215 6.6666991 -3.0192159 8.5512717 9.0000317 -1.6470387 3.207392 9.0000326 -4.9664014 5.057215 3.02E-5 -1.6470349 3.2073997 2.77E-5 -1.6470349 3.207392 6.6666967 0.3001392 6.7014564 9.0000307 -2.6206258 1.4603599 3.16E-5 -2.6206258 1.4603599 5.5000317 -7.75E-5 -2.07E-5 5.5000274 -7.75E-5 -2.83E-5 3.2E-5 4.8678729 8.7351249 3.19E-5 0.9735095 1.7470115 2.89E-5 4.8678729 8.7351325 7.5626261 0.9735095 1.7470039 6.6666987 2.9206836 5.2410682 9.0000317 -1.072038 12.0453399 2.94E-5 4.8679428 8.7351685 4.0E-7 -1.6469517 3.207428 2.0E-7 -4.9663067 5.0572205 6.0E-7 0.0 0.0 0.0 -2.6205482 1.4603882 3.0E-7 -1.0719509 12.0453796 1.0E-7</float_array>
                    <technique_common>
                        <accessor count="43" source="#geometry0-position-array" stride="3">
                            <param name="X" type="float"/>
                            <param name="Y" type="float"/>
                            <param name="Z" type="float"/>
                        </accessor>
                    </technique_common>
                </source>
                <source id="geometry0-normal">
                    <float_array id="geometry0-normal-array" count="333">0.1646169 0.2954623 0.941065 0.1646169 0.2954623 0.941065 0.1646169 0.2954623 0.941065 0.1645236 0.2952268 0.9411552 0.1645236 0.2952268 0.9411552 0.1645236 0.2952268 0.9411552 0.1645233 0.2952257 0.9411556 0.1645233 0.2952257 0.9411556 0.1645233 0.2952257 0.9411556 -0.4867958 -0.8735158 1.2E-6 -0.4867958 -0.8735158 1.2E-6 -0.4867958 -0.8735158 1.2E-6 0.1645305 0.2952453 0.9411482 0.1645305 0.2952453 0.9411482 0.1645305 0.2952453 0.9411482 -0.4867939 -0.8735168 0.0 -0.4867939 -0.8735168 0.0 -0.4867939 -0.8735168 0.0 0.1638054 0.2953835 0.9412313 0.1638054 0.2953835 0.9412313 0.1638054 0.2953835 0.9412313 0.1645404 0.2949733 0.9412318 0.1645404 0.2949733 0.9412318 0.1645404 0.2949733 0.9412318 0.1646221 0.2954031 0.9410827 0.1646221 0.2954031 0.9410827 0.1646221 0.2954031 0.9410827 0.1646646 0.2948506 0.9412485 0.1646646 0.2948506 0.9412485 0.1646646 0.2948506 0.9412485 0.1646218 0.2953992 0.941084 0.1646218 0.2953992 0.941084 0.1646218 0.2953992 0.941084 0.3450428 -0.1922864 -0.9186792 0.3450428 -0.1922864 -0.9186792 0.3450428 -0.1922864 -0.9186792 0.873516 -0.4867954 5.0E-7 0.873516 -0.4867954 5.0E-7 0.873516 -0.4867954 5.0E-7 0.873516 -0.4867955 5.0E-7 0.873516 -0.4867955 5.0E-7 0.873516 -0.4867955 5.0E-7 0.8735157 -0.4867959 7.0E-7 0.8735157 -0.4867959 7.0E-7 0.8735157 -0.4867959 7.0E-7 -0.4867953 -0.8735161 0.0 -0.4867953 -0.8735161 0.0 -0.4867953 -0.8735161 0.0 -0.4867953 -0.8735161 0.0 -0.4867953 -0.8735161 0.0 -0.4867953 -0.8735161 0.0 -0.4867934 -0.8735171 -9.0E-7 -0.4867934 -0.8735171 -9.0E-7 -0.4867934 -0.8735171 -9.0E-7 -0.5734626 -0.8192317 -9.0E-7 -0.5734626 -0.8192317 -9.0E-7 -0.5734626 -0.8192317 -9.0E-7 0.4867537 0.8735393 4.27E-5 0.4867537 0.8735393 4.27E-5 0.4867537 0.8735393 4.27E-5 0.486796 0.8735157 -9.0E-7 0.486796 0.8735157 -9.0E-7 0.486796 0.8735157 -9.0E-7 0.0 0.0 1.0 0.0 0.0 1.0 0.0 0.0 1.0 0.0 0.0 1.0 0.0 0.0 1.0 0.0 0.0 1.0 -0.8735158 0.4867957 -3.5E-6 -0.8735158 0.4867957 -3.5E-6 -0.8735158 0.4867957 -3.5E-6 -0.8735169 0.4867938 6.0E-7 -0.8735169 0.4867938 6.0E-7 -0.8735169 0.4867938 6.0E-7 -0.2452771 -0.4401419 0.8637791 -0.2452771 -0.4401419 0.8637791 -0.2452771 -0.4401419 0.8637791 0.8735164 -0.4867947 1.4E-6 0.8735164 -0.4867947 1.4E-6 0.8735164 -0.4867947 1.4E-6 -0.873516 0.4867954 0.0 -0.873516 0.4867954 0.0 -0.873516 0.4867954 0.0 -0.2452797 -0.4401414 0.8637785 -0.2452797 -0.4401414 0.8637785 -0.2452797 -0.4401414 0.8637785 -1.0E-7 1.0E-7 -1.0 -1.0E-7 1.0E-7 -1.0 -1.0E-7 1.0E-7 -1.0 -0.0 1.0E-7 -1.0 -0.0 1.0E-7 -1.0 -0.0 1.0E-7 -1.0 -1.0E-7 -0.0 -1.0 -1.0E-7 -0.0 -1.0 -1.0E-7 -0.0 -1.0 0.0 -1.0E-7 -1.0 0.0 -1.0E-7 -1.0 0.0 -1.0E-7 -1.0 -0.8735158 0.4867957 0.0 -0.8735158 0.4867957 0.0 -0.8735158 0.4867957 0.0 -0.8735151 0.486797 8.3E-6 -0.8735151 0.486797 8.3E-6 -0.8735151 0.486797 8.3E-6 0.8735155 -0.4867962 5.0E-7 0.8735155 -0.4867962 5.0E-7 0.8735155 -0.4867962 5.0E-7 0.8735161 -0.4867954 -6.0E-7 0.8735161 -0.4867954 -6.0E-7 0.8735161 -0.4867954 -6.0E-7</float_array>
                    <technique_common>
                        <accessor count="111" source="#geometry0-normal-array" stride="3">
                            <param name="X" type="float"/>
                            <param name="Y" type="float"/>
                            <param name="Z" type="float"/>
                        </accessor>
                    </technique_common>
                </source>
                <source id="geometry0-texCoords">
                    <float_array id="geometry0-texCoords-array" count="0"></float_array>
                    <technique_common>
                        <accessor count="0" source="#geometry0-texCoords-array" stride="2">
                            <param name="S" type="float"/>
                            <param name="T" type="float"/>
                        </accessor>
                    </technique_common>
                </source>
                <vertices id="geometry0-vertex">
                    <input semantic="POSITION" source="#geometry0-position"/>
                </vertices>
                <triangles count="24" material="default_ai_0.2_sh_0.2_tr_0.0_dc_r_0.8_g_0.8_b_0.8_sc_r_1.0_g_1.0_b_1.0_ec_r_0.0_g_0.0_b_0_tri">
                    <input offset="0" semantic="VERTEX" source="#geometry0-vertex"/>
                    <input offset="1" semantic="NORMAL" source="#geometry0-normal"/>
                    <p>29 9 27 10 30 11 28 15 27 16 29 17 31 33 30 34 32 35 33 36 30 37 31 38 34 39 30 40 33 41 29 42 30 43 34 44 20 45 22 46 18 47 23 48 22 49 20 50 24 51 22 52 23 53 25 54 22 55 24 56 33 57 36 58 19 59 31 60 36 61 33 62 34 69 35 70 33 71 27 72 25 73 24 74 25 78 26 79 22 80 28 81 25 82 27 83 37 87 38 88 39 89 40 90 38 91 37 92 41 93 38 94 40 95 42 96 37 97 39 98 18 99 19 100 20 101 21 102 19 103 18 104 33 105 32 106 31 107 34 108 32 109 33 110</p>
                </triangles>
                <triangles count="13" material="default_ai_0.2_sh_0.2_tr_0.0_dc_r_1.0_g_0.2_b_0.2_sc_r_1.0_g_1.0_b_1.0_ec_r_0.0_g_0.0_b_0_tri">
                    <input offset="0" semantic="VERTEX" source="#geometry0-vertex"/>
                    <input offset="1" semantic="NORMAL" source="#geometry0-normal"/>
                    <p>7 0 8 1 9 2 9 3 10 4 11 5 8 6 10 7 9 8 10 12 12 13 11 14 13 18 14 19 15 20 13 21 15 22 7 23 15 24 16 25 7 26 17 27 8 28 7 29 17 30 7 31 16 32 0 63 1 64 2 65 3 66 1 67 0 68 3 75 4 76 5 77 6 84 4 85 3 86</p>
                </triangles>
            </mesh>
        </geometry>
    </library_geometries>
    <library_visual_scenes>
        <visual_scene id="Building_pb-96357315-7f36-11f0-a2b1-9c7bef4dcf4c">
            <node>
                <instance_geometry url="#geometry0">
                    <bind_material>
                        <technique_common>
                            <instance_material symbol="default_ai_0.2_sh_0.2_tr_0.0_dc_r_0.8_g_0.8_b_0.8_sc_r_1.0_g_1.0_b_1.0_ec_r_0.0_g_0.0_b_0_tri" target="#default_ai_0.2_sh_0.2_tr_0.0_dc_r_0.8_g_0.8_b_0.8_sc_r_1.0_g_1.0_b_1.0_ec_r_0.0_g_0.0_b_0_mat"/>
                            <instance_material symbol="default_ai_0.2_sh_0.2_tr_0.0_dc_r_1.0_g_0.2_b_0.2_sc_r_1.0_g_1.0_b_1.0_ec_r_0.0_g_0.0_b_0_tri" target="#default_ai_0.2_sh_0.2_tr_0.0_dc_r_1.0_g_0.2_b_0.2_sc_r_1.0_g_1.0_b_1.0_ec_r_0.0_g_0.0_b_0_mat"/>
                        </technique_common>
                    </bind_material>
                </instance_geometry>
            </node>
        </visual_scene>
    </library_visual_scenes>
    <scene>
        <instance_visual_scene url="#Building_pb-96357315-7f36-11f0-a2b1-9c7bef4dcf4c"/>
    </scene>
</COLLADA>
