<?xml version="1.0" encoding="UTF-8" standalone="yes"?>
<COLLADA xmlns="http://www.collada.org/2005/11/COLLADASchema" version="1.4.1">
    <asset>
        <contributor>
            <authoring_tool>3D City Database Importer/Exporter, version 5.5.1; Chair of Geoinformatics, Technical University of Munich</authoring_tool>
        </contributor>
        <created>2026-01-16T16:51:34.911</created>
        <modified>2026-01-16T16:51:34.911</modified>
        <unit meter="1.0" name="meters"/>
        <up_axis>Z_UP</up_axis>
    </asset>
    <library_materials>
        <material id="default_dc_r_1.0_g_1.0_b_1_mat">
            <instance_effect url="#default_dc_r_1.0_g_1.0_b_1_eff"/>
        </material>
        <material id="default_dc_r_0.6_g_0.6_b_0_mat">
            <instance_effect url="#default_dc_r_0.6_g_0.6_b_0_eff"/>
        </material>
        <material id="default_dc_r_0.9_g_0.7_b_0_mat">
            <instance_effect url="#default_dc_r_0.9_g_0.7_b_0_eff"/>
        </material>
    </library_materials>
    <library_effects>
        <effect id="default_dc_r_1.0_g_1.0_b_1_eff">
            <profile_COMMON>
                <technique sid="COMMON">
                    <lambert>
                        <emission>
                            <color>0.0 0.0 0.0 1.0</color>
                        </emission>
                        <diffuse>
                            <color>1.0 1.0 1.0 1.0</color>
                        </diffuse>
                    </lambert>
                </technique>
                <extra>
                    <technique profile="GOOGLEEARTH">
                        <double_sided>1</double_sided>
                    </technique>
                </extra>
            </profile_COMMON>
        </effect>
        <effect id="default_dc_r_0.6_g_0.6_b_0_eff">
            <profile_COMMON>
                <technique sid="COMMON">
                    <lambert>
                        <emission>
                            <color>0.0 0.0 0.0 1.0</color>
                        </emission>
                        <diffuse>
                            <color>0.6 0.6 0.6 1.0</color>
                        </diffuse>
                    </lambert>
                </technique>
                <extra>
                    <technique profile="GOOGLEEARTH">
                        <double_sided>1</double_sided>
                    </technique>
                </extra>
            </profile_COMMON>
        </effect>
        <effect id="default_dc_r_0.9_g_0.7_b_0_eff">
            <profile_COMMON>
                <technique sid="COMMON">
                    <lambert>
                        <emission>
                            <color>0.0 0.0 0.0 1.0</color>
                        </emission>
                        <diffuse>
                            <color>0.9 0.7 0.4 1.0</color>
                        </diffuse>
                    </lambert>
                </technique>
                <extra>
                    <technique profile="GOOGLEEARTH">
                        <double_sided>1</double_sided>
                    </technique>
                </extra>
            </profile_COMMON>
        </effect>
    </library_effects>
    <library_geometries>
        <geometry id="geometry0">
            <mesh>
                <source id="geometry0-position">
                    <float_array id="geometry0-position-array" count="786">1.1932 -0.6344 27.474024 -0.0058 -0.0131 27.799024 -0.0108 -0.0242 27.798824 1.1825 -0.6584 27.473524 0.0 0.0 27.799224 1.9861 -1.056 43.794324 1.9755 -1.0798 43.794324 2.0143 -1.1005 43.801524 2.6101 -1.4171 43.912224 20.1904 41.127 43.344324 20.3611 41.0512 43.344324 23.285 48.4624 43.344324 19.9129 41.2502 43.344324 20.6335 40.9302 43.344324 23.864 48.2041 43.344324 23.1456 48.5288 43.344324 4.3115 6.3867 2.994324 8.0717 17.1541 2.994324 0.0 0.0 2.994324 19.9129 41.2502 2.994324 21.9445 49.1014 2.994324 14.3431 31.2749 2.994324 9.3009 16.6082 2.994324 1.1932 -0.6344 2.994324 15.5723 30.729 2.994324 4.6871 6.2199 2.994324 20.1904 41.127 2.994324 23.1456 48.5288 2.994324 20.6335 40.9302 41.994324 20.3611 41.0512 41.994324 15.5723 30.729 41.994324 5.1302 6.0231 41.994324 9.3009 16.6082 41.994324 4.8578 6.1441 41.994324 20.1904 41.127 41.994324 4.6871 6.2199 41.994324 16.9013 8.9458 47.394324 13.7304 1.8063 47.394324 16.0842 0.7609 46.944324 19.2551 7.9004 46.944324 14.3431 31.2749 40.794324 8.0717 17.1541 40.794324 9.3009 16.6082 41.284024 15.5723 30.729 41.283924 31.9538 36.1759 47.094324 29.5793 37.2305 47.394324 26.4383 30.1581 47.394324 28.8127 29.1035 47.094324 24.2585 31.1262 47.138924 27.3996 38.1986 47.138924 27.0186 38.3678 47.094324 23.8775 31.2954 47.094324 11.6474 2.7314 47.023124 14.8183 9.871 47.023124 14.3763 10.0673 46.944324 11.2054 2.9277 46.944324 11.2054 2.9277 44.914724 5.1302 6.0231 43.794324 4.9261 -2.4344 44.328524 2.9964 -1.5932 43.982124 20.6335 40.9302 43.794324 14.3763 10.0673 44.914724 23.8775 31.2954 44.925724 27.0186 38.3678 44.925724 24.5249 47.9092 43.913324 11.2152 2.9497 44.914724 14.1758 9.6158 44.914724 14.8183 9.871 44.994324 5.0956 -2.5105 44.359124 27.0128 38.3548 44.925724 5.359 -2.6287 44.406624 24.0513 31.6867 44.925724 24.2585 31.1262 44.994324 8.6172 -4.0913 44.994324 11.6474 2.7314 44.994324 4.9184 -2.45 44.328424 2.6553 -1.4411 43.920624 27.3996 38.1986 44.994324 30.5236 45.2326 44.994324 24.5019 47.9194 43.909224 23.864 48.2041 43.794324 4.8578 6.1441 43.616324 1.1932 -0.6344 43.494324 1.9861 -1.056 43.677124 4.6871 6.2199 43.578224 4.3115 6.3867 43.494324 1.1825 -0.6584 43.494324 1.9755 -1.0798 43.677124 5.1302 6.0231 43.677124 16.5948 -3.3562 43.843624 13.7304 1.8063 44.619224 11.1087 -5.2097 44.544924 30.7948 45.1116 44.945424 29.5793 37.2305 44.601824 35.4682 38.9127 43.828524 28.8127 29.1035 44.174324 19.2551 7.9004 44.195424 33.3485 34.1655 43.830224 35.3781 38.7109 43.828624 31.9538 36.1759 44.174324 31.8557 35.9551 44.174324 33.7269 35.013 43.829924 30.8611 33.7156 44.174324 26.4383 30.1581 44.601824 16.0842 0.7609 44.195424 18.2074 0.2554 43.842324 16.1967 1.0143 44.195424 16.9013 8.9458 44.619224 18.3347 0.5405 43.842224 17.2567 3.4009 44.195424 9.1052 -4.3103 44.906324 30.5884 45.2037 44.982624 14.366 -6.6618 43.958024 16.0651 -4.5426 43.844024 14.9939 -6.9417 43.844924 16.4645 -3.6481 43.843724 36.6454 41.5492 43.827624 33.6331 34.8027 43.830024 36.9998 42.3429 43.827324 9.3009 16.6082 41.284 15.5723 30.729 41.9943 15.5723 30.729 41.2839 15.5723 30.729 2.9943 20.1904 41.127 2.9943 20.1904 41.127 41.9943 9.3009 16.6082 41.9943 4.8578 6.1441 43.6163 5.1302 6.0231 43.6771 5.1302 6.0231 41.9943 4.8578 6.1441 41.9943 4.6871 6.2199 43.5782 4.6871 6.2199 41.9943 4.6871 6.2199 2.9943 4.3115 6.3867 2.9943 4.3115 6.3867 43.4943 9.3009 16.6082 2.9943 8.0717 17.1541 40.7943 8.0717 17.1541 2.9943 14.3431 31.2749 2.9943 14.3431 31.2749 40.7943 19.9129 41.2502 43.3443 19.9129 41.2502 2.9943 20.1904 41.127 43.3443 20.3611 41.0512 41.9943 20.3611 41.0512 43.3443 20.6335 40.9302 41.9943 20.6335 40.9302 43.3443 24.0513 31.6867 44.9257 23.8775 31.2954 44.9257 23.8775 31.2954 47.0943 27.0186 38.3678 47.0943 27.0128 38.3548 44.9257 27.0186 38.3678 44.9257 27.3996 38.1986 44.9943 27.3996 38.1986 47.1389 29.5793 37.2305 44.6018 29.5793 37.2305 47.3943 31.9538 36.1759 44.1743 31.9538 36.1759 47.0943 31.8557 35.9551 44.1743 30.8611 33.7156 44.1743 28.8127 29.1035 47.0943 28.8127 29.1035 44.1743 26.4383 30.1581 47.3943 26.4383 30.1581 44.6018 24.2585 31.1262 44.9943 24.2585 31.1262 47.1389 14.8183 9.871 44.9943 14.3763 10.0673 44.9147 14.3763 10.0673 46.9443 14.8183 9.871 47.0231 16.9013 8.9458 44.6192 16.9013 8.9458 47.3943 19.2551 7.9004 44.1954 19.2551 7.9004 46.9443 16.0842 0.7609 46.9443 16.0842 0.7609 44.1954 16.1967 1.0143 44.1954 17.2567 3.4009 44.1954 13.7304 1.8063 47.3943 13.7304 1.8063 44.6192 11.6474 2.7314 47.0231 11.6474 2.7314 44.9943 11.2054 2.9277 46.9443 11.2054 2.9277 44.9147 14.1758 9.6158 44.9147 11.2152 2.9497 44.9147 20.6335 40.9302 43.7943 5.1302 6.0231 43.7943 1.9861 -1.056 43.6771 1.9861 -1.056 43.7943 1.1932 -0.6344 2.9943 1.1932 -0.6344 27.474 1.1932 -0.6344 43.4943 0.0 0.0 2.9943 0.0 0.0 27.7992 23.1456 48.5288 2.9943 23.1456 48.5288 43.3443 23.864 48.2041 43.3443 23.864 48.2041 43.7943 1.9755 -1.0798 43.6771 1.9755 -1.0798 43.7943 1.1825 -0.6584 27.4736 1.1825 -0.6584 43.4943 0.0 0.0 0.0 -0.0058 -0.0131 0.0 -0.0058 -0.0131 27.799 21.9445 49.1014 2.9943 21.9445 49.1014 0.0 23.285 48.4624 0.0 23.285 48.4624 43.3443 24.5019 47.9194 43.9092 24.5249 47.9092 43.9133 30.5236 45.2326 44.9943 36.9998 42.3429 0.0 36.9998 42.3429 43.8273 30.5884 45.2037 44.9826 30.7948 45.1116 44.9454 16.5948 -3.3562 43.8436 16.4645 -3.6481 43.8437 14.9939 -6.9417 0.0 16.0651 -4.5426 43.8441 18.2074 0.2554 43.8424 35.3781 38.7109 43.8286 33.7269 35.013 43.8299 33.6331 34.8027 43.83 18.3347 0.5405 43.8422 33.3485 34.1655 43.8302 36.6454 41.5492 43.8276 35.4682 38.9127 43.8285 14.9939 -6.9417 43.8449 14.366 -6.6618 43.9581 11.1087 -5.2097 44.5449 11.1087 -5.2097 0.0 5.359 -2.6287 44.4066 9.1052 -4.3103 44.9063 4.9261 -2.4344 44.3286 4.9261 -2.4344 0.0 5.0956 -2.5105 44.3591 8.6172 -4.0913 44.9943 4.9184 -2.45 44.3284 4.9184 -2.45 0.0 2.9964 -1.5932 43.9821 2.9964 -1.5932 0.0 2.6553 -1.4411 43.9207 2.6553 -1.4411 0.0 -0.0108 -0.0242 0.0 2.6101 -1.4171 43.9123 2.0143 -1.1005 43.8015 -0.0108 -0.0242 27.7988 0.0 0.0 3.6E-5 2.9964 -1.5932 3.6E-5 2.6553 -1.4411 3.6E-5 23.285 48.4624 3.6E-5 4.9261 -2.4344 3.6E-5 -0.0058 -0.0131 3.6E-5 36.9998 42.3429 3.6E-5 11.1087 -5.2097 3.6E-5 21.9445 49.1014 3.6E-5 4.9184 -2.45 3.6E-5 14.9939 -6.9417 3.6E-5 -0.0108 -0.0242 3.6E-5</float_array>
                    <technique_common>
                        <accessor count="262" source="#geometry0-position-array" stride="3">
                            <param name="X" type="float"/>
                            <param name="Y" type="float"/>
                            <param name="Z" type="float"/>
                        </accessor>
                    </technique_common>
                </source>
                <source id="geometry0-normal">
                    <float_array id="geometry0-normal-array" count="2325">-0.9139169 0.4059011 0.0 -0.9139169 0.4059011 0.0 -0.9139169 0.4059011 0.0 -0.4693049 -0.8830362 0.0 -0.4693049 -0.8830362 0.0 -0.4693049 -0.8830362 0.0 -0.9139169 0.4059011 0.0 -0.9139169 0.4059011 0.0 -0.9139169 0.4059011 0.0 -0.4707047 -0.8822908 0.0 -0.4707047 -0.8822908 0.0 -0.4707047 -0.8822908 0.0 -0.913917 0.4059011 0.0 -0.913917 0.4059011 0.0 -0.913917 0.4059011 0.0 -0.4692584 -0.883061 0.0 -0.4692584 -0.883061 0.0 -0.4692584 -0.883061 0.0 -0.9139199 0.4058946 0.0 -0.9139199 0.4058946 0.0 -0.9139199 0.4058946 0.0 -0.4059007 -0.9139171 0.0 -0.4059007 -0.9139171 0.0 -0.4059007 -0.9139171 0.0 0.2062924 -0.110466 0.9722349 0.2062924 -0.110466 0.9722349 0.2062924 -0.110466 0.9722349 -0.4059007 -0.9139172 0.0 -0.4059007 -0.9139172 0.0 -0.4059007 -0.9139172 0.0 0.2055673 -0.1118928 0.9722253 0.2055673 -0.1118928 0.9722253 0.2055673 -0.1118928 0.9722253 0.2080918 -0.1069958 0.9722396 0.2080918 -0.1069958 0.9722396 0.2080918 -0.1069958 0.9722396 -0.9117677 0.4107062 0.0 -0.9117677 0.4107062 0.0 -0.9117677 0.4107062 0.0 -0.9117677 0.4107062 0.0 -0.9117677 0.4107062 0.0 -0.9117677 0.4107062 0.0 -0.4058901 -0.9139219 0.0 -0.4058901 -0.9139219 0.0 -0.4058901 -0.9139219 0.0 -0.4058901 -0.9139219 0.0 -0.4058901 -0.9139219 0.0 -0.4058901 -0.9139219 0.0 0.4059526 0.9138941 0.0 0.4059526 0.9138941 0.0 0.4059526 0.9138941 0.0 0.4059526 0.9138941 0.0 0.4059526 0.9138941 0.0 0.4059526 0.9138941 0.0 0.0 0.0 -1.0 0.0 0.0 -1.0 0.0 0.0 -1.0 0.0 0.0 -1.0 0.0 0.0 -1.0 0.0 0.0 -1.0 0.0 0.0 -1.0 0.0 0.0 -1.0 0.0 0.0 -1.0 0.0 0.0 -1.0 0.0 0.0 -1.0 0.0 0.0 -1.0 -0.4058895 -0.9139221 0.0 -0.4058895 -0.9139221 0.0 -0.4058895 -0.9139221 0.0 0.0 0.0 -1.0 0.0 0.0 -1.0 0.0 0.0 -1.0 -0.4058896 -0.9139222 0.0 -0.4058896 -0.9139222 0.0 -0.4058896 -0.9139222 0.0 0.0 0.0 -1.0 0.0 0.0 -1.0 0.0 0.0 -1.0 0.0 0.0 -1.0 0.0 0.0 -1.0 0.0 0.0 -1.0 0.0 0.0 -1.0 0.0 0.0 -1.0 0.0 0.0 -1.0 0.0 0.0 -1.0 0.0 0.0 -1.0 0.0 0.0 -1.0 0.0 0.0 -1.0 0.0 0.0 -1.0 0.0 0.0 -1.0 -0.1480025 0.0659169 0.9867878 -0.1480025 0.0659169 0.9867878 -0.1480025 0.0659169 0.9867878 -0.1484682 0.0656137 0.9867381 -0.1484682 0.0656137 0.9867381 -0.1484682 0.0656137 0.9867381 0.0 0.0 1.0 0.0 0.0 1.0 0.0 0.0 1.0 0.0 0.0 1.0 0.0 0.0 1.0 0.0 0.0 1.0 0.0 0.0 1.0 0.0 0.0 1.0 0.0 0.0 1.0 0.0 0.0 1.0 0.0 0.0 1.0 0.0 0.0 1.0 0.0 0.0 1.0 0.0 0.0 1.0 0.0 0.0 1.0 -0.9139189 0.4058968 -1.31E-5 -0.9139189 0.4058968 -1.31E-5 -0.9139189 0.4058968 -1.31E-5 -0.9134699 0.4069062 0.0 -0.9134699 0.4069062 0.0 -0.9134699 0.4069062 0.0 -0.9139187 0.4058973 -1.1E-5 -0.9139187 0.4058973 -1.1E-5 -0.9139187 0.4058973 -1.1E-5 -0.913937 0.405856 0.0 -0.913937 0.405856 0.0 -0.913937 0.405856 0.0 0.40584 0.9139441 0.0 0.40584 0.9139441 0.0 0.40584 0.9139441 0.0 0.40584 0.9139442 0.0 0.40584 0.9139442 0.0 0.40584 0.9139442 0.0 0.0 0.0 1.0 0.0 0.0 1.0 0.0 0.0 1.0 0.0 0.0 1.0 0.0 0.0 1.0 0.0 0.0 1.0 0.0 0.0 1.0 0.0 0.0 1.0 0.0 0.0 1.0 0.0 0.0 1.0 0.0 0.0 1.0 0.0 0.0 1.0 0.0 0.0 1.0 0.0 0.0 1.0 0.0 0.0 1.0 0.0 0.0 1.0 0.0 0.0 1.0 0.0 0.0 1.0 0.0 0.0 1.0 0.0 0.0 1.0 0.0 0.0 1.0 0.0 0.0 1.0 0.0 0.0 1.0 0.0 0.0 1.0 0.0 0.0 1.0 0.0 0.0 1.0 0.0 0.0 1.0 0.0 0.0 1.0 0.0 0.0 1.0 0.0 0.0 1.0 -0.9139181 0.4058987 0.0 -0.9139181 0.4058987 0.0 -0.9139181 0.4058987 0.0 -0.9139181 0.4058987 0.0 -0.9139181 0.4058987 0.0 -0.9139181 0.4058987 0.0 -0.9139181 0.4058987 0.0 -0.9139181 0.4058987 0.0 -0.9139181 0.4058987 0.0 -0.9139181 0.4058987 0.0 -0.9139181 0.4058987 0.0 -0.9139181 0.4058987 0.0 0.4058677 0.9139318 0.0 0.4058677 0.9139318 0.0 0.4058677 0.9139318 0.0 0.4058677 0.9139318 0.0 0.4058677 0.9139318 0.0 0.4058677 0.9139318 0.0 0.4058677 0.9139318 0.0 0.4058677 0.9139318 0.0 0.4058677 0.9139318 0.0 1.0 0.0 0.0 1.0 0.0 0.0 -0.9139153 0.4059049 0.0 -0.9139153 0.4059049 0.0 -0.9139153 0.4059049 0.0 -0.9139153 0.4059049 0.0 -0.9139153 0.4059049 0.0 -0.9139153 0.4059049 0.0 0.0 0.0 1.0 0.0 0.0 1.0 0.0 0.0 1.0 0.0 0.0 1.0 0.0 0.0 1.0 0.0 0.0 1.0 0.0 0.0 1.0 0.0 0.0 1.0 0.0 0.0 1.0 -0.9139168 0.4059018 0.0 -0.9139168 0.4059018 0.0 -0.9139168 0.4059018 0.0 0.0 0.0 1.0 0.0 0.0 1.0 0.0 0.0 1.0 -0.9139167 0.4059018 0.0 -0.9139167 0.4059018 0.0 -0.9139167 0.4059018 0.0 0.0 0.0 1.0 0.0 0.0 1.0 0.0 0.0 1.0 -0.9139167 0.4059017 0.0 -0.9139167 0.4059017 0.0 -0.9139167 0.4059017 0.0 0.0 0.0 1.0 0.0 0.0 1.0 0.0 0.0 1.0 0.1572994 -0.0698622 0.9850767 0.1572994 -0.0698622 0.9850767 0.1572994 -0.0698622 0.9850767 0.1572994 -0.0698621 0.9850767 0.1572994 -0.0698621 0.9850767 0.1572994 -0.0698621 0.9850767 -0.4058833 -0.9139249 0.0 -0.4058833 -0.9139249 0.0 -0.4058833 -0.9139249 0.0 -0.4058833 -0.9139249 0.0 -0.4058833 -0.9139249 0.0 -0.4058833 -0.9139249 0.0 -0.3126759 0.1388671 0.9396541 -0.3126759 0.1388671 0.9396541 -0.3126759 0.1388671 0.9396541 -0.3126175 0.1388478 0.9396763 -0.3126175 0.1388478 0.9396763 -0.3126175 0.1388478 0.9396763 -0.9139172 0.4059005 0.0 -0.9139172 0.4059005 0.0 -0.9139172 0.4059005 0.0 -0.9139172 0.4059005 0.0 -0.9139172 0.4059005 0.0 -0.9139172 0.4059005 0.0 -0.9139172 0.4059005 0.0 -0.9139172 0.4059005 0.0 -0.9139172 0.4059005 0.0 0.1048317 -0.046558 0.9933996 0.1048317 -0.046558 0.9933996 0.1048317 -0.046558 0.9933996 0.1048348 -0.0465608 0.9933991 0.1048348 -0.0465608 0.9933991 0.1048348 -0.0465608 0.9933991 -0.0972239 0.0431805 0.9943254 -0.0972239 0.0431805 0.9943254 -0.0972239 0.0431805 0.9943254 -0.0972239 0.0431805 0.9943255 -0.0972239 0.0431805 0.9943255 -0.0972239 0.0431805 0.9943255 -0.0973111 0.0432192 0.9943151 -0.0973111 0.0432192 0.9943151 -0.0973111 0.0432192 0.9943151 -0.097308 0.0432165 0.9943156 -0.097308 0.0432165 0.9943156 -0.097308 0.0432165 0.9943156 0.469451 0.8829585 0.0 0.469451 0.8829585 0.0 0.469451 0.8829585 0.0 0.469451 0.8829585 0.0 0.469451 0.8829585 0.0 0.469451 0.8829585 0.0 -0.9139157 0.405904 0.0 -0.9139157 0.405904 0.0 -0.9139157 0.405904 0.0 -0.9139157 0.405904 0.0 -0.9139157 0.405904 0.0 -0.9139157 0.405904 0.0 -0.9139199 0.4058946 0.0 -0.9139199 0.4058946 0.0 -0.9139199 0.4058946 0.0 -0.9139199 0.4058946 0.0 -0.9139199 0.4058946 0.0 -0.9139199 0.4058946 0.0 -0.1469712 0.0652741 0.9869847 -0.1469712 0.0652741 0.9869847 -0.1469712 0.0652741 0.9869847 -0.1469714 0.0652742 0.9869846 -0.1469714 0.0652742 0.9869846 -0.1469714 0.0652742 0.9869846 -0.9139208 0.4058924 0.0 -0.9139208 0.4058924 0.0 -0.9139208 0.4058924 0.0 -0.1469074 0.0652458 0.9869961 -0.1469074 0.0652458 0.9869961 -0.1469074 0.0652458 0.9869961 -0.9139208 0.4058924 0.0 -0.9139208 0.4058924 0.0 -0.9139208 0.4058924 0.0 -0.1469096 0.0652477 0.9869956 -0.1469096 0.0652477 0.9869956 -0.1469096 0.0652477 0.9869956 0.4058833 0.9139249 0.0 0.4058833 0.9139249 0.0 0.4058833 0.9139249 0.0 0.4058833 0.9139249 0.0 0.4058833 0.9139249 0.0 0.4058833 0.9139249 0.0 -0.9134952 0.4068494 0.0 -0.9134952 0.4068494 0.0 -0.9134952 0.4068494 0.0 -0.9134952 0.4068494 0.0 -0.9134952 0.4068494 0.0 -0.9134952 0.4068494 0.0 -0.4057724 -0.9139742 0.0 -0.4057724 -0.9139742 0.0 -0.4057724 -0.9139742 0.0 -0.4057724 -0.9139742 0.0 -0.4057724 -0.9139742 0.0 -0.4057724 -0.9139742 0.0 -0.4057724 -0.9139742 0.0 -0.4057724 -0.9139742 0.0 -0.4057724 -0.9139742 0.0 -0.1483944 0.0659061 0.9867297 -0.1483944 0.0659061 0.9867297 -0.1483944 0.0659061 0.9867297 -0.1483981 0.0659062 0.9867291 -0.1483981 0.0659062 0.9867291 -0.1483981 0.0659062 0.9867291 -0.9133403 0.4071972 0.0 -0.9133403 0.4071972 0.0 -0.9133403 0.4071972 0.0 -0.1483943 0.0659065 0.9867296 -0.1483943 0.0659065 0.9867296 -0.1483943 0.0659065 0.9867296 -0.148489 0.0659312 0.9867138 -0.148489 0.0659312 0.9867138 -0.148489 0.0659312 0.9867138 -0.14839 0.0659156 0.9867298 -0.14839 0.0659156 0.9867298 -0.14839 0.0659156 0.9867298 -0.148313 0.0660648 0.9867313 -0.148313 0.0660648 0.9867313 -0.148313 0.0660648 0.9867313 -0.1483938 0.0659058 0.9867298 -0.1483938 0.0659058 0.9867298 -0.1483938 0.0659058 0.9867298 -0.14839 0.065896 0.986731 -0.14839 0.065896 0.986731 -0.14839 0.065896 0.986731 -0.1484259 0.0659206 0.986724 -0.1484259 0.0659206 0.986724 -0.1484259 0.0659206 0.986724 -0.1484812 0.0660102 0.9867097 -0.1484812 0.0660102 0.9867097 -0.1484812 0.0660102 0.9867097 -0.1482912 0.066161 0.9867281 -0.1482912 0.066161 0.9867281 -0.1482912 0.066161 0.9867281 -0.1483761 0.0658895 0.9867336 -0.1483761 0.0658895 0.9867336 -0.1483761 0.0658895 0.9867336 -0.148389 0.0659083 0.9867303 -0.148389 0.0659083 0.9867303 -0.148389 0.0659083 0.9867303 -0.1483938 0.065907 0.9867297 -0.1483938 0.065907 0.9867297 -0.1483938 0.065907 0.9867297 -0.1483943 0.0659063 0.9867297 -0.1483943 0.0659063 0.9867297 -0.1483943 0.0659063 0.9867297 -0.9133402 0.4071972 0.0 -0.9133402 0.4071972 0.0 -0.9133402 0.4071972 0.0 -0.1483951 0.0659099 0.9867294 -0.1483951 0.0659099 0.9867294 -0.1483951 0.0659099 0.9867294 -0.1484259 0.0659212 0.986724 -0.1484259 0.0659212 0.986724 -0.1484259 0.0659212 0.986724 -0.1481014 0.0665864 0.986728 -0.1481014 0.0665864 0.986728 -0.1481014 0.0665864 0.986728 -0.1483945 0.0659065 0.9867297 -0.1483945 0.0659065 0.9867297 -0.1483945 0.0659065 0.9867297 -0.1492504 0.0642591 0.9867092 -0.1492504 0.0642591 0.9867092 -0.1492504 0.0642591 0.9867092 -0.1483942 0.0659061 0.9867298 -0.1483942 0.0659061 0.9867298 -0.1483942 0.0659061 0.9867298 -0.1483185 0.065874 0.9867433 -0.1483185 0.065874 0.9867433 -0.1483185 0.065874 0.9867433 -0.1484047 0.0659115 0.9867278 -0.1484047 0.0659115 0.9867278 -0.1484047 0.0659115 0.9867278 -0.1483353 0.065879 0.9867404 -0.1483353 0.065879 0.9867404 -0.1483353 0.065879 0.9867404 -0.4058315 -0.913948 0.0 -0.4058315 -0.913948 0.0 -0.4058315 -0.913948 0.0 -0.1469374 0.065101 0.9870011 -0.1469374 0.065101 0.9870011 -0.1469374 0.065101 0.9870011 -0.4058315 -0.913948 0.0 -0.4058315 -0.913948 0.0 -0.4058315 -0.913948 0.0 -0.9143864 0.4048428 0.0 -0.9143864 0.4048428 0.0 -0.9143864 0.4048428 0.0 -0.9143863 0.4048427 0.0 -0.9143863 0.4048427 0.0 -0.9143863 0.4048427 0.0 -0.9129701 0.4080265 0.0 -0.9129701 0.4080265 0.0 -0.9129701 0.4080265 0.0 -0.9129701 0.4080265 0.0 -0.9129701 0.4080265 0.0 -0.9129701 0.4080265 0.0 -0.405958 -0.9138917 0.0 -0.405958 -0.9138917 0.0 -0.405958 -0.9138917 0.0 -0.405958 -0.9138917 0.0 -0.405958 -0.9138917 0.0 -0.405958 -0.9138917 0.0 0.4302995 0.9026862 1.45E-5 0.4302995 0.9026862 1.45E-5 0.4302995 0.9026862 1.45E-5 0.4303289 0.9026722 0.0 0.4303289 0.9026722 0.0 0.4303289 0.9026722 0.0 0.4300458 0.9028071 0.0 0.4300458 0.9028071 0.0 0.4300458 0.9028071 0.0 0.4300458 0.9028071 0.0 0.4300458 0.9028071 0.0 0.4300458 0.9028071 0.0 -0.9139083 0.4059206 0.0 -0.9139083 0.4059206 0.0 -0.9139083 0.4059206 0.0 -0.9139165 0.4059022 -4.0E-6 -0.9139165 0.4059022 -4.0E-6 -0.9139165 0.4059022 -4.0E-6 -0.9139183 0.4058981 1.11E-5 -0.9139183 0.4058981 1.11E-5 -0.9139183 0.4058981 1.11E-5 -0.9132305 0.4074433 0.0 -0.9132305 0.4074433 0.0 -0.9132305 0.4074433 0.0 0.4048598 0.9143716 0.0036535 0.4048598 0.9143716 0.0036535 0.4048598 0.9143716 0.0036535 0.4075622 0.9131774 0.0 0.4075622 0.9131774 0.0 0.4075622 0.9131774 0.0 0.407407 0.9132467 0.0 0.407407 0.9132467 0.0 0.407407 0.9132467 0.0 0.4074704 0.9132184 2.32E-5 0.4074704 0.9132184 2.32E-5 0.4074704 0.9132184 2.32E-5 0.4074742 0.9132167 -1.1E-6 0.4074742 0.9132167 -1.1E-6 0.4074742 0.9132167 -1.1E-6 0.4074772 0.9132153 0.0 0.4074772 0.9132153 0.0 0.4074772 0.9132153 0.0 0.4073828 0.9132574 4.477E-4 0.4073828 0.9132574 4.477E-4 0.4073828 0.9132574 4.477E-4 0.4074778 0.9132152 -1.64E-5 0.4074778 0.9132152 -1.64E-5 0.4074778 0.9132152 -1.64E-5 0.4074891 0.9132101 -7.54E-5 0.4074891 0.9132101 -7.54E-5 0.4074891 0.9132101 -7.54E-5 0.4058744 0.9139289 0.0 0.4058744 0.9139289 0.0 0.4058744 0.9139289 0.0 0.4058744 0.9139289 0.0 0.4058744 0.9139289 0.0 0.4058744 0.9139289 0.0 -0.1827381 0.0811572 0.9798062 -0.1827381 0.0811572 0.9798062 -0.1827381 0.0811572 0.9798062 -0.1826777 0.0811243 0.9798203 -0.1826777 0.0811243 0.9798203 -0.1826777 0.0811243 0.9798203 -0.182807 0.0811906 0.9797906 -0.182807 0.0811906 0.9797906 -0.182807 0.0811906 0.9797906 -0.1826041 0.0814109 0.9798102 -0.1826041 0.0814109 0.9798102 -0.1826041 0.0814109 0.9798102 -0.1826377 0.0813426 0.9798096 -0.1826377 0.0813426 0.9798096 -0.1826377 0.0813426 0.9798096 0.4059093 0.9139134 0.0 0.4059093 0.9139134 0.0 0.4059093 0.9139134 0.0 -0.1826571 0.081125 0.979824 -0.1826571 0.081125 0.979824 -0.1826571 0.081125 0.979824 0.4059094 0.9139134 0.0 0.4059094 0.9139134 0.0 0.4059094 0.9139134 0.0 1.0 0.0 0.0 1.0 0.0 0.0 0.9131518 -0.4076197 -7.9E-6 0.9131518 -0.4076197 -7.9E-6 0.9131518 -0.4076197 -7.9E-6 0.9131113 -0.4077107 3.0E-7 0.9131113 -0.4077107 3.0E-7 0.9131113 -0.4077107 3.0E-7 0.9131118 -0.4077092 9.0E-7 0.9131118 -0.4077092 9.0E-7 0.9131118 -0.4077092 9.0E-7 0.9131052 -0.407724 -1.6E-6 0.9131052 -0.407724 -1.6E-6 0.9131052 -0.407724 -1.6E-6 0.4059026 0.9139163 0.0 0.4059026 0.9139163 0.0 0.4059026 0.9139163 0.0 0.9132745 -0.4073447 7.45E-5 0.9132745 -0.4073447 7.45E-5 0.9132745 -0.4073447 7.45E-5 0.4059027 0.9139163 0.0 0.4059027 0.9139163 0.0 0.4059027 0.9139163 0.0 0.91311 -0.4077136 1.8E-6 0.91311 -0.4077136 1.8E-6 0.91311 -0.4077136 1.8E-6 0.9131113 -0.4077103 8.0E-7 0.9131113 -0.4077103 8.0E-7 0.9131113 -0.4077103 8.0E-7 0.9130657 -0.4078124 -2.21E-5 0.9130657 -0.4078124 -2.21E-5 0.9130657 -0.4078124 -2.21E-5 0.9131112 -0.4077106 1.2E-6 0.9131112 -0.4077106 1.2E-6 0.9131112 -0.4077106 1.2E-6 0.913108 -0.4077178 0.0 0.913108 -0.4077178 0.0 0.913108 -0.4077178 0.0 0.9131131 -0.4077064 2.0E-7 0.9131131 -0.4077064 2.0E-7 0.9131131 -0.4077064 2.0E-7 0.9131135 -0.4077057 0.0 0.9131135 -0.4077057 0.0 0.9131135 -0.4077057 0.0 0.9131219 -0.4076865 2.1E-6 0.9131219 -0.4076865 2.1E-6 0.9131219 -0.4076865 2.1E-6 0.9139227 -0.4058883 -1.26E-5 0.9139227 -0.4058883 -1.26E-5 0.9139227 -0.4058883 -1.26E-5 0.1484016 -0.0659033 0.9867288 0.1484016 -0.0659033 0.9867288 0.1484016 -0.0659033 0.9867288 0.9138607 -0.4060279 0.0 0.9138607 -0.4060279 0.0 0.9138607 -0.4060279 0.0 0.1483988 -0.0659066 0.986729 0.1483988 -0.0659066 0.986729 0.1483988 -0.0659066 0.986729 0.9139162 -0.4059031 0.0 0.9139162 -0.4059031 0.0 0.9139162 -0.4059031 0.0 0.1484284 -0.0659243 0.9867234 0.1484284 -0.0659243 0.9867234 0.1484284 -0.0659243 0.9867234 0.9139165 -0.4059023 1.4E-6 0.9139165 -0.4059023 1.4E-6 0.9139165 -0.4059023 1.4E-6 0.1483886 -0.0658835 0.9867321 0.1483886 -0.0658835 0.9867321 0.1483886 -0.0658835 0.9867321 0.1484106 -0.0659387 0.986725 0.1484106 -0.0659387 0.986725 0.1484106 -0.0659387 0.986725 0.1484237 -0.0659175 0.9867245 0.1484237 -0.0659175 0.9867245 0.1484237 -0.0659175 0.9867245 0.1484243 -0.0659206 0.9867243 0.1484243 -0.0659206 0.9867243 0.1484243 -0.0659206 0.9867243 0.1483852 -0.0659049 0.9867312 0.1483852 -0.0659049 0.9867312 0.1483852 -0.0659049 0.9867312 0.1484114 -0.0658887 0.9867283 0.1484114 -0.0658887 0.9867283 0.1484114 -0.0658887 0.9867283 0.1483873 -0.0659115 0.9867304 0.1483873 -0.0659115 0.9867304 0.1483873 -0.0659115 0.9867304 0.1484072 -0.0659078 0.9867277 0.1484072 -0.0659078 0.9867277 0.1484072 -0.0659078 0.9867277 0.1483994 -0.0659107 0.9867287 0.1483994 -0.0659107 0.9867287 0.1483994 -0.0659107 0.9867287 0.1483895 -0.0659062 0.9867304 0.1483895 -0.0659062 0.9867304 0.1483895 -0.0659062 0.9867304 0.148403 -0.0659114 0.986728 0.148403 -0.0659114 0.986728 0.148403 -0.0659114 0.986728 0.1484014 -0.0659121 0.9867283 0.1484014 -0.0659121 0.9867283 0.1484014 -0.0659121 0.9867283 0.1484135 -0.0659116 0.9867264 0.1484135 -0.0659116 0.9867264 0.1484135 -0.0659116 0.9867264 -0.4059168 -0.91391 0.0 -0.4059168 -0.91391 0.0 -0.4059168 -0.91391 0.0 0.1483667 -0.0658948 0.9867347 0.1483667 -0.0658948 0.9867347 0.1483667 -0.0658948 0.9867347 -0.4059168 -0.91391 0.0 -0.4059168 -0.91391 0.0 -0.4059168 -0.91391 0.0 0.1484035 -0.065904 0.9867285 0.1484035 -0.065904 0.9867285 0.1484035 -0.065904 0.9867285 0.1484293 -0.0659187 0.9867237 0.1484293 -0.0659187 0.9867237 0.1484293 -0.0659187 0.9867237 0.1486919 -0.0660383 0.986676 0.1486919 -0.0660383 0.986676 0.1486919 -0.0660383 0.986676 -0.407171 -0.913352 0.0 -0.407171 -0.913352 0.0 -0.407171 -0.913352 0.0 0.1484094 -0.0659139 0.9867269 0.1484094 -0.0659139 0.9867269 0.1484094 -0.0659139 0.9867269 -0.4071677 -0.9133534 0.0 -0.4071677 -0.9133534 0.0 -0.4071677 -0.9133534 0.0 0.1484073 -0.0659086 0.9867276 0.1484073 -0.0659086 0.9867276 0.1484073 -0.0659086 0.9867276 -0.4071507 -0.913361 -1.8E-6 -0.4071507 -0.913361 -1.8E-6 -0.4071507 -0.913361 -1.8E-6 0.1483667 -0.0658755 0.9867359 0.1483667 -0.0658755 0.9867359 0.1483667 -0.0658755 0.9867359 0.1484104 -0.0659339 0.9867254 0.1484104 -0.0659339 0.9867254 0.1484104 -0.0659339 0.9867254 0.1484038 -0.0659104 0.986728 0.1484038 -0.0659104 0.986728 0.1484038 -0.0659104 0.986728 0.1484064 -0.0659089 0.9867277 0.1484064 -0.0659089 0.9867277 0.1484064 -0.0659089 0.9867277 0.148357 -0.0657528 0.9867455 0.148357 -0.0657528 0.9867455 0.148357 -0.0657528 0.9867455 0.148385 -0.0659172 0.9867303 0.148385 -0.0659172 0.9867303 0.148385 -0.0659172 0.9867303 0.1483999 -0.0659189 0.986728 0.1483999 -0.0659189 0.986728 0.1483999 -0.0659189 0.986728 0.1483718 -0.0659617 0.9867294 0.1483718 -0.0659617 0.9867294 0.1483718 -0.0659617 0.9867294 0.1484963 -0.0657679 0.9867235 0.1484963 -0.0657679 0.9867235 0.1484963 -0.0657679 0.9867235 0.1484191 -0.0659257 0.9867247 0.1484191 -0.0659257 0.9867247 0.1484191 -0.0659257 0.9867247 0.1484019 -0.0658892 0.9867297 0.1484019 -0.0658892 0.9867297 0.1484019 -0.0658892 0.9867297 0.1484049 -0.0659117 0.9867277 0.1484049 -0.0659117 0.9867277 0.1484049 -0.0659117 0.9867277 -0.4095247 -0.912299 0.0 -0.4095247 -0.912299 0.0 -0.4095247 -0.912299 0.0 -0.4095266 -0.9122981 9.61E-5 -0.4095266 -0.9122981 9.61E-5 -0.4095266 -0.9122981 9.61E-5 -0.4058744 -0.9139289 0.0 -0.4058744 -0.9139289 0.0 -0.4058744 -0.9139289 0.0 -0.4095215 -0.9123005 0.0 -0.4095215 -0.9123005 0.0 -0.4095215 -0.9123005 0.0 -0.4058744 -0.9139289 0.0 -0.4058744 -0.9139289 0.0 -0.4058744 -0.9139289 0.0 -0.4095785 -0.9122748 -9.6E-6 -0.4095785 -0.9122748 -9.6E-6 -0.4095785 -0.9122748 -9.6E-6 -0.40948 -0.9123191 -3.231E-4 -0.40948 -0.9123191 -3.231E-4 -0.40948 -0.9123191 -3.231E-4 -0.4094165 -0.9123476 1.68E-5 -0.4094165 -0.9123476 1.68E-5 -0.4094165 -0.9123476 1.68E-5 -0.4058932 -0.9139205 0.0 -0.4058932 -0.9139205 0.0 -0.4058932 -0.9139205 0.0 -0.4058932 -0.9139205 0.0 -0.4058932 -0.9139205 0.0 -0.4058932 -0.9139205 0.0 0.896715 -0.4426084 0.0 0.896715 -0.4426084 0.0 0.896715 -0.4426084 0.0 0.896715 -0.4426084 0.0 0.896715 -0.4426084 0.0 0.896715 -0.4426084 0.0 0.405888 0.9139228 0.0 0.405888 0.9139228 0.0 0.405888 0.9139228 0.0 0.405888 0.9139229 0.0 0.405888 0.9139229 0.0 0.405888 0.9139229 0.0 0.405927 0.9139056 0.0 0.405927 0.9139056 0.0 0.405927 0.9139056 0.0 0.4059269 0.9139056 0.0 0.4059269 0.9139056 0.0 0.4059269 0.9139056 0.0 -0.4071612 -0.9133563 0.0 -0.4071612 -0.9133563 0.0 -0.4071612 -0.9133563 0.0 -0.4071612 -0.9133563 0.0 -0.4071612 -0.9133563 0.0 -0.4071612 -0.9133563 0.0 0.4059006 0.9139172 0.0 0.4059006 0.9139172 0.0 0.4059006 0.9139172 0.0 0.4059006 0.9139172 0.0 0.4059006 0.9139172 0.0 0.4059006 0.9139172 0.0 -0.4072558 -0.9133142 0.0 -0.4072558 -0.9133142 0.0 -0.4072558 -0.9133142 0.0 -0.4072558 -0.9133142 0.0 -0.4072558 -0.9133142 0.0 -0.4072558 -0.9133142 0.0 0.9139761 -0.405768 0.0 0.9139761 -0.405768 0.0 0.9139761 -0.405768 0.0 0.9139124 -0.4059115 -1.58E-5 0.9139124 -0.4059115 -1.58E-5 0.9139124 -0.4059115 -1.58E-5 0.9139165 -0.4059021 -5.1E-6 0.9139165 -0.4059021 -5.1E-6 0.9139165 -0.4059021 -5.1E-6 0.9139154 -0.4059047 0.0 0.9139154 -0.4059047 0.0 0.9139154 -0.4059047 0.0 -0.4693145 -0.883031 3.5E-6 -0.4693145 -0.883031 3.5E-6 -0.4693145 -0.883031 3.5E-6 -0.4692933 -0.8830423 -6.0E-7 -0.4692933 -0.8830423 -6.0E-7 -0.4692933 -0.8830423 -6.0E-7 -0.4692839 -0.8830475 0.0 -0.4692839 -0.8830475 0.0 -0.4692839 -0.8830475 0.0 -0.4685916 -0.8834111 -0.0025804 -0.4685916 -0.8834111 -0.0025804 -0.4685916 -0.8834111 -0.0025804 -0.9139199 0.4058946 0.0 -0.9139199 0.4058946 0.0 -0.9139199 0.4058946 0.0 -0.4691593 -0.8831133 -6.189E-4 -0.4691593 -0.8831133 -6.189E-4 -0.4691593 -0.8831133 -6.189E-4</float_array>
                    <technique_common>
                        <accessor count="775" source="#geometry0-normal-array" stride="3">
                            <param name="X" type="float"/>
                            <param name="Y" type="float"/>
                            <param name="Z" type="float"/>
                        </accessor>
                    </technique_common>
                </source>
                <source id="geometry0-texCoords">
                    <float_array id="geometry0-texCoords-array" count="0"></float_array>
                    <technique_common>
                        <accessor count="0" source="#geometry0-texCoords-array" stride="2">
                            <param name="S" type="float"/>
                            <param name="T" type="float"/>
                        </accessor>
                    </technique_common>
                </source>
                <vertices id="geometry0-vertex">
                    <input semantic="POSITION" source="#geometry0-position"/>
                </vertices>
                <triangles count="106" material="default_dc_r_0.6_g_0.6_b_0_tri">
                    <input offset="0" semantic="VERTEX" source="#geometry0-vertex"/>
                    <input offset="1" semantic="NORMAL" source="#geometry0-normal"/>
                    <p>0 24 1 25 2 26 0 30 2 31 3 32 4 33 1 34 0 35 5 90 6 91 7 92 8 93 5 94 7 95 9 96 10 97 11 98 11 99 12 100 9 101 10 102 13 103 14 104 10 105 14 106 11 107 12 108 11 109 15 110 16 129 17 130 18 131 19 132 20 133 21 134 16 135 22 136 17 137 17 138 21 139 18 140 16 141 18 142 23 143 24 144 19 145 21 146 21 147 20 148 18 149 25 150 22 151 16 152 24 153 26 154 19 155 27 156 20 157 19 158 28 188 29 189 30 190 31 191 32 192 33 193 31 194 28 195 30 196 29 200 34 201 30 202 30 206 32 207 31 208 32 212 35 213 33 214 36 215 37 216 38 217 36 218 38 219 39 220 40 227 41 228 42 229 40 230 42 231 43 232 44 242 45 243 46 244 44 245 46 246 47 247 48 248 49 249 50 250 48 251 50 252 51 253 45 254 49 255 48 256 46 257 45 258 48 259 52 278 53 279 54 280 52 281 54 282 55 283 36 287 53 288 52 289 37 293 36 294 52 295 56 317 57 318 58 319 58 320 57 321 59 322 60 326 61 327 62 328 59 329 57 330 8 331 60 332 63 333 64 334 65 335 57 336 56 337 65 338 66 339 57 340 61 341 57 342 66 343 62 344 61 345 67 346 68 347 56 348 58 349 60 350 69 351 63 352 70 353 56 354 68 355 60 356 62 357 71 358 72 359 62 360 67 361 60 362 71 363 69 364 70 368 73 369 56 370 73 371 74 372 56 373 75 374 58 375 59 376 60 377 57 378 61 379 59 380 8 381 76 382 63 383 77 384 78 385 57 386 5 387 8 388 63 389 78 390 64 391 79 392 80 393 60 394 60 398 64 399 79 400 81 479 82 480 83 481 81 482 84 483 82 484 82 485 84 486 85 487 83 488 82 489 86 490 87 491 83 492 86 493 81 497 83 498 88 499 87 503 83 504 83 504 89 553 90 554 91 555 92 559 93 560 94 561 95 565 96 566 97 567 98 571 93 572 99 573 99 574 100 575 101 576 100 577 102 578 97 579 102 580 95 581 97 582 95 583 103 584 96 585 104 586 105 587 106 588 104 589 90 590 89 591 77 592 93 593 92 594 103 595 72 596 107 597 96 598 103 599 107 600 108 601 96 602 109 603 108 604 109 605 106 606 90 607 74 608 110 609 110 613 74 614 73 615 90 619 110 620 91 621 92 622 111 623 77 624 111 625 78 626 77 627 107 631 72 632 67 633 91 637 112 638 113 639 114 643 113 644 112 645 115 646 91 647 113 648 89 649 91 650 115 651 104 652 89 653 105 654 98 655 94 656 93 657 116 658 92 659 94 660 105 661 108 662 106 663 100 664 97 665 117 666 100 667 117 668 101 669 98 670 99 671 101 672 116 673 118 674 92 675 97 676 96 677 108 678</p>
                </triangles>
                <triangles count="143" material="default_dc_r_1.0_g_1.0_b_1_tri">
                    <input offset="0" semantic="VERTEX" source="#geometry0-vertex"/>
                    <input offset="1" semantic="NORMAL" source="#geometry0-normal"/>
                    <p>122 0 121 1 123 2 202 3 249 4 246 5 123 6 121 7 124 8 201 9 200 10 248 11 121 12 120 13 124 14 200 15 203 16 202 17 119 18 125 19 120 20 179 21 180 22 175 23 180 27 176 28 175 29 205 36 246 37 249 38 205 39 249 40 206 41 181 42 182 43 179 44 182 45 180 46 179 47 126 48 127 49 128 50 126 51 128 52 129 53 183 66 184 67 182 68 183 72 182 73 181 74 185 111 186 112 183 113 186 114 184 115 183 116 169 117 185 118 183 119 168 120 185 121 169 122 130 123 126 124 129 125 130 126 129 127 131 128 146 159 145 160 128 161 146 162 128 163 127 164 187 165 146 166 127 167 188 168 187 169 127 170 131 171 132 172 133 173 131 174 133 175 134 176 130 177 131 178 134 179 189 180 189 180 190 181 188 182 189 183 190 184 127 185 189 186 188 187 119 197 135 198 132 199 131 203 119 204 132 205 125 209 119 210 131 211 136 221 137 222 135 223 136 224 135 225 119 226 133 233 191 234 192 235 134 236 133 237 192 238 193 239 134 240 192 241 191 260 194 261 192 262 194 263 195 264 192 265 196 266 141 267 140 268 196 269 140 270 197 271 138 272 137 273 136 274 138 275 136 276 139 277 198 284 146 285 187 286 198 290 187 291 199 292 122 296 138 297 139 298 122 299 139 300 121 301 189 302 200 303 201 304 189 305 201 306 190 307 124 308 140 309 141 310 124 311 141 312 123 313 142 314 140 315 124 316 192 323 202 324 203 325 192 365 203 366 193 367 142 395 124 396 143 397 142 401 143 402 144 403 204 404 205 405 206 406 204 407 206 408 195 409 207 410 208 411 204 412 207 413 204 414 194 415 144 416 143 417 145 418 144 419 145 420 146 421 196 422 209 423 208 424 196 425 208 426 207 427 210 428 209 429 196 430 197 431 210 432 196 433 147 434 148 435 149 436 150 437 147 438 149 439 151 440 147 441 150 442 152 443 151 444 150 445 211 446 212 447 198 448 199 449 211 450 198 451 198 452 209 453 210 454 212 455 213 456 198 457 198 458 214 459 209 460 215 461 214 462 198 463 213 464 216 465 198 466 217 467 215 468 198 469 216 470 217 471 198 472 153 473 152 474 150 475 153 476 150 477 154 478 155 494 153 495 156 496 153 500 154 501 156 502 218 505 219 506 220 507 219 508 221 509 220 510 222 511 218 512 220 513 214 514 223 515 224 516 157 517 155 518 158 519 214 520 224 521 225 522 155 523 156 524 158 525 226 526 222 527 220 528 214 529 227 530 220 531 214 532 225 533 227 534 227 535 226 536 220 537 215 538 228 539 214 540 214 541 228 542 229 543 221 544 230 545 220 546 214 547 229 548 223 549 159 550 158 551 160 552 159 556 157 557 158 558 161 562 162 563 160 564 160 568 158 569 161 570 163 610 164 611 161 612 164 616 162 617 161 618 231 628 232 629 233 630 230 634 233 635 220 636 230 640 231 641 233 642 232 679 234 680 233 681 235 682 234 683 232 684 149 685 148 686 165 687 236 688 237 689 233 690 149 691 165 692 166 693 238 694 236 695 233 696 239 697 234 698 235 699 234 700 238 701 233 702 166 703 165 704 163 705 165 706 164 707 163 708 240 709 241 710 237 711 240 712 237 713 236 714 167 715 168 716 169 717 167 718 169 719 170 720 171 721 167 722 172 723 167 724 170 725 172 726 242 727 243 728 241 729 242 730 241 731 240 732 173 733 171 734 174 735 171 736 172 737 174 738 244 739 245 740 243 741 244 742 243 743 242 744 175 745 176 746 177 747 178 748 175 749 177 750 174 751 175 752 178 753 173 754 174 755 178 756 244 757 200 758 202 759 202 760 246 761 245 762 244 763 202 764 245 765 247 766 200 767 244 768 119 769 120 770 121 771 248 772 200 773 247 774</p>
                </triangles>
                <triangles count="10" material="default_dc_r_0.9_g_0.7_b_0_tri">
                    <input offset="0" semantic="VERTEX" source="#geometry0-vertex"/>
                    <input offset="1" semantic="NORMAL" source="#geometry0-normal"/>
                    <p>250 54 251 55 252 56 253 57 254 58 251 59 250 60 253 61 251 62 250 63 252 64 255 65 253 69 256 70 257 71 253 75 257 76 254 77 250 78 258 79 253 80 254 81 259 82 251 83 256 84 260 85 257 86 252 87 261 88 255 89</p>
                </triangles>
            </mesh>
        </geometry>
    </library_geometries>
    <library_visual_scenes>
        <visual_scene id="Building_FME_13e2e6bc-3a8b-4697-99e2-6984cad6555f">
            <node>
                <instance_geometry url="#geometry0">
                    <bind_material>
                        <technique_common>
                            <instance_material symbol="default_dc_r_0.6_g_0.6_b_0_tri" target="#default_dc_r_0.6_g_0.6_b_0_mat"/>
                            <instance_material symbol="default_dc_r_1.0_g_1.0_b_1_tri" target="#default_dc_r_1.0_g_1.0_b_1_mat"/>
                            <instance_material symbol="default_dc_r_0.9_g_0.7_b_0_tri" target="#default_dc_r_0.9_g_0.7_b_0_mat"/>
                        </technique_common>
                    </bind_material>
                </instance_geometry>
            </node>
        </visual_scene>
    </library_visual_scenes>
    <scene>
        <instance_visual_scene url="#Building_FME_13e2e6bc-3a8b-4697-99e2-6984cad6555f"/>
    </scene>
</COLLADA>
