<?xml version="1.0" encoding="UTF-8" standalone="yes"?>
<COLLADA xmlns="http://www.collada.org/2005/11/COLLADASchema" version="1.4.1">
    <asset>
        <contributor>
            <authoring_tool>3D City Database Importer/Exporter, version 5.5.1; Chair of Geoinformatics, Technical University of Munich</authoring_tool>
        </contributor>
        <created>2026-01-16T16:51:34.561</created>
        <modified>2026-01-16T16:51:34.561</modified>
        <unit meter="1.0" name="meters"/>
        <up_axis>Z_UP</up_axis>
    </asset>
    <library_materials>
        <material id="default_ai_0.2_sh_0.2_tr_0.0_dc_r_0.8_g_0.8_b_0.8_sc_r_1.0_g_1.0_b_1.0_ec_r_0.0_g_0.0_b_0_mat">
            <instance_effect url="#default_ai_0.2_sh_0.2_tr_0.0_dc_r_0.8_g_0.8_b_0.8_sc_r_1.0_g_1.0_b_1.0_ec_r_0.0_g_0.0_b_0_eff"/>
        </material>
        <material id="default_ai_0.2_sh_0.2_tr_0.0_dc_r_1.0_g_0.2_b_0.2_sc_r_1.0_g_1.0_b_1.0_ec_r_0.0_g_0.0_b_0_mat">
            <instance_effect url="#default_ai_0.2_sh_0.2_tr_0.0_dc_r_1.0_g_0.2_b_0.2_sc_r_1.0_g_1.0_b_1.0_ec_r_0.0_g_0.0_b_0_eff"/>
        </material>
    </library_materials>
    <library_effects>
        <effect id="default_ai_0.2_sh_0.2_tr_0.0_dc_r_0.8_g_0.8_b_0.8_sc_r_1.0_g_1.0_b_1.0_ec_r_0.0_g_0.0_b_0_eff">
            <profile_COMMON>
                <technique sid="COMMON">
                    <lambert>
                        <emission>
                            <color>0.0 0.0 0.0 1.0</color>
                        </emission>
                        <diffuse>
                            <color>0.8 0.8 0.8 1.0</color>
                        </diffuse>
                        <reflective>
                            <color>1.0 1.0 1.0 1.0</color>
                        </reflective>
                        <reflectivity>
                            <float>0.2</float>
                        </reflectivity>
                        <transparent opaque="A_ONE">
                            <color>1.0 1.0 1.0 1.0</color>
                        </transparent>
                        <transparency>
                            <float>1.0</float>
                        </transparency>
                    </lambert>
                </technique>
                <extra>
                    <technique profile="GOOGLEEARTH">
                        <double_sided>1</double_sided>
                    </technique>
                </extra>
            </profile_COMMON>
        </effect>
        <effect id="default_ai_0.2_sh_0.2_tr_0.0_dc_r_1.0_g_0.2_b_0.2_sc_r_1.0_g_1.0_b_1.0_ec_r_0.0_g_0.0_b_0_eff">
            <profile_COMMON>
                <technique sid="COMMON">
                    <lambert>
                        <emission>
                            <color>0.0 0.0 0.0 1.0</color>
                        </emission>
                        <diffuse>
                            <color>1.0 0.2 0.2 1.0</color>
                        </diffuse>
                        <reflective>
                            <color>1.0 1.0 1.0 1.0</color>
                        </reflective>
                        <reflectivity>
                            <float>0.2</float>
                        </reflectivity>
                        <transparent opaque="A_ONE">
                            <color>1.0 1.0 1.0 1.0</color>
                        </transparent>
                        <transparency>
                            <float>1.0</float>
                        </transparency>
                    </lambert>
                </technique>
                <extra>
                    <technique profile="GOOGLEEARTH">
                        <double_sided>1</double_sided>
                    </technique>
                </extra>
            </profile_COMMON>
        </effect>
    </library_effects>
    <library_geometries>
        <geometry id="geometry0">
            <mesh>
                <source id="geometry0-position">
                    <float_array id="geometry0-position-array" count="60">-43.4832464 16.0260773 20.6979483 -5.0285116 -9.7834282 17.1979502 -2.5710989 -5.0023079 20.6979483 -45.9406896 11.2449722 17.1979502 -40.9121786 21.0283356 17.1979502 -8.2E-6 -9.16E-5 17.1979502 -40.9121755 21.0283307 17.1979502 -45.9407094 11.2449827 17.1979521 -43.4832776 16.0260839 20.6979502 -40.9121755 21.0283307 3.99E-5 -45.9407094 11.2449827 3.99E-5 -5.028518 -9.7834092 4.42E-5 -2.5710967 -5.0023013 20.697954 -5.028518 -9.7834092 17.197954 1.6E-6 -6.01E-5 4.42E-5 1.6E-6 -6.01E-5 17.197954 -5.0285034 -9.7833748 6.0E-7 -40.912178 21.0283585 4.6E-6 0.0 0.0 0.0 -45.9406815 11.2450485 5.1E-6</float_array>
                    <technique_common>
                        <accessor count="20" source="#geometry0-position-array" stride="3">
                            <param name="X" type="float"/>
                            <param name="Y" type="float"/>
                            <param name="Z" type="float"/>
                        </accessor>
                    </technique_common>
                </source>
                <source id="geometry0-normal">
                    <float_array id="geometry0-normal-array" count="144">0.8893963 -0.457137 0.0 0.8893963 -0.457137 0.0 0.8893963 -0.457137 0.0 0.8893957 -0.4571383 4.0E-7 0.8893957 -0.4571383 4.0E-7 0.8893957 -0.4571383 4.0E-7 0.889395 -0.4571395 0.0 0.889395 -0.4571395 0.0 0.889395 -0.4571395 0.0 -1.0E-7 -0.0 -1.0 -1.0E-7 -0.0 -1.0 -1.0E-7 -0.0 -1.0 -1.0E-7 -0.0 -1.0 -1.0E-7 -0.0 -1.0 -1.0E-7 -0.0 -1.0 -0.4571389 -0.8893953 0.0 -0.4571389 -0.8893953 0.0 -0.4571389 -0.8893953 0.0 -0.4571389 -0.8893953 0.0 -0.4571389 -0.8893953 0.0 -0.4571389 -0.8893953 0.0 0.2415284 0.46991 0.8490282 0.2415284 0.46991 0.8490282 0.2415284 0.46991 0.8490282 0.2415296 0.4699115 0.8490269 0.2415296 0.4699115 0.8490269 0.2415296 0.4699115 0.8490269 0.457139 0.8893953 0.0 0.457139 0.8893953 0.0 0.457139 0.8893953 0.0 0.457139 0.8893952 0.0 0.457139 0.8893952 0.0 0.457139 0.8893952 0.0 -0.2494262 -0.4852754 0.83803 -0.2494262 -0.4852754 0.83803 -0.2494262 -0.4852754 0.83803 -0.2494261 -0.4852754 0.83803 -0.2494261 -0.4852754 0.83803 -0.2494261 -0.4852754 0.83803 -0.8893951 0.4571394 -4.0E-7 -0.8893951 0.4571394 -4.0E-7 -0.8893951 0.4571394 -4.0E-7 -0.8893951 0.4571394 0.0 -0.8893951 0.4571394 0.0 -0.8893951 0.4571394 0.0 -0.8893951 0.4571394 0.0 -0.8893951 0.4571394 0.0 -0.8893951 0.4571394 0.0</float_array>
                    <technique_common>
                        <accessor count="48" source="#geometry0-normal-array" stride="3">
                            <param name="X" type="float"/>
                            <param name="Y" type="float"/>
                            <param name="Z" type="float"/>
                        </accessor>
                    </technique_common>
                </source>
                <source id="geometry0-texCoords">
                    <float_array id="geometry0-texCoords-array" count="0"></float_array>
                    <technique_common>
                        <accessor count="0" source="#geometry0-texCoords-array" stride="2">
                            <param name="S" type="float"/>
                            <param name="T" type="float"/>
                        </accessor>
                    </technique_common>
                </source>
                <vertices id="geometry0-vertex">
                    <input semantic="POSITION" source="#geometry0-position"/>
                </vertices>
                <triangles count="12" material="default_ai_0.2_sh_0.2_tr_0.0_dc_r_0.8_g_0.8_b_0.8_sc_r_1.0_g_1.0_b_1.0_ec_r_0.0_g_0.0_b_0_tri">
                    <input offset="0" semantic="VERTEX" source="#geometry0-vertex"/>
                    <input offset="1" semantic="NORMAL" source="#geometry0-normal"/>
                    <p>11 0 12 1 13 2 14 3 12 4 11 5 15 6 12 7 14 8 16 9 17 10 18 11 19 12 17 13 16 14 10 15 13 16 7 17 11 18 13 19 10 20 6 27 14 28 9 29 15 30 14 31 6 32 6 39 7 40 8 41 9 42 7 43 6 44 10 45 7 46 9 47</p>
                </triangles>
                <triangles count="4" material="default_ai_0.2_sh_0.2_tr_0.0_dc_r_1.0_g_0.2_b_0.2_sc_r_1.0_g_1.0_b_1.0_ec_r_0.0_g_0.0_b_0_tri">
                    <input offset="0" semantic="VERTEX" source="#geometry0-vertex"/>
                    <input offset="1" semantic="NORMAL" source="#geometry0-normal"/>
                    <p>2 21 4 22 0 23 5 24 4 25 2 26 0 33 1 34 2 35 3 36 1 37 0 38</p>
                </triangles>
            </mesh>
        </geometry>
    </library_geometries>
    <library_visual_scenes>
        <visual_scene id="Building_pb-96359a00-7f36-11f0-93ce-9c7bef4dcf4c">
            <node>
                <instance_geometry url="#geometry0">
                    <bind_material>
                        <technique_common>
                            <instance_material symbol="default_ai_0.2_sh_0.2_tr_0.0_dc_r_0.8_g_0.8_b_0.8_sc_r_1.0_g_1.0_b_1.0_ec_r_0.0_g_0.0_b_0_tri" target="#default_ai_0.2_sh_0.2_tr_0.0_dc_r_0.8_g_0.8_b_0.8_sc_r_1.0_g_1.0_b_1.0_ec_r_0.0_g_0.0_b_0_mat"/>
                            <instance_material symbol="default_ai_0.2_sh_0.2_tr_0.0_dc_r_1.0_g_0.2_b_0.2_sc_r_1.0_g_1.0_b_1.0_ec_r_0.0_g_0.0_b_0_tri" target="#default_ai_0.2_sh_0.2_tr_0.0_dc_r_1.0_g_0.2_b_0.2_sc_r_1.0_g_1.0_b_1.0_ec_r_0.0_g_0.0_b_0_mat"/>
                        </technique_common>
                    </bind_material>
                </instance_geometry>
            </node>
        </visual_scene>
    </library_visual_scenes>
    <scene>
        <instance_visual_scene url="#Building_pb-96359a00-7f36-11f0-93ce-9c7bef4dcf4c"/>
    </scene>
</COLLADA>
