<?xml version="1.0" encoding="UTF-8" standalone="yes"?>
<COLLADA xmlns="http://www.collada.org/2005/11/COLLADASchema" version="1.4.1">
    <asset>
        <contributor>
            <authoring_tool>3D City Database Importer/Exporter, version 5.5.1; Chair of Geoinformatics, Technical University of Munich</authoring_tool>
        </contributor>
        <created>2026-01-16T16:51:34.467</created>
        <modified>2026-01-16T16:51:34.467</modified>
        <unit meter="1.0" name="meters"/>
        <up_axis>Z_UP</up_axis>
    </asset>
    <library_materials>
        <material id="default_ai_0.2_sh_0.2_tr_0.0_dc_r_0.8_g_0.8_b_0.8_sc_r_1.0_g_1.0_b_1.0_ec_r_0.0_g_0.0_b_0_mat">
            <instance_effect url="#default_ai_0.2_sh_0.2_tr_0.0_dc_r_0.8_g_0.8_b_0.8_sc_r_1.0_g_1.0_b_1.0_ec_r_0.0_g_0.0_b_0_eff"/>
        </material>
        <material id="default_ai_0.2_sh_0.2_tr_0.0_dc_r_1.0_g_0.2_b_0.2_sc_r_1.0_g_1.0_b_1.0_ec_r_0.0_g_0.0_b_0_mat">
            <instance_effect url="#default_ai_0.2_sh_0.2_tr_0.0_dc_r_1.0_g_0.2_b_0.2_sc_r_1.0_g_1.0_b_1.0_ec_r_0.0_g_0.0_b_0_eff"/>
        </material>
    </library_materials>
    <library_effects>
        <effect id="default_ai_0.2_sh_0.2_tr_0.0_dc_r_0.8_g_0.8_b_0.8_sc_r_1.0_g_1.0_b_1.0_ec_r_0.0_g_0.0_b_0_eff">
            <profile_COMMON>
                <technique sid="COMMON">
                    <lambert>
                        <emission>
                            <color>0.0 0.0 0.0 1.0</color>
                        </emission>
                        <diffuse>
                            <color>0.8 0.8 0.8 1.0</color>
                        </diffuse>
                        <reflective>
                            <color>1.0 1.0 1.0 1.0</color>
                        </reflective>
                        <reflectivity>
                            <float>0.2</float>
                        </reflectivity>
                        <transparent opaque="A_ONE">
                            <color>1.0 1.0 1.0 1.0</color>
                        </transparent>
                        <transparency>
                            <float>1.0</float>
                        </transparency>
                    </lambert>
                </technique>
                <extra>
                    <technique profile="GOOGLEEARTH">
                        <double_sided>1</double_sided>
                    </technique>
                </extra>
            </profile_COMMON>
        </effect>
        <effect id="default_ai_0.2_sh_0.2_tr_0.0_dc_r_1.0_g_0.2_b_0.2_sc_r_1.0_g_1.0_b_1.0_ec_r_0.0_g_0.0_b_0_eff">
            <profile_COMMON>
                <technique sid="COMMON">
                    <lambert>
                        <emission>
                            <color>0.0 0.0 0.0 1.0</color>
                        </emission>
                        <diffuse>
                            <color>1.0 0.2 0.2 1.0</color>
                        </diffuse>
                        <reflective>
                            <color>1.0 1.0 1.0 1.0</color>
                        </reflective>
                        <reflectivity>
                            <float>0.2</float>
                        </reflectivity>
                        <transparent opaque="A_ONE">
                            <color>1.0 1.0 1.0 1.0</color>
                        </transparent>
                        <transparency>
                            <float>1.0</float>
                        </transparency>
                    </lambert>
                </technique>
                <extra>
                    <technique profile="GOOGLEEARTH">
                        <double_sided>1</double_sided>
                    </technique>
                </extra>
            </profile_COMMON>
        </effect>
    </library_effects>
    <library_geometries>
        <geometry id="geometry0">
            <mesh>
                <source id="geometry0-position">
                    <float_array id="geometry0-position-array" count="156">-4.4980932 11.5610657 22.2061234 -12.7916494 2.7609253 20.300047 -8.0361028 1.1455688 22.2061272 -9.2536779 13.1764221 20.300047 -6.7173772 20.6429749 20.3000431 1.5753168 29.4434204 22.2064095 -3.1794134 31.0584717 20.3000431 -1.9626775 19.0279236 22.2064095 -9.2536779 13.1764221 22.2464161 -4.0806432 19.7472839 22.9196606 -6.7173772 20.6429749 22.2464142 -6.6169286 12.2807312 22.9196663 -1.8936773 0.64328 20.3000393 -2.3761907 -0.7770996 20.3000412 6.7536158 26.1002197 20.3000451 7.2360834 27.5204468 20.300026 1.47E-5 -9.16E-5 20.3000431 8.6473688 25.4568481 20.3000412 -6.6169312 12.2807566 22.9196728 -9.2537015 13.1764285 20.3000534 -4.4981473 11.561031 22.2061317 -9.2536977 13.1764285 22.2464226 -6.7174142 20.6429793 20.3000515 -4.0806592 19.7473113 22.9196671 -1.9627288 19.0278765 22.2064159 -6.7174104 20.6429774 22.2464226 7.236078 27.5204875 20.3000324 -3.1794274 31.0584876 20.3000496 1.5752427 29.4433905 22.2064178 7.2360799 27.5204875 5.27E-5 -3.1794255 31.0584876 5.38E-5 -12.7916978 2.7609383 20.3000534 -12.7916959 2.7609374 5.22E-5 -1.46E-5 -5.04E-5 5.04E-5 8.6473558 25.4569174 20.3000496 -1.74E-5 -4.99E-5 20.3000496 8.6473577 25.4569174 5.14E-5 -2.3761914 -0.7770627 20.3000496 -2.3761895 -0.7770632 5.34E-5 -8.0361283 1.1455356 22.2061337 -1.8937505 0.643223 5.33E-5 -1.8937381 0.6432196 20.3000477 6.7535612 26.1002089 20.3000515 6.7536223 26.1001898 5.24E-5 7.236084 27.5205688 2.2E-6 -12.791687 2.7609863 2.4E-6 -3.1793671 31.0585327 3.4E-6 6.7536316 26.1002502 1.3E-6 8.6473541 25.4570007 0.0 -1.8937225 0.6432495 3.2E-6 -2.3762054 -0.7770081 3.3E-6 0.0 0.0 0.0</float_array>
                    <technique_common>
                        <accessor count="52" source="#geometry0-position-array" stride="3">
                            <param name="X" type="float"/>
                            <param name="Y" type="float"/>
                            <param name="Z" type="float"/>
                        </accessor>
                    </technique_common>
                </source>
                <source id="geometry0-normal">
                    <float_array id="geometry0-normal-array" count="432">-0.3216374 -0.9468629 2.0E-6 -0.3216374 -0.9468629 2.0E-6 -0.3216374 -0.9468629 2.0E-6 -0.3216361 -0.9468633 6.0E-7 -0.3216361 -0.9468633 6.0E-7 -0.3216361 -0.9468633 6.0E-7 0.9468634 -0.3216361 1.0E-7 0.9468634 -0.3216361 1.0E-7 0.9468634 -0.3216361 1.0E-7 0.3216361 0.9468634 1.4E-6 0.3216361 0.9468634 1.4E-6 0.3216361 0.9468634 1.4E-6 0.9468634 -0.3216361 1.0E-7 0.9468634 -0.3216361 1.0E-7 0.9468634 -0.3216361 1.0E-7 0.3216361 0.9468634 0.0 0.3216361 0.9468634 0.0 0.3216361 0.9468634 0.0 0.3216361 0.9468634 0.0 0.3216361 0.9468634 0.0 0.3216361 0.9468634 0.0 0.9468658 -0.3216288 1.0E-7 0.9468658 -0.3216288 1.0E-7 0.9468658 -0.3216288 1.0E-7 0.9468626 -0.3216381 -6.0E-7 0.9468626 -0.3216381 -6.0E-7 0.9468626 -0.3216381 -6.0E-7 -0.3360628 0.1141548 0.934896 -0.3360628 0.1141548 0.934896 -0.3360628 0.1141548 0.934896 -0.3360643 0.1141562 0.9348953 -0.3360643 0.1141562 0.9348953 -0.3360643 0.1141562 0.9348953 -0.3216361 -0.9468634 -0.0 -0.3216361 -0.9468634 -0.0 -0.3216361 -0.9468634 -0.0 0.3216343 0.9468639 0.0 0.3216343 0.9468639 0.0 0.3216343 0.9468639 0.0 0.3216372 0.946863 -1.3E-6 0.3216372 0.946863 -1.3E-6 0.3216372 0.946863 -1.3E-6 -0.3216358 -0.9468635 -2.0E-7 -0.3216358 -0.9468635 -2.0E-7 -0.3216358 -0.9468635 -2.0E-7 0.3216348 0.9468638 1.0E-7 0.3216348 0.9468638 1.0E-7 0.3216348 0.9468638 1.0E-7 0.3216357 0.9468635 3.0E-7 0.3216357 0.9468635 3.0E-7 0.3216357 0.9468635 3.0E-7 -0.3216366 -0.9468632 0.0 -0.3216366 -0.9468632 0.0 -0.3216366 -0.9468632 0.0 -0.2225077 0.0755835 0.9719966 -0.2225077 0.0755835 0.9719966 -0.2225077 0.0755835 0.9719966 -0.2225078 0.0755836 0.9719967 -0.2225078 0.0755836 0.9719967 -0.2225078 0.0755836 0.9719967 -0.9468631 0.3216368 1.9E-6 -0.9468631 0.3216368 1.9E-6 -0.9468631 0.3216368 1.9E-6 -0.9468631 0.3216367 2.1E-6 -0.9468631 0.3216367 2.1E-6 -0.9468631 0.3216367 2.1E-6 -0.4085292 0.1387717 -0.9021343 -0.4085292 0.1387717 -0.9021343 -0.4085292 0.1387717 -0.9021343 -0.0466092 0.0158326 0.9987877 -0.0466092 0.0158326 0.9987877 -0.0466092 0.0158326 0.9987877 -0.9468634 0.3216359 -1.0E-7 -0.9468634 0.3216359 -1.0E-7 -0.9468634 0.3216359 -1.0E-7 -0.9468634 0.3216359 -1.0E-7 -0.9468634 0.3216359 -1.0E-7 -0.9468634 0.3216359 -1.0E-7 0.9468628 -0.3216376 1.0E-7 0.9468628 -0.3216376 1.0E-7 0.9468628 -0.3216376 1.0E-7 0.9468495 -0.3216769 3.1E-6 0.9468495 -0.3216769 3.1E-6 0.9468495 -0.3216769 3.1E-6 -0.3359673 0.1141241 0.934934 -0.3359673 0.1141241 0.934934 -0.3359673 0.1141241 0.934934 -0.3216358 -0.9468635 0.0 -0.3216358 -0.9468635 0.0 -0.3216358 -0.9468635 0.0 -0.3216352 -0.9468637 -0.0 -0.3216352 -0.9468637 -0.0 -0.3216352 -0.9468637 -0.0 -0.3359651 0.1141218 0.9349352 -0.3359651 0.1141218 0.9349352 -0.3359651 0.1141218 0.9349352 0.2876577 -0.0977126 0.9527357 0.2876577 -0.0977126 0.9527357 0.2876577 -0.0977126 0.9527357 -1.9E-6 4.0E-7 1.0 -1.9E-6 4.0E-7 1.0 -1.9E-6 4.0E-7 1.0 1.8E-6 -5.0E-7 1.0 1.8E-6 -5.0E-7 1.0 1.8E-6 -5.0E-7 1.0 0.287657 -0.0977121 0.952736 0.287657 -0.0977121 0.952736 0.287657 -0.0977121 0.952736 -1.0E-7 1.0E-7 -1.0 -1.0E-7 1.0E-7 -1.0 -1.0E-7 1.0E-7 -1.0 0.2876593 -0.0977129 0.9527351 0.2876593 -0.0977129 0.9527351 0.2876593 -0.0977129 0.9527351 -1.4E-6 1.2E-6 -1.0 -1.4E-6 1.2E-6 -1.0 -1.4E-6 1.2E-6 -1.0 0.2876579 -0.0977133 0.9527355 0.2876579 -0.0977133 0.9527355 0.2876579 -0.0977133 0.9527355 -5.0E-7 4.0E-7 -1.0 -5.0E-7 4.0E-7 -1.0 -5.0E-7 4.0E-7 -1.0 0.2876574 -0.0977181 0.9527352 0.2876574 -0.0977181 0.9527352 0.2876574 -0.0977181 0.9527352 0.0 -1.0E-7 -1.0 0.0 -1.0E-7 -1.0 0.0 -1.0E-7 -1.0 0.2876585 -0.097713 0.9527355 0.2876585 -0.097713 0.9527355 0.2876585 -0.097713 0.9527355 1.0E-7 -1.0E-7 -1.0 1.0E-7 -1.0E-7 -1.0 1.0E-7 -1.0E-7 -1.0 0.2876537 -0.0977064 0.9527376 0.2876537 -0.0977064 0.9527376 0.2876537 -0.0977064 0.9527376 -1.5E-6 5.0E-7 -1.0 -1.5E-6 5.0E-7 -1.0 -1.5E-6 5.0E-7 -1.0 0.2876601 -0.097714 0.9527349 0.2876601 -0.097714 0.9527349 0.2876601 -0.097714 0.9527349</float_array>
                    <technique_common>
                        <accessor count="144" source="#geometry0-normal-array" stride="3">
                            <param name="X" type="float"/>
                            <param name="Y" type="float"/>
                            <param name="Z" type="float"/>
                        </accessor>
                    </technique_common>
                </source>
                <source id="geometry0-texCoords">
                    <float_array id="geometry0-texCoords-array" count="0"></float_array>
                    <technique_common>
                        <accessor count="0" source="#geometry0-texCoords-array" stride="2">
                            <param name="S" type="float"/>
                            <param name="T" type="float"/>
                        </accessor>
                    </technique_common>
                </source>
                <vertices id="geometry0-vertex">
                    <input semantic="POSITION" source="#geometry0-position"/>
                </vertices>
                <triangles count="32" material="default_ai_0.2_sh_0.2_tr_0.0_dc_r_0.8_g_0.8_b_0.8_sc_r_1.0_g_1.0_b_1.0_ec_r_0.0_g_0.0_b_0_tri">
                    <input offset="0" semantic="VERTEX" source="#geometry0-vertex"/>
                    <input offset="1" semantic="NORMAL" source="#geometry0-normal"/>
                    <p>18 0 19 1 20 2 21 3 19 4 18 5 33 6 34 7 35 8 26 9 27 10 28 11 36 12 34 13 33 14 29 15 27 16 26 17 30 18 27 19 29 20 40 21 37 22 38 23 41 24 37 25 40 26 37 33 32 34 38 35 36 36 42 37 34 38 22 39 23 40 24 41 39 42 32 43 37 44 43 45 42 46 36 47 25 48 23 49 22 50 31 51 32 52 39 53 19 60 21 61 25 62 22 63 19 64 25 65 31 66 19 67 22 68 27 69 31 70 22 71 30 72 31 73 27 74 32 75 31 76 30 77 26 78 43 79 29 80 42 81 43 82 26 83 40 87 35 88 41 89 33 90 35 91 40 92 44 108 45 109 46 110 47 114 45 115 44 116 48 120 45 121 47 122 49 126 45 127 48 128 50 132 45 133 49 134 51 138 49 139 48 140</p>
                </triangles>
                <triangles count="16" material="default_ai_0.2_sh_0.2_tr_0.0_dc_r_1.0_g_0.2_b_0.2_sc_r_1.0_g_1.0_b_1.0_ec_r_0.0_g_0.0_b_0_tri">
                    <input offset="0" semantic="VERTEX" source="#geometry0-vertex"/>
                    <input offset="1" semantic="NORMAL" source="#geometry0-normal"/>
                    <p>4 27 5 28 6 29 7 30 5 31 4 32 8 54 9 55 10 56 11 57 9 58 8 59 0 84 1 85 2 86 3 93 1 94 0 95 7 96 9 97 11 98 16 99 14 100 12 101 17 102 14 103 16 104 0 105 7 106 11 107 12 111 7 112 0 113 2 117 12 118 0 119 13 123 12 124 2 125 14 129 7 130 12 131 15 135 7 136 14 137 5 141 7 142 15 143</p>
                </triangles>
            </mesh>
        </geometry>
    </library_geometries>
    <library_visual_scenes>
        <visual_scene id="Building_pb-9635c107-7f36-11f0-8237-9c7bef4dcf4c">
            <node>
                <instance_geometry url="#geometry0">
                    <bind_material>
                        <technique_common>
                            <instance_material symbol="default_ai_0.2_sh_0.2_tr_0.0_dc_r_0.8_g_0.8_b_0.8_sc_r_1.0_g_1.0_b_1.0_ec_r_0.0_g_0.0_b_0_tri" target="#default_ai_0.2_sh_0.2_tr_0.0_dc_r_0.8_g_0.8_b_0.8_sc_r_1.0_g_1.0_b_1.0_ec_r_0.0_g_0.0_b_0_mat"/>
                            <instance_material symbol="default_ai_0.2_sh_0.2_tr_0.0_dc_r_1.0_g_0.2_b_0.2_sc_r_1.0_g_1.0_b_1.0_ec_r_0.0_g_0.0_b_0_tri" target="#default_ai_0.2_sh_0.2_tr_0.0_dc_r_1.0_g_0.2_b_0.2_sc_r_1.0_g_1.0_b_1.0_ec_r_0.0_g_0.0_b_0_mat"/>
                        </technique_common>
                    </bind_material>
                </instance_geometry>
            </node>
        </visual_scene>
    </library_visual_scenes>
    <scene>
        <instance_visual_scene url="#Building_pb-9635c107-7f36-11f0-8237-9c7bef4dcf4c"/>
    </scene>
</COLLADA>
