<?xml version="1.0" encoding="UTF-8" standalone="yes"?>
<COLLADA xmlns="http://www.collada.org/2005/11/COLLADASchema" version="1.4.1">
    <asset>
        <contributor>
            <authoring_tool>3D City Database Importer/Exporter, version 5.5.1; Chair of Geoinformatics, Technical University of Munich</authoring_tool>
        </contributor>
        <created>2026-01-16T16:51:34.381</created>
        <modified>2026-01-16T16:51:34.381</modified>
        <unit meter="1.0" name="meters"/>
        <up_axis>Z_UP</up_axis>
    </asset>
    <library_materials>
        <material id="default_ai_0.2_sh_0.2_tr_0.0_dc_r_1.0_g_0.2_b_0.2_sc_r_1.0_g_1.0_b_1.0_ec_r_0.0_g_0.0_b_0_mat">
            <instance_effect url="#default_ai_0.2_sh_0.2_tr_0.0_dc_r_1.0_g_0.2_b_0.2_sc_r_1.0_g_1.0_b_1.0_ec_r_0.0_g_0.0_b_0_eff"/>
        </material>
        <material id="default_ai_0.2_sh_0.2_tr_0.0_dc_r_0.8_g_0.8_b_0.8_sc_r_1.0_g_1.0_b_1.0_ec_r_0.0_g_0.0_b_0_mat">
            <instance_effect url="#default_ai_0.2_sh_0.2_tr_0.0_dc_r_0.8_g_0.8_b_0.8_sc_r_1.0_g_1.0_b_1.0_ec_r_0.0_g_0.0_b_0_eff"/>
        </material>
    </library_materials>
    <library_effects>
        <effect id="default_ai_0.2_sh_0.2_tr_0.0_dc_r_1.0_g_0.2_b_0.2_sc_r_1.0_g_1.0_b_1.0_ec_r_0.0_g_0.0_b_0_eff">
            <profile_COMMON>
                <technique sid="COMMON">
                    <lambert>
                        <emission>
                            <color>0.0 0.0 0.0 1.0</color>
                        </emission>
                        <diffuse>
                            <color>1.0 0.2 0.2 1.0</color>
                        </diffuse>
                        <reflective>
                            <color>1.0 1.0 1.0 1.0</color>
                        </reflective>
                        <reflectivity>
                            <float>0.2</float>
                        </reflectivity>
                        <transparent opaque="A_ONE">
                            <color>1.0 1.0 1.0 1.0</color>
                        </transparent>
                        <transparency>
                            <float>1.0</float>
                        </transparency>
                    </lambert>
                </technique>
                <extra>
                    <technique profile="GOOGLEEARTH">
                        <double_sided>1</double_sided>
                    </technique>
                </extra>
            </profile_COMMON>
        </effect>
        <effect id="default_ai_0.2_sh_0.2_tr_0.0_dc_r_0.8_g_0.8_b_0.8_sc_r_1.0_g_1.0_b_1.0_ec_r_0.0_g_0.0_b_0_eff">
            <profile_COMMON>
                <technique sid="COMMON">
                    <lambert>
                        <emission>
                            <color>0.0 0.0 0.0 1.0</color>
                        </emission>
                        <diffuse>
                            <color>0.8 0.8 0.8 1.0</color>
                        </diffuse>
                        <reflective>
                            <color>1.0 1.0 1.0 1.0</color>
                        </reflective>
                        <reflectivity>
                            <float>0.2</float>
                        </reflectivity>
                        <transparent opaque="A_ONE">
                            <color>1.0 1.0 1.0 1.0</color>
                        </transparent>
                        <transparency>
                            <float>1.0</float>
                        </transparency>
                    </lambert>
                </technique>
                <extra>
                    <technique profile="GOOGLEEARTH">
                        <double_sided>1</double_sided>
                    </technique>
                </extra>
            </profile_COMMON>
        </effect>
    </library_effects>
    <library_geometries>
        <geometry id="geometry0">
            <mesh>
                <source id="geometry0-position">
                    <float_array id="geometry0-position-array" count="84">-6.5329443 -7.3257675 5.5000146 -7.4534536 -3.5171127 5.5000146 -8.8719335 -5.9770203 5.5000155 -5.114472 -4.8658905 5.5000146 -8.8719335 -5.9770203 6.1437447 -7.4534536 -3.5171127 7.4584763 -5.114472 -4.8658905 7.4584763 -6.5329443 -7.3257675 6.1437438 -9.8263403 -7.0316086 5.5000146 -5.494866 -9.5292816 5.5000146 -1.71872 -2.9806747 9.0000131 -6.050202 -0.4830322 9.0000122 7.1E-6 -6.87E-5 7.1357625 -4.3314672 2.4976044 7.1357625 -9.8263372 -7.0315987 5.5000203 -4.3314603 2.4976391 2.72E-5 -9.8263334 -7.0315987 2.12E-5 -6.0501874 -0.4830013 9.0000203 -4.3314565 2.4976372 7.1357682 -5.4948629 -9.529266 5.5000246 1.78E-5 -2.63E-5 7.1357691 -1.718717 -2.9806724 9.0000203 -5.4948553 -9.5292736 2.12E-5 1.78E-5 -3.58E-5 2.71E-5 -5.4948578 -9.5292587 1.6E-6 -4.3314209 2.4976501 1.5E-6 0.0 0.0 0.0 -9.8263321 -7.0315781 3.1E-6</float_array>
                    <technique_common>
                        <accessor count="28" source="#geometry0-position-array" stride="3">
                            <param name="X" type="float"/>
                            <param name="Y" type="float"/>
                            <param name="Z" type="float"/>
                        </accessor>
                    </technique_common>
                </source>
                <source id="geometry0-normal">
                    <float_array id="geometry0-normal-array" count="288">0.4995363 0.866293 0.0 0.4995363 0.866293 0.0 0.4995363 0.866293 0.0 0.4995363 0.866293 0.0 0.4995363 0.866293 0.0 0.4995363 0.866293 0.0 0.2379732 0.4127001 0.8792312 0.2379732 0.4127001 0.8792312 0.2379732 0.4127001 0.8792312 -3.0E-7 0.0 -1.0 -3.0E-7 0.0 -1.0 -3.0E-7 0.0 -1.0 0.2379741 0.4126956 0.879233 0.2379741 0.4126956 0.879233 0.2379741 0.4126956 0.879233 -3.0E-7 0.0 -1.0 -3.0E-7 0.0 -1.0 -3.0E-7 0.0 -1.0 0.8662943 -0.4995341 -2.3E-6 0.8662943 -0.4995341 -2.3E-6 0.8662943 -0.4995341 -2.3E-6 0.8662939 -0.4995346 1.9E-6 0.8662939 -0.4995346 1.9E-6 0.8662939 -0.4995346 1.9E-6 0.8662943 -0.4995339 7.0E-7 0.8662943 -0.4995339 7.0E-7 0.8662943 -0.4995339 7.0E-7 -0.8662904 0.4995408 0.0 -0.8662904 0.4995408 0.0 -0.8662904 0.4995408 0.0 -0.8662904 0.4995408 0.0 -0.8662904 0.4995408 0.0 -0.8662904 0.4995408 0.0 -0.8662943 0.4995339 -6.0E-7 -0.8662943 0.4995339 -6.0E-7 -0.8662943 0.4995339 -6.0E-7 -0.2098809 -0.3639748 0.9074537 -0.2098809 -0.3639748 0.9074537 -0.2098809 -0.3639748 0.9074537 -0.8662939 0.4995346 1.1E-6 -0.8662939 0.4995346 1.1E-6 -0.8662939 0.4995346 1.1E-6 -0.2098809 -0.3639763 0.9074532 -0.2098809 -0.3639763 0.9074532 -0.2098809 -0.3639763 0.9074532 -0.8662946 0.4995334 6.0E-7 -0.8662946 0.4995334 6.0E-7 -0.8662946 0.4995334 6.0E-7 -0.2098849 -0.3639777 0.9074517 -0.2098849 -0.3639777 0.9074517 -0.2098849 -0.3639777 0.9074517 -0.209878 -0.3639788 0.9074529 -0.209878 -0.3639788 0.9074529 -0.209878 -0.3639788 0.9074529 -0.2098839 -0.36397 0.9074551 -0.2098839 -0.36397 0.9074551 -0.2098839 -0.36397 0.9074551 -0.2098816 -0.3639822 0.9074507 -0.2098816 -0.3639822 0.9074507 -0.2098816 -0.3639822 0.9074507 -0.2098398 -0.3640023 0.9074523 -0.2098398 -0.3640023 0.9074523 -0.2098398 -0.3640023 0.9074523 -0.2098788 -0.3639766 0.9074536 -0.2098788 -0.3639766 0.9074536 -0.2098788 -0.3639766 0.9074536 -0.4995461 -0.8662873 0.0 -0.4995461 -0.8662873 0.0 -0.4995461 -0.8662873 0.0 -0.4995461 -0.8662873 0.0 -0.4995461 -0.8662873 0.0 -0.4995461 -0.8662873 0.0 0.4995328 0.866295 -1.1E-6 0.4995328 0.866295 -1.1E-6 0.4995328 0.866295 -1.1E-6 5.0E-7 1.0E-7 1.0 5.0E-7 1.0E-7 1.0 5.0E-7 1.0E-7 1.0 0.4995342 0.8662942 -0.0 0.4995342 0.8662942 -0.0 0.4995342 0.8662942 -0.0 0.0 0.0 1.0 0.0 0.0 1.0 0.0 0.0 1.0 0.8662919 -0.4995383 0.0 0.8662919 -0.4995383 0.0 0.8662919 -0.4995383 0.0 0.8662918 -0.4995382 0.0 0.8662918 -0.4995382 0.0 0.8662918 -0.4995382 0.0 -0.4995343 -0.8662941 -3.0E-7 -0.4995343 -0.8662941 -3.0E-7 -0.4995343 -0.8662941 -3.0E-7 -0.4995334 -0.8662946 5.0E-7 -0.4995334 -0.8662946 5.0E-7 -0.4995334 -0.8662946 5.0E-7</float_array>
                    <technique_common>
                        <accessor count="96" source="#geometry0-normal-array" stride="3">
                            <param name="X" type="float"/>
                            <param name="Y" type="float"/>
                            <param name="Z" type="float"/>
                        </accessor>
                    </technique_common>
                </source>
                <source id="geometry0-texCoords">
                    <float_array id="geometry0-texCoords-array" count="0"></float_array>
                    <technique_common>
                        <accessor count="0" source="#geometry0-texCoords-array" stride="2">
                            <param name="S" type="float"/>
                            <param name="T" type="float"/>
                        </accessor>
                    </technique_common>
                </source>
                <vertices id="geometry0-vertex">
                    <input semantic="POSITION" source="#geometry0-position"/>
                </vertices>
                <triangles count="12" material="default_ai_0.2_sh_0.2_tr_0.0_dc_r_0.8_g_0.8_b_0.8_sc_r_1.0_g_1.0_b_1.0_ec_r_0.0_g_0.0_b_0_tri">
                    <input offset="0" semantic="VERTEX" source="#geometry0-vertex"/>
                    <input offset="1" semantic="NORMAL" source="#geometry0-normal"/>
                    <p>24 9 25 10 26 11 27 15 25 16 24 17 19 18 20 19 21 20 22 21 20 22 19 23 23 24 20 25 22 26 14 33 15 34 16 35 17 39 15 40 14 41 18 45 15 46 17 47 23 72 18 73 20 74 15 78 18 79 23 80 22 90 14 91 16 92 19 93 14 94 22 95</p>
                </triangles>
                <triangles count="20" material="default_ai_0.2_sh_0.2_tr_0.0_dc_r_1.0_g_0.2_b_0.2_sc_r_1.0_g_1.0_b_1.0_ec_r_0.0_g_0.0_b_0_tri">
                    <input offset="0" semantic="VERTEX" source="#geometry0-vertex"/>
                    <input offset="1" semantic="NORMAL" source="#geometry0-normal"/>
                    <p>7 0 2 1 4 2 0 3 2 4 7 5 12 6 11 7 10 8 13 12 11 13 12 14 6 27 0 28 7 29 3 30 0 31 6 32 7 36 4 37 8 38 9 42 7 43 8 44 6 48 7 49 9 50 10 51 6 52 9 53 5 54 6 55 10 56 11 57 5 58 10 59 8 60 5 61 11 62 4 63 5 64 8 65 3 66 5 67 1 68 6 69 5 70 3 71 0 75 1 76 2 77 3 81 1 82 0 83 4 84 1 85 5 86 2 87 1 88 4 89</p>
                </triangles>
            </mesh>
        </geometry>
    </library_geometries>
    <library_visual_scenes>
        <visual_scene id="Building_pb-96359a18-7f36-11f0-bccc-9c7bef4dcf4c">
            <node>
                <instance_geometry url="#geometry0">
                    <bind_material>
                        <technique_common>
                            <instance_material symbol="default_ai_0.2_sh_0.2_tr_0.0_dc_r_0.8_g_0.8_b_0.8_sc_r_1.0_g_1.0_b_1.0_ec_r_0.0_g_0.0_b_0_tri" target="#default_ai_0.2_sh_0.2_tr_0.0_dc_r_0.8_g_0.8_b_0.8_sc_r_1.0_g_1.0_b_1.0_ec_r_0.0_g_0.0_b_0_mat"/>
                            <instance_material symbol="default_ai_0.2_sh_0.2_tr_0.0_dc_r_1.0_g_0.2_b_0.2_sc_r_1.0_g_1.0_b_1.0_ec_r_0.0_g_0.0_b_0_tri" target="#default_ai_0.2_sh_0.2_tr_0.0_dc_r_1.0_g_0.2_b_0.2_sc_r_1.0_g_1.0_b_1.0_ec_r_0.0_g_0.0_b_0_mat"/>
                        </technique_common>
                    </bind_material>
                </instance_geometry>
            </node>
        </visual_scene>
    </library_visual_scenes>
    <scene>
        <instance_visual_scene url="#Building_pb-96359a18-7f36-11f0-bccc-9c7bef4dcf4c"/>
    </scene>
</COLLADA>
