<?xml version="1.0" encoding="UTF-8" standalone="yes"?>
<COLLADA xmlns="http://www.collada.org/2005/11/COLLADASchema" version="1.4.1">
    <asset>
        <contributor>
            <authoring_tool>3D City Database Importer/Exporter, version 5.5.1; Chair of Geoinformatics, Technical University of Munich</authoring_tool>
        </contributor>
        <created>2026-01-16T16:51:34.200</created>
        <modified>2026-01-16T16:51:34.200</modified>
        <unit meter="1.0" name="meters"/>
        <up_axis>Z_UP</up_axis>
    </asset>
    <library_materials>
        <material id="default_ai_0.2_sh_0.2_tr_0.0_dc_r_1.0_g_0.2_b_0.2_sc_r_1.0_g_1.0_b_1.0_ec_r_0.0_g_0.0_b_0_mat">
            <instance_effect url="#default_ai_0.2_sh_0.2_tr_0.0_dc_r_1.0_g_0.2_b_0.2_sc_r_1.0_g_1.0_b_1.0_ec_r_0.0_g_0.0_b_0_eff"/>
        </material>
        <material id="default_ai_0.2_sh_0.2_tr_0.0_dc_r_0.8_g_0.8_b_0.8_sc_r_1.0_g_1.0_b_1.0_ec_r_0.0_g_0.0_b_0_mat">
            <instance_effect url="#default_ai_0.2_sh_0.2_tr_0.0_dc_r_0.8_g_0.8_b_0.8_sc_r_1.0_g_1.0_b_1.0_ec_r_0.0_g_0.0_b_0_eff"/>
        </material>
    </library_materials>
    <library_effects>
        <effect id="default_ai_0.2_sh_0.2_tr_0.0_dc_r_1.0_g_0.2_b_0.2_sc_r_1.0_g_1.0_b_1.0_ec_r_0.0_g_0.0_b_0_eff">
            <profile_COMMON>
                <technique sid="COMMON">
                    <lambert>
                        <emission>
                            <color>0.0 0.0 0.0 1.0</color>
                        </emission>
                        <diffuse>
                            <color>1.0 0.2 0.2 1.0</color>
                        </diffuse>
                        <reflective>
                            <color>1.0 1.0 1.0 1.0</color>
                        </reflective>
                        <reflectivity>
                            <float>0.2</float>
                        </reflectivity>
                        <transparent opaque="A_ONE">
                            <color>1.0 1.0 1.0 1.0</color>
                        </transparent>
                        <transparency>
                            <float>1.0</float>
                        </transparency>
                    </lambert>
                </technique>
                <extra>
                    <technique profile="GOOGLEEARTH">
                        <double_sided>1</double_sided>
                    </technique>
                </extra>
            </profile_COMMON>
        </effect>
        <effect id="default_ai_0.2_sh_0.2_tr_0.0_dc_r_0.8_g_0.8_b_0.8_sc_r_1.0_g_1.0_b_1.0_ec_r_0.0_g_0.0_b_0_eff">
            <profile_COMMON>
                <technique sid="COMMON">
                    <lambert>
                        <emission>
                            <color>0.0 0.0 0.0 1.0</color>
                        </emission>
                        <diffuse>
                            <color>0.8 0.8 0.8 1.0</color>
                        </diffuse>
                        <reflective>
                            <color>1.0 1.0 1.0 1.0</color>
                        </reflective>
                        <reflectivity>
                            <float>0.2</float>
                        </reflectivity>
                        <transparent opaque="A_ONE">
                            <color>1.0 1.0 1.0 1.0</color>
                        </transparent>
                        <transparency>
                            <float>1.0</float>
                        </transparency>
                    </lambert>
                </technique>
                <extra>
                    <technique profile="GOOGLEEARTH">
                        <double_sided>1</double_sided>
                    </technique>
                </extra>
            </profile_COMMON>
        </effect>
    </library_effects>
    <library_geometries>
        <geometry id="geometry0">
            <mesh>
                <source id="geometry0-position">
                    <float_array id="geometry0-position-array" count="129">-6.5149618 -5.527771 9.0000311 -7.8871618 -0.1838684 9.0000311 -9.8343206 -3.6779175 9.0000311 -4.5677991 -2.0337219 9.0000311 -1.9472356 -3.4941101 9.000032 -7.4885488 -7.2747803 5.5000316 -4.8680158 -8.7351685 5.5000316 -7.2924294 0.8859334 8.5605047 -8.92E-5 -2.07E-5 7.5636332 -6.914862 1.5634546 8.2819669 -7.8871799 -0.183857 9.0000361 -7.888265 -0.1832523 9.0000361 -1.9472466 -3.4941018 9.0000385 -5.9410956 3.3108118 7.5633818 -6.3306079 2.6118582 7.8509656 -6.3796183 2.5239123 7.8871204 -6.4279802 2.4371303 7.9227992 -6.5070501 2.2952446 7.981126 -6.5902793 2.1458953 8.0425221 -6.7388801 1.8792423 8.1521472 -9.8343556 -3.6779305 9.0000319 -5.9399922 3.3101905 7.5626259 -9.8343556 -3.6779382 6.6666999 -7.8871663 -0.1838814 9.0000319 -9.8343556 -3.6779305 3.19E-5 -6.5149739 -5.5277611 9.000031 -6.5149739 -5.5277611 3.01E-5 -6.5149739 -5.5277611 6.6666989 -7.4885762 -7.2747933 3.08E-5 -7.4885762 -7.2747933 5.5000314 -4.5677998 -2.0336968 9.0000319 -8.13E-5 -2.07E-5 3.06E-5 -4.8680165 -8.7351815 5.5000305 -4.8680165 -8.7351891 3.45E-5 -8.13E-5 -2.07E-5 7.5636272 -1.9472554 -3.494085 9.00003 -5.939977 3.3101829 3.11E-5 0.0 0.0 0.0 -6.5149345 -5.5277405 7.0E-7 -9.8342781 -3.6779175 1.1E-6 -4.8679543 -8.7351379 6.0E-7 -7.4885063 -7.2747498 8.0E-7 -5.93993 3.3102112 7.0E-7</float_array>
                    <technique_common>
                        <accessor count="43" source="#geometry0-position-array" stride="3">
                            <param name="X" type="float"/>
                            <param name="Y" type="float"/>
                            <param name="Z" type="float"/>
                        </accessor>
                    </technique_common>
                </source>
                <source id="geometry0-normal">
                    <float_array id="geometry0-normal-array" count="306">0.1644824 0.2952381 0.9411589 0.1644824 0.2952381 0.9411589 0.1644824 0.2952381 0.9411589 0.164523 0.2952222 0.9411567 0.164523 0.2952222 0.9411567 0.164523 0.2952222 0.9411567 -0.873516 0.4867955 -1.6E-6 -0.873516 0.4867955 -1.6E-6 -0.873516 0.4867955 -1.6E-6 0.164617 0.2954627 0.9410648 0.164617 0.2954627 0.9410648 0.164617 0.2954627 0.9410648 -0.8735144 0.4867983 1.68E-5 -0.8735144 0.4867983 1.68E-5 -0.8735144 0.4867983 1.68E-5 0.1645232 0.2952252 0.9411558 0.1645232 0.2952252 0.9411558 0.1645232 0.2952252 0.9411558 0.1645312 0.2952463 0.9411477 0.1645312 0.2952463 0.9411477 0.1645312 0.2952463 0.9411477 0.1645188 0.2952119 0.9411607 0.1645188 0.2952119 0.9411607 0.1645188 0.2952119 0.9411607 0.1645214 0.2952198 0.9411578 0.1645214 0.2952198 0.9411578 0.1645214 0.2952198 0.9411578 0.1645257 0.2952341 0.9411526 0.1645257 0.2952341 0.9411526 0.1645257 0.2952341 0.9411526 0.0 0.0 1.0 0.0 0.0 1.0 0.0 0.0 1.0 0.1645229 0.2952229 0.9411566 0.1645229 0.2952229 0.9411566 0.1645229 0.2952229 0.9411566 0.0 0.0 1.0 0.0 0.0 1.0 0.0 0.0 1.0 0.8735169 -0.486794 0.0 0.8735169 -0.486794 0.0 0.8735169 -0.486794 0.0 -0.4867963 -0.8735156 1.2E-6 -0.4867963 -0.8735156 1.2E-6 -0.4867963 -0.8735156 1.2E-6 -0.4867944 -0.8735166 0.0 -0.4867944 -0.8735166 0.0 -0.4867944 -0.8735166 0.0 -0.4867947 -0.8735164 0.0 -0.4867947 -0.8735164 0.0 -0.4867947 -0.8735164 0.0 -0.4867947 -0.8735164 0.0 -0.4867947 -0.8735164 0.0 -0.4867947 -0.8735164 0.0 1.0 0.0 0.0 1.0 0.0 0.0 1.0 0.0 0.0 0.8735171 -0.4867937 7.0E-7 0.8735171 -0.4867937 7.0E-7 0.8735171 -0.4867937 7.0E-7 0.8735168 -0.486794 0.0 0.8735168 -0.486794 0.0 0.8735168 -0.486794 0.0 -1.0E-7 0.0 -1.0 -1.0E-7 0.0 -1.0 -1.0E-7 0.0 -1.0 0.8735168 -0.4867939 -2.0E-7 0.8735168 -0.4867939 -2.0E-7 0.8735168 -0.4867939 -2.0E-7 -1.0E-7 -0.0 -1.0 -1.0E-7 -0.0 -1.0 -1.0E-7 -0.0 -1.0 -1.0E-7 -0.0 -1.0 -1.0E-7 -0.0 -1.0 -1.0E-7 -0.0 -1.0 -1.0E-7 -0.0 -1.0 -1.0E-7 -0.0 -1.0 -1.0E-7 -0.0 -1.0 -0.2452844 -0.4401404 0.8637779 -0.2452844 -0.4401404 0.8637779 -0.2452844 -0.4401404 0.8637779 -0.2452829 -0.4401422 0.8637773 -0.2452829 -0.4401422 0.8637773 -0.2452829 -0.4401422 0.8637773 0.4867956 0.8735159 0.0 0.4867956 0.8735159 0.0 0.4867956 0.8735159 0.0 0.4867957 0.8735158 1.0E-7 0.4867957 0.8735158 1.0E-7 0.4867957 0.8735158 1.0E-7 -0.8735136 0.4867998 0.0 -0.8735136 0.4867998 0.0 -0.8735136 0.4867998 0.0 -0.8735136 0.4867997 0.0 -0.8735136 0.4867997 0.0 -0.8735136 0.4867997 0.0 0.164525 0.2952339 0.9411527 0.164525 0.2952339 0.9411527 0.164525 0.2952339 0.9411527 0.1645236 0.2952152 0.9411588 0.1645236 0.2952152 0.9411588 0.1645236 0.2952152 0.9411588</float_array>
                    <technique_common>
                        <accessor count="102" source="#geometry0-normal-array" stride="3">
                            <param name="X" type="float"/>
                            <param name="Y" type="float"/>
                            <param name="Z" type="float"/>
                        </accessor>
                    </technique_common>
                </source>
                <source id="geometry0-texCoords">
                    <float_array id="geometry0-texCoords-array" count="0"></float_array>
                    <technique_common>
                        <accessor count="0" source="#geometry0-texCoords-array" stride="2">
                            <param name="S" type="float"/>
                            <param name="T" type="float"/>
                        </accessor>
                    </technique_common>
                </source>
                <vertices id="geometry0-vertex">
                    <input semantic="POSITION" source="#geometry0-position"/>
                </vertices>
                <triangles count="19" material="default_ai_0.2_sh_0.2_tr_0.0_dc_r_0.8_g_0.8_b_0.8_sc_r_1.0_g_1.0_b_1.0_ec_r_0.0_g_0.0_b_0_tri">
                    <input offset="0" semantic="VERTEX" source="#geometry0-vertex"/>
                    <input offset="1" semantic="NORMAL" source="#geometry0-normal"/>
                    <p>20 6 21 7 22 8 23 12 21 13 20 14 27 39 30 40 25 41 32 42 28 43 33 44 29 45 28 46 32 47 24 48 25 49 20 50 26 51 25 52 24 53 27 54 25 55 26 56 31 57 32 58 33 59 34 60 32 61 31 62 37 63 38 64 39 65 35 66 32 67 34 68 40 69 38 70 37 71 41 72 38 73 40 74 42 75 37 76 39 77 31 84 21 85 34 86 36 87 21 88 31 89 28 90 27 91 26 92 29 93 27 94 28 95</p>
                </triangles>
                <triangles count="15" material="default_ai_0.2_sh_0.2_tr_0.0_dc_r_1.0_g_0.2_b_0.2_sc_r_1.0_g_1.0_b_1.0_ec_r_0.0_g_0.0_b_0_tri">
                    <input offset="0" semantic="VERTEX" source="#geometry0-vertex"/>
                    <input offset="1" semantic="NORMAL" source="#geometry0-normal"/>
                    <p>11 0 10 1 7 2 10 3 12 4 8 5 13 9 14 10 8 11 14 15 15 16 8 17 15 18 16 19 8 20 16 21 17 22 8 23 17 24 18 25 8 26 18 27 19 28 8 29 0 30 1 31 2 32 9 33 8 34 19 35 3 36 1 37 0 38 4 78 5 79 6 80 3 81 5 82 4 83 7 96 8 97 9 98 7 99 10 100 8 101</p>
                </triangles>
            </mesh>
        </geometry>
    </library_geometries>
    <library_visual_scenes>
        <visual_scene id="Building_pb-96357319-7f36-11f0-846a-9c7bef4dcf4c">
            <node>
                <instance_geometry url="#geometry0">
                    <bind_material>
                        <technique_common>
                            <instance_material symbol="default_ai_0.2_sh_0.2_tr_0.0_dc_r_0.8_g_0.8_b_0.8_sc_r_1.0_g_1.0_b_1.0_ec_r_0.0_g_0.0_b_0_tri" target="#default_ai_0.2_sh_0.2_tr_0.0_dc_r_0.8_g_0.8_b_0.8_sc_r_1.0_g_1.0_b_1.0_ec_r_0.0_g_0.0_b_0_mat"/>
                            <instance_material symbol="default_ai_0.2_sh_0.2_tr_0.0_dc_r_1.0_g_0.2_b_0.2_sc_r_1.0_g_1.0_b_1.0_ec_r_0.0_g_0.0_b_0_tri" target="#default_ai_0.2_sh_0.2_tr_0.0_dc_r_1.0_g_0.2_b_0.2_sc_r_1.0_g_1.0_b_1.0_ec_r_0.0_g_0.0_b_0_mat"/>
                        </technique_common>
                    </bind_material>
                </instance_geometry>
            </node>
        </visual_scene>
    </library_visual_scenes>
    <scene>
        <instance_visual_scene url="#Building_pb-96357319-7f36-11f0-846a-9c7bef4dcf4c"/>
    </scene>
</COLLADA>
