<?xml version="1.0" encoding="UTF-8" standalone="yes"?>
<COLLADA xmlns="http://www.collada.org/2005/11/COLLADASchema" version="1.4.1">
    <asset>
        <contributor>
            <authoring_tool>3D City Database Importer/Exporter, version 5.5.1; Chair of Geoinformatics, Technical University of Munich</authoring_tool>
        </contributor>
        <created>2026-01-16T16:51:33.982</created>
        <modified>2026-01-16T16:51:33.982</modified>
        <unit meter="1.0" name="meters"/>
        <up_axis>Z_UP</up_axis>
    </asset>
    <library_materials>
        <material id="default_ai_0.2_sh_0.2_tr_0.0_dc_r_0.8_g_0.8_b_0.8_sc_r_1.0_g_1.0_b_1.0_ec_r_0.0_g_0.0_b_0_mat">
            <instance_effect url="#default_ai_0.2_sh_0.2_tr_0.0_dc_r_0.8_g_0.8_b_0.8_sc_r_1.0_g_1.0_b_1.0_ec_r_0.0_g_0.0_b_0_eff"/>
        </material>
        <material id="default_ai_0.2_sh_0.2_tr_0.0_dc_r_1.0_g_0.2_b_0.2_sc_r_1.0_g_1.0_b_1.0_ec_r_0.0_g_0.0_b_0_mat">
            <instance_effect url="#default_ai_0.2_sh_0.2_tr_0.0_dc_r_1.0_g_0.2_b_0.2_sc_r_1.0_g_1.0_b_1.0_ec_r_0.0_g_0.0_b_0_eff"/>
        </material>
    </library_materials>
    <library_effects>
        <effect id="default_ai_0.2_sh_0.2_tr_0.0_dc_r_0.8_g_0.8_b_0.8_sc_r_1.0_g_1.0_b_1.0_ec_r_0.0_g_0.0_b_0_eff">
            <profile_COMMON>
                <technique sid="COMMON">
                    <lambert>
                        <emission>
                            <color>0.0 0.0 0.0 1.0</color>
                        </emission>
                        <diffuse>
                            <color>0.8 0.8 0.8 1.0</color>
                        </diffuse>
                        <reflective>
                            <color>1.0 1.0 1.0 1.0</color>
                        </reflective>
                        <reflectivity>
                            <float>0.2</float>
                        </reflectivity>
                        <transparent opaque="A_ONE">
                            <color>1.0 1.0 1.0 1.0</color>
                        </transparent>
                        <transparency>
                            <float>1.0</float>
                        </transparency>
                    </lambert>
                </technique>
                <extra>
                    <technique profile="GOOGLEEARTH">
                        <double_sided>1</double_sided>
                    </technique>
                </extra>
            </profile_COMMON>
        </effect>
        <effect id="default_ai_0.2_sh_0.2_tr_0.0_dc_r_1.0_g_0.2_b_0.2_sc_r_1.0_g_1.0_b_1.0_ec_r_0.0_g_0.0_b_0_eff">
            <profile_COMMON>
                <technique sid="COMMON">
                    <lambert>
                        <emission>
                            <color>0.0 0.0 0.0 1.0</color>
                        </emission>
                        <diffuse>
                            <color>1.0 0.2 0.2 1.0</color>
                        </diffuse>
                        <reflective>
                            <color>1.0 1.0 1.0 1.0</color>
                        </reflective>
                        <reflectivity>
                            <float>0.2</float>
                        </reflectivity>
                        <transparent opaque="A_ONE">
                            <color>1.0 1.0 1.0 1.0</color>
                        </transparent>
                        <transparency>
                            <float>1.0</float>
                        </transparency>
                    </lambert>
                </technique>
                <extra>
                    <technique profile="GOOGLEEARTH">
                        <double_sided>1</double_sided>
                    </technique>
                </extra>
            </profile_COMMON>
        </effect>
    </library_effects>
    <library_geometries>
        <geometry id="geometry0">
            <mesh>
                <source id="geometry0-position">
                    <float_array id="geometry0-position-array" count="60">-43.4833074 16.026083 20.6979549 -5.028565 -9.7834244 17.1979568 -2.571137 -5.0023146 20.6979549 -45.9407507 11.2449741 17.1979568 -40.9122015 21.0283298 17.1979568 -6.16E-5 -5.91E-5 17.1979568 -43.4833282 16.0260925 20.6979607 -45.940759 11.2449984 5.11E-5 -45.9407595 11.2449984 17.1979607 -40.9122327 21.0283441 17.1979607 -40.9122327 21.0283441 5.11E-5 -5.0285733 -9.7833987 5.17E-5 -2.5711416 -5.0022975 20.6979626 -5.0285733 -9.7833987 17.1979645 -4.32E-5 -5.63E-5 5.17E-5 -4.32E-5 -5.63E-5 17.1979645 -5.0285492 -9.7833538 6.0E-7 -40.9122162 21.0283756 4.6E-6 0.0 0.0 0.0 -45.9407501 11.2450485 5.1E-6</float_array>
                    <technique_common>
                        <accessor count="20" source="#geometry0-position-array" stride="3">
                            <param name="X" type="float"/>
                            <param name="Y" type="float"/>
                            <param name="Z" type="float"/>
                        </accessor>
                    </technique_common>
                </source>
                <source id="geometry0-normal">
                    <float_array id="geometry0-normal-array" count="144">0.457139 0.8893952 0.0 0.457139 0.8893952 0.0 0.457139 0.8893952 0.0 0.8893952 -0.4571391 0.0 0.8893952 -0.4571391 0.0 0.8893952 -0.4571391 0.0 0.8893951 -0.4571393 1.0E-7 0.8893951 -0.4571393 1.0E-7 0.8893951 -0.4571393 1.0E-7 0.889395 -0.4571395 0.0 0.889395 -0.4571395 0.0 0.889395 -0.4571395 0.0 0.2415282 0.4699095 0.8490284 0.2415282 0.4699095 0.8490284 0.2415282 0.4699095 0.8490284 0.2415284 0.4699098 0.8490281 0.2415284 0.4699098 0.8490281 0.2415284 0.4699098 0.8490281 -1.0E-7 0.0 -1.0 -1.0E-7 0.0 -1.0 -1.0E-7 0.0 -1.0 -1.0E-7 0.0 -1.0 -1.0E-7 0.0 -1.0 -1.0E-7 0.0 -1.0 -0.8893952 0.457139 0.0 -0.8893952 0.457139 0.0 -0.8893952 0.457139 0.0 -0.8893954 0.4571388 0.0 -0.8893954 0.4571388 0.0 -0.8893954 0.4571388 0.0 -0.8893954 0.4571389 0.0 -0.8893954 0.4571389 0.0 -0.8893954 0.4571389 0.0 -0.457139 -0.8893952 0.0 -0.457139 -0.8893952 0.0 -0.457139 -0.8893952 0.0 -0.457139 -0.8893952 0.0 -0.457139 -0.8893952 0.0 -0.457139 -0.8893952 0.0 -0.2494263 -0.4852757 0.83803 -0.2494263 -0.4852757 0.83803 -0.2494263 -0.4852757 0.83803 -0.249426 -0.4852753 0.8380302 -0.249426 -0.4852753 0.8380302 -0.249426 -0.4852753 0.8380302 0.457139 0.8893952 0.0 0.457139 0.8893952 0.0 0.457139 0.8893952 0.0</float_array>
                    <technique_common>
                        <accessor count="48" source="#geometry0-normal-array" stride="3">
                            <param name="X" type="float"/>
                            <param name="Y" type="float"/>
                            <param name="Z" type="float"/>
                        </accessor>
                    </technique_common>
                </source>
                <source id="geometry0-texCoords">
                    <float_array id="geometry0-texCoords-array" count="0"></float_array>
                    <technique_common>
                        <accessor count="0" source="#geometry0-texCoords-array" stride="2">
                            <param name="S" type="float"/>
                            <param name="T" type="float"/>
                        </accessor>
                    </technique_common>
                </source>
                <vertices id="geometry0-vertex">
                    <input semantic="POSITION" source="#geometry0-position"/>
                </vertices>
                <triangles count="12" material="default_ai_0.2_sh_0.2_tr_0.0_dc_r_0.8_g_0.8_b_0.8_sc_r_1.0_g_1.0_b_1.0_ec_r_0.0_g_0.0_b_0_tri">
                    <input offset="0" semantic="VERTEX" source="#geometry0-vertex"/>
                    <input offset="1" semantic="NORMAL" source="#geometry0-normal"/>
                    <p>15 0 14 1 9 2 11 3 12 4 13 5 14 6 12 7 11 8 15 9 12 10 14 11 16 18 17 19 18 20 19 21 17 22 16 23 6 24 7 25 8 26 9 27 7 28 6 29 10 30 7 31 9 32 7 33 13 34 8 35 11 36 13 37 7 38 9 45 14 46 10 47</p>
                </triangles>
                <triangles count="4" material="default_ai_0.2_sh_0.2_tr_0.0_dc_r_1.0_g_0.2_b_0.2_sc_r_1.0_g_1.0_b_1.0_ec_r_0.0_g_0.0_b_0_tri">
                    <input offset="0" semantic="VERTEX" source="#geometry0-vertex"/>
                    <input offset="1" semantic="NORMAL" source="#geometry0-normal"/>
                    <p>2 12 4 13 0 14 5 15 4 16 2 17 0 39 1 40 2 41 3 42 1 43 0 44</p>
                </triangles>
            </mesh>
        </geometry>
    </library_geometries>
    <library_visual_scenes>
        <visual_scene id="Building_pb-9635731c-7f36-11f0-bc33-9c7bef4dcf4c">
            <node>
                <instance_geometry url="#geometry0">
                    <bind_material>
                        <technique_common>
                            <instance_material symbol="default_ai_0.2_sh_0.2_tr_0.0_dc_r_0.8_g_0.8_b_0.8_sc_r_1.0_g_1.0_b_1.0_ec_r_0.0_g_0.0_b_0_tri" target="#default_ai_0.2_sh_0.2_tr_0.0_dc_r_0.8_g_0.8_b_0.8_sc_r_1.0_g_1.0_b_1.0_ec_r_0.0_g_0.0_b_0_mat"/>
                            <instance_material symbol="default_ai_0.2_sh_0.2_tr_0.0_dc_r_1.0_g_0.2_b_0.2_sc_r_1.0_g_1.0_b_1.0_ec_r_0.0_g_0.0_b_0_tri" target="#default_ai_0.2_sh_0.2_tr_0.0_dc_r_1.0_g_0.2_b_0.2_sc_r_1.0_g_1.0_b_1.0_ec_r_0.0_g_0.0_b_0_mat"/>
                        </technique_common>
                    </bind_material>
                </instance_geometry>
            </node>
        </visual_scene>
    </library_visual_scenes>
    <scene>
        <instance_visual_scene url="#Building_pb-9635731c-7f36-11f0-bc33-9c7bef4dcf4c"/>
    </scene>
</COLLADA>
