<?xml version="1.0" encoding="UTF-8" standalone="yes"?>
<COLLADA xmlns="http://www.collada.org/2005/11/COLLADASchema" version="1.4.1">
    <asset>
        <contributor>
            <authoring_tool>3D City Database Importer/Exporter, version 5.5.1; Chair of Geoinformatics, Technical University of Munich</authoring_tool>
        </contributor>
        <created>2026-01-16T16:51:34.517</created>
        <modified>2026-01-16T16:51:34.517</modified>
        <unit meter="1.0" name="meters"/>
        <up_axis>Z_UP</up_axis>
    </asset>
    <library_materials>
        <material id="default_ai_0.2_sh_0.2_tr_0.0_dc_r_0.8_g_0.8_b_0.8_sc_r_1.0_g_1.0_b_1.0_ec_r_0.0_g_0.0_b_0_mat">
            <instance_effect url="#default_ai_0.2_sh_0.2_tr_0.0_dc_r_0.8_g_0.8_b_0.8_sc_r_1.0_g_1.0_b_1.0_ec_r_0.0_g_0.0_b_0_eff"/>
        </material>
        <material id="default_ai_0.2_sh_0.2_tr_0.0_dc_r_1.0_g_0.2_b_0.2_sc_r_1.0_g_1.0_b_1.0_ec_r_0.0_g_0.0_b_0_mat">
            <instance_effect url="#default_ai_0.2_sh_0.2_tr_0.0_dc_r_1.0_g_0.2_b_0.2_sc_r_1.0_g_1.0_b_1.0_ec_r_0.0_g_0.0_b_0_eff"/>
        </material>
    </library_materials>
    <library_effects>
        <effect id="default_ai_0.2_sh_0.2_tr_0.0_dc_r_0.8_g_0.8_b_0.8_sc_r_1.0_g_1.0_b_1.0_ec_r_0.0_g_0.0_b_0_eff">
            <profile_COMMON>
                <technique sid="COMMON">
                    <lambert>
                        <emission>
                            <color>0.0 0.0 0.0 1.0</color>
                        </emission>
                        <diffuse>
                            <color>0.8 0.8 0.8 1.0</color>
                        </diffuse>
                        <reflective>
                            <color>1.0 1.0 1.0 1.0</color>
                        </reflective>
                        <reflectivity>
                            <float>0.2</float>
                        </reflectivity>
                        <transparent opaque="A_ONE">
                            <color>1.0 1.0 1.0 1.0</color>
                        </transparent>
                        <transparency>
                            <float>1.0</float>
                        </transparency>
                    </lambert>
                </technique>
                <extra>
                    <technique profile="GOOGLEEARTH">
                        <double_sided>1</double_sided>
                    </technique>
                </extra>
            </profile_COMMON>
        </effect>
        <effect id="default_ai_0.2_sh_0.2_tr_0.0_dc_r_1.0_g_0.2_b_0.2_sc_r_1.0_g_1.0_b_1.0_ec_r_0.0_g_0.0_b_0_eff">
            <profile_COMMON>
                <technique sid="COMMON">
                    <lambert>
                        <emission>
                            <color>0.0 0.0 0.0 1.0</color>
                        </emission>
                        <diffuse>
                            <color>1.0 0.2 0.2 1.0</color>
                        </diffuse>
                        <reflective>
                            <color>1.0 1.0 1.0 1.0</color>
                        </reflective>
                        <reflectivity>
                            <float>0.2</float>
                        </reflectivity>
                        <transparent opaque="A_ONE">
                            <color>1.0 1.0 1.0 1.0</color>
                        </transparent>
                        <transparency>
                            <float>1.0</float>
                        </transparency>
                    </lambert>
                </technique>
                <extra>
                    <technique profile="GOOGLEEARTH">
                        <double_sided>1</double_sided>
                    </technique>
                </extra>
            </profile_COMMON>
        </effect>
    </library_effects>
    <library_geometries>
        <geometry id="geometry0">
            <mesh>
                <source id="geometry0-position">
                    <float_array id="geometry0-position-array" count="111">8.7687077 -4.8071771 14.7000008 1.3176884 -18.398562 14.7000008 6.8266301 -8.3497491 14.7000008 4.3843998 -2.4036127 17.586712 -3.0665889 -15.9949976 17.586712 -0.9709469 -1.7713495 14.7000008 9.2E-5 -4.82E-5 14.7000008 -7.4509578 -13.5914331 14.7000008 -7.4509166 -13.5914545 14.7000017 1.3175892 -18.3985038 14.7000017 -3.0666021 -15.9950123 17.5867138 -7.4510382 -13.5913885 5.0E-7 1.3175895 -18.3985033 5.0E-7 8.7686269 -4.8071151 14.7000017 0.0 0.0 0.0 8.7686278 -4.8071151 1.9E-6 4.3844368 -2.4036245 17.5867138 1.236E-4 -6.68E-5 14.7000017 6.8266484 -8.3497572 14.7000017 6.8265259 -8.3496904 2.0E-6 -0.9710517 -1.7712879 14.7000017 -0.9710506 -1.7712879 2.0E-6 -0.9709532 -1.7713352 8.0E-6 8.7633493 -4.8083273 7.6E-6 -4.2107785 -7.6813016 8.2E-6 8.7646782 -4.805903 7.6E-6 8.7629507 -4.809054 7.6E-6 6.8216259 -8.3501778 7.7E-6 -5.1818621 -9.452622 8.3E-6 6.8211794 -8.3509927 7.7E-6 4.6620678 -12.289376 7.8E-6 -6.2618907 -11.4226611 8.4E-6 -7.4510253 -13.5914053 8.5E-6 4.0673417 -13.3742014 7.9E-6 1.3139949 -18.3965149 8.0E-6 5.6E-5 -1.96E-5 8.0E-6 8.7650764 -4.8051763 7.6E-6</float_array>
                    <technique_common>
                        <accessor count="37" source="#geometry0-position-array" stride="3">
                            <param name="X" type="float"/>
                            <param name="Y" type="float"/>
                            <param name="Z" type="float"/>
                        </accessor>
                    </technique_common>
                </source>
                <source id="geometry0-normal">
                    <float_array id="geometry0-normal-array" count="261">-1.0E-7 -0.0 -1.0 -1.0E-7 -0.0 -1.0 -1.0E-7 -0.0 -1.0 -1.0E-7 -0.0 -1.0 -1.0E-7 -0.0 -1.0 -1.0E-7 -0.0 -1.0 -1.0E-7 -0.0 -1.0 -1.0E-7 -0.0 -1.0 -1.0E-7 -0.0 -1.0 -1.0E-7 -0.0 -1.0 -1.0E-7 -0.0 -1.0 -1.0E-7 -0.0 -1.0 -1.0E-7 -0.0 -1.0 -1.0E-7 -0.0 -1.0 -1.0E-7 -0.0 -1.0 -1.0E-7 -0.0 -1.0 -1.0E-7 -0.0 -1.0 -1.0E-7 -0.0 -1.0 -1.0E-7 -0.0 -1.0 -1.0E-7 -0.0 -1.0 -1.0E-7 -0.0 -1.0 -1.0E-7 -0.0 -1.0 -1.0E-7 -0.0 -1.0 -1.0E-7 -0.0 -1.0 0.0 0.0 1.0 0.0 0.0 1.0 0.0 0.0 1.0 0.438438 -0.2403589 0.8660253 0.438438 -0.2403589 0.8660253 0.438438 -0.2403589 0.8660253 0.4384402 -0.2403591 0.8660241 0.4384402 -0.2403591 0.8660241 0.4384402 -0.2403591 0.8660241 -0.4807182 -0.8768751 -1.0E-7 -0.4807182 -0.8768751 -1.0E-7 -0.4807182 -0.8768751 -1.0E-7 -0.4807183 -0.876875 0.0 -0.4807183 -0.876875 0.0 -0.4807183 -0.876875 0.0 -0.4807184 -0.876875 1.0E-7 -0.4807184 -0.876875 1.0E-7 -0.4807184 -0.876875 1.0E-7 -0.876875 0.4807184 9.5E-6 -0.876875 0.4807184 9.5E-6 -0.876875 0.4807184 9.5E-6 -0.8768917 0.4806879 -1.0E-7 -0.8768917 0.4806879 -1.0E-7 -0.8768917 0.4806879 -1.0E-7 -0.4384398 0.2403556 0.8660253 -0.4384398 0.2403556 0.8660253 -0.4384398 0.2403556 0.8660253 -0.4384386 0.240361 0.8660244 -0.4384386 0.240361 0.8660244 -0.4384386 0.240361 0.8660244 -0.4384348 0.2403561 0.8660276 -0.4384348 0.2403561 0.8660276 -0.4384348 0.2403561 0.8660276 -0.4807184 -0.876875 2.0E-7 -0.4807184 -0.876875 2.0E-7 -0.4807184 -0.876875 2.0E-7 -0.4807184 -0.876875 0.0 -0.4807184 -0.876875 0.0 -0.4807184 -0.876875 0.0 -0.4807183 -0.8768752 -1.0E-7 -0.4807183 -0.8768752 -1.0E-7 -0.4807183 -0.8768752 -1.0E-7 0.8768415 -0.4807795 -9.6E-6 0.8768415 -0.4807795 -9.6E-6 0.8768415 -0.4807795 -9.6E-6 0.8768752 -0.4807181 1.0E-7 0.8768752 -0.4807181 1.0E-7 0.8768752 -0.4807181 1.0E-7 -1.0E-7 -0.0 -1.0 -1.0E-7 -0.0 -1.0 -1.0E-7 -0.0 -1.0 -1.0E-7 -0.0 -1.0 -1.0E-7 -0.0 -1.0 -1.0E-7 -0.0 -1.0 -1.0E-7 -0.0 -1.0 -1.0E-7 -0.0 -1.0 -1.0E-7 -0.0 -1.0 -1.0E-7 -0.0 -1.0 -1.0E-7 -0.0 -1.0 -1.0E-7 -0.0 -1.0 -1.0E-7 -0.0 -1.0 -1.0E-7 -0.0 -1.0 -1.0E-7 -0.0 -1.0</float_array>
                    <technique_common>
                        <accessor count="87" source="#geometry0-normal-array" stride="3">
                            <param name="X" type="float"/>
                            <param name="Y" type="float"/>
                            <param name="Z" type="float"/>
                        </accessor>
                    </technique_common>
                </source>
                <source id="geometry0-texCoords">
                    <float_array id="geometry0-texCoords-array" count="0"></float_array>
                    <technique_common>
                        <accessor count="0" source="#geometry0-texCoords-array" stride="2">
                            <param name="S" type="float"/>
                            <param name="T" type="float"/>
                        </accessor>
                    </technique_common>
                </source>
                <vertices id="geometry0-vertex">
                    <input semantic="POSITION" source="#geometry0-position"/>
                </vertices>
                <triangles count="23" material="default_ai_0.2_sh_0.2_tr_0.0_dc_r_0.8_g_0.8_b_0.8_sc_r_1.0_g_1.0_b_1.0_ec_r_0.0_g_0.0_b_0_tri">
                    <input offset="0" semantic="VERTEX" source="#geometry0-vertex"/>
                    <input offset="1" semantic="NORMAL" source="#geometry0-normal"/>
                    <p>29 0 30 1 31 2 27 3 31 4 28 5 29 6 31 7 27 8 30 9 32 10 31 11 33 12 32 13 30 14 32 15 33 16 34 17 25 18 35 19 36 20 22 21 35 22 25 23 13 33 14 34 15 35 16 36 14 37 13 38 17 39 14 40 16 41 18 42 15 43 19 44 13 45 15 46 18 47 8 57 9 58 10 59 11 60 9 61 8 62 12 63 9 64 11 65 20 66 14 67 17 68 21 69 14 70 20 71 22 72 23 73 24 74 25 75 23 76 22 77 26 78 27 79 28 80 23 81 28 82 24 83 26 84 28 85 23 86</p>
                </triangles>
                <triangles count="6" material="default_ai_0.2_sh_0.2_tr_0.0_dc_r_1.0_g_0.2_b_0.2_sc_r_1.0_g_1.0_b_1.0_ec_r_0.0_g_0.0_b_0_tri">
                    <input offset="0" semantic="VERTEX" source="#geometry0-vertex"/>
                    <input offset="1" semantic="NORMAL" source="#geometry0-normal"/>
                    <p>0 24 1 25 2 26 3 27 1 28 0 29 4 30 1 31 3 32 5 48 3 49 6 50 7 51 3 52 5 53 4 54 3 55 7 56</p>
                </triangles>
            </mesh>
        </geometry>
    </library_geometries>
    <library_visual_scenes>
        <visual_scene id="Building_pb-b317c25f-7f55-11f0-b571-9c7bef4dcf4c">
            <node>
                <instance_geometry url="#geometry0">
                    <bind_material>
                        <technique_common>
                            <instance_material symbol="default_ai_0.2_sh_0.2_tr_0.0_dc_r_0.8_g_0.8_b_0.8_sc_r_1.0_g_1.0_b_1.0_ec_r_0.0_g_0.0_b_0_tri" target="#default_ai_0.2_sh_0.2_tr_0.0_dc_r_0.8_g_0.8_b_0.8_sc_r_1.0_g_1.0_b_1.0_ec_r_0.0_g_0.0_b_0_mat"/>
                            <instance_material symbol="default_ai_0.2_sh_0.2_tr_0.0_dc_r_1.0_g_0.2_b_0.2_sc_r_1.0_g_1.0_b_1.0_ec_r_0.0_g_0.0_b_0_tri" target="#default_ai_0.2_sh_0.2_tr_0.0_dc_r_1.0_g_0.2_b_0.2_sc_r_1.0_g_1.0_b_1.0_ec_r_0.0_g_0.0_b_0_mat"/>
                        </technique_common>
                    </bind_material>
                </instance_geometry>
            </node>
        </visual_scene>
    </library_visual_scenes>
    <scene>
        <instance_visual_scene url="#Building_pb-b317c25f-7f55-11f0-b571-9c7bef4dcf4c"/>
    </scene>
</COLLADA>
