<?xml version="1.0" encoding="UTF-8" standalone="yes"?>
<COLLADA xmlns="http://www.collada.org/2005/11/COLLADASchema" version="1.4.1">
    <asset>
        <contributor>
            <authoring_tool>3D City Database Importer/Exporter, version 5.5.1; Chair of Geoinformatics, Technical University of Munich</authoring_tool>
        </contributor>
        <created>2026-01-16T16:51:34.121</created>
        <modified>2026-01-16T16:51:34.121</modified>
        <unit meter="1.0" name="meters"/>
        <up_axis>Z_UP</up_axis>
    </asset>
    <library_materials>
        <material id="default_ai_0.2_sh_0.2_tr_0.0_dc_r_0.8_g_0.8_b_0.8_sc_r_1.0_g_1.0_b_1.0_ec_r_0.0_g_0.0_b_0_mat">
            <instance_effect url="#default_ai_0.2_sh_0.2_tr_0.0_dc_r_0.8_g_0.8_b_0.8_sc_r_1.0_g_1.0_b_1.0_ec_r_0.0_g_0.0_b_0_eff"/>
        </material>
        <material id="default_ai_0.2_sh_0.2_tr_0.0_dc_r_1.0_g_0.2_b_0.2_sc_r_1.0_g_1.0_b_1.0_ec_r_0.0_g_0.0_b_0_mat">
            <instance_effect url="#default_ai_0.2_sh_0.2_tr_0.0_dc_r_1.0_g_0.2_b_0.2_sc_r_1.0_g_1.0_b_1.0_ec_r_0.0_g_0.0_b_0_eff"/>
        </material>
    </library_materials>
    <library_effects>
        <effect id="default_ai_0.2_sh_0.2_tr_0.0_dc_r_0.8_g_0.8_b_0.8_sc_r_1.0_g_1.0_b_1.0_ec_r_0.0_g_0.0_b_0_eff">
            <profile_COMMON>
                <technique sid="COMMON">
                    <lambert>
                        <emission>
                            <color>0.0 0.0 0.0 1.0</color>
                        </emission>
                        <diffuse>
                            <color>0.8 0.8 0.8 1.0</color>
                        </diffuse>
                        <reflective>
                            <color>1.0 1.0 1.0 1.0</color>
                        </reflective>
                        <reflectivity>
                            <float>0.2</float>
                        </reflectivity>
                        <transparent opaque="A_ONE">
                            <color>1.0 1.0 1.0 1.0</color>
                        </transparent>
                        <transparency>
                            <float>1.0</float>
                        </transparency>
                    </lambert>
                </technique>
                <extra>
                    <technique profile="GOOGLEEARTH">
                        <double_sided>1</double_sided>
                    </technique>
                </extra>
            </profile_COMMON>
        </effect>
        <effect id="default_ai_0.2_sh_0.2_tr_0.0_dc_r_1.0_g_0.2_b_0.2_sc_r_1.0_g_1.0_b_1.0_ec_r_0.0_g_0.0_b_0_eff">
            <profile_COMMON>
                <technique sid="COMMON">
                    <lambert>
                        <emission>
                            <color>0.0 0.0 0.0 1.0</color>
                        </emission>
                        <diffuse>
                            <color>1.0 0.2 0.2 1.0</color>
                        </diffuse>
                        <reflective>
                            <color>1.0 1.0 1.0 1.0</color>
                        </reflective>
                        <reflectivity>
                            <float>0.2</float>
                        </reflectivity>
                        <transparent opaque="A_ONE">
                            <color>1.0 1.0 1.0 1.0</color>
                        </transparent>
                        <transparency>
                            <float>1.0</float>
                        </transparency>
                    </lambert>
                </technique>
                <extra>
                    <technique profile="GOOGLEEARTH">
                        <double_sided>1</double_sided>
                    </technique>
                </extra>
            </profile_COMMON>
        </effect>
    </library_effects>
    <library_geometries>
        <geometry id="geometry0">
            <mesh>
                <source id="geometry0-position">
                    <float_array id="geometry0-position-array" count="123">-2.6643065 9.9577088 7.8340374 -1.8461921 11.7829291 6.6677264 -1.8471619 11.7828016 6.6680253 4.0863633 9.1268314 6.6677207 -2.9654373 9.2851331 8.263731 -3.4814928 8.1325229 9.0001086 -3.4807324 8.1321826 9.0001086 -0.2863062 6.7019901 9.0001043 2.4517941 5.4760866 9.0001091 -1.9208379 3.051178 8.0000564 -3.4807439 8.1321564 9.0000583 -5.1152959 4.481369 8.0000574 -0.2863165 6.7019653 9.0000574 -5.0E-7 -1.221E-4 6.4196393 -2.7381292 1.2257996 6.4196393 2.4517817 5.476059 9.0000574 -2.7381566 1.2258002 6.4196409 -5.08E-5 -1.138E-4 6.0E-5 -5.08E-5 -1.062E-4 6.4196414 -2.738149 1.2258002 5.96E-5 -1.9208806 3.0512015 6.0E-5 -1.9208806 3.0512015 7.2797803 -5.1153157 4.4814154 8.0000586 -5.1153157 4.4814154 7.2804479 -1.920873 3.0512015 8.0000576 -5.1153157 4.4814154 5.98E-5 -5.9325917 2.6560294 6.4206423 -5.9325917 2.6560294 6.09E-5 -3.4807866 8.1322104 9.0000586 -0.2863515 6.7019812 9.0000576 -1.8462346 11.7829978 6.6677269 4.0862987 9.1268698 6.07E-5 -1.846227 11.7829978 6.07E-5 4.0863139 9.1268546 6.6677217 2.4517467 5.4760749 9.0000586 4.0863342 9.1269226 6.0E-7 -1.9208679 3.0512848 2.0E-7 -5.1152954 4.4815063 6.0E-7 0.0 0.0 0.0 -2.7381287 1.2258453 3.0E-7 -1.8462219 11.7830811 1.2E-6</float_array>
                    <technique_common>
                        <accessor count="41" source="#geometry0-position-array" stride="3">
                            <param name="X" type="float"/>
                            <param name="Y" type="float"/>
                            <param name="Z" type="float"/>
                        </accessor>
                    </technique_common>
                </source>
                <source id="geometry0-normal">
                    <float_array id="geometry0-normal-array" count="306">0.9126959 -0.4086393 0.0 0.9126959 -0.4086393 0.0 0.9126959 -0.4086393 0.0 0.9126977 -0.4086353 1.4E-6 0.9126977 -0.4086353 1.4E-6 0.9126977 -0.4086353 1.4E-6 0.3268645 0.2806771 -0.9024301 0.3268645 0.2806771 -0.9024301 0.3268645 0.2806771 -0.9024301 0.4086356 0.9126976 5.0E-7 0.4086356 0.9126976 5.0E-7 0.4086356 0.9126976 5.0E-7 0.4086363 0.9126973 1.2E-6 0.4086363 0.9126973 1.2E-6 0.4086363 0.9126973 1.2E-6 -0.4086339 -0.9126984 1.1E-6 -0.4086339 -0.9126984 1.1E-6 -0.4086339 -0.9126984 1.1E-6 -0.408637 -0.912697 -5.0E-7 -0.408637 -0.912697 -5.0E-7 -0.408637 -0.912697 -5.0E-7 0.2057383 0.4597903 0.8638661 0.2057383 0.4597903 0.8638661 0.2057383 0.4597903 0.8638661 0.2058365 0.4597463 0.8638662 0.2058365 0.4597463 0.8638662 0.2058365 0.4597463 0.8638662 0.2058365 0.4597466 0.863866 0.2058365 0.4597466 0.863866 0.2058365 0.4597466 0.863866 0.2056291 0.4604995 0.8635142 0.2056291 0.4604995 0.8635142 0.2056291 0.4604995 0.8635142 0.2058365 0.4597464 0.8638661 0.2058365 0.4597464 0.8638661 0.2058365 0.4597464 0.8638661 0.2058366 0.4597462 0.8638662 0.2058366 0.4597462 0.8638662 0.2058366 0.4597462 0.8638662 0.912697 -0.4086371 8.6E-6 0.912697 -0.4086371 8.6E-6 0.912697 -0.4086371 8.6E-6 0.2058364 0.4597465 0.863866 0.2058364 0.4597465 0.863866 0.2058364 0.4597465 0.863866 0.912697 -0.4086369 5.0E-7 0.912697 -0.4086369 5.0E-7 0.912697 -0.4086369 5.0E-7 0.9127002 -0.4086301 -9.6E-6 0.9127002 -0.4086301 -9.6E-6 0.9127002 -0.4086301 -9.6E-6 0.912698 -0.4086348 -3.0E-6 0.912698 -0.4086348 -3.0E-6 0.912698 -0.4086348 -3.0E-6 -0.9126973 0.4086365 0.0 -0.9126973 0.4086365 0.0 -0.9126973 0.4086365 0.0 -0.9126987 0.4086332 -1.1E-6 -0.9126987 0.4086332 -1.1E-6 -0.9126987 0.4086332 -1.1E-6 -1.0E-7 1.0E-7 -1.0 -1.0E-7 1.0E-7 -1.0 -1.0E-7 1.0E-7 -1.0 -0.0 1.0E-7 -1.0 -0.0 1.0E-7 -1.0 -0.0 1.0E-7 -1.0 -1.0E-7 0.0 -1.0 -1.0E-7 0.0 -1.0 -1.0E-7 0.0 -1.0 -0.0991062 -0.221363 0.9701425 -0.0991062 -0.221363 0.9701425 -0.0991062 -0.221363 0.9701425 -1.0E-7 1.0E-7 -1.0 -1.0E-7 1.0E-7 -1.0 -1.0E-7 1.0E-7 -1.0 -0.0991072 -0.2213633 0.9701422 -0.0991072 -0.2213633 0.9701422 -0.0991072 -0.2213633 0.9701422 -0.9126991 0.4086324 0.0 -0.9126991 0.4086324 0.0 -0.9126991 0.4086324 0.0 -0.4086337 -0.9126984 0.0 -0.4086337 -0.9126984 0.0 -0.4086337 -0.9126984 0.0 -0.4086336 -0.9126985 0.0 -0.4086336 -0.9126985 0.0 -0.4086336 -0.9126985 0.0 -0.4086328 -0.9126988 4.4E-6 -0.4086328 -0.9126988 4.4E-6 -0.4086328 -0.9126988 4.4E-6 -0.4086337 -0.9126985 0.0 -0.4086337 -0.9126985 0.0 -0.4086337 -0.9126985 0.0 -0.1614448 -0.3605912 0.9186455 -0.1614448 -0.3605912 0.9186455 -0.1614448 -0.3605912 0.9186455 -0.1614446 -0.3605912 0.9186456 -0.1614446 -0.3605912 0.9186456 -0.1614446 -0.3605912 0.9186456 -0.912699 0.4086324 0.0 -0.912699 0.4086324 0.0 -0.912699 0.4086324 0.0</float_array>
                    <technique_common>
                        <accessor count="102" source="#geometry0-normal-array" stride="3">
                            <param name="X" type="float"/>
                            <param name="Y" type="float"/>
                            <param name="Z" type="float"/>
                        </accessor>
                    </technique_common>
                </source>
                <source id="geometry0-texCoords">
                    <float_array id="geometry0-texCoords-array" count="0"></float_array>
                    <technique_common>
                        <accessor count="0" source="#geometry0-texCoords-array" stride="2">
                            <param name="S" type="float"/>
                            <param name="T" type="float"/>
                        </accessor>
                    </technique_common>
                </source>
                <vertices id="geometry0-vertex">
                    <input semantic="POSITION" source="#geometry0-position"/>
                </vertices>
                <triangles count="23" material="default_ai_0.2_sh_0.2_tr_0.0_dc_r_0.8_g_0.8_b_0.8_sc_r_1.0_g_1.0_b_1.0_ec_r_0.0_g_0.0_b_0_tri">
                    <input offset="0" semantic="VERTEX" source="#geometry0-vertex"/>
                    <input offset="1" semantic="NORMAL" source="#geometry0-normal"/>
                    <p>25 0 26 1 27 2 28 3 26 4 25 5 23 6 26 7 28 8 30 9 31 10 32 11 33 12 31 13 30 14 16 15 17 16 18 17 19 18 17 19 16 20 18 39 33 40 34 41 17 45 33 46 18 47 21 48 29 49 24 50 31 51 33 52 17 53 20 54 16 55 21 56 19 57 16 58 20 59 35 60 36 61 37 62 38 63 36 64 35 65 39 66 36 67 38 68 40 72 35 73 37 74 28 78 25 79 23 80 20 81 22 82 23 83 21 84 22 85 20 86 24 87 22 88 21 89 25 90 20 91 23 92 22 99 28 100 23 101</p>
                </triangles>
                <triangles count="11" material="default_ai_0.2_sh_0.2_tr_0.0_dc_r_1.0_g_0.2_b_0.2_sc_r_1.0_g_1.0_b_1.0_ec_r_0.0_g_0.0_b_0_tri">
                    <input offset="0" semantic="VERTEX" source="#geometry0-vertex"/>
                    <input offset="1" semantic="NORMAL" source="#geometry0-normal"/>
                    <p>0 21 1 22 2 23 3 24 1 25 0 26 3 27 0 28 4 29 3 30 5 31 6 32 4 33 5 34 3 35 3 36 6 37 7 38 3 42 7 43 8 44 9 69 10 70 11 71 12 75 10 76 9 77 13 93 12 94 14 95 15 96 12 97 13 98</p>
                </triangles>
            </mesh>
        </geometry>
    </library_geometries>
    <library_visual_scenes>
        <visual_scene id="Building_pb-9635e7ea-7f36-11f0-af8d-9c7bef4dcf4c">
            <node>
                <instance_geometry url="#geometry0">
                    <bind_material>
                        <technique_common>
                            <instance_material symbol="default_ai_0.2_sh_0.2_tr_0.0_dc_r_0.8_g_0.8_b_0.8_sc_r_1.0_g_1.0_b_1.0_ec_r_0.0_g_0.0_b_0_tri" target="#default_ai_0.2_sh_0.2_tr_0.0_dc_r_0.8_g_0.8_b_0.8_sc_r_1.0_g_1.0_b_1.0_ec_r_0.0_g_0.0_b_0_mat"/>
                            <instance_material symbol="default_ai_0.2_sh_0.2_tr_0.0_dc_r_1.0_g_0.2_b_0.2_sc_r_1.0_g_1.0_b_1.0_ec_r_0.0_g_0.0_b_0_tri" target="#default_ai_0.2_sh_0.2_tr_0.0_dc_r_1.0_g_0.2_b_0.2_sc_r_1.0_g_1.0_b_1.0_ec_r_0.0_g_0.0_b_0_mat"/>
                        </technique_common>
                    </bind_material>
                </instance_geometry>
            </node>
        </visual_scene>
    </library_visual_scenes>
    <scene>
        <instance_visual_scene url="#Building_pb-9635e7ea-7f36-11f0-af8d-9c7bef4dcf4c"/>
    </scene>
</COLLADA>
