<?xml version="1.0" encoding="UTF-8" standalone="yes"?>
<COLLADA xmlns="http://www.collada.org/2005/11/COLLADASchema" version="1.4.1">
    <asset>
        <contributor>
            <authoring_tool>3D City Database Importer/Exporter, version 5.5.1; Chair of Geoinformatics, Technical University of Munich</authoring_tool>
        </contributor>
        <created>2026-01-16T16:51:35.070</created>
        <modified>2026-01-16T16:51:35.070</modified>
        <unit meter="1.0" name="meters"/>
        <up_axis>Z_UP</up_axis>
    </asset>
    <library_materials>
        <material id="default_ai_0.2_sh_0.2_tr_0.0_dc_r_0.8_g_0.8_b_0.8_sc_r_1.0_g_1.0_b_1.0_ec_r_0.0_g_0.0_b_0_mat">
            <instance_effect url="#default_ai_0.2_sh_0.2_tr_0.0_dc_r_0.8_g_0.8_b_0.8_sc_r_1.0_g_1.0_b_1.0_ec_r_0.0_g_0.0_b_0_eff"/>
        </material>
        <material id="default_ai_0.2_sh_0.2_tr_0.0_dc_r_1.0_g_0.2_b_0.2_sc_r_1.0_g_1.0_b_1.0_ec_r_0.0_g_0.0_b_0_mat">
            <instance_effect url="#default_ai_0.2_sh_0.2_tr_0.0_dc_r_1.0_g_0.2_b_0.2_sc_r_1.0_g_1.0_b_1.0_ec_r_0.0_g_0.0_b_0_eff"/>
        </material>
    </library_materials>
    <library_effects>
        <effect id="default_ai_0.2_sh_0.2_tr_0.0_dc_r_0.8_g_0.8_b_0.8_sc_r_1.0_g_1.0_b_1.0_ec_r_0.0_g_0.0_b_0_eff">
            <profile_COMMON>
                <technique sid="COMMON">
                    <lambert>
                        <emission>
                            <color>0.0 0.0 0.0 1.0</color>
                        </emission>
                        <diffuse>
                            <color>0.8 0.8 0.8 1.0</color>
                        </diffuse>
                        <reflective>
                            <color>1.0 1.0 1.0 1.0</color>
                        </reflective>
                        <reflectivity>
                            <float>0.2</float>
                        </reflectivity>
                        <transparent opaque="A_ONE">
                            <color>1.0 1.0 1.0 1.0</color>
                        </transparent>
                        <transparency>
                            <float>1.0</float>
                        </transparency>
                    </lambert>
                </technique>
                <extra>
                    <technique profile="GOOGLEEARTH">
                        <double_sided>1</double_sided>
                    </technique>
                </extra>
            </profile_COMMON>
        </effect>
        <effect id="default_ai_0.2_sh_0.2_tr_0.0_dc_r_1.0_g_0.2_b_0.2_sc_r_1.0_g_1.0_b_1.0_ec_r_0.0_g_0.0_b_0_eff">
            <profile_COMMON>
                <technique sid="COMMON">
                    <lambert>
                        <emission>
                            <color>0.0 0.0 0.0 1.0</color>
                        </emission>
                        <diffuse>
                            <color>1.0 0.2 0.2 1.0</color>
                        </diffuse>
                        <reflective>
                            <color>1.0 1.0 1.0 1.0</color>
                        </reflective>
                        <reflectivity>
                            <float>0.2</float>
                        </reflectivity>
                        <transparent opaque="A_ONE">
                            <color>1.0 1.0 1.0 1.0</color>
                        </transparent>
                        <transparency>
                            <float>1.0</float>
                        </transparency>
                    </lambert>
                </technique>
                <extra>
                    <technique profile="GOOGLEEARTH">
                        <double_sided>1</double_sided>
                    </technique>
                </extra>
            </profile_COMMON>
        </effect>
    </library_effects>
    <library_geometries>
        <geometry id="geometry0">
            <mesh>
                <source id="geometry0-position">
                    <float_array id="geometry0-position-array" count="894">6.4805526 37.0077782 14.1000275 -0.9590836 22.3780212 14.1000275 6.9770049 37.9828606 14.1000275 -8.9092561 6.7803268 14.1000275 -8.852234 6.8575058 14.1000275 6.8622703 37.722683 14.1000275 5.2087745 38.8830986 14.1000275 -10.6774598 7.6805878 14.1000275 -4.9012986 2.4954376 17.6000275 -9.8167039 4.9980392 14.1000275 11.8923988 35.4802322 17.6000275 14.6083984 40.8147736 17.6000275 3.81E-5 2.29E-5 14.1000275 19.5041084 38.3222046 14.1000275 2.5327987 40.225441 17.6000275 5.2456931 45.5816345 17.6000275 5.2031936 38.8859596 17.6000275 -4.8247299 2.4564667 17.545349 0.0 0.0 0.0 -1.53E-5 7.6E-6 14.1000174 -4.9013214 2.49543 17.6000231 -4.9546204 2.5225143 17.5619715 -5.0078506 2.5496979 17.5239447 -5.0611572 2.5767822 17.4858797 -5.114418 2.60392 17.4478415 -5.1676788 2.6310501 17.4098032 -5.2209854 2.6581345 17.3717516 -5.2742462 2.6852646 17.3337134 -5.3807831 2.7395401 17.2576216 -5.4340744 2.7666855 17.2195872 -5.4873428 2.7937546 17.1815318 -5.5938797 2.8480225 17.1054419 -5.6471634 2.8751678 17.0674189 -5.7004089 2.9022903 17.0293501 -5.8069992 2.9565201 16.9532774 -5.86026 2.9836578 16.9152373 -5.9135666 3.0107422 16.8771723 -5.9668045 3.0379257 16.8391341 -6.0200958 3.0650101 16.8010958 -6.0733566 3.0921402 16.7630576 -6.1266403 3.1192856 16.7250346 -6.183609 3.1482544 16.6869849 -6.2864838 3.2006454 16.6108797 -6.3397369 3.2277756 16.5728529 -6.3973083 3.2570648 16.5348051 -6.446312 3.2819901 16.4967497 -6.4995728 3.3091278 16.4587115 -6.5528412 3.3362579 16.4206599 -6.6110306 3.3658905 16.3826426 -6.6593781 3.3905334 16.34457 -6.7126923 3.4176254 16.306547 -6.7659607 3.4447632 16.2684954 -6.8247147 3.4746857 16.2304476 -6.9257584 3.5261612 16.1543654 -6.9790573 3.5532455 16.1163271 -7.0384369 3.5835037 16.078287 -7.0856094 3.6075211 16.0402525 -7.1388855 3.6345978 16.0021857 -7.1921463 3.6617966 15.9641627 -7.2521591 3.6923294 15.9261235 -7.2987137 3.716011 15.8880595 -7.3519745 3.7431488 15.8500203 -7.4052734 3.7702255 15.811982 -7.5650787 3.8516312 15.6978396 -7.6083603 3.873642 15.6724842 -7.6716309 3.9058456 15.6217621 -7.7248764 3.9330368 15.5837105 -7.7781982 3.9601288 15.5456751 -7.8220596 3.9824524 15.5203055 -7.8933258 4.0187149 15.4695919 -7.9912949 4.0686188 15.3934945 -8.0357819 4.0912704 15.3681439 -8.1070023 4.1275787 15.3174132 -8.2043915 4.1771011 15.2413128 -8.2494888 4.2000809 15.2159651 -8.3207397 4.2363358 15.165222 -8.3642044 4.2584457 15.1271971 -8.41745 4.2856369 15.0891455 -8.4707718 4.3127365 15.0511101 -8.534462 4.3451614 15.0130595 -8.5773087 4.3670044 14.9750193 -8.6305771 4.3940735 14.9369639 -8.6838303 4.4212723 14.8989418 -8.7481689 4.4539719 14.8608807 -8.8436661 4.5026245 14.7847994 -8.8969574 4.5297012 14.7467612 -8.9618683 4.5627747 14.7087019 -9.1100311 4.6382446 14.5945805 -9.2698822 4.7196045 14.4804543 -9.3231735 4.7466888 14.4424151 -9.3764114 4.7738724 14.4043768 -9.4605331 4.816658 14.3536442 -9.5317764 4.8529816 14.3029173 -9.5895462 4.882309 14.2521828 -9.6427994 4.9095078 14.2141608 -9.6960907 4.9365845 14.1761216 -9.7455063 4.961731 14.150751 -9.8026199 4.9908524 7.0E-7 -9.8026352 4.99086 14.1000184 -9.5444946 5.532692 14.1000164 -9.7728577 5.0505142 14.1000298 -9.5304108 5.5255203 14.1000136 -9.5606613 5.4661102 14.1000164 -9.5909042 5.4067001 14.1000317 -9.6514053 5.2878952 14.1000231 -9.681633 5.2284775 14.1000088 -9.7421341 5.1096725 14.1000136 -9.514267 5.5921097 14.1000307 -9.3186798 5.9414291 14.1000298 -9.4699097 5.6443253 14.1000088 -9.5001831 5.5849304 14.1000279 -9.1976776 6.1790466 14.1000212 -9.2117615 6.1862259 14.1000231 -9.1815338 6.2456436 14.1000374 -9.151268 6.3050308 14.1000184 -9.0302887 6.5426636 14.100026 -8.9697876 6.6614761 14.1000212 -8.9390945 6.7206421 14.1000212 -8.895195 6.7731705 14.1000307 -8.8951797 6.7731628 1.27E-5 -10.6775208 7.680542 14.1000222 -10.6775055 7.6805344 4.8E-6 5.2079277 38.8835182 16.3580855 5.2063599 38.8842888 15.5959834 5.208744 38.8830795 15.6947707 5.2079277 38.8835182 16.3768958 5.2061005 38.8844261 15.5480603 5.2064095 38.8842659 15.5650824 5.2050629 38.8849792 16.4145354 5.2050362 38.8849983 16.4278143 5.2051086 38.8849564 16.3863066 5.2051315 38.8849411 16.372198 5.2051506 38.8849297 16.3580779 5.2051544 38.8849297 16.3439864 5.2051964 38.8849068 16.3298491 5.205265 38.8848686 16.2875117 5.2052917 38.8848572 16.2734049 5.2053108 38.8848457 16.2592829 5.2053604 38.884819 16.2310675 5.2053833 38.8848076 16.2028559 5.2054253 38.8847847 16.1887186 5.2055893 38.884697 16.0899371 5.2056007 38.8846931 15.9588211 5.2058754 38.8845444 15.8923529 5.2059898 38.8844833 15.8217877 5.2060432 38.8844566 15.7935713 5.2060852 38.8844337 15.7653426 5.208744 38.8830833 16.5415457 5.2087517 38.8830757 16.6544512 5.203949 38.8855743 16.5578421 5.2087593 38.8830757 16.4145296 5.2087517 38.8830757 16.9084776 5.2087479 38.8830795 16.7955836 5.2087364 38.8830872 16.7250193 5.2033424 38.8858261 17.4870909 5.2087517 38.8830795 17.6000155 5.2032318 38.8858871 17.5435637 5.203373 38.8858109 17.4588908 5.2034225 38.8857841 17.4306754 5.2035103 38.8857384 17.3742178 5.2036972 38.8856392 17.2613161 5.2065849 38.8841667 17.2048491 5.208744 38.8830833 17.1342944 5.2087669 38.8830719 16.9790419 11.8923531 35.4802284 17.6000231 5.2087669 38.8830681 16.2875021 5.2087669 38.8830681 14.8903225 6.976963 37.98283 14.1000336 5.2087631 38.8830719 14.7774285 5.2087631 38.8830719 14.283469 5.2087593 38.8830719 14.4810475 5.2087593 38.8830757 14.3681534 5.2087555 38.8830757 14.4104966 5.2087517 38.8830795 14.3963917 5.2080612 38.8834457 14.5099839 5.2080421 38.8834572 14.4824351 5.2080994 38.8834267 14.4550837 5.208107 38.8834229 14.4689673 5.2087517 38.8830795 14.551628 5.2087555 38.8830757 14.5092858 5.2087326 38.8830872 14.7209853 5.2087326 38.8830872 14.622196 5.2087479 38.8830795 14.1000107 5.2087479 38.8830795 14.255247 5.2084732 38.8832283 14.2089995 5.2064896 38.8842163 15.5112971 5.206543 38.8841896 15.4830817 5.206562 38.8841782 15.4548691 5.2066116 38.8841515 15.4407452 5.2066574 38.8841286 15.4125164 5.2066994 38.8841057 15.3842877 5.2067451 38.884079 15.3560589 5.2067871 38.8840561 15.3278302 5.2067909 38.8840561 15.3137387 5.2068367 38.8840332 15.2855099 5.2068825 38.8840065 15.271386 5.2069054 38.8839951 15.2431734 5.2069244 38.8839836 15.2290524 5.2069702 38.8839607 15.2008236 5.207386 38.8837357 14.9468039 5.2081985 38.8833733 14.4142798 5.2081642 38.8833923 14.4416159 5.2070847 38.8838997 14.3140677 5.2059364 38.8845139 15.6849841 5.2059326 38.8845139 15.7261885 5.2059135 38.8845253 15.6574353 5.205574 38.8847046 16.0548972 5.2055664 38.8847122 15.9861563 5.2055626 38.8847122 15.9311875 5.2036438 38.8856697 17.2168253 5.2036362 38.8856697 17.0793169 5.2050591 38.8849792 16.4004305 5.205307 38.8848495 16.24518 5.2055588 38.8847122 15.9023961 5.2055244 38.8847313 15.903549 5.205555 38.884716 15.8211249 5.2055817 38.8847008 15.9017208 5.2066536 38.8841286 15.3984116 5.2066956 38.8841057 15.3701828 5.2068787 38.8840065 15.2572812 5.2069397 38.883976 15.1386994 5.208744 38.8830833 14.3399323 5.2083855 38.8832741 14.1261919 5.2040596 38.8855133 17.0496062 5.2043724 38.8853493 16.5043085 5.208744 38.8830833 14.8338917 5.2087517 38.8830757 14.4528387 5.2039108 38.8855934 16.4476679 5.2050362 38.8849907 16.4286421 5.2031631 38.8859215 1.19E-5 5.2059555 38.8845024 7.0500115 5.2047615 38.8851395 13.8656453 5.2038803 38.8856125 10.5625122 5.2045517 38.8852539 7.9250368 5.207592 38.8836288 13.4359644 5.2073517 38.8837547 11.6750201 5.2075272 38.8836632 12.1156271 5.2038765 38.8856125 6.1625245 5.2038651 38.8856163 12.7625082 5.2051773 38.8849182 15.7922047 5.2051506 38.8849335 16.1496333 5.2053032 38.8848495 16.0402602 5.2053146 38.8848457 15.9812745 5.2054176 38.8847885 16.1230524 5.2055855 38.884697 14.0252407 5.2057953 38.8845863 15.9488228 5.2053299 38.8848343 15.9027489 5.2066422 38.8841324 15.3085812 5.2049942 38.8850174 15.9015807 5.2049408 38.8850441 15.791437 5.2050591 38.8849831 16.1219004 5.2049141 38.8850594 13.2062643 5.2069016 38.8839951 14.9734515 5.2056313 38.8846779 16.0589636 5.2059479 38.88451 15.8584097 5.2034988 38.885746 11.8812521 5.2070274 38.8839684 16.3733538 5.2038536 38.8856239 16.832445 5.20327 38.8858681 17.5042475 5.2033005 38.885849 17.4355734 5.2032623 38.8858719 17.504114 5.2032967 38.8858528 17.4767779 5.2083817 38.8832664 16.8241213 5.2083244 38.8833008 16.7012595 5.208744 38.8830833 16.7958125 5.2084541 38.8832283 16.9767741 5.208744 38.8830833 16.7959994 5.2083893 38.8832588 16.8462294 5.2075233 38.8836975 16.9700106 5.2067986 38.8840523 17.0731314 5.2038803 38.8855782 17.1748713 5.2038574 38.8856239 17.1766299 5.2034264 38.8857841 17.3947543 5.2033043 38.8858452 17.5049036 5.2036438 38.8856735 17.1831702 5.2034836 38.8857536 17.18869 5.2065964 38.8841782 16.9632796 5.2059479 38.88451 15.8584088 5.2075539 38.8836899 15.086748 5.2034836 38.8857536 9.68126 5.2068138 38.8840637 13.5390595 5.2031555 38.8859291 5.8666776 5.20364 38.8856697 16.9418219 5.2456741 45.5816116 1.34E-5 2.5327911 40.2254562 17.6000193 5.2456551 45.5816193 17.6000231 2.5327835 40.2254562 2.63E-5 19.5040665 38.3221779 1.43E-5 19.5040741 38.3221741 14.1000155 14.6083641 40.8147507 17.6000021 19.5041242 38.3222504 7.3E-6 -8.8951335 6.7731781 1.05E-5 -10.6774287 7.6806183 1.07E-5 7.68E-5 5.34E-5 9.5E-6 -9.8025584 4.9909058 1.06E-5 5.2032285 38.885994 8.9E-6 2.5328526 40.2254791 9.2E-6 5.2457433 45.5816803 8.9E-6</float_array>
                    <technique_common>
                        <accessor count="298" source="#geometry0-position-array" stride="3">
                            <param name="X" type="float"/>
                            <param name="Y" type="float"/>
                            <param name="Z" type="float"/>
                        </accessor>
                    </technique_common>
                </source>
                <source id="geometry0-normal">
                    <float_array id="geometry0-normal-array" count="2970">-0.891229 0.4535535 -1.2E-6 -0.891229 0.4535535 -1.2E-6 -0.891229 0.4535535 -1.2E-6 -0.8911476 0.4537134 4.444E-4 -0.8911476 0.4537134 4.444E-4 -0.8911476 0.4537134 4.444E-4 -0.9999999 0.0 3.961E-4 -0.9999999 0.0 3.961E-4 -0.9999999 0.0 3.961E-4 -1.0E-7 -0.0 -1.0 -1.0E-7 -0.0 -1.0 -1.0E-7 -0.0 -1.0 -1.0E-7 -0.0 -1.0 -1.0E-7 -0.0 -1.0 -1.0E-7 -0.0 -1.0 -1.0E-7 0.0 -1.0 -1.0E-7 0.0 -1.0 -1.0E-7 0.0 -1.0 -1.0E-7 0.0 -1.0 -1.0E-7 0.0 -1.0 -1.0E-7 0.0 -1.0 -1.0E-7 0.0 -1.0 -1.0E-7 0.0 -1.0 -1.0E-7 0.0 -1.0 -0.4536853 -0.891162 -0.0 -0.4536853 -0.891162 -0.0 -0.4536853 -0.891162 -0.0 -1.0E-7 -0.0 -1.0 -1.0E-7 -0.0 -1.0 -1.0E-7 -0.0 -1.0 -0.4536853 -0.891162 -0.0 -0.4536853 -0.891162 -0.0 -0.4536853 -0.891162 -0.0 -0.4537183 -0.8911451 -0.0 -0.4537183 -0.8911451 -0.0 -0.4537183 -0.8911451 -0.0 -0.4533458 -0.8913347 1.291E-4 -0.4533458 -0.8913347 1.291E-4 -0.4533458 -0.8913347 1.291E-4 -0.4720578 -0.8815676 -3.0E-7 -0.4720578 -0.8815676 -3.0E-7 -0.4720578 -0.8815676 -3.0E-7 -0.472105 -0.8815423 -3.0E-7 -0.472105 -0.8815423 -3.0E-7 -0.472105 -0.8815423 -3.0E-7 -0.4531378 -0.8914404 2.018E-4 -0.4531378 -0.8914404 2.018E-4 -0.4531378 -0.8914404 2.018E-4 -0.4708378 -0.8822197 -0.0 -0.4708378 -0.8822197 -0.0 -0.4708378 -0.8822197 -0.0 -0.4546201 -0.8906854 -3.252E-4 -0.4546201 -0.8906854 -3.252E-4 -0.4546201 -0.8906854 -3.252E-4 -0.478667 -0.8779966 2.6E-6 -0.478667 -0.8779966 2.6E-6 -0.478667 -0.8779966 2.6E-6 -0.4530984 -0.8914605 2.23E-4 -0.4530984 -0.8914605 2.23E-4 -0.4530984 -0.8914605 2.23E-4 -0.4618133 -0.8869771 -4.0E-7 -0.4618133 -0.8869771 -4.0E-7 -0.4618133 -0.8869771 -4.0E-7 -0.4539419 -0.8910313 -8.47E-5 -0.4539419 -0.8910313 -8.47E-5 -0.4539419 -0.8910313 -8.47E-5 -0.4698628 -0.8827394 4.0E-7 -0.4698628 -0.8827394 4.0E-7 -0.4698628 -0.8827394 4.0E-7 -0.4538603 -0.8910729 -5.37E-5 -0.4538603 -0.8910729 -5.37E-5 -0.4538603 -0.8910729 -5.37E-5 -0.4682622 -0.8835896 7.6E-6 -0.4682622 -0.8835896 7.6E-6 -0.4682622 -0.8835896 7.6E-6 -0.4531035 -0.8914579 2.29E-4 -0.4531035 -0.8914579 2.29E-4 -0.4531035 -0.8914579 2.29E-4 -0.4679687 -0.883745 -1.7E-6 -0.4679687 -0.883745 -1.7E-6 -0.4679687 -0.883745 -1.7E-6 -0.4538603 -0.8910729 -5.75E-5 -0.4538603 -0.8910729 -5.75E-5 -0.4538603 -0.8910729 -5.75E-5 -0.4538976 -0.8910539 -7.26E-5 -0.4538976 -0.8910539 -7.26E-5 -0.4538976 -0.8910539 -7.26E-5 -0.4538524 -0.8910769 -5.52E-5 -0.4538524 -0.8910769 -5.52E-5 -0.4538524 -0.8910769 -5.52E-5 -0.4531525 -0.8914329 2.239E-4 -0.4531525 -0.8914329 2.239E-4 -0.4531525 -0.8914329 2.239E-4 -0.4538557 -0.8910752 -5.9E-5 -0.4538557 -0.8910752 -5.9E-5 -0.4538557 -0.8910752 -5.9E-5 -0.4538944 -0.8910555 -7.56E-5 -0.4538944 -0.8910555 -7.56E-5 -0.4538944 -0.8910555 -7.56E-5 -0.4538583 -0.8910738 -5.9E-5 -0.4538583 -0.8910738 -5.9E-5 -0.4538583 -0.8910738 -5.9E-5 -0.4535039 -0.8912543 8.92E-5 -0.4535039 -0.8912543 8.92E-5 -0.4535039 -0.8912543 8.92E-5 -0.4763819 -0.8792384 5.0E-7 -0.4763819 -0.8792384 5.0E-7 -0.4763819 -0.8792384 5.0E-7 -0.4539346 -0.891035 -9.68E-5 -0.4539346 -0.891035 -9.68E-5 -0.4539346 -0.891035 -9.68E-5 -0.3688688 -0.9294814 -3.9E-6 -0.3688688 -0.9294814 -3.9E-6 -0.3688688 -0.9294814 -3.9E-6 -0.4531176 -0.8914507 2.6E-4 -0.4531176 -0.8914507 2.6E-4 -0.4531176 -0.8914507 2.6E-4 -0.454542 -0.8907254 -3.69E-4 -0.454542 -0.8907254 -3.69E-4 -0.454542 -0.8907254 -3.69E-4 -0.4532063 -0.8914056 2.283E-4 -0.4532063 -0.8914056 2.283E-4 -0.4532063 -0.8914056 2.283E-4 -0.453853 -0.8910766 -6.5E-5 -0.453853 -0.8910766 -6.5E-5 -0.453853 -0.8910766 -6.5E-5 -0.4538921 -0.8910567 -8.16E-5 -0.4538921 -0.8910567 -8.16E-5 -0.4538921 -0.8910567 -8.16E-5 -0.4533547 -0.8913302 1.663E-4 -0.4533547 -0.8913302 1.663E-4 -0.4533547 -0.8913302 1.663E-4 -0.4537885 -0.8911094 -3.65E-5 -0.4537885 -0.8911094 -3.65E-5 -0.4537885 -0.8911094 -3.65E-5 -0.4538926 -0.8910564 -8.62E-5 -0.4538926 -0.8910564 -8.62E-5 -0.4538926 -0.8910564 -8.62E-5 -0.4534941 -0.8912593 1.067E-4 -0.4534941 -0.8912593 1.067E-4 -0.4534941 -0.8912593 1.067E-4 -0.4534443 -0.8912846 1.291E-4 -0.4534443 -0.8912846 1.291E-4 -0.4534443 -0.8912846 1.291E-4 -0.4539323 -0.8910362 -1.089E-4 -0.4539323 -0.8910362 -1.089E-4 -0.4539323 -0.8910362 -1.089E-4 -0.4538085 -0.8910993 -4.99E-5 -0.4538085 -0.8910993 -4.99E-5 -0.4538085 -0.8910993 -4.99E-5 -0.8920979 0.4518422 -1.2E-6 -0.8920979 0.4518422 -1.2E-6 -0.8920979 0.4518422 -1.2E-6 -0.4537755 -0.8911161 -3.25E-5 -0.4537755 -0.8911161 -3.25E-5 -0.4537755 -0.8911161 -3.25E-5 -0.8920959 0.4518462 4.0E-7 -0.8920959 0.4518462 4.0E-7 -0.8920959 0.4518462 4.0E-7 -0.4540181 -0.8909925 -1.563E-4 -0.4540181 -0.8909925 -1.563E-4 -0.4540181 -0.8909925 -1.563E-4 -0.4531761 -0.891421 2.752E-4 -0.4531761 -0.891421 2.752E-4 -0.4531761 -0.891421 2.752E-4 -0.4538853 -0.8910601 -9.07E-5 -0.4538853 -0.8910601 -9.07E-5 -0.4538853 -0.8910601 -9.07E-5 -0.4537979 -0.8911046 -4.48E-5 -0.4537979 -0.8911046 -4.48E-5 -0.4537979 -0.8911046 -4.48E-5 -0.4538759 -0.8910649 -8.74E-5 -0.4538759 -0.8910649 -8.74E-5 -0.4538759 -0.8910649 -8.74E-5 -0.4531865 -0.8914157 2.873E-4 -0.4531865 -0.8914157 2.873E-4 -0.4531865 -0.8914157 2.873E-4 -0.4539562 -0.891024 -1.335E-4 -0.4539562 -0.891024 -1.335E-4 -0.4539562 -0.891024 -1.335E-4 -0.453716 -0.8911463 -1.7E-6 -0.453716 -0.8911463 -1.7E-6 -0.453716 -0.8911463 -1.7E-6 -0.4532282 -0.8913944 2.692E-4 -0.4532282 -0.8913944 2.692E-4 -0.4532282 -0.8913944 2.692E-4 -0.4545352 -0.8907286 -4.657E-4 -0.4545352 -0.8907286 -4.657E-4 -0.4545352 -0.8907286 -4.657E-4 -0.4535139 -0.8912492 1.146E-4 -0.4535139 -0.8912492 1.146E-4 -0.4535139 -0.8912492 1.146E-4 -0.4534846 -0.8912641 1.32E-4 -0.4534846 -0.8912641 1.32E-4 -0.4534846 -0.8912641 1.32E-4 -0.4539225 -0.8910411 -1.21E-4 -0.4539225 -0.8910411 -1.21E-4 -0.4539225 -0.8910411 -1.21E-4 -0.4531193 -0.8914499 3.478E-4 -0.4531193 -0.8914499 3.478E-4 -0.4531193 -0.8914499 3.478E-4 -0.4538566 -0.8910747 -8.72E-5 -0.4538566 -0.8910747 -8.72E-5 -0.4538566 -0.8910747 -8.72E-5 -0.4533907 -0.8913118 1.951E-4 -0.4533907 -0.8913118 1.951E-4 -0.4533907 -0.8913118 1.951E-4 -0.4536364 -0.8911869 4.57E-5 -0.4536364 -0.8911869 4.57E-5 -0.4536364 -0.8911869 4.57E-5 -0.4545186 -0.8907371 -5.004E-4 -0.4545186 -0.8907371 -5.004E-4 -0.4545186 -0.8907371 -5.004E-4 -0.4531656 -0.8914263 3.447E-4 -0.4531656 -0.8914263 3.447E-4 -0.4531656 -0.8914263 3.447E-4 -0.4536179 -0.8911963 5.99E-5 -0.4536179 -0.8911963 5.99E-5 -0.4536179 -0.8911963 5.99E-5 -0.4535568 -0.8912274 9.84E-5 -0.4535568 -0.8912274 9.84E-5 -0.4535568 -0.8912274 9.84E-5 -0.4538397 -0.8910834 -8.35E-5 -0.4538397 -0.8910834 -8.35E-5 -0.4538397 -0.8910834 -8.35E-5 -0.4537386 -0.8911349 -1.53E-5 -0.4537386 -0.8911349 -1.53E-5 -0.4537386 -0.8911349 -1.53E-5 -0.4540588 -0.8909718 -2.285E-4 -0.4540588 -0.8909718 -2.285E-4 -0.4540588 -0.8909718 -2.285E-4 -0.4533958 -0.8913093 2.128E-4 -0.4533958 -0.8913093 2.128E-4 -0.4533958 -0.8913093 2.128E-4 -0.4539465 -0.8910289 -1.557E-4 -0.4539465 -0.8910289 -1.557E-4 -0.4539465 -0.8910289 -1.557E-4 -0.4535604 -0.8912255 1.041E-4 -0.4535604 -0.8912255 1.041E-4 -0.4535604 -0.8912255 1.041E-4 -0.4535008 -0.8912559 1.464E-4 -0.4535008 -0.8912559 1.464E-4 -0.4535008 -0.8912559 1.464E-4 -0.4544921 -0.8907506 -5.473E-4 -0.4544921 -0.8907506 -5.473E-4 -0.4544921 -0.8907506 -5.473E-4 -0.4532546 -0.891381 3.235E-4 -0.4532546 -0.891381 3.235E-4 -0.4532546 -0.891381 3.235E-4 -0.4537008 -0.8911541 1.06E-5 -0.4537008 -0.8911541 1.06E-5 -0.4537008 -0.8911541 1.06E-5 -0.4540186 -0.8909922 -2.247E-4 -0.4540186 -0.8909922 -2.247E-4 -0.4540186 -0.8909922 -2.247E-4 -0.4532292 -0.891394 3.539E-4 -0.4532292 -0.891394 3.539E-4 -0.4532292 -0.891394 3.539E-4 -0.4545146 -0.8907391 -5.897E-4 -0.4545146 -0.8907391 -5.897E-4 -0.4545146 -0.8907391 -5.897E-4 -0.4532429 -0.891387 3.456E-4 -0.4532429 -0.891387 3.456E-4 -0.4532429 -0.891387 3.456E-4 -0.4538718 -0.891067 -1.207E-4 -0.4538718 -0.891067 -1.207E-4 -0.4538718 -0.891067 -1.207E-4 -0.4531945 -0.8914115 3.902E-4 -0.4531945 -0.8914115 3.902E-4 -0.4531945 -0.8914115 3.902E-4 -0.453916 -0.8910444 -1.548E-4 -0.453916 -0.8910444 -1.548E-4 -0.453916 -0.8910444 -1.548E-4 -0.4538274 -0.8910896 -8.81E-5 -0.4538274 -0.8910896 -8.81E-5 -0.4538274 -0.8910896 -8.81E-5 0.891214 -0.4535832 1.2E-6 0.891214 -0.4535832 1.2E-6 0.891214 -0.4535832 1.2E-6 -0.4536355 -0.8911874 6.35E-5 -0.4536355 -0.8911874 6.35E-5 -0.4536355 -0.8911874 6.35E-5 0.8912137 -0.4535837 -6.0E-7 0.8912137 -0.4535837 -6.0E-7 0.8912137 -0.4535837 -6.0E-7 -0.4532763 -0.8913701 3.508E-4 -0.4532763 -0.8913701 3.508E-4 -0.4532763 -0.8913701 3.508E-4 -0.4544286 -0.890783 -5.807E-4 -0.4544286 -0.890783 -5.807E-4 -0.4544286 -0.890783 -5.807E-4 -0.4534505 -0.8912814 2.176E-4 -0.4534505 -0.8912814 2.176E-4 -0.4534505 -0.8912814 2.176E-4 -0.4540591 -0.8909715 -2.873E-4 -0.4540591 -0.8909715 -2.873E-4 -0.4540591 -0.8909715 -2.873E-4 -0.4530528 -0.8914835 5.53E-4 -0.4530528 -0.8914835 5.53E-4 -0.4530528 -0.8914835 5.53E-4 -0.4544811 -0.8907562 -6.563E-4 -0.4544811 -0.8907562 -6.563E-4 -0.4544811 -0.8907562 -6.563E-4 -0.4532137 -0.8914018 4.265E-4 -0.4532137 -0.8914018 4.265E-4 -0.4532137 -0.8914018 4.265E-4 -0.4535813 -0.8912149 1.149E-4 -0.4535813 -0.8912149 1.149E-4 -0.4535813 -0.8912149 1.149E-4 -0.453714 -0.8911475 -2.7E-6 -0.453714 -0.8911475 -2.7E-6 -0.453714 -0.8911475 -2.7E-6 -0.4542429 -0.8908778 -0.0 -0.4542429 -0.8908778 -0.0 -0.4542429 -0.8908778 -0.0 -0.4533812 -0.8913167 3.15E-5 -0.4533812 -0.8913167 3.15E-5 -0.4533812 -0.8913167 3.15E-5 -0.4410899 -0.8974629 0.0 -0.4410899 -0.8974629 0.0 -0.4410899 -0.8974629 0.0 -0.483111 -0.8755591 1.06E-4 -0.483111 -0.8755591 1.06E-4 -0.483111 -0.8755591 1.06E-4 -0.4570698 -0.8894309 -7.47E-5 -0.4570698 -0.8894309 -7.47E-5 -0.4570698 -0.8894309 -7.47E-5 -0.4503839 -0.8928349 3.768E-4 -0.4503839 -0.8928349 3.768E-4 -0.4503839 -0.8928349 3.768E-4 -0.4544703 -0.8907619 -1.47E-5 -0.4544703 -0.8907619 -1.47E-5 -0.4544703 -0.8907619 -1.47E-5 -0.4538286 -0.891089 2.275E-4 -0.4538286 -0.891089 2.275E-4 -0.4538286 -0.891089 2.275E-4 -0.4536711 -0.8911692 1.095E-4 -0.4536711 -0.8911692 1.095E-4 -0.4536711 -0.8911692 1.095E-4 -0.4524221 -0.8918039 -1.225E-4 -0.4524221 -0.8918039 -1.225E-4 -0.4524221 -0.8918039 -1.225E-4 -0.4544556 -0.8907694 9.33E-5 -0.4544556 -0.8907694 9.33E-5 -0.4544556 -0.8907694 9.33E-5 -0.454087 -0.8909573 6.63E-5 -0.454087 -0.8909573 6.63E-5 -0.454087 -0.8909573 6.63E-5 -0.4489765 -0.8935435 -1.25E-4 -0.4489765 -0.8935435 -1.25E-4 -0.4489765 -0.8935435 -1.25E-4 -0.4561571 -0.8898993 1.051E-4 -0.4561571 -0.8898993 1.051E-4 -0.4561571 -0.8898993 1.051E-4 -0.4540226 -0.8909902 4.52E-5 -0.4540226 -0.8909902 4.52E-5 -0.4540226 -0.8909902 4.52E-5 -0.4517698 -0.8921345 -4.6E-6 -0.4517698 -0.8921345 -4.6E-6 -0.4517698 -0.8921345 -4.6E-6 -0.4566397 -0.8896517 8.5E-5 -0.4566397 -0.8896517 8.5E-5 -0.4566397 -0.8896517 8.5E-5 -0.4538261 -0.8910903 3.79E-5 -0.4538261 -0.8910903 3.79E-5 -0.4538261 -0.8910903 3.79E-5 -0.448835 -0.8936148 -1.32E-5 -0.448835 -0.8936148 -1.32E-5 -0.448835 -0.8936148 -1.32E-5 -0.4617548 -0.8870076 7.73E-5 -0.4617548 -0.8870076 7.73E-5 -0.4617548 -0.8870076 7.73E-5 -0.453781 -0.8911132 3.48E-5 -0.453781 -0.8911132 3.48E-5 -0.453781 -0.8911132 3.48E-5 -0.4463001 -0.8948833 2.2E-6 -0.4463001 -0.8948833 2.2E-6 -0.4463001 -0.8948833 2.2E-6 -0.4563991 -0.8897752 4.3E-5 -0.4563991 -0.8897752 4.3E-5 -0.4563991 -0.8897752 4.3E-5 -0.4450381 -0.8955116 2.0E-7 -0.4450381 -0.8955116 2.0E-7 -0.4450381 -0.8955116 2.0E-7 -0.4610741 -0.8873616 -2.88E-5 -0.4610741 -0.8873616 -2.88E-5 -0.4610741 -0.8873616 -2.88E-5 -0.5623087 -0.8269274 -1.79E-5 -0.5623087 -0.8269274 -1.79E-5 -0.5623087 -0.8269274 -1.79E-5 0.0 -1.0 0.0 0.0 -1.0 0.0 0.0 -1.0 0.0 -0.4761665 -0.8793553 2.0E-6 -0.4761665 -0.8793553 2.0E-6 -0.4761665 -0.8793553 2.0E-6 -0.7071068 -0.7071068 0.0 -0.7071068 -0.7071068 0.0 -0.7071068 -0.7071068 0.0 -0.7847099 -0.6198633 2.266E-4 -0.7847099 -0.6198633 2.266E-4 -0.7847099 -0.6198633 2.266E-4 -0.5812376 -0.8137339 6.3E-6 -0.5812376 -0.8137339 6.3E-6 -0.5812376 -0.8137339 6.3E-6 -0.4253567 -0.9050258 -2.4E-5 -0.4253567 -0.9050258 -2.4E-5 -0.4253567 -0.9050258 -2.4E-5 -0.4539617 -0.8910211 7.37E-5 -0.4539617 -0.8910211 7.37E-5 -0.4539617 -0.8910211 7.37E-5 -0.4856429 -0.8741572 0.0 -0.4856429 -0.8741572 0.0 -0.4856429 -0.8741572 0.0 -0.4526169 -0.8917052 -7.3E-6 -0.4526169 -0.8917052 -7.3E-6 -0.4526169 -0.8917052 -7.3E-6 -0.469815 -0.8827649 8.9E-6 -0.469815 -0.8827649 8.9E-6 -0.469815 -0.8827649 8.9E-6 -0.4537269 -0.8911408 4.59E-5 -0.4537269 -0.8911408 4.59E-5 -0.4537269 -0.8911408 4.59E-5 -0.4702541 -0.882531 5.0E-7 -0.4702541 -0.882531 5.0E-7 -0.4702541 -0.882531 5.0E-7 -0.4530417 -0.8914893 1.88E-5 -0.4530417 -0.8914893 1.88E-5 -0.4530417 -0.8914893 1.88E-5 -0.4719845 -0.8816069 8.0E-7 -0.4719845 -0.8816069 8.0E-7 -0.4719845 -0.8816069 8.0E-7 -0.4534994 -0.8912566 3.21E-5 -0.4534994 -0.8912566 3.21E-5 -0.4534994 -0.8912566 3.21E-5 -0.4596715 -0.888089 2.17E-5 -0.4596715 -0.888089 2.17E-5 -0.4596715 -0.888089 2.17E-5 -0.4537027 -0.8911532 3.6E-5 -0.4537027 -0.8911532 3.6E-5 -0.4537027 -0.8911532 3.6E-5 -0.4525679 -0.89173 3.6E-5 -0.4525679 -0.89173 3.6E-5 -0.4525679 -0.89173 3.6E-5 -0.4484758 -0.893795 0.0 -0.4484758 -0.893795 0.0 -0.4484758 -0.893795 0.0 -0.7802794 -0.6254312 -6.05E-5 -0.7802794 -0.6254312 -6.05E-5 -0.7802794 -0.6254312 -6.05E-5 -0.4472136 -0.8944272 0.0 -0.4472136 -0.8944272 0.0 -0.4472136 -0.8944272 0.0 -0.4691367 -0.8831257 2.2E-6 -0.4691367 -0.8831257 2.2E-6 -0.4691367 -0.8831257 2.2E-6 -0.4537138 -0.8911474 -2.0E-7 -0.4537138 -0.8911474 -2.0E-7 -0.4537138 -0.8911474 -2.0E-7 -0.4762408 -0.879315 1.0E-7 -0.4762408 -0.879315 1.0E-7 -0.4762408 -0.879315 1.0E-7 -0.4725855 -0.881285 1.2E-6 -0.4725855 -0.881285 1.2E-6 -0.4725855 -0.881285 1.2E-6 -0.4589161 -0.8884796 7.1E-6 -0.4589161 -0.8884796 7.1E-6 -0.4589161 -0.8884796 7.1E-6 -0.4472136 -0.8944272 0.0 -0.4472136 -0.8944272 0.0 -0.4472136 -0.8944272 0.0 -0.473191 -0.8809599 4.0E-7 -0.473191 -0.8809599 4.0E-7 -0.473191 -0.8809599 4.0E-7 -0.4537092 -0.8911498 0.0 -0.4537092 -0.8911498 0.0 -0.4537092 -0.8911498 0.0 -0.4138158 -0.9103606 -2.01E-5 -0.4138158 -0.9103606 -2.01E-5 -0.4138158 -0.9103606 -2.01E-5 -0.4537147 -0.891147 -1.49E-5 -0.4537147 -0.891147 -1.49E-5 -0.4537147 -0.891147 -1.49E-5 -0.4685092 -0.8834586 -6.9E-6 -0.4685092 -0.8834586 -6.9E-6 -0.4685092 -0.8834586 -6.9E-6 -0.45371 -0.8911494 0.0 -0.45371 -0.8911494 0.0 -0.45371 -0.8911494 0.0 -0.4753372 -0.8798037 2.0E-6 -0.4753372 -0.8798037 2.0E-6 -0.4753372 -0.8798037 2.0E-6 0.0 -1.0 0.0 0.0 -1.0 0.0 0.0 -1.0 0.0 -0.4570578 -0.889437 1.07E-5 -0.4570578 -0.889437 1.07E-5 -0.4570578 -0.889437 1.07E-5 -0.8682582 -0.4961128 -1.68E-5 -0.8682582 -0.4961128 -1.68E-5 -0.8682582 -0.4961128 -1.68E-5 -0.3511807 -0.9363077 -3.16E-5 -0.3511807 -0.9363077 -3.16E-5 -0.3511807 -0.9363077 -3.16E-5 -0.6000649 -0.7999514 -5.41E-5 -0.6000649 -0.7999514 -5.41E-5 -0.6000649 -0.7999514 -5.41E-5 -0.4818584 -0.8762491 -3.04E-5 -0.4818584 -0.8762491 -3.04E-5 -0.4818584 -0.8762491 -3.04E-5 -0.4472136 -0.8944272 0.0 -0.4472136 -0.8944272 0.0 -0.4472136 -0.8944272 0.0 -0.4672374 -0.8841318 -2.81E-5 -0.4672374 -0.8841318 -2.81E-5 -0.4672374 -0.8841318 -2.81E-5 -0.4737045 -0.8806838 3.67E-5 -0.4737045 -0.8806838 3.67E-5 -0.4737045 -0.8806838 3.67E-5 -0.6606244 -0.7507167 8.1E-6 -0.6606244 -0.7507167 8.1E-6 -0.6606244 -0.7507167 8.1E-6 -0.6742563 -0.7384974 8.7E-6 -0.6742563 -0.7384974 8.7E-6 -0.6742563 -0.7384974 8.7E-6 -0.3713907 -0.9284767 0.0 -0.3713907 -0.9284767 0.0 -0.3713907 -0.9284767 0.0 -0.4347508 -0.9005508 -8.4E-6 -0.4347508 -0.9005508 -8.4E-6 -0.4347508 -0.9005508 -8.4E-6 -0.2272296 -0.9738412 -3.5E-6 -0.2272296 -0.9738412 -3.5E-6 -0.2272296 -0.9738412 -3.5E-6 -0.6722938 -0.7402844 4.1E-6 -0.6722938 -0.7402844 4.1E-6 -0.6722938 -0.7402844 4.1E-6 -0.4537044 -0.8911522 4.9E-6 -0.4537044 -0.8911522 4.9E-6 -0.4537044 -0.8911522 4.9E-6 -0.4537137 -0.8911476 -2.2E-6 -0.4537137 -0.8911476 -2.2E-6 -0.4537137 -0.8911476 -2.2E-6 -0.4762831 -0.879292 0.0 -0.4762831 -0.879292 0.0 -0.4762831 -0.879292 0.0 -0.4537099 -0.8911494 0.0 -0.4537099 -0.8911494 0.0 -0.4537099 -0.8911494 0.0 -0.4537096 -0.8911496 4.4E-6 -0.4537096 -0.8911496 4.4E-6 -0.4537096 -0.8911496 4.4E-6 -0.4590033 -0.8884345 1.355E-4 -0.4590033 -0.8884345 1.355E-4 -0.4590033 -0.8884345 1.355E-4 -0.4498305 -0.893114 -6.2E-6 -0.4498305 -0.893114 -6.2E-6 -0.4498305 -0.893114 -6.2E-6 -0.4544486 -0.8907729 5.41E-5 -0.4544486 -0.8907729 5.41E-5 -0.4544486 -0.8907729 5.41E-5 -0.4566086 -0.8896676 7.88E-5 -0.4566086 -0.8896676 7.88E-5 -0.4566086 -0.8896676 7.88E-5 -0.4488206 -0.8936219 -3.3E-6 -0.4488206 -0.8936219 -3.3E-6 -0.4488206 -0.8936219 -3.3E-6 -0.4542506 -0.8908739 4.71E-5 -0.4542506 -0.8908739 4.71E-5 -0.4542506 -0.8908739 4.71E-5 -0.4599279 -0.8879562 9.41E-5 -0.4599279 -0.8879562 9.41E-5 -0.4599279 -0.8879562 9.41E-5 -0.4537218 -0.8911434 4.81E-5 -0.4537218 -0.8911434 4.81E-5 -0.4537218 -0.8911434 4.81E-5 -0.428997 -0.9033059 -1.161E-4 -0.428997 -0.9033059 -1.161E-4 -0.428997 -0.9033059 -1.161E-4 -0.4472136 -0.8944272 0.0 -0.4472136 -0.8944272 0.0 -0.4472136 -0.8944272 0.0 -0.4711704 -0.8820422 1.405E-4 -0.4711704 -0.8820422 1.405E-4 -0.4711704 -0.8820422 1.405E-4 -0.4459744 -0.8950457 1.3E-6 -0.4459744 -0.8950457 1.3E-6 -0.4459744 -0.8950457 1.3E-6 -0.4636888 -0.8859981 9.17E-5 -0.4636888 -0.8859981 9.17E-5 -0.4636888 -0.8859981 9.17E-5 -0.4456213 -0.8952215 3.2E-6 -0.4456213 -0.8952215 3.2E-6 -0.4456213 -0.8952215 3.2E-6 -0.454828 -0.8905793 4.46E-5 -0.454828 -0.8905793 4.46E-5 -0.454828 -0.8905793 4.46E-5 -0.4352218 -0.9003233 4.0E-7 -0.4352218 -0.9003233 4.0E-7 -0.4352218 -0.9003233 4.0E-7 -0.4471803 -0.8944439 6.25E-5 -0.4471803 -0.8944439 6.25E-5 -0.4471803 -0.8944439 6.25E-5 -0.7813493 0.6240914 -0.0018154 -0.7813493 0.6240914 -0.0018154 -0.7813493 0.6240914 -0.0018154 -0.4692376 -0.883072 1.52E-5 -0.4692376 -0.883072 1.52E-5 -0.4692376 -0.883072 1.52E-5 0.4705197 0.8823895 2.6E-6 0.4705197 0.8823895 2.6E-6 0.4705197 0.8823895 2.6E-6 -0.4359616 -0.8999653 1.182E-4 -0.4359616 -0.8999653 1.182E-4 -0.4359616 -0.8999653 1.182E-4 0.4284902 0.9035465 -9.62E-5 0.4284902 0.9035465 -9.62E-5 0.4284902 0.9035465 -9.62E-5 -0.4731396 -0.8809875 -2.3E-6 -0.4731396 -0.8809875 -2.3E-6 -0.4731396 -0.8809875 -2.3E-6 0.2992355 0.9541792 -3.262E-4 0.2992355 0.9541792 -3.262E-4 0.2992355 0.9541792 -3.262E-4 -0.4563145 -0.8898185 -4.22E-5 -0.4563145 -0.8898185 -4.22E-5 -0.4563145 -0.8898185 -4.22E-5 0.4619585 0.8869015 -2.29E-5 0.4619585 0.8869015 -2.29E-5 0.4619585 0.8869015 -2.29E-5 -0.4102664 -0.9119657 -3.8E-5 -0.4102664 -0.9119657 -3.8E-5 -0.4102664 -0.9119657 -3.8E-5 0.4508086 0.8926206 6.47E-5 0.4508086 0.8926206 6.47E-5 0.4508086 0.8926206 6.47E-5 -0.4269693 -0.9042661 -1.1E-5 -0.4269693 -0.9042661 -1.1E-5 -0.4269693 -0.9042661 -1.1E-5 0.391 0.9203907 -1.644E-4 0.391 0.9203907 -1.644E-4 0.391 0.9203907 -1.644E-4 -0.5091963 -0.8606504 -3.9E-5 -0.5091963 -0.8606504 -3.9E-5 -0.5091963 -0.8606504 -3.9E-5 0.3778682 0.9258593 -2.005E-4 0.3778682 0.9258593 -2.005E-4 0.3778682 0.9258593 -2.005E-4 -0.4658507 -0.8848633 3.23E-5 -0.4658507 -0.8848633 3.23E-5 -0.4658507 -0.8848633 3.23E-5 0.3954161 0.9185021 -1.536E-4 0.3954161 0.9185021 -1.536E-4 0.3954161 0.9185021 -1.536E-4 -0.4549685 -0.8905075 2.52E-5 -0.4549685 -0.8905075 2.52E-5 -0.4549685 -0.8905075 2.52E-5 0.4584566 0.8887169 -3.03E-5 0.4584566 0.8887169 -3.03E-5 0.4584566 0.8887169 -3.03E-5 -0.4552574 -0.8903599 -6.42E-5 -0.4552574 -0.8903599 -6.42E-5 -0.4552574 -0.8903599 -6.42E-5 0.4549724 0.8905055 -1.07E-5 0.4549724 0.8905055 -1.07E-5 0.4549724 0.8905055 -1.07E-5 -0.3938872 -0.9191588 1.065E-4 -0.3938872 -0.9191588 1.065E-4 -0.3938872 -0.9191588 1.065E-4 0.4566353 0.889654 -2.89E-5 0.4566353 0.889654 -2.89E-5 0.4566353 0.889654 -2.89E-5 -0.5145071 -0.8574861 -9.28E-5 -0.5145071 -0.8574861 -9.28E-5 -0.5145071 -0.8574861 -9.28E-5 0.4610201 0.8873897 -1.06E-5 0.4610201 0.8873897 -1.06E-5 0.4610201 0.8873897 -1.06E-5 -0.4839964 -0.87507 6.41E-5 -0.4839964 -0.87507 6.41E-5 -0.4839964 -0.87507 6.41E-5 0.4730719 0.8810238 -5.47E-5 0.4730719 0.8810238 -5.47E-5 0.4730719 0.8810238 -5.47E-5 -0.4477081 -0.8941798 -2.1E-5 -0.4477081 -0.8941798 -2.1E-5 -0.4477081 -0.8941798 -2.1E-5 0.4561526 0.8899016 1.47E-5 0.4561526 0.8899016 1.47E-5 0.4561526 0.8899016 1.47E-5 -0.4690321 -0.8831812 3.87E-5 -0.4690321 -0.8831812 3.87E-5 -0.4690321 -0.8831812 3.87E-5 0.4612236 0.887284 -1.15E-5 0.4612236 0.887284 -1.15E-5 0.4612236 0.887284 -1.15E-5 -0.4190223 -0.907976 1.133E-4 -0.4190223 -0.907976 1.133E-4 -0.4190223 -0.907976 1.133E-4 0.4578706 0.8890188 1.46E-5 0.4578706 0.8890188 1.46E-5 0.4578706 0.8890188 1.46E-5 -0.447179 -0.8944445 1.209E-4 -0.447179 -0.8944445 1.209E-4 -0.447179 -0.8944445 1.209E-4 0.4612553 0.8872674 -1.34E-5 0.4612553 0.8872674 -1.34E-5 0.4612553 0.8872674 -1.34E-5 -0.3511156 -0.9363322 9.5E-5 -0.3511156 -0.9363322 9.5E-5 -0.3511156 -0.9363322 9.5E-5 -0.4695026 -0.8829312 1.38E-5 -0.4695026 -0.8829312 1.38E-5 -0.4695026 -0.8829312 1.38E-5 -0.4740939 -0.8804744 1.83E-5 -0.4740939 -0.8804744 1.83E-5 -0.4740939 -0.8804744 1.83E-5 -0.4722584 -0.8814602 1.31E-5 -0.4722584 -0.8814602 1.31E-5 -0.4722584 -0.8814602 1.31E-5 -0.4604301 -0.887696 -2.4E-6 -0.4604301 -0.887696 -2.4E-6 -0.4604301 -0.887696 -2.4E-6 -0.4601684 -0.8878317 -2.0E-6 -0.4601684 -0.8878317 -2.0E-6 -0.4601684 -0.8878317 -2.0E-6 -0.5368811 -0.8436579 -1.04E-5 -0.5368811 -0.8436579 -1.04E-5 -0.5368811 -0.8436579 -1.04E-5 -0.3511763 -0.9363093 -3.16E-5 -0.3511763 -0.9363093 -3.16E-5 -0.3511763 -0.9363093 -3.16E-5 -0.5686978 -0.8225116 -0.0075808 -0.5686978 -0.8225116 -0.0075808 -0.5686978 -0.8225116 -0.0075808 0.0 0.0 1.0 0.0 0.0 1.0 0.0 0.0 1.0 0.0 0.0 1.0 0.0 0.0 1.0 0.0 0.0 1.0 0.0 0.0 1.0 0.0 0.0 1.0 0.0 0.0 1.0 0.0 0.0 1.0 0.0 0.0 1.0 0.0 0.0 1.0 0.4479034 0.894082 -4.93E-5 0.4479034 0.894082 -4.93E-5 0.4479034 0.894082 -4.93E-5 0.4657464 0.8849182 -3.88E-5 0.4657464 0.8849182 -3.88E-5 0.4657464 0.8849182 -3.88E-5 0.4587415 0.8885697 3.47E-5 0.4587415 0.8885697 3.47E-5 0.4587415 0.8885697 3.47E-5 0.4509365 0.8925561 -5.0E-7 0.4509365 0.8925561 -5.0E-7 0.4509365 0.8925561 -5.0E-7 0.4422157 0.8969088 -1.0E-5 0.4422157 0.8969088 -1.0E-5 0.4422157 0.8969088 -1.0E-5 0.4472136 0.8944272 0.0 0.4472136 0.8944272 0.0 0.4472136 0.8944272 0.0 0.4501491 0.8929534 -1.8E-6 0.4501491 0.8929534 -1.8E-6 0.4501491 0.8929534 -1.8E-6 0.0 0.0 1.0 0.0 0.0 1.0 0.0 0.0 1.0 0.0085881 -0.0040951 -0.9999547 0.0085881 -0.0040951 -0.9999547 0.0085881 -0.0040951 -0.9999547 0.4417752 0.8971258 1.87E-5 0.4417752 0.8971258 1.87E-5 0.4417752 0.8971258 1.87E-5 0.0 0.0 1.0 0.0 0.0 1.0 0.0 0.0 1.0 -1.75E-4 5.52E-5 -1.0 -1.75E-4 5.52E-5 -1.0 -1.75E-4 5.52E-5 -1.0 0.4613766 0.8872043 -7.23E-5 0.4613766 0.8872043 -7.23E-5 0.4613766 0.8872043 -7.23E-5 0.0114388 -0.0058726 -0.9999173 0.0114388 -0.0058726 -0.9999173 0.0114388 -0.0058726 -0.9999173 0.793463 0.6085935 -0.0055148 0.793463 0.6085935 -0.0055148 0.793463 0.6085935 -0.0055148 0.1449492 -0.0740403 -0.986665 0.1449492 -0.0740403 -0.986665 0.1449492 -0.0740403 -0.986665 0.3900714 0.9207841 0.0010244 0.3900714 0.9207841 0.0010244 0.3900714 0.9207841 0.0010244 -0.0419952 0.0214581 -0.9988874 -0.0419952 0.0214581 -0.9988874 -0.0419952 0.0214581 -0.9988874 0.4525737 0.891727 -5.1E-6 0.4525737 0.891727 -5.1E-6 0.4525737 0.891727 -5.1E-6 -0.0921134 0.0471004 -0.9946339 -0.0921134 0.0471004 -0.9946339 -0.0921134 0.0471004 -0.9946339 0.4564378 0.8897553 -1.18E-4 0.4564378 0.8897553 -1.18E-4 0.4564378 0.8897553 -1.18E-4 -0.0231579 0.011753 -0.9996628 -0.0231579 0.011753 -0.9996628 -0.0231579 0.011753 -0.9996628 0.4526514 0.8916875 5.7E-6 0.4526514 0.8916875 5.7E-6 0.4526514 0.8916875 5.7E-6 -0.0014411 8.042E-4 -0.9999986 -0.0014411 8.042E-4 -0.9999986 -0.0014411 8.042E-4 -0.9999986 0.4526169 0.8917052 7.3E-6 0.4526169 0.8917052 7.3E-6 0.4526169 0.8917052 7.3E-6 -2.912E-4 -1.727E-4 -0.9999999 -2.912E-4 -1.727E-4 -0.9999999 -2.912E-4 -1.727E-4 -0.9999999 0.4525031 0.8917629 1.42E-5 0.4525031 0.8917629 1.42E-5 0.4525031 0.8917629 1.42E-5 -6.39E-5 2.732E-4 -0.9999999 -6.39E-5 2.732E-4 -0.9999999 -6.39E-5 2.732E-4 -0.9999999 0.5437509 0.8392467 9.51E-5 0.5437509 0.8392467 9.51E-5 0.5437509 0.8392467 9.51E-5 -6.4E-5 2.733E-4 -0.9999999 -6.4E-5 2.733E-4 -0.9999999 -6.4E-5 2.733E-4 -0.9999999 0.4474657 0.8943011 9.1E-6 0.4474657 0.8943011 9.1E-6 0.4474657 0.8943011 9.1E-6 6.589E-4 -3.716E-4 -0.9999997 6.589E-4 -3.716E-4 -0.9999997 6.589E-4 -3.716E-4 -0.9999997 0.4598499 0.8879967 8.16E-5 0.4598499 0.8879967 8.16E-5 0.4598499 0.8879967 8.16E-5 -0.477455 0.2430952 0.8443586 -0.477455 0.2430952 0.8443586 -0.477455 0.2430952 0.8443586 -1.127E-4 4.46E-5 -1.0 -1.127E-4 4.46E-5 -1.0 -1.127E-4 4.46E-5 -1.0 0.4681574 0.8836451 1.434E-4 0.4681574 0.8836451 1.434E-4 0.4681574 0.8836451 1.434E-4 -0.4774589 0.2430908 0.8443578 -0.4774589 0.2430908 0.8443578 -0.4774589 0.2430908 0.8443578 -1.01E-5 2.459E-4 -0.9999999 -1.01E-5 2.459E-4 -0.9999999 -1.01E-5 2.459E-4 -0.9999999 0.4540563 0.890973 -2.0E-6 0.4540563 0.890973 -2.0E-6 0.4540563 0.890973 -2.0E-6 -0.4774576 0.2430897 0.8443587 -0.4774576 0.2430897 0.8443587 -0.4774576 0.2430897 0.8443587 -0.0021129 7.556E-4 -0.9999975 -0.0021129 7.556E-4 -0.9999975 -0.0021129 7.556E-4 -0.9999975 0.4577362 0.8890881 -1.51E-5 0.4577362 0.8890881 -1.51E-5 0.4577362 0.8890881 -1.51E-5 3.895E-4 -1.662E-4 -0.9999999 3.895E-4 -1.662E-4 -0.9999999 3.895E-4 -1.662E-4 -0.9999999 0.4635194 0.8860868 -5.65E-5 0.4635194 0.8860868 -5.65E-5 0.4635194 0.8860868 -5.65E-5 -0.0010896 5.147E-4 -0.9999993 -0.0010896 5.147E-4 -0.9999993 -0.0010896 5.147E-4 -0.9999993 0.4503605 0.8928468 2.3E-6 0.4503605 0.8928468 2.3E-6 0.4503605 0.8928468 2.3E-6 0.0 0.0 -1.0 0.0 0.0 -1.0 0.0 0.0 -1.0 0.4525602 0.8917338 -0.0 0.4525602 0.8917338 -0.0 0.4525602 0.8917338 -0.0 5.067E-4 -2.419E-4 -0.9999998 5.067E-4 -2.419E-4 -0.9999998 5.067E-4 -2.419E-4 -0.9999998 0.29719 0.9548151 -0.0025027 0.29719 0.9548151 -0.0025027 0.29719 0.9548151 -0.0025027 0.4505591 0.8927466 -2.12E-5 0.4505591 0.8927466 -2.12E-5 0.4505591 0.8927466 -2.12E-5 -0.3411597 0.9400054 -9.5E-6 -0.3411597 0.9400054 -9.5E-6 -0.3411597 0.9400054 -9.5E-6 0.5529487 0.8332152 1.323E-4 0.5529487 0.8332152 1.323E-4 0.5529487 0.8332152 1.323E-4 0.4543248 0.8908362 -2.1E-6 0.4543248 0.8908362 -2.1E-6 0.4543248 0.8908362 -2.1E-6 0.7071068 0.7071068 0.0 0.7071068 0.7071068 0.0 0.7071068 0.7071068 0.0 0.2853723 0.9584166 -3.6E-4 0.2853723 0.9584166 -3.6E-4 0.2853723 0.9584166 -3.6E-4 0.4788605 -0.243716 0.8433831 0.4788605 -0.243716 0.8433831 0.4788605 -0.243716 0.8433831 0.4784338 -0.2435873 0.8436624 0.4784338 -0.2435873 0.8436624 0.4784338 -0.2435873 0.8436624 0.4784341 -0.2435873 0.8436623 0.4784341 -0.2435873 0.8436623 0.4784341 -0.2435873 0.8436623 -0.4297025 0.2187862 -0.8760642 -0.4297025 0.2187862 -0.8760642 -0.4297025 0.2187862 -0.8760642 -0.447392 0.2277917 -0.8648418 -0.447392 0.2277917 -0.8648418 -0.447392 0.2277917 -0.8648418 -0.8911536 0.4537017 -1.2E-6 -0.8911536 0.4537017 -1.2E-6 -0.8911536 0.4537017 -1.2E-6 -0.8911467 0.4537154 2.0E-7 -0.8911467 0.4537154 2.0E-7 -0.8911467 0.4537154 2.0E-7 -0.4943022 0.2516674 -0.832063 -0.4943022 0.2516674 -0.832063 -0.4943022 0.2516674 -0.832063 -3.98E-5 -1.99E-5 -1.0 -3.98E-5 -1.99E-5 -1.0 -3.98E-5 -1.99E-5 -1.0 -0.5107824 0.2600817 -0.819426 -0.5107824 0.2600817 -0.819426 -0.5107824 0.2600817 -0.819426 -0.8891979 0.4527667 0.0657988 -0.8891979 0.4527667 0.0657988 -0.8891979 0.4527667 0.0657988 -0.7890372 0.4017816 0.4647493 -0.7890372 0.4017816 0.4647493 -0.7890372 0.4017816 0.4647493 -0.0230835 0.0117143 -0.999665 -0.0230835 0.0117143 -0.999665 -0.0230835 0.0117143 -0.999665 -7.89E-5 0.0 -1.0 -7.89E-5 0.0 -1.0 -7.89E-5 0.0 -1.0 -0.8911127 0.4537822 9.4E-6 -0.8911127 0.4537822 9.4E-6 -0.8911127 0.4537822 9.4E-6 -0.8911465 0.4537157 -1.2E-6 -0.8911465 0.4537157 -1.2E-6 -0.8911465 0.4537157 -1.2E-6 -0.4483767 -0.8938447 2.0E-7 -0.4483767 -0.8938447 2.0E-7 -0.4483767 -0.8938447 2.0E-7 -0.4483746 -0.8938457 6.0E-7 -0.4483746 -0.8938457 6.0E-7 -0.4483746 -0.8938457 6.0E-7 -0.448388 -0.893839 -3.2E-6 -0.448388 -0.893839 -3.2E-6 -0.448388 -0.893839 -3.2E-6 0.4537136 0.8911476 -0.0 0.4537136 0.8911476 -0.0 0.4537136 0.8911476 -0.0 0.4537135 0.8911476 1.0E-7 0.4537135 0.8911476 1.0E-7 0.4537135 0.8911476 1.0E-7 0.0 0.0 1.0 0.0 0.0 1.0 0.0 0.0 1.0 0.4537131 0.8911478 -1.8E-6 0.4537131 0.8911478 -1.8E-6 0.4537131 0.8911478 -1.8E-6 0.0 0.0 1.0 0.0 0.0 1.0 0.0 0.0 1.0 0.0 0.0 1.0 0.0 0.0 1.0 0.0 0.0 1.0</float_array>
                    <technique_common>
                        <accessor count="990" source="#geometry0-normal-array" stride="3">
                            <param name="X" type="float"/>
                            <param name="Y" type="float"/>
                            <param name="Z" type="float"/>
                        </accessor>
                    </technique_common>
                </source>
                <source id="geometry0-texCoords">
                    <float_array id="geometry0-texCoords-array" count="0"></float_array>
                    <technique_common>
                        <accessor count="0" source="#geometry0-texCoords-array" stride="2">
                            <param name="S" type="float"/>
                            <param name="T" type="float"/>
                        </accessor>
                    </technique_common>
                </source>
                <vertices id="geometry0-vertex">
                    <input semantic="POSITION" source="#geometry0-position"/>
                </vertices>
                <triangles count="315" material="default_ai_0.2_sh_0.2_tr_0.0_dc_r_0.8_g_0.8_b_0.8_sc_r_1.0_g_1.0_b_1.0_ec_r_0.0_g_0.0_b_0_tri">
                    <input offset="0" semantic="VERTEX" source="#geometry0-vertex"/>
                    <input offset="1" semantic="NORMAL" source="#geometry0-normal"/>
                    <p>120 0 229 1 121 2 182 3 229 4 120 5 230 6 229 7 182 8 290 9 291 10 292 11 293 12 291 13 290 14 294 15 291 16 293 17 295 18 290 19 292 20 296 21 290 22 295 23 120 24 119 25 118 26 297 27 290 28 296 29 121 30 119 31 120 32 17 33 18 34 19 35 20 36 18 37 17 38 231 39 232 40 233 41 230 42 231 43 233 44 21 45 18 46 20 47 234 48 231 49 230 50 22 51 18 52 21 53 235 54 234 55 230 56 23 57 18 58 22 59 236 60 234 61 235 62 24 63 18 64 23 65 237 66 233 67 232 68 25 69 18 70 24 71 229 72 230 73 233 74 26 75 18 76 25 77 238 78 232 79 231 80 27 81 18 82 26 83 28 84 18 85 27 86 29 87 18 88 28 89 30 90 18 91 29 92 31 93 18 94 30 95 32 96 18 97 31 98 33 99 18 100 32 101 34 102 18 103 33 104 229 105 279 106 281 107 35 108 18 109 34 110 237 111 279 112 229 113 36 114 18 115 35 116 37 117 18 118 36 119 38 120 18 121 37 122 39 123 18 124 38 125 40 126 18 127 39 128 41 129 18 130 40 131 42 132 18 133 41 134 43 135 18 136 42 137 44 138 18 139 43 140 45 141 18 142 44 143 46 144 18 145 45 146 47 147 18 148 46 149 283 150 284 151 285 152 48 153 18 154 47 155 286 156 284 157 283 158 49 159 18 160 48 161 50 162 18 163 49 164 51 165 18 166 50 167 52 168 18 169 51 170 53 171 18 172 52 173 54 174 18 175 53 176 55 177 18 178 54 179 56 180 18 181 55 182 57 183 18 184 56 185 58 186 18 187 57 188 59 189 18 190 58 191 60 192 18 193 59 194 61 195 18 196 60 197 62 198 18 199 61 200 63 201 18 202 62 203 64 204 18 205 63 206 65 207 18 208 64 209 66 210 18 211 65 212 67 213 18 214 66 215 68 216 18 217 67 218 69 219 18 220 68 221 70 222 18 223 69 224 71 225 18 226 70 227 72 228 18 229 71 230 73 231 18 232 72 233 74 234 18 235 73 236 75 237 18 238 74 239 76 240 18 241 75 242 77 243 18 244 76 245 78 246 18 247 77 248 79 249 18 250 78 251 80 252 18 253 79 254 81 255 18 256 80 257 82 258 18 259 81 260 83 261 18 262 82 263 84 264 18 265 83 266 85 267 18 268 84 269 86 270 18 271 85 272 87 273 18 274 86 275 287 276 19 277 18 278 88 279 18 280 87 281 288 282 19 283 287 284 89 285 18 286 88 287 90 288 18 289 89 290 91 291 18 292 90 293 92 294 18 295 91 296 93 297 18 298 92 299 94 300 18 301 93 302 95 303 18 304 94 305 96 306 18 307 95 308 97 309 18 310 96 311 98 312 97 313 96 314 122 315 123 316 124 317 125 318 123 319 122 320 126 321 123 322 125 323 127 324 123 325 126 326 128 327 125 328 129 329 130 330 125 331 128 332 131 333 125 334 130 335 132 336 125 337 131 338 133 339 125 340 132 341 134 342 125 343 133 344 135 345 125 346 134 347 136 348 125 349 135 350 137 351 125 352 136 353 138 354 125 355 137 356 139 357 125 358 138 359 140 360 125 361 139 362 141 363 125 364 140 365 142 366 125 367 141 368 143 369 125 370 142 371 144 372 125 373 143 374 145 375 125 376 144 377 146 378 125 379 145 380 126 381 125 382 146 383 147 384 148 385 149 386 150 387 148 388 147 389 151 390 148 391 150 392 239 393 139 394 240 395 152 396 148 397 151 398 241 399 139 400 239 401 153 402 148 403 152 404 242 405 139 406 241 407 154 408 155 409 156 410 243 411 139 412 242 413 157 414 155 415 154 416 206 417 139 418 243 419 158 420 155 421 157 422 244 423 245 424 246 425 159 426 155 427 158 428 247 429 245 430 244 431 160 432 155 433 159 434 185 435 245 436 247 437 161 438 155 439 160 440 124 441 245 442 185 443 162 444 155 445 161 446 242 447 244 448 246 449 163 450 155 451 162 452 239 453 244 454 242 455 164 456 155 457 163 458 248 459 244 460 239 461 165 462 122 463 124 464 249 465 244 466 248 467 166 468 165 469 124 470 231 471 244 472 249 473 167 474 165 475 166 476 248 477 250 478 249 479 168 480 167 481 166 482 251 483 202 484 244 485 169 486 167 487 168 488 240 489 248 490 239 491 170 492 169 493 168 494 247 495 252 496 218 497 171 498 169 499 170 500 172 501 171 502 170 503 173 504 171 505 172 506 174 507 175 508 176 509 177 510 174 511 176 512 178 513 174 514 177 515 179 516 178 517 177 518 168 519 178 520 179 521 170 522 168 523 179 524 178 525 180 526 181 527 168 528 180 529 178 530 150 531 163 532 151 533 165 534 163 535 150 536 167 537 163 538 165 539 164 540 163 541 167 542 182 543 183 544 184 545 167 546 183 547 182 548 169 549 183 550 167 551 185 552 124 553 127 554 186 555 124 556 185 557 187 558 124 559 186 560 188 561 124 562 187 563 189 564 124 565 188 566 190 567 124 568 189 569 191 570 124 571 190 572 192 573 124 574 191 575 193 576 124 577 192 578 194 579 124 580 193 581 195 582 124 583 194 584 196 585 124 586 195 587 197 588 124 589 196 590 198 591 124 592 197 593 199 594 124 595 198 596 166 597 124 598 199 599 177 600 200 601 201 602 186 603 143 604 123 605 176 606 200 607 177 608 206 609 143 610 186 611 202 612 200 613 176 614 253 615 143 616 206 617 146 618 203 619 126 620 254 621 143 622 253 623 204 624 203 625 146 626 231 627 179 628 255 629 205 630 203 631 204 632 199 633 179 634 231 635 206 636 142 637 141 638 186 639 179 640 199 641 207 642 142 643 206 644 123 645 179 646 186 647 208 648 142 649 207 650 254 651 179 652 123 653 161 654 209 655 210 656 253 657 256 658 165 659 160 660 209 661 161 662 140 663 256 664 253 665 211 666 130 667 128 668 134 669 256 670 140 671 212 672 138 673 137 674 163 675 256 676 224 677 213 678 208 679 214 680 151 681 256 682 163 683 215 684 216 685 213 686 152 687 256 688 151 689 216 690 143 691 142 692 148 693 256 694 152 695 217 696 190 697 189 698 150 699 256 700 148 701 218 702 191 703 190 704 257 705 163 706 224 707 219 708 196 709 195 710 220 711 199 712 198 713 221 714 169 715 171 716 222 717 182 718 184 719 223 720 163 721 162 722 224 723 150 724 147 725 168 726 166 727 225 728 226 729 172 730 170 731 227 732 129 733 228 734 258 747 259 748 260 749 261 750 259 751 258 752 262 753 153 754 263 755 264 756 153 757 262 758 265 759 266 760 267 761 163 762 266 763 265 764 268 765 155 766 265 767 99 771 100 772 98 773 269 774 155 775 268 776 101 780 100 781 99 782 270 783 155 784 269 785 102 786 100 787 101 788 271 789 155 790 270 791 103 792 100 793 102 794 209 795 155 796 271 797 104 798 100 799 103 800 159 801 155 802 209 803 105 804 100 805 104 806 272 807 155 808 159 809 106 810 100 811 105 812 157 813 155 814 272 815 107 816 108 817 109 818 154 819 155 820 157 821 110 822 107 823 109 824 273 825 155 826 154 827 99 828 107 829 110 830 274 831 159 832 209 833 101 834 99 835 110 836 275 837 159 838 274 839 107 840 111 841 108 842 268 843 262 844 276 845 112 849 111 850 107 851 267 852 262 853 268 854 113 858 111 859 112 860 277 861 263 862 278 863 114 867 111 868 113 869 140 870 263 871 277 872 115 873 111 874 114 875 227 876 263 877 140 878 116 879 111 880 115 881 279 882 280 883 281 884 117 885 111 886 116 887 255 888 280 889 279 890 118 891 111 892 117 893 276 894 274 895 270 896 282 897 274 898 276 899 210 900 274 901 282 902 156 903 273 904 258 905 278 906 179 907 280 908 266 909 152 910 264 911 277 912 123 913 143 914 111 924 109 925 108 926 118 927 109 928 111 929 119 930 109 931 118 932 105 933 109 934 119 935 104 936 109 937 105 938 101 939 109 940 104 941 110 942 109 943 101 944 104 945 102 946 101 947 103 948 102 949 104 950 106 951 98 952 100 953 105 954 98 955 106 956 119 957 98 958 105 959 97 960 98 961 119 962 229 963 284 964 286 965 281 966 284 967 229 968 155 969 284 970 281 971 283 972 288 973 287 974 285 975 288 976 283 977 289 981 288 982 285 983</p>
                </triangles>
                <triangles count="15" material="default_ai_0.2_sh_0.2_tr_0.0_dc_r_1.0_g_0.2_b_0.2_sc_r_1.0_g_1.0_b_1.0_ec_r_0.0_g_0.0_b_0_tri">
                    <input offset="0" semantic="VERTEX" source="#geometry0-vertex"/>
                    <input offset="1" semantic="NORMAL" source="#geometry0-normal"/>
                    <p>0 735 1 736 2 737 3 738 1 739 0 740 4 741 1 742 3 743 5 744 1 745 4 746 6 768 3 769 2 770 7 777 3 778 6 779 8 846 3 847 9 848 10 855 3 856 8 857 2 864 3 865 10 866 11 915 12 916 13 917 10 918 12 919 11 920 8 921 12 922 10 923 14 978 11 979 15 980 16 984 11 985 14 986 10 987 11 988 16 989</p>
                </triangles>
            </mesh>
        </geometry>
    </library_geometries>
    <library_visual_scenes>
        <visual_scene id="Building_pb-9635c10c-7f36-11f0-923f-9c7bef4dcf4c">
            <node>
                <instance_geometry url="#geometry0">
                    <bind_material>
                        <technique_common>
                            <instance_material symbol="default_ai_0.2_sh_0.2_tr_0.0_dc_r_0.8_g_0.8_b_0.8_sc_r_1.0_g_1.0_b_1.0_ec_r_0.0_g_0.0_b_0_tri" target="#default_ai_0.2_sh_0.2_tr_0.0_dc_r_0.8_g_0.8_b_0.8_sc_r_1.0_g_1.0_b_1.0_ec_r_0.0_g_0.0_b_0_mat"/>
                            <instance_material symbol="default_ai_0.2_sh_0.2_tr_0.0_dc_r_1.0_g_0.2_b_0.2_sc_r_1.0_g_1.0_b_1.0_ec_r_0.0_g_0.0_b_0_tri" target="#default_ai_0.2_sh_0.2_tr_0.0_dc_r_1.0_g_0.2_b_0.2_sc_r_1.0_g_1.0_b_1.0_ec_r_0.0_g_0.0_b_0_mat"/>
                        </technique_common>
                    </bind_material>
                </instance_geometry>
            </node>
        </visual_scene>
    </library_visual_scenes>
    <scene>
        <instance_visual_scene url="#Building_pb-9635c10c-7f36-11f0-923f-9c7bef4dcf4c"/>
    </scene>
</COLLADA>
