<?xml version="1.0" encoding="UTF-8" standalone="yes"?>
<COLLADA xmlns="http://www.collada.org/2005/11/COLLADASchema" version="1.4.1">
    <asset>
        <contributor>
            <authoring_tool>3D City Database Importer/Exporter, version 5.5.1; Chair of Geoinformatics, Technical University of Munich</authoring_tool>
        </contributor>
        <created>2026-01-16T16:51:34.827</created>
        <modified>2026-01-16T16:51:34.827</modified>
        <unit meter="1.0" name="meters"/>
        <up_axis>Z_UP</up_axis>
    </asset>
    <library_materials>
        <material id="default_dc_r_1.0_g_1.0_b_1_mat">
            <instance_effect url="#default_dc_r_1.0_g_1.0_b_1_eff"/>
        </material>
        <material id="default_dc_r_0.6_g_0.6_b_0_mat">
            <instance_effect url="#default_dc_r_0.6_g_0.6_b_0_eff"/>
        </material>
        <material id="default_dc_r_0.9_g_0.7_b_0_mat">
            <instance_effect url="#default_dc_r_0.9_g_0.7_b_0_eff"/>
        </material>
    </library_materials>
    <library_effects>
        <effect id="default_dc_r_1.0_g_1.0_b_1_eff">
            <profile_COMMON>
                <technique sid="COMMON">
                    <lambert>
                        <emission>
                            <color>0.0 0.0 0.0 1.0</color>
                        </emission>
                        <diffuse>
                            <color>1.0 1.0 1.0 1.0</color>
                        </diffuse>
                    </lambert>
                </technique>
                <extra>
                    <technique profile="GOOGLEEARTH">
                        <double_sided>1</double_sided>
                    </technique>
                </extra>
            </profile_COMMON>
        </effect>
        <effect id="default_dc_r_0.6_g_0.6_b_0_eff">
            <profile_COMMON>
                <technique sid="COMMON">
                    <lambert>
                        <emission>
                            <color>0.0 0.0 0.0 1.0</color>
                        </emission>
                        <diffuse>
                            <color>0.6 0.6 0.6 1.0</color>
                        </diffuse>
                    </lambert>
                </technique>
                <extra>
                    <technique profile="GOOGLEEARTH">
                        <double_sided>1</double_sided>
                    </technique>
                </extra>
            </profile_COMMON>
        </effect>
        <effect id="default_dc_r_0.9_g_0.7_b_0_eff">
            <profile_COMMON>
                <technique sid="COMMON">
                    <lambert>
                        <emission>
                            <color>0.0 0.0 0.0 1.0</color>
                        </emission>
                        <diffuse>
                            <color>0.9 0.7 0.4 1.0</color>
                        </diffuse>
                    </lambert>
                </technique>
                <extra>
                    <technique profile="GOOGLEEARTH">
                        <double_sided>1</double_sided>
                    </technique>
                </extra>
            </profile_COMMON>
        </effect>
    </library_effects>
    <library_geometries>
        <geometry id="geometry0">
            <mesh>
                <source id="geometry0-position">
                    <float_array id="geometry0-position-array" count="84">4.9708 -10.1489 2.339024 7.9586 -4.1262 2.339024 -1.6425 -3.1865 2.339024 11.4772 -13.4636 2.339024 14.441 -7.481 2.339024 -3.0832 -6.0553 2.339024 0.0 0.0 2.339024 0.0 0.0 0.0 -1.6425 -3.1865 0.0 -1.6425 -3.1865 2.339 0.0 0.0 2.339 7.9586 -4.1262 0.0 7.9586 -4.1262 2.339 14.441 -7.481 0.0 14.441 -7.481 2.339 11.4772 -13.4636 2.339 11.4772 -13.4636 0.0 4.9708 -10.1489 2.339 4.9708 -10.1489 0.0 -3.0832 -6.0553 0.0 -3.0832 -6.0553 2.339 7.9586 -4.1262 3.6E-5 4.9708 -10.1489 3.6E-5 -1.6425 -3.1865 3.6E-5 -3.0832 -6.0553 3.6E-5 14.441 -7.481 3.6E-5 0.0 0.0 3.6E-5 11.4772 -13.4636 3.6E-5</float_array>
                    <technique_common>
                        <accessor count="28" source="#geometry0-position-array" stride="3">
                            <param name="X" type="float"/>
                            <param name="Y" type="float"/>
                            <param name="Z" type="float"/>
                        </accessor>
                    </technique_common>
                </source>
                <source id="geometry0-normal">
                    <float_array id="geometry0-normal-array" count="216">0.4596212 0.888115 0.0 0.4596212 0.888115 0.0 0.4596212 0.888115 0.0 0.4596212 0.888115 0.0 0.4596212 0.888115 0.0 0.4596212 0.888115 0.0 0.8960686 -0.4439155 0.0 0.8960686 -0.4439155 0.0 0.8960686 -0.4439155 0.0 0.8960686 -0.4439155 0.0 0.8960686 -0.4439155 0.0 0.8960686 -0.4439155 0.0 -0.4531012 -0.8914591 0.0 -0.4531012 -0.8914591 0.0 -0.4531012 -0.8914591 0.0 -0.4531012 -0.8914591 0.0 -0.4531012 -0.8914591 0.0 -0.4531012 -0.8914591 0.0 -0.8888644 0.4581703 0.0 -0.8888644 0.4581703 0.0 -0.8888644 0.4581703 0.0 -0.8888644 0.4581703 0.0 -0.8888644 0.4581703 0.0 -0.8888644 0.4581703 0.0 0.0 0.0 1.0 0.0 0.0 1.0 0.0 0.0 1.0 -0.8936409 0.4487829 0.0 -0.8936409 0.4487829 0.0 -0.8936409 0.4487829 0.0 0.0 0.0 -1.0 0.0 0.0 -1.0 0.0 0.0 -1.0 0.0 0.0 1.0 0.0 0.0 1.0 0.0 0.0 1.0 -0.8936409 0.4487829 0.0 -0.8936409 0.4487829 0.0 -0.8936409 0.4487829 0.0 0.0 0.0 -1.0 0.0 0.0 -1.0 0.0 0.0 -1.0 0.0 0.0 1.0 0.0 0.0 1.0 0.0 0.0 1.0 -0.4539388 -0.8910329 0.0 -0.4539388 -0.8910329 0.0 -0.4539388 -0.8910329 0.0 0.0 0.0 -1.0 0.0 0.0 -1.0 0.0 0.0 -1.0 0.0 0.0 1.0 0.0 0.0 1.0 0.0 0.0 1.0 0.4602748 0.8877765 0.0 0.4602748 0.8877765 0.0 0.4602748 0.8877765 0.0 -0.4539388 -0.8910329 0.0 -0.4539388 -0.8910329 0.0 -0.4539388 -0.8910329 0.0 0.0 0.0 -1.0 0.0 0.0 -1.0 0.0 0.0 -1.0 0.0 0.0 1.0 0.0 0.0 1.0 0.0 0.0 1.0 0.4602748 0.8877765 0.0 0.4602748 0.8877765 0.0 0.4602748 0.8877765 0.0 0.0 0.0 -1.0 0.0 0.0 -1.0 0.0 0.0 -1.0</float_array>
                    <technique_common>
                        <accessor count="72" source="#geometry0-normal-array" stride="3">
                            <param name="X" type="float"/>
                            <param name="Y" type="float"/>
                            <param name="Z" type="float"/>
                        </accessor>
                    </technique_common>
                </source>
                <source id="geometry0-texCoords">
                    <float_array id="geometry0-texCoords-array" count="0"></float_array>
                    <technique_common>
                        <accessor count="0" source="#geometry0-texCoords-array" stride="2">
                            <param name="S" type="float"/>
                            <param name="T" type="float"/>
                        </accessor>
                    </technique_common>
                </source>
                <vertices id="geometry0-vertex">
                    <input semantic="POSITION" source="#geometry0-position"/>
                </vertices>
                <triangles count="5" material="default_dc_r_0.6_g_0.6_b_0_tri">
                    <input offset="0" semantic="VERTEX" source="#geometry0-vertex"/>
                    <input offset="1" semantic="NORMAL" source="#geometry0-normal"/>
                    <p>0 24 1 25 2 26 3 33 4 34 0 35 0 42 4 43 1 44 2 51 5 52 0 53 1 63 6 64 2 65</p>
                </triangles>
                <triangles count="14" material="default_dc_r_1.0_g_1.0_b_1_tri">
                    <input offset="0" semantic="VERTEX" source="#geometry0-vertex"/>
                    <input offset="1" semantic="NORMAL" source="#geometry0-normal"/>
                    <p>13 0 11 1 12 2 13 3 12 4 14 5 15 6 16 7 13 8 15 9 13 10 14 11 20 12 19 13 18 14 20 15 18 16 17 17 7 18 8 19 9 20 7 21 9 22 10 23 8 27 19 28 20 29 8 36 20 37 9 38 17 45 18 46 16 47 11 54 7 55 10 56 17 57 16 58 15 59 11 66 10 67 12 68</p>
                </triangles>
                <triangles count="5" material="default_dc_r_0.9_g_0.7_b_0_tri">
                    <input offset="0" semantic="VERTEX" source="#geometry0-vertex"/>
                    <input offset="1" semantic="NORMAL" source="#geometry0-normal"/>
                    <p>21 30 22 31 23 32 22 39 24 40 23 41 25 48 22 49 21 50 26 60 21 61 23 62 27 69 22 70 25 71</p>
                </triangles>
            </mesh>
        </geometry>
    </library_geometries>
    <library_visual_scenes>
        <visual_scene id="Building_FME_7aad2961-6e80-4b7a-a877-6a1b94115aa9">
            <node>
                <instance_geometry url="#geometry0">
                    <bind_material>
                        <technique_common>
                            <instance_material symbol="default_dc_r_0.6_g_0.6_b_0_tri" target="#default_dc_r_0.6_g_0.6_b_0_mat"/>
                            <instance_material symbol="default_dc_r_1.0_g_1.0_b_1_tri" target="#default_dc_r_1.0_g_1.0_b_1_mat"/>
                            <instance_material symbol="default_dc_r_0.9_g_0.7_b_0_tri" target="#default_dc_r_0.9_g_0.7_b_0_mat"/>
                        </technique_common>
                    </bind_material>
                </instance_geometry>
            </node>
        </visual_scene>
    </library_visual_scenes>
    <scene>
        <instance_visual_scene url="#Building_FME_7aad2961-6e80-4b7a-a877-6a1b94115aa9"/>
    </scene>
</COLLADA>
