<?xml version="1.0" encoding="UTF-8" standalone="yes"?>
<COLLADA xmlns="http://www.collada.org/2005/11/COLLADASchema" version="1.4.1">
    <asset>
        <contributor>
            <authoring_tool>3D City Database Importer/Exporter, version 5.5.1; Chair of Geoinformatics, Technical University of Munich</authoring_tool>
        </contributor>
        <created>2026-01-16T16:51:33.947</created>
        <modified>2026-01-16T16:51:33.947</modified>
        <unit meter="1.0" name="meters"/>
        <up_axis>Z_UP</up_axis>
    </asset>
    <library_materials>
        <material id="default_dc_r_1.0_g_1.0_b_1_mat">
            <instance_effect url="#default_dc_r_1.0_g_1.0_b_1_eff"/>
        </material>
        <material id="default_dc_r_0.6_g_0.6_b_0_mat">
            <instance_effect url="#default_dc_r_0.6_g_0.6_b_0_eff"/>
        </material>
        <material id="default_dc_r_0.9_g_0.7_b_0_mat">
            <instance_effect url="#default_dc_r_0.9_g_0.7_b_0_eff"/>
        </material>
    </library_materials>
    <library_effects>
        <effect id="default_dc_r_1.0_g_1.0_b_1_eff">
            <profile_COMMON>
                <technique sid="COMMON">
                    <lambert>
                        <emission>
                            <color>0.0 0.0 0.0 1.0</color>
                        </emission>
                        <diffuse>
                            <color>1.0 1.0 1.0 1.0</color>
                        </diffuse>
                    </lambert>
                </technique>
                <extra>
                    <technique profile="GOOGLEEARTH">
                        <double_sided>1</double_sided>
                    </technique>
                </extra>
            </profile_COMMON>
        </effect>
        <effect id="default_dc_r_0.6_g_0.6_b_0_eff">
            <profile_COMMON>
                <technique sid="COMMON">
                    <lambert>
                        <emission>
                            <color>0.0 0.0 0.0 1.0</color>
                        </emission>
                        <diffuse>
                            <color>0.6 0.6 0.6 1.0</color>
                        </diffuse>
                    </lambert>
                </technique>
                <extra>
                    <technique profile="GOOGLEEARTH">
                        <double_sided>1</double_sided>
                    </technique>
                </extra>
            </profile_COMMON>
        </effect>
        <effect id="default_dc_r_0.9_g_0.7_b_0_eff">
            <profile_COMMON>
                <technique sid="COMMON">
                    <lambert>
                        <emission>
                            <color>0.0 0.0 0.0 1.0</color>
                        </emission>
                        <diffuse>
                            <color>0.9 0.7 0.4 1.0</color>
                        </diffuse>
                    </lambert>
                </technique>
                <extra>
                    <technique profile="GOOGLEEARTH">
                        <double_sided>1</double_sided>
                    </technique>
                </extra>
            </profile_COMMON>
        </effect>
    </library_effects>
    <library_geometries>
        <geometry id="geometry0">
            <mesh>
                <source id="geometry0-position">
                    <float_array id="geometry0-position-array" count="84">44.0283 142.7485 12.094524 41.2129 143.7913 12.428724 -10.3147 9.3219 12.641124 0.8024 2.1786 11.205124 -11.4323 6.2857 12.641124 39.4237 144.4541 12.641124 44.0307 142.7476 12.094224 51.5471 139.9633 11.202024 0.0 0.0 11.205224 -12.1334 4.3808 12.641124 0.8024 2.1786 11.2052 0.0 0.0 11.2052 0.0 0.0 0.0 51.5471 139.9633 0.0 51.5471 139.9633 11.202 44.0307 142.7476 12.0942 39.4237 144.4541 0.0 44.0283 142.7485 12.0945 41.2129 143.7913 12.4287 39.4237 144.4541 12.6411 -12.1334 4.3808 12.6411 -12.1334 4.3808 0.0 -10.3147 9.3219 12.6411 -11.4323 6.2857 12.6411 0.0 0.0 3.6E-5 -12.1334 4.3808 3.6E-5 39.4237 144.4541 3.6E-5 51.5471 139.9633 3.6E-5</float_array>
                    <technique_common>
                        <accessor count="28" source="#geometry0-position-array" stride="3">
                            <param name="X" type="float"/>
                            <param name="Y" type="float"/>
                            <param name="Z" type="float"/>
                        </accessor>
                    </technique_common>
                </source>
                <source id="geometry0-normal">
                    <float_array id="geometry0-normal-array" count="216">-0.9384557 0.3453995 0.0 -0.9384557 0.3453995 0.0 -0.9384557 0.3453995 0.0 0.1038214 -0.0382137 0.9938616 0.1038214 -0.0382137 0.9938616 0.1038214 -0.0382137 0.9938616 -0.9384434 0.345433 -5.7E-6 -0.9384434 0.345433 -5.7E-6 -0.9384434 0.345433 -5.7E-6 0.1038218 -0.0382159 0.9938614 0.1038218 -0.0382159 0.9938614 0.1038218 -0.0382159 0.9938614 -0.9384493 0.3454171 0.0 -0.9384493 0.3454171 0.0 -0.9384493 0.3454171 0.0 0.1038265 -0.0382156 0.993861 0.1038265 -0.0382156 0.993861 0.1038265 -0.0382156 0.993861 0.1091652 -0.040393 0.9932026 0.1091652 -0.040393 0.9932026 0.1091652 -0.040393 0.9932026 0.1038171 -0.0382118 0.9938621 0.1038171 -0.0382118 0.9938621 0.1038171 -0.0382118 0.9938621 0.1038287 -0.0381954 0.9938615 0.1038287 -0.0381954 0.9938615 0.1038287 -0.0381954 0.9938615 0.1038227 -0.0382145 0.9938614 0.1038227 -0.0382145 0.9938614 0.1038227 -0.0382145 0.9938614 0.1038201 -0.0382111 0.9938618 0.1038201 -0.0382111 0.9938618 0.1038201 -0.0382111 0.9938618 0.3473586 0.9377323 -3.6E-6 0.3473586 0.9377323 -3.6E-6 0.3473586 0.9377323 -3.6E-6 0.3511078 0.9363336 -0.0016292 0.3511078 0.9363336 -0.0016292 0.3511078 0.9363336 -0.0016292 0.3473324 0.9377422 6.8E-6 0.3473324 0.9377422 6.8E-6 0.3473324 0.9377422 6.8E-6 0.347374 0.9377267 0.0 0.347374 0.9377267 0.0 0.347374 0.9377267 0.0 0.0 0.0 -1.0 0.0 0.0 -1.0 0.0 0.0 -1.0 0.3473637 0.9377304 0.0 0.3473637 0.9377304 0.0 0.3473637 0.9377304 0.0 0.0 0.0 -1.0 0.0 0.0 -1.0 0.0 0.0 -1.0 -0.3395961 -0.9405714 0.0 -0.3395961 -0.9405714 0.0 -0.3395961 -0.9405714 0.0 -0.3395961 -0.9405714 0.0 -0.3395961 -0.9405714 0.0 -0.3395961 -0.9405714 0.0 0.9383769 -0.3456135 0.0 0.9383769 -0.3456135 0.0 0.9383769 -0.3456135 0.0 0.938383 -0.3455972 -3.6E-6 0.938383 -0.3455972 -3.6E-6 0.938383 -0.3455972 -3.6E-6 0.938383 -0.3455969 0.0 0.938383 -0.3455969 0.0 0.938383 -0.3455969 0.0 -0.9384493 0.3454171 1.3E-6 -0.9384493 0.3454171 1.3E-6 -0.9384493 0.3454171 1.3E-6</float_array>
                    <technique_common>
                        <accessor count="72" source="#geometry0-normal-array" stride="3">
                            <param name="X" type="float"/>
                            <param name="Y" type="float"/>
                            <param name="Z" type="float"/>
                        </accessor>
                    </technique_common>
                </source>
                <source id="geometry0-texCoords">
                    <float_array id="geometry0-texCoords-array" count="0"></float_array>
                    <technique_common>
                        <accessor count="0" source="#geometry0-texCoords-array" stride="2">
                            <param name="S" type="float"/>
                            <param name="T" type="float"/>
                        </accessor>
                    </technique_common>
                </source>
                <vertices id="geometry0-vertex">
                    <input semantic="POSITION" source="#geometry0-position"/>
                </vertices>
                <triangles count="8" material="default_dc_r_0.6_g_0.6_b_0_tri">
                    <input offset="0" semantic="VERTEX" source="#geometry0-vertex"/>
                    <input offset="1" semantic="NORMAL" source="#geometry0-normal"/>
                    <p>0 3 1 4 2 5 3 9 2 10 4 11 2 15 1 16 5 17 0 18 2 19 6 20 6 21 2 22 7 23 8 24 3 25 4 26 7 27 2 28 3 29 8 30 4 31 9 32</p>
                </triangles>
                <triangles count="14" material="default_dc_r_1.0_g_1.0_b_1_tri">
                    <input offset="0" semantic="VERTEX" source="#geometry0-vertex"/>
                    <input offset="1" semantic="NORMAL" source="#geometry0-normal"/>
                    <p>23 0 21 1 20 2 23 6 22 7 21 8 19 12 16 13 22 14 15 33 13 34 16 35 17 36 15 37 16 38 18 39 17 40 16 41 18 42 16 43 19 44 14 48 13 49 15 50 20 54 21 55 11 56 21 57 12 58 11 59 10 60 11 61 12 62 13 63 10 64 12 65 14 66 10 67 13 68 22 69 16 70 21 71</p>
                </triangles>
                <triangles count="2" material="default_dc_r_0.9_g_0.7_b_0_tri">
                    <input offset="0" semantic="VERTEX" source="#geometry0-vertex"/>
                    <input offset="1" semantic="NORMAL" source="#geometry0-normal"/>
                    <p>24 45 25 46 26 47 24 51 26 52 27 53</p>
                </triangles>
            </mesh>
        </geometry>
    </library_geometries>
    <library_visual_scenes>
        <visual_scene id="Building_FME_e185ba80-bcac-4efa-9601-81532aa32a1f">
            <node>
                <instance_geometry url="#geometry0">
                    <bind_material>
                        <technique_common>
                            <instance_material symbol="default_dc_r_0.6_g_0.6_b_0_tri" target="#default_dc_r_0.6_g_0.6_b_0_mat"/>
                            <instance_material symbol="default_dc_r_1.0_g_1.0_b_1_tri" target="#default_dc_r_1.0_g_1.0_b_1_mat"/>
                            <instance_material symbol="default_dc_r_0.9_g_0.7_b_0_tri" target="#default_dc_r_0.9_g_0.7_b_0_mat"/>
                        </technique_common>
                    </bind_material>
                </instance_geometry>
            </node>
        </visual_scene>
    </library_visual_scenes>
    <scene>
        <instance_visual_scene url="#Building_FME_e185ba80-bcac-4efa-9601-81532aa32a1f"/>
    </scene>
</COLLADA>
