<?xml version="1.0" encoding="UTF-8" standalone="yes"?>
<COLLADA xmlns="http://www.collada.org/2005/11/COLLADASchema" version="1.4.1">
    <asset>
        <contributor>
            <authoring_tool>3D City Database Importer/Exporter, version 5.5.1; Chair of Geoinformatics, Technical University of Munich</authoring_tool>
        </contributor>
        <created>2026-01-16T16:51:34.315</created>
        <modified>2026-01-16T16:51:34.315</modified>
        <unit meter="1.0" name="meters"/>
        <up_axis>Z_UP</up_axis>
    </asset>
    <library_materials>
        <material id="default_dc_r_0.6_g_0.6_b_0_mat">
            <instance_effect url="#default_dc_r_0.6_g_0.6_b_0_eff"/>
        </material>
        <material id="default_dc_r_1.0_g_1.0_b_1_mat">
            <instance_effect url="#default_dc_r_1.0_g_1.0_b_1_eff"/>
        </material>
        <material id="default_dc_r_0.9_g_0.7_b_0_mat">
            <instance_effect url="#default_dc_r_0.9_g_0.7_b_0_eff"/>
        </material>
    </library_materials>
    <library_effects>
        <effect id="default_dc_r_0.6_g_0.6_b_0_eff">
            <profile_COMMON>
                <technique sid="COMMON">
                    <lambert>
                        <emission>
                            <color>0.0 0.0 0.0 1.0</color>
                        </emission>
                        <diffuse>
                            <color>0.6 0.6 0.6 1.0</color>
                        </diffuse>
                    </lambert>
                </technique>
                <extra>
                    <technique profile="GOOGLEEARTH">
                        <double_sided>1</double_sided>
                    </technique>
                </extra>
            </profile_COMMON>
        </effect>
        <effect id="default_dc_r_1.0_g_1.0_b_1_eff">
            <profile_COMMON>
                <technique sid="COMMON">
                    <lambert>
                        <emission>
                            <color>0.0 0.0 0.0 1.0</color>
                        </emission>
                        <diffuse>
                            <color>1.0 1.0 1.0 1.0</color>
                        </diffuse>
                    </lambert>
                </technique>
                <extra>
                    <technique profile="GOOGLEEARTH">
                        <double_sided>1</double_sided>
                    </technique>
                </extra>
            </profile_COMMON>
        </effect>
        <effect id="default_dc_r_0.9_g_0.7_b_0_eff">
            <profile_COMMON>
                <technique sid="COMMON">
                    <lambert>
                        <emission>
                            <color>0.0 0.0 0.0 1.0</color>
                        </emission>
                        <diffuse>
                            <color>0.9 0.7 0.4 1.0</color>
                        </diffuse>
                    </lambert>
                </technique>
                <extra>
                    <technique profile="GOOGLEEARTH">
                        <double_sided>1</double_sided>
                    </technique>
                </extra>
            </profile_COMMON>
        </effect>
    </library_effects>
    <library_geometries>
        <geometry id="geometry0">
            <mesh>
                <source id="geometry0-position">
                    <float_array id="geometry0-position-array" count="168">-11.0033 6.9758 2.627288 -11.4967 6.0392 2.627288 0.0 0.0 2.627288 0.4963 0.9422 2.627288 -8.2367 12.2274 2.627288 -8.7922 11.1729 2.627288 2.7073 5.1391 2.627288 3.26 6.1882 2.627288 -9.9198 9.0326 3.971888 -10.7953 7.3707 3.612688 0.7259 1.3778 3.621488 0.7043 1.337 3.612688 0.4963 0.9422 3.527288 -11.0033 6.9758 3.527288 1.5928 3.0235 3.977288 -9.9068 9.0572 3.977288 -8.7922 11.1729 3.527288 2.374 4.5063 3.661888 2.6994 5.1241 3.530488 -9.1256 10.54 3.661888 -9.1372 10.518 3.666488 1.6116 3.0591 3.969688 -9.1207 10.5494 3.659888 2.7073 5.1391 3.527288 -11.0033 6.9758 3.527264 -11.0033 6.9758 2.627264 0.4963 0.9422 2.627264 0.4963 0.9422 3.527264 2.7073 5.1391 2.627264 -8.7922 11.1729 2.627264 -8.7922 11.1729 3.527264 2.7073 5.1391 3.527264 3.26 6.1882 6.4E-5 -8.2367 12.2274 6.4E-5 -8.2367 12.2274 2.627264 3.26 6.1882 2.627264 0.0 0.0 6.4E-5 1.6116 3.0591 3.969664 2.6994 5.1241 3.530464 2.374 4.5063 3.661864 0.0 0.0 2.627264 1.5928 3.0235 3.977264 0.7259 1.3778 3.621464 0.7043 1.337 3.612664 -9.9198 9.0326 3.971964 -11.4967 6.0392 6.4E-5 -11.4967 6.0392 2.627264 -10.7953 7.3707 3.612664 -9.9068 9.0572 3.977264 -9.1256 10.54 3.661864 -9.1372 10.518 3.666564 -9.1207 10.5494 3.659864 0.0 0.0 0.0 -11.4967 6.0392 0.0 -8.2367 12.2274 0.0 3.26 6.1882 0.0</float_array>
                    <technique_common>
                        <accessor count="56" source="#geometry0-position-array" stride="3">
                            <param name="X" type="float"/>
                            <param name="Y" type="float"/>
                            <param name="Z" type="float"/>
                        </accessor>
                    </technique_common>
                </source>
                <source id="geometry0-normal">
                    <float_array id="geometry0-normal-array" count="468">0.0859259 0.1637633 0.9827504 0.0859259 0.1637633 0.9827504 0.0859259 0.1637633 0.9827504 0.0844996 0.1610474 0.9833227 0.0844996 0.1610474 0.9833227 0.0844996 0.1610474 0.9833227 0.0859495 0.1638071 0.982741 0.0859495 0.1638071 0.982741 0.0859495 0.1638071 0.982741 -0.8847357 0.466093 -3.65E-5 -0.8847357 0.466093 -3.65E-5 -0.8847357 0.466093 -3.65E-5 0.0859147 0.1637575 0.9827523 0.0859147 0.1637575 0.9827523 0.0859147 0.1637575 0.9827523 -0.8847358 0.466093 -5.2E-6 -0.8847358 0.466093 -5.2E-6 -0.8847358 0.466093 -5.2E-6 0.0861322 0.1641589 0.9826663 0.0861322 0.1641589 0.9826663 0.0861322 0.1641589 0.9826663 -0.8847418 0.4660816 0.0 -0.8847418 0.4660816 0.0 -0.8847418 0.4660816 0.0 0.0861879 0.164265 0.9826438 0.0861879 0.164265 0.9826438 0.0861879 0.164265 0.9826438 -0.8847721 0.4660239 0.0 -0.8847721 0.4660239 0.0 -0.8847721 0.4660239 0.0 0.086181 0.1642478 0.9826472 0.086181 0.1642478 0.9826472 0.086181 0.1642478 0.9826472 -0.8842918 0.4669316 0.0016704 -0.8842918 0.4669316 0.0016704 -0.8842918 0.4669316 0.0016704 0.0859116 0.1637394 0.9827556 0.0859116 0.1637394 0.9827556 0.0859116 0.1637394 0.9827556 -0.8847362 0.4660922 -3.5E-5 -0.8847362 0.4660922 -3.5E-5 -0.8847362 0.4660922 -3.5E-5 -0.8845357 0.4664722 3.157E-4 -0.8845357 0.4664722 3.157E-4 -0.8845357 0.4664722 3.157E-4 -0.8847268 0.4661099 2.37E-5 -0.8847268 0.4661099 2.37E-5 -0.8847268 0.4661099 2.37E-5 -0.8870558 0.4616495 -0.0034484 -0.8870558 0.4616495 -0.0034484 -0.8870558 0.4616495 -0.0034484 -0.8847383 0.4660882 6.7E-6 -0.8847383 0.4660882 6.7E-6 -0.8847383 0.4660882 6.7E-6 -0.8847182 0.4661264 0.0 -0.8847182 0.4661264 0.0 -0.8847182 0.4661264 0.0 -0.8847452 0.4660751 0.0 -0.8847452 0.4660751 0.0 -0.8847452 0.4660751 0.0 -0.4646111 -0.8855148 0.0 -0.4646111 -0.8855148 0.0 -0.4646111 -0.8855148 0.0 -0.4646111 -0.8855148 0.0 -0.4646111 -0.8855148 0.0 -0.4646111 -0.8855148 0.0 0.4646264 0.8855069 0.0 0.4646264 0.8855069 0.0 0.4646264 0.8855069 0.0 0.4646264 0.8855069 0.0 0.4646264 0.8855069 0.0 0.4646264 0.8855069 0.0 0.0 0.0 1.0 0.0 0.0 1.0 0.0 0.0 1.0 0.0 0.0 1.0 0.0 0.0 1.0 0.0 0.0 1.0 0.4650411 0.8852891 0.0 0.4650411 0.8852891 0.0 0.4650411 0.8852891 0.0 0.4650411 0.8852891 0.0 0.4650411 0.8852891 0.0 0.4650411 0.8852891 0.0 -0.4650411 -0.8852891 0.0 -0.4650411 -0.8852891 0.0 -0.4650411 -0.8852891 0.0 -0.4650411 -0.8852891 0.0 -0.4650411 -0.8852891 0.0 -0.4650411 -0.8852891 0.0 0.0 0.0 1.0 0.0 0.0 1.0 0.0 0.0 1.0 0.8847352 -0.4660939 2.27E-5 0.8847352 -0.4660939 2.27E-5 0.8847352 -0.4660939 2.27E-5 0.0 0.0 1.0 0.0 0.0 1.0 0.0 0.0 1.0 0.8847352 -0.4660939 -5.29E-5 0.8847352 -0.4660939 -5.29E-5 0.8847352 -0.4660939 -5.29E-5 0.8847754 -0.4660178 -5.0E-7 0.8847754 -0.4660178 -5.0E-7 0.8847754 -0.4660178 -5.0E-7 0.8847885 -0.4659927 0.0 0.8847885 -0.4659927 0.0 0.8847885 -0.4659927 0.0 0.8847297 -0.4661044 0.0 0.8847297 -0.4661044 0.0 0.8847297 -0.4661044 0.0 0.8847383 -0.4660881 8.3E-6 0.8847383 -0.4660881 8.3E-6 0.8847383 -0.4660881 8.3E-6 0.0 0.0 -1.0 0.0 0.0 -1.0 0.0 0.0 -1.0 0.8847321 -0.4660998 -6.47E-5 0.8847321 -0.4660998 -6.47E-5 0.8847321 -0.4660998 -6.47E-5 0.0 0.0 -1.0 0.0 0.0 -1.0 0.0 0.0 -1.0 0.8847613 -0.4660444 0.0 0.8847613 -0.4660444 0.0 0.8847613 -0.4660444 0.0 0.8843833 -0.4667598 0.0012895 0.8843833 -0.4667598 0.0012895 0.8843833 -0.4667598 0.0012895 0.8836987 -0.4680552 9.934E-4 0.8836987 -0.4680552 9.934E-4 0.8836987 -0.4680552 9.934E-4 0.884766 -0.4660355 -1.38E-4 0.884766 -0.4660355 -1.38E-4 0.884766 -0.4660355 -1.38E-4 0.8847237 -0.4661158 0.0 0.8847237 -0.4661158 0.0 0.8847237 -0.4661158 0.0 -0.0872639 -0.1663203 0.9822029 -0.0872639 -0.1663203 0.9822029 -0.0872639 -0.1663203 0.9822029 -0.0870003 -0.1658134 0.982312 -0.0870003 -0.1658134 0.982312 -0.0870003 -0.1658134 0.982312 -0.0873321 -0.1664459 0.9821756 -0.0873321 -0.1664459 0.9821756 -0.0873321 -0.1664459 0.9821756 -0.0873143 -0.1664146 0.9821824 -0.0873143 -0.1664146 0.9821824 -0.0873143 -0.1664146 0.9821824 -0.0872963 -0.166365 0.9821925 -0.0872963 -0.166365 0.9821925 -0.0872963 -0.166365 0.9821925 -0.088522 -0.1687136 0.981682 -0.088522 -0.1687136 0.981682 -0.088522 -0.1687136 0.981682</float_array>
                    <technique_common>
                        <accessor count="156" source="#geometry0-normal-array" stride="3">
                            <param name="X" type="float"/>
                            <param name="Y" type="float"/>
                            <param name="Z" type="float"/>
                        </accessor>
                    </technique_common>
                </source>
                <source id="geometry0-texCoords">
                    <float_array id="geometry0-texCoords-array" count="0"></float_array>
                    <technique_common>
                        <accessor count="0" source="#geometry0-texCoords-array" stride="2">
                            <param name="S" type="float"/>
                            <param name="T" type="float"/>
                        </accessor>
                    </technique_common>
                </source>
                <vertices id="geometry0-vertex">
                    <input semantic="POSITION" source="#geometry0-position"/>
                </vertices>
                <triangles count="18" material="default_dc_r_0.6_g_0.6_b_0_tri">
                    <input offset="0" semantic="VERTEX" source="#geometry0-vertex"/>
                    <input offset="1" semantic="NORMAL" source="#geometry0-normal"/>
                    <p>16 0 17 1 18 2 19 3 20 4 17 5 21 6 20 7 15 8 17 12 20 13 21 14 19 18 17 19 22 20 14 24 21 25 15 26 16 30 18 31 23 32 22 36 17 37 16 38 0 72 1 73 2 74 0 75 2 76 3 77 4 90 5 91 6 92 4 96 6 97 7 98 8 138 9 139 10 140 10 141 9 142 11 143 11 144 9 145 12 146 12 147 9 148 13 149 8 150 10 151 14 152 8 153 14 154 15 155</p>
                </triangles>
                <triangles count="32" material="default_dc_r_1.0_g_1.0_b_1_tri">
                    <input offset="0" semantic="VERTEX" source="#geometry0-vertex"/>
                    <input offset="1" semantic="NORMAL" source="#geometry0-normal"/>
                    <p>44 9 29 10 25 11 25 15 29 16 45 17 25 21 45 22 46 23 24 27 47 28 25 29 44 33 48 34 29 35 47 39 44 40 25 41 49 42 29 43 50 44 48 45 50 46 29 47 51 48 29 49 49 50 29 51 33 52 45 53 30 54 29 55 51 56 34 57 33 58 29 59 24 60 25 61 26 62 24 63 26 64 27 65 28 66 29 67 30 68 28 69 30 70 31 71 32 78 33 79 34 80 32 81 34 82 35 83 46 84 45 85 36 86 46 87 36 88 40 89 28 93 26 94 36 95 28 99 37 100 26 101 38 102 39 103 28 104 31 105 38 106 28 107 35 108 28 109 32 110 32 111 28 112 36 113 39 117 37 118 28 119 26 123 40 124 36 125 37 126 41 127 26 128 42 129 43 130 26 131 26 132 41 133 42 134 43 135 27 136 26 137</p>
                </triangles>
                <triangles count="2" material="default_dc_r_0.9_g_0.7_b_0_tri">
                    <input offset="0" semantic="VERTEX" source="#geometry0-vertex"/>
                    <input offset="1" semantic="NORMAL" source="#geometry0-normal"/>
                    <p>52 114 53 115 54 116 52 120 54 121 55 122</p>
                </triangles>
            </mesh>
        </geometry>
    </library_geometries>
    <library_visual_scenes>
        <visual_scene id="Building_FME_d6685563-a462-480b-9bc7-c3fa8f6c3819">
            <node>
                <instance_geometry url="#geometry0">
                    <bind_material>
                        <technique_common>
                            <instance_material symbol="default_dc_r_0.6_g_0.6_b_0_tri" target="#default_dc_r_0.6_g_0.6_b_0_mat"/>
                            <instance_material symbol="default_dc_r_1.0_g_1.0_b_1_tri" target="#default_dc_r_1.0_g_1.0_b_1_mat"/>
                            <instance_material symbol="default_dc_r_0.9_g_0.7_b_0_tri" target="#default_dc_r_0.9_g_0.7_b_0_mat"/>
                        </technique_common>
                    </bind_material>
                </instance_geometry>
            </node>
        </visual_scene>
    </library_visual_scenes>
    <scene>
        <instance_visual_scene url="#Building_FME_d6685563-a462-480b-9bc7-c3fa8f6c3819"/>
    </scene>
</COLLADA>
