<?xml version="1.0" encoding="UTF-8" standalone="yes"?>
<COLLADA xmlns="http://www.collada.org/2005/11/COLLADASchema" version="1.4.1">
    <asset>
        <contributor>
            <authoring_tool>3D City Database Importer/Exporter, version 5.5.1; Chair of Geoinformatics, Technical University of Munich</authoring_tool>
        </contributor>
        <created>2026-01-16T16:51:34.190</created>
        <modified>2026-01-16T16:51:34.190</modified>
        <unit meter="1.0" name="meters"/>
        <up_axis>Z_UP</up_axis>
    </asset>
    <library_materials>
        <material id="default_ai_0.2_sh_0.2_tr_0.0_dc_r_0.8_g_0.8_b_0.8_sc_r_1.0_g_1.0_b_1.0_ec_r_0.0_g_0.0_b_0_mat">
            <instance_effect url="#default_ai_0.2_sh_0.2_tr_0.0_dc_r_0.8_g_0.8_b_0.8_sc_r_1.0_g_1.0_b_1.0_ec_r_0.0_g_0.0_b_0_eff"/>
        </material>
        <material id="default_ai_0.2_sh_0.2_tr_0.0_dc_r_1.0_g_0.2_b_0.2_sc_r_1.0_g_1.0_b_1.0_ec_r_0.0_g_0.0_b_0_mat">
            <instance_effect url="#default_ai_0.2_sh_0.2_tr_0.0_dc_r_1.0_g_0.2_b_0.2_sc_r_1.0_g_1.0_b_1.0_ec_r_0.0_g_0.0_b_0_eff"/>
        </material>
    </library_materials>
    <library_effects>
        <effect id="default_ai_0.2_sh_0.2_tr_0.0_dc_r_0.8_g_0.8_b_0.8_sc_r_1.0_g_1.0_b_1.0_ec_r_0.0_g_0.0_b_0_eff">
            <profile_COMMON>
                <technique sid="COMMON">
                    <lambert>
                        <emission>
                            <color>0.0 0.0 0.0 1.0</color>
                        </emission>
                        <diffuse>
                            <color>0.8 0.8 0.8 1.0</color>
                        </diffuse>
                        <reflective>
                            <color>1.0 1.0 1.0 1.0</color>
                        </reflective>
                        <reflectivity>
                            <float>0.2</float>
                        </reflectivity>
                        <transparent opaque="A_ONE">
                            <color>1.0 1.0 1.0 1.0</color>
                        </transparent>
                        <transparency>
                            <float>1.0</float>
                        </transparency>
                    </lambert>
                </technique>
                <extra>
                    <technique profile="GOOGLEEARTH">
                        <double_sided>1</double_sided>
                    </technique>
                </extra>
            </profile_COMMON>
        </effect>
        <effect id="default_ai_0.2_sh_0.2_tr_0.0_dc_r_1.0_g_0.2_b_0.2_sc_r_1.0_g_1.0_b_1.0_ec_r_0.0_g_0.0_b_0_eff">
            <profile_COMMON>
                <technique sid="COMMON">
                    <lambert>
                        <emission>
                            <color>0.0 0.0 0.0 1.0</color>
                        </emission>
                        <diffuse>
                            <color>1.0 0.2 0.2 1.0</color>
                        </diffuse>
                        <reflective>
                            <color>1.0 1.0 1.0 1.0</color>
                        </reflective>
                        <reflectivity>
                            <float>0.2</float>
                        </reflectivity>
                        <transparent opaque="A_ONE">
                            <color>1.0 1.0 1.0 1.0</color>
                        </transparent>
                        <transparency>
                            <float>1.0</float>
                        </transparency>
                    </lambert>
                </technique>
                <extra>
                    <technique profile="GOOGLEEARTH">
                        <double_sided>1</double_sided>
                    </technique>
                </extra>
            </profile_COMMON>
        </effect>
    </library_effects>
    <library_geometries>
        <geometry id="geometry0">
            <mesh>
                <source id="geometry0-position">
                    <float_array id="geometry0-position-array" count="84">6.2703367 3.0101385 7.8072524 2.4646501 4.9183216 6.0002591 2.4635763 4.917347 6.0000367 6.2709419 3.0113459 7.8072526 -5.49E-5 -4.2E-5 6.0000373 3.8067121 -1.9072361 7.8072532 9.4505162 1.4167375 6.4516941 6.2703365 3.0101407 7.8072506 8.046573 -4.0314227 6.0000355 10.5101431 0.8858615 6.0000337 3.8067122 -1.9072281 7.8072521 10.5101962 0.8859536 6.0000371 8.0465808 -4.0314305 3.92E-5 10.5102038 0.8859508 3.99E-5 8.0465731 -4.031421 6.0000381 2.4636035 4.9173307 4.06E-5 -1.96E-5 -4.8E-5 6.00004 2.4635958 4.9173337 6.00004 -5.01E-5 -4.27E-5 4.14E-5 3.8067279 -1.9072545 7.8072557 8.902045 1.6998843 9.0E-7 10.514225 0.8939714 1.0E-6 8.046613 -4.0313702 8.0E-7 2.464026 4.9181869 2.0E-7 3.1343508 4.5830972 3.0E-7 0.0 0.0 0.0 4.4746392 3.9131008 4.0E-7 8.4991519 1.901286 8.0E-7</float_array>
                    <technique_common>
                        <accessor count="28" source="#geometry0-position-array" stride="3">
                            <param name="X" type="float"/>
                            <param name="Y" type="float"/>
                            <param name="Z" type="float"/>
                        </accessor>
                    </technique_common>
                </source>
                <source id="geometry0-normal">
                    <float_array id="geometry0-normal-array" count="180">1.0E-7 -0.0 -1.0 1.0E-7 -0.0 -1.0 1.0E-7 -0.0 -1.0 1.0E-7 -0.0 -1.0 1.0E-7 -0.0 -1.0 1.0E-7 -0.0 -1.0 1.0E-7 -0.0 -1.0 1.0E-7 -0.0 -1.0 1.0E-7 -0.0 -1.0 1.0E-7 -0.0 -1.0 1.0E-7 -0.0 -1.0 1.0E-7 -0.0 -1.0 1.0E-7 -0.0 -1.0 1.0E-7 -0.0 -1.0 1.0E-7 -0.0 -1.0 1.0E-7 -0.0 -1.0 1.0E-7 -0.0 -1.0 1.0E-7 -0.0 -1.0 0.3183863 -0.1595118 0.9344443 0.3183863 -0.1595118 0.9344443 0.3183863 -0.1595118 0.9344443 0.3183858 -0.1595117 0.9344445 0.3183858 -0.1595117 0.9344445 0.3183858 -0.1595117 0.9344445 0.3183852 -0.1595122 0.9344447 0.3183852 -0.1595122 0.9344447 0.3183852 -0.1595122 0.9344447 -0.8940687 0.4479298 -1.4E-6 -0.8940687 0.4479298 -1.4E-6 -0.8940687 0.4479298 -1.4E-6 -0.8940657 0.4479358 4.9E-6 -0.8940657 0.4479358 4.9E-6 -0.8940657 0.4479358 4.9E-6 -0.3493232 0.1750081 0.9205137 -0.3493232 0.1750081 0.9205137 -0.3493232 0.1750081 0.9205137 -0.3492878 0.1750638 0.9205166 -0.3492878 0.1750638 0.9205166 -0.3492878 0.1750638 0.9205166 -0.3493215 0.1750116 0.9205137 -0.3493215 0.1750116 0.9205137 -0.3493215 0.1750116 0.9205137 -0.3493216 0.1750117 0.9205136 -0.3493216 0.1750117 0.9205136 -0.3493216 0.1750117 0.9205136 0.8940682 -0.4479309 1.4E-6 0.8940682 -0.4479309 1.4E-6 0.8940682 -0.4479309 1.4E-6 -0.4479342 -0.8940666 1.5E-6 -0.4479342 -0.8940666 1.5E-6 -0.4479342 -0.8940666 1.5E-6 0.8940679 -0.4479314 1.8E-6 0.8940679 -0.4479314 1.8E-6 0.8940679 -0.4479314 1.8E-6 -0.4479311 -0.8940682 -4.0E-7 -0.4479311 -0.8940682 -4.0E-7 -0.4479311 -0.8940682 -4.0E-7 -0.4479292 -0.8940691 9.0E-7 -0.4479292 -0.8940691 9.0E-7 -0.4479292 -0.8940691 9.0E-7</float_array>
                    <technique_common>
                        <accessor count="60" source="#geometry0-normal-array" stride="3">
                            <param name="X" type="float"/>
                            <param name="Y" type="float"/>
                            <param name="Z" type="float"/>
                        </accessor>
                    </technique_common>
                </source>
                <source id="geometry0-texCoords">
                    <float_array id="geometry0-texCoords-array" count="0"></float_array>
                    <technique_common>
                        <accessor count="0" source="#geometry0-texCoords-array" stride="2">
                            <param name="S" type="float"/>
                            <param name="T" type="float"/>
                        </accessor>
                    </technique_common>
                </source>
                <vertices id="geometry0-vertex">
                    <input semantic="POSITION" source="#geometry0-position"/>
                </vertices>
                <triangles count="13" material="default_ai_0.2_sh_0.2_tr_0.0_dc_r_0.8_g_0.8_b_0.8_sc_r_1.0_g_1.0_b_1.0_ec_r_0.0_g_0.0_b_0_tri">
                    <input offset="0" semantic="VERTEX" source="#geometry0-vertex"/>
                    <input offset="1" semantic="NORMAL" source="#geometry0-normal"/>
                    <p>20 0 21 1 22 2 23 3 24 4 25 5 26 6 22 7 25 8 27 9 22 10 26 11 26 12 25 13 24 14 20 15 22 16 27 17 15 27 16 28 17 29 18 30 16 31 15 32 11 45 12 46 13 47 18 48 19 49 16 50 14 51 12 52 11 53 12 54 19 55 18 56 14 57 19 58 12 59</p>
                </triangles>
                <triangles count="7" material="default_ai_0.2_sh_0.2_tr_0.0_dc_r_1.0_g_0.2_b_0.2_sc_r_1.0_g_1.0_b_1.0_ec_r_0.0_g_0.0_b_0_tri">
                    <input offset="0" semantic="VERTEX" source="#geometry0-vertex"/>
                    <input offset="1" semantic="NORMAL" source="#geometry0-normal"/>
                    <p>6 18 7 19 8 20 6 21 8 22 9 23 8 24 7 25 10 26 0 33 1 34 2 35 3 36 1 37 0 38 0 39 2 40 4 41 0 42 4 43 5 44</p>
                </triangles>
            </mesh>
        </geometry>
    </library_geometries>
    <library_visual_scenes>
        <visual_scene id="Building_pb-96359a0f-7f36-11f0-96ca-9c7bef4dcf4c">
            <node>
                <instance_geometry url="#geometry0">
                    <bind_material>
                        <technique_common>
                            <instance_material symbol="default_ai_0.2_sh_0.2_tr_0.0_dc_r_0.8_g_0.8_b_0.8_sc_r_1.0_g_1.0_b_1.0_ec_r_0.0_g_0.0_b_0_tri" target="#default_ai_0.2_sh_0.2_tr_0.0_dc_r_0.8_g_0.8_b_0.8_sc_r_1.0_g_1.0_b_1.0_ec_r_0.0_g_0.0_b_0_mat"/>
                            <instance_material symbol="default_ai_0.2_sh_0.2_tr_0.0_dc_r_1.0_g_0.2_b_0.2_sc_r_1.0_g_1.0_b_1.0_ec_r_0.0_g_0.0_b_0_tri" target="#default_ai_0.2_sh_0.2_tr_0.0_dc_r_1.0_g_0.2_b_0.2_sc_r_1.0_g_1.0_b_1.0_ec_r_0.0_g_0.0_b_0_mat"/>
                        </technique_common>
                    </bind_material>
                </instance_geometry>
            </node>
        </visual_scene>
    </library_visual_scenes>
    <scene>
        <instance_visual_scene url="#Building_pb-96359a0f-7f36-11f0-96ca-9c7bef4dcf4c"/>
    </scene>
</COLLADA>
