<?xml version="1.0" encoding="UTF-8" standalone="yes"?>
<COLLADA xmlns="http://www.collada.org/2005/11/COLLADASchema" version="1.4.1">
    <asset>
        <contributor>
            <authoring_tool>3D City Database Importer/Exporter, version 5.5.1; Chair of Geoinformatics, Technical University of Munich</authoring_tool>
        </contributor>
        <created>2026-01-16T16:51:34.695</created>
        <modified>2026-01-16T16:51:34.695</modified>
        <unit meter="1.0" name="meters"/>
        <up_axis>Z_UP</up_axis>
    </asset>
    <library_materials>
        <material id="default_ai_0.2_sh_0.2_tr_0.0_dc_r_0.8_g_0.8_b_0.8_sc_r_1.0_g_1.0_b_1.0_ec_r_0.0_g_0.0_b_0_mat">
            <instance_effect url="#default_ai_0.2_sh_0.2_tr_0.0_dc_r_0.8_g_0.8_b_0.8_sc_r_1.0_g_1.0_b_1.0_ec_r_0.0_g_0.0_b_0_eff"/>
        </material>
        <material id="default_ai_0.2_sh_0.2_tr_0.0_dc_r_1.0_g_0.2_b_0.2_sc_r_1.0_g_1.0_b_1.0_ec_r_0.0_g_0.0_b_0_mat">
            <instance_effect url="#default_ai_0.2_sh_0.2_tr_0.0_dc_r_1.0_g_0.2_b_0.2_sc_r_1.0_g_1.0_b_1.0_ec_r_0.0_g_0.0_b_0_eff"/>
        </material>
    </library_materials>
    <library_effects>
        <effect id="default_ai_0.2_sh_0.2_tr_0.0_dc_r_0.8_g_0.8_b_0.8_sc_r_1.0_g_1.0_b_1.0_ec_r_0.0_g_0.0_b_0_eff">
            <profile_COMMON>
                <technique sid="COMMON">
                    <lambert>
                        <emission>
                            <color>0.0 0.0 0.0 1.0</color>
                        </emission>
                        <diffuse>
                            <color>0.8 0.8 0.8 1.0</color>
                        </diffuse>
                        <reflective>
                            <color>1.0 1.0 1.0 1.0</color>
                        </reflective>
                        <reflectivity>
                            <float>0.2</float>
                        </reflectivity>
                        <transparent opaque="A_ONE">
                            <color>1.0 1.0 1.0 1.0</color>
                        </transparent>
                        <transparency>
                            <float>1.0</float>
                        </transparency>
                    </lambert>
                </technique>
                <extra>
                    <technique profile="GOOGLEEARTH">
                        <double_sided>1</double_sided>
                    </technique>
                </extra>
            </profile_COMMON>
        </effect>
        <effect id="default_ai_0.2_sh_0.2_tr_0.0_dc_r_1.0_g_0.2_b_0.2_sc_r_1.0_g_1.0_b_1.0_ec_r_0.0_g_0.0_b_0_eff">
            <profile_COMMON>
                <technique sid="COMMON">
                    <lambert>
                        <emission>
                            <color>0.0 0.0 0.0 1.0</color>
                        </emission>
                        <diffuse>
                            <color>1.0 0.2 0.2 1.0</color>
                        </diffuse>
                        <reflective>
                            <color>1.0 1.0 1.0 1.0</color>
                        </reflective>
                        <reflectivity>
                            <float>0.2</float>
                        </reflectivity>
                        <transparent opaque="A_ONE">
                            <color>1.0 1.0 1.0 1.0</color>
                        </transparent>
                        <transparency>
                            <float>1.0</float>
                        </transparency>
                    </lambert>
                </technique>
                <extra>
                    <technique profile="GOOGLEEARTH">
                        <double_sided>1</double_sided>
                    </technique>
                </extra>
            </profile_COMMON>
        </effect>
    </library_effects>
    <library_geometries>
        <geometry id="geometry0">
            <mesh>
                <source id="geometry0-position">
                    <float_array id="geometry0-position-array" count="66">-4.8653328 -8.7364105 11.8999977 -15.9742043 3.1730896 14.6947985 -18.4068672 -1.1951279 11.8999977 -2.4326851 -4.368216 14.6947966 -13.5415566 7.5412765 11.8999987 -2.21E-5 1.5E-6 11.8999968 0.0 0.0 0.0 -13.5415039 7.5412941 11.9000025 0.0 -3.8E-6 11.8999958 -13.5415154 7.5412865 1.7E-6 -4.8653145 -8.7364159 3.2E-6 -2.4326477 -4.3682022 14.6948042 -4.8653183 -8.7364159 11.8999987 -18.4068298 -1.1951294 11.8999996 -18.4068336 -1.1951218 1.7E-6 -15.9741745 3.1730804 14.6947947 -18.406686 -1.1948406 3.1E-6 -13.5415284 7.5412842 2.2E-6 -13.8929881 -3.7085287 2.9E-6 -11.636188 -4.9653444 2.8E-6 6.5E-6 -9.9E-6 1.6E-6 -4.8651544 -8.7361442 2.5E-6</float_array>
                    <technique_common>
                        <accessor count="22" source="#geometry0-position-array" stride="3">
                            <param name="X" type="float"/>
                            <param name="Y" type="float"/>
                            <param name="Z" type="float"/>
                        </accessor>
                    </technique_common>
                </source>
                <source id="geometry0-normal">
                    <float_array id="geometry0-normal-array" count="144">0.873657 -0.4865423 3.0E-7 0.873657 -0.4865423 3.0E-7 0.873657 -0.4865423 3.0E-7 0.8736579 -0.4865406 -4.0E-7 0.8736579 -0.4865406 -4.0E-7 0.8736579 -0.4865406 -4.0E-7 0.8736584 -0.48654 -2.0E-7 0.8736584 -0.48654 -2.0E-7 0.8736584 -0.48654 -2.0E-7 -0.2373919 -0.4262738 0.8728893 -0.2373919 -0.4262738 0.8728893 -0.2373919 -0.4262738 0.8728893 -0.2373935 -0.426275 0.8728883 -0.2373935 -0.426275 0.8728883 -0.2373935 -0.426275 0.8728883 -1.0E-7 -1.0E-7 -1.0 -1.0E-7 -1.0E-7 -1.0 -1.0E-7 -1.0E-7 -1.0 -1.0E-7 -1.0E-7 -1.0 -1.0E-7 -1.0E-7 -1.0 -1.0E-7 -1.0E-7 -1.0 -1.0E-7 -1.0E-7 -1.0 -1.0E-7 -1.0E-7 -1.0 -1.0E-7 -1.0E-7 -1.0 0.4865419 0.8736572 3.0E-7 0.4865419 0.8736572 3.0E-7 0.4865419 0.8736572 3.0E-7 -1.0E-7 -1.0E-7 -1.0 -1.0E-7 -1.0E-7 -1.0 -1.0E-7 -1.0E-7 -1.0 0.4865411 0.8736578 -1.0E-6 0.4865411 0.8736578 -1.0E-6 0.4865411 0.8736578 -1.0E-6 0.237394 0.4262755 0.8728879 0.237394 0.4262755 0.8728879 0.237394 0.4262755 0.8728879 -0.8736576 0.4865412 6.0E-7 -0.8736576 0.4865412 6.0E-7 -0.8736576 0.4865412 6.0E-7 0.2373918 0.4262738 0.8728893 0.2373918 0.4262738 0.8728893 0.2373918 0.4262738 0.8728893 -0.8736582 0.4865403 -3.0E-7 -0.8736582 0.4865403 -3.0E-7 -0.8736582 0.4865403 -3.0E-7 -0.873657 0.4865424 5.0E-7 -0.873657 0.4865424 5.0E-7 -0.873657 0.4865424 5.0E-7</float_array>
                    <technique_common>
                        <accessor count="48" source="#geometry0-normal-array" stride="3">
                            <param name="X" type="float"/>
                            <param name="Y" type="float"/>
                            <param name="Z" type="float"/>
                        </accessor>
                    </technique_common>
                </source>
                <source id="geometry0-texCoords">
                    <float_array id="geometry0-texCoords-array" count="0"></float_array>
                    <technique_common>
                        <accessor count="0" source="#geometry0-texCoords-array" stride="2">
                            <param name="S" type="float"/>
                            <param name="T" type="float"/>
                        </accessor>
                    </technique_common>
                </source>
                <vertices id="geometry0-vertex">
                    <input semantic="POSITION" source="#geometry0-position"/>
                </vertices>
                <triangles count="12" material="default_ai_0.2_sh_0.2_tr_0.0_dc_r_0.8_g_0.8_b_0.8_sc_r_1.0_g_1.0_b_1.0_ec_r_0.0_g_0.0_b_0_tri">
                    <input offset="0" semantic="VERTEX" source="#geometry0-vertex"/>
                    <input offset="1" semantic="NORMAL" source="#geometry0-normal"/>
                    <p>10 0 11 1 12 2 6 3 11 4 10 5 8 6 11 7 6 8 16 15 17 16 18 17 19 18 20 19 21 20 17 21 20 22 19 23 6 24 7 25 8 26 17 27 19 28 18 29 9 30 7 31 6 32 13 36 9 37 14 38 15 42 9 43 13 44 7 45 9 46 15 47</p>
                </triangles>
                <triangles count="4" material="default_ai_0.2_sh_0.2_tr_0.0_dc_r_1.0_g_0.2_b_0.2_sc_r_1.0_g_1.0_b_1.0_ec_r_0.0_g_0.0_b_0_tri">
                    <input offset="0" semantic="VERTEX" source="#geometry0-vertex"/>
                    <input offset="1" semantic="NORMAL" source="#geometry0-normal"/>
                    <p>0 9 1 10 2 11 3 12 1 13 0 14 3 33 4 34 1 35 5 39 4 40 3 41</p>
                </triangles>
            </mesh>
        </geometry>
    </library_geometries>
    <library_visual_scenes>
        <visual_scene id="Building_pb-9635c100-7f36-11f0-9aef-9c7bef4dcf4c">
            <node>
                <instance_geometry url="#geometry0">
                    <bind_material>
                        <technique_common>
                            <instance_material symbol="default_ai_0.2_sh_0.2_tr_0.0_dc_r_0.8_g_0.8_b_0.8_sc_r_1.0_g_1.0_b_1.0_ec_r_0.0_g_0.0_b_0_tri" target="#default_ai_0.2_sh_0.2_tr_0.0_dc_r_0.8_g_0.8_b_0.8_sc_r_1.0_g_1.0_b_1.0_ec_r_0.0_g_0.0_b_0_mat"/>
                            <instance_material symbol="default_ai_0.2_sh_0.2_tr_0.0_dc_r_1.0_g_0.2_b_0.2_sc_r_1.0_g_1.0_b_1.0_ec_r_0.0_g_0.0_b_0_tri" target="#default_ai_0.2_sh_0.2_tr_0.0_dc_r_1.0_g_0.2_b_0.2_sc_r_1.0_g_1.0_b_1.0_ec_r_0.0_g_0.0_b_0_mat"/>
                        </technique_common>
                    </bind_material>
                </instance_geometry>
            </node>
        </visual_scene>
    </library_visual_scenes>
    <scene>
        <instance_visual_scene url="#Building_pb-9635c100-7f36-11f0-9aef-9c7bef4dcf4c"/>
    </scene>
</COLLADA>
