<?xml version="1.0" encoding="UTF-8" standalone="yes"?>
<COLLADA xmlns="http://www.collada.org/2005/11/COLLADASchema" version="1.4.1">
    <asset>
        <contributor>
            <authoring_tool>3D City Database Importer/Exporter, version 5.5.1; Chair of Geoinformatics, Technical University of Munich</authoring_tool>
        </contributor>
        <created>2026-01-16T16:51:34.646</created>
        <modified>2026-01-16T16:51:34.646</modified>
        <unit meter="1.0" name="meters"/>
        <up_axis>Z_UP</up_axis>
    </asset>
    <library_materials>
        <material id="default_ai_0.2_sh_0.2_tr_0.0_dc_r_0.8_g_0.8_b_0.8_sc_r_1.0_g_1.0_b_1.0_ec_r_0.0_g_0.0_b_0_mat">
            <instance_effect url="#default_ai_0.2_sh_0.2_tr_0.0_dc_r_0.8_g_0.8_b_0.8_sc_r_1.0_g_1.0_b_1.0_ec_r_0.0_g_0.0_b_0_eff"/>
        </material>
        <material id="default_ai_0.2_sh_0.2_tr_0.0_dc_r_1.0_g_0.2_b_0.2_sc_r_1.0_g_1.0_b_1.0_ec_r_0.0_g_0.0_b_0_mat">
            <instance_effect url="#default_ai_0.2_sh_0.2_tr_0.0_dc_r_1.0_g_0.2_b_0.2_sc_r_1.0_g_1.0_b_1.0_ec_r_0.0_g_0.0_b_0_eff"/>
        </material>
    </library_materials>
    <library_effects>
        <effect id="default_ai_0.2_sh_0.2_tr_0.0_dc_r_0.8_g_0.8_b_0.8_sc_r_1.0_g_1.0_b_1.0_ec_r_0.0_g_0.0_b_0_eff">
            <profile_COMMON>
                <technique sid="COMMON">
                    <lambert>
                        <emission>
                            <color>0.0 0.0 0.0 1.0</color>
                        </emission>
                        <diffuse>
                            <color>0.8 0.8 0.8 1.0</color>
                        </diffuse>
                        <reflective>
                            <color>1.0 1.0 1.0 1.0</color>
                        </reflective>
                        <reflectivity>
                            <float>0.2</float>
                        </reflectivity>
                        <transparent opaque="A_ONE">
                            <color>1.0 1.0 1.0 1.0</color>
                        </transparent>
                        <transparency>
                            <float>1.0</float>
                        </transparency>
                    </lambert>
                </technique>
                <extra>
                    <technique profile="GOOGLEEARTH">
                        <double_sided>1</double_sided>
                    </technique>
                </extra>
            </profile_COMMON>
        </effect>
        <effect id="default_ai_0.2_sh_0.2_tr_0.0_dc_r_1.0_g_0.2_b_0.2_sc_r_1.0_g_1.0_b_1.0_ec_r_0.0_g_0.0_b_0_eff">
            <profile_COMMON>
                <technique sid="COMMON">
                    <lambert>
                        <emission>
                            <color>0.0 0.0 0.0 1.0</color>
                        </emission>
                        <diffuse>
                            <color>1.0 0.2 0.2 1.0</color>
                        </diffuse>
                        <reflective>
                            <color>1.0 1.0 1.0 1.0</color>
                        </reflective>
                        <reflectivity>
                            <float>0.2</float>
                        </reflectivity>
                        <transparent opaque="A_ONE">
                            <color>1.0 1.0 1.0 1.0</color>
                        </transparent>
                        <transparency>
                            <float>1.0</float>
                        </transparency>
                    </lambert>
                </technique>
                <extra>
                    <technique profile="GOOGLEEARTH">
                        <double_sided>1</double_sided>
                    </technique>
                </extra>
            </profile_COMMON>
        </effect>
    </library_effects>
    <library_geometries>
        <geometry id="geometry0">
            <mesh>
                <source id="geometry0-position">
                    <float_array id="geometry0-position-array" count="138">-9.2015958 -4.6455078 8.0000309 -4.3725973 -2.4249268 9.0000309 -7.5670438 -0.994751 9.0000309 -6.0071493 -6.0757141 8.0000309 -4.0863233 -9.1270142 5.5000314 -6.82441 -7.9010925 5.5000314 -1.6345106 -3.6508179 9.0000309 -6.9142924 0.4659185 7.6001543 -8.727E-4 3.085E-4 5.500022 -5.9335623 2.6565013 5.4999959 -0.6547289 -1.4600968 6.9001538 -7.032652 0.2015581 7.8536023 -0.7336369 -1.6363404 7.0691223 -7.1594678 -0.0817065 8.125173 -0.8181878 -1.8251853 7.2501735 -7.3501769 -0.5076792 8.5335621 -0.945334 -2.1091716 7.5224387 -7.5670243 -0.9947219 9.0000705 -1.0906363 -2.4337101 7.8335828 -7.5680304 -0.9942715 9.0000705 -4.3725882 -2.4249067 9.0000576 -1.329011 -2.9661254 8.3440241 -1.6353775 -3.6504033 9.00006 -1.65E-5 -4.51E-5 5.5000426 -3.2690976 -7.3016141 8.0000426 -1.6345532 -3.6508287 9.0000417 -1.2E-6 -4.9E-5 4.38E-5 -3.2690823 -7.3016179 4.38E-5 -4.3726132 -2.4249299 9.0000426 -6.0071881 -6.0757058 8.0000417 -6.0071881 -6.0757039 6.6667111 -4.0863736 -9.1270116 5.5000426 -4.0863583 -9.1270173 4.4E-5 -6.8244412 -7.901111 5.5000431 -6.8244489 -7.9011091 4.41E-5 -6.0071729 -6.0757097 4.4E-5 -9.2016232 -4.6454805 4.43E-5 -9.2016309 -4.6454767 8.0000426 -5.9325345 2.6560866 4.42E-5 -5.9325497 2.6560904 5.5000431 0.0 0.0 0.0 -6.0071602 -6.0756531 7.0E-7 -9.2016106 -4.6454163 1.0E-6 -4.0863266 -9.1269226 5.0E-7 -6.8244247 -7.9010315 8.0E-7 -5.9324913 2.6561279 7.0E-7</float_array>
                    <technique_common>
                        <accessor count="46" source="#geometry0-position-array" stride="3">
                            <param name="X" type="float"/>
                            <param name="Y" type="float"/>
                            <param name="Z" type="float"/>
                        </accessor>
                    </technique_common>
                </source>
                <source id="geometry0-normal">
                    <float_array id="geometry0-normal-array" count="342">0.9126974 -0.4086361 -1.3E-6 0.9126974 -0.4086361 -1.3E-6 0.9126974 -0.4086361 -1.3E-6 0.9126974 -0.4086361 2.9E-6 0.9126974 -0.4086361 2.9E-6 0.9126974 -0.4086361 2.9E-6 0.9126974 -0.408636 2.8E-6 0.9126974 -0.408636 2.8E-6 0.9126974 -0.408636 2.8E-6 -0.4086358 -0.9126976 -1.0E-7 -0.4086358 -0.9126976 -1.0E-7 -0.4086358 -0.9126976 -1.0E-7 -0.4086337 -0.9126984 -1.3E-6 -0.4086337 -0.9126984 -1.3E-6 -0.4086337 -0.9126984 -1.3E-6 -0.4086367 -0.9126973 0.0 -0.4086367 -0.9126973 0.0 -0.4086367 -0.9126973 0.0 -0.9126973 0.4086362 1.3E-6 -0.9126973 0.4086362 1.3E-6 -0.9126973 0.4086362 1.3E-6 -0.9126979 0.4086349 -2.8E-6 -0.9126979 0.4086349 -2.8E-6 -0.9126979 0.4086349 -2.8E-6 -0.9126976 0.4086358 -1.9E-6 -0.9126976 0.4086358 -1.9E-6 -0.9126976 0.4086358 -1.9E-6 0.4086362 0.9126973 5.0E-7 0.4086362 0.9126973 5.0E-7 0.4086362 0.9126973 5.0E-7 0.4086362 0.9126973 5.0E-7 0.4086362 0.9126973 5.0E-7 0.4086362 0.9126973 5.0E-7 -0.0991064 -0.2213644 0.9701422 -0.0991064 -0.2213644 0.9701422 -0.0991064 -0.2213644 0.9701422 -0.0991075 -0.2213622 0.9701425 -0.0991075 -0.2213622 0.9701425 -0.0991075 -0.2213622 0.9701425 0.2690901 0.6010286 0.7525658 0.2690901 0.6010286 0.7525658 0.2690901 0.6010286 0.7525658 0.2690901 0.6010283 0.7525659 0.2690901 0.6010283 0.7525659 0.2690901 0.6010283 0.7525659 -0.4086362 -0.9126974 3.0E-7 -0.4086362 -0.9126974 3.0E-7 -0.4086362 -0.9126974 3.0E-7 -1.0E-7 0.0 -1.0 -1.0E-7 0.0 -1.0 -1.0E-7 0.0 -1.0 0.2690897 0.6010261 0.7525679 0.2690897 0.6010261 0.7525679 0.2690897 0.6010261 0.7525679 -0.4086369 -0.912697 -2.0E-7 -0.4086369 -0.912697 -2.0E-7 -0.4086369 -0.912697 -2.0E-7 -1.0E-7 -0.0 -1.0 -1.0E-7 -0.0 -1.0 -1.0E-7 -0.0 -1.0 0.2690896 0.6010265 0.7525676 0.2690896 0.6010265 0.7525676 0.2690896 0.6010265 0.7525676 -1.0E-7 -0.0 -1.0 -1.0E-7 -0.0 -1.0 -1.0E-7 -0.0 -1.0 0.2690898 0.6010274 0.7525668 0.2690898 0.6010274 0.7525668 0.2690898 0.6010274 0.7525668 -1.0E-7 0.0 -1.0 -1.0E-7 0.0 -1.0 -1.0E-7 0.0 -1.0 0.26909 0.6010286 0.7525657 0.26909 0.6010286 0.7525657 0.26909 0.6010286 0.7525657 0.2690899 0.6010286 0.7525657 0.2690899 0.6010286 0.7525657 0.2690899 0.6010286 0.7525657 0.2690899 0.6010278 0.7525664 0.2690899 0.6010278 0.7525664 0.2690899 0.6010278 0.7525664 0.2690901 0.6010292 0.7525653 0.2690901 0.6010292 0.7525653 0.2690901 0.6010292 0.7525653 0.2690901 0.6010291 0.7525654 0.2690901 0.6010291 0.7525654 0.2690901 0.6010291 0.7525654 -0.2059026 -0.4598818 0.8637782 -0.2059026 -0.4598818 0.8637782 -0.2059026 -0.4598818 0.8637782 0.2690334 0.6010555 0.7525645 0.2690334 0.6010555 0.7525645 0.2690334 0.6010555 0.7525645 -0.9127014 0.4086271 -2.4E-6 -0.9127014 0.4086271 -2.4E-6 -0.9127014 0.4086271 -2.4E-6 -0.2058976 -0.4598821 0.8637793 -0.2058976 -0.4598821 0.8637793 -0.2058976 -0.4598821 0.8637793 0.26909 0.6010278 0.7525664 0.26909 0.6010278 0.7525664 0.26909 0.6010278 0.7525664 0.26909 0.6010277 0.7525665 0.26909 0.6010277 0.7525665 0.26909 0.6010277 0.7525665 -0.912697 0.4086368 1.4E-6 -0.912697 0.4086368 1.4E-6 -0.912697 0.4086368 1.4E-6 0.2690901 0.6010284 0.752566 0.2690901 0.6010284 0.752566 0.2690901 0.6010284 0.752566 0.912694 -0.4086435 -6.0E-7 0.912694 -0.4086435 -6.0E-7 0.912694 -0.4086435 -6.0E-7</float_array>
                    <technique_common>
                        <accessor count="114" source="#geometry0-normal-array" stride="3">
                            <param name="X" type="float"/>
                            <param name="Y" type="float"/>
                            <param name="Z" type="float"/>
                        </accessor>
                    </technique_common>
                </source>
                <source id="geometry0-texCoords">
                    <float_array id="geometry0-texCoords-array" count="0"></float_array>
                    <technique_common>
                        <accessor count="0" source="#geometry0-texCoords-array" stride="2">
                            <param name="S" type="float"/>
                            <param name="T" type="float"/>
                        </accessor>
                    </technique_common>
                </source>
                <vertices id="geometry0-vertex">
                    <input semantic="POSITION" source="#geometry0-position"/>
                </vertices>
                <triangles count="20" material="default_ai_0.2_sh_0.2_tr_0.0_dc_r_0.8_g_0.8_b_0.8_sc_r_1.0_g_1.0_b_1.0_ec_r_0.0_g_0.0_b_0_tri">
                    <input offset="0" semantic="VERTEX" source="#geometry0-vertex"/>
                    <input offset="1" semantic="NORMAL" source="#geometry0-normal"/>
                    <p>31 0 23 1 25 2 32 3 23 4 31 5 26 6 23 7 32 8 30 9 36 10 35 11 29 12 36 13 30 14 37 15 36 16 29 17 23 18 24 19 25 20 26 21 24 22 23 23 27 24 24 25 26 26 23 27 38 28 39 29 26 30 38 31 23 32 32 45 33 46 34 47 40 48 41 49 42 50 31 54 33 55 32 56 43 57 41 58 40 59 44 63 41 64 43 65 45 69 40 70 42 71 35 93 33 94 30 95 34 105 33 106 35 107 28 111 29 112 30 113</p>
                </triangles>
                <triangles count="18" material="default_ai_0.2_sh_0.2_tr_0.0_dc_r_1.0_g_0.2_b_0.2_sc_r_1.0_g_1.0_b_1.0_ec_r_0.0_g_0.0_b_0_tri">
                    <input offset="0" semantic="VERTEX" source="#geometry0-vertex"/>
                    <input offset="1" semantic="NORMAL" source="#geometry0-normal"/>
                    <p>0 33 1 34 2 35 3 36 1 37 0 38 7 39 8 40 9 41 10 42 8 43 7 44 11 51 10 52 7 53 12 60 10 61 11 62 13 66 12 67 11 68 14 72 12 73 13 74 15 75 14 76 13 77 16 78 14 79 15 80 17 81 16 82 15 83 18 84 16 85 17 86 4 87 1 88 5 89 17 90 15 91 19 92 6 96 1 97 4 98 20 99 18 100 17 101 21 102 18 103 20 104 22 108 21 109 20 110</p>
                </triangles>
            </mesh>
        </geometry>
    </library_geometries>
    <library_visual_scenes>
        <visual_scene id="Building_pb-9635e7f1-7f36-11f0-919b-9c7bef4dcf4c">
            <node>
                <instance_geometry url="#geometry0">
                    <bind_material>
                        <technique_common>
                            <instance_material symbol="default_ai_0.2_sh_0.2_tr_0.0_dc_r_0.8_g_0.8_b_0.8_sc_r_1.0_g_1.0_b_1.0_ec_r_0.0_g_0.0_b_0_tri" target="#default_ai_0.2_sh_0.2_tr_0.0_dc_r_0.8_g_0.8_b_0.8_sc_r_1.0_g_1.0_b_1.0_ec_r_0.0_g_0.0_b_0_mat"/>
                            <instance_material symbol="default_ai_0.2_sh_0.2_tr_0.0_dc_r_1.0_g_0.2_b_0.2_sc_r_1.0_g_1.0_b_1.0_ec_r_0.0_g_0.0_b_0_tri" target="#default_ai_0.2_sh_0.2_tr_0.0_dc_r_1.0_g_0.2_b_0.2_sc_r_1.0_g_1.0_b_1.0_ec_r_0.0_g_0.0_b_0_mat"/>
                        </technique_common>
                    </bind_material>
                </instance_geometry>
            </node>
        </visual_scene>
    </library_visual_scenes>
    <scene>
        <instance_visual_scene url="#Building_pb-9635e7f1-7f36-11f0-919b-9c7bef4dcf4c"/>
    </scene>
</COLLADA>
