<?xml version="1.0" encoding="UTF-8" standalone="yes"?>
<COLLADA xmlns="http://www.collada.org/2005/11/COLLADASchema" version="1.4.1">
    <asset>
        <contributor>
            <authoring_tool>3D City Database Importer/Exporter, version 5.5.1; Chair of Geoinformatics, Technical University of Munich</authoring_tool>
        </contributor>
        <created>2026-01-16T16:51:34.037</created>
        <modified>2026-01-16T16:51:34.037</modified>
        <unit meter="1.0" name="meters"/>
        <up_axis>Z_UP</up_axis>
    </asset>
    <library_materials>
        <material id="default_ai_0.2_sh_0.2_tr_0.0_dc_r_1.0_g_0.2_b_0.2_sc_r_1.0_g_1.0_b_1.0_ec_r_0.0_g_0.0_b_0_mat">
            <instance_effect url="#default_ai_0.2_sh_0.2_tr_0.0_dc_r_1.0_g_0.2_b_0.2_sc_r_1.0_g_1.0_b_1.0_ec_r_0.0_g_0.0_b_0_eff"/>
        </material>
        <material id="default_ai_0.2_sh_0.2_tr_0.0_dc_r_0.8_g_0.8_b_0.8_sc_r_1.0_g_1.0_b_1.0_ec_r_0.0_g_0.0_b_0_mat">
            <instance_effect url="#default_ai_0.2_sh_0.2_tr_0.0_dc_r_0.8_g_0.8_b_0.8_sc_r_1.0_g_1.0_b_1.0_ec_r_0.0_g_0.0_b_0_eff"/>
        </material>
    </library_materials>
    <library_effects>
        <effect id="default_ai_0.2_sh_0.2_tr_0.0_dc_r_1.0_g_0.2_b_0.2_sc_r_1.0_g_1.0_b_1.0_ec_r_0.0_g_0.0_b_0_eff">
            <profile_COMMON>
                <technique sid="COMMON">
                    <lambert>
                        <emission>
                            <color>0.0 0.0 0.0 1.0</color>
                        </emission>
                        <diffuse>
                            <color>1.0 0.2 0.2 1.0</color>
                        </diffuse>
                        <reflective>
                            <color>1.0 1.0 1.0 1.0</color>
                        </reflective>
                        <reflectivity>
                            <float>0.2</float>
                        </reflectivity>
                        <transparent opaque="A_ONE">
                            <color>1.0 1.0 1.0 1.0</color>
                        </transparent>
                        <transparency>
                            <float>1.0</float>
                        </transparency>
                    </lambert>
                </technique>
                <extra>
                    <technique profile="GOOGLEEARTH">
                        <double_sided>1</double_sided>
                    </technique>
                </extra>
            </profile_COMMON>
        </effect>
        <effect id="default_ai_0.2_sh_0.2_tr_0.0_dc_r_0.8_g_0.8_b_0.8_sc_r_1.0_g_1.0_b_1.0_ec_r_0.0_g_0.0_b_0_eff">
            <profile_COMMON>
                <technique sid="COMMON">
                    <lambert>
                        <emission>
                            <color>0.0 0.0 0.0 1.0</color>
                        </emission>
                        <diffuse>
                            <color>0.8 0.8 0.8 1.0</color>
                        </diffuse>
                        <reflective>
                            <color>1.0 1.0 1.0 1.0</color>
                        </reflective>
                        <reflectivity>
                            <float>0.2</float>
                        </reflectivity>
                        <transparent opaque="A_ONE">
                            <color>1.0 1.0 1.0 1.0</color>
                        </transparent>
                        <transparency>
                            <float>1.0</float>
                        </transparency>
                    </lambert>
                </technique>
                <extra>
                    <technique profile="GOOGLEEARTH">
                        <double_sided>1</double_sided>
                    </technique>
                </extra>
            </profile_COMMON>
        </effect>
    </library_effects>
    <library_geometries>
        <geometry id="geometry0">
            <mesh>
                <source id="geometry0-position">
                    <float_array id="geometry0-position-array" count="123">-2.6653091 9.9578613 5.5007049 -1.8461313 11.7830205 5.0010633 -1.8482436 11.782743 5.0013421 4.0863938 9.126923 5.0010641 -2.966498 9.2851685 5.6847813 -3.4823698 8.1329905 6.0000646 -3.4807138 8.1322491 6.0000646 -0.2862266 6.7020411 6.0000601 2.4518728 5.4761353 6.0000628 -1.8477873 11.783762 5.0010633 -1.9208074 3.0512848 5.0000617 -3.4807134 8.1322479 6.0000616 -5.1151739 4.4814301 5.0000627 -0.2862249 6.7020416 6.0000635 6.05E-5 -3.05E-5 3.9002425 -2.7380376 1.2258759 3.9002425 2.4518732 5.4761353 6.0000616 4.0863444 9.1269156 6.36E-5 -5.0E-6 -6.04E-5 3.9002426 -2.03E-5 -6.04E-5 6.18E-5 4.0863444 9.1269156 5.0010632 2.4517924 5.476113 6.0000609 -2.7380879 1.2258536 3.9002426 -2.7380879 1.2258536 6.3E-5 -1.9208119 3.0512397 4.6001833 -1.9208272 3.0512473 6.24E-5 -0.2862752 6.7020346 6.0000628 -1.9208424 3.0512473 5.0000613 -5.1152699 4.4814765 5.0000618 -5.1152699 4.4814765 6.31E-5 -3.4807332 8.1322562 6.0000613 -5.1152699 4.4814765 3.66673 -1.8461812 11.7830359 5.0010637 -5.1152699 4.4814688 4.5995157 -1.8461964 11.7830435 6.21E-5 4.0863647 9.1269836 1.6E-6 -1.9208069 3.0513306 2.0E-7 -5.1152344 4.4815674 1.6E-6 0.0 0.0 0.0 -2.7380676 1.2259064 1.3E-6 -1.8461609 11.7831268 2.0E-7</float_array>
                    <technique_common>
                        <accessor count="41" source="#geometry0-position-array" stride="3">
                            <param name="X" type="float"/>
                            <param name="Y" type="float"/>
                            <param name="Z" type="float"/>
                        </accessor>
                    </technique_common>
                </source>
                <source id="geometry0-normal">
                    <float_array id="geometry0-normal-array" count="279">-0.0991059 -0.2213632 0.9701424 -0.0991059 -0.2213632 0.9701424 -0.0991059 -0.2213632 0.9701424 -0.4086382 -0.9126965 -1.3E-6 -0.4086382 -0.9126965 -1.3E-6 -0.4086382 -0.9126965 -1.3E-6 -0.0991074 -0.2213636 0.9701422 -0.0991074 -0.2213636 0.9701422 -0.0991074 -0.2213636 0.9701422 0.9126967 -0.4086376 4.2E-6 0.9126967 -0.4086376 4.2E-6 0.9126967 -0.4086376 4.2E-6 -0.1349828 -0.3014881 0.9438669 -0.1349828 -0.3014881 0.9438669 -0.1349828 -0.3014881 0.9438669 -0.1349821 -0.3014881 0.9438669 -0.1349821 -0.3014881 0.9438669 -0.1349821 -0.3014881 0.9438669 -0.912697 0.408637 -7.2E-6 -0.912697 0.408637 -7.2E-6 -0.912697 0.408637 -7.2E-6 0.9126973 -0.4086363 -3.6E-6 0.9126973 -0.4086363 -3.6E-6 0.9126973 -0.4086363 -3.6E-6 -0.9126977 0.4086354 0.0 -0.9126977 0.4086354 0.0 -0.9126977 0.4086354 0.0 0.9126979 -0.4086351 0.0 0.9126979 -0.4086351 0.0 0.9126979 -0.4086351 0.0 0.9126977 -0.4086355 4.2E-6 0.9126977 -0.4086355 4.2E-6 0.9126977 -0.4086355 4.2E-6 0.4086348 0.912698 1.0E-7 0.4086348 0.912698 1.0E-7 0.4086348 0.912698 1.0E-7 0.0991795 0.22108 0.9701995 0.0991795 0.22108 0.9701995 0.0991795 0.22108 0.9701995 0.4086347 0.912698 0.0 0.4086347 0.912698 0.0 0.4086347 0.912698 0.0 0.0990145 0.2211541 0.9701995 0.0990145 0.2211541 0.9701995 0.0990145 0.2211541 0.9701995 0.0990145 0.2211548 0.9701993 0.0990145 0.2211548 0.9701993 0.0990145 0.2211548 0.9701993 0.0990362 0.2210176 0.9702284 0.0990362 0.2210176 0.9702284 0.0990362 0.2210176 0.9702284 0.0990145 0.2211537 0.9701995 0.0990145 0.2211537 0.9701995 0.0990145 0.2211537 0.9701995 0.0990145 0.2211541 0.9701995 0.0990145 0.2211541 0.9701995 0.0990145 0.2211541 0.9701995 0.0990145 0.2211542 0.9701995 0.0990145 0.2211542 0.9701995 0.0990145 0.2211542 0.9701995 0.0991474 0.2212817 0.9701568 0.0991474 0.2212817 0.9701568 0.0991474 0.2212817 0.9701568 -2.0E-7 4.0E-7 -1.0 -2.0E-7 4.0E-7 -1.0 -2.0E-7 4.0E-7 -1.0 1.0E-7 1.0E-7 -1.0 1.0E-7 1.0E-7 -1.0 1.0E-7 1.0E-7 -1.0 -0.4086389 -0.9126962 1.6E-6 -0.4086389 -0.9126962 1.6E-6 -0.4086389 -0.9126962 1.6E-6 -6.0E-7 -3.0E-7 -1.0 -6.0E-7 -3.0E-7 -1.0 -6.0E-7 -3.0E-7 -1.0 -0.4086407 -0.9126953 0.0 -0.4086407 -0.9126953 0.0 -0.4086407 -0.9126953 0.0 1.0E-7 -2.0E-7 -1.0 1.0E-7 -2.0E-7 -1.0 1.0E-7 -2.0E-7 -1.0 -0.9126995 0.4086315 3.7E-6 -0.9126995 0.4086315 3.7E-6 -0.9126995 0.4086315 3.7E-6 -0.9126959 0.4086393 0.0 -0.9126959 0.4086393 0.0 -0.9126959 0.4086393 0.0 0.9126872 -0.4086588 7.75E-5 0.9126872 -0.4086588 7.75E-5 0.9126872 -0.4086588 7.75E-5 -0.4086365 -0.9126972 0.0 -0.4086365 -0.9126972 0.0 -0.4086365 -0.9126972 0.0</float_array>
                    <technique_common>
                        <accessor count="93" source="#geometry0-normal-array" stride="3">
                            <param name="X" type="float"/>
                            <param name="Y" type="float"/>
                            <param name="Z" type="float"/>
                        </accessor>
                    </technique_common>
                </source>
                <source id="geometry0-texCoords">
                    <float_array id="geometry0-texCoords-array" count="0"></float_array>
                    <technique_common>
                        <accessor count="0" source="#geometry0-texCoords-array" stride="2">
                            <param name="S" type="float"/>
                            <param name="T" type="float"/>
                        </accessor>
                    </technique_common>
                </source>
                <vertices id="geometry0-vertex">
                    <input semantic="POSITION" source="#geometry0-position"/>
                </vertices>
                <triangles count="19" material="default_ai_0.2_sh_0.2_tr_0.0_dc_r_0.8_g_0.8_b_0.8_sc_r_1.0_g_1.0_b_1.0_ec_r_0.0_g_0.0_b_0_tri">
                    <input offset="0" semantic="VERTEX" source="#geometry0-vertex"/>
                    <input offset="1" semantic="NORMAL" source="#geometry0-normal"/>
                    <p>27 3 28 4 25 5 30 9 31 10 32 11 32 18 33 19 30 20 17 21 18 22 19 23 28 24 30 25 31 26 20 27 18 28 17 29 21 30 18 31 20 32 32 33 17 34 34 35 20 39 17 40 32 41 35 63 36 64 37 65 38 66 36 67 35 68 22 69 19 70 18 71 39 72 36 73 38 74 23 75 19 76 22 77 40 78 35 79 37 80 23 81 24 82 25 83 22 84 24 85 23 86 26 87 27 88 24 89 25 90 28 91 29 92</p>
                </triangles>
                <triangles count="12" material="default_ai_0.2_sh_0.2_tr_0.0_dc_r_1.0_g_0.2_b_0.2_sc_r_1.0_g_1.0_b_1.0_ec_r_0.0_g_0.0_b_0_tri">
                    <input offset="0" semantic="VERTEX" source="#geometry0-vertex"/>
                    <input offset="1" semantic="NORMAL" source="#geometry0-normal"/>
                    <p>10 0 11 1 12 2 13 6 11 7 10 8 14 12 13 13 15 14 16 15 13 16 14 17 0 36 1 37 2 38 3 42 1 43 0 44 3 45 0 46 4 47 3 48 5 49 6 50 4 51 5 52 3 53 3 54 6 55 7 56 3 57 7 58 8 59 2 60 1 61 9 62</p>
                </triangles>
            </mesh>
        </geometry>
    </library_geometries>
    <library_visual_scenes>
        <visual_scene id="Building_pb-9635c10b-7f36-11f0-b9bd-9c7bef4dcf4c">
            <node>
                <instance_geometry url="#geometry0">
                    <bind_material>
                        <technique_common>
                            <instance_material symbol="default_ai_0.2_sh_0.2_tr_0.0_dc_r_0.8_g_0.8_b_0.8_sc_r_1.0_g_1.0_b_1.0_ec_r_0.0_g_0.0_b_0_tri" target="#default_ai_0.2_sh_0.2_tr_0.0_dc_r_0.8_g_0.8_b_0.8_sc_r_1.0_g_1.0_b_1.0_ec_r_0.0_g_0.0_b_0_mat"/>
                            <instance_material symbol="default_ai_0.2_sh_0.2_tr_0.0_dc_r_1.0_g_0.2_b_0.2_sc_r_1.0_g_1.0_b_1.0_ec_r_0.0_g_0.0_b_0_tri" target="#default_ai_0.2_sh_0.2_tr_0.0_dc_r_1.0_g_0.2_b_0.2_sc_r_1.0_g_1.0_b_1.0_ec_r_0.0_g_0.0_b_0_mat"/>
                        </technique_common>
                    </bind_material>
                </instance_geometry>
            </node>
        </visual_scene>
    </library_visual_scenes>
    <scene>
        <instance_visual_scene url="#Building_pb-9635c10b-7f36-11f0-b9bd-9c7bef4dcf4c"/>
    </scene>
</COLLADA>
