<?xml version="1.0" encoding="UTF-8" standalone="yes"?>
<COLLADA xmlns="http://www.collada.org/2005/11/COLLADASchema" version="1.4.1">
    <asset>
        <contributor>
            <authoring_tool>3D City Database Importer/Exporter, version 5.5.1; Chair of Geoinformatics, Technical University of Munich</authoring_tool>
        </contributor>
        <created>2026-01-16T16:51:34.161</created>
        <modified>2026-01-16T16:51:34.161</modified>
        <unit meter="1.0" name="meters"/>
        <up_axis>Z_UP</up_axis>
    </asset>
    <library_materials>
        <material id="default_ai_0.2_sh_0.2_tr_0.0_dc_r_0.8_g_0.8_b_0.8_sc_r_1.0_g_1.0_b_1.0_ec_r_0.0_g_0.0_b_0_mat">
            <instance_effect url="#default_ai_0.2_sh_0.2_tr_0.0_dc_r_0.8_g_0.8_b_0.8_sc_r_1.0_g_1.0_b_1.0_ec_r_0.0_g_0.0_b_0_eff"/>
        </material>
        <material id="default_ai_0.2_sh_0.2_tr_0.0_dc_r_1.0_g_0.2_b_0.2_sc_r_1.0_g_1.0_b_1.0_ec_r_0.0_g_0.0_b_0_mat">
            <instance_effect url="#default_ai_0.2_sh_0.2_tr_0.0_dc_r_1.0_g_0.2_b_0.2_sc_r_1.0_g_1.0_b_1.0_ec_r_0.0_g_0.0_b_0_eff"/>
        </material>
    </library_materials>
    <library_effects>
        <effect id="default_ai_0.2_sh_0.2_tr_0.0_dc_r_0.8_g_0.8_b_0.8_sc_r_1.0_g_1.0_b_1.0_ec_r_0.0_g_0.0_b_0_eff">
            <profile_COMMON>
                <technique sid="COMMON">
                    <lambert>
                        <emission>
                            <color>0.0 0.0 0.0 1.0</color>
                        </emission>
                        <diffuse>
                            <color>0.8 0.8 0.8 1.0</color>
                        </diffuse>
                        <reflective>
                            <color>1.0 1.0 1.0 1.0</color>
                        </reflective>
                        <reflectivity>
                            <float>0.2</float>
                        </reflectivity>
                        <transparent opaque="A_ONE">
                            <color>1.0 1.0 1.0 1.0</color>
                        </transparent>
                        <transparency>
                            <float>1.0</float>
                        </transparency>
                    </lambert>
                </technique>
                <extra>
                    <technique profile="GOOGLEEARTH">
                        <double_sided>1</double_sided>
                    </technique>
                </extra>
            </profile_COMMON>
        </effect>
        <effect id="default_ai_0.2_sh_0.2_tr_0.0_dc_r_1.0_g_0.2_b_0.2_sc_r_1.0_g_1.0_b_1.0_ec_r_0.0_g_0.0_b_0_eff">
            <profile_COMMON>
                <technique sid="COMMON">
                    <lambert>
                        <emission>
                            <color>0.0 0.0 0.0 1.0</color>
                        </emission>
                        <diffuse>
                            <color>1.0 0.2 0.2 1.0</color>
                        </diffuse>
                        <reflective>
                            <color>1.0 1.0 1.0 1.0</color>
                        </reflective>
                        <reflectivity>
                            <float>0.2</float>
                        </reflectivity>
                        <transparent opaque="A_ONE">
                            <color>1.0 1.0 1.0 1.0</color>
                        </transparent>
                        <transparency>
                            <float>1.0</float>
                        </transparency>
                    </lambert>
                </technique>
                <extra>
                    <technique profile="GOOGLEEARTH">
                        <double_sided>1</double_sided>
                    </technique>
                </extra>
            </profile_COMMON>
        </effect>
    </library_effects>
    <library_geometries>
        <geometry id="geometry0">
            <mesh>
                <source id="geometry0-position">
                    <float_array id="geometry0-position-array" count="69">8.6761597 -16.2777237 11.899997 -2.4326813 -4.3682007 14.6957953 -4.8653595 -8.7364182 11.8999999 11.1088379 -11.9095062 14.6957943 -3.36E-5 -6.1E-6 11.899996 13.5415008 -7.5412888 11.899996 8.6761932 -16.27771 11.8999999 -4.8653297 -8.7364273 7.0E-7 8.6762047 -16.27771 7.0E-7 -4.8653221 -8.7364349 11.8999932 0.0 0.0 0.0 13.5415154 -7.5412941 11.899997 13.5415192 -7.5412941 1.5E-6 3.8E-6 -7.6E-6 11.8999979 -2.432663 -4.3682251 14.6957924 11.1088524 -11.9095001 14.6957953 -4.8654062 -8.736555 2.5E-6 4.5138453 -2.5134073 1.5E-6 4.1623581 -13.7641148 2.2E-6 1.472E-4 2.809E-4 1.7E-6 6.7706454 -3.770223 1.4E-6 13.5416792 -7.5410229 1.1E-6 8.6761369 -16.277841 2.0E-6</float_array>
                    <technique_common>
                        <accessor count="23" source="#geometry0-position-array" stride="3">
                            <param name="X" type="float"/>
                            <param name="Y" type="float"/>
                            <param name="Z" type="float"/>
                        </accessor>
                    </technique_common>
                </source>
                <source id="geometry0-normal">
                    <float_array id="geometry0-normal-array" count="171">-0.4865403 -0.8736581 -5.0E-7 -0.4865403 -0.8736581 -5.0E-7 -0.4865403 -0.8736581 -5.0E-7 -0.4865405 -0.873658 -2.0E-7 -0.4865405 -0.873658 -2.0E-7 -0.4865405 -0.873658 -2.0E-7 0.2374584 0.4263912 0.8728139 0.2374584 0.4263912 0.8728139 0.2374584 0.4263912 0.8728139 0.2374565 0.4263898 0.8728151 0.2374565 0.4263898 0.8728151 0.2374565 0.4263898 0.8728151 -0.8736576 0.4865412 6.0E-7 -0.8736576 0.4865412 6.0E-7 -0.8736576 0.4865412 6.0E-7 -0.8736578 0.4865409 9.0E-7 -0.8736578 0.4865409 9.0E-7 -0.8736578 0.4865409 9.0E-7 -0.8736578 0.486541 -5.0E-7 -0.8736578 0.486541 -5.0E-7 -0.8736578 0.486541 -5.0E-7 -0.2374567 -0.4263886 0.8728156 -0.2374567 -0.4263886 0.8728156 -0.2374567 -0.4263886 0.8728156 -1.0E-7 -1.0E-7 -1.0 -1.0E-7 -1.0E-7 -1.0 -1.0E-7 -1.0E-7 -1.0 -0.2374569 -0.4263887 0.8728155 -0.2374569 -0.4263887 0.8728155 -0.2374569 -0.4263887 0.8728155 0.4865414 0.8736576 2.0E-7 0.4865414 0.8736576 2.0E-7 0.4865414 0.8736576 2.0E-7 0.4865412 0.8736576 4.0E-7 0.4865412 0.8736576 4.0E-7 0.4865412 0.8736576 4.0E-7 0.8736575 -0.4865415 3.0E-7 0.8736575 -0.4865415 3.0E-7 0.8736575 -0.4865415 3.0E-7 -1.0E-7 -1.0E-7 -1.0 -1.0E-7 -1.0E-7 -1.0 -1.0E-7 -1.0E-7 -1.0 0.8736578 -0.4865409 5.0E-7 0.8736578 -0.4865409 5.0E-7 0.8736578 -0.4865409 5.0E-7 0.8736579 -0.4865406 9.0E-7 0.8736579 -0.4865406 9.0E-7 0.8736579 -0.4865406 9.0E-7 -1.0E-7 -1.0E-7 -1.0 -1.0E-7 -1.0E-7 -1.0 -1.0E-7 -1.0E-7 -1.0 -1.0E-7 -1.0E-7 -1.0 -1.0E-7 -1.0E-7 -1.0 -1.0E-7 -1.0E-7 -1.0 -1.0E-7 -1.0E-7 -1.0 -1.0E-7 -1.0E-7 -1.0 -1.0E-7 -1.0E-7 -1.0</float_array>
                    <technique_common>
                        <accessor count="57" source="#geometry0-normal-array" stride="3">
                            <param name="X" type="float"/>
                            <param name="Y" type="float"/>
                            <param name="Z" type="float"/>
                        </accessor>
                    </technique_common>
                </source>
                <source id="geometry0-texCoords">
                    <float_array id="geometry0-texCoords-array" count="0"></float_array>
                    <technique_common>
                        <accessor count="0" source="#geometry0-texCoords-array" stride="2">
                            <param name="S" type="float"/>
                            <param name="T" type="float"/>
                        </accessor>
                    </technique_common>
                </source>
                <vertices id="geometry0-vertex">
                    <input semantic="POSITION" source="#geometry0-position"/>
                </vertices>
                <triangles count="15" material="default_ai_0.2_sh_0.2_tr_0.0_dc_r_0.8_g_0.8_b_0.8_sc_r_1.0_g_1.0_b_1.0_ec_r_0.0_g_0.0_b_0_tri">
                    <input offset="0" semantic="VERTEX" source="#geometry0-vertex"/>
                    <input offset="1" semantic="NORMAL" source="#geometry0-normal"/>
                    <p>6 0 7 1 8 2 9 3 7 4 6 5 7 12 13 13 10 14 9 15 13 16 7 17 14 18 13 19 9 20 16 24 17 25 18 26 10 30 11 31 12 32 13 33 11 34 10 35 15 36 12 37 11 38 19 39 17 40 16 41 6 42 12 43 15 44 8 45 12 46 6 47 20 48 21 49 22 50 17 51 22 52 18 53 20 54 22 55 17 56</p>
                </triangles>
                <triangles count="4" material="default_ai_0.2_sh_0.2_tr_0.0_dc_r_1.0_g_0.2_b_0.2_sc_r_1.0_g_1.0_b_1.0_ec_r_0.0_g_0.0_b_0_tri">
                    <input offset="0" semantic="VERTEX" source="#geometry0-vertex"/>
                    <input offset="1" semantic="NORMAL" source="#geometry0-normal"/>
                    <p>3 6 4 7 1 8 5 9 4 10 3 11 0 21 1 22 2 23 3 27 1 28 0 29</p>
                </triangles>
            </mesh>
        </geometry>
    </library_geometries>
    <library_visual_scenes>
        <visual_scene id="Building_pb-2468585c-7f50-11f0-8f1d-9c7bef4dcf4c">
            <node>
                <instance_geometry url="#geometry0">
                    <bind_material>
                        <technique_common>
                            <instance_material symbol="default_ai_0.2_sh_0.2_tr_0.0_dc_r_0.8_g_0.8_b_0.8_sc_r_1.0_g_1.0_b_1.0_ec_r_0.0_g_0.0_b_0_tri" target="#default_ai_0.2_sh_0.2_tr_0.0_dc_r_0.8_g_0.8_b_0.8_sc_r_1.0_g_1.0_b_1.0_ec_r_0.0_g_0.0_b_0_mat"/>
                            <instance_material symbol="default_ai_0.2_sh_0.2_tr_0.0_dc_r_1.0_g_0.2_b_0.2_sc_r_1.0_g_1.0_b_1.0_ec_r_0.0_g_0.0_b_0_tri" target="#default_ai_0.2_sh_0.2_tr_0.0_dc_r_1.0_g_0.2_b_0.2_sc_r_1.0_g_1.0_b_1.0_ec_r_0.0_g_0.0_b_0_mat"/>
                        </technique_common>
                    </bind_material>
                </instance_geometry>
            </node>
        </visual_scene>
    </library_visual_scenes>
    <scene>
        <instance_visual_scene url="#Building_pb-2468585c-7f50-11f0-8f1d-9c7bef4dcf4c"/>
    </scene>
</COLLADA>
