<?xml version="1.0" encoding="UTF-8" standalone="yes"?>
<COLLADA xmlns="http://www.collada.org/2005/11/COLLADASchema" version="1.4.1">
    <asset>
        <contributor>
            <authoring_tool>3D City Database Importer/Exporter, version 5.5.1; Chair of Geoinformatics, Technical University of Munich</authoring_tool>
        </contributor>
        <created>2026-01-16T16:51:34.371</created>
        <modified>2026-01-16T16:51:34.371</modified>
        <unit meter="1.0" name="meters"/>
        <up_axis>Z_UP</up_axis>
    </asset>
    <library_materials>
        <material id="default_ai_0.2_sh_0.2_tr_0.0_dc_r_0.8_g_0.8_b_0.8_sc_r_1.0_g_1.0_b_1.0_ec_r_0.0_g_0.0_b_0_mat">
            <instance_effect url="#default_ai_0.2_sh_0.2_tr_0.0_dc_r_0.8_g_0.8_b_0.8_sc_r_1.0_g_1.0_b_1.0_ec_r_0.0_g_0.0_b_0_eff"/>
        </material>
        <material id="default_ai_0.2_sh_0.2_tr_0.0_dc_r_1.0_g_0.2_b_0.2_sc_r_1.0_g_1.0_b_1.0_ec_r_0.0_g_0.0_b_0_mat">
            <instance_effect url="#default_ai_0.2_sh_0.2_tr_0.0_dc_r_1.0_g_0.2_b_0.2_sc_r_1.0_g_1.0_b_1.0_ec_r_0.0_g_0.0_b_0_eff"/>
        </material>
    </library_materials>
    <library_effects>
        <effect id="default_ai_0.2_sh_0.2_tr_0.0_dc_r_0.8_g_0.8_b_0.8_sc_r_1.0_g_1.0_b_1.0_ec_r_0.0_g_0.0_b_0_eff">
            <profile_COMMON>
                <technique sid="COMMON">
                    <lambert>
                        <emission>
                            <color>0.0 0.0 0.0 1.0</color>
                        </emission>
                        <diffuse>
                            <color>0.8 0.8 0.8 1.0</color>
                        </diffuse>
                        <reflective>
                            <color>1.0 1.0 1.0 1.0</color>
                        </reflective>
                        <reflectivity>
                            <float>0.2</float>
                        </reflectivity>
                        <transparent opaque="A_ONE">
                            <color>1.0 1.0 1.0 1.0</color>
                        </transparent>
                        <transparency>
                            <float>1.0</float>
                        </transparency>
                    </lambert>
                </technique>
                <extra>
                    <technique profile="GOOGLEEARTH">
                        <double_sided>1</double_sided>
                    </technique>
                </extra>
            </profile_COMMON>
        </effect>
        <effect id="default_ai_0.2_sh_0.2_tr_0.0_dc_r_1.0_g_0.2_b_0.2_sc_r_1.0_g_1.0_b_1.0_ec_r_0.0_g_0.0_b_0_eff">
            <profile_COMMON>
                <technique sid="COMMON">
                    <lambert>
                        <emission>
                            <color>0.0 0.0 0.0 1.0</color>
                        </emission>
                        <diffuse>
                            <color>1.0 0.2 0.2 1.0</color>
                        </diffuse>
                        <reflective>
                            <color>1.0 1.0 1.0 1.0</color>
                        </reflective>
                        <reflectivity>
                            <float>0.2</float>
                        </reflectivity>
                        <transparent opaque="A_ONE">
                            <color>1.0 1.0 1.0 1.0</color>
                        </transparent>
                        <transparency>
                            <float>1.0</float>
                        </transparency>
                    </lambert>
                </technique>
                <extra>
                    <technique profile="GOOGLEEARTH">
                        <double_sided>1</double_sided>
                    </technique>
                </extra>
            </profile_COMMON>
        </effect>
    </library_effects>
    <library_geometries>
        <geometry id="geometry0">
            <mesh>
                <source id="geometry0-position">
                    <float_array id="geometry0-position-array" count="96">-4.6933027 -9.9485168 17.2000191 -5.8786474 2.7732849 20.7000191 -10.5719801 -7.1752625 20.7000191 7.1E-6 -9.16E-5 17.2000191 -13.9853025 -14.4104614 20.7000191 -24.5572935 -21.5856018 17.2000191 -18.678639 -24.3589783 20.7000191 -11.7572981 5.5466614 17.2000191 -8.106648 -17.1838074 18.9500191 -4.6933027 -9.9485168 18.9500191 -8.106648 -17.1838074 17.2000191 -12.7999998 -27.1323547 17.2000191 -4.6933225 -9.9485372 17.2000312 -10.5720303 -7.1751931 20.7000312 -4.6933377 -9.9485305 18.9500312 -12.8000119 -27.1323045 3.65E-5 -24.5573514 -21.5856317 17.2000331 -24.5573209 -21.5856393 3.68E-5 -12.8000272 -27.1323007 17.2000312 -18.6786893 -24.3589719 20.7000331 -8.1066831 -17.1837972 18.9500312 -13.9853146 -14.4104837 20.7000331 -8.1066525 -17.1838048 17.2000312 -8.9E-6 -4.13E-5 17.2000312 -2.41E-5 -3.94E-5 3.61E-5 -11.7573331 5.5466256 17.2000331 -11.7573636 5.5466357 3.64E-5 -5.878671 2.7732939 20.7000312 -11.7573051 5.5466919 1.3E-6 -12.7999458 -27.1322479 1.4E-6 -24.5573082 -21.5856018 2.8E-6 0.0 0.0 0.0</float_array>
                    <technique_common>
                        <accessor count="32" source="#geometry0-position-array" stride="3">
                            <param name="X" type="float"/>
                            <param name="Y" type="float"/>
                            <param name="Z" type="float"/>
                        </accessor>
                    </technique_common>
                </source>
                <source id="geometry0-normal">
                    <float_array id="geometry0-normal-array" count="252">0.4266666 0.9044091 -3.0E-7 0.4266666 0.9044091 -3.0E-7 0.4266666 0.9044091 -3.0E-7 0.2351228 -0.1109224 0.9656156 0.2351228 -0.1109224 0.9656156 0.2351228 -0.1109224 0.9656156 0.4266665 0.9044091 -2.0E-7 0.4266665 0.9044091 -2.0E-7 0.4266665 0.9044091 -2.0E-7 0.235122 -0.1109226 0.9656157 0.235122 -0.1109226 0.9656157 0.235122 -0.1109226 0.9656157 0.4266664 0.9044091 -4.0E-7 0.4266664 0.9044091 -4.0E-7 0.4266664 0.9044091 -4.0E-7 0.9044087 -0.4266673 9.0E-7 0.9044087 -0.4266673 9.0E-7 0.9044087 -0.4266673 9.0E-7 0.0 0.0 -1.0 0.0 0.0 -1.0 0.0 0.0 -1.0 0.0 0.0 -1.0 0.0 0.0 -1.0 0.0 0.0 -1.0 0.9044091 -0.4266664 9.5E-6 0.9044091 -0.4266664 9.5E-6 0.9044091 -0.4266664 9.5E-6 0.9044083 -0.426668 1.76E-5 0.9044083 -0.426668 1.76E-5 0.9044083 -0.426668 1.76E-5 0.9044091 -0.4266664 -8.0E-7 0.9044091 -0.4266664 -8.0E-7 0.9044091 -0.4266664 -8.0E-7 -1.0E-7 -0.0 -1.0 -1.0E-7 -0.0 -1.0 -1.0E-7 -0.0 -1.0 -1.0E-7 -0.0 -1.0 -1.0E-7 -0.0 -1.0 -1.0E-7 -0.0 -1.0 0.4287813 -0.2022822 0.8804706 0.4287813 -0.2022822 0.8804706 0.4287813 -0.2022822 0.8804706 0.4287801 -0.2022823 0.8804712 0.4287801 -0.2022823 0.8804712 0.4287801 -0.2022823 0.8804712 0.4287792 -0.2022826 0.8804715 0.4287792 -0.2022826 0.8804715 0.4287792 -0.2022826 0.8804715 0.4287802 -0.2022824 0.8804711 0.4287802 -0.2022824 0.8804711 0.4287802 -0.2022824 0.8804711 0.4266652 0.9044096 3.0E-7 0.4266652 0.9044096 3.0E-7 0.4266652 0.9044096 3.0E-7 -0.4266668 -0.9044089 -4.0E-7 -0.4266668 -0.9044089 -4.0E-7 -0.4266668 -0.9044089 -4.0E-7 -0.4266666 -0.904409 -2.0E-7 -0.4266666 -0.904409 -2.0E-7 -0.4266666 -0.904409 -2.0E-7 -0.4287795 0.202282 0.8804716 -0.4287795 0.202282 0.8804716 -0.4287795 0.202282 0.8804716 -0.4266666 -0.904409 -1.5E-6 -0.4266666 -0.904409 -1.5E-6 -0.4266666 -0.904409 -1.5E-6 -0.4287806 0.2022842 0.8804705 -0.4287806 0.2022842 0.8804705 -0.4287806 0.2022842 0.8804705 -0.428777 0.2022801 0.8804732 -0.428777 0.2022801 0.8804732 -0.428777 0.2022801 0.8804732 -0.4287795 0.2022822 0.8804715 -0.4287795 0.2022822 0.8804715 -0.4287795 0.2022822 0.8804715 -0.9044086 0.4266673 -1.8E-6 -0.9044086 0.4266673 -1.8E-6 -0.9044086 0.4266673 -1.8E-6 -0.9044095 0.4266655 1.8E-6 -0.9044095 0.4266655 1.8E-6 -0.9044095 0.4266655 1.8E-6 -0.4266667 -0.9044089 -3.5E-6 -0.4266667 -0.9044089 -3.5E-6 -0.4266667 -0.9044089 -3.5E-6</float_array>
                    <technique_common>
                        <accessor count="84" source="#geometry0-normal-array" stride="3">
                            <param name="X" type="float"/>
                            <param name="Y" type="float"/>
                            <param name="Z" type="float"/>
                        </accessor>
                    </technique_common>
                </source>
                <source id="geometry0-texCoords">
                    <float_array id="geometry0-texCoords-array" count="0"></float_array>
                    <technique_common>
                        <accessor count="0" source="#geometry0-texCoords-array" stride="2">
                            <param name="S" type="float"/>
                            <param name="T" type="float"/>
                        </accessor>
                    </technique_common>
                </source>
                <vertices id="geometry0-vertex">
                    <input semantic="POSITION" source="#geometry0-position"/>
                </vertices>
                <triangles count="18" material="default_ai_0.2_sh_0.2_tr_0.0_dc_r_0.8_g_0.8_b_0.8_sc_r_1.0_g_1.0_b_1.0_ec_r_0.0_g_0.0_b_0_tri">
                    <input offset="0" semantic="VERTEX" source="#geometry0-vertex"/>
                    <input offset="1" semantic="NORMAL" source="#geometry0-normal"/>
                    <p>26 0 23 1 24 2 25 6 23 7 26 8 27 12 23 13 25 14 18 15 15 16 23 17 12 18 18 19 23 20 22 21 18 22 12 23 14 24 22 25 12 26 20 27 22 28 14 29 24 30 23 31 15 32 28 33 29 34 30 35 31 36 29 37 28 38 12 51 13 52 14 53 15 54 16 55 17 56 18 57 16 58 15 59 19 63 16 64 18 65 25 75 17 76 16 77 26 78 17 79 25 80 20 81 21 82 22 83</p>
                </triangles>
                <triangles count="10" material="default_ai_0.2_sh_0.2_tr_0.0_dc_r_1.0_g_0.2_b_0.2_sc_r_1.0_g_1.0_b_1.0_ec_r_0.0_g_0.0_b_0_tri">
                    <input offset="0" semantic="VERTEX" source="#geometry0-vertex"/>
                    <input offset="1" semantic="NORMAL" source="#geometry0-normal"/>
                    <p>2 3 8 4 9 5 4 9 8 10 2 11 0 39 1 40 2 41 6 42 10 43 4 44 3 45 1 46 0 47 11 48 10 49 6 50 4 60 5 61 6 62 2 66 5 67 4 68 1 69 5 70 2 71 7 72 5 73 1 74</p>
                </triangles>
            </mesh>
        </geometry>
    </library_geometries>
    <library_visual_scenes>
        <visual_scene id="Building_pb-96359a13-7f36-11f0-bc8e-9c7bef4dcf4c">
            <node>
                <instance_geometry url="#geometry0">
                    <bind_material>
                        <technique_common>
                            <instance_material symbol="default_ai_0.2_sh_0.2_tr_0.0_dc_r_0.8_g_0.8_b_0.8_sc_r_1.0_g_1.0_b_1.0_ec_r_0.0_g_0.0_b_0_tri" target="#default_ai_0.2_sh_0.2_tr_0.0_dc_r_0.8_g_0.8_b_0.8_sc_r_1.0_g_1.0_b_1.0_ec_r_0.0_g_0.0_b_0_mat"/>
                            <instance_material symbol="default_ai_0.2_sh_0.2_tr_0.0_dc_r_1.0_g_0.2_b_0.2_sc_r_1.0_g_1.0_b_1.0_ec_r_0.0_g_0.0_b_0_tri" target="#default_ai_0.2_sh_0.2_tr_0.0_dc_r_1.0_g_0.2_b_0.2_sc_r_1.0_g_1.0_b_1.0_ec_r_0.0_g_0.0_b_0_mat"/>
                        </technique_common>
                    </bind_material>
                </instance_geometry>
            </node>
        </visual_scene>
    </library_visual_scenes>
    <scene>
        <instance_visual_scene url="#Building_pb-96359a13-7f36-11f0-bc8e-9c7bef4dcf4c"/>
    </scene>
</COLLADA>
