<?xml version="1.0" encoding="UTF-8" standalone="yes"?>
<COLLADA xmlns="http://www.collada.org/2005/11/COLLADASchema" version="1.4.1">
    <asset>
        <contributor>
            <authoring_tool>3D City Database Importer/Exporter, version 5.5.1; Chair of Geoinformatics, Technical University of Munich</authoring_tool>
        </contributor>
        <created>2026-01-16T16:51:34.459</created>
        <modified>2026-01-16T16:51:34.459</modified>
        <unit meter="1.0" name="meters"/>
        <up_axis>Z_UP</up_axis>
    </asset>
    <library_materials>
        <material id="default_ai_0.2_sh_0.2_tr_0.0_dc_r_0.8_g_0.8_b_0.8_sc_r_1.0_g_1.0_b_1.0_ec_r_0.0_g_0.0_b_0_mat">
            <instance_effect url="#default_ai_0.2_sh_0.2_tr_0.0_dc_r_0.8_g_0.8_b_0.8_sc_r_1.0_g_1.0_b_1.0_ec_r_0.0_g_0.0_b_0_eff"/>
        </material>
        <material id="default_ai_0.2_sh_0.2_tr_0.0_dc_r_1.0_g_0.2_b_0.2_sc_r_1.0_g_1.0_b_1.0_ec_r_0.0_g_0.0_b_0_mat">
            <instance_effect url="#default_ai_0.2_sh_0.2_tr_0.0_dc_r_1.0_g_0.2_b_0.2_sc_r_1.0_g_1.0_b_1.0_ec_r_0.0_g_0.0_b_0_eff"/>
        </material>
    </library_materials>
    <library_effects>
        <effect id="default_ai_0.2_sh_0.2_tr_0.0_dc_r_0.8_g_0.8_b_0.8_sc_r_1.0_g_1.0_b_1.0_ec_r_0.0_g_0.0_b_0_eff">
            <profile_COMMON>
                <technique sid="COMMON">
                    <lambert>
                        <emission>
                            <color>0.0 0.0 0.0 1.0</color>
                        </emission>
                        <diffuse>
                            <color>0.8 0.8 0.8 1.0</color>
                        </diffuse>
                        <reflective>
                            <color>1.0 1.0 1.0 1.0</color>
                        </reflective>
                        <reflectivity>
                            <float>0.2</float>
                        </reflectivity>
                        <transparent opaque="A_ONE">
                            <color>1.0 1.0 1.0 1.0</color>
                        </transparent>
                        <transparency>
                            <float>1.0</float>
                        </transparency>
                    </lambert>
                </technique>
                <extra>
                    <technique profile="GOOGLEEARTH">
                        <double_sided>1</double_sided>
                    </technique>
                </extra>
            </profile_COMMON>
        </effect>
        <effect id="default_ai_0.2_sh_0.2_tr_0.0_dc_r_1.0_g_0.2_b_0.2_sc_r_1.0_g_1.0_b_1.0_ec_r_0.0_g_0.0_b_0_eff">
            <profile_COMMON>
                <technique sid="COMMON">
                    <lambert>
                        <emission>
                            <color>0.0 0.0 0.0 1.0</color>
                        </emission>
                        <diffuse>
                            <color>1.0 0.2 0.2 1.0</color>
                        </diffuse>
                        <reflective>
                            <color>1.0 1.0 1.0 1.0</color>
                        </reflective>
                        <reflectivity>
                            <float>0.2</float>
                        </reflectivity>
                        <transparent opaque="A_ONE">
                            <color>1.0 1.0 1.0 1.0</color>
                        </transparent>
                        <transparency>
                            <float>1.0</float>
                        </transparency>
                    </lambert>
                </technique>
                <extra>
                    <technique profile="GOOGLEEARTH">
                        <double_sided>1</double_sided>
                    </technique>
                </extra>
            </profile_COMMON>
        </effect>
    </library_effects>
    <library_geometries>
        <geometry id="geometry0">
            <mesh>
                <source id="geometry0-position">
                    <float_array id="geometry0-position-array" count="135">-2.0456129 10.2983093 9.0000317 -0.6734129 4.9544067 9.0000317 1.2737574 8.4485168 9.0000317 -3.9927869 6.8042297 9.0000317 2.2473368 10.1954956 5.5000321 1.9471201 3.4940491 9.0000317 4.8679041 8.7351074 5.5000321 9.19E-4 -5.646E-4 7.5000504 1.2502562 2.2412651 8.4622822 -5.9399489 3.3101866 7.4995495 1.9471185 3.4940538 9.0000359 1.9481081 3.4935024 9.0000359 -0.6734136 4.9544122 9.0000353 -4.6914862 5.5516293 8.4619964 -3.992791 6.8042352 9.0000349 -2.0456212 10.2983001 3.14E-5 -3.9927953 6.8042358 9.0000306 -2.0456212 10.2982963 9.0000316 -5.9399846 3.3101753 3.39E-5 -5.9399846 3.3101791 7.4995457 -7.37E-5 -3.21E-5 3.26E-5 3.8942897 6.9880889 3.18E-5 -7.37E-5 -3.59E-5 5.5000311 1.2737453 8.4484771 9.0000296 1.2737376 8.4484771 6.6666976 1.2737376 8.4484733 3.35E-5 -0.6734441 4.9544166 9.0000325 2.2473247 10.1955055 3.43E-5 2.2473323 10.1955093 5.5000306 4.8678767 8.7351249 5.5000301 4.8678767 8.7351211 3.42E-5 3.8942897 6.9880851 6.6667 -7.37E-5 -2.83E-5 7.4995447 1.9471156 3.4940284 9.0000325 -0.0018159 9.386E-4 7.4995449 -5.9399817 3.3101836 7.4995458 -0.0018162 9.387E-4 0.0022343 -0.0018162 9.387E-4 3.28E-5 -5.9399793 3.3101824 3.4E-5 4.8679314 8.7351379 5.0E-7 1.2738037 8.4485168 9.0E-7 2.2473869 10.1955261 7.0E-7 0.0 0.0 0.0 -5.93993 3.3102112 1.7E-6 -2.0455704 10.2983398 1.2E-6</float_array>
                    <technique_common>
                        <accessor count="45" source="#geometry0-position-array" stride="3">
                            <param name="X" type="float"/>
                            <param name="Y" type="float"/>
                            <param name="Z" type="float"/>
                        </accessor>
                    </technique_common>
                </source>
                <source id="geometry0-normal">
                    <float_array id="geometry0-normal-array" count="315">0.8735158 -0.4867958 -3.0E-7 0.8735158 -0.4867958 -3.0E-7 0.8735158 -0.4867958 -3.0E-7 0.2452817 0.4401416 0.863778 0.2452817 0.4401416 0.863778 0.2452817 0.4401416 0.863778 0.2452801 0.4401418 0.8637784 0.2452801 0.4401418 0.8637784 0.2452801 0.4401418 0.8637784 0.8735157 -0.4867961 1.9E-6 0.8735157 -0.4867961 1.9E-6 0.8735157 -0.4867961 1.9E-6 0.8735158 -0.4867958 -3.0E-7 0.8735158 -0.4867958 -3.0E-7 0.8735158 -0.4867958 -3.0E-7 0.8735168 -0.486794 -3.0E-7 0.8735168 -0.486794 -3.0E-7 0.8735168 -0.486794 -3.0E-7 0.8735178 -0.4867922 3.0E-7 0.8735178 -0.4867922 3.0E-7 0.8735178 -0.4867922 3.0E-7 -0.170957 -0.3066264 0.9363514 -0.170957 -0.3066264 0.9363514 -0.170957 -0.3066264 0.9363514 -0.1709743 -0.3067954 0.9362929 -0.1709743 -0.3067954 0.9362929 -0.1709743 -0.3067954 0.9362929 -0.1709565 -0.3068052 0.9362929 -0.1709565 -0.3068052 0.9362929 -0.1709565 -0.3068052 0.9362929 -0.1709737 -0.3068022 0.9362908 -0.1709737 -0.3068022 0.9362908 -0.1709737 -0.3068022 0.9362908 -0.1709744 -0.3068003 0.9362913 -0.1709744 -0.3068003 0.9362913 -0.1709744 -0.3068003 0.9362913 -0.1709746 -0.3068019 0.9362907 -0.1709746 -0.3068019 0.9362907 -0.1709746 -0.3068019 0.9362907 0.4867941 0.8735167 4.0E-7 0.4867941 0.8735167 4.0E-7 0.4867941 0.8735167 4.0E-7 0.4867981 0.8735145 -1.6E-6 0.4867981 0.8735145 -1.6E-6 0.4867981 0.8735145 -1.6E-6 0.4867965 0.8735154 -5.0E-7 0.4867965 0.8735154 -5.0E-7 0.4867965 0.8735154 -5.0E-7 -1.0E-7 -0.0 -1.0 -1.0E-7 -0.0 -1.0 -1.0E-7 -0.0 -1.0 -1.0E-7 1.0E-7 -1.0 -1.0E-7 1.0E-7 -1.0 -1.0E-7 1.0E-7 -1.0 -2.0E-7 1.0E-7 -1.0 -2.0E-7 1.0E-7 -1.0 -2.0E-7 1.0E-7 -1.0 -1.0E-7 -0.0 -1.0 -1.0E-7 -0.0 -1.0 -1.0E-7 -0.0 -1.0 -0.873515 0.4867973 9.0E-7 -0.873515 0.4867973 9.0E-7 -0.873515 0.4867973 9.0E-7 -0.8735169 0.4867939 -3.0E-7 -0.8735169 0.4867939 -3.0E-7 -0.8735169 0.4867939 -3.0E-7 -0.8735166 0.4867944 2.0E-7 -0.8735166 0.4867944 2.0E-7 -0.8735166 0.4867944 2.0E-7 -0.8735158 0.4867956 8.0E-7 -0.8735158 0.4867956 8.0E-7 -0.8735158 0.4867956 8.0E-7 -0.8735147 0.4867978 -3.0E-7 -0.8735147 0.4867978 -3.0E-7 -0.8735147 0.4867978 -3.0E-7 0.873515 -0.4867973 -2.9E-6 0.873515 -0.4867973 -2.9E-6 0.873515 -0.4867973 -2.9E-6 0.8735156 -0.4867961 -9.0E-7 0.8735156 -0.4867961 -9.0E-7 0.8735156 -0.4867961 -9.0E-7 0.8735164 -0.4867949 -3.0E-7 0.8735164 -0.4867949 -3.0E-7 0.8735164 -0.4867949 -3.0E-7 0.0 0.0 1.0 0.0 0.0 1.0 0.0 0.0 1.0 0.0 0.0 1.0 0.0 0.0 1.0 0.0 0.0 1.0 0.4867955 0.873516 -1.3E-6 0.4867955 0.873516 -1.3E-6 0.4867955 0.873516 -1.3E-6 0.4867944 0.8735166 -6.0E-7 0.4867944 0.8735166 -6.0E-7 0.4867944 0.8735166 -6.0E-7 -0.4867962 -0.8735155 0.0 -0.4867962 -0.8735155 0.0 -0.4867962 -0.8735155 0.0 -0.4867963 -0.8735155 -0.0 -0.4867963 -0.8735155 -0.0 -0.4867963 -0.8735155 -0.0 -0.4868327 -0.8734952 0.0 -0.4868327 -0.8734952 0.0 -0.4868327 -0.8734952 0.0</float_array>
                    <technique_common>
                        <accessor count="105" source="#geometry0-normal-array" stride="3">
                            <param name="X" type="float"/>
                            <param name="Y" type="float"/>
                            <param name="Z" type="float"/>
                        </accessor>
                    </technique_common>
                </source>
                <source id="geometry0-texCoords">
                    <float_array id="geometry0-texCoords-array" count="0"></float_array>
                    <technique_common>
                        <accessor count="0" source="#geometry0-texCoords-array" stride="2">
                            <param name="S" type="float"/>
                            <param name="T" type="float"/>
                        </accessor>
                    </technique_common>
                </source>
                <vertices id="geometry0-vertex">
                    <input semantic="POSITION" source="#geometry0-position"/>
                </vertices>
                <triangles count="25" material="default_ai_0.2_sh_0.2_tr_0.0_dc_r_0.8_g_0.8_b_0.8_sc_r_1.0_g_1.0_b_1.0_ec_r_0.0_g_0.0_b_0_tri">
                    <input offset="0" semantic="VERTEX" source="#geometry0-vertex"/>
                    <input offset="1" semantic="NORMAL" source="#geometry0-normal"/>
                    <p>20 0 21 1 22 2 22 9 31 10 32 11 21 12 31 13 22 14 30 15 31 16 21 17 29 18 31 19 30 20 23 39 15 40 17 41 24 42 15 43 23 44 25 45 15 46 24 47 39 48 40 49 41 50 42 51 40 52 39 53 43 54 40 55 42 56 44 57 40 58 43 59 27 60 24 61 28 62 25 63 24 64 27 65 15 66 16 67 17 68 18 69 16 70 15 71 19 72 16 73 18 74 23 75 26 76 24 77 21 78 33 79 22 80 31 81 33 82 21 83 29 90 27 91 28 92 30 93 27 94 29 95 34 96 35 97 36 98 37 99 35 100 38 101 36 102 35 103 37 104</p>
                </triangles>
                <triangles count="10" material="default_ai_0.2_sh_0.2_tr_0.0_dc_r_1.0_g_0.2_b_0.2_sc_r_1.0_g_1.0_b_1.0_ec_r_0.0_g_0.0_b_0_tri">
                    <input offset="0" semantic="VERTEX" source="#geometry0-vertex"/>
                    <input offset="1" semantic="NORMAL" source="#geometry0-normal"/>
                    <p>4 3 5 4 6 5 1 6 5 7 4 8 7 21 8 22 9 23 8 24 10 25 9 26 11 27 10 28 8 29 9 30 10 31 12 32 9 33 12 34 13 35 13 36 12 37 14 38 0 84 1 85 2 86 3 87 1 88 0 89</p>
                </triangles>
            </mesh>
        </geometry>
    </library_geometries>
    <library_visual_scenes>
        <visual_scene id="Building_pb-96357311-7f36-11f0-925f-9c7bef4dcf4c">
            <node>
                <instance_geometry url="#geometry0">
                    <bind_material>
                        <technique_common>
                            <instance_material symbol="default_ai_0.2_sh_0.2_tr_0.0_dc_r_0.8_g_0.8_b_0.8_sc_r_1.0_g_1.0_b_1.0_ec_r_0.0_g_0.0_b_0_tri" target="#default_ai_0.2_sh_0.2_tr_0.0_dc_r_0.8_g_0.8_b_0.8_sc_r_1.0_g_1.0_b_1.0_ec_r_0.0_g_0.0_b_0_mat"/>
                            <instance_material symbol="default_ai_0.2_sh_0.2_tr_0.0_dc_r_1.0_g_0.2_b_0.2_sc_r_1.0_g_1.0_b_1.0_ec_r_0.0_g_0.0_b_0_tri" target="#default_ai_0.2_sh_0.2_tr_0.0_dc_r_1.0_g_0.2_b_0.2_sc_r_1.0_g_1.0_b_1.0_ec_r_0.0_g_0.0_b_0_mat"/>
                        </technique_common>
                    </bind_material>
                </instance_geometry>
            </node>
        </visual_scene>
    </library_visual_scenes>
    <scene>
        <instance_visual_scene url="#Building_pb-96357311-7f36-11f0-925f-9c7bef4dcf4c"/>
    </scene>
</COLLADA>
