<?xml version="1.0" encoding="UTF-8" standalone="yes"?>
<COLLADA xmlns="http://www.collada.org/2005/11/COLLADASchema" version="1.4.1">
    <asset>
        <contributor>
            <authoring_tool>3D City Database Importer/Exporter, version 5.5.1; Chair of Geoinformatics, Technical University of Munich</authoring_tool>
        </contributor>
        <created>2026-01-16T16:51:34.234</created>
        <modified>2026-01-16T16:51:34.234</modified>
        <unit meter="1.0" name="meters"/>
        <up_axis>Z_UP</up_axis>
    </asset>
    <library_materials>
        <material id="default_dc_r_0.9_g_0.7_b_0_mat">
            <instance_effect url="#default_dc_r_0.9_g_0.7_b_0_eff"/>
        </material>
        <material id="default_dc_r_1.0_g_1.0_b_1_mat">
            <instance_effect url="#default_dc_r_1.0_g_1.0_b_1_eff"/>
        </material>
        <material id="default_dc_r_0.6_g_0.6_b_0_mat">
            <instance_effect url="#default_dc_r_0.6_g_0.6_b_0_eff"/>
        </material>
    </library_materials>
    <library_effects>
        <effect id="default_dc_r_0.9_g_0.7_b_0_eff">
            <profile_COMMON>
                <technique sid="COMMON">
                    <lambert>
                        <emission>
                            <color>0.0 0.0 0.0 1.0</color>
                        </emission>
                        <diffuse>
                            <color>0.9 0.7 0.4 1.0</color>
                        </diffuse>
                    </lambert>
                </technique>
                <extra>
                    <technique profile="GOOGLEEARTH">
                        <double_sided>1</double_sided>
                    </technique>
                </extra>
            </profile_COMMON>
        </effect>
        <effect id="default_dc_r_1.0_g_1.0_b_1_eff">
            <profile_COMMON>
                <technique sid="COMMON">
                    <lambert>
                        <emission>
                            <color>0.0 0.0 0.0 1.0</color>
                        </emission>
                        <diffuse>
                            <color>1.0 1.0 1.0 1.0</color>
                        </diffuse>
                    </lambert>
                </technique>
                <extra>
                    <technique profile="GOOGLEEARTH">
                        <double_sided>1</double_sided>
                    </technique>
                </extra>
            </profile_COMMON>
        </effect>
        <effect id="default_dc_r_0.6_g_0.6_b_0_eff">
            <profile_COMMON>
                <technique sid="COMMON">
                    <lambert>
                        <emission>
                            <color>0.0 0.0 0.0 1.0</color>
                        </emission>
                        <diffuse>
                            <color>0.6 0.6 0.6 1.0</color>
                        </diffuse>
                    </lambert>
                </technique>
                <extra>
                    <technique profile="GOOGLEEARTH">
                        <double_sided>1</double_sided>
                    </technique>
                </extra>
            </profile_COMMON>
        </effect>
    </library_effects>
    <library_geometries>
        <geometry id="geometry0">
            <mesh>
                <source id="geometry0-position">
                    <float_array id="geometry0-position-array" count="84">-2.6073 -4.7137 2.385424 -2.6016 -4.7035 2.385424 -2.6405 -4.7196 2.382324 -5.2952 -3.2512 2.024024 -2.6177 -4.7322 2.385424 0.0 0.0 2.380624 -2.7269 1.3922 2.019224 -2.6777 1.4811 2.019124 0.0 0.0 0.0 -2.6777 1.4811 0.0 -2.6777 1.4811 2.0192 0.0 0.0 2.3806 -2.6016 -4.7035 2.3854 -2.6016 -4.7035 0.0 -2.6073 -4.7137 2.3854 -2.6073 -4.7137 0.0 -2.6177 -4.7322 2.3854 -2.6177 -4.7322 0.0 -2.7269 1.3922 2.0193 -5.2952 -3.2512 0.0 -5.2952 -3.2512 2.024 -2.6405 -4.7196 2.3823 -2.6016 -4.7035 3.6E-5 -5.2952 -3.2512 3.6E-5 -2.6777 1.4811 3.6E-5 -2.6073 -4.7137 3.6E-5 -2.6177 -4.7322 3.6E-5 0.0 0.0 3.6E-5</float_array>
                    <technique_common>
                        <accessor count="28" source="#geometry0-position-array" stride="3">
                            <param name="X" type="float"/>
                            <param name="Y" type="float"/>
                            <param name="Z" type="float"/>
                        </accessor>
                    </technique_common>
                </source>
                <source id="geometry0-normal">
                    <float_array id="geometry0-normal-array" count="216">0.0 0.0 -1.0 0.0 0.0 -1.0 0.0 0.0 -1.0 0.0 0.0 -1.0 0.0 0.0 -1.0 0.0 0.0 -1.0 -0.8750629 0.4840092 -1.22E-5 -0.8750629 0.4840092 -1.22E-5 -0.8750629 0.4840092 -1.22E-5 0.0 0.0 -1.0 0.0 0.0 -1.0 0.0 0.0 -1.0 -0.1029435 0.0575282 0.9930222 -0.1029435 0.0575282 0.9930222 -0.1029435 0.0575282 0.9930222 -0.8750651 0.4840051 0.0 -0.8750651 0.4840051 0.0 -0.8750651 0.4840051 0.0 -0.1026355 0.0567696 0.9930978 -0.1026355 0.0567696 0.9930978 -0.1026355 0.0567696 0.9930978 0.8750605 -0.4840135 0.0 0.8750605 -0.4840135 0.0 0.8750605 -0.4840135 0.0 -0.874945 0.4842223 0.0 -0.874945 0.4842223 0.0 -0.874945 0.4842223 0.0 -0.103008 0.0579065 0.9929935 -0.103008 0.0579065 0.9929935 -0.103008 0.0579065 0.9929935 0.8750605 -0.4840135 0.0 0.8750605 -0.4840135 0.0 0.8750605 -0.4840135 0.0 -0.10223 0.0575589 0.9930941 -0.10223 0.0575589 0.9930941 -0.10223 0.0575589 0.9930941 -0.1022094 0.0575594 0.9930962 -0.1022094 0.0575594 0.9930962 -0.1022094 0.0575594 0.9930962 -0.1021764 0.0576636 0.9930937 -0.1021764 0.0576636 0.9930937 -0.1021764 0.0576636 0.9930937 0.8729399 -0.4878277 0.0 0.8729399 -0.4878277 0.0 0.8729399 -0.4878277 0.0 0.8729399 -0.4878277 0.0 0.8729399 -0.4878277 0.0 0.8729399 -0.4878277 0.0 -0.4840189 -0.8750576 0.0 -0.4840189 -0.8750576 0.0 -0.4840189 -0.8750576 0.0 -0.4840213 -0.8750562 -4.2E-6 -0.4840213 -0.8750562 -4.2E-6 -0.4840213 -0.8750562 -4.2E-6 -0.483685 -0.8752422 0.0 -0.483685 -0.8752422 0.0 -0.483685 -0.8752422 0.0 0.871704 -0.490033 0.0 0.871704 -0.490033 0.0 0.871704 -0.490033 0.0 0.871704 -0.490033 0.0 0.871704 -0.490033 0.0 0.871704 -0.490033 0.0 0.4840161 0.8750591 0.0 0.4840161 0.8750591 0.0 0.4840161 0.8750591 0.0 0.4840161 0.8750591 0.0 0.4840161 0.8750591 0.0 0.4840161 0.8750591 0.0 0.0 0.0 -1.0 0.0 0.0 -1.0 0.0 0.0 -1.0</float_array>
                    <technique_common>
                        <accessor count="72" source="#geometry0-normal-array" stride="3">
                            <param name="X" type="float"/>
                            <param name="Y" type="float"/>
                            <param name="Z" type="float"/>
                        </accessor>
                    </technique_common>
                </source>
                <source id="geometry0-texCoords">
                    <float_array id="geometry0-texCoords-array" count="0"></float_array>
                    <technique_common>
                        <accessor count="0" source="#geometry0-texCoords-array" stride="2">
                            <param name="S" type="float"/>
                            <param name="T" type="float"/>
                        </accessor>
                    </technique_common>
                </source>
                <vertices id="geometry0-vertex">
                    <input semantic="POSITION" source="#geometry0-position"/>
                </vertices>
                <triangles count="6" material="default_dc_r_0.6_g_0.6_b_0_tri">
                    <input offset="0" semantic="VERTEX" source="#geometry0-vertex"/>
                    <input offset="1" semantic="NORMAL" source="#geometry0-normal"/>
                    <p>0 12 1 13 2 14 3 18 2 19 1 20 4 27 0 28 2 29 1 33 5 34 6 35 3 36 1 37 6 38 5 39 7 40 6 41</p>
                </triangles>
                <triangles count="14" material="default_dc_r_1.0_g_1.0_b_1_tri">
                    <input offset="0" semantic="VERTEX" source="#geometry0-vertex"/>
                    <input offset="1" semantic="NORMAL" source="#geometry0-normal"/>
                    <p>18 6 9 7 19 8 18 15 19 16 20 17 12 21 13 22 11 23 10 24 9 25 18 26 13 30 8 31 11 32 14 42 15 43 13 44 14 45 13 46 12 47 20 48 19 49 17 50 21 51 20 52 17 53 16 54 21 55 17 56 16 57 17 58 15 59 16 60 15 61 14 62 8 63 9 64 10 65 8 66 10 67 11 68</p>
                </triangles>
                <triangles count="4" material="default_dc_r_0.9_g_0.7_b_0_tri">
                    <input offset="0" semantic="VERTEX" source="#geometry0-vertex"/>
                    <input offset="1" semantic="NORMAL" source="#geometry0-normal"/>
                    <p>25 0 26 1 23 2 27 3 22 4 24 5 22 9 25 10 23 11 22 69 23 70 24 71</p>
                </triangles>
            </mesh>
        </geometry>
    </library_geometries>
    <library_visual_scenes>
        <visual_scene id="Building_FME_3fe6025f-5f19-4286-9c56-9e7554099dda">
            <node>
                <instance_geometry url="#geometry0">
                    <bind_material>
                        <technique_common>
                            <instance_material symbol="default_dc_r_0.6_g_0.6_b_0_tri" target="#default_dc_r_0.6_g_0.6_b_0_mat"/>
                            <instance_material symbol="default_dc_r_1.0_g_1.0_b_1_tri" target="#default_dc_r_1.0_g_1.0_b_1_mat"/>
                            <instance_material symbol="default_dc_r_0.9_g_0.7_b_0_tri" target="#default_dc_r_0.9_g_0.7_b_0_mat"/>
                        </technique_common>
                    </bind_material>
                </instance_geometry>
            </node>
        </visual_scene>
    </library_visual_scenes>
    <scene>
        <instance_visual_scene url="#Building_FME_3fe6025f-5f19-4286-9c56-9e7554099dda"/>
    </scene>
</COLLADA>
