<?xml version="1.0" encoding="UTF-8" standalone="yes"?>
<COLLADA xmlns="http://www.collada.org/2005/11/COLLADASchema" version="1.4.1">
    <asset>
        <contributor>
            <authoring_tool>3D City Database Importer/Exporter, version 5.5.1; Chair of Geoinformatics, Technical University of Munich</authoring_tool>
        </contributor>
        <created>2026-01-16T16:51:36.813</created>
        <modified>2026-01-16T16:51:36.813</modified>
        <unit meter="1.0" name="meters"/>
        <up_axis>Z_UP</up_axis>
    </asset>
    <library_materials>
        <material id="default_ai_0.2_sh_0.2_tr_0.0_dc_r_0.8_g_0.8_b_0.8_sc_r_1.0_g_1.0_b_1.0_ec_r_0.0_g_0.0_b_0_mat">
            <instance_effect url="#default_ai_0.2_sh_0.2_tr_0.0_dc_r_0.8_g_0.8_b_0.8_sc_r_1.0_g_1.0_b_1.0_ec_r_0.0_g_0.0_b_0_eff"/>
        </material>
        <material id="default_ai_0.2_sh_0.2_tr_0.0_dc_r_1.0_g_0.2_b_0.2_sc_r_1.0_g_1.0_b_1.0_ec_r_0.0_g_0.0_b_0_mat">
            <instance_effect url="#default_ai_0.2_sh_0.2_tr_0.0_dc_r_1.0_g_0.2_b_0.2_sc_r_1.0_g_1.0_b_1.0_ec_r_0.0_g_0.0_b_0_eff"/>
        </material>
    </library_materials>
    <library_effects>
        <effect id="default_ai_0.2_sh_0.2_tr_0.0_dc_r_0.8_g_0.8_b_0.8_sc_r_1.0_g_1.0_b_1.0_ec_r_0.0_g_0.0_b_0_eff">
            <profile_COMMON>
                <technique sid="COMMON">
                    <lambert>
                        <emission>
                            <color>0.0 0.0 0.0 1.0</color>
                        </emission>
                        <diffuse>
                            <color>0.8 0.8 0.8 1.0</color>
                        </diffuse>
                        <reflective>
                            <color>1.0 1.0 1.0 1.0</color>
                        </reflective>
                        <reflectivity>
                            <float>0.2</float>
                        </reflectivity>
                        <transparent opaque="A_ONE">
                            <color>1.0 1.0 1.0 1.0</color>
                        </transparent>
                        <transparency>
                            <float>1.0</float>
                        </transparency>
                    </lambert>
                </technique>
                <extra>
                    <technique profile="GOOGLEEARTH">
                        <double_sided>1</double_sided>
                    </technique>
                </extra>
            </profile_COMMON>
        </effect>
        <effect id="default_ai_0.2_sh_0.2_tr_0.0_dc_r_1.0_g_0.2_b_0.2_sc_r_1.0_g_1.0_b_1.0_ec_r_0.0_g_0.0_b_0_eff">
            <profile_COMMON>
                <technique sid="COMMON">
                    <lambert>
                        <emission>
                            <color>0.0 0.0 0.0 1.0</color>
                        </emission>
                        <diffuse>
                            <color>1.0 0.2 0.2 1.0</color>
                        </diffuse>
                        <reflective>
                            <color>1.0 1.0 1.0 1.0</color>
                        </reflective>
                        <reflectivity>
                            <float>0.2</float>
                        </reflectivity>
                        <transparent opaque="A_ONE">
                            <color>1.0 1.0 1.0 1.0</color>
                        </transparent>
                        <transparency>
                            <float>1.0</float>
                        </transparency>
                    </lambert>
                </technique>
                <extra>
                    <technique profile="GOOGLEEARTH">
                        <double_sided>1</double_sided>
                    </technique>
                </extra>
            </profile_COMMON>
        </effect>
    </library_effects>
    <library_geometries>
        <geometry id="geometry0">
            <mesh>
                <source id="geometry0-position">
                    <float_array id="geometry0-position-array" count="84">-14.6392503 -26.2879438 18.0000547 -10.4821153 5.8372164 18.0000547 -25.1241594 -20.4557295 18.0000547 1.66E-5 -8.68E-5 18.0000547 -14.6392503 -26.2879094 9.0000554 -14.6515432 -26.3099841 9.0000554 -14.6515432 -26.3099841 8.9811154 -14.6515422 -26.3099826 5.1229897 -2.43E-5 -6.33E-5 18.0000544 -14.6392493 -26.2879055 18.0000544 -14.6515379 -26.309976 5.56E-5 -1.86E-5 -5.76E-5 5.42E-5 -2.91E-5 -6.61E-5 5.44E-5 -10.4820924 5.8371951 18.0000537 -2.91E-5 -7.37E-5 18.0000537 -10.4820924 5.8372066 5.47E-5 -25.1241365 -20.4557221 9.0000556 -25.1241288 -20.4557221 18.0000537 -25.1241288 -20.4557259 5.58E-5 -25.1241109 -20.455657 3.8E-6 -10.4820356 5.8372526 3.6E-6 0.0 0.0 0.0 -14.6392126 -26.2878609 2.0E-7 -25.1235352 -20.4576788 3.8E-6 -14.6399345 -26.2891588 2.0E-7 -25.1275406 -20.4554505 3.8E-6 -46.9720478 -8.304491 1.13E-5 -46.9653568 -8.2924776 1.13E-5</float_array>
                    <technique_common>
                        <accessor count="28" source="#geometry0-position-array" stride="3">
                            <param name="X" type="float"/>
                            <param name="Y" type="float"/>
                            <param name="Z" type="float"/>
                        </accessor>
                    </technique_common>
                </source>
                <source id="geometry0-normal">
                    <float_array id="geometry0-normal-array" count="180">-3.0E-7 1.0E-7 -1.0 -3.0E-7 1.0E-7 -1.0 -3.0E-7 1.0E-7 -1.0 -3.0E-7 1.0E-7 -1.0 -3.0E-7 1.0E-7 -1.0 -3.0E-7 1.0E-7 -1.0 -3.0E-7 1.0E-7 -1.0 -3.0E-7 1.0E-7 -1.0 -3.0E-7 1.0E-7 -1.0 -3.0E-7 1.0E-7 -1.0 -3.0E-7 1.0E-7 -1.0 -3.0E-7 1.0E-7 -1.0 -3.0E-7 1.0E-7 -1.0 -3.0E-7 1.0E-7 -1.0 -3.0E-7 1.0E-7 -1.0 0.0 0.0 1.0 0.0 0.0 1.0 0.0 0.0 1.0 -3.0E-7 1.0E-7 -1.0 -3.0E-7 1.0E-7 -1.0 -3.0E-7 1.0E-7 -1.0 0.0 0.0 1.0 0.0 0.0 1.0 0.0 0.0 1.0 -3.0E-7 1.0E-7 -1.0 -3.0E-7 1.0E-7 -1.0 -3.0E-7 1.0E-7 -1.0 -0.8736651 0.4865279 7.0E-7 -0.8736651 0.4865279 7.0E-7 -0.8736651 0.4865279 7.0E-7 -0.873665 0.4865279 3.0E-7 -0.873665 0.4865279 3.0E-7 -0.873665 0.4865279 3.0E-7 -0.8736652 0.4865276 -9.0E-7 -0.8736652 0.4865276 -9.0E-7 -0.8736652 0.4865276 -9.0E-7 0.8736762 -0.4865079 0.0 0.8736762 -0.4865079 0.0 0.8736762 -0.4865079 0.0 0.8736649 -0.4865282 1.0E-7 0.8736649 -0.4865282 1.0E-7 0.8736649 -0.4865282 1.0E-7 0.486528 0.873665 4.0E-7 0.486528 0.873665 4.0E-7 0.486528 0.873665 4.0E-7 0.8736762 -0.486508 -0.0 0.8736762 -0.486508 -0.0 0.8736762 -0.486508 -0.0 0.4865282 0.8736649 6.0E-7 0.4865282 0.8736649 6.0E-7 0.4865282 0.8736649 6.0E-7 0.8736649 -0.4865282 1.0E-7 0.8736649 -0.4865282 1.0E-7 0.8736649 -0.4865282 1.0E-7 0.8736649 -0.4865282 1.0E-7 0.8736649 -0.4865282 1.0E-7 0.8736649 -0.4865282 1.0E-7 0.8736649 -0.4865282 3.0E-7 0.8736649 -0.4865282 3.0E-7 0.8736649 -0.4865282 3.0E-7</float_array>
                    <technique_common>
                        <accessor count="60" source="#geometry0-normal-array" stride="3">
                            <param name="X" type="float"/>
                            <param name="Y" type="float"/>
                            <param name="Z" type="float"/>
                        </accessor>
                    </technique_common>
                </source>
                <source id="geometry0-texCoords">
                    <float_array id="geometry0-texCoords-array" count="0"></float_array>
                    <technique_common>
                        <accessor count="0" source="#geometry0-texCoords-array" stride="2">
                            <param name="S" type="float"/>
                            <param name="T" type="float"/>
                        </accessor>
                    </technique_common>
                </source>
                <vertices id="geometry0-vertex">
                    <input semantic="POSITION" source="#geometry0-position"/>
                </vertices>
                <triangles count="18" material="default_ai_0.2_sh_0.2_tr_0.0_dc_r_0.8_g_0.8_b_0.8_sc_r_1.0_g_1.0_b_1.0_ec_r_0.0_g_0.0_b_0_tri">
                    <input offset="0" semantic="VERTEX" source="#geometry0-vertex"/>
                    <input offset="1" semantic="NORMAL" source="#geometry0-normal"/>
                    <p>19 0 20 1 21 2 19 3 21 4 22 5 23 6 22 7 24 8 19 9 22 10 23 11 19 12 23 13 25 14 19 18 26 19 27 20 25 24 26 25 19 26 13 27 16 28 17 29 15 30 16 31 13 32 18 33 16 34 15 35 4 36 5 37 6 38 4 39 7 40 8 41 12 42 13 43 14 44 6 45 7 46 4 47 15 48 13 49 12 50 4 51 8 52 9 53 8 54 10 55 11 56 7 57 10 58 8 59</p>
                </triangles>
                <triangles count="2" material="default_ai_0.2_sh_0.2_tr_0.0_dc_r_1.0_g_0.2_b_0.2_sc_r_1.0_g_1.0_b_1.0_ec_r_0.0_g_0.0_b_0_tri">
                    <input offset="0" semantic="VERTEX" source="#geometry0-vertex"/>
                    <input offset="1" semantic="NORMAL" source="#geometry0-normal"/>
                    <p>0 15 1 16 2 17 3 21 1 22 0 23</p>
                </triangles>
            </mesh>
        </geometry>
    </library_geometries>
    <library_visual_scenes>
        <visual_scene id="Building_pb-9635730c-7f36-11f0-b700-9c7bef4dcf4c">
            <node>
                <instance_geometry url="#geometry0">
                    <bind_material>
                        <technique_common>
                            <instance_material symbol="default_ai_0.2_sh_0.2_tr_0.0_dc_r_0.8_g_0.8_b_0.8_sc_r_1.0_g_1.0_b_1.0_ec_r_0.0_g_0.0_b_0_tri" target="#default_ai_0.2_sh_0.2_tr_0.0_dc_r_0.8_g_0.8_b_0.8_sc_r_1.0_g_1.0_b_1.0_ec_r_0.0_g_0.0_b_0_mat"/>
                            <instance_material symbol="default_ai_0.2_sh_0.2_tr_0.0_dc_r_1.0_g_0.2_b_0.2_sc_r_1.0_g_1.0_b_1.0_ec_r_0.0_g_0.0_b_0_tri" target="#default_ai_0.2_sh_0.2_tr_0.0_dc_r_1.0_g_0.2_b_0.2_sc_r_1.0_g_1.0_b_1.0_ec_r_0.0_g_0.0_b_0_mat"/>
                        </technique_common>
                    </bind_material>
                </instance_geometry>
            </node>
        </visual_scene>
    </library_visual_scenes>
    <scene>
        <instance_visual_scene url="#Building_pb-9635730c-7f36-11f0-b700-9c7bef4dcf4c"/>
    </scene>
</COLLADA>
