<?xml version="1.0" encoding="UTF-8" standalone="yes"?>
<COLLADA xmlns="http://www.collada.org/2005/11/COLLADASchema" version="1.4.1">
    <asset>
        <contributor>
            <authoring_tool>3D City Database Importer/Exporter, version 5.5.1; Chair of Geoinformatics, Technical University of Munich</authoring_tool>
        </contributor>
        <created>2026-01-16T16:51:34.515</created>
        <modified>2026-01-16T16:51:34.515</modified>
        <unit meter="1.0" name="meters"/>
        <up_axis>Z_UP</up_axis>
    </asset>
    <library_materials>
        <material id="default_dc_r_0.6_g_0.6_b_0_mat">
            <instance_effect url="#default_dc_r_0.6_g_0.6_b_0_eff"/>
        </material>
        <material id="default_dc_r_1.0_g_1.0_b_1_mat">
            <instance_effect url="#default_dc_r_1.0_g_1.0_b_1_eff"/>
        </material>
        <material id="default_dc_r_0.9_g_0.7_b_0_mat">
            <instance_effect url="#default_dc_r_0.9_g_0.7_b_0_eff"/>
        </material>
    </library_materials>
    <library_effects>
        <effect id="default_dc_r_0.6_g_0.6_b_0_eff">
            <profile_COMMON>
                <technique sid="COMMON">
                    <lambert>
                        <emission>
                            <color>0.0 0.0 0.0 1.0</color>
                        </emission>
                        <diffuse>
                            <color>0.6 0.6 0.6 1.0</color>
                        </diffuse>
                    </lambert>
                </technique>
                <extra>
                    <technique profile="GOOGLEEARTH">
                        <double_sided>1</double_sided>
                    </technique>
                </extra>
            </profile_COMMON>
        </effect>
        <effect id="default_dc_r_1.0_g_1.0_b_1_eff">
            <profile_COMMON>
                <technique sid="COMMON">
                    <lambert>
                        <emission>
                            <color>0.0 0.0 0.0 1.0</color>
                        </emission>
                        <diffuse>
                            <color>1.0 1.0 1.0 1.0</color>
                        </diffuse>
                    </lambert>
                </technique>
                <extra>
                    <technique profile="GOOGLEEARTH">
                        <double_sided>1</double_sided>
                    </technique>
                </extra>
            </profile_COMMON>
        </effect>
        <effect id="default_dc_r_0.9_g_0.7_b_0_eff">
            <profile_COMMON>
                <technique sid="COMMON">
                    <lambert>
                        <emission>
                            <color>0.0 0.0 0.0 1.0</color>
                        </emission>
                        <diffuse>
                            <color>0.9 0.7 0.4 1.0</color>
                        </diffuse>
                    </lambert>
                </technique>
                <extra>
                    <technique profile="GOOGLEEARTH">
                        <double_sided>1</double_sided>
                    </technique>
                </extra>
            </profile_COMMON>
        </effect>
    </library_effects>
    <library_geometries>
        <geometry id="geometry0">
            <mesh>
                <source id="geometry0-position">
                    <float_array id="geometry0-position-array" count="594">47.1783 -24.3719 27.660624 43.1786 -25.9673 28.548624 44.6355 -30.066 27.660624 -9.6793 1.0178 27.660624 -12.222 -4.6764 27.660624 -7.9888 -3.1186 28.548624 32.5022 -21.1998 30.010124 32.3489 -21.5429 30.010124 36.3665 -19.4707 29.666524 33.7884 -18.3194 30.010124 1.1687 -3.8362 29.814624 -2.2789 -1.2473 29.184624 -3.9249 -4.9333 29.184624 -4.082 -5.285 29.184624 2.3838 -8.1723 30.245824 2.5409 -7.8206 30.245824 1.5594 -2.9613 29.814624 3.7962 -5.0095 30.245824 1.6283 -2.8071 29.814624 -2.2101 -1.0931 29.184624 20.7289 -15.9424 29.137624 18.0855 -11.3158 29.661024 20.5725 -16.2926 29.137624 22.3749 -12.2564 29.137624 14.0679 -13.388 30.004624 14.2243 -13.0378 30.004624 22.4927 -11.9925 29.137624 18.4484 -10.503 29.661024 15.5073 -10.1645 30.004624 18.5662 -10.2392 29.661024 36.7263 -18.665 29.666524 40.6528 -20.4183 29.143124 39.0068 -24.1044 29.143124 38.8535 -24.4475 29.143124 40.7737 -20.1474 29.143124 36.8472 -18.3941 29.666524 41.2467 -21.7231 27.660624 40.2658 -21.2851 27.660624 39.0068 -24.1044 28.548624 24.7563 -14.3594 27.660624 21.9879 -13.1231 27.660624 20.7289 -15.9424 28.548624 32.5022 -21.1998 28.548624 33.7611 -18.3805 27.660624 -3.6215 -1.6873 27.660624 -3.9249 -4.9333 28.548624 -2.6659 -2.114 27.660624 2.5409 -7.8206 28.548624 14.7079 -9.8723 27.660624 3.7962 -5.0095 27.663124 1.7902 -4.1039 27.660624 1.7924 -4.1147 27.663124 1.1687 -3.8362 27.663124 1.1723 -3.828 27.660624 14.2243 -13.0378 28.548624 15.4832 -10.2185 27.660624 2.3838 -8.1723 28.439924 -6.9987 -7.0088 27.660624 14.0679 -13.388 28.440424 20.5725 -16.2926 28.440424 37.8271 -27.0258 27.660624 32.3489 -21.5429 28.442624 -4.082 -5.285 28.439924 38.8535 -24.4475 28.442624 39.3566 -27.7087 27.660624 -9.746 -5.782 27.660624 -11.2664 -5.1031 27.660624 17.0994 -14.7417 28.440424 42.125 -28.945 27.660624 1.0377 -7.5712 28.439924 33.6507 -22.1242 28.442624 43.6545 -29.628 27.660624 33.7884 -18.3194 27.660624 36.3665 -19.4707 27.660624 36.7263 -18.665 27.660624 40.6528 -20.4183 27.660624 -2.2789 -1.2473 27.660624 15.5073 -10.1645 27.660624 18.0855 -11.3158 27.660624 18.4484 -10.503 27.660624 36.8472 -18.3941 27.660624 22.3749 -12.2564 27.660624 32.4769 -14.5406 27.660624 1.5594 -2.9613 27.660624 46.5209 -32.4774 27.660624 40.7737 -20.1474 27.660624 -2.2101 -1.0931 27.660624 -15.3304 -4.9745 27.660624 18.5662 -10.2392 27.660624 22.4927 -11.9925 27.660624 1.6283 -2.8071 27.660624 16.6993 -7.5684 27.660624 5.106 -2.3915 27.660624 16.7335 -7.4919 27.660624 50.823 -22.7545 27.660624 0.0 0.0 27.660624 -10.9184 4.8884 27.660624 5.1452 -2.3036 27.660624 1.7924 -4.1147 27.6632 1.1687 -3.8362 27.6632 1.1687 -3.8362 29.8146 3.7962 -5.0095 30.2458 3.7962 -5.0095 27.6632 38.8535 -24.4475 29.1431 38.8535 -24.4475 28.4426 39.0068 -24.1044 28.5486 39.0068 -24.1044 29.1431 33.6507 -22.1242 28.4426 32.3489 -21.5429 30.0101 32.3489 -21.5429 28.4426 32.5022 -21.1998 28.5486 32.5022 -21.1998 30.0101 20.5725 -16.2926 29.1376 20.5725 -16.2926 28.4404 20.7289 -15.9424 28.5486 20.7289 -15.9424 29.1376 17.0994 -14.7417 28.4404 14.0679 -13.388 30.0046 14.0679 -13.388 28.4404 14.2243 -13.0378 28.5486 14.2243 -13.0378 30.0046 2.5409 -7.8206 30.2458 2.5409 -7.8206 28.5486 2.3838 -8.1723 30.2458 2.3838 -8.1723 28.44 -4.082 -5.285 29.1846 -4.082 -5.285 28.44 1.0377 -7.5712 28.44 -3.9249 -4.9333 28.5486 -3.9249 -4.9333 29.1846 -2.6659 -2.114 27.6606 -2.2789 -1.2473 29.1846 -2.2789 -1.2473 27.6606 -2.2101 -1.0931 27.6606 -2.2101 -1.0931 29.1846 1.6283 -2.8071 27.6606 1.6283 -2.8071 29.8146 1.5594 -2.9613 29.8146 1.5594 -2.9613 27.6606 1.1723 -3.828 27.6606 15.5073 -10.1645 30.0046 15.4832 -10.2185 27.6606 15.5073 -10.1645 27.6606 18.0855 -11.3158 27.6606 18.0855 -11.3158 29.661 18.4484 -10.503 27.6606 18.4484 -10.503 29.661 18.5662 -10.2392 27.6606 18.5662 -10.2392 29.661 22.4927 -11.9925 27.6606 22.4927 -11.9925 29.1376 22.3749 -12.2564 29.1376 22.3749 -12.2564 27.6606 21.9879 -13.1231 27.6606 33.7884 -18.3194 30.0101 33.7611 -18.3805 27.6606 33.7884 -18.3194 27.6606 36.3665 -19.4707 27.6606 36.3665 -19.4707 29.6665 36.7263 -18.665 27.6606 36.7263 -18.665 29.6665 36.8472 -18.3941 27.6606 36.8472 -18.3941 29.6665 40.7737 -20.1474 27.6606 40.7737 -20.1474 29.1431 40.6528 -20.4183 29.1431 40.6528 -20.4183 27.6606 40.2658 -21.2851 27.6606 0.0 0.0 0.0 -10.9184 4.8884 0.0 -10.9184 4.8884 27.6606 0.0 0.0 27.6606 5.1452 -2.3036 0.0 5.1452 -2.3036 27.6606 5.106 -2.3915 27.6606 5.106 -2.3915 0.0 16.6993 -7.5684 0.0 16.6993 -7.5684 27.6606 16.7335 -7.4919 0.0 16.7335 -7.4919 27.6606 32.4769 -14.5406 0.0 32.4769 -14.5406 27.6606 50.823 -22.7545 0.0 50.823 -22.7545 27.6606 46.5209 -32.4774 27.6606 46.5209 -32.4774 0.0 -15.3304 -4.9745 0.0 -15.3304 -4.9745 27.6606 32.4769 -14.5406 3.6E-5 46.5209 -32.4774 3.6E-5 16.6993 -7.5684 3.6E-5 0.0 0.0 3.6E-5 5.106 -2.3915 3.6E-5 -15.3304 -4.9745 3.6E-5 16.7335 -7.4919 3.6E-5 5.1452 -2.3036 3.6E-5 50.823 -22.7545 3.6E-5 -10.9184 4.8884 3.6E-5</float_array>
                    <technique_common>
                        <accessor count="198" source="#geometry0-position-array" stride="3">
                            <param name="X" type="float"/>
                            <param name="Y" type="float"/>
                            <param name="Z" type="float"/>
                        </accessor>
                    </technique_common>
                </source>
                <source id="geometry0-normal">
                    <float_array id="geometry0-normal-array" count="1908">-0.1106835 -0.2478651 0.962451 -0.1106835 -0.2478651 0.962451 -0.1106835 -0.2478651 0.962451 -0.1106779 -0.2478506 0.9624555 -0.1106779 -0.2478506 0.9624555 -0.1106779 -0.2478506 0.9624555 -0.9130781 0.4077846 0.0 -0.9130781 0.4077846 0.0 -0.9130781 0.4077846 0.0 0.9130917 -0.4077542 0.0 0.9130917 -0.4077542 0.0 0.9130917 -0.4077542 0.0 -0.1106863 -0.2478557 0.9624532 -0.1106863 -0.2478557 0.9624532 -0.1106863 -0.2478557 0.9624532 -0.9130781 0.4077846 0.0 -0.9130781 0.4077846 0.0 -0.9130781 0.4077846 0.0 0.9130992 -0.4077375 3.82E-5 0.9130992 -0.4077375 3.82E-5 0.9130992 -0.4077375 3.82E-5 -0.1106649 -0.2478582 0.962455 -0.1106649 -0.2478582 0.962455 -0.1106649 -0.2478582 0.962455 0.9131235 -0.407683 0.0 0.9131235 -0.407683 0.0 0.9131235 -0.407683 0.0 -0.1106736 -0.2478436 0.9624578 -0.1106736 -0.2478436 0.9624578 -0.1106736 -0.2478436 0.9624578 -0.1107089 -0.2479165 0.9624349 -0.1107089 -0.2479165 0.9624349 -0.1107089 -0.2479165 0.9624349 -0.1106813 -0.2478616 0.9624522 -0.1106813 -0.2478616 0.9624522 -0.1106813 -0.2478616 0.9624522 -0.1106754 -0.2478457 0.962457 -0.1106754 -0.2478457 0.962457 -0.1106754 -0.2478457 0.962457 -0.1107404 -0.2479861 0.9624133 -0.1107404 -0.2479861 0.9624133 -0.1107404 -0.2479861 0.9624133 -0.1106754 -0.2478457 0.962457 -0.1106754 -0.2478457 0.962457 -0.1106754 -0.2478457 0.962457 -0.1106782 -0.2478528 0.9624549 -0.1106782 -0.2478528 0.9624549 -0.1106782 -0.2478528 0.9624549 -0.1106737 -0.2478492 0.9624563 -0.1106737 -0.2478492 0.9624563 -0.1106737 -0.2478492 0.9624563 0.9130962 -0.4077442 0.0 0.9130962 -0.4077442 0.0 0.9130962 -0.4077442 0.0 -0.1106794 -0.247868 0.9624508 -0.1106794 -0.247868 0.9624508 -0.1106794 -0.247868 0.9624508 0.9130962 -0.4077442 0.0 0.9130962 -0.4077442 0.0 0.9130962 -0.4077442 0.0 -0.1107073 -0.247918 0.9624347 -0.1107073 -0.247918 0.9624347 -0.1107073 -0.247918 0.9624347 -0.1106812 -0.2478575 0.9624532 -0.1106812 -0.2478575 0.9624532 -0.1106812 -0.2478575 0.9624532 -0.110737 -0.2479881 0.9624133 -0.110737 -0.2479881 0.9624133 -0.110737 -0.2479881 0.9624133 -0.110695 -0.2478879 0.9624438 -0.110695 -0.2478879 0.9624438 -0.110695 -0.2478879 0.9624438 -0.110663 -0.2478558 0.9624558 -0.110663 -0.2478558 0.9624558 -0.110663 -0.2478558 0.9624558 -0.1106936 -0.2478885 0.9624438 -0.1106936 -0.2478885 0.9624438 -0.1106936 -0.2478885 0.9624438 0.4086344 0.9126981 0.0 0.4086344 0.9126981 0.0 0.4086344 0.9126981 0.0 0.4086344 0.9126981 0.0 0.4086344 0.9126981 0.0 0.4086344 0.9126981 0.0 0.91305 -0.4078476 0.0 0.91305 -0.4078476 0.0 0.91305 -0.4078476 0.0 0.91305 -0.4078476 0.0 0.91305 -0.4078476 0.0 0.91305 -0.4078476 0.0 0.4086321 0.9126992 0.0 0.4086321 0.9126992 0.0 0.4086321 0.9126992 0.0 0.4086321 0.9126992 0.0 0.4086321 0.9126992 0.0 0.4086321 0.9126992 0.0 -0.407743 -0.9130968 0.0 -0.407743 -0.9130968 0.0 -0.407743 -0.9130968 0.0 -0.407743 -0.9130967 0.0 -0.407743 -0.9130967 0.0 -0.407743 -0.9130967 0.0 -0.407743 -0.9130967 0.0 -0.407743 -0.9130967 0.0 -0.407743 -0.9130967 0.0 0.9132972 -0.4072938 0.0 0.9132972 -0.4072938 0.0 0.9132972 -0.4072938 0.0 0.9132972 -0.4072938 0.0 0.9132972 -0.4072938 0.0 0.9132972 -0.4072938 0.0 -0.9130501 0.4078475 0.0 -0.9130501 0.4078475 0.0 -0.9130501 0.4078475 0.0 -0.91305 0.4078476 0.0 -0.91305 0.4078476 0.0 -0.91305 0.4078476 0.0 0.4077375 0.9130993 0.0 0.4077375 0.9130993 0.0 0.4077375 0.9130993 0.0 0.4077375 0.9130993 0.0 0.4077375 0.9130993 0.0 0.4077375 0.9130993 0.0 0.0 0.0 1.0 0.0 0.0 1.0 0.0 0.0 1.0 0.0 0.0 1.0 0.0 0.0 1.0 0.0 0.0 1.0 0.0 0.0 1.0 0.0 0.0 1.0 0.0 0.0 1.0 0.0 0.0 1.0 0.0 0.0 1.0 0.0 0.0 1.0 -0.9130916 0.4077545 0.0 -0.9130916 0.4077545 0.0 -0.9130916 0.4077545 0.0 0.0 0.0 1.0 0.0 0.0 1.0 0.0 0.0 1.0 -0.9130951 0.4077468 -1.72E-5 -0.9130951 0.4077468 -1.72E-5 -0.9130951 0.4077468 -1.72E-5 0.0 0.0 1.0 0.0 0.0 1.0 0.0 0.0 1.0 -0.9131063 0.4077215 0.0 -0.9131063 0.4077215 0.0 -0.9131063 0.4077215 0.0 0.0 0.0 1.0 0.0 0.0 1.0 0.0 0.0 1.0 0.0 0.0 1.0 0.0 0.0 1.0 0.0 0.0 1.0 0.0 0.0 1.0 0.0 0.0 1.0 0.0 0.0 1.0 0.0 0.0 1.0 0.0 0.0 1.0 0.0 0.0 1.0 0.0 0.0 1.0 0.0 0.0 1.0 0.0 0.0 1.0 -0.9129289 0.4081185 0.0 -0.9129289 0.4081185 0.0 -0.9129289 0.4081185 0.0 0.0 0.0 1.0 0.0 0.0 1.0 0.0 0.0 1.0 -0.9129289 0.4081185 0.0 -0.9129289 0.4081185 0.0 -0.9129289 0.4081185 0.0 0.0 0.0 1.0 0.0 0.0 1.0 0.0 0.0 1.0 0.0 0.0 1.0 0.0 0.0 1.0 0.0 0.0 1.0 0.0 0.0 1.0 0.0 0.0 1.0 0.0 0.0 1.0 0.0 0.0 1.0 0.0 0.0 1.0 0.0 0.0 1.0 0.0 0.0 1.0 0.0 0.0 1.0 0.0 0.0 1.0 0.0 0.0 1.0 0.0 0.0 1.0 0.0 0.0 1.0 -0.9132246 0.4074565 0.0 -0.9132246 0.4074565 0.0 -0.9132246 0.4074565 0.0 0.0 0.0 1.0 0.0 0.0 1.0 0.0 0.0 1.0 -0.9132246 0.4074565 0.0 -0.9132246 0.4074565 0.0 -0.9132246 0.4074565 0.0 0.0 0.0 1.0 0.0 0.0 1.0 0.0 0.0 1.0 0.0 0.0 1.0 0.0 0.0 1.0 0.0 0.0 1.0 0.0 0.0 1.0 0.0 0.0 1.0 0.0 0.0 1.0 0.0 0.0 1.0 0.0 0.0 1.0 0.0 0.0 1.0 0.0 0.0 1.0 0.0 0.0 1.0 0.0 0.0 1.0 0.0 0.0 1.0 0.0 0.0 1.0 0.0 0.0 1.0 0.0 0.0 1.0 0.0 0.0 1.0 0.0 0.0 1.0 0.4086366 0.9126972 0.0 0.4086366 0.9126972 0.0 0.4086366 0.9126972 0.0 0.0 0.0 1.0 0.0 0.0 1.0 0.0 0.0 1.0 0.4086366 0.9126972 0.0 0.4086366 0.9126972 0.0 0.4086366 0.9126972 0.0 0.0 0.0 1.0 0.0 0.0 1.0 0.0 0.0 1.0 0.0 0.0 1.0 0.0 0.0 1.0 0.0 0.0 1.0 0.0 0.0 1.0 0.0 0.0 1.0 0.0 0.0 1.0 0.0 0.0 1.0 0.0 0.0 1.0 0.0 0.0 1.0 0.0 0.0 1.0 0.0 0.0 1.0 0.0 0.0 1.0 0.0 0.0 1.0 0.0 0.0 1.0 0.0 0.0 1.0 0.0 0.0 1.0 0.0 0.0 1.0 0.0 0.0 1.0 0.0 0.0 1.0 0.0 0.0 1.0 0.0 0.0 1.0 0.0 0.0 1.0 0.0 0.0 1.0 0.0 0.0 1.0 0.0 0.0 1.0 0.0 0.0 1.0 0.0 0.0 1.0 0.0 0.0 1.0 0.0 0.0 1.0 0.0 0.0 1.0 0.0 0.0 1.0 0.0 0.0 1.0 0.0 0.0 1.0 0.0 0.0 1.0 0.0 0.0 1.0 0.0 0.0 1.0 0.0 0.0 1.0 0.0 0.0 1.0 0.0 0.0 1.0 0.0 0.0 1.0 0.0 0.0 1.0 0.0 0.0 1.0 0.0 0.0 1.0 0.0 0.0 1.0 0.0 0.0 1.0 0.4086327 0.9126989 0.0 0.4086327 0.9126989 0.0 0.4086327 0.9126989 0.0 0.0 0.0 1.0 0.0 0.0 1.0 0.0 0.0 1.0 0.4086327 0.9126989 0.0 0.4086327 0.9126989 0.0 0.4086327 0.9126989 0.0 0.2590367 -0.1156773 0.9589155 0.2590367 -0.1156773 0.9589155 0.2590367 -0.1156773 0.9589155 0.0 0.0 1.0 0.0 0.0 1.0 0.0 0.0 1.0 0.0 0.0 1.0 0.0 0.0 1.0 0.0 0.0 1.0 0.0 0.0 1.0 0.0 0.0 1.0 0.0 0.0 1.0 0.0 0.0 1.0 0.0 0.0 1.0 0.0 0.0 1.0 0.9144801 -0.4046308 0.0 0.9144801 -0.4046308 0.0 0.9144801 -0.4046308 0.0 0.9144801 -0.4046308 0.0 0.9144801 -0.4046308 0.0 0.9144801 -0.4046308 0.0 -0.2420399 0.108081 0.9642277 -0.2420399 0.108081 0.9642277 -0.2420399 0.108081 0.9642277 0.4077359 0.9131 0.0 0.4077359 0.9131 0.0 0.4077359 0.9131 0.0 0.4077359 0.9131 0.0 0.4077359 0.9131 0.0 0.4077359 0.9131 0.0 0.9130039 -0.4079509 0.0 0.9130039 -0.4079509 0.0 0.9130039 -0.4079509 0.0 0.9130039 -0.4079509 0.0 0.9130039 -0.4079509 0.0 0.9130039 -0.4079509 0.0 -0.9128303 0.4083391 0.0 -0.9128303 0.4083391 0.0 -0.9128303 0.4083391 0.0 -0.9128303 0.4083391 0.0 -0.9128303 0.4083391 0.0 -0.9128303 0.4083391 0.0 0.1103212 -0.0492929 0.9926729 0.1103212 -0.0492929 0.9926729 0.1103212 -0.0492929 0.9926729 0.1103044 -0.0492547 0.9926766 0.1103044 -0.0492547 0.9926766 0.1103044 -0.0492547 0.9926766 0.9156428 -0.4019931 0.0 0.9156428 -0.4019931 0.0 0.9156428 -0.4019931 0.0 0.9130914 -0.4077549 -2.62E-5 0.9130914 -0.4077549 -2.62E-5 0.9130914 -0.4077549 -2.62E-5 0.9130672 -0.4078092 0.0 0.9130672 -0.4078092 0.0 0.9130672 -0.4078092 0.0 -0.4063042 -0.9137379 0.0 -0.4063042 -0.9137379 0.0 -0.4063042 -0.9137379 0.0 -0.4063042 -0.9137379 0.0 -0.4063042 -0.9137379 0.0 -0.4063042 -0.9137379 0.0 -0.9131042 0.4077262 -4.7E-6 -0.9131042 0.4077262 -4.7E-6 -0.9131042 0.4077262 -4.7E-6 -0.9131051 0.4077242 0.0 -0.9131051 0.4077242 0.0 -0.9131051 0.4077242 0.0 -0.9131806 0.407555 0.0 -0.9131806 0.407555 0.0 -0.9131806 0.407555 0.0 0.0 0.0 -1.0 0.0 0.0 -1.0 0.0 0.0 -1.0 0.0 0.0 -1.0 0.0 0.0 -1.0 0.0 0.0 -1.0 -0.1353356 0.0604348 0.988955 -0.1353356 0.0604348 0.988955 -0.1353356 0.0604348 0.988955 -0.1353397 0.0604545 0.9889532 -0.1353397 0.0604545 0.9889532 -0.1353397 0.0604545 0.9889532 -0.1353312 0.0604223 0.9889564 -0.1353312 0.0604223 0.9889564 -0.1353312 0.0604223 0.9889564 0.0 0.0 -1.0 0.0 0.0 -1.0 0.0 0.0 -1.0 -0.1352928 0.0604335 0.9889609 -0.1352928 0.0604335 0.9889609 -0.1352928 0.0604335 0.9889609 -0.1353348 0.0604358 0.988955 -0.1353348 0.0604358 0.988955 -0.1353348 0.0604358 0.988955 -0.1353156 0.0604253 0.9889584 -0.1353156 0.0604253 0.9889584 -0.1353156 0.0604253 0.9889584 -0.1353219 0.0604649 0.988955 -0.1353219 0.0604649 0.988955 -0.1353219 0.0604649 0.988955 -0.1353517 0.0603903 0.9889554 -0.1353517 0.0603903 0.9889554 -0.1353517 0.0603903 0.9889554 0.0 0.0 -1.0 0.0 0.0 -1.0 0.0 0.0 -1.0 0.0 0.0 -1.0 0.0 0.0 -1.0 0.0 0.0 -1.0 0.0 0.0 -1.0 0.0 0.0 -1.0 0.0 0.0 -1.0 0.0 0.0 -1.0 0.0 0.0 -1.0 0.0 0.0 -1.0 0.0 0.0 -1.0 0.0 0.0 -1.0 0.0 0.0 -1.0 0.4077445 0.9130961 0.0 0.4077445 0.9130961 0.0 0.4077445 0.9130961 0.0 0.4077445 0.913096 0.0 0.4077445 0.913096 0.0 0.4077445 0.913096 0.0 0.1103191 -0.0492689 0.9926743 0.1103191 -0.0492689 0.9926743 0.1103191 -0.0492689 0.9926743 -0.9131199 0.407691 0.0 -0.9131199 0.407691 0.0 -0.9131199 0.407691 0.0 0.1103244 -0.0492659 0.9926739 0.1103244 -0.0492659 0.9926739 0.1103244 -0.0492659 0.9926739 -0.9131199 0.407691 0.0 -0.9131199 0.407691 0.0 -0.9131199 0.407691 0.0 0.1103111 -0.049273 0.992675 0.1103111 -0.049273 0.992675 0.1103111 -0.049273 0.992675 0.1103061 -0.0492632 0.992676 0.1103061 -0.0492632 0.992676 0.1103061 -0.0492632 0.992676 0.1103301 -0.0492492 0.9926741 0.1103301 -0.0492492 0.9926741 0.1103301 -0.0492492 0.9926741 0.110326 -0.0492585 0.9926741 0.110326 -0.0492585 0.9926741 0.110326 -0.0492585 0.9926741 0.1103014 -0.0492523 0.9926772 0.1103014 -0.0492523 0.9926772 0.1103014 -0.0492523 0.9926772 0.1103243 -0.0492651 0.9926739 0.1103243 -0.0492651 0.9926739 0.1103243 -0.0492651 0.9926739 -0.9130971 0.4077421 0.0 -0.9130971 0.4077421 0.0 -0.9130971 0.4077421 0.0 -0.9130971 0.4077421 0.0 -0.9130971 0.4077421 0.0 -0.9130971 0.4077421 0.0 0.4077282 0.9131033 0.0 0.4077282 0.9131033 0.0 0.4077282 0.9131033 0.0 0.4077281 0.9131033 0.0 0.4077281 0.9131033 0.0 0.4077281 0.9131033 0.0 0.1103239 -0.049267 0.9926739 0.1103239 -0.049267 0.9926739 0.1103239 -0.049267 0.9926739 0.1102953 -0.0492814 0.9926763 0.1102953 -0.0492814 0.9926763 0.1102953 -0.0492814 0.9926763 0.1103112 -0.0492733 0.9926749 0.1103112 -0.0492733 0.9926749 0.1103112 -0.0492733 0.9926749 0.1103244 -0.0492645 0.9926739 0.1103244 -0.0492645 0.9926739 0.1103244 -0.0492645 0.9926739 0.1103354 -0.0492412 0.9926739 0.1103354 -0.0492412 0.9926739 0.1103354 -0.0492412 0.9926739 0.1103354 -0.0492412 0.9926739 0.1103354 -0.0492412 0.9926739 0.1103354 -0.0492412 0.9926739 0.4077269 0.9131039 0.0 0.4077269 0.9131039 0.0 0.4077269 0.9131039 0.0 0.4077398 0.9130982 4.5E-6 0.4077398 0.9130982 4.5E-6 0.4077398 0.9130982 4.5E-6 0.4077446 0.9130961 0.0 0.4077446 0.9130961 0.0 0.4077446 0.9130961 0.0 0.9131542 -0.4076144 0.0 0.9131542 -0.4076144 0.0 0.9131542 -0.4076144 0.0 0.9131542 -0.4076144 0.0 0.9131542 -0.4076144 0.0 0.9131542 -0.4076144 0.0 0.1126936 0.2523771 0.9610442 0.1126936 0.2523771 0.9610442 0.1126936 0.2523771 0.9610442 0.1126967 0.2523743 0.9610445 0.1126967 0.2523743 0.9610445 0.1126967 0.2523743 0.9610445 0.1127003 0.2523757 0.9610438 0.1127003 0.2523757 0.9610438 0.1127003 0.2523757 0.9610438 0.9130917 -0.4077542 0.0 0.9130917 -0.4077542 0.0 0.9130917 -0.4077542 0.0 0.9130951 -0.4077467 1.73E-5 0.9130951 -0.4077467 1.73E-5 0.9130951 -0.4077467 1.73E-5 0.913106 -0.4077223 0.0 0.913106 -0.4077223 0.0 0.913106 -0.4077223 0.0 0.1127034 0.2523727 0.9610442 0.1127034 0.2523727 0.9610442 0.1127034 0.2523727 0.9610442 0.1127006 0.2523791 0.9610428 0.1127006 0.2523791 0.9610428 0.1127006 0.2523791 0.9610428 0.1126996 0.252378 0.9610432 0.1126996 0.252378 0.9610432 0.1126996 0.252378 0.9610432 -0.913103 0.407729 5.8E-6 -0.913103 0.407729 5.8E-6 -0.913103 0.407729 5.8E-6 -0.9131019 0.4077314 0.0 -0.9131019 0.4077314 0.0 -0.9131019 0.4077314 0.0 -0.91302 0.4079148 0.0 -0.91302 0.4079148 0.0 -0.91302 0.4079148 0.0 0.1126975 0.2523748 0.9610444 0.1126975 0.2523748 0.9610444 0.1126975 0.2523748 0.9610444 0.1126967 0.2523769 0.9610439 0.1126967 0.2523769 0.9610439 0.1126967 0.2523769 0.9610439 0.112693 0.2523773 0.9610443 0.112693 0.2523773 0.9610443 0.112693 0.2523773 0.9610443 0.9130073 -0.4079432 0.0 0.9130073 -0.4079432 0.0 0.9130073 -0.4079432 0.0 0.9130073 -0.4079432 0.0 0.9130073 -0.4079432 0.0 0.9130073 -0.4079432 0.0 0.1127025 0.2524004 0.961037 0.1127025 0.2524004 0.961037 0.1127025 0.2524004 0.961037 0.1095554 0.2453365 0.9632277 0.1095554 0.2453365 0.9632277 0.1095554 0.2453365 0.9632277 0.1095493 0.2453355 0.9632286 0.1095493 0.2453355 0.9632286 0.1095493 0.2453355 0.9632286 0.1095233 0.2452655 0.9632494 0.1095233 0.2452655 0.9632494 0.1095233 0.2452655 0.9632494 0.1096504 0.245571 0.9631571 0.1096504 0.245571 0.9631571 0.1096504 0.245571 0.9631571 0.1126993 0.2523789 0.9610431 0.1126993 0.2523789 0.9610431 0.1126993 0.2523789 0.9610431 0.4077572 0.9130904 0.0 0.4077572 0.9130904 0.0 0.4077572 0.9130904 0.0 0.1126967 0.2523794 0.9610432 0.1126967 0.2523794 0.9610432 0.1126967 0.2523794 0.9610432 0.4077572 0.9130905 0.0 0.4077572 0.9130905 0.0 0.4077572 0.9130905 0.0 -0.4077416 -0.9130973 0.0 -0.4077416 -0.9130973 0.0 -0.4077416 -0.9130973 0.0 -0.4077328 -0.9131013 0.0 -0.4077328 -0.9131013 0.0 -0.4077328 -0.9131013 0.0 -0.4077407 -0.9130977 -8.0E-6 -0.4077407 -0.9130977 -8.0E-6 -0.4077407 -0.9130977 -8.0E-6 -0.9130908 0.4077563 0.0 -0.9130908 0.4077563 0.0 -0.9130908 0.4077563 0.0 -0.9130908 0.4077563 0.0 -0.9130908 0.4077563 0.0 -0.9130908 0.4077563 0.0 -0.9130073 0.4079432 0.0 -0.9130073 0.4079432 0.0 -0.9130073 0.4079432 0.0 -0.9130073 0.4079432 0.0 -0.9130073 0.4079432 0.0 -0.9130073 0.4079432 0.0 -0.9131864 0.4075423 0.0 -0.9131864 0.4075423 0.0 -0.9131864 0.4075423 0.0 -0.9131864 0.4075423 0.0 -0.9131864 0.4075423 0.0 -0.9131864 0.4075423 0.0 0.9130785 -0.4077837 0.0 0.9130785 -0.4077837 0.0 0.9130785 -0.4077837 0.0 0.9130785 -0.4077837 0.0 0.9130785 -0.4077837 0.0 0.9130785 -0.4077837 0.0 0.4077278 0.9131035 0.0 0.4077278 0.9131035 0.0 0.4077278 0.9131035 0.0 0.4077278 0.9131035 0.0 0.4077278 0.9131035 0.0 0.4077278 0.9131035 0.0 -0.4077406 -0.9130979 0.0 -0.4077406 -0.9130979 0.0 -0.4077406 -0.9130979 0.0 -0.4077394 -0.9130983 0.0 -0.4077394 -0.9130983 0.0 -0.4077394 -0.9130983 0.0 -0.4077402 -0.913098 -2.0E-6 -0.4077402 -0.913098 -2.0E-6 -0.4077402 -0.913098 -2.0E-6 0.9131864 -0.4075423 0.0 0.9131864 -0.4075423 0.0 0.9131864 -0.4075423 0.0 0.9131864 -0.4075423 0.0 0.9131864 -0.4075423 0.0 0.9131864 -0.4075423 0.0 -0.1106747 -0.247839 0.9624588 -0.1106747 -0.247839 0.9624588 -0.1106747 -0.247839 0.9624588 -0.1106828 -0.2478579 0.962453 -0.1106828 -0.2478579 0.962453 -0.1106828 -0.2478579 0.962453 -0.1106655 -0.2478612 0.9624541 -0.1106655 -0.2478612 0.9624541 -0.1106655 -0.2478612 0.9624541 -0.110684 -0.2478605 0.9624523 -0.110684 -0.2478605 0.9624523 -0.110684 -0.2478605 0.9624523 -0.1106796 -0.2478676 0.9624509 -0.1106796 -0.2478676 0.9624509 -0.1106796 -0.2478676 0.9624509</float_array>
                    <technique_common>
                        <accessor count="636" source="#geometry0-normal-array" stride="3">
                            <param name="X" type="float"/>
                            <param name="Y" type="float"/>
                            <param name="Z" type="float"/>
                        </accessor>
                    </technique_common>
                </source>
                <source id="geometry0-texCoords">
                    <float_array id="geometry0-texCoords-array" count="0"></float_array>
                    <technique_common>
                        <accessor count="0" source="#geometry0-texCoords-array" stride="2">
                            <param name="S" type="float"/>
                            <param name="T" type="float"/>
                        </accessor>
                    </technique_common>
                </source>
                <vertices id="geometry0-vertex">
                    <input semantic="POSITION" source="#geometry0-position"/>
                </vertices>
                <triangles count="114" material="default_dc_r_0.6_g_0.6_b_0_tri">
                    <input offset="0" semantic="VERTEX" source="#geometry0-vertex"/>
                    <input offset="1" semantic="NORMAL" source="#geometry0-normal"/>
                    <p>57 0 5 1 65 2 60 3 67 4 57 5 64 12 68 13 1 14 60 21 64 22 63 23 67 27 60 28 59 29 59 30 61 31 41 32 57 33 67 34 58 35 56 36 69 37 57 38 56 39 58 40 47 41 57 42 69 43 62 44 60 45 63 46 70 47 60 48 70 49 61 50 4 54 66 55 5 56 47 60 58 61 54 62 68 63 71 64 1 65 5 66 62 67 45 68 61 69 42 70 41 71 71 72 2 73 1 74 1 75 38 76 63 77 72 123 73 124 74 125 37 126 36 127 75 128 76 129 44 130 46 131 77 132 78 133 79 134 72 138 74 139 80 140 40 144 39 145 81 146 82 150 43 151 72 152 50 153 83 154 53 155 84 156 71 157 68 158 75 159 36 160 85 161 44 162 76 163 86 164 66 168 87 169 65 170 55 174 77 175 48 176 88 177 77 178 79 179 82 180 72 181 80 182 81 183 39 184 89 185 39 186 43 187 82 188 50 189 90 190 83 191 65 195 87 196 57 197 84 201 68 202 64 203 71 204 84 205 2 206 36 207 0 208 85 209 44 210 86 211 3 212 66 213 4 214 87 215 48 216 77 217 91 218 92 219 50 220 48 221 77 225 88 226 91 227 80 231 85 232 82 233 89 234 39 235 82 236 88 237 89 238 93 239 90 240 50 241 92 242 60 243 57 244 87 245 64 246 60 247 84 248 2 249 84 250 0 251 0 252 94 253 85 254 86 255 90 256 95 257 86 258 96 259 3 260 3 261 87 262 4 263 91 264 92 265 48 266 91 267 88 268 93 269 82 270 85 271 94 272 89 273 82 274 93 275 90 276 92 277 97 278 95 282 90 283 97 284 0 288 1 289 2 290 87 291 84 292 60 293 84 294 94 295 0 296 86 297 95 298 96 299 3 300 96 301 87 302 3 309 4 310 5 311 6 330 7 331 8 332 9 333 6 334 8 335 10 366 11 367 12 368 10 369 12 370 13 371 10 372 13 373 14 374 15 378 10 379 14 380 10 381 16 382 11 383 17 384 10 385 15 386 11 387 16 388 18 389 19 390 11 391 18 392 20 414 21 415 22 416 23 420 21 421 20 422 21 426 24 427 22 428 21 429 25 430 24 431 23 432 26 433 27 434 23 435 27 436 21 437 28 438 25 439 21 440 26 441 29 442 27 443 30 456 8 457 31 458 32 459 8 460 33 461 8 462 7 463 33 464 31 465 8 466 32 467 34 468 30 469 31 470 34 471 35 472 30 473 36 489 37 490 38 491 1 492 36 493 38 494 0 495 36 496 1 497 39 507 40 508 41 509 42 510 39 511 41 512 43 513 39 514 42 515 44 525 3 526 5 527 45 528 44 529 5 530 46 531 44 532 45 533 47 540 48 541 49 542 49 543 50 544 51 545 51 546 50 547 52 548 48 549 50 550 49 551 50 552 53 553 52 554 54 555 48 556 47 557 55 561 48 562 54 563 56 621 57 622 58 623 59 624 60 625 61 626 57 627 62 628 5 629 63 630 64 631 1 632 65 633 5 634 66 635</p>
                </triangles>
                <triangles count="90" material="default_dc_r_1.0_g_1.0_b_1_tri">
                    <input offset="0" semantic="VERTEX" source="#geometry0-vertex"/>
                    <input offset="1" semantic="NORMAL" source="#geometry0-normal"/>
                    <p>119 6 118 7 117 8 106 9 105 10 167 11 119 15 117 16 120 17 165 18 106 19 167 20 166 24 165 25 167 26 121 51 122 52 101 53 122 57 102 58 101 59 168 78 169 79 170 80 168 81 170 82 171 83 123 84 124 85 122 86 123 87 122 88 121 89 172 90 168 91 171 92 172 93 171 94 173 95 125 96 126 97 127 98 123 99 125 100 127 101 124 102 123 103 127 104 174 105 175 106 172 107 174 108 172 109 173 110 128 111 126 112 125 113 128 114 125 115 129 116 176 117 175 118 174 119 176 120 174 121 177 122 130 135 128 136 129 137 131 141 130 142 129 143 132 147 130 148 131 149 178 165 176 166 177 167 178 171 177 172 179 173 133 192 132 193 131 194 133 198 131 199 134 200 180 222 178 223 179 224 180 228 179 229 181 230 182 279 180 280 181 281 182 285 181 286 183 287 184 303 185 304 182 305 184 306 182 307 183 308 135 312 133 313 134 314 135 315 134 316 136 317 137 318 138 319 135 320 137 321 135 322 136 323 169 324 186 325 187 326 169 327 187 328 170 329 100 336 99 337 139 338 137 339 100 340 139 341 138 342 137 343 139 344 187 345 186 346 185 347 187 348 185 349 184 350 140 351 141 352 119 353 140 354 119 355 120 356 142 357 141 358 140 359 143 408 142 409 144 410 142 411 140 412 144 413 145 417 143 418 144 419 145 423 144 424 146 425 147 444 145 445 146 446 147 447 146 448 148 449 149 450 147 451 150 452 147 453 148 454 150 455 98 474 99 475 100 476 101 477 98 478 100 479 102 480 98 481 101 482 151 483 152 484 149 485 151 486 149 487 150 488 115 498 114 499 153 500 151 501 115 502 153 503 152 504 151 505 153 506 154 516 155 517 110 518 154 519 110 520 111 521 156 522 155 523 154 524 103 534 104 535 105 536 103 537 105 538 106 539 157 558 156 559 158 560 156 564 154 565 158 566 104 567 103 568 107 569 108 570 109 571 107 572 107 573 103 574 108 575 159 576 157 577 158 578 159 579 158 580 160 581 110 582 109 583 108 584 110 585 108 586 111 587 161 588 159 589 160 590 161 591 160 592 162 593 112 594 113 595 114 596 112 597 114 598 115 599 163 600 161 601 164 602 161 603 162 604 164 605 113 606 112 607 116 608 117 609 118 610 116 611 116 612 112 613 117 614 165 615 166 616 163 617 165 618 163 619 164 620</p>
                </triangles>
                <triangles count="8" material="default_dc_r_0.9_g_0.7_b_0_tri">
                    <input offset="0" semantic="VERTEX" source="#geometry0-vertex"/>
                    <input offset="1" semantic="NORMAL" source="#geometry0-normal"/>
                    <p>188 360 189 361 190 362 191 363 192 364 193 365 192 375 190 376 193 377 194 393 188 394 190 395 190 396 189 397 193 398 191 399 195 400 192 401 196 402 189 403 188 404 191 405 193 406 197 407</p>
                </triangles>
            </mesh>
        </geometry>
    </library_geometries>
    <library_visual_scenes>
        <visual_scene id="Building_FME_b8827756-cdf6-46b2-92f0-0ec04324a7e9">
            <node>
                <instance_geometry url="#geometry0">
                    <bind_material>
                        <technique_common>
                            <instance_material symbol="default_dc_r_0.6_g_0.6_b_0_tri" target="#default_dc_r_0.6_g_0.6_b_0_mat"/>
                            <instance_material symbol="default_dc_r_1.0_g_1.0_b_1_tri" target="#default_dc_r_1.0_g_1.0_b_1_mat"/>
                            <instance_material symbol="default_dc_r_0.9_g_0.7_b_0_tri" target="#default_dc_r_0.9_g_0.7_b_0_mat"/>
                        </technique_common>
                    </bind_material>
                </instance_geometry>
            </node>
        </visual_scene>
    </library_visual_scenes>
    <scene>
        <instance_visual_scene url="#Building_FME_b8827756-cdf6-46b2-92f0-0ec04324a7e9"/>
    </scene>
</COLLADA>
