<?xml version="1.0" encoding="UTF-8" standalone="yes"?>
<COLLADA xmlns="http://www.collada.org/2005/11/COLLADASchema" version="1.4.1">
    <asset>
        <contributor>
            <authoring_tool>3D City Database Importer/Exporter, version 5.5.1; Chair of Geoinformatics, Technical University of Munich</authoring_tool>
        </contributor>
        <created>2026-01-16T16:51:34.295</created>
        <modified>2026-01-16T16:51:34.295</modified>
        <unit meter="1.0" name="meters"/>
        <up_axis>Z_UP</up_axis>
    </asset>
    <library_materials>
        <material id="default_ai_0.2_sh_0.2_tr_0.0_dc_r_0.8_g_0.8_b_0.8_sc_r_1.0_g_1.0_b_1.0_ec_r_0.0_g_0.0_b_0_mat">
            <instance_effect url="#default_ai_0.2_sh_0.2_tr_0.0_dc_r_0.8_g_0.8_b_0.8_sc_r_1.0_g_1.0_b_1.0_ec_r_0.0_g_0.0_b_0_eff"/>
        </material>
        <material id="default_ai_0.2_sh_0.2_tr_0.0_dc_r_1.0_g_0.2_b_0.2_sc_r_1.0_g_1.0_b_1.0_ec_r_0.0_g_0.0_b_0_mat">
            <instance_effect url="#default_ai_0.2_sh_0.2_tr_0.0_dc_r_1.0_g_0.2_b_0.2_sc_r_1.0_g_1.0_b_1.0_ec_r_0.0_g_0.0_b_0_eff"/>
        </material>
    </library_materials>
    <library_effects>
        <effect id="default_ai_0.2_sh_0.2_tr_0.0_dc_r_0.8_g_0.8_b_0.8_sc_r_1.0_g_1.0_b_1.0_ec_r_0.0_g_0.0_b_0_eff">
            <profile_COMMON>
                <technique sid="COMMON">
                    <lambert>
                        <emission>
                            <color>0.0 0.0 0.0 1.0</color>
                        </emission>
                        <diffuse>
                            <color>0.8 0.8 0.8 1.0</color>
                        </diffuse>
                        <reflective>
                            <color>1.0 1.0 1.0 1.0</color>
                        </reflective>
                        <reflectivity>
                            <float>0.2</float>
                        </reflectivity>
                        <transparent opaque="A_ONE">
                            <color>1.0 1.0 1.0 1.0</color>
                        </transparent>
                        <transparency>
                            <float>1.0</float>
                        </transparency>
                    </lambert>
                </technique>
                <extra>
                    <technique profile="GOOGLEEARTH">
                        <double_sided>1</double_sided>
                    </technique>
                </extra>
            </profile_COMMON>
        </effect>
        <effect id="default_ai_0.2_sh_0.2_tr_0.0_dc_r_1.0_g_0.2_b_0.2_sc_r_1.0_g_1.0_b_1.0_ec_r_0.0_g_0.0_b_0_eff">
            <profile_COMMON>
                <technique sid="COMMON">
                    <lambert>
                        <emission>
                            <color>0.0 0.0 0.0 1.0</color>
                        </emission>
                        <diffuse>
                            <color>1.0 0.2 0.2 1.0</color>
                        </diffuse>
                        <reflective>
                            <color>1.0 1.0 1.0 1.0</color>
                        </reflective>
                        <reflectivity>
                            <float>0.2</float>
                        </reflectivity>
                        <transparent opaque="A_ONE">
                            <color>1.0 1.0 1.0 1.0</color>
                        </transparent>
                        <transparency>
                            <float>1.0</float>
                        </transparency>
                    </lambert>
                </technique>
                <extra>
                    <technique profile="GOOGLEEARTH">
                        <double_sided>1</double_sided>
                    </technique>
                </extra>
            </profile_COMMON>
        </effect>
    </library_effects>
    <library_geometries>
        <geometry id="geometry0">
            <mesh>
                <source id="geometry0-position">
                    <float_array id="geometry0-position-array" count="411">8.03E-5 -4.46E-5 14.7000004 -5.3552358 0.6322185 17.5867115 -0.9709585 -1.7713612 14.7000004 6.4800913 11.820039 14.7000004 2.095753 14.2236034 17.5867115 -2.2885244 16.6271679 14.7000004 -9.7395742 3.0357677 14.7000004 -2.2885194 16.6271522 14.7000012 6.4799876 11.8201005 1.5E-6 -2.2886395 16.6272161 1.5E-6 2.122098 14.2091739 17.5693965 2.2328019 14.148483 17.4852271 2.282527 14.1212223 17.4637637 6.4799865 11.8201005 14.7000012 -0.9710517 -1.7712848 1.0E-7 -5.1737742 0.5327215 17.4672255 -5.3552413 0.6322052 17.5867133 -0.9710512 -1.7712846 9.8000016 -0.9705772 -1.7704217 14.6928239 -9.7395558 3.0357629 14.7000012 -9.7396798 3.0358299 1.0E-7 1.216E-4 -6.6E-5 14.7000012 3.2399929 5.9100516 7.3500013 0.0019431 0.0035466 14.7000012 -0.0336652 -0.061406 14.6964125 -0.9459219 -1.7254481 14.6964125 -0.058321 -0.1063806 14.6964125 -0.0829763 -0.1513543 14.6964125 -0.1076317 -0.196328 14.6964125 -0.1322875 -0.2413025 14.6964125 -0.1569428 -0.2862763 14.6964125 -0.1815987 -0.3312509 14.6964125 -0.206254 -0.3762245 14.6964125 -0.2309093 -0.4211981 14.6964125 -0.2555642 -0.466171 14.6964125 -0.2802215 -0.5111482 14.6964125 -0.3048768 -0.5561218 14.6964125 -0.3295321 -0.6010954 14.6964125 -0.3541875 -0.6460693 14.6964125 -0.3788428 -0.6910429 14.6964125 -0.4034982 -0.7360165 14.6964125 -0.4281535 -0.7809904 14.6964125 -0.4528089 -0.825964 14.6964125 -0.4774647 -0.8709378 14.6964125 -0.5021214 -0.9159148 14.6964125 -0.5267768 -0.9608884 14.6964125 -0.5514326 -1.0058622 14.6964125 -0.576088 -1.0508358 14.6964125 -0.6007433 -1.0958097 14.6964125 -0.6253986 -1.1407833 14.6964125 -0.650054 -1.1857569 14.6964125 -0.6747093 -1.2307308 14.6964125 -0.6993666 -1.2757077 14.6964125 -0.7240219 -1.3206813 14.6964125 -0.7486773 -1.3656552 14.6964125 -0.7733326 -1.4106288 14.6964125 -0.7979879 -1.4556026 14.6964125 -0.8226433 -1.5005763 14.6964125 -0.8472986 -1.5455499 14.6964125 -0.871954 -1.5905237 14.6964125 -0.8966093 -1.6354973 14.6964125 -0.9212666 -1.6804745 14.6964125 -0.0237079 -0.0432434 14.6928239 -0.0241823 -0.0441082 14.6928239 -0.0246563 -0.0449728 14.6928239 6.1320581 11.185169 14.7000012 5.910569 10.7811639 14.7000012 5.687104 10.3735511 14.7000012 5.4655278 9.9693868 14.7000012 5.2692201 9.6113112 14.7000012 3.0375512 5.5406411 14.7000012 2.967942 5.4136677 14.7000012 2.9173157 5.3213246 14.7000012 2.866689 5.2289805 14.7000012 2.8223922 5.1481793 14.7000012 2.7717655 5.0558352 14.7000012 2.7211409 4.9634912 14.7000012 2.6452017 4.824975 14.7000012 2.6009035 4.7441747 14.7000012 2.4743395 4.5133145 14.7000012 2.3730879 4.3286254 14.7000012 2.3224616 4.2362823 14.7000012 2.2781649 4.1554809 14.7000012 2.1769118 3.9707937 14.7000012 2.0756602 3.7861056 14.7000012 2.0250335 3.6937616 14.7000012 1.9807367 3.6129603 14.7000012 1.93011 3.5206163 14.7000012 1.9047976 3.4744442 14.7000012 1.8794851 3.4282721 14.7000012 1.8288603 3.3359272 14.7000012 1.7845616 3.2551268 14.7000012 1.7592497 3.2089548 14.7000012 1.7022948 3.105068 14.7000012 1.6579962 3.0242676 14.7000012 1.6326842 2.9780955 14.7000012 1.5567465 2.8395785 14.7000012 1.5314326 2.7934073 14.7000012 1.4808059 2.7010633 14.7000012 1.455493 2.6548905 14.7000012 1.36057 2.481746 14.7000012 1.3352561 2.4355748 14.7000012 1.2909589 2.3547727 14.7000012 1.2403345 2.2624286 14.7000012 1.2150202 2.2162575 14.7000012 1.1643953 2.1239125 14.7000012 1.1390829 2.0777404 14.7000012 1.0378299 1.8930532 14.7000012 0.7910285 1.4428766 14.7000012 0.7404037 1.3505316 14.7000012 0.6707926 1.2235592 14.7000012 0.6454802 1.1773863 14.7000012 0.5948534 1.0850431 14.7000012 0.544229 0.992699 14.7000012 0.5189161 0.9465261 14.7000012 0.474618 0.8657258 14.7000012 0.4239912 0.7733817 14.7000012 0.3986788 0.7272097 14.7000012 0.3733664 0.6810375 14.7000012 0.348052 0.6348656 14.7000012 0.3227396 0.5886936 14.7000012 0.2721128 0.4963496 14.7000012 0.2468009 0.4501784 14.7000012 0.221488 0.4040054 14.7000012 0.1012592 0.1846844 14.7000012 0.0506258 0.092344 14.7000012 0.0253153 0.0461719 14.7000012 0.0 0.0 0.0 -0.0241818 -0.0441082 14.6964125 -9.7396652 3.0358267 1.52E-5 -2.2885868 16.6271984 1.51E-5 6.4800893 11.8200542 1.21E-5 3.2402642 5.9100873 1.22E-5 2.2691796 4.1387665 1.22E-5 1.1891516 2.1687279 1.22E-5 1.65E-5 -1.58E-5 1.22E-5 -0.9710214 -1.771283 1.22E-5</float_array>
                    <technique_common>
                        <accessor count="137" source="#geometry0-position-array" stride="3">
                            <param name="X" type="float"/>
                            <param name="Y" type="float"/>
                            <param name="Z" type="float"/>
                        </accessor>
                    </technique_common>
                </source>
                <source id="geometry0-normal">
                    <float_array id="geometry0-normal-array" count="1215">-0.4807197 -0.8768744 -4.0E-7 -0.4807197 -0.8768744 -4.0E-7 -0.4807197 -0.8768744 -4.0E-7 -0.4807181 -0.8768752 0.0 -0.4807181 -0.8768752 0.0 -0.4807181 -0.8768752 0.0 -0.480436 -0.8770297 2.012E-4 -0.480436 -0.8770297 2.012E-4 -0.480436 -0.8770297 2.012E-4 -0.4807184 -0.8768752 0.0 -0.4807184 -0.8768752 0.0 -0.4807184 -0.8768752 0.0 -0.4807184 -0.8768752 1.0E-7 -0.4807184 -0.8768752 1.0E-7 -0.4807184 -0.8768752 1.0E-7 -0.8768752 0.4807183 9.3E-6 -0.8768752 0.4807183 9.3E-6 -0.8768752 0.4807183 9.3E-6 -0.876875 0.4807185 9.6E-6 -0.876875 0.4807185 9.6E-6 -0.876875 0.4807185 9.6E-6 0.8924639 -0.4500146 0.031544 0.8924639 -0.4500146 0.031544 0.8924639 -0.4500146 0.031544 0.8768752 -0.4807182 -7.1E-6 0.8768752 -0.4807182 -7.1E-6 0.8768752 -0.4807182 -7.1E-6 1.0 0.0 0.0 1.0 0.0 0.0 1.0 0.0 0.0 0.0 0.0 -1.0 0.0 0.0 -1.0 0.0 0.0 -1.0 1.0 0.0 0.0 1.0 0.0 0.0 1.0 0.0 0.0 0.0 0.0 1.0 0.0 0.0 1.0 0.0 0.0 1.0 0.0 0.0 -1.0 0.0 0.0 -1.0 0.0 0.0 -1.0 1.0 0.0 0.0 1.0 0.0 0.0 1.0 0.0 0.0 1.0 0.0 0.0 1.0 0.0 0.0 1.0 0.0 0.0 1.0 0.0 0.0 1.0 0.0 0.0 1.0 0.0 0.0 0.0 0.0 -1.0 0.0 0.0 -1.0 0.0 0.0 -1.0 1.0 0.0 0.0 1.0 0.0 0.0 1.0 0.0 0.0 0.0 0.0 1.0 0.0 0.0 1.0 0.0 0.0 1.0 1.0 0.0 0.0 1.0 0.0 0.0 1.0 0.0 0.0 0.0 0.0 -1.0 0.0 0.0 -1.0 0.0 0.0 -1.0 1.0 0.0 0.0 1.0 0.0 0.0 1.0 0.0 0.0 1.0 0.0 0.0 1.0 0.0 0.0 1.0 0.0 0.0 0.0 0.0 -1.0 0.0 0.0 -1.0 0.0 0.0 -1.0 0.0 0.0 1.0 0.0 0.0 1.0 0.0 0.0 1.0 0.0 0.0 1.0 0.0 0.0 1.0 0.0 0.0 1.0 0.0 0.0 -1.0 0.0 0.0 -1.0 0.0 0.0 -1.0 1.0 0.0 0.0 1.0 0.0 0.0 1.0 0.0 0.0 0.0 0.0 1.0 0.0 0.0 1.0 0.0 0.0 1.0 0.0 0.0 1.0 0.0 0.0 1.0 0.0 0.0 1.0 0.0 0.0 -1.0 0.0 0.0 -1.0 0.0 0.0 -1.0 0.0 0.0 1.0 0.0 0.0 1.0 0.0 0.0 1.0 0.0 0.0 1.0 0.0 0.0 1.0 0.0 0.0 1.0 0.0 0.0 -1.0 0.0 0.0 -1.0 0.0 0.0 -1.0 0.0 0.0 1.0 0.0 0.0 1.0 0.0 0.0 1.0 0.0 0.0 1.0 0.0 0.0 1.0 0.0 0.0 1.0 0.0 0.0 -1.0 0.0 0.0 -1.0 0.0 0.0 -1.0 0.0 0.0 1.0 0.0 0.0 1.0 0.0 0.0 1.0 0.0 0.0 -1.0 0.0 0.0 -1.0 0.0 0.0 -1.0 0.0 0.0 1.0 0.0 0.0 1.0 0.0 0.0 1.0 0.0 0.0 1.0 0.0 0.0 1.0 0.0 0.0 1.0 0.0 0.0 -1.0 0.0 0.0 -1.0 0.0 0.0 -1.0 0.0 0.0 1.0 0.0 0.0 1.0 0.0 0.0 1.0 0.0 0.0 -1.0 0.0 0.0 -1.0 0.0 0.0 -1.0 -3.0E-7 1.0E-7 -1.0 -3.0E-7 1.0E-7 -1.0 -3.0E-7 1.0E-7 -1.0 0.8768751 -0.4807182 -2.0E-7 0.8768751 -0.4807182 -2.0E-7 0.8768751 -0.4807182 -2.0E-7 -3.0E-7 1.0E-7 -1.0 -3.0E-7 1.0E-7 -1.0 -3.0E-7 1.0E-7 -1.0 0.0 0.0 1.0 0.0 0.0 1.0 0.0 0.0 1.0 -3.0E-7 1.0E-7 -1.0 -3.0E-7 1.0E-7 -1.0 -3.0E-7 1.0E-7 -1.0 1.0 0.0 0.0 1.0 0.0 0.0 1.0 0.0 0.0 -3.0E-7 1.0E-7 -1.0 -3.0E-7 1.0E-7 -1.0 -3.0E-7 1.0E-7 -1.0 0.8768752 -0.4807181 -3.38E-5 0.8768752 -0.4807181 -3.38E-5 0.8768752 -0.4807181 -3.38E-5 -3.0E-7 1.0E-7 -1.0 -3.0E-7 1.0E-7 -1.0 -3.0E-7 1.0E-7 -1.0 0.876875 -0.4807185 -0.0 0.876875 -0.4807185 -0.0 0.876875 -0.4807185 -0.0 -3.0E-7 1.0E-7 -1.0 -3.0E-7 1.0E-7 -1.0 -3.0E-7 1.0E-7 -1.0 0.876875 -0.4807184 2.0E-7 0.876875 -0.4807184 2.0E-7 0.876875 -0.4807184 2.0E-7 0.8768716 -0.4807247 -2.56E-5 0.8768716 -0.4807247 -2.56E-5 0.8768716 -0.4807247 -2.56E-5 0.8754284 -0.4833463 0.0012086 0.8754284 -0.4833463 0.0012086 0.8754284 -0.4833463 0.0012086 0.876875 -0.4807184 -1.0E-7 0.876875 -0.4807184 -1.0E-7 0.876875 -0.4807184 -1.0E-7 0.0 0.0 -1.0 0.0 0.0 -1.0 0.0 0.0 -1.0 0.0 0.0 1.0 0.0 0.0 1.0 0.0 0.0 1.0 0.0 0.0 -1.0 0.0 0.0 -1.0 0.0 0.0 -1.0 0.0 0.0 1.0 0.0 0.0 1.0 0.0 0.0 1.0 0.0 0.0 -1.0 0.0 0.0 -1.0 0.0 0.0 -1.0 0.0 0.0 1.0 0.0 0.0 1.0 0.0 0.0 1.0 0.0 0.0 -1.0 0.0 0.0 -1.0 0.0 0.0 -1.0 0.0 0.0 1.0 0.0 0.0 1.0 0.0 0.0 1.0 0.0 0.0 1.0 0.0 0.0 1.0 0.0 0.0 1.0 0.0 0.0 -1.0 0.0 0.0 -1.0 0.0 0.0 -1.0 0.0 0.0 1.0 0.0 0.0 1.0 0.0 0.0 1.0 0.0 0.0 -1.0 0.0 0.0 -1.0 0.0 0.0 -1.0 0.0 0.0 1.0 0.0 0.0 1.0 0.0 0.0 1.0 0.0 0.0 1.0 0.0 0.0 1.0 0.0 0.0 1.0 0.0 0.0 -1.0 0.0 0.0 -1.0 0.0 0.0 -1.0 0.0 0.0 -1.0 0.0 0.0 -1.0 0.0 0.0 -1.0 0.0 0.0 1.0 0.0 0.0 1.0 0.0 0.0 1.0 0.0 0.0 -1.0 0.0 0.0 -1.0 0.0 0.0 -1.0 0.0 0.0 1.0 0.0 0.0 1.0 0.0 0.0 1.0 1.0 0.0 0.0 1.0 0.0 0.0 1.0 0.0 0.0 0.0 0.0 1.0 0.0 0.0 1.0 0.0 0.0 1.0 0.0 0.0 -1.0 0.0 0.0 -1.0 0.0 0.0 -1.0 0.0 0.0 1.0 0.0 0.0 1.0 0.0 0.0 1.0 0.0 0.0 -1.0 0.0 0.0 -1.0 0.0 0.0 -1.0 0.0 0.0 -1.0 0.0 0.0 -1.0 0.0 0.0 -1.0 0.0 0.0 -1.0 0.0 0.0 -1.0 0.0 0.0 -1.0 0.0 0.0 1.0 0.0 0.0 1.0 0.0 0.0 1.0 0.0 0.0 -1.0 0.0 0.0 -1.0 0.0 0.0 -1.0 0.0 0.0 1.0 0.0 0.0 1.0 0.0 0.0 1.0 0.0 0.0 1.0 0.0 0.0 1.0 0.0 0.0 1.0 0.0 0.0 -1.0 0.0 0.0 -1.0 0.0 0.0 -1.0 0.0 0.0 -1.0 0.0 0.0 -1.0 0.0 0.0 -1.0 0.0 0.0 1.0 0.0 0.0 1.0 0.0 0.0 1.0 0.0 0.0 1.0 0.0 0.0 1.0 0.0 0.0 1.0 0.0 0.0 -1.0 0.0 0.0 -1.0 0.0 0.0 -1.0 0.0 0.0 -1.0 0.0 0.0 -1.0 0.0 0.0 -1.0 0.0 0.0 1.0 0.0 0.0 1.0 0.0 0.0 1.0 0.0 0.0 -1.0 0.0 0.0 -1.0 0.0 0.0 -1.0 0.0 0.0 -1.0 0.0 0.0 -1.0 0.0 0.0 -1.0 0.0 0.0 1.0 0.0 0.0 1.0 0.0 0.0 1.0 0.0 0.0 -1.0 0.0 0.0 -1.0 0.0 0.0 -1.0 0.0 0.0 -1.0 0.0 0.0 -1.0 0.0 0.0 -1.0 0.0 0.0 1.0 0.0 0.0 1.0 0.0 0.0 1.0 0.0 0.0 1.0 0.0 0.0 1.0 0.0 0.0 1.0 0.0 0.0 -1.0 0.0 0.0 -1.0 0.0 0.0 -1.0 0.0 0.0 1.0 0.0 0.0 1.0 0.0 0.0 1.0 0.0 0.0 -1.0 0.0 0.0 -1.0 0.0 0.0 -1.0 0.0 0.0 1.0 0.0 0.0 1.0 0.0 0.0 1.0 0.0 0.0 -1.0 0.0 0.0 -1.0 0.0 0.0 -1.0 0.0 0.0 -1.0 0.0 0.0 -1.0 0.0 0.0 -1.0 0.0 0.0 1.0 0.0 0.0 1.0 0.0 0.0 1.0 0.0 0.0 1.0 0.0 0.0 1.0 0.0 0.0 1.0 0.0 0.0 -1.0 0.0 0.0 -1.0 0.0 0.0 -1.0 0.0 0.0 -1.0 0.0 0.0 -1.0 0.0 0.0 -1.0 0.0 0.0 1.0 0.0 0.0 1.0 0.0 0.0 1.0 0.0 0.0 -1.0 0.0 0.0 -1.0 0.0 0.0 -1.0 0.0 0.0 1.0 0.0 0.0 1.0 0.0 0.0 1.0 0.0 0.0 -1.0 0.0 0.0 -1.0 0.0 0.0 -1.0 0.0 0.0 -1.0 0.0 0.0 -1.0 0.0 0.0 -1.0 0.0 0.0 -1.0 0.0 0.0 -1.0 0.0 0.0 -1.0 0.0 0.0 1.0 0.0 0.0 1.0 0.0 0.0 1.0 0.0 0.0 -1.0 0.0 0.0 -1.0 0.0 0.0 -1.0 0.876875 -0.4807185 1.0E-7 0.876875 -0.4807185 1.0E-7 0.876875 -0.4807185 1.0E-7 0.1455669 -0.0798024 0.9861246 0.1455669 -0.0798024 0.9861246 0.1455669 -0.0798024 0.9861246 0.8768864 -0.4806977 -1.165E-4 0.8768864 -0.4806977 -1.165E-4 0.8768864 -0.4806977 -1.165E-4 0.4384419 -0.2403546 0.8660244 0.4384419 -0.2403546 0.8660244 0.4384419 -0.2403546 0.8660244 0.4384404 -0.2403619 0.8660232 0.4384404 -0.2403619 0.8660232 0.4384404 -0.2403619 0.8660232 0.4384365 -0.2403571 0.8660265 0.4384365 -0.2403571 0.8660265 0.4384365 -0.2403571 0.8660265 -0.4384401 0.2403591 0.8660241 -0.4384401 0.2403591 0.8660241 -0.4384401 0.2403591 0.8660241 -0.4384364 0.2403587 0.8660261 -0.4384364 0.2403587 0.8660261 -0.4384364 0.2403587 0.8660261 0.4807183 0.876875 -1.0E-7 0.4807183 0.876875 -1.0E-7 0.4807183 0.876875 -1.0E-7 0.4807183 0.8768751 -1.0E-7 0.4807183 0.8768751 -1.0E-7 0.4807183 0.8768751 -1.0E-7 0.4807258 0.8768709 2.1E-6 0.4807258 0.8768709 2.1E-6 0.4807258 0.8768709 2.1E-6 0.4807262 0.8768708 2.1E-6 0.4807262 0.8768708 2.1E-6 0.4807262 0.8768708 2.1E-6 0.4807184 0.876875 0.0 0.4807184 0.876875 0.0 0.4807184 0.876875 0.0</float_array>
                    <technique_common>
                        <accessor count="405" source="#geometry0-normal-array" stride="3">
                            <param name="X" type="float"/>
                            <param name="Y" type="float"/>
                            <param name="Z" type="float"/>
                        </accessor>
                    </technique_common>
                </source>
                <source id="geometry0-texCoords">
                    <float_array id="geometry0-texCoords-array" count="0"></float_array>
                    <technique_common>
                        <accessor count="0" source="#geometry0-texCoords-array" stride="2">
                            <param name="S" type="float"/>
                            <param name="T" type="float"/>
                        </accessor>
                    </technique_common>
                </source>
                <vertices id="geometry0-vertex">
                    <input semantic="POSITION" source="#geometry0-position"/>
                </vertices>
                <triangles count="130" material="default_ai_0.2_sh_0.2_tr_0.0_dc_r_0.8_g_0.8_b_0.8_sc_r_1.0_g_1.0_b_1.0_ec_r_0.0_g_0.0_b_0_tri">
                    <input offset="0" semantic="VERTEX" source="#geometry0-vertex"/>
                    <input offset="1" semantic="NORMAL" source="#geometry0-normal"/>
                    <p>14 0 15 1 16 2 17 3 15 4 14 5 18 6 15 7 17 8 14 9 19 10 20 11 16 12 19 13 14 14 9 15 19 16 7 17 20 18 19 19 9 20 21 21 22 22 23 23 24 24 25 25 18 26 26 27 25 28 24 29 27 30 25 31 26 32 28 33 25 34 27 35 29 36 25 37 28 38 30 39 25 40 29 41 31 42 25 43 30 44 32 45 25 46 31 47 33 48 25 49 32 50 34 51 25 52 33 53 35 54 25 55 34 56 36 57 25 58 35 59 37 60 25 61 36 62 38 63 25 64 37 65 39 66 25 67 38 68 40 69 25 70 39 71 41 72 25 73 40 74 42 75 25 76 41 77 43 78 25 79 42 80 44 81 25 82 43 83 45 84 25 85 44 86 46 87 25 88 45 89 47 90 25 91 46 92 48 93 25 94 47 95 49 96 25 97 48 98 50 99 25 100 49 101 51 102 25 103 50 104 52 105 25 106 51 107 53 108 25 109 52 110 54 111 25 112 53 113 55 114 25 115 54 116 56 117 25 118 55 119 57 120 25 121 56 122 58 123 25 124 57 125 59 126 25 127 58 128 60 129 25 130 59 131 61 132 25 133 60 134 129 135 130 136 131 137 62 138 18 139 17 140 129 141 131 142 132 143 63 144 18 145 62 146 129 147 132 148 133 149 64 150 18 151 63 152 129 153 133 154 134 155 24 156 18 157 64 158 129 159 134 160 135 161 8 162 17 163 14 164 129 165 135 166 136 167 22 168 17 169 8 170 21 171 17 172 22 173 62 174 17 175 21 176 13 177 23 178 22 179 65 180 23 181 13 182 66 183 23 184 65 185 67 186 23 187 66 188 68 189 23 190 67 191 69 192 23 193 68 194 70 195 23 196 69 197 71 198 23 199 70 200 72 201 23 202 71 203 73 204 23 205 72 206 74 207 23 208 73 209 75 210 23 211 74 212 76 213 23 214 75 215 77 216 23 217 76 218 78 219 23 220 77 221 79 222 23 223 78 224 80 225 23 226 79 227 81 228 23 229 80 230 82 231 23 232 81 233 83 234 23 235 82 236 84 237 23 238 83 239 85 240 23 241 84 242 86 243 23 244 85 245 87 246 23 247 86 248 88 249 23 250 87 251 89 252 23 253 88 254 90 255 23 256 89 257 91 258 23 259 90 260 92 261 23 262 91 263 93 264 23 265 92 266 94 267 23 268 93 269 95 270 23 271 94 272 96 273 23 274 95 275 97 276 23 277 96 278 98 279 23 280 97 281 99 282 23 283 98 284 100 285 23 286 99 287 101 288 23 289 100 290 102 291 23 292 101 293 103 294 23 295 102 296 104 297 23 298 103 299 105 300 23 301 104 302 106 303 23 304 105 305 107 306 23 307 106 308 108 309 23 310 107 311 109 312 23 313 108 314 110 315 23 316 109 317 111 318 23 319 110 320 112 321 23 322 111 323 113 324 23 325 112 326 114 327 23 328 113 329 115 330 23 331 114 332 116 333 23 334 115 335 117 336 23 337 116 338 118 339 23 340 117 341 119 342 23 343 118 344 120 345 23 346 119 347 121 348 23 349 120 350 122 351 23 352 121 353 123 354 23 355 122 356 124 357 23 358 123 359 125 360 23 361 124 362 126 363 23 364 125 365 8 366 13 367 22 368 127 369 8 370 14 371 63 372 128 373 64 374 7 390 8 391 9 392 10 393 8 394 7 395 11 396 8 397 10 398 12 399 8 400 11 401 13 402 8 403 12 404</p>
                </triangles>
                <triangles count="5" material="default_ai_0.2_sh_0.2_tr_0.0_dc_r_1.0_g_0.2_b_0.2_sc_r_1.0_g_1.0_b_1.0_ec_r_0.0_g_0.0_b_0_tri">
                    <input offset="0" semantic="VERTEX" source="#geometry0-vertex"/>
                    <input offset="1" semantic="NORMAL" source="#geometry0-normal"/>
                    <p>0 375 1 376 2 377 3 378 1 379 0 380 4 381 1 382 3 383 5 384 1 385 4 386 6 387 1 388 5 389</p>
                </triangles>
            </mesh>
        </geometry>
    </library_geometries>
    <library_visual_scenes>
        <visual_scene id="Building_pb-b317c25e-7f55-11f0-ac6a-9c7bef4dcf4c">
            <node>
                <instance_geometry url="#geometry0">
                    <bind_material>
                        <technique_common>
                            <instance_material symbol="default_ai_0.2_sh_0.2_tr_0.0_dc_r_0.8_g_0.8_b_0.8_sc_r_1.0_g_1.0_b_1.0_ec_r_0.0_g_0.0_b_0_tri" target="#default_ai_0.2_sh_0.2_tr_0.0_dc_r_0.8_g_0.8_b_0.8_sc_r_1.0_g_1.0_b_1.0_ec_r_0.0_g_0.0_b_0_mat"/>
                            <instance_material symbol="default_ai_0.2_sh_0.2_tr_0.0_dc_r_1.0_g_0.2_b_0.2_sc_r_1.0_g_1.0_b_1.0_ec_r_0.0_g_0.0_b_0_tri" target="#default_ai_0.2_sh_0.2_tr_0.0_dc_r_1.0_g_0.2_b_0.2_sc_r_1.0_g_1.0_b_1.0_ec_r_0.0_g_0.0_b_0_mat"/>
                        </technique_common>
                    </bind_material>
                </instance_geometry>
            </node>
        </visual_scene>
    </library_visual_scenes>
    <scene>
        <instance_visual_scene url="#Building_pb-b317c25e-7f55-11f0-ac6a-9c7bef4dcf4c"/>
    </scene>
</COLLADA>
