<?xml version="1.0" encoding="UTF-8" standalone="yes"?>
<COLLADA xmlns="http://www.collada.org/2005/11/COLLADASchema" version="1.4.1">
    <asset>
        <contributor>
            <authoring_tool>3D City Database Importer/Exporter, version 5.5.1; Chair of Geoinformatics, Technical University of Munich</authoring_tool>
        </contributor>
        <created>2026-01-16T16:51:34.825</created>
        <modified>2026-01-16T16:51:34.825</modified>
        <unit meter="1.0" name="meters"/>
        <up_axis>Z_UP</up_axis>
    </asset>
    <library_materials>
        <material id="default_ai_0.2_sh_0.2_tr_0.0_dc_r_0.8_g_0.8_b_0.8_sc_r_1.0_g_1.0_b_1.0_ec_r_0.0_g_0.0_b_0_mat">
            <instance_effect url="#default_ai_0.2_sh_0.2_tr_0.0_dc_r_0.8_g_0.8_b_0.8_sc_r_1.0_g_1.0_b_1.0_ec_r_0.0_g_0.0_b_0_eff"/>
        </material>
        <material id="default_ai_0.2_sh_0.2_tr_0.0_dc_r_1.0_g_0.2_b_0.2_sc_r_1.0_g_1.0_b_1.0_ec_r_0.0_g_0.0_b_0_mat">
            <instance_effect url="#default_ai_0.2_sh_0.2_tr_0.0_dc_r_1.0_g_0.2_b_0.2_sc_r_1.0_g_1.0_b_1.0_ec_r_0.0_g_0.0_b_0_eff"/>
        </material>
    </library_materials>
    <library_effects>
        <effect id="default_ai_0.2_sh_0.2_tr_0.0_dc_r_0.8_g_0.8_b_0.8_sc_r_1.0_g_1.0_b_1.0_ec_r_0.0_g_0.0_b_0_eff">
            <profile_COMMON>
                <technique sid="COMMON">
                    <lambert>
                        <emission>
                            <color>0.0 0.0 0.0 1.0</color>
                        </emission>
                        <diffuse>
                            <color>0.8 0.8 0.8 1.0</color>
                        </diffuse>
                        <reflective>
                            <color>1.0 1.0 1.0 1.0</color>
                        </reflective>
                        <reflectivity>
                            <float>0.2</float>
                        </reflectivity>
                        <transparent opaque="A_ONE">
                            <color>1.0 1.0 1.0 1.0</color>
                        </transparent>
                        <transparency>
                            <float>1.0</float>
                        </transparency>
                    </lambert>
                </technique>
                <extra>
                    <technique profile="GOOGLEEARTH">
                        <double_sided>1</double_sided>
                    </technique>
                </extra>
            </profile_COMMON>
        </effect>
        <effect id="default_ai_0.2_sh_0.2_tr_0.0_dc_r_1.0_g_0.2_b_0.2_sc_r_1.0_g_1.0_b_1.0_ec_r_0.0_g_0.0_b_0_eff">
            <profile_COMMON>
                <technique sid="COMMON">
                    <lambert>
                        <emission>
                            <color>0.0 0.0 0.0 1.0</color>
                        </emission>
                        <diffuse>
                            <color>1.0 0.2 0.2 1.0</color>
                        </diffuse>
                        <reflective>
                            <color>1.0 1.0 1.0 1.0</color>
                        </reflective>
                        <reflectivity>
                            <float>0.2</float>
                        </reflectivity>
                        <transparent opaque="A_ONE">
                            <color>1.0 1.0 1.0 1.0</color>
                        </transparent>
                        <transparency>
                            <float>1.0</float>
                        </transparency>
                    </lambert>
                </technique>
                <extra>
                    <technique profile="GOOGLEEARTH">
                        <double_sided>1</double_sided>
                    </technique>
                </extra>
            </profile_COMMON>
        </effect>
    </library_effects>
    <library_geometries>
        <geometry id="geometry0">
            <mesh>
                <source id="geometry0-position">
                    <float_array id="geometry0-position-array" count="375">-54.7547308 22.7529297 19.2538572 -74.4650274 -7.4754333 20.6000095 -72.2813268 -8.6925354 19.2538572 -56.9384161 23.9700623 20.6000095 -80.1426855 -4.3109131 17.1000104 -62.6160741 27.1345978 17.1000104 -54.7547308 22.7529297 17.1000104 -68.7873693 -10.6399536 17.1000104 -51.2608801 20.8055878 17.1000104 -72.2813268 -8.6925354 17.1000104 -31.1512151 28.7238312 14.0000101 -9.5609441 9.4134521 17.5000101 -6.403153 15.186203 14.0000101 -34.3090215 22.9510956 17.5000101 -35.5471655 20.6876373 16.1276775 -15.7863012 9.8781128 16.1276775 -17.7059332 6.3688202 14.0000101 -12.7187353 3.6407318 14.0000101 -35.5471655 20.6876373 14.0000101 -15.7863012 9.8781128 14.0000101 -37.4667974 17.17836 14.0000101 -24.5158086 -30.7081451 23.7000099 3.657E-4 -2.289E-4 20.2000099 -5.6780248 3.1578522 23.7000099 -18.8352514 -33.8674622 20.2000099 -7.861527 4.3722382 22.3543601 -26.6971288 -29.4949951 22.3543601 -7.861527 4.3722382 20.2000099 -30.1963812 -27.5488434 20.2000099 -26.6971288 -29.4949951 20.2000099 -11.3564153 6.3159637 20.2000099 -34.0423742 23.4385529 4.0000111 -57.419663 36.4581146 4.0000111 -62.6161962 27.1346436 4.0000111 -51.2608801 20.8055878 4.0000111 -37.4667974 17.17836 4.0000111 -68.7873693 -10.6399536 4.0000111 -12.8197637 3.6959991 4.0000111 -32.1498724 -31.0603485 4.0000111 -30.1963661 -27.5488494 20.2000098 -12.7376612 3.8436298 4.0000095 -12.819763 3.6960022 4.0000095 -11.3572653 6.316425 20.1925749 -11.3568247 6.3161837 4.0000083 -30.19678 -27.5486225 4.0000066 -17.7059362 6.3688246 14.000009 -15.7863005 9.8780991 16.1276755 -15.7863005 9.878101 14.000009 -18.8356493 -33.8672241 9.9E-6 3.588E-4 -2.339E-4 20.2000117 -18.835243 -33.8674568 20.2000098 -4.56E-5 8.0E-7 1.01E-5 -24.5158031 -30.7081474 23.7000117 -26.6971319 -29.4949878 22.3543601 -26.6971319 -29.4949859 20.2000098 -30.1967791 -27.5486205 6.4E-6 -32.1498683 -31.0603584 4.0000088 -32.1498669 -31.0603584 8.6E-6 -80.1426619 -4.3109144 6.3E-6 -74.465 -7.4754327 20.6000075 -80.1426657 -4.310912 17.1000075 -68.7873495 -10.6399568 4.0000064 -72.2812994 -8.6925586 17.1000075 -72.2812994 -8.6925596 19.2538542 -68.7873533 -10.6399577 17.1000075 -7.8615263 4.3722409 20.2000117 -7.8615263 4.3722405 22.354362 -12.7187193 3.6407301 14.000009 -37.4667972 17.1783644 4.0000083 -12.7187193 3.6407301 4.0000093 -37.4667998 17.1783654 14.0000081 -35.5471619 20.6876408 14.000009 -35.5471628 20.6876389 16.1276755 -9.5609358 9.4134661 17.5000109 -6.4031485 15.1862017 4.00001 -6.4031485 15.1862008 14.00001 -9.2902353 9.9083268 4.0000088 -9.5362165 9.4586512 16.2486052 -9.4276159 9.6571805 10.750009 -12.7376593 3.8436312 9.2E-6 -6.3990782 15.1936309 9.7E-6 -31.1512201 28.7238366 14.000009 -31.1512211 28.7238347 8.6E-6 -34.0423749 23.4385296 4.0000076 -34.0423782 23.4385296 7.4E-6 -34.3090079 22.9510991 17.500009 -62.6160849 27.1345784 17.1000075 -51.2608641 20.8055894 4.0000076 -62.6161821 27.1346337 4.000004 -56.9384287 23.9700581 20.6000094 -54.7547091 22.7529313 17.1000094 -51.2608622 20.8055913 17.1000094 -54.7547081 22.7529332 19.2538561 -57.4196547 36.4580933 7.1E-6 -57.4196566 36.4580933 4.0000074 -11.3611792 6.3186032 6.5E-6 -5.6780241 3.1578641 23.7000098 -9.1861017 10.2031256 4.0000086 -37.4667972 17.1783625 8.0E-6 -34.3905247 15.5195405 4.0000076 -31.3342083 13.8237292 4.0000074 -12.0494192 5.0811192 4.0000062 -11.3611773 6.3186061 2.0000066 -11.3611792 6.3186027 0.2686642 -11.2789057 6.2728507 4.0000081 -12.6238554 4.0482542 4.0000095 -11.9464529 5.2662541 4.0000064 -9.3407076 9.9262854 4.0000083 -11.1048105 6.7674467 4.0000088 -68.7852173 -10.6411133 7.7E-6 -30.1967163 -27.5486145 3.4E-6 -32.149826 -31.0603485 3.6E-6 -80.1257935 -4.320282 9.0E-6 -80.0979309 -4.2310028 9.0E-6 0.0 0.0 0.0 -18.8356171 -33.867218 2.1E-6 -63.79422 24.9373932 7.1E-6 -63.7852478 25.0370483 7.1E-6 -34.0423431 23.4385529 3.8E-6 -6.3990173 15.1936188 7.0E-7 -11.3611298 6.3186035 1.3E-6 -63.7495575 25.0173187 7.1E-6 -63.6673584 25.2485504 7.1E-6 -57.4196014 36.4580994 6.4E-6 -31.1511841 28.7238464 3.5E-6</float_array>
                    <technique_common>
                        <accessor count="125" source="#geometry0-position-array" stride="3">
                            <param name="X" type="float"/>
                            <param name="Y" type="float"/>
                            <param name="Z" type="float"/>
                        </accessor>
                    </technique_common>
                </source>
                <source id="geometry0-normal">
                    <float_array id="geometry0-normal-array" count="1179">-0.4799087 -0.8773184 -1.0E-6 -0.4799087 -0.8773184 -1.0E-6 -0.4799087 -0.8773184 -1.0E-6 -0.4799087 -0.8773184 -8.0E-7 -0.4799087 -0.8773184 -8.0E-7 -0.4799087 -0.8773184 -8.0E-7 0.8739328 -0.4860467 0.0 0.8739328 -0.4860467 0.0 0.8739328 -0.4860467 0.0 0.4868496 0.8734859 2.0E-7 0.4868496 0.8734859 2.0E-7 0.4868496 0.8734859 2.0E-7 0.8739388 -0.4860359 -1.807E-4 0.8739388 -0.4860359 -1.807E-4 0.8739388 -0.4860359 -1.807E-4 0.4868494 0.8734859 -1.0E-7 0.4868494 0.8734859 -1.0E-7 0.4868494 0.8734859 -1.0E-7 0.8739328 -0.4860466 -2.0E-7 0.8739328 -0.4860466 -2.0E-7 0.8739328 -0.4860466 -2.0E-7 0.4868496 0.8734858 1.0E-7 0.4868496 0.8734858 1.0E-7 0.4868496 0.8734858 1.0E-7 0.4868487 0.8734863 -3.0E-7 0.4868487 0.8734863 -3.0E-7 0.4868487 0.8734863 -3.0E-7 0.4868487 0.8734863 -8.0E-7 0.4868487 0.8734863 -8.0E-7 0.4868487 0.8734863 -8.0E-7 -0.8739398 0.4860342 -2.4E-6 -0.8739398 0.4860342 -2.4E-6 -0.8739398 0.4860342 -2.4E-6 -0.8738826 0.486137 2.586E-4 -0.8738826 0.486137 2.586E-4 -0.8738826 0.486137 2.586E-4 -0.8730765 0.4875832 -3.1E-5 -0.8730765 0.4875832 -3.1E-5 -0.8730765 0.4875832 -3.1E-5 -0.8739328 0.4860466 2.91E-5 -0.8739328 0.4860466 2.91E-5 -0.8739328 0.4860466 2.91E-5 0.8773183 -0.4799089 3.0E-7 0.8773183 -0.4799089 3.0E-7 0.8773183 -0.4799089 3.0E-7 0.8773186 -0.4799083 -8.0E-7 0.8773186 -0.4799083 -8.0E-7 0.8773186 -0.4799083 -8.0E-7 0.4746253 0.8801879 -4.0E-7 0.4746253 0.8801879 -4.0E-7 0.4746253 0.8801879 -4.0E-7 0.8773184 -0.4799086 -0.0 0.8773184 -0.4799086 -0.0 0.8773184 -0.4799086 -0.0 0.8773187 -0.4799082 2.0E-7 0.8773187 -0.4799082 2.0E-7 0.8773187 -0.4799082 2.0E-7 0.4141221 -0.2308171 0.8804694 0.4141221 -0.2308171 0.8804694 0.4141221 -0.2308171 0.8804694 0.414122 -0.230817 0.8804695 0.414122 -0.230817 0.8804695 0.414122 -0.230817 0.8804695 -0.8734874 0.4868468 0.0 -0.8734874 0.4868468 0.0 -0.8734874 0.4868468 0.0 -0.8734945 0.486834 -4.39E-5 -0.8734945 0.486834 -4.39E-5 -0.8734945 0.486834 -4.39E-5 -0.8773186 0.4799086 4.0E-7 -0.8773186 0.4799086 4.0E-7 -0.8773186 0.4799086 4.0E-7 -0.8734872 0.4868471 0.0 -0.8734872 0.4868471 0.0 -0.8734872 0.4868471 0.0 -0.873486 0.4868495 8.4E-6 -0.873486 0.4868495 8.4E-6 -0.873486 0.4868495 8.4E-6 0.8773186 -0.4799084 1.0E-7 0.8773186 -0.4799084 1.0E-7 0.8773186 -0.4799084 1.0E-7 0.4851475 0.8743692 -0.0105058 0.4851475 0.8743692 -0.0105058 0.4851475 0.8743692 -0.0105058 -0.4141191 0.2308153 0.8804713 -0.4141191 0.2308153 0.8804713 -0.4141191 0.2308153 0.8804713 -0.4141194 0.2308156 0.8804711 -0.4141194 0.2308156 0.8804711 -0.4141194 0.2308156 0.8804711 0.4728254 0.8810452 0.0139847 0.4728254 0.8810452 0.0139847 0.4728254 0.8810452 0.0139847 0.8739328 -0.4860466 -2.32E-5 0.8739328 -0.4860466 -2.32E-5 0.8739328 -0.4860466 -2.32E-5 0.8739329 -0.4860467 -2.31E-5 0.8739329 -0.4860467 -2.31E-5 0.8739329 -0.4860467 -2.31E-5 0.8734858 -0.4868496 0.0 0.8734858 -0.4868496 0.0 0.8734858 -0.4868496 0.0 0.8734857 -0.4868497 4.0E-7 0.8734857 -0.4868497 4.0E-7 0.8734857 -0.4868497 4.0E-7 -0.486048 -0.8739321 -3.0E-7 -0.486048 -0.8739321 -3.0E-7 -0.486048 -0.8739321 -3.0E-7 0.4746252 0.8801881 5.0E-7 0.4746252 0.8801881 5.0E-7 0.4746252 0.8801881 5.0E-7 -0.4860443 -0.8739341 9.0E-7 -0.4860443 -0.8739341 9.0E-7 -0.4860443 -0.8739341 9.0E-7 -0.4860478 -0.8739323 -8.0E-7 -0.4860478 -0.8739323 -8.0E-7 -0.4860478 -0.8739323 -8.0E-7 0.0 0.0 1.0 0.0 0.0 1.0 0.0 0.0 1.0 -0.4860471 -0.8739326 -4.0E-7 -0.4860471 -0.8739326 -4.0E-7 -0.4860471 -0.8739326 -4.0E-7 0.0 0.0 1.0 0.0 0.0 1.0 0.0 0.0 1.0 -0.4860466 -0.873933 1.0E-7 -0.4860466 -0.873933 1.0E-7 -0.4860466 -0.873933 1.0E-7 -1.0E-7 1.0E-7 -1.0 -1.0E-7 1.0E-7 -1.0 -1.0E-7 1.0E-7 -1.0 -0.4681028 -0.883674 -4.0E-7 -0.4681028 -0.883674 -4.0E-7 -0.4681028 -0.883674 -4.0E-7 -0.8773184 0.4799087 -3.0E-7 -0.8773184 0.4799087 -3.0E-7 -0.8773184 0.4799087 -3.0E-7 8.395E-4 -4.696E-4 -0.9999995 8.395E-4 -4.696E-4 -0.9999995 8.395E-4 -4.696E-4 -0.9999995 0.8734875 -0.4868468 -1.0E-7 0.8734875 -0.4868468 -1.0E-7 0.8734875 -0.4868468 -1.0E-7 0.8734874 -0.486847 5.0E-7 0.8734874 -0.486847 5.0E-7 0.8734874 -0.486847 5.0E-7 0.2253715 0.4120004 0.8828722 0.2253715 0.4120004 0.8828722 0.2253715 0.4120004 0.8828722 0.2253718 0.4120007 0.882872 0.2253718 0.4120007 0.882872 0.2253718 0.4120007 0.882872 3.6E-6 -2.1E-6 1.0 3.6E-6 -2.1E-6 1.0 3.6E-6 -2.1E-6 1.0 7.9E-6 -4.2E-6 -1.0 7.9E-6 -4.2E-6 -1.0 7.9E-6 -4.2E-6 -1.0 -5.4E-6 2.9E-6 -1.0 -5.4E-6 2.9E-6 -1.0 -5.4E-6 2.9E-6 -1.0 0.8773185 -0.4799085 0.0 0.8773185 -0.4799085 0.0 0.8773185 -0.4799085 0.0 9.189E-4 -5.137E-4 -0.9999995 9.189E-4 -5.137E-4 -0.9999995 9.189E-4 -5.137E-4 -0.9999995 0.8773187 -0.4799083 5.0E-7 0.8773187 -0.4799083 5.0E-7 0.8773187 -0.4799083 5.0E-7 -0.873933 0.4860465 -2.0E-7 -0.873933 0.4860465 -2.0E-7 -0.873933 0.4860465 -2.0E-7 -0.8730758 0.4875829 0.0012454 -0.8730758 0.4875829 0.0012454 -0.8730758 0.4875829 0.0012454 -0.4868942 -0.8734609 1.7E-6 -0.4868942 -0.8734609 1.7E-6 -0.4868942 -0.8734609 1.7E-6 -0.2253724 -0.4120017 0.8828714 -0.2253724 -0.4120017 0.8828714 -0.2253724 -0.4120017 0.8828714 0.8739328 -0.4860469 -2.0E-7 0.8739328 -0.4860469 -2.0E-7 0.8739328 -0.4860469 -2.0E-7 -0.2253738 -0.4120052 0.8828694 -0.2253738 -0.4120052 0.8828694 -0.2253738 -0.4120052 0.8828694 0.8739328 -0.4860467 0.0 0.8739328 -0.4860467 0.0 0.8739328 -0.4860467 0.0 0.8730741 -0.4875877 3.0E-7 0.8730741 -0.4875877 3.0E-7 0.8730741 -0.4875877 3.0E-7 -0.2253739 -0.4119987 0.8828723 -0.2253739 -0.4119987 0.8828723 -0.2253739 -0.4119987 0.8828723 0.8730766 -0.487583 -1.72E-5 0.8730766 -0.487583 -1.72E-5 0.8730766 -0.487583 -1.72E-5 -0.2253725 -0.4120016 0.8828715 -0.2253725 -0.4120016 0.8828715 -0.2253725 -0.4120016 0.8828715 0.0 0.0 1.0 0.0 0.0 1.0 0.0 0.0 1.0 0.0 0.0 1.0 0.0 0.0 1.0 0.0 0.0 1.0 0.4870718 0.8733619 -2.2E-6 0.4870718 0.8733619 -2.2E-6 0.4870718 0.8733619 -2.2E-6 -0.4868489 -0.8734862 1.0E-7 -0.4868489 -0.8734862 1.0E-7 -0.4868489 -0.8734862 1.0E-7 -0.4868495 -0.8734859 3.0E-7 -0.4868495 -0.8734859 3.0E-7 -0.4868495 -0.8734859 3.0E-7 -0.4868551 -0.8734828 -2.2E-6 -0.4868551 -0.8734828 -2.2E-6 -0.4868551 -0.8734828 -2.2E-6 -0.4868529 -0.8734841 -4.0E-7 -0.4868529 -0.8734841 -4.0E-7 -0.4868529 -0.8734841 -4.0E-7 -0.4868494 -0.8734859 -1.0E-7 -0.4868494 -0.8734859 -1.0E-7 -0.4868494 -0.8734859 -1.0E-7 -0.4868494 -0.8734859 0.0 -0.4868494 -0.8734859 0.0 -0.4868494 -0.8734859 0.0 -0.4868498 -0.8734857 -3.0E-7 -0.4868498 -0.8734857 -3.0E-7 -0.4868498 -0.8734857 -3.0E-7 1.0E-7 -1.0E-7 -1.0 1.0E-7 -1.0E-7 -1.0 1.0E-7 -1.0E-7 -1.0 0.4799088 0.8773184 1.0E-7 0.4799088 0.8773184 1.0E-7 0.4799088 0.8773184 1.0E-7 0.4805661 0.8769559 0.0021177 0.4805661 0.8769559 0.0021177 0.4805661 0.8769559 0.0021177 0.4796452 0.8774625 -1.0E-7 0.4796452 0.8774625 -1.0E-7 0.4796452 0.8774625 -1.0E-7 0.4144398 -0.23053 0.8803952 0.4144398 -0.23053 0.8803952 0.4144398 -0.23053 0.8803952 0.4143313 -0.2304347 0.8804711 0.4143313 -0.2304347 0.8804711 0.4143313 -0.2304347 0.8804711 -3.8E-6 1.7E-6 -1.0 -3.8E-6 1.7E-6 -1.0 -3.8E-6 1.7E-6 -1.0 -1.33E-5 7.4E-6 -1.0 -1.33E-5 7.4E-6 -1.0 -1.33E-5 7.4E-6 -1.0 -0.4143912 0.230503 0.880425 -0.4143912 0.230503 0.880425 -0.4143912 0.230503 0.880425 -2.0E-7 -4.0E-7 -1.0 -2.0E-7 -4.0E-7 -1.0 -2.0E-7 -4.0E-7 -1.0 -0.4147288 0.2306556 0.8802261 -0.4147288 0.2306556 0.8802261 -0.4147288 0.2306556 0.8802261 0.4865618 0.8736461 0.0 0.4865618 0.8736461 0.0 0.4865618 0.8736461 0.0 0.4865618 0.8736463 -5.0E-7 0.4865618 0.8736463 -5.0E-7 0.4865618 0.8736463 -5.0E-7 -0.8773186 0.4799084 -1.0E-7 -0.8773186 0.4799084 -1.0E-7 -0.8773186 0.4799084 -1.0E-7 -0.8773183 0.4799089 -4.0E-7 -0.8773183 0.4799089 -4.0E-7 -0.8773183 0.4799089 -4.0E-7 -0.8773183 0.4799089 -5.0E-7 -0.8773183 0.4799089 -5.0E-7 -0.8773183 0.4799089 -5.0E-7 -0.8773183 0.4799089 8.0E-7 -0.8773183 0.4799089 8.0E-7 -0.8773183 0.4799089 8.0E-7 -1.0E-7 -0.0 -1.0 -1.0E-7 -0.0 -1.0 -1.0E-7 -0.0 -1.0 -1.0E-7 -0.0 -1.0 -1.0E-7 -0.0 -1.0 -1.0E-7 -0.0 -1.0 -1.0E-7 0.0 -1.0 -1.0E-7 0.0 -1.0 -1.0E-7 0.0 -1.0 -1.0E-7 0.0 -1.0 -1.0E-7 0.0 -1.0 -1.0E-7 0.0 -1.0 -0.8739328 0.4860468 7.0E-7 -0.8739328 0.4860468 7.0E-7 -0.8739328 0.4860468 7.0E-7 -1.0E-7 0.0 -1.0 -1.0E-7 0.0 -1.0 -1.0E-7 0.0 -1.0 -0.8739328 0.4860466 1.0E-7 -0.8739328 0.4860466 1.0E-7 -0.8739328 0.4860466 1.0E-7 -1.0E-7 0.0 -1.0 -1.0E-7 0.0 -1.0 -1.0E-7 0.0 -1.0 -1.0E-7 -0.0 -1.0 -1.0E-7 -0.0 -1.0 -1.0E-7 -0.0 -1.0 -1.0E-7 0.0 -1.0 -1.0E-7 0.0 -1.0 -1.0E-7 0.0 -1.0 -1.0E-7 -0.0 -1.0 -1.0E-7 -0.0 -1.0 -1.0E-7 -0.0 -1.0 -1.0E-7 0.0 -1.0 -1.0E-7 0.0 -1.0 -1.0E-7 0.0 -1.0 -1.0E-7 0.0 -1.0 -1.0E-7 0.0 -1.0 -1.0E-7 0.0 -1.0 0.0 0.0 1.0 0.0 0.0 1.0 0.0 0.0 1.0 -1.0E-7 -0.0 -1.0 -1.0E-7 -0.0 -1.0 -1.0E-7 -0.0 -1.0 0.0 0.0 1.0 0.0 0.0 1.0 0.0 0.0 1.0 -1.0E-7 0.0 -1.0 -1.0E-7 0.0 -1.0 -1.0E-7 0.0 -1.0 -1.0E-7 0.0 -1.0 -1.0E-7 0.0 -1.0 -1.0E-7 0.0 -1.0 0.4860462 0.8739332 -6.0E-7 0.4860462 0.8739332 -6.0E-7 0.4860462 0.8739332 -6.0E-7 0.4860463 0.8739331 -1.0E-7 0.4860463 0.8739331 -1.0E-7 0.4860463 0.8739331 -1.0E-7 0.4860466 0.8739329 0.0 0.4860466 0.8739329 0.0 0.4860466 0.8739329 0.0 0.4860477 0.8739322 4.0E-7 0.4860477 0.8739322 4.0E-7 0.4860477 0.8739322 4.0E-7 0.4860453 0.8739336 2.0E-7 0.4860453 0.8739336 2.0E-7 0.4860453 0.8739336 2.0E-7 0.4860464 0.873933 2.0E-7 0.4860464 0.873933 2.0E-7 0.4860464 0.873933 2.0E-7 0.0 0.0 1.0 0.0 0.0 1.0 0.0 0.0 1.0 0.0 0.0 1.0 0.0 0.0 1.0 0.0 0.0 1.0 0.0 0.0 1.0 0.0 0.0 1.0 0.0 0.0 1.0 0.0 0.0 1.0 0.0 0.0 1.0 0.0 0.0 1.0 0.0 0.0 1.0 0.0 0.0 1.0 0.0 0.0 1.0 -0.4799086 -0.8773184 0.0 -0.4799086 -0.8773184 0.0 -0.4799086 -0.8773184 0.0 0.0 0.0 1.0 0.0 0.0 1.0 0.0 0.0 1.0 -0.4799086 -0.8773185 -5.0E-7 -0.4799086 -0.8773185 -5.0E-7 -0.4799086 -0.8773185 -5.0E-7 -0.4799086 -0.8773184 -0.0 -0.4799086 -0.8773184 -0.0 -0.4799086 -0.8773184 -0.0 1.4E-6 -5.0E-7 -1.0 1.4E-6 -5.0E-7 -1.0 1.4E-6 -5.0E-7 -1.0 -0.8773184 0.4799086 0.0 -0.8773184 0.4799086 0.0 -0.8773184 0.4799086 0.0 -0.8773187 0.4799081 4.0E-7 -0.8773187 0.4799081 4.0E-7 -0.8773187 0.4799081 4.0E-7</float_array>
                    <technique_common>
                        <accessor count="393" source="#geometry0-normal-array" stride="3">
                            <param name="X" type="float"/>
                            <param name="Y" type="float"/>
                            <param name="Z" type="float"/>
                        </accessor>
                    </technique_common>
                </source>
                <source id="geometry0-texCoords">
                    <float_array id="geometry0-texCoords-array" count="0"></float_array>
                    <technique_common>
                        <accessor count="0" source="#geometry0-texCoords-array" stride="2">
                            <param name="S" type="float"/>
                            <param name="T" type="float"/>
                        </accessor>
                    </technique_common>
                </source>
                <vertices id="geometry0-vertex">
                    <input semantic="POSITION" source="#geometry0-position"/>
                </vertices>
                <triangles count="105" material="default_ai_0.2_sh_0.2_tr_0.0_dc_r_0.8_g_0.8_b_0.8_sc_r_1.0_g_1.0_b_1.0_ec_r_0.0_g_0.0_b_0_tri">
                    <input offset="0" semantic="VERTEX" source="#geometry0-vertex"/>
                    <input offset="1" semantic="NORMAL" source="#geometry0-normal"/>
                    <p>71 0 46 1 72 2 47 3 46 4 71 5 40 6 55 7 79 8 86 9 87 10 88 11 41 12 55 13 40 14 89 15 87 16 86 17 44 18 55 19 41 20 90 21 87 22 89 23 91 24 87 25 90 26 89 27 92 28 90 29 39 30 40 31 41 32 42 33 40 34 39 35 43 36 40 37 42 38 44 39 39 40 41 41 98 42 83 43 68 44 84 45 83 46 98 47 98 48 68 49 99 50 73 51 74 52 75 53 76 54 74 55 73 56 60 63 93 64 58 65 88 66 93 67 60 68 45 69 46 70 47 71 94 72 93 73 88 74 86 75 88 76 60 77 69 78 76 79 77 80 98 81 99 82 100 83 98 90 100 91 40 92 48 93 49 94 50 95 51 96 49 97 48 98 62 99 92 100 63 101 90 102 92 103 62 104 52 105 48 106 50 107 98 108 40 109 79 110 53 111 48 112 52 113 54 114 48 115 53 116 39 120 48 121 54 122 55 126 48 127 39 128 100 129 68 130 99 131 44 132 55 133 39 134 69 135 77 136 78 137 43 138 105 139 106 140 91 141 61 142 87 143 64 144 61 145 91 146 44 153 69 154 41 155 104 156 107 157 76 158 108 159 107 160 104 161 78 162 67 163 69 164 40 165 101 166 43 167 73 168 67 169 78 170 40 171 95 172 79 173 43 174 95 175 40 176 102 177 95 178 43 179 56 183 55 184 44 185 57 189 55 190 56 191 79 192 74 193 40 194 80 198 74 199 79 200 102 210 43 211 103 212 58 213 59 214 60 215 61 216 59 217 58 218 62 219 59 220 61 221 63 222 59 223 62 224 57 225 61 226 58 227 56 228 61 229 57 230 64 231 62 232 61 233 40 234 41 235 100 236 74 237 81 238 75 239 80 240 81 241 74 242 82 243 81 244 80 245 41 252 104 253 69 254 40 255 104 256 41 257 43 261 104 262 40 263 94 267 84 268 93 269 83 270 84 271 94 272 83 273 81 274 82 275 68 276 81 277 83 278 70 279 81 280 68 281 84 282 83 283 82 284 109 285 110 286 111 287 112 288 110 289 109 290 113 291 110 292 112 293 114 294 110 295 113 296 53 297 65 298 54 299 115 300 110 301 114 302 66 303 65 304 53 305 116 306 113 307 117 308 118 309 113 310 116 311 119 312 113 313 118 314 120 315 113 316 119 317 114 318 113 319 120 320 121 321 118 322 116 323 122 327 118 328 121 329 123 333 118 334 122 335 124 336 119 337 118 338 43 339 51 340 95 341 65 342 51 343 43 344 96 345 51 346 65 347 49 348 51 349 96 350 42 351 65 352 43 353 66 354 96 355 65 356 67 372 68 373 69 374 45 378 68 379 67 380 70 381 68 382 45 383 74 384 76 385 97 386 71 387 85 388 81 389 72 390 85 391 71 392</p>
                </triangles>
                <triangles count="26" material="default_ai_0.2_sh_0.2_tr_0.0_dc_r_1.0_g_0.2_b_0.2_sc_r_1.0_g_1.0_b_1.0_ec_r_0.0_g_0.0_b_0_tri">
                    <input offset="0" semantic="VERTEX" source="#geometry0-vertex"/>
                    <input offset="1" semantic="NORMAL" source="#geometry0-normal"/>
                    <p>0 57 1 58 2 59 3 60 1 61 0 62 4 84 3 85 5 86 1 87 3 88 4 89 6 117 7 118 8 119 9 123 7 124 6 125 10 147 11 148 12 149 13 150 11 151 10 152 14 180 11 181 13 182 15 186 11 187 14 188 16 195 11 196 15 197 17 201 11 202 16 203 18 204 16 205 19 206 20 207 16 208 18 209 21 246 22 247 23 248 24 249 22 250 21 251 25 258 21 259 23 260 26 264 21 265 25 266 27 324 28 325 29 326 30 330 28 331 27 332 31 357 32 358 33 359 34 360 31 361 33 362 35 363 31 364 34 365 36 366 35 367 34 368 37 369 35 370 36 371 38 375 37 376 36 377</p>
                </triangles>
            </mesh>
        </geometry>
    </library_geometries>
    <library_visual_scenes>
        <visual_scene id="Building_pb-96359a08-7f36-11f0-8a7e-9c7bef4dcf4c">
            <node>
                <instance_geometry url="#geometry0">
                    <bind_material>
                        <technique_common>
                            <instance_material symbol="default_ai_0.2_sh_0.2_tr_0.0_dc_r_0.8_g_0.8_b_0.8_sc_r_1.0_g_1.0_b_1.0_ec_r_0.0_g_0.0_b_0_tri" target="#default_ai_0.2_sh_0.2_tr_0.0_dc_r_0.8_g_0.8_b_0.8_sc_r_1.0_g_1.0_b_1.0_ec_r_0.0_g_0.0_b_0_mat"/>
                            <instance_material symbol="default_ai_0.2_sh_0.2_tr_0.0_dc_r_1.0_g_0.2_b_0.2_sc_r_1.0_g_1.0_b_1.0_ec_r_0.0_g_0.0_b_0_tri" target="#default_ai_0.2_sh_0.2_tr_0.0_dc_r_1.0_g_0.2_b_0.2_sc_r_1.0_g_1.0_b_1.0_ec_r_0.0_g_0.0_b_0_mat"/>
                        </technique_common>
                    </bind_material>
                </instance_geometry>
            </node>
        </visual_scene>
    </library_visual_scenes>
    <scene>
        <instance_visual_scene url="#Building_pb-96359a08-7f36-11f0-8a7e-9c7bef4dcf4c"/>
    </scene>
</COLLADA>
