<?xml version="1.0" encoding="UTF-8" standalone="yes"?>
<COLLADA xmlns="http://www.collada.org/2005/11/COLLADASchema" version="1.4.1">
    <asset>
        <contributor>
            <authoring_tool>3D City Database Importer/Exporter, version 5.5.1; Chair of Geoinformatics, Technical University of Munich</authoring_tool>
        </contributor>
        <created>2026-01-16T16:51:34.738</created>
        <modified>2026-01-16T16:51:34.738</modified>
        <unit meter="1.0" name="meters"/>
        <up_axis>Z_UP</up_axis>
    </asset>
    <library_materials>
        <material id="default_ai_0.2_sh_0.2_tr_0.0_dc_r_0.8_g_0.8_b_0.8_sc_r_1.0_g_1.0_b_1.0_ec_r_0.0_g_0.0_b_0_mat">
            <instance_effect url="#default_ai_0.2_sh_0.2_tr_0.0_dc_r_0.8_g_0.8_b_0.8_sc_r_1.0_g_1.0_b_1.0_ec_r_0.0_g_0.0_b_0_eff"/>
        </material>
        <material id="default_ai_0.2_sh_0.2_tr_0.0_dc_r_1.0_g_0.2_b_0.2_sc_r_1.0_g_1.0_b_1.0_ec_r_0.0_g_0.0_b_0_mat">
            <instance_effect url="#default_ai_0.2_sh_0.2_tr_0.0_dc_r_1.0_g_0.2_b_0.2_sc_r_1.0_g_1.0_b_1.0_ec_r_0.0_g_0.0_b_0_eff"/>
        </material>
    </library_materials>
    <library_effects>
        <effect id="default_ai_0.2_sh_0.2_tr_0.0_dc_r_0.8_g_0.8_b_0.8_sc_r_1.0_g_1.0_b_1.0_ec_r_0.0_g_0.0_b_0_eff">
            <profile_COMMON>
                <technique sid="COMMON">
                    <lambert>
                        <emission>
                            <color>0.0 0.0 0.0 1.0</color>
                        </emission>
                        <diffuse>
                            <color>0.8 0.8 0.8 1.0</color>
                        </diffuse>
                        <reflective>
                            <color>1.0 1.0 1.0 1.0</color>
                        </reflective>
                        <reflectivity>
                            <float>0.2</float>
                        </reflectivity>
                        <transparent opaque="A_ONE">
                            <color>1.0 1.0 1.0 1.0</color>
                        </transparent>
                        <transparency>
                            <float>1.0</float>
                        </transparency>
                    </lambert>
                </technique>
                <extra>
                    <technique profile="GOOGLEEARTH">
                        <double_sided>1</double_sided>
                    </technique>
                </extra>
            </profile_COMMON>
        </effect>
        <effect id="default_ai_0.2_sh_0.2_tr_0.0_dc_r_1.0_g_0.2_b_0.2_sc_r_1.0_g_1.0_b_1.0_ec_r_0.0_g_0.0_b_0_eff">
            <profile_COMMON>
                <technique sid="COMMON">
                    <lambert>
                        <emission>
                            <color>0.0 0.0 0.0 1.0</color>
                        </emission>
                        <diffuse>
                            <color>1.0 0.2 0.2 1.0</color>
                        </diffuse>
                        <reflective>
                            <color>1.0 1.0 1.0 1.0</color>
                        </reflective>
                        <reflectivity>
                            <float>0.2</float>
                        </reflectivity>
                        <transparent opaque="A_ONE">
                            <color>1.0 1.0 1.0 1.0</color>
                        </transparent>
                        <transparency>
                            <float>1.0</float>
                        </transparency>
                    </lambert>
                </technique>
                <extra>
                    <technique profile="GOOGLEEARTH">
                        <double_sided>1</double_sided>
                    </technique>
                </extra>
            </profile_COMMON>
        </effect>
    </library_effects>
    <library_geometries>
        <geometry id="geometry0">
            <mesh>
                <source id="geometry0-position">
                    <float_array id="geometry0-position-array" count="123">-6.0071722 -6.0757751 8.0000585 -7.5670782 -0.994812 9.0000585 -9.2016607 -4.6455841 8.0000585 -4.3726202 -2.4250031 9.0000585 -1.6345525 -3.6509094 9.0000575 -6.8244329 -7.9011688 5.5000581 -4.0863653 -9.1270905 5.5000581 9.0E-7 -1.379E-4 6.665724 -5.9324952 2.6560816 6.6657232 -6.7501982 0.8306776 7.8329614 -7.0513245 0.1580876 8.2630034 -7.5670789 -0.9948163 9.0000508 -4.3726302 -2.4250276 9.000012 -1.6345654 -3.6509418 8.999997 -6.0071919 -6.0757745 5.95E-5 -9.2016423 -4.6455453 8.0000597 -9.2016423 -4.6455453 6.07E-5 -6.0071919 -6.0757745 8.0000597 -6.8244756 -7.9011606 5.5000597 -6.0071919 -6.0757745 6.6667252 -6.8244756 -7.9011606 5.96E-5 -4.086385 -9.1270669 5.95E-5 -4.0863927 -9.1270746 5.5000592 -5.9325459 2.6560408 6.6657267 -1.27E-5 -9.85E-5 5.93E-5 -5.9325459 2.6560408 6.07E-5 -1.27E-5 -1.138E-4 6.6657282 -1.6345647 -3.6508935 9.0000587 -7.5670903 -0.994758 9.0000597 -9.2016423 -4.6455453 6.6667267 -8.3843663 -2.820144 7.8333932 -4.3726552 -2.4249795 9.0000597 -6.7498219 0.8306395 7.8328934 -7.0222447 0.2221839 6.6660596 -8.1119435 -2.2116769 6.6663933 0.0 0.0 0.0 -6.0071716 -6.0757141 7.0E-7 -9.2016296 -4.645462 2.0E-6 -4.0863647 -9.1270294 5.0E-7 -6.8244629 -7.9010468 8.0E-7 -5.9325256 2.6560822 1.6E-6</float_array>
                    <technique_common>
                        <accessor count="41" source="#geometry0-position-array" stride="3">
                            <param name="X" type="float"/>
                            <param name="Y" type="float"/>
                            <param name="Z" type="float"/>
                        </accessor>
                    </technique_common>
                </source>
                <source id="geometry0-normal">
                    <float_array id="geometry0-normal-array" count="288">0.4086367 0.9126971 0.0 0.4086367 0.9126971 0.0 0.4086367 0.9126971 0.0 -0.0991055 -0.2213631 0.9701425 -0.0991055 -0.2213631 0.9701425 -0.0991055 -0.2213631 0.9701425 0.4086387 0.9126962 2.1E-6 0.4086387 0.9126962 2.1E-6 0.4086387 0.9126962 2.1E-6 -0.0991066 -0.2213634 0.9701423 -0.0991066 -0.2213634 0.9701423 -0.0991066 -0.2213634 0.9701423 -0.4086358 -0.9126976 0.0 -0.4086358 -0.9126976 0.0 -0.4086358 -0.9126976 0.0 -0.4086358 -0.9126976 0.0 -0.4086358 -0.9126976 0.0 -0.4086358 -0.9126976 0.0 -0.2059034 -0.4598804 0.8637788 -0.2059034 -0.4598804 0.8637788 -0.2059034 -0.4598804 0.8637788 -0.2059014 -0.4598823 0.8637782 -0.2059014 -0.4598823 0.8637782 -0.2059014 -0.4598823 0.8637782 0.9126976 -0.4086357 -1.5E-6 0.9126976 -0.4086357 -1.5E-6 0.9126976 -0.4086357 -1.5E-6 0.9126983 -0.408634 0.0 0.9126983 -0.408634 0.0 0.9126983 -0.408634 0.0 -0.9126945 0.4086425 0.0 -0.9126945 0.4086425 0.0 -0.9126945 0.4086425 0.0 -0.9126945 0.4086425 0.0 -0.9126945 0.4086425 0.0 -0.9126945 0.4086425 0.0 0.9126964 -0.4086383 7.0E-7 0.9126964 -0.4086383 7.0E-7 0.9126964 -0.4086383 7.0E-7 0.912697 -0.4086373 -1.0E-7 0.912697 -0.4086373 -1.0E-7 0.912697 -0.4086373 -1.0E-7 0.9126961 -0.4086391 -9.0E-7 0.9126961 -0.4086391 -9.0E-7 0.9126961 -0.4086391 -9.0E-7 0.2059675 0.4600153 0.8636917 0.2059675 0.4600153 0.8636917 0.2059675 0.4600153 0.8636917 0.2059674 0.4600149 0.8636919 0.2059674 0.4600149 0.8636919 0.2059674 0.4600149 0.8636919 0.2059674 0.4600149 0.8636919 0.2059674 0.4600149 0.8636919 0.2059674 0.4600149 0.8636919 0.2059674 0.4600154 0.8636917 0.2059674 0.4600154 0.8636917 0.2059674 0.4600154 0.8636917 -3.0E-7 2.0E-7 -1.0 -3.0E-7 2.0E-7 -1.0 -3.0E-7 2.0E-7 -1.0 0.2059675 0.4600151 0.8636917 0.2059675 0.4600151 0.8636917 0.2059675 0.4600151 0.8636917 0.9126969 -0.4086373 -1.5E-6 0.9126969 -0.4086373 -1.5E-6 0.9126969 -0.4086373 -1.5E-6 -1.0E-7 -0.0 -1.0 -1.0E-7 -0.0 -1.0 -1.0E-7 -0.0 -1.0 -1.0E-7 -0.0 -1.0 -1.0E-7 -0.0 -1.0 -1.0E-7 -0.0 -1.0 -3.0E-7 1.0E-7 -1.0 -3.0E-7 1.0E-7 -1.0 -3.0E-7 1.0E-7 -1.0 -0.4086387 -0.9126962 -1.8E-6 -0.4086387 -0.9126962 -1.8E-6 -0.4086387 -0.9126962 -1.8E-6 -0.4086356 -0.9126976 0.0 -0.4086356 -0.9126976 0.0 -0.4086356 -0.9126976 0.0 0.9126972 -0.4086365 -4.8E-6 0.9126972 -0.4086365 -4.8E-6 0.9126972 -0.4086365 -4.8E-6 0.9126972 -0.4086366 -2.0E-6 0.9126972 -0.4086366 -2.0E-6 0.9126972 -0.4086366 -2.0E-6 0.9126972 -0.4086366 -1.9E-6 0.9126972 -0.4086366 -1.9E-6 0.9126972 -0.4086366 -1.9E-6 -0.9126966 0.4086378 0.0 -0.9126966 0.4086378 0.0 -0.9126966 0.4086378 0.0 -0.8472371 0.0423619 0.5295231 -0.8472371 0.0423619 0.5295231 -0.8472371 0.0423619 0.5295231</float_array>
                    <technique_common>
                        <accessor count="96" source="#geometry0-normal-array" stride="3">
                            <param name="X" type="float"/>
                            <param name="Y" type="float"/>
                            <param name="Z" type="float"/>
                        </accessor>
                    </technique_common>
                </source>
                <source id="geometry0-texCoords">
                    <float_array id="geometry0-texCoords-array" count="0"></float_array>
                    <technique_common>
                        <accessor count="0" source="#geometry0-texCoords-array" stride="2">
                            <param name="S" type="float"/>
                            <param name="T" type="float"/>
                        </accessor>
                    </technique_common>
                </source>
                <vertices id="geometry0-vertex">
                    <input semantic="POSITION" source="#geometry0-position"/>
                </vertices>
                <triangles count="23" material="default_ai_0.2_sh_0.2_tr_0.0_dc_r_0.8_g_0.8_b_0.8_sc_r_1.0_g_1.0_b_1.0_ec_r_0.0_g_0.0_b_0_tri">
                    <input offset="0" semantic="VERTEX" source="#geometry0-vertex"/>
                    <input offset="1" semantic="NORMAL" source="#geometry0-normal"/>
                    <p>23 0 24 1 25 2 26 6 24 7 23 8 14 12 15 13 16 14 17 15 15 16 14 17 29 24 34 25 30 26 19 27 31 28 17 29 14 30 18 31 19 32 20 33 18 34 14 35 21 36 27 37 22 38 24 39 27 40 21 41 26 42 27 43 24 44 35 57 36 58 37 59 23 63 32 64 33 65 38 66 36 67 35 68 39 69 36 70 38 71 40 72 35 73 37 74 18 75 21 76 22 77 20 78 21 79 18 80 30 81 32 82 28 83 34 84 32 85 30 86 33 87 32 88 34 89 28 90 29 91 15 92 30 93 29 94 28 95</p>
                </triangles>
                <triangles count="9" material="default_ai_0.2_sh_0.2_tr_0.0_dc_r_1.0_g_0.2_b_0.2_sc_r_1.0_g_1.0_b_1.0_ec_r_0.0_g_0.0_b_0_tri">
                    <input offset="0" semantic="VERTEX" source="#geometry0-vertex"/>
                    <input offset="1" semantic="NORMAL" source="#geometry0-normal"/>
                    <p>0 3 1 4 2 5 3 9 1 10 0 11 4 18 5 19 6 20 3 21 5 22 4 23 7 45 8 46 9 47 7 48 9 49 10 50 7 51 10 52 11 53 7 54 11 55 12 56 7 60 12 61 13 62</p>
                </triangles>
            </mesh>
        </geometry>
    </library_geometries>
    <library_visual_scenes>
        <visual_scene id="Building_pb-9635e7ec-7f36-11f0-b55b-9c7bef4dcf4c">
            <node>
                <instance_geometry url="#geometry0">
                    <bind_material>
                        <technique_common>
                            <instance_material symbol="default_ai_0.2_sh_0.2_tr_0.0_dc_r_0.8_g_0.8_b_0.8_sc_r_1.0_g_1.0_b_1.0_ec_r_0.0_g_0.0_b_0_tri" target="#default_ai_0.2_sh_0.2_tr_0.0_dc_r_0.8_g_0.8_b_0.8_sc_r_1.0_g_1.0_b_1.0_ec_r_0.0_g_0.0_b_0_mat"/>
                            <instance_material symbol="default_ai_0.2_sh_0.2_tr_0.0_dc_r_1.0_g_0.2_b_0.2_sc_r_1.0_g_1.0_b_1.0_ec_r_0.0_g_0.0_b_0_tri" target="#default_ai_0.2_sh_0.2_tr_0.0_dc_r_1.0_g_0.2_b_0.2_sc_r_1.0_g_1.0_b_1.0_ec_r_0.0_g_0.0_b_0_mat"/>
                        </technique_common>
                    </bind_material>
                </instance_geometry>
            </node>
        </visual_scene>
    </library_visual_scenes>
    <scene>
        <instance_visual_scene url="#Building_pb-9635e7ec-7f36-11f0-b55b-9c7bef4dcf4c"/>
    </scene>
</COLLADA>
